<svg width="37" height="37" viewBox="0 0 37 37" fill="none" xmlns="http://www.w3.org/2000/svg">
<path d="M14.949 13.6796V21.5204L21.447 17.7476V9.8996L14.949 13.6796Z" fill="#DBC8F6" stroke="#5100CD" stroke-linecap="round" stroke-linejoin="round"/>
<path d="M11.5469 11.714L14.9489 13.6796V21.5204L11.5469 19.5548V11.714Z" fill="#F5EDFF" stroke="#5100CD" stroke-linecap="round" stroke-linejoin="round"/>
<path d="M18.0413 7.952L11.5469 11.714L14.9489 13.6796L21.4469 9.8996L18.0413 7.952Z" fill="#F5EDFF" stroke="#5100CD" stroke-linecap="round" stroke-linejoin="round"/>
<path d="M16.2017 4.52481V8.43801L19.6037 10.4036V6.49041L16.2017 4.52481Z" fill="#F5EDFF" stroke="#5100CD" stroke-linecap="round" stroke-linejoin="round"/>
<path d="M16.1981 4.52481V8.43801L12.7961 10.4036V6.49041L16.1981 4.52481Z" fill="#F5EDFF" stroke="#5100CD" stroke-linecap="round" stroke-linejoin="round"/>
<path d="M19.6002 10.3892V6.47241L16.1982 8.43801V12.3548L19.6002 10.3892Z" fill="#DBC8F6" stroke="#5100CD" stroke-linecap="round" stroke-linejoin="round"/>
<path d="M12.7961 10.3892V6.47241L16.1981 8.43801V12.3548L12.7961 10.3892Z" fill="#F5EDFF" stroke="#5100CD" stroke-linecap="round" stroke-linejoin="round"/>
<path d="M16.1981 8.43801L12.7961 6.47241L16.1945 4.52481L19.6001 6.47241L16.1981 8.43801Z" fill="#F5EDFF" stroke="#5100CD" stroke-linecap="round" stroke-linejoin="round"/>
<path d="M22.03 20.7608V28.6016L28.528 24.8288V16.9808L22.03 20.7608Z" fill="#DBC8F6" stroke="#5100CD" stroke-linecap="round" stroke-linejoin="round"/>
<path d="M18.6281 18.7952L22.0301 20.7608V28.6016L18.6245 26.636L18.6281 18.7952Z" fill="#F5EDFF" stroke="#5100CD" stroke-linecap="round" stroke-linejoin="round"/>
<path d="M25.1226 15.0332L18.6282 18.7952L22.0302 20.7608L28.5282 16.9808L25.1226 15.0332Z" fill="#F5EDFF" stroke="#5100CD" stroke-linecap="round" stroke-linejoin="round"/>
<path d="M23.2827 11.606V15.5192L26.6847 17.4848V13.5716L23.2827 11.606Z" fill="#F5EDFF" stroke="#5100CD" stroke-linecap="round" stroke-linejoin="round"/>
<path d="M23.2792 11.606V15.5192L19.8772 17.4848V13.5716L23.2792 11.606Z" fill="#F5EDFF" stroke="#5100CD" stroke-linecap="round" stroke-linejoin="round"/>
<path d="M26.6813 17.4704V13.5536L23.2793 15.5192V19.436L26.6813 17.4704Z" fill="#DBC8F6" stroke="#5100CD" stroke-linecap="round" stroke-linejoin="round"/>
<path d="M19.8772 17.4704V13.5536L23.2792 15.5192V19.436L19.8772 17.4704Z" fill="#F5EDFF" stroke="#5100CD" stroke-linecap="round" stroke-linejoin="round"/>
<path d="M23.2792 15.5192L19.8772 13.5536L23.2756 11.606L26.6812 13.5536L23.2792 15.5192Z" fill="#F5EDFF" stroke="#5100CD" stroke-linecap="round" stroke-linejoin="round"/>
<path d="M14.1426 25.3436V33.1844L20.6442 29.4116V21.5636L14.1426 25.3436Z" fill="#DBC8F6" stroke="#5100CD" stroke-linecap="round" stroke-linejoin="round"/>
<path d="M10.7405 23.3816L14.1425 25.3436V33.1844L10.7405 31.2224V23.3816Z" fill="#F5EDFF" stroke="#5100CD" stroke-linecap="round" stroke-linejoin="round"/>
<path d="M17.2385 19.616L10.7405 23.3816L14.1425 25.3436L20.6441 21.5636L17.2385 19.616Z" fill="#F5EDFF" stroke="#5100CD" stroke-linecap="round" stroke-linejoin="round"/>
<path d="M15.3989 16.1888V20.102L18.8009 22.0676V18.1544L15.3989 16.1888Z" fill="#F5EDFF" stroke="#5100CD" stroke-linecap="round" stroke-linejoin="round"/>
<path d="M15.3917 16.1888V20.102L11.9897 22.0676V18.1544L15.3917 16.1888Z" fill="#F5EDFF" stroke="#5100CD" stroke-linecap="round" stroke-linejoin="round"/>
<path d="M18.7973 22.0532V18.1364L15.3953 20.102V24.0188L18.7973 22.0532Z" fill="#DBC8F6" stroke="#5100CD" stroke-linecap="round" stroke-linejoin="round"/>
<path d="M11.9934 22.0532V18.1364L15.3954 20.102V24.0188L11.9934 22.0532Z" fill="#F5EDFF" stroke="#5100CD" stroke-linecap="round" stroke-linejoin="round"/>
<path d="M15.3954 20.102L11.9934 18.1364L15.3918 16.1888L18.7974 18.1364L15.3954 20.102Z" fill="#F5EDFF" stroke="#5100CD" stroke-linecap="round" stroke-linejoin="round"/>
</svg>
