<svg width="37" height="37" viewBox="0 0 37 37" fill="none" xmlns="http://www.w3.org/2000/svg">
<path d="M30.4681 16.952L8.40015 4.13241C7.57215 3.65001 6.83775 3.59961 6.33735 3.89121L6.32295 3.88401L4.91895 4.68681L5.68575 5.07201C5.67855 5.14401 5.66415 5.20881 5.66415 5.28441V14.9288C5.66415 16.4408 6.89175 18.3812 8.40375 19.2596L30.4681 32.0756C30.7489 32.2376 31.0153 32.3384 31.2709 32.4068L31.1737 33.1196L32.5957 32.2988L32.6029 32.2736C32.9773 32.0216 33.2077 31.5716 33.2077 30.9272V21.2828C33.2077 19.7708 31.9801 17.8304 30.4681 16.952Z" fill="#DBC8F6" stroke="#5100CD" stroke-linecap="round" stroke-linejoin="round"/>
<path d="M29.1001 32.8568L7.03208 20.0408C5.52008 19.1624 4.29248 17.2256 4.29248 15.71V6.06562C4.29248 4.55362 5.52008 4.03882 7.03208 4.91722L29.0965 17.7332C30.6085 18.6116 31.8361 20.5484 31.8361 22.064V31.7084C31.8361 33.2204 30.6085 33.7352 29.0965 32.8568H29.1001Z" fill="#F5EDFF" stroke="#5100CD" stroke-linecap="round" stroke-linejoin="round"/>
<path d="M28.0021 31.0064L8.13006 19.4612C6.76926 18.6692 5.66406 16.9988 5.66406 15.7316V7.63878C5.66406 6.36798 6.76926 5.98278 8.13006 6.77118L28.0021 18.3128C29.3629 19.1048 30.4681 20.7752 30.4681 22.0424V30.1352C30.4681 31.406 29.3629 31.7912 28.0021 31.0028V31.0064Z" fill="#F5EDFF" stroke="#5100CD" stroke-linecap="round" stroke-linejoin="round"/>
<path d="M19.9493 21.7368C20.9844 20.9596 20.7067 18.8422 19.3291 17.0074C17.9515 15.1726 15.9956 14.3152 14.9606 15.0924C13.9255 15.8695 14.2032 17.9869 15.5808 19.8217C16.9584 21.6565 18.9143 22.5139 19.9493 21.7368Z" fill="#5100CD"/>
<path d="M19.2469 19.4576L16.3525 16.106V19.4468L19.2469 19.4576Z" fill="#F5EDFF"/>
</svg>
