<svg width="104" height="80" viewBox="0 0 104 80" fill="none" xmlns="http://www.w3.org/2000/svg">
<g id="Ubisoft 1" clip-path="url(#clip0_1220_14250)">
<path id="Vector" d="M75.9152 25.2133C75.4331 -0.820583 40.8819 -10.4627 27.5436 13.8034C28.1864 14.2855 28.99 14.9283 29.4721 15.2497C28.5078 17.3389 27.7043 19.5887 27.3829 21.6778C27.2222 23.1241 27.0615 24.5705 27.0615 26.1775C27.0615 39.6766 37.9893 50.6043 51.4884 50.6043C64.9874 50.6043 75.9152 39.6766 75.9152 26.1775C75.9152 25.8561 75.9152 25.5347 75.9152 25.2133ZM33.1682 29.5523C32.8468 32.1235 33.0075 33.0877 33.0075 33.4091L32.3647 33.5698C32.204 33.0877 31.5612 31.6414 31.4005 29.5523C30.7577 21.6778 36.0609 14.6069 44.2567 13.3213C51.8098 12.1964 58.8807 16.8567 60.6484 23.4455L60.0056 23.6063C59.8449 23.4455 59.5235 22.9635 58.3985 21.6778C49.3992 12.5178 35.0967 16.696 33.1682 29.5523ZM56.3095 33.8912C55.0238 35.659 53.0954 36.7839 50.8455 36.7839C47.1494 36.7839 44.096 33.7306 44.096 30.0344C44.096 26.4989 46.828 23.6063 50.3635 23.4455C52.4525 23.2849 54.5417 24.5705 55.5059 26.3382C56.4701 28.4273 56.1487 30.8379 54.5417 32.6056C55.1845 33.0877 55.8273 33.5698 56.3095 33.8912ZM70.2906 34.2126C66.7552 42.2478 59.5235 46.4261 51.8098 46.2653C36.8644 45.4618 32.5254 28.4273 42.489 22.1599L42.9711 22.642C42.8104 22.8027 42.1676 23.2849 41.3641 25.2133C40.2392 27.4631 39.9178 29.5523 40.0784 30.9986C40.8819 43.0513 57.5951 45.4618 63.3804 33.5698C70.612 17.1781 51.167 0.625745 33.811 13.3213L33.4896 12.8392C37.9893 5.76824 46.828 2.55418 55.3452 4.64332C68.3622 8.01807 75.4331 21.5171 70.2906 34.2126Z" fill="#141421"/>
<path id="Vector_2" d="M16.16 60.6025V71.8516C16.16 76.3513 13.4279 79.7261 8.44606 79.7261C3.46436 79.7261 0.732422 76.3513 0.732422 71.8516V60.6025H4.7497V71.5302C4.7497 74.2622 6.03576 75.8692 8.44606 75.8692C10.857 75.8692 12.1424 74.2622 12.1424 71.5302V60.6025H16.16ZM31.4267 74.1015C31.4267 77.3156 28.8552 79.7261 24.677 79.7261H18.0885V60.7631H24.3558C28.0521 60.7631 30.4624 62.5309 30.4624 65.2628C30.4624 67.352 29.4982 68.6376 28.0521 69.2804C29.9806 70.0839 31.4267 71.5302 31.4267 74.1015ZM22.2667 64.4593V68.4769H24.3558C25.6412 68.4769 26.4449 67.6734 26.4449 66.5485C26.4449 65.4235 25.6412 64.62 24.3558 64.62L22.2667 64.4593ZM24.5164 76.0299C26.2842 76.0299 27.2485 75.2264 27.2485 73.6194C27.2485 72.0124 26.2842 71.2088 24.5164 71.2088H22.2667V75.8692L24.5164 76.0299ZM33.0339 60.7631H37.0515V79.5654H33.0339V60.7631ZM46.8539 68.4769C50.0685 69.6018 51.6752 71.0481 51.6752 73.9408C51.6752 77.7976 48.6218 80.0475 45.0867 80.0475C41.8721 80.0475 39.3012 78.6011 38.337 75.8692L41.5509 73.4587C42.1939 75.2264 43.64 76.1906 45.2473 76.1906C46.5327 76.1906 47.497 75.3871 47.497 74.2622C47.497 73.1373 46.6933 72.4945 44.1224 71.5302C41.2297 70.4053 38.9794 68.959 38.9794 65.9056C38.9794 62.8523 41.5509 60.6025 45.0867 60.6025C47.9788 60.6025 50.2291 61.7274 51.1933 63.9772L47.9788 66.227C47.3364 64.7807 46.3721 63.9772 44.9255 63.9772C43.64 63.9772 42.8364 64.62 42.8364 65.5842C42.997 66.7091 44.1224 67.5127 46.8539 68.4769ZM72.0843 70.2446C72.0843 75.7085 68.0667 79.8868 62.4424 79.8868C56.657 79.8868 52.8 75.7085 52.8 70.8874C52.8 67.6734 54.0861 65.2628 55.8533 63.8165L55.2109 63.1737C56.657 61.7274 59.2285 60.6025 62.2818 60.6025C68.0667 60.4417 72.0843 64.7807 72.0843 70.2446ZM67.9061 70.2446C67.9061 66.8699 65.817 64.4593 62.4424 64.4593C60.5139 64.4593 59.0673 65.2628 58.2643 66.0663L58.9067 66.7091C57.9424 67.5127 56.9782 68.6376 56.9782 70.7267C56.9782 73.6194 59.0673 76.0299 62.4424 76.0299C65.817 76.0299 67.9061 73.6194 67.9061 70.2446ZM77.8697 64.7807V69.1197H85.9049V72.173H77.8697V79.5654H73.6915V60.7631H86.5479V64.62H77.8697V64.7807ZM102.939 64.7807H97.6364V79.7261H93.6188V64.7807H88.1546V60.7631H102.779V64.7807H102.939Z" fill="#141421"/>
</g>
<defs>
<clipPath id="clip0_1220_14250">
<rect width="102.278" height="80" fill="white" transform="translate(0.732422)"/>
</clipPath>
</defs>
</svg>
