<svg width="157" height="30" viewBox="0 0 157 30" fill="none" xmlns="http://www.w3.org/2000/svg">
<g id="Request_ondark_reg_bw 1" clip-path="url(#clip0_1220_14419)">
<g id="Layer 2">
<g id="Request Black Logo for Background">
<path id="Vector" opacity="0.45" d="M14.9304 13.7765L20.9576 7.77218C21.1812 7.55015 21.3587 7.28603 21.4797 6.99507C21.6007 6.7041 21.6629 6.39206 21.6627 6.07693L21.6735 1.21406C21.6726 0.964761 21.5759 0.725359 21.4034 0.54541L9.83785 12.0772C9.61436 12.3001 9.43705 12.565 9.31607 12.8566C9.19509 13.1482 9.13281 13.4608 9.13281 13.7765C9.13281 14.0922 9.19509 14.4048 9.31607 14.6964C9.43705 14.988 9.61436 15.2528 9.83785 15.4758L17.994 23.6035C18.2162 23.8299 18.4811 24.0099 18.7733 24.1332C19.0655 24.2565 19.3793 24.3206 19.6965 24.3218C20.0137 24.3231 20.328 24.2614 20.6211 24.1404C20.9143 24.0194 21.1806 23.8414 21.4046 23.6168C21.6286 23.3923 21.8058 23.1255 21.926 22.8319C22.0462 22.5384 22.1069 22.224 22.1048 21.9068C22.1027 21.5896 22.0377 21.276 21.9136 20.9841C21.7895 20.6922 21.6087 20.4279 21.3818 20.2063L14.9304 13.7765Z" fill="#141421"/>
<path id="Vector_2" opacity="0.7" d="M20.7295 0.27801H2.57746C1.09158 0.27801 0.0109449 1.38702 0.0109449 2.90261V21.8543C0.00677008 22.1764 0.0671242 22.496 0.188448 22.7944C0.309772 23.0927 0.489609 23.3637 0.717355 23.5915C0.9451 23.8192 1.21614 23.9991 1.5145 24.1204C1.81286 24.2417 2.13249 24.3021 2.45454 24.2979C2.7769 24.3032 3.09703 24.2436 3.39589 24.1227C3.69476 24.0018 3.96625 23.822 4.19422 23.594C4.42219 23.366 4.60199 23.0945 4.72291 22.7957C4.84384 22.4968 4.90343 22.1767 4.89813 21.8543V4.95447H16.9851L21.4035 0.54817C21.315 0.460263 21.2097 0.391048 21.0939 0.344638C20.9782 0.298228 20.8542 0.275569 20.7295 0.27801Z" fill="#141421"/>
<path id="Vector_3" d="M37.6983 15.2501V23.3427H33.9512V1.78125H43.7269C48.837 1.78125 51.4359 4.20323 51.4359 7.9544C51.4359 11.0612 49.1909 13.3306 45.8247 13.9506C46.7986 14.0978 47.5672 14.3342 48.1872 14.7476C49.4273 15.5459 50.0784 16.9926 50.7862 19.4754L51.9087 23.344H47.9211L46.9175 19.5348C46.0016 16.0227 45.1452 15.2514 41.3941 15.2514L37.6983 15.2501ZM37.6983 5.03127V12.5336H42.6598C45.9084 12.5336 47.7104 11.0558 47.7104 8.66357C47.7104 6.36721 46.2637 5.03127 42.8084 5.03127H37.6983Z" fill="#141421"/>
<path id="Vector_4" d="M61.6547 23.6386C55.9544 23.6386 53.0312 20.0063 53.0312 15.1623C53.0312 10.4656 56.2502 6.47803 61.5413 6.47803C66.9445 6.47803 69.4867 10.3467 69.4867 14.7773V16.0822H56.6338C56.9297 18.8892 58.6127 20.5723 61.5967 20.5723C63.7579 20.5723 64.9926 19.6861 65.9678 17.9733L69.0747 19.6564C67.6509 21.9852 65.3465 23.6386 61.6547 23.6386ZM56.6933 13.7777H65.849C65.7017 11.326 64.4023 9.52408 61.5075 9.52408C58.76 9.52002 57.1066 11.1153 56.6933 13.7737V13.7777Z" fill="#141421"/>
<path id="Vector_5" d="M79.1092 6.59717C81.7973 6.59717 83.5993 7.77777 84.6327 10.1403V6.80384H88.2947V29.7255H84.5705V19.9174C83.4777 22.2502 81.4637 23.5497 78.8107 23.5497C74.8826 23.5497 71.6934 20.7441 71.6934 15.1626C71.6961 9.46356 75.3284 6.59717 79.1092 6.59717ZM84.8988 15.0437C84.8988 11.8842 83.4507 9.57973 80.171 9.57973C77.0993 9.57973 75.4756 11.795 75.4756 15.1031C75.4756 18.441 77.0115 20.5063 80.171 20.5063C83.4507 20.5077 84.8988 18.2046 84.8988 15.0437Z" fill="#141421"/>
<path id="Vector_6" d="M107.139 23.3429H103.447V19.4445C102.324 22.2501 100.286 23.6684 97.7736 23.6684C93.7861 23.6684 91.8652 21.0101 91.8652 16.9631V6.80371H95.5583V15.9594C95.5583 18.765 96.5322 20.567 99.3095 20.567C101.849 20.567 103.415 18.3814 103.415 14.9261V6.80371H107.136L107.139 23.3429Z" fill="#141421"/>
<path id="Vector_7" d="M118.657 23.6386C112.957 23.6386 110.032 20.0063 110.032 15.1623C110.032 10.4656 113.253 6.47803 118.542 6.47803C123.945 6.47803 126.488 10.3467 126.488 14.7773V16.0822H113.636C113.931 18.8892 115.615 20.5723 118.598 20.5723C120.759 20.5723 121.995 19.6861 122.969 17.9733L126.076 19.6564C124.653 21.9852 122.349 23.6386 118.657 23.6386ZM113.694 13.7777H122.851C122.703 11.326 121.403 9.52408 118.51 9.52408C115.762 9.52002 114.109 11.1153 113.694 13.7737V13.7777Z" fill="#141421"/>
<path id="Vector_8" d="M130.795 17.8787C132.154 19.651 133.807 20.5965 136.229 20.5965C138.504 20.5965 139.448 19.5037 139.448 18.3515C139.448 16.6684 136.849 16.5495 133.896 16.0484C130.972 15.6053 128.727 14.5963 128.727 11.6245C128.727 8.72976 131.149 6.42529 135.313 6.42529C138.681 6.42529 141.043 7.43029 143.052 9.79283L140.215 12.2148C138.946 10.4129 137.379 9.52673 135.105 9.52673C132.832 9.52673 131.974 10.5614 131.974 11.6542C131.974 13.1307 133.925 13.3968 136.671 13.8155C139.802 14.2883 142.725 15.0312 142.725 18.3636C142.725 21.4705 140.245 23.7101 136.139 23.7101C132.389 23.7101 129.73 22.4687 128.105 20.4317L130.795 17.8787Z" fill="#141421"/>
<path id="Vector_9" d="M156.049 22.9594C155.162 23.4025 154.247 23.6348 152.977 23.6348C149.373 23.6348 147.896 21.7153 147.896 18.052V9.8756H144.114V6.80389H147.924V2.61641L151.382 0.54834V6.80389H156.049V9.8756H151.382V17.613C151.382 19.681 152.238 20.4497 153.863 20.4497C154.719 20.4497 155.25 20.3024 156.049 19.9782V22.9594Z" fill="#141421"/>
</g>
</g>
</g>
<defs>
<clipPath id="clip0_1220_14419">
<rect width="156.037" height="29.4447" fill="white" transform="translate(0.0107422 0.277832)"/>
</clipPath>
</defs>
</svg>
