<svg width="155" height="42" viewBox="0 0 155 42" fill="none" xmlns="http://www.w3.org/2000/svg">
<g clip-path="url(#clip0_1220_14547)">
<path d="M37.2538 23.0362H44.0607V26.3213H33.1104V5.66384H37.2538V23.0362ZM48.7954 7.97227C48.0654 7.97227 47.4538 7.74537 46.9605 7.29158C46.487 6.81805 46.2502 6.23601 46.2502 5.54546C46.2502 4.85491 46.487 4.28273 46.9605 3.82894C47.4538 3.35542 48.0654 3.11865 48.7954 3.11865C49.5254 3.11865 50.1272 3.35542 50.6007 3.82894C51.094 4.28273 51.3406 4.85491 51.3406 5.54546C51.3406 6.23601 51.094 6.81805 50.6007 7.29158C50.1272 7.74537 49.5254 7.97227 48.7954 7.97227ZM50.8375 9.92555V26.3213H46.6942V9.92555H50.8375ZM59.0744 12.3228C59.6071 11.5336 60.3372 10.8923 61.2645 10.3991C62.2115 9.90582 63.2868 9.65919 64.4904 9.65919C65.8912 9.65919 67.1539 10.0045 68.2785 10.695C69.4229 11.3856 70.3206 12.3721 70.9717 13.6545C71.6425 14.9173 71.9779 16.3872 71.9779 18.0642C71.9779 19.7413 71.6425 21.2309 70.9717 22.5331C70.3206 23.8156 69.4229 24.8119 68.2785 25.5222C67.1539 26.2325 65.8912 26.5876 64.4904 26.5876C63.2671 26.5876 62.1918 26.3509 61.2645 25.8774C60.3569 25.3841 59.6269 24.7527 59.0744 23.9833V26.3213H54.9311V4.42084H59.0744V12.3228ZM67.7458 18.0642C67.7458 17.0777 67.5387 16.2293 67.1243 15.519C66.7297 14.789 66.197 14.2366 65.5262 13.8617C64.8751 13.4868 64.1648 13.2994 63.3953 13.2994C62.6456 13.2994 61.9353 13.4967 61.2645 13.8913C60.6134 14.2662 60.0807 14.8186 59.6663 15.5486C59.2717 16.2787 59.0744 17.1369 59.0744 18.1234C59.0744 19.1099 59.2717 19.9682 59.6663 20.6982C60.0807 21.4282 60.6134 21.9905 61.2645 22.3851C61.9353 22.76 62.6456 22.9474 63.3953 22.9474C64.1648 22.9474 64.8751 22.7501 65.5262 22.3555C66.197 21.9609 66.7297 21.3986 67.1243 20.6686C67.5387 19.9386 67.7458 19.0705 67.7458 18.0642ZM90.2303 17.7683C90.2303 18.3602 90.1909 18.8929 90.1119 19.3664H78.1259C78.2245 20.5502 78.6389 21.4775 79.3689 22.1484C80.0989 22.8192 80.9966 23.1546 82.062 23.1546C83.601 23.1546 84.696 22.4936 85.3471 21.1717H89.816C89.3425 22.7501 88.4349 24.0523 87.0932 25.0783C85.7516 26.0845 84.1041 26.5876 82.1508 26.5876C80.5724 26.5876 79.1518 26.2424 77.8891 25.5518C76.6461 24.8415 75.6695 23.8452 74.9592 22.5627C74.2686 21.2802 73.9234 19.8005 73.9234 18.1234C73.9234 16.4266 74.2686 14.937 74.9592 13.6545C75.6497 12.3721 76.6165 11.3856 77.8595 10.695C79.1025 10.0045 80.533 9.65919 82.1508 9.65919C83.7095 9.65919 85.1005 9.99461 86.3237 10.6654C87.5667 11.3363 88.5237 12.2932 89.1945 13.5362C89.885 14.7594 90.2303 16.1701 90.2303 17.7683ZM85.939 16.5845C85.9193 15.519 85.5345 14.6706 84.7848 14.0393C84.0351 13.3882 83.1176 13.0626 82.0324 13.0626C81.0065 13.0626 80.1383 13.3783 79.4281 14.0097C78.7375 14.6213 78.3133 15.4796 78.1555 16.5845H85.939ZM97.3979 12.4707C97.9306 11.6026 98.6212 10.9219 99.4696 10.4287C100.338 9.93541 101.324 9.68879 102.429 9.68879V14.0393H101.334C100.032 14.0393 99.0454 14.3451 98.3745 14.9567C97.7234 15.5684 97.3979 16.6338 97.3979 18.153V26.3213H93.2546V9.92555H97.3979V12.4707ZM110.044 13.329V21.2605C110.044 21.813 110.172 22.2174 110.429 22.4739C110.705 22.7107 111.159 22.8291 111.79 22.8291H113.714V26.3213H111.109C107.617 26.3213 105.871 24.6245 105.871 21.2309V13.329H103.918V9.92555H105.871V5.87101H110.044V9.92555H113.714V13.329H110.044ZM115.628 18.0642C115.628 16.4069 115.954 14.937 116.605 13.6545C117.276 12.3721 118.173 11.3856 119.298 10.695C120.442 10.0045 121.715 9.65919 123.116 9.65919C124.339 9.65919 125.405 9.90582 126.312 10.3991C127.239 10.8923 127.979 11.5138 128.532 12.2636V9.92555H132.705V26.3213H128.532V23.9241C127.999 24.6936 127.259 25.3348 126.312 25.8478C125.385 26.341 124.31 26.5876 123.086 26.5876C121.705 26.5876 120.442 26.2325 119.298 25.5222C118.173 24.8119 117.276 23.8156 116.605 22.5331C115.954 21.2309 115.628 19.7413 115.628 18.0642ZM128.532 18.1234C128.532 17.1172 128.335 16.2589 127.94 15.5486C127.545 14.8186 127.013 14.2662 126.342 13.8913C125.671 13.4967 124.951 13.2994 124.181 13.2994C123.412 13.2994 122.702 13.4868 122.05 13.8617C121.399 14.2366 120.867 14.789 120.452 15.519C120.058 16.2293 119.86 17.0777 119.86 18.0642C119.86 19.0507 120.058 19.9189 120.452 20.6686C120.867 21.3986 121.399 21.9609 122.05 22.3555C122.721 22.7501 123.432 22.9474 124.181 22.9474C124.951 22.9474 125.671 22.76 126.342 22.3851C127.013 21.9905 127.545 21.4381 127.94 20.7278C128.335 19.9978 128.532 19.1297 128.532 18.1234ZM138.853 7.97227C138.123 7.97227 137.511 7.74537 137.018 7.29158C136.544 6.81805 136.307 6.23601 136.307 5.54546C136.307 4.85491 136.544 4.28273 137.018 3.82894C137.511 3.35542 138.123 3.11865 138.853 3.11865C139.583 3.11865 140.184 3.35542 140.658 3.82894C141.151 4.28273 141.398 4.85491 141.398 5.54546C141.398 6.23601 141.151 6.81805 140.658 7.29158C140.184 7.74537 139.583 7.97227 138.853 7.97227ZM140.895 9.92555V26.3213H136.751V9.92555H140.895Z" fill="#141421"/>
<g clip-path="url(#clip1_1220_14547)">
<path d="M7.08418 12.4725L17.9014 31.2444L22.7091 22.9013C23.4529 21.6107 23.4529 20.0205 22.7091 18.7298L11.8919 -0.0419922L7.08418 8.30103C6.34043 9.5917 6.34043 11.1819 7.08418 12.4725Z" fill="#141421"/>
<path d="M-0.12793 20.8159H7.72777C10.0273 20.8159 11.8913 22.6835 11.8913 24.9874V41.6735L-0.12793 20.8159Z" fill="#141421"/>
</g>
</g>
<defs>
<clipPath id="clip0_1220_14547">
<rect width="154.143" height="41.5" fill="white" transform="translate(0.0478516 0.25)"/>
</clipPath>
<clipPath id="clip1_1220_14547">
<rect width="23.3942" height="41.7151" fill="white" transform="translate(-0.12793 -0.0419922)"/>
</clipPath>
</defs>
</svg>
