<svg width="185" height="25" viewBox="0 0 185 25" fill="none" xmlns="http://www.w3.org/2000/svg">
<g id="Synaps-New 1" clip-path="url(#clip0_1220_14579)">
<g id="Group">
<path id="Vector" d="M0.54368 0.727757L0.0761719 1.18358L0.111235 6.75861L0.146298 12.3336L0.578743 12.731L1.02288 13.1284H8.99388C13.3885 13.1284 17.0467 13.1752 17.1285 13.2219C17.2337 13.3037 17.2688 13.7946 17.2454 15.3023L17.2103 17.2775H12.3599H7.50954L7.47448 16.1906L7.43942 15.1153H6.80828H6.16546V16.3425C6.16546 17.71 6.28234 18.084 6.83166 18.458C7.13554 18.6684 7.43942 18.6801 12.3015 18.6801C18.0285 18.6801 17.8298 18.7034 18.3207 17.8853C18.531 17.5463 18.5544 17.2892 18.5544 15.314V13.1167L19.3492 13.1518L20.1323 13.1868L20.1673 16.7165L20.1907 20.2579H12.3599H4.52918V18.5047V16.7516H3.82792H3.12666V18.5632C3.12666 20.6319 3.23185 21.0527 3.8513 21.4267C4.2253 21.6487 4.42399 21.6604 12.3599 21.6604C20.2024 21.6604 20.4946 21.6487 20.8569 21.4267C21.5231 21.0293 21.5348 20.9942 21.5932 16.9269L21.6517 13.1868H22.4114H23.1711L23.2295 18.1892C23.2762 21.7422 23.2529 23.2266 23.1594 23.3084C23.0892 23.3668 18.6012 23.4019 12.2898 23.3785L1.54882 23.3551L1.51376 20.9241L1.49038 18.5047H0.789121H0.0878596V21.1462V23.7876L0.54368 24.2434L0.9995 24.6992H12.2547C23.3464 24.6992 23.5334 24.6992 23.9074 24.4655C24.6203 24.0213 24.632 23.9629 24.632 18.271C24.632 12.5791 24.6203 12.5206 23.9074 12.0765C23.5334 11.8544 23.3347 11.8428 15.6208 11.8428C9.02894 11.8428 7.69655 11.8194 7.57967 11.6791C7.48617 11.5739 7.45111 10.9194 7.47448 9.6104L7.50954 7.69362H12.3015H17.0935L17.1519 8.74551L17.2103 9.79741H17.8532H18.496L18.531 8.62864C18.5544 7.63518 18.5194 7.40143 18.3323 7.08586C17.8181 6.26772 18.0285 6.2911 12.3015 6.2911C7.45111 6.2911 7.13554 6.30279 6.83166 6.51316C6.27065 6.89886 6.2239 7.08586 6.16546 9.50522L6.10702 11.7843H5.34732H4.58762L4.55256 8.24294L4.52918 4.71326H12.3599H20.1907V6.46642V8.21957H20.892H21.5932V6.34954C21.5932 4.24575 21.5114 3.94187 20.8569 3.54449C20.4946 3.32242 20.2141 3.31074 12.3599 3.31074C4.42399 3.31074 4.2253 3.32242 3.8513 3.54449C3.16172 3.96525 3.12666 4.18731 3.12666 8.21957V11.8544L2.34358 11.8194L1.54882 11.7843V6.70017V1.61602H12.3599H23.1711L23.2061 4.03537L23.2295 6.46642H23.9424H24.6437L24.6086 3.76656L24.5736 1.0667L24.1411 0.669317L23.697 0.271936H12.3482H0.9995L0.54368 0.727757Z" fill="#141421"/>
<path id="Vector_2" d="M46.9205 4.77198C46.3244 4.98236 45.9504 5.34468 45.7167 5.94075C45.5647 6.34982 45.5413 6.87577 45.5764 9.23668L45.6115 12.0417L45.9387 12.5209C46.114 12.7897 46.4647 13.117 46.7218 13.2456C47.1542 13.4676 47.3997 13.4793 51.3384 13.4793H55.4876V15.7584V18.0375L51.5488 18.0141L47.5984 17.9791L47.5633 16.9506L47.5282 15.9337H46.4179H45.2959L45.3426 17.4298C45.3777 18.879 45.3894 18.9492 45.7167 19.3816C45.9037 19.6154 46.2777 19.9192 46.5582 20.0478C47.0374 20.2582 47.3412 20.2699 51.5956 20.2348L56.1304 20.1997L56.6797 19.8842C57.0537 19.6621 57.2875 19.405 57.4628 19.0543C57.6849 18.5868 57.7082 18.3531 57.7082 15.8052V13.0586L57.3927 12.4157C57.1355 11.9248 56.9485 11.7262 56.5395 11.5158C56.0369 11.2587 55.9434 11.2587 51.8994 11.2587H47.7737V9.03799V6.81733H51.6306H55.4759L55.5109 7.83416L55.546 8.86267L56.6914 8.89774L57.8485 8.9328L57.8017 7.47184C57.7667 6.05763 57.755 6.01088 57.4044 5.56674C57.2173 5.3213 56.82 5.00573 56.5395 4.85379C56.0252 4.59667 55.9551 4.59667 51.6891 4.59667C48.3347 4.60835 47.2594 4.64342 46.9205 4.77198Z" fill="#141421"/>
<path id="Vector_3" d="M69.3955 4.65505C69.3955 4.67843 70.763 6.81728 72.4343 9.41194L75.4731 14.1104V17.2427V20.375H76.6419H77.8106V17.1843L77.8223 14.0052L80.8494 9.33013L83.8766 4.65505L82.626 4.61999C81.9481 4.6083 81.3286 4.6083 81.2702 4.63168C81.2001 4.66674 80.1482 6.29133 78.921 8.25486C77.7055 10.2301 76.6653 11.8313 76.6302 11.843C76.5834 11.843 75.5315 10.2067 74.2927 8.2198L72.0252 4.59661H70.7162C69.9916 4.59661 69.3955 4.61999 69.3955 4.65505Z" fill="#141421"/>
<path id="Vector_4" d="M95.459 12.4858V20.375H96.6278H97.7965L97.8199 14.3091L97.855 8.2432L102.53 14.2857L107.205 20.3166L108.409 20.3517L109.601 20.3867V12.4858V4.59664H108.432H107.264L107.24 10.6742L107.205 16.7635L102.495 10.6742L97.7731 4.59664H96.6161H95.459V12.4858Z" fill="#141421"/>
<path id="Vector_5" d="M127.402 4.79507C127.367 4.91195 126.607 6.87548 125.731 9.15458C124.842 11.4337 123.51 14.8816 122.762 16.8217C122.014 18.7502 121.406 20.3748 121.406 20.4215C121.406 20.4683 121.921 20.48 122.54 20.4683L123.674 20.4332L124.363 18.5866L125.064 16.7516H128.653H132.229L132.93 18.5866L133.62 20.4332L134.765 20.4683C135.385 20.48 135.899 20.4683 135.899 20.4332C135.899 20.3981 130.23 5.68334 129.856 4.73664C129.81 4.64313 129.459 4.59638 128.641 4.59638C127.636 4.59638 127.46 4.61976 127.402 4.79507ZM129.973 10.9428C130.663 12.7544 131.224 14.2738 131.224 14.3205C131.224 14.379 130.032 14.414 128.582 14.414C126.116 14.414 125.941 14.4024 126.011 14.2037C126.525 12.8245 128.606 7.63518 128.653 7.63518C128.688 7.63518 129.272 9.11952 129.973 10.9428Z" fill="#141421"/>
<path id="Vector_6" d="M147.703 12.5441V20.4917H148.872H150.041V17.523V14.5427L153.933 14.5076C157.731 14.4725 157.825 14.4608 158.421 14.192C159.204 13.8414 159.765 13.222 160.045 12.4155C160.361 11.5272 160.373 7.90405 160.069 6.92229C159.8 6.08077 159.122 5.2977 158.316 4.93538C157.696 4.65487 157.684 4.65487 152.705 4.61981L147.703 4.58475V12.5441ZM157.17 7.02747C157.392 7.13266 157.638 7.35473 157.719 7.51836C157.942 7.9508 157.93 11.1649 157.696 11.5974C157.392 12.2051 157.077 12.2519 153.372 12.2519H149.982L149.947 9.52864L149.924 6.8171H153.337C156.364 6.8171 156.808 6.84047 157.17 7.02747Z" fill="#141421"/>
<path id="Vector_7" d="M173.627 4.94696C173.206 5.16903 172.832 5.60147 172.668 6.04561C172.563 6.3378 172.563 11.8427 172.668 12.1466C172.832 12.6141 173.346 13.1634 173.814 13.3738C174.246 13.5725 174.644 13.5959 178.36 13.5959H182.416V15.8165V18.0372H178.442H174.468V17.0437V16.0503H173.3H172.131V17.1255C172.143 18.8553 172.353 19.428 173.183 20.0007L173.58 20.2695L178.431 20.2345L183.293 20.1994L183.725 19.9072C183.959 19.7436 184.263 19.428 184.403 19.1943C184.625 18.7969 184.637 18.5748 184.637 15.875V12.9881L184.333 12.4154C184.099 12.0063 183.877 11.7843 183.526 11.6089C183.071 11.3869 182.813 11.3752 178.933 11.3752H174.819V9.0961V6.817H178.618H182.416V7.86889V8.92078H183.585H184.754V7.65851C184.754 6.30274 184.578 5.70666 184.041 5.21578C183.515 4.73659 183.269 4.71321 178.582 4.71321C174.34 4.7249 174.036 4.73659 173.627 4.94696Z" fill="#141421"/>
</g>
</g>
<defs>
<clipPath id="clip0_1220_14579">
<rect width="184.695" height="24.4565" fill="white" transform="translate(0.0878906 0.271973)"/>
</clipPath>
</defs>
</svg>
