<svg width="144" height="25" viewBox="0 0 144 25" fill="none" xmlns="http://www.w3.org/2000/svg">
<g id="Anima logo 1" clip-path="url(#clip0_1220_14588)">
<g id="Clip path group">
<mask id="mask0_1220_14588" style="mask-type:luminance" maskUnits="userSpaceOnUse" x="0" y="0" width="144" height="25">
<g id="clip0_289_6">
<path id="Vector" d="M143.194 0.0151367H0.782227V24.9847H143.194V0.0151367Z" fill="white"/>
</g>
</mask>
<g mask="url(#mask0_1220_14588)">
<g id="Group">
<path id="Vector_2" d="M24.0131 6.17922C22.9069 4.294 21.3255 2.72817 19.4325 1.64532C19.3779 1.61416 19.3156 1.62195 19.2689 1.65311C18.2328 2.35424 16.8773 3.79543 16.2774 6.71678C16.1839 7.20753 16.2229 7.72168 16.4021 8.18912C16.4021 8.18912 16.4021 8.18912 16.4021 8.19691C16.5968 8.71885 16.6592 9.27976 16.589 9.82506C16.5189 10.3703 16.3086 10.9001 15.9814 11.3519C15.7711 11.6402 15.6231 11.9751 15.5529 12.3257C15.4828 12.6763 15.4984 13.0424 15.5841 13.3852L16.6981 17.6542C16.7371 17.81 16.8072 17.9503 16.9084 18.0671C17.0097 18.1917 17.1266 18.2852 17.2668 18.3553C17.407 18.4254 17.5628 18.4644 17.7186 18.4722C17.8745 18.48 18.0302 18.4566 18.1783 18.3943L20.8503 17.327H20.8581C20.9905 17.2725 21.1307 17.2725 21.2632 17.327C21.3956 17.3738 21.5047 17.4672 21.567 17.5919L22.868 20.0848C22.8913 20.1315 22.9381 20.1627 22.9926 20.1705C23.0004 20.1705 23.0004 20.1705 23.0082 20.1705C23.0549 20.1705 23.1017 20.1471 23.1328 20.1081C24.8155 17.9347 25.7426 15.2237 25.7426 12.4737C25.727 10.2691 25.1349 8.08782 24.0131 6.17922ZM23.8963 13.9149L22.3148 15.473L22.2525 15.5353C22.2525 15.5353 22.2447 15.5431 22.2369 15.5431L22.0422 15.7301C22.0266 15.7456 22.0033 15.769 21.9799 15.7923L21.4268 16.3377C20.9204 16.8363 20.4764 17.1089 20.1803 17.2569L19.8064 17.4049L18.0692 18.0983C18.0692 18.0983 18.0692 18.0983 18.0614 18.0983C17.9601 18.1372 17.7654 18.1606 17.6563 18.1528C17.6096 18.1528 17.555 18.145 17.5161 18.1216C17.3837 18.0515 17.259 17.9658 17.1577 17.8646C17.0876 17.7711 17.111 17.6387 17.2123 17.5841L23.7716 13.7202C23.8729 13.6656 23.9898 13.8215 23.8963 13.9149Z" fill="#141421"/>
<path id="Vector_3" d="M5.23828 17.3348C5.37071 17.2881 5.51094 17.2881 5.64336 17.3426L8.31543 18.4099C8.31543 18.4099 8.31543 18.4099 8.32321 18.4099C8.47123 18.4722 8.62702 18.4956 8.78282 18.4878C8.93862 18.48 9.09442 18.4411 9.23465 18.3709C9.37488 18.3008 9.49953 18.1995 9.593 18.0827C9.69431 17.958 9.76442 17.8178 9.80335 17.6698L10.9251 13.393C11.0109 13.0502 11.0264 12.6841 10.9563 12.3335C10.8862 11.9829 10.746 11.648 10.5356 11.3597C10.2085 10.9079 9.99812 10.386 9.928 9.83284C9.85789 9.27976 9.92022 8.71885 10.1149 8.19691C10.2941 7.72947 10.3409 7.21531 10.2396 6.71678C9.63976 3.80322 8.28424 2.35424 7.24815 1.65311C7.20144 1.62195 7.13911 1.61416 7.08456 1.64532C5.18375 2.72817 3.60234 4.294 2.49612 6.17143C1.37433 8.08004 0.782275 10.2691 0.782275 12.4815C0.774485 15.2315 1.70152 17.9425 3.392 20.1159C3.42316 20.1549 3.4699 20.1782 3.51664 20.1782C3.52443 20.1782 3.52443 20.1782 3.53222 20.1782C3.58676 20.1705 3.63349 20.1393 3.65686 20.0926L4.95783 17.5919C5.00457 17.475 5.11364 17.3816 5.23828 17.3348Z" fill="#141421"/>
<path id="Vector_4" d="M10.5123 3.47595C10.9641 4.36403 11.2913 5.30663 11.5017 6.28045C11.5095 6.32716 11.5406 6.36613 11.5874 6.38949C11.6341 6.41284 11.6808 6.41284 11.7276 6.38949C12.195 6.148 12.7247 6.02335 13.2545 6.02335C13.7842 6.02335 14.3062 6.148 14.7813 6.38949C14.8047 6.39727 14.8281 6.40506 14.8515 6.40506C14.8749 6.40506 14.8982 6.39727 14.9216 6.38949C14.9683 6.36613 14.9995 6.32716 15.0073 6.28045C15.2176 5.30663 15.5448 4.36403 15.9966 3.47595C16.4485 2.58007 17.0561 1.78547 17.804 1.11551C17.8429 1.07656 17.8663 1.02203 17.8507 0.967496C17.8351 0.912967 17.804 0.866222 17.7572 0.850643C14.8593 -0.263365 11.6653 -0.263365 8.76729 0.850643C8.72058 0.866222 8.68161 0.912967 8.67382 0.967496C8.66604 1.02203 8.68161 1.07656 8.72058 1.11551C9.45286 1.78547 10.0605 2.58007 10.5123 3.47595ZM17.3911 1.06098C16.6978 1.72315 16.1369 2.48659 15.7084 3.34351C15.2799 4.19265 14.9528 5.09629 14.7346 6.03113C14.2672 5.82857 13.7609 5.71953 13.2467 5.71953C12.7403 5.71953 12.2262 5.82857 11.7587 6.03113C11.5406 5.10413 11.2134 4.20044 10.785 3.34351C10.3565 2.48659 9.78781 1.72315 9.10229 1.06098C11.7821 0.0871946 14.7113 0.0871946 17.3911 1.06098Z" fill="#141421"/>
<path id="Vector_5" d="M22.0104 21.2845C22.0104 21.2767 22.0104 21.2767 22.0104 21.2689C22.0104 21.2611 22.0104 21.2611 22.0026 21.2534C22.0026 21.2456 21.9948 21.2456 21.9948 21.2378V21.23L20.7561 18.9552C20.7172 18.8851 20.6315 18.8539 20.5614 18.8851L18.6684 19.6408C18.6684 19.6408 18.6684 19.6408 18.6606 19.6408C18.4736 19.7187 18.2788 19.7732 18.0763 19.7966L18.0218 19.8044C17.8504 19.8277 17.679 19.8277 17.5076 19.8044C17.4998 19.8044 17.4998 19.8044 17.4921 19.8044H8.99293C8.98514 19.8044 8.98514 19.8044 8.97736 19.8044C8.80594 19.8199 8.63457 19.8199 8.4632 19.8044L8.40866 19.7966C8.2061 19.7732 8.01133 19.7187 7.81661 19.6408C7.81661 19.6408 7.81661 19.6408 7.80882 19.6408L5.91579 18.8851C5.84567 18.8539 5.75999 18.8851 5.72102 18.9552L4.48238 21.23V21.2378C4.48238 21.2456 4.47459 21.2456 4.47459 21.2534C4.47459 21.2611 4.47459 21.2611 4.4668 21.2689C4.4668 21.2767 4.4668 21.2767 4.4668 21.2845C4.4668 21.2923 4.4668 21.2923 4.4668 21.3001C4.4668 21.3079 4.4668 21.3079 4.4668 21.3157C4.4668 21.3235 4.4668 21.3235 4.4668 21.3313C4.4668 21.339 4.4668 21.339 4.4668 21.3468C4.4668 21.3546 4.4668 21.3546 4.47459 21.3624C4.47459 21.3702 4.47459 21.3702 4.48238 21.378C4.48238 21.3858 4.49017 21.3858 4.49017 21.3936C4.49017 21.4014 4.49796 21.4014 4.49796 21.4014C4.49796 21.4091 4.50575 21.4091 4.50575 21.4169C4.50575 21.4169 4.50575 21.4247 4.51354 21.4247C5.6509 22.5387 6.97524 23.4112 8.44758 24.0267C9.97448 24.6577 11.5793 24.9771 13.2308 24.9771C14.8823 24.9771 16.4871 24.6577 18.014 24.0267C19.4863 23.419 20.8107 22.5387 21.9481 21.4247C21.9481 21.4247 21.948 21.4169 21.9559 21.4169C21.9636 21.4091 21.9636 21.4091 21.9636 21.4014L21.9714 21.3936C21.9714 21.3858 21.9792 21.3858 21.9792 21.378C21.9792 21.3702 21.9792 21.3702 21.987 21.3624C21.987 21.3546 21.987 21.3546 21.9948 21.3468C21.9948 21.339 21.9948 21.339 21.9948 21.3313C21.9948 21.3235 21.9948 21.3235 21.9948 21.3157C21.9948 21.3079 21.9948 21.3079 21.9948 21.3001C22.0104 21.2923 22.0104 21.2845 22.0104 21.2845ZM17.9049 23.7307C16.417 24.3461 14.8512 24.6577 13.2464 24.6577C11.6416 24.6577 10.0679 24.3461 8.58781 23.7307C7.18558 23.1464 5.92357 22.3206 4.83294 21.2767L5.94693 19.2357L7.70752 19.9446C7.70752 19.9446 7.70752 19.9446 7.7153 19.9446C7.92565 20.0303 8.15156 20.0926 8.37747 20.116L8.43201 20.1237C8.619 20.1471 8.81372 20.1471 9.00071 20.1237H17.4843C17.6712 20.1471 17.866 20.1471 18.0529 20.1237L18.1075 20.116H18.1153C18.3412 20.0848 18.5593 20.0303 18.7774 19.9446L20.5458 19.2357L21.6598 21.2767C20.5692 22.3206 19.3071 23.1464 17.9049 23.7307Z" fill="#141421"/>
<path id="Vector_6" d="M53.3136 24.6464L49.5681 0.299805H46.0303L42.2852 24.6464H44.9549L45.5121 20.5888H49.9859L50.5774 24.6464H53.3136ZM47.7299 4.63486L49.6374 18.0913H45.8573L47.7299 4.63486Z" fill="#141421"/>
<path id="Vector_7" d="M72.616 24.6464H76.0847V0.369141H73.4481V17.8832L69.426 0.369141H65.6074V24.6464H68.243V5.64089L72.616 24.6464Z" fill="#141421"/>
<path id="Vector_8" d="M91.9314 0.369141H89.1562V24.6464H91.9314V0.369141Z" fill="#141421"/>
<path id="Vector_9" d="M115.556 0.369141L112.469 19.5134L109.383 0.369141H105.013V24.6464H107.648V4.56549L110.978 24.6464H113.822L117.151 4.56549V24.6464H119.854V0.369141H115.556Z" fill="#141421"/>
<path id="Vector_10" d="M143.194 24.6464L139.449 0.299805H135.911L132.167 24.6464H134.838L135.392 20.5888H139.867L140.456 24.6464H143.194ZM137.611 4.63486L139.518 18.0913H135.738L137.611 4.63486Z" fill="#141421"/>
</g>
</g>
</g>
</g>
<defs>
<clipPath id="clip0_1220_14588">
<rect width="142.412" height="24.9695" fill="white" transform="translate(0.782227 0.0151367)"/>
</clipPath>
</defs>
</svg>
