<svg width="39" height="32" viewBox="0 0 39 32" fill="none" xmlns="http://www.w3.org/2000/svg">
<g id="a" clip-path="url(#clip0_1221_12604)">
<path id="Vector" fill-rule="evenodd" clip-rule="evenodd" d="M2.09431 12.2042H32.1432C32.526 12.2042 32.8875 12.3531 33.1427 12.6295L37.9063 17.4144C38.7782 18.3075 38.1615 19.7962 36.9068 19.7962H6.8579C6.47511 19.7962 6.11358 19.6473 5.85839 19.3708L1.0948 14.586C0.20163 13.6928 0.839611 12.2042 2.09431 12.2042ZM1.0948 5.86691L5.85839 1.08206C6.13485 0.8056 6.47511 0.656738 6.8579 0.656738H36.9068C38.1615 0.656738 38.7782 2.16663 37.9063 3.03853L33.164 7.82339C32.8875 8.09985 32.5472 8.24871 32.1645 8.24871H2.09431C0.839611 8.24871 0.222896 6.73882 1.0948 5.86691ZM37.885 26.1334L33.1214 30.9183C32.845 31.1947 32.5047 31.3436 32.1219 31.3436H2.09431C0.839611 31.3436 0.222896 29.8337 1.0948 28.9618L5.85839 24.177C6.13485 23.9005 6.47511 23.7516 6.8579 23.7516H36.9068C38.1615 23.7516 38.7782 25.2615 37.9063 26.1334H37.885Z" fill="#141421"/>
</g>
<defs>
<clipPath id="clip0_1221_12604">
<rect width="37.6196" height="30.6869" fill="white" transform="translate(0.69043 0.656738)"/>
</clipPath>
</defs>
</svg>
