<svg width="29" height="46" viewBox="0 0 29 46" fill="none" xmlns="http://www.w3.org/2000/svg">
<g id="Layer_1" clip-path="url(#clip0_1221_12555)">
<path id="Vector" opacity="0.5" d="M4.55178 17.1899L0.786133 23.4139L14.5084 17.1899V0.714355L4.55178 17.1899Z" fill="#141421"/>
<path id="Vector_2" opacity="0.8" d="M0.786133 23.414L5.19002 26.0087L14.5084 31.5006V26.0087V17.1899L0.786133 23.414Z" fill="#141421"/>
<path id="Vector_3" opacity="0.7" d="M24.4495 17.1899L14.5088 0.714355V17.1899L28.2151 23.4139L24.4495 17.1899Z" fill="#141421"/>
<path id="Vector_4" d="M14.5088 17.1899V26.0087V31.5006L23.8112 26.0087L28.2151 23.414L14.5088 17.1899Z" fill="#141421"/>
<path id="Vector_5" opacity="0.4" d="M10.1045 31.5001L0.786133 26.0083L4.69538 31.5001L14.5084 45.2854V34.0948L10.1045 31.5001Z" fill="#141421"/>
<path id="Vector_6" opacity="0.8" d="M18.8967 31.5001L14.5088 34.0948V45.2854L24.3058 31.5001L28.2151 26.0242V26.0083L18.8967 31.5001Z" fill="#141421"/>
</g>
<defs>
<clipPath id="clip0_1221_12555">
<rect width="27.4286" height="44.5714" fill="white" transform="translate(0.786133 0.714355)"/>
</clipPath>
</defs>
</svg>
