<svg width="37" height="32" viewBox="0 0 37 32" fill="none" xmlns="http://www.w3.org/2000/svg">
<g id="a" clip-path="url(#clip0_1221_12638)">
<path id="Vector" d="M27.5333 9.99882C26.8774 9.60526 26.0247 9.60526 25.3125 9.99882L20.2056 12.9974L16.7385 14.9558L11.6315 17.9544C10.9756 18.348 10.1229 18.348 9.41071 17.9544L5.35328 15.6024C4.69734 15.2088 4.23818 14.4967 4.23818 13.7095V9.08051C4.23818 8.29338 4.63175 7.58122 5.35328 7.18766L9.34512 4.90125C10.0011 4.50769 10.8538 4.50769 11.5659 4.90125L15.5578 7.18766C16.2137 7.58122 16.6729 8.29338 16.6729 9.08051V12.0791L20.14 10.055V7.05647C20.14 6.26935 19.7464 5.55719 19.0249 5.16363L11.6222 0.862554C10.9662 0.468992 10.1135 0.468992 9.40134 0.862554L1.87681 5.173C1.15528 5.56656 0.761719 6.27872 0.761719 7.06584V15.7429C0.761719 16.5301 1.15528 17.2422 1.87681 17.6358L9.40134 21.9369C10.0573 22.3304 10.91 22.3304 11.6222 21.9369L16.7291 19.0039L20.1962 16.9799L25.3031 14.0469C25.9591 13.6533 26.8118 13.6533 27.5239 14.0469L31.5158 16.3333C32.1717 16.7269 32.6309 17.439 32.6309 18.2261V22.8552C32.6309 23.6423 32.2373 24.3545 31.5158 24.748L27.5239 27.1C26.868 27.4936 26.0153 27.4936 25.3031 27.1L21.3113 24.8136C20.6553 24.4201 20.1962 23.7079 20.1962 22.9208V19.9222L16.7291 21.9462V24.9448C16.7291 25.7319 17.1227 26.4441 17.8442 26.8377L25.3687 31.1387C26.0247 31.5323 26.8774 31.5323 27.5895 31.1387L35.1141 26.8377C35.77 26.4441 36.2292 25.7319 36.2292 24.9448V16.2677C36.2292 15.4806 35.8356 14.7684 35.1141 14.3749L27.5239 10.0082L27.5333 9.99882Z" fill="#141421"/>
</g>
<defs>
<clipPath id="clip0_1221_12638">
<rect width="35.4768" height="30.8571" fill="white" transform="translate(0.761719 0.571289)"/>
</clipPath>
</defs>
</svg>
