<svg width="35" height="40" viewBox="0 0 35 40" fill="none" xmlns="http://www.w3.org/2000/svg">
<g id="a" clip-path="url(#clip0_1221_12612)">
<path id="Vector" fill-rule="evenodd" clip-rule="evenodd" d="M17.7794 1.92483C17.6058 1.7663 17.5152 1.75876 17.5001 1.75876C17.485 1.75876 17.3945 1.75876 17.2208 1.92483C17.0397 2.0909 16.8283 2.37019 16.6019 2.80801C16.1414 3.67611 15.7036 4.98957 15.3337 6.68801C14.5788 10.0698 14.1108 14.7726 14.1108 20.0038C14.1108 25.235 14.5864 29.9453 15.3337 33.3195C15.7111 35.018 16.1489 36.3314 16.6019 37.1995C16.8283 37.6374 17.0472 37.9167 17.2208 38.0827C17.3945 38.2412 17.485 38.2488 17.5001 38.2488C17.5152 38.2488 17.6058 38.2488 17.7794 38.0827C17.9606 37.9167 18.172 37.6374 18.3984 37.1995C18.8589 36.3314 19.2967 35.018 19.6666 33.3195C20.4215 29.9378 20.8895 25.235 20.8895 20.0038C20.8895 14.7726 20.4139 10.0622 19.6666 6.68801C19.2892 4.98957 18.8513 3.67611 18.3984 2.80801C18.172 2.37019 17.9606 2.0909 17.7794 1.92483ZM21.75 20.0038C21.75 9.4508 19.8478 0.905762 17.5001 0.905762C15.1525 0.905762 13.2578 9.4508 13.2578 19.9962C13.2578 30.5417 15.1601 39.0867 17.5001 39.0867C19.8402 39.0867 21.7425 30.5417 21.7425 19.9962L21.75 20.0038Z" fill="#141421"/>
<path id="Vector_2" fill-rule="evenodd" clip-rule="evenodd" d="M33.3058 11.2025C33.3587 10.976 33.3134 10.893 33.3058 10.8854C33.3058 10.8703 33.253 10.7949 33.0265 10.7269C32.7925 10.6514 32.4453 10.6137 31.9546 10.6288C30.9733 10.6665 29.6145 10.9458 27.9538 11.4667C24.6475 12.5084 20.3373 14.4484 15.8006 17.0678C11.2714 19.6796 7.42159 22.4424 4.87015 24.7825C3.58689 25.96 2.66595 26.9942 2.1451 27.8245C1.8809 28.2397 1.74502 28.5643 1.69218 28.7983C1.63934 29.0248 1.68463 29.1078 1.69218 29.1154C1.69218 29.1305 1.74502 29.2059 1.97148 29.2739C2.20549 29.3494 2.55273 29.3871 3.04339 29.372C4.02471 29.3343 5.38346 29.055 7.04416 28.5341C10.3505 27.4924 14.6607 25.5524 19.1974 22.933C23.7266 20.3212 27.5764 17.5584 30.1278 15.2183C31.4111 14.0408 32.332 13.0066 32.8529 12.1763C33.1171 11.7611 33.253 11.4365 33.3058 11.2025ZM0.952418 29.5456C2.12245 31.5762 10.4863 28.9493 19.6202 23.6728C28.7615 18.4039 35.2156 12.4782 34.0456 10.4476C32.8755 8.41704 24.5117 11.044 15.3778 16.3204C6.23645 21.5969 -0.217619 27.5151 0.952418 29.5456Z" fill="#141421"/>
<path id="Vector_3" fill-rule="evenodd" clip-rule="evenodd" d="M34.0456 29.5455C35.2156 27.5149 28.7615 21.5968 19.6202 16.3203C10.4863 11.0514 2.13 8.42446 0.952418 10.455C-0.217619 12.4856 6.23645 18.4037 15.3778 23.6802C24.5192 28.9492 32.8755 31.5836 34.0456 29.5531V29.5455ZM1.69218 10.8778C1.69218 10.8778 1.74502 10.7872 1.97148 10.7192C2.20549 10.6438 2.55273 10.606 3.04339 10.6211C4.02471 10.6588 5.38346 10.9381 7.04416 11.459C10.3505 12.5007 14.6607 14.4407 19.1974 17.0601C23.7342 19.6795 27.5764 22.4347 30.1278 24.7748C31.4111 25.9524 32.332 26.9865 32.8529 27.8169C33.1171 28.232 33.253 28.5566 33.3058 28.7906C33.3587 29.0171 33.3134 29.1001 33.3058 29.1077C33.3058 29.1228 33.253 29.1983 33.0265 29.2662C32.7925 29.3417 32.4453 29.3794 31.9546 29.3643C30.9733 29.3266 29.6145 29.0473 27.9538 28.5264C24.6475 27.4847 20.3373 25.5447 15.8006 22.9254C11.2714 20.3135 7.42159 17.5507 4.87015 15.2107C3.58689 14.0331 2.66595 12.9989 2.1451 12.1686C1.8809 11.7534 1.74502 11.4288 1.69218 11.1948C1.63934 10.9683 1.68463 10.8853 1.69218 10.8778Z" fill="#141421"/>
<path id="Vector_4" fill-rule="evenodd" clip-rule="evenodd" d="M5.29385 14.6519C6.03361 14.6519 6.6375 15.2557 6.6375 15.9955C6.6375 16.7353 6.03361 17.3392 5.29385 17.3392C4.55408 17.3392 3.9502 16.7353 3.9502 15.9955C3.9502 15.2557 4.55408 14.6519 5.29385 14.6519Z" fill="#141421"/>
<path id="Vector_5" fill-rule="evenodd" clip-rule="evenodd" d="M26.6337 10.0552C27.3735 10.0552 27.9773 10.6591 27.9773 11.3988C27.9773 12.1386 27.3735 12.7425 26.6337 12.7425C25.8939 12.7425 25.29 12.1386 25.29 11.3988C25.29 10.6591 25.8939 10.0552 26.6337 10.0552Z" fill="#141421"/>
<path id="Vector_6" fill-rule="evenodd" clip-rule="evenodd" d="M14.7978 31.1377C15.5375 31.1377 16.1414 31.7416 16.1414 32.4814C16.1414 33.2211 15.5375 33.825 14.7978 33.825C14.058 33.825 13.4541 33.2211 13.4541 32.4814C13.4541 31.7416 14.058 31.1377 14.7978 31.1377Z" fill="#141421"/>
<path id="Vector_7" fill-rule="evenodd" clip-rule="evenodd" d="M17.4235 17.7163C18.6766 17.7163 19.6956 18.7354 19.6956 19.9884C19.6956 21.2415 18.6766 22.2606 17.4235 22.2606C16.1704 22.2606 15.1514 21.2415 15.1514 19.9884C15.1514 18.7354 16.1704 17.7163 17.4235 17.7163Z" fill="#141421"/>
</g>
<defs>
<clipPath id="clip0_1221_12612">
<rect width="33.3649" height="38.1885" fill="white" transform="translate(0.817383 0.905762)"/>
</clipPath>
</defs>
</svg>
