<svg width="45" height="46" viewBox="0 0 45 46" fill="none" xmlns="http://www.w3.org/2000/svg">
<g id="a" clip-path="url(#clip0_1221_12606)">
<path id="Vector" d="M5.2467 17.9657L0.213867 22.9985L5.2467 28.0314L10.2795 22.9985L5.2467 17.9657Z" fill="#141421"/>
<path id="Vector_2" d="M22.4993 10.7777L31.1246 19.4065L36.1598 14.3748L22.4993 0.714355L8.83887 14.3748L13.874 19.4065L22.4993 10.7777Z" fill="#141421"/>
<path id="Vector_3" d="M39.7535 17.9647L34.7207 22.9976L39.7535 28.0304L44.7864 22.9976L39.7535 17.9647Z" fill="#141421"/>
<path id="Vector_4" d="M22.4993 35.222L13.874 26.5933L8.83887 31.625L22.4993 45.2854L36.1598 31.625L31.1246 26.5933L22.4993 35.222Z" fill="#141421"/>
<path id="Vector_5" d="M22.5006 17.9672L17.4678 23L22.5006 28.0328L27.5334 23L22.5006 17.9672Z" fill="#141421"/>
</g>
<defs>
<clipPath id="clip0_1221_12606">
<rect width="44.5714" height="44.5714" fill="white" transform="translate(0.213867 0.714355)"/>
</clipPath>
</defs>
</svg>
