<svg width="39" height="34" viewBox="0 0 39 34" fill="none" xmlns="http://www.w3.org/2000/svg">
<g id="a" clip-path="url(#clip0_1221_12620)">
<path id="Vector" d="M29.0934 20.4026C30.0081 18.8227 31.484 18.8227 32.3987 20.4026L38.0945 30.4015C39.0092 31.9814 38.2608 33.2702 36.4315 33.2702H24.9567C23.1481 33.2702 22.3998 31.9814 23.2937 30.4015L29.0934 20.4026ZM18.0759 1.15316C18.9906 -0.426705 20.4457 -0.426705 21.3604 1.15316L22.6285 3.43981L25.6219 8.69911C26.3495 10.1958 26.3495 11.9628 25.6219 13.4595L15.5814 30.8588C14.6668 32.2724 13.1492 33.1663 11.4654 33.2702H3.12956C1.30024 33.2702 0.551883 32.0022 1.46654 30.4015L18.0759 1.15316Z" fill="#141421"/>
</g>
<defs>
<clipPath id="clip0_1221_12620">
<rect width="37.4096" height="33.3019" fill="white" transform="translate(0.794922 0.349121)"/>
</clipPath>
</defs>
</svg>
