<svg width="61" height="77" viewBox="0 0 61 77" fill="none" xmlns="http://www.w3.org/2000/svg">
  <path
    d="M25.5101 2.20102C23.2271 2.58443 22.5299 2.77613 20.4561 3.52552C18.2951 4.32719 15.5416 5.7911 13.6594 7.13302C11.6378 8.57951 8.88422 11.3505 7.38544 13.4418C6.09581 15.2543 4.21363 18.8792 3.55138 20.8485C2.55801 23.7763 2.31404 25.2926 2.20946 29.1266C2.12233 32.9432 2.27917 34.4071 3.09827 37.4918C3.96965 40.7333 6.20037 45.0903 8.29168 47.5998C10.0867 49.7434 12.8403 52.2182 15.0536 53.6471C16.744 54.7451 19.7416 56.1219 21.9549 56.819C24.691 57.6729 26.3466 57.882 30.2155 57.8646C33.4745 57.8646 33.9625 57.8298 35.8272 57.3941C38.6504 56.7319 39.7484 56.3484 41.9966 55.2853C49.9784 51.4687 55.5552 44.3408 57.4373 35.5224C57.7859 33.9017 57.8382 33.1698 57.8382 29.9108C57.8382 25.8501 57.6988 24.8045 56.7053 21.5282C55.8166 18.6003 54.2656 15.5505 52.4182 13.0758C51.3552 11.6468 48.3575 8.47494 48.0788 8.47494C47.9394 8.47494 47.765 8.37038 47.6954 8.24839C46.9982 7.16788 41.6131 4.10063 38.8422 3.21183C34.7118 1.90476 29.5534 1.50393 25.5101 2.20102ZM35.0952 3.24668C42.8853 4.78031 49.5949 9.62516 53.5511 16.5788C55.8862 20.7091 56.9494 24.822 56.9494 29.8236C56.9669 33.8146 56.4788 36.4809 55.1195 39.9142C52.4705 46.6413 47.1377 52.1135 40.4978 54.9193C32.882 58.126 24.1856 57.6554 16.9009 53.6123C10.7141 50.179 5.92153 44.0969 4.07421 37.3175C3.23769 34.3025 3.1157 33.3267 3.1157 29.9108C3.1157 27.1921 3.18541 26.373 3.53395 24.6826C4.84103 18.2866 8.03027 12.9713 12.9623 8.91064C17.0403 5.52969 22.0595 3.45581 27.4271 2.89812C29.4488 2.689 33.0911 2.86327 35.0952 3.24668Z"
    fill="#777682" />
  <path
    d="M26.8172 5.00488C18.5216 6.05054 11.4112 11.2265 7.50748 19.0514C4.6145 24.8375 4.24852 32.2789 6.53154 38.5006C9.52907 46.6567 16.3955 52.5995 25.0047 54.5165C27.3923 55.0394 32.2197 55.0916 34.6596 54.6037C43.5476 52.8435 50.8323 46.4999 53.6382 38.0823C54.6838 34.9279 54.8756 33.708 54.8756 29.9088C54.8756 26.2665 54.7013 24.9595 53.795 22.1535C53.1503 20.0971 51.6689 17.1344 50.4142 15.3568C49.1245 13.5444 46.702 11.0522 44.9418 9.74518C42.5891 7.985 39.1559 6.32938 36.3326 5.57999C33.6313 4.8829 29.7624 4.6389 26.8172 5.00488ZM34.1717 6.13768C35.7749 6.41652 38.8074 7.32275 39.4174 7.70615C39.9053 8.01986 39.9401 8.90866 39.487 9.15264C39.3128 9.23978 38.4762 9.51862 37.6048 9.76262C34.8514 10.5294 32.2372 10.7211 23.4536 10.7908C15.5068 10.8605 15.4022 10.8605 15.6984 10.5294C16.0643 10.1286 18.4345 8.68211 19.7765 8.07214C24.4121 5.91113 29.2222 5.2663 34.1717 6.13768ZM43.7567 10.0937C45.517 11.2962 47.8 13.4747 49.0374 15.1477C49.6124 15.932 50.1701 16.664 50.2572 16.7859C50.3619 16.9079 50.4315 17.03 50.4315 17.0821C50.4315 17.1171 50.7452 17.6921 51.1112 18.3545C53.4117 22.3453 54.4748 27.7129 53.9171 32.5578C53.4813 36.2874 52.2091 39.9122 50.2921 42.8924C44.6456 51.6062 34.4156 55.7714 24.4644 53.4186C23.6454 53.2269 22.8263 53.0003 22.6345 52.9307C22.4429 52.8435 21.6064 52.4949 20.7698 52.1639C14.6876 49.6891 9.63364 44.3563 7.42034 38.0823C6.60124 35.7645 6.14813 33.2724 6.11327 30.7802L6.07842 28.6018L6.8278 28.6541C7.99545 28.7412 11.2021 28.3752 12.5963 27.9918C14.0602 27.5736 15.2279 27.0333 16.7092 26.0399C18.086 25.1162 18.8876 24.3494 20.0553 22.7984C20.9092 21.6656 22.5474 18.6855 22.5474 18.2672C22.5474 18.1801 24.2031 18.0581 26.2595 17.9885C28.2812 17.9362 31.0173 17.7619 32.3068 17.6225C33.5965 17.4831 34.8862 17.361 35.165 17.361H35.653L35.6007 18.7378C35.531 19.9228 35.4439 20.2715 34.8687 21.3694L34.2065 22.6416L34.3285 25.6216C34.4679 29.2118 34.4679 29.2118 32.8994 28.7064C31.2264 28.1487 30.3898 27.9221 30.3027 28.0093C30.0936 28.2183 30.4944 28.8981 30.9475 29.142C31.6969 29.5255 31.4529 29.8043 30.2155 29.9438C29.623 30.0134 29.0828 30.1005 29.048 30.1528C28.9956 30.2051 29.2745 30.3271 29.6753 30.4317C30.599 30.6757 30.6861 30.8673 30.0413 31.2508C29.5185 31.5645 29.3441 31.9304 29.0828 33.4467C28.9085 34.5446 28.5077 34.7885 26.9392 34.7885C24.8304 34.7885 23.3317 34.196 21.4669 32.5928C20.9615 32.1745 20.4909 31.8258 20.4038 31.8258C20.1599 31.8258 20.4561 32.5578 20.9615 33.2201C21.7806 34.2483 21.8329 34.4575 21.9549 37.3853C22.0595 39.7903 22.1291 40.2782 22.408 40.6442C22.5997 40.8708 22.8611 41.0625 23.018 41.0625C23.2271 41.0625 23.262 40.9231 23.1749 40.3305C22.9657 38.9189 22.8611 35.1372 23.0355 35.1372C23.1226 35.1372 23.8196 35.3289 24.569 35.5728C26.608 36.2176 27.8802 36.3047 28.8737 35.8691C29.7624 35.4683 30.1111 34.9629 30.4073 33.5861C30.5467 32.889 30.7384 32.6101 31.3483 32.1047C31.7666 31.7562 32.272 31.1288 32.4812 30.6931L32.8645 29.9088H33.8057C34.5898 29.9088 34.8339 29.8217 35.1824 29.4907C35.7749 28.8981 35.8272 28.5321 35.6704 25.8482C35.5135 23.3561 35.6007 22.7636 36.0538 22.7636C36.4372 22.7636 37.3609 22.2756 37.3609 22.0664C37.3609 21.962 37.1692 21.8922 36.9426 21.8922C36.3326 21.8922 36.263 21.6831 36.5766 20.8117C36.7334 20.3934 36.9078 19.4001 36.96 18.581L37.0472 17.0996L38.4066 15.7055C40.5675 13.4747 41.195 12.1502 41.195 9.72775V8.43812L41.8572 8.83895C42.2057 9.04808 43.0597 9.62319 43.7567 10.0937ZM39.7484 11.1394C39.5218 12.5684 38.4762 14.0149 36.9251 15.0954C35.897 15.7926 32.7251 16.298 26.8172 16.6813C23.0005 16.9253 18.1383 16.6465 15.2279 16.0365C13.5374 15.6705 11.5158 15.0954 11.3415 14.9212C11.2544 14.8514 11.6901 14.2763 12.3 13.649L13.398 12.4987L16.5349 12.307C18.2602 12.185 23.0005 12.0282 27.0786 11.9585C34.7816 11.8191 35.9143 11.6971 38.5808 10.8431C39.7659 10.4597 39.853 10.4771 39.7484 11.1394ZM10.9233 16.1759C11.1324 16.2805 12.1258 16.5942 13.1366 16.8556C14.705 17.2738 16.0818 17.5004 20.4213 17.9885C20.8221 18.0406 21.1533 18.1627 21.1533 18.2498C21.1533 18.6855 20.4038 19.8357 20.0378 19.9751C19.3234 20.2365 16.1167 20.5329 15.0885 20.4109C13.4328 20.2365 11.7075 19.9577 10.6967 19.6963C10.1739 19.5569 9.45936 19.4524 9.09338 19.4524C8.7274 19.4524 8.43113 19.4001 8.43113 19.3303C8.43113 19.1909 9.61621 17.0473 10.0345 16.4374C10.4179 15.897 10.4179 15.897 10.9233 16.1759ZM11.2718 21.1427C12.9972 21.561 13.5548 21.6308 16.1515 21.6308C17.7548 21.6308 19.062 21.6656 19.062 21.7179C19.062 21.7702 18.5043 22.3628 17.842 23.0249L16.6047 24.2448L14.4785 24.2275C12.8055 24.21 11.9515 24.1055 10.4702 23.7396C9.42451 23.4955 8.23943 23.2863 7.80375 23.2863C7.19379 23.2863 7.03693 23.2342 7.03693 22.9726C7.03693 22.5022 7.64689 21.0035 7.92573 20.8291C8.34399 20.5677 9.25023 20.6548 11.2718 21.1427ZM9.7382 24.942C10.5573 25.1512 12.544 25.4822 13.7465 25.6043L14.2694 25.6566L13.5723 25.9528C11.7598 26.7719 8.55313 27.469 6.94979 27.3992C6.25269 27.3819 6.25269 27.3819 6.27012 26.6848C6.28754 25.2383 6.47925 24.7154 7.00208 24.6283C7.61204 24.5237 8.6577 24.6458 9.7382 24.942Z"
    fill="#777682" />
  <path
    d="M42.9206 18.1299C42.7114 18.5655 42.7288 18.6003 43.6002 20.3431C43.6176 20.4129 43.2516 20.5 42.7811 20.5697C42.3105 20.6395 41.7528 20.8137 41.5438 20.988L41.1778 21.2843L41.6657 21.8245C42.3802 22.6261 43.0773 23.0096 43.9487 23.1142L44.733 23.2013L45.0467 24.5084C45.2209 25.2228 45.4127 26.1465 45.4823 26.5473L45.5869 27.262L44.7503 26.8437C44.1928 26.5648 43.635 26.4254 43.0425 26.4254C41.5089 26.4254 41.4043 26.7391 42.4152 28.4818C43.06 29.5971 44.0707 30.3466 45.1163 30.5035L45.9006 30.6254V32.3159C45.9006 33.2396 45.8483 34.3026 45.7961 34.6512L45.6915 35.2786L45.1338 34.5641C44.5761 33.8321 43.4433 33.0479 42.9206 33.0479C42.7637 33.0479 42.5894 33.2221 42.5196 33.4312C42.3629 34.076 42.3977 35.6969 42.6067 36.4462C42.7985 37.1085 43.6874 38.1366 44.4193 38.5549C44.733 38.7292 44.7155 38.799 44.0882 39.9492C43.3039 41.3608 42.0665 43.1035 41.7703 43.2256C41.6134 43.2952 41.5438 43.1035 41.5438 42.5982C41.5438 41.7965 41.0384 40.5939 40.4806 40.0886C40.1321 39.7748 40.1147 39.7748 39.6616 40.35C38.7379 41.5003 38.3719 42.3367 38.2674 43.4346C38.2151 44.2537 38.2499 44.6197 38.4765 44.916C38.6334 45.1426 38.7553 45.4215 38.7553 45.5434C38.7553 45.8048 37.152 46.6413 35.81 47.077C34.8515 47.3908 34.5901 47.3035 34.5728 46.6936C34.5728 46.3102 33.3354 45.0728 32.6034 44.6895C32.22 44.4978 31.5055 44.2189 31.0349 44.0795C29.9718 43.7658 29.815 43.9227 29.9718 45.0728C30.0939 46.0488 30.4076 46.6239 31.0872 47.2687C31.3661 47.5476 31.61 47.8439 31.61 47.931C31.61 48.1226 27.7759 47.9484 26.9047 47.7045C26.5735 47.6173 26.1029 47.4952 25.8589 47.4429C25.4581 47.3558 25.4232 47.2687 25.4058 46.4323C25.3884 45.8571 25.2315 45.2122 25.0224 44.7766C24.6042 43.9923 22.6 42.0578 22.3386 42.2147C21.7809 42.5632 21.5021 44.4106 21.8506 45.3168C21.9377 45.5609 21.9552 45.77 21.8855 45.77C21.5544 45.77 19.5675 44.3235 18.4523 43.2779C17.3717 42.267 17.2497 42.1101 17.4589 41.8139C17.9817 41.0472 18.2257 40.2629 18.1386 39.5483C18.0515 38.7641 17.2324 36.8819 16.9708 36.8819C16.6224 36.8819 15.594 37.9799 15.4025 38.5549C15.2979 38.8861 15.141 39.1126 15.0713 39.0603C14.9841 39.0255 14.6007 38.3109 14.1999 37.4918C13.6597 36.4288 13.3634 36.0105 13.1368 36.0105C12.9626 36.0105 12.7534 36.0977 12.7011 36.1848C12.5617 36.3939 13.4505 38.3459 14.1999 39.5134C14.4788 39.9492 14.7053 40.3674 14.7053 40.4197C14.7053 40.4894 14.3742 40.5417 13.9908 40.5417C12.7011 40.5417 10.6796 41.9359 11.2721 42.4238C11.3941 42.5284 11.9866 42.7725 12.614 42.9815C13.8688 43.3998 14.9841 43.3998 15.8904 42.9467L16.4306 42.6679L17.6157 43.7833C18.7659 44.8812 21.1013 46.5716 22.0771 47.0073C22.7046 47.2862 22.6696 47.5127 21.99 47.5127C21.3974 47.5127 20.6481 47.8961 20.0033 48.5236C19.5675 48.9418 18.9577 50.4231 19.1319 50.6148C19.2016 50.6845 19.951 50.7368 20.7701 50.7194C21.9726 50.702 22.4606 50.6148 23.1227 50.3012C23.9245 49.9177 24.8132 48.9418 24.8132 48.4364C24.8132 48.1576 24.8655 48.1576 26.0333 48.4886C26.556 48.628 27.9851 48.8024 29.2225 48.8546L31.4357 48.9592L30.8084 49.726C30.2333 50.4231 30.1635 50.6497 30.0764 51.7128C29.9893 52.8804 30.0068 52.9152 30.3901 52.9152C31.1395 52.9152 33.3004 51.7301 33.9453 50.9633C34.5205 50.2837 34.6076 50.0571 34.6424 48.9418C34.6599 48.5759 34.869 48.4538 36.054 48.0181C36.8208 47.7393 37.9014 47.2687 38.459 46.9725L39.4873 46.4323L39.9579 46.8854C40.5329 47.4429 41.718 47.8612 42.7114 47.8612C43.3737 47.8612 45.5173 47.4256 45.6915 47.2514C45.8483 47.1119 45.1338 46.0836 44.6284 45.7003C43.9662 45.1949 42.7462 44.7243 42.1015 44.7243C41.6657 44.7243 41.6657 44.6895 42.45 43.8877C43.391 42.9292 44.4541 41.3608 45.1163 40.0014L45.6044 39.0255L46.6674 39.0952C47.5911 39.1823 47.8874 39.1301 48.6367 38.7467C49.7869 38.1541 51.4078 36.6727 51.2161 36.3765C50.7281 35.5748 48.5148 35.4355 47.2426 36.1152C46.4931 36.4985 46.406 36.516 46.4931 36.2371C46.7023 35.54 46.9462 33.1175 46.9462 31.8105C46.9462 30.3291 46.9114 30.3641 48.0093 30.1897C49.2642 29.9806 50.9197 27.7674 51.1637 25.9896C51.3032 25.0661 48.6194 25.7805 47.5737 26.9481C47.2251 27.3316 46.9462 27.7324 46.9462 27.8195C46.9462 27.9241 46.8766 27.9939 46.772 27.9939C46.6848 27.9939 46.5977 27.7847 46.5977 27.5408C46.5977 27.2968 46.3887 26.2163 46.1446 25.1532C45.9006 24.0727 45.6567 23.0444 45.6044 22.8527C45.5521 22.6088 45.6567 22.4519 45.9355 22.3299C46.5454 22.0684 47.1206 20.7789 47.1206 19.681C47.1206 18.8096 47.1031 18.7573 46.6848 18.7573C46.3712 18.7573 45.9529 19.0361 45.3952 19.5938L44.5587 20.4302L43.9835 19.1581C43.6699 18.4436 43.3387 17.8336 43.2516 17.7813C43.1819 17.7291 43.025 17.8859 42.9206 18.1299ZM45.8832 20.9531C45.7088 21.3539 45.6567 21.3888 45.6044 21.1449C45.5521 20.9705 45.6217 20.7091 45.7438 20.5697C46.04 20.2037 46.1098 20.3779 45.8832 20.9531ZM43.8093 21.8071C43.9835 22.0163 43.9662 22.0684 43.6874 22.0684C43.5131 22.0684 43.1993 21.9465 43.0077 21.8071C42.694 21.5632 42.694 21.5632 43.1296 21.5457C43.391 21.5457 43.6874 21.6676 43.8093 21.8071ZM49.9089 26.8262C49.9089 27.5581 47.8874 29.6844 47.5214 29.3358C47.4691 29.2834 47.5214 28.9698 47.6259 28.6386C47.957 27.6279 49.9089 26.0769 49.9089 26.8262ZM44.5064 27.8022C44.9421 28.1159 45.7263 29.144 45.7263 29.4055C45.7263 29.6494 45.0642 29.5798 44.489 29.3009C43.9139 29.0046 42.8856 27.6976 43.0425 27.4535C43.1645 27.2445 43.9662 27.4362 44.5064 27.8022ZM44.4716 35.2088C44.7503 35.6097 44.8549 36.028 44.8549 36.6727C44.8549 37.1781 44.7853 37.5791 44.7155 37.5791C44.6284 37.5791 44.367 37.3699 44.123 37.091C43.6002 36.5508 43.2168 35.2961 43.3562 34.686C43.4433 34.3375 43.5131 34.3026 43.7745 34.4595C43.9487 34.5641 44.2624 34.9126 44.4716 35.2088ZM49.6475 36.7077C49.9089 37.1258 47.3122 38.4503 46.6674 38.2064C46.2666 38.0495 46.3887 37.823 47.1031 37.335C48.0965 36.6379 49.4036 36.3242 49.6475 36.7077ZM16.9708 39.6704C16.9708 40.7508 16.7095 40.9426 16.4306 40.0537C16.2912 39.5309 16.2912 39.2869 16.4306 38.9907C16.7443 38.433 16.9708 38.7118 16.9708 39.6704ZM40.3935 41.6918C40.6376 42.3367 40.4981 43.4346 40.0624 44.0795C39.5221 44.8637 39.3479 44.8812 39.2085 44.1493C39.0865 43.5392 39.2433 42.8248 39.6964 41.9707C40.0101 41.3608 40.2366 41.2737 40.3935 41.6918ZM14.8273 41.779L15.3153 41.9707L14.8796 42.145C14.409 42.3194 13.1368 42.1624 13.1368 41.9359C13.1368 41.7965 13.5028 41.6745 14.1302 41.6047C14.2348 41.6047 14.5485 41.6745 14.8273 41.779ZM23.3668 44.1666C24.1511 44.8986 24.5519 45.7874 24.4822 46.589C24.4472 46.955 24.1859 46.8504 23.5933 46.2405C22.9835 45.6305 22.5477 44.7243 22.5477 44.097C22.5477 43.5567 22.7046 43.5741 23.3668 44.1666ZM32.3071 45.648C33.1089 46.1359 33.7014 46.7981 33.7014 47.1816C33.7014 47.6173 33.4399 47.5999 32.4814 47.0944C31.7146 46.711 30.913 45.7874 30.913 45.2994C30.913 44.9857 31.4357 45.1251 32.3071 45.648ZM43.7222 46.1882C44.3845 46.6239 44.0707 46.8504 42.7985 46.8504C41.3869 46.8504 40.0624 46.1534 40.9861 45.8746C41.6134 45.7003 43.2516 45.8746 43.7222 46.1882ZM23.7676 48.5409C23.7676 48.6455 23.4887 48.9244 23.1577 49.1857C22.6871 49.5344 22.2863 49.6737 21.3974 49.7434C20.2647 49.8306 20.2472 49.8131 20.4739 49.4646C20.8572 48.8546 21.868 48.3841 22.8614 48.3841C23.3493 48.3841 23.7676 48.4538 23.7676 48.5409ZM33.7014 49.4298C33.7014 49.9177 32.6208 51.0505 31.7844 51.4339C31.4009 51.6082 31.0349 51.6953 30.9826 51.643C30.9303 51.5907 31.0524 51.2074 31.2789 50.7891C31.5926 50.2314 31.9411 49.9177 32.6383 49.5517C33.161 49.2903 33.6143 49.0811 33.6491 49.0811C33.6839 49.0811 33.7014 49.238 33.7014 49.4298Z"
    fill="#777682" />
  <path
    d="M28.8215 21.4266C28.8215 21.9668 29.536 22.4199 30.3901 22.4199C31.1742 22.4199 32.9345 21.9494 32.7602 21.7751C32.7252 21.7228 32.185 21.6183 31.5751 21.5486C30.9651 21.4614 30.1112 21.3395 29.6581 21.2697C28.961 21.1651 28.8215 21.2001 28.8215 21.4266Z"
    fill="#777682" />
  <path d="M14.6171 75.0704H16.9262V67.0964H19.6941V65.0311H11.8634V67.0964H14.6171V75.0704Z" fill="#777682" />
  <path
    d="M25.0961 67.9712C24.0491 67.9712 23.2604 68.3871 22.8588 69.1615V65.0311H20.6644V75.0704H22.8588V71.4562C22.8588 70.395 23.3178 69.8213 24.1926 69.8213C25.0818 69.8213 25.4116 70.352 25.4116 71.5136V75.0704H27.6203V70.7966C27.6203 68.9178 26.774 67.9712 25.0961 67.9712Z"
    fill="#777682" />
  <path
    d="M32.732 75.2854C35.0266 75.2854 36.5182 74.0664 36.5182 72.3023C36.5182 71.0833 35.7725 70.2084 34.5534 69.9789C35.7438 69.6491 36.3462 68.8747 36.3462 67.8133C36.3462 66.1498 34.9407 65.1028 32.8324 65.1028C30.4947 65.1028 29.0892 66.3361 29.0892 68.2005H31.3839C31.3839 67.3401 31.9145 66.8237 32.775 66.8237C33.5209 66.8237 34.0227 67.2683 34.0227 67.9281C34.0227 68.7312 33.5638 69.1184 32.6459 69.1184H31.6563V70.8968H32.6315C33.6355 70.8968 34.1662 71.3272 34.1662 72.202C34.1662 72.962 33.6211 73.464 32.775 73.464C31.7854 73.464 31.2117 72.8903 31.2117 71.8577H28.874C28.874 74.0521 30.2366 75.2854 32.732 75.2854Z"
    fill="#777682" />
  <path
    d="M39.1079 67.5553C39.911 67.5553 40.4704 66.9529 40.4704 66.207C40.4704 65.4756 39.911 64.8589 39.1079 64.8589C38.319 64.8589 37.7455 65.4756 37.7455 66.207C37.7455 66.9529 38.319 67.5553 39.1079 67.5553ZM38.0035 75.0704H40.1978V68.1575H38.0035V75.0704Z"
    fill="#777682" />
  <path
    d="M44.7627 75.2569C45.7236 75.2569 46.5841 74.7836 46.957 74.0953V75.0705H49.137V68.1577H46.957V69.1473C46.5841 68.4446 45.7954 67.9713 44.7914 67.9713C42.7835 67.9713 41.5071 69.5488 41.5071 71.6141C41.5071 73.6937 42.6974 75.2569 44.7627 75.2569ZM45.3938 73.4355C44.3755 73.4355 43.7444 72.6611 43.7444 71.6141C43.7444 70.5671 44.3755 69.8071 45.3938 69.8071C46.4837 69.8071 47.043 70.6245 47.043 71.6141C47.043 72.618 46.4837 73.4355 45.3938 73.4355Z"
    fill="#777682" />
</svg>