<svg width="84" height="48" viewBox="0 0 84 48" fill="none" xmlns="http://www.w3.org/2000/svg">
  <path
    d="M22.8446 3.11115C23.1101 3.97384 23.7737 7.15914 24.3045 10.2781C25.5654 16.9805 24.9018 22.8866 22.3801 28.3945C18.9293 36.0259 13.9524 39.4767 6.45358 39.4767C1.54291 39.4767 0.879304 40.2067 3.53373 42.662C7.11719 46.0464 14.7486 47.1745 19.7921 45.051C27.3571 41.9321 32.5333 32.1771 32.5333 21.0285C32.5333 11.8044 30.277 4.96923 26.5608 2.71298C23.84 1.12033 22.3138 1.31941 22.8446 3.11115Z"
    fill="#777682" />
  <path
    d="M39.1692 8.6174C39.1692 14.3907 39.3683 15.5852 40.1646 15.5852C40.9608 15.5852 41.1599 14.3907 41.1599 8.6174C41.1599 2.84403 40.9608 1.64954 40.1646 1.64954C39.3683 1.64954 39.1692 2.84403 39.1692 8.6174Z"
    fill="#777682" />
  <path
    d="M67.7042 10.2798C67.7042 14.3278 67.9033 15.6549 68.5669 15.3895C68.965 15.2568 69.8277 15.3231 70.425 15.6549C72.1504 16.5176 74.3402 14.5269 74.3402 12.0051C74.3402 9.48342 72.9466 7.95713 71.0885 8.48801C70.0268 8.75346 69.695 8.42166 69.5623 7.09444C69.4295 6.16539 68.965 5.3027 68.5669 5.10363C67.9033 4.90454 67.7042 6.23175 67.7042 10.2798ZM72.6149 10.6779C73.2122 12.2706 73.1457 12.7351 71.9513 13.8632C70.4914 15.3231 69.695 14.5932 69.695 11.8724C69.695 10.0807 69.9605 9.61614 70.9559 9.61614C71.6195 9.61614 72.4158 10.0807 72.6149 10.6779Z"
    fill="#777682" />
  <path
    d="M43.4164 8.88318C43.2836 9.0159 43.1509 10.6086 43.1509 12.4003C43.1509 14.7229 43.4164 15.5856 44.08 15.5856C44.7436 15.5856 45.1417 14.6566 45.2745 12.7985C45.4071 10.7413 45.8053 9.87858 46.668 9.74587C47.7297 9.54679 47.7962 10.3431 47.7962 19.1027C47.7962 28.9904 48.0616 30.8485 49.3888 30.8485C49.9197 30.8485 50.0524 28.0613 49.9197 21.0935C49.7206 8.08685 49.7206 8.21958 46.4026 8.41866C44.9426 8.55138 43.6155 8.75046 43.4164 8.88318Z"
    fill="#777682" />
  <path
    d="M52.8395 9.35141C51.2468 10.9441 51.5122 14.063 53.3703 15.2575C54.2331 15.7884 55.4275 16.1202 56.0248 15.8548C57.2856 15.3902 57.4847 14.1293 56.2902 14.3284C54.4985 14.5275 53.8349 14.1958 53.4368 12.9348C52.9058 11.2759 54.1003 9.61685 55.8257 9.61685C56.5557 9.61685 57.0865 9.28504 57.0865 8.95324C57.0865 7.89147 53.9676 8.15692 52.8395 9.35141Z"
    fill="#777682" />
  <path
    d="M59.0775 11.5402C59.0775 15.0574 60.4711 16.7827 62.3955 15.5882C62.86 15.3228 63.6564 15.1901 64.1873 15.3891C64.8509 15.6546 65.05 14.8583 65.05 12.0048C65.05 9.94758 64.7845 8.28857 64.3864 8.28857C64.0545 8.28857 63.7228 9.48306 63.7228 10.943C63.7228 12.7347 63.3909 13.7965 62.7274 14.062C61.2674 14.5928 60.8693 13.9955 60.8028 11.2084C60.6702 7.2268 59.0775 7.5586 59.0775 11.5402Z"
    fill="#777682" />
  <path
    d="M76.7956 8.75114C75.8665 9.61383 76.3974 10.0784 77.9237 9.81292C80.3127 9.34839 80.5781 10.742 78.3218 11.5383C77.1938 11.8701 76.1319 12.7328 75.8665 13.3301C75.3357 14.79 77.4592 16.449 78.8528 15.6527C79.3836 15.3208 80.379 15.2545 81.0426 15.3873C82.1044 15.719 82.3035 15.3208 82.3035 13.3301C82.3035 9.87928 81.308 8.28662 79.0519 8.28662C78.0564 8.28662 76.9947 8.48571 76.7956 8.75114ZM80.3127 13.1973C80.3127 14.3254 78.5209 15.1217 77.99 14.2591C77.7246 13.8609 77.7909 13.2636 77.99 12.9319C78.5873 11.9365 80.3127 12.1356 80.3127 13.1973Z"
    fill="#777682" />
  <path
    d="M7.97979 17.0455C6.25442 17.9082 4.19724 19.7663 3.06912 21.359C1.34374 23.8142 1.0783 24.9424 0.812859 29.7204C0.481057 36.1573 0.94558 36.8209 5.85626 37.3517L8.9752 37.6173V32.6402C8.9752 27.9949 9.10792 27.4641 10.966 25.4732C13.355 22.9515 16.4075 21.5579 19.5265 21.5579C22.2474 21.5579 23.3091 19.7663 21.451 18.3727C17.4693 15.3201 12.4259 14.7892 7.97979 17.0455Z"
    fill="#777682" />
  <path
    d="M61.0682 25.5421C61.0682 31.05 62.1963 32.9745 62.5281 27.9974C62.6608 25.7411 62.9927 25.2103 64.0544 25.2103C65.1162 25.2103 65.4479 25.7411 65.5807 27.9974C65.7135 29.5901 66.1116 30.8509 66.4434 30.8509C66.8415 30.8509 67.0406 29.391 66.9079 27.3338C66.7089 23.883 66.7089 23.883 64.5853 23.9495C62.5945 24.0821 62.3954 23.883 62.3954 22.1577C62.3954 21.0959 62.1299 20.2333 61.7318 20.2333C61.3337 20.2333 61.0682 22.4231 61.0682 25.5421Z"
    fill="#777682" />
  <path
    d="M41.4919 21.6907C40.6956 23.7479 38.5056 30.3839 38.5056 30.6493C38.5056 30.7158 38.9038 30.8484 39.4347 30.8484C39.8992 30.8484 40.4965 30.2512 40.6956 29.5213C40.8946 28.6586 41.6246 28.1941 42.6863 28.1941C43.7481 28.1941 44.4118 28.6586 44.6772 29.5213C45.0753 30.9812 46.4688 31.3794 46.4025 29.9858C46.4025 29.5876 45.7389 27.3977 44.9426 25.2741C43.4827 21.3589 42.1555 19.9653 41.4919 21.6907ZM43.4163 25.0087C43.7481 26.5351 43.6154 26.8668 42.5537 26.8668C41.6246 26.8668 41.2928 26.5351 41.4919 25.8714C42.4209 23.0843 42.5537 22.6861 42.7527 22.9515C42.8854 23.0843 43.1509 24.0133 43.4163 25.0087Z"
    fill="#777682" />
  <path
    d="M52.4415 28.9228C52.4415 31.9754 52.707 34.1652 53.1051 34.1652C53.5032 34.1652 53.7687 33.4353 53.7687 32.5062C53.7687 31.1127 54.1005 30.8472 55.7595 30.8472C58.2812 30.8472 59.6748 28.4583 58.6793 25.6712C58.1485 24.1448 57.6839 23.8794 55.2287 23.8131L52.4415 23.6803V28.9228ZM56.954 27.1311C57.2194 29.1219 56.1577 30.3164 54.6314 29.7191C53.7023 29.3873 53.4369 26.1357 54.2332 25.273C55.2287 24.2776 56.7549 25.3393 56.954 27.1311Z"
    fill="#777682" />
  <path
    d="M70.1596 23.9489C69.3632 24.8117 69.6286 25.5416 70.6904 25.1434C71.2213 24.878 72.2167 24.9444 72.8803 25.2098C73.8093 25.5416 73.6103 25.8735 71.6858 26.7361C70.1595 27.466 69.3632 28.3287 69.3632 29.1915C69.3632 30.3196 69.8277 30.5187 72.2167 30.585L75.0702 30.7177L74.8711 27.267C74.672 24.0154 74.6057 23.8826 72.6813 23.6835C71.5531 23.5509 70.425 23.6835 70.1596 23.9489ZM73.6766 28.4615C73.6766 29.5897 71.8849 30.3859 71.354 29.5232C71.0886 29.1251 71.1549 28.5278 71.354 28.1961C71.9512 27.2006 73.6766 27.3997 73.6766 28.4615Z"
    fill="#777682" />
  <path
    d="M28.4853 40.5385C26.8263 42.9938 26.5609 43.7237 27.2908 44.1882C31.4716 47.0418 34.1923 47.4399 36.8467 45.7146C38.9039 44.3873 38.9703 43.6574 37.1122 43.1265C36.3159 42.8611 34.5904 41.5339 33.1305 40.074L30.6088 37.5522L28.4853 40.5385Z"
    fill="#777682" />
</svg>