<svg width="108" height="91" viewBox="0 0 108 91" fill="none" xmlns="http://www.w3.org/2000/svg">
  <path
    d="M63.0888 1.5931C61.4541 1.80747 59.891 2.397 58.7209 3.22771C58.1313 3.64752 49.86 11.892 49.342 12.5798C49.1723 12.812 48.8775 13.2676 48.6988 13.5981C48.4219 14.1072 48.3952 14.1876 48.5381 14.1519C48.6274 14.1251 48.8864 14.0447 49.1097 13.9822C49.735 13.8035 52.3879 13.8303 53.165 14.0268L53.7902 14.1876L57.4971 10.4896C60.9003 7.10431 61.2666 6.76489 61.8561 6.47012C64.1249 5.35359 66.8314 6.26468 67.9122 8.49775C68.5285 9.784 68.5285 11.1864 67.9033 12.4815C67.5906 13.1157 67.3495 13.3748 63.6336 17.1174C61.472 19.2969 59.4622 21.253 59.1764 21.4674C57.8723 22.441 56.0858 22.6197 54.6031 21.914C53.817 21.5478 52.9685 20.7707 52.6291 20.1186C52.3164 19.5202 52.245 19.4934 50.9855 19.4934C50.1191 19.4934 50.003 19.5113 49.4581 19.7703C48.8507 20.0561 48.1272 20.6367 48.1272 20.8243C48.1272 20.8868 48.288 21.262 48.4845 21.6639C49.7082 24.2007 51.8519 25.9157 54.612 26.5588C57.0237 27.1126 59.9089 26.4784 61.865 24.951C62.6868 24.3168 70.9313 15.9741 71.2797 15.4292C73.2894 12.3029 73.2716 8.47989 71.235 5.47864C70.4579 4.33531 69.118 3.14731 67.9122 2.54885C66.4473 1.8164 64.4465 1.41445 63.0888 1.5931Z"
    fill="#777682" />
  <path
    d="M49.2616 14.5896C48.2791 14.804 47.225 15.2238 46.4211 15.715C45.7691 16.1081 45.0902 16.7512 41.2225 20.601C36.5152 25.2905 36.1222 25.7371 35.5416 27.1037C34.961 28.4614 34.8628 28.9884 34.8717 30.7034C34.8717 32.0165 34.9074 32.3738 35.0682 32.9633C36.0686 36.5809 39.2217 39.2337 42.884 39.5374C44.3935 39.6625 46.0103 39.3945 47.3769 38.7871C48.6006 38.2423 49.2527 37.6885 52.5665 34.3746C57.7205 29.2117 58.2118 28.6847 58.703 27.863C58.9442 27.461 59.1228 27.1037 59.096 27.0858C59.0693 27.059 58.7745 27.0948 58.4351 27.1662C57.0684 27.4431 55.4606 27.4163 54.2458 27.0948L53.7992 26.9787L50.0476 30.6945C46.9928 33.7315 46.2068 34.4639 45.7959 34.6693C43.929 35.5804 41.8478 35.241 40.4633 33.794C39.1145 32.3916 38.8108 30.4622 39.6683 28.649C39.9184 28.122 40.3561 27.6575 44.0094 23.9774C46.2514 21.7265 48.288 19.7524 48.5381 19.5827C49.8869 18.6806 51.6823 18.5823 53.1471 19.3237C53.7545 19.6274 54.6031 20.4402 54.9425 21.0387C55.2373 21.5657 55.3713 21.6461 56.1395 21.7265C57.1399 21.8426 58.3011 21.4585 59.0782 20.7618L59.498 20.3777L59.1407 19.6095C58.6494 18.5644 58.1314 17.832 57.3364 17.0281C56.2377 15.9384 54.9068 15.1523 53.3972 14.7146C52.504 14.4467 50.1816 14.3841 49.2616 14.5896Z"
    fill="#777682" />
  <path
    d="M42.8125 52.0249C39.1056 52.4804 36.0775 55.1244 35.1039 58.733C34.8985 59.5101 34.8717 59.7602 34.8806 61.1179C34.8806 62.7436 34.9878 63.3421 35.4791 64.5658C36.1311 66.1736 37.7032 68.0226 39.1502 68.8533C42.8839 71.0149 47.4037 70.479 50.3692 67.5134C52.6826 65.191 53.558 61.8057 52.6737 58.5633C51.9234 55.8032 49.6367 53.4004 46.8499 52.4447C45.7423 52.0606 43.9647 51.8819 42.8125 52.0249ZM45.3135 53.5255C47.6806 53.9364 49.6903 55.4549 50.7801 57.6343C52.9506 61.9754 50.6104 67.2276 45.9388 68.496C44.9116 68.7818 42.9375 68.7818 41.9282 68.5049C39.0252 67.701 36.9261 65.4322 36.3723 62.5024C36.0865 60.9929 36.3544 58.9652 37.0243 57.6522C38.5786 54.5706 41.8835 52.927 45.3135 53.5255Z"
    fill="#777682" />
  <path
    d="M1.96517 52.2481C1.88478 52.3285 1.85798 54.3918 1.85798 60.9928C1.85798 65.7448 1.88478 69.6928 1.91157 69.7732C1.95623 69.8893 2.10808 69.9161 2.62616 69.9161H3.28714V62.1361C3.28714 57.402 3.32287 54.374 3.36753 54.3918C3.4122 54.4008 5.97576 57.795 9.04847 61.9217C12.1301 66.0485 14.7562 69.541 14.8812 69.675C15.1046 69.9072 15.1581 69.9251 15.7477 69.8983L16.3729 69.8715L16.3997 61.0821C16.4176 54.106 16.3997 52.2749 16.3104 52.2124C16.1318 52.1052 15.2117 52.132 15.0956 52.2481C15.0152 52.3285 14.9884 54.1685 14.9884 59.9834V67.6205L13.4074 65.5125C5.3773 54.8563 3.43899 52.3106 3.28714 52.2302C3.0549 52.1052 2.09915 52.1141 1.96517 52.2481Z"
    fill="#777682" />
  <path
    d="M71.4583 52.2481C71.3779 52.3285 71.3511 54.24 71.3511 61.0196C71.3511 65.7894 71.3868 69.7464 71.4315 69.809C71.4762 69.8893 71.6816 69.9161 72.1193 69.8983L72.7356 69.8715V61.0285V52.1856L72.155 52.1588C71.7799 52.1409 71.5298 52.1766 71.4583 52.2481Z"
    fill="#777682" />
  <path
    d="M98.0408 52.2928C97.9693 52.3821 96.692 55.4101 95.2003 59.0188C93.7176 62.6274 92.3509 65.9413 92.1633 66.3879C91.02 69.148 90.8146 69.675 90.8592 69.7911C90.9218 69.9608 92.1008 69.9697 92.2437 69.7911C92.2973 69.7286 92.735 68.7014 93.2174 67.5134L94.0838 65.3518L98.5857 65.3607C101.069 65.3607 103.123 65.3875 103.159 65.4232C103.186 65.4679 103.588 66.4147 104.043 67.5491C104.499 68.6746 104.901 69.675 104.945 69.7554C105.017 69.8894 105.151 69.9161 105.678 69.9161C106.419 69.9161 106.598 69.8179 106.41 69.5231C106.348 69.4249 104.713 65.5125 102.793 60.8499C100.863 56.1783 99.2288 52.3106 99.1484 52.2481C98.934 52.0784 98.2016 52.1141 98.0408 52.2928ZM99.7558 56.9197C100.31 58.2952 101.176 60.4569 101.685 61.7163C102.194 62.9847 102.614 64.0387 102.614 64.0655C102.614 64.0923 100.828 64.1102 98.6392 64.1102C95.5219 64.1102 94.6644 64.0834 94.6644 63.994C94.6644 63.9405 94.7894 63.5832 94.9413 63.2169C95.0931 62.8507 95.9149 60.8142 96.7635 58.7061C98.7643 53.7577 98.5946 54.1328 98.6839 54.2847C98.7196 54.3561 99.202 55.5441 99.7558 56.9197Z"
    fill="#777682" />
  <path
    d="M36.676 84.0649C36.2383 84.181 36.1222 84.2525 35.6309 84.6901C34.6662 85.5744 34.6752 87.3698 35.6488 88.1916C36.0507 88.531 36.801 88.8615 37.203 88.8794C37.9444 88.9062 38.918 88.4417 38.7929 88.1201C38.7393 87.9951 38.6768 88.004 38.2391 88.2363C36.7832 89.0044 35.1218 87.8522 35.2826 86.1729C35.4165 84.7616 37.0333 83.913 38.257 84.5919C38.5786 84.7795 38.7126 84.8063 38.8019 84.7348C38.9716 84.6008 38.8912 84.5115 38.3999 84.2525C37.8551 83.9845 37.2209 83.913 36.676 84.0649Z"
    fill="#777682" />
  <path
    d="M43.4467 84.1096C43.402 84.1721 42.2319 86.9679 41.5441 88.6561C41.5084 88.7454 41.553 88.7722 41.7049 88.7454C41.8657 88.7276 41.9639 88.5936 42.1604 88.138L42.4016 87.5574H43.6164H44.8401L45.0724 88.1559C45.2689 88.674 45.3403 88.7633 45.519 88.7633C45.653 88.7633 45.7155 88.7186 45.6887 88.6472C45.6619 88.5936 45.4386 88.0577 45.1974 87.4681C44.9473 86.8786 44.5275 85.8782 44.2595 85.2351C43.8129 84.1453 43.5985 83.8595 43.4467 84.1096ZM44.1434 85.8603C44.4203 86.5392 44.6436 87.1376 44.6436 87.1734C44.6436 87.2091 44.1791 87.2448 43.6164 87.2448C43.0001 87.2448 42.5892 87.2091 42.5892 87.1555C42.5892 87.0483 43.5896 84.5562 43.6253 84.5919C43.6343 84.6009 43.8665 85.1725 44.1434 85.8603Z"
    fill="#777682" />
  <path
    d="M48.5738 86.3963C48.5738 88.6918 48.5827 88.7633 48.7524 88.7633C48.9132 88.7633 48.9311 88.6918 48.9489 87.9326L48.9757 87.1108L49.8422 87.0662C50.7711 87.0215 51.0034 86.9233 51.3785 86.4052C51.6644 86.03 51.6465 85.0743 51.3517 84.6634C51.0123 84.19 50.5568 84.0292 49.4938 84.0292H48.5738V86.3963ZM50.5836 84.5115C51.2981 84.8152 51.4679 85.8157 50.9051 86.3784C50.6371 86.6553 50.5925 86.6642 49.7796 86.691L48.9311 86.7267V85.6191C48.9311 85.0028 48.9579 84.4758 48.9936 84.449C49.1008 84.3329 50.2709 84.3865 50.5836 84.5115Z"
    fill="#777682" />
  <path
    d="M54.4691 86.3963C54.4691 88.7008 54.478 88.7633 54.6478 88.7633C54.8175 88.7633 54.8264 88.7008 54.8264 86.3963C54.8264 84.0917 54.8175 84.0292 54.6478 84.0292C54.478 84.0292 54.4691 84.0917 54.4691 86.3963Z"
    fill="#777682" />
  <path
    d="M57.6579 84.0917C57.6222 84.1185 57.5954 84.1989 57.5954 84.2704C57.5954 84.3597 57.7741 84.3865 58.31 84.3865H59.0246V86.5749C59.0246 88.7008 59.0335 88.7633 59.2032 88.7633C59.3729 88.7633 59.3819 88.6918 59.3997 86.5928L59.4265 84.4311L60.1233 84.4044C60.7396 84.3776 60.811 84.3597 60.811 84.2078C60.811 84.0381 60.7396 84.0292 59.2658 84.0292C58.4083 84.0292 57.6847 84.056 57.6579 84.0917Z"
    fill="#777682" />
  <path
    d="M64.5268 84.1096C64.4822 84.1721 63.3121 86.9679 62.6243 88.6561C62.5885 88.7454 62.6332 88.7722 62.7851 88.7454C62.9458 88.7276 63.0441 88.5936 63.2406 88.138L63.4818 87.5574H64.6966H65.9203L66.1525 88.1559C66.349 88.6561 66.4205 88.7633 66.5902 88.7633C66.7063 88.7633 66.7956 88.7544 66.7956 88.7365C66.7956 88.7276 66.358 87.6736 65.831 86.3963C64.9109 84.19 64.7055 83.8238 64.5268 84.1096ZM65.2236 85.8424C65.5005 86.5213 65.7238 87.1198 65.7238 87.1644C65.7238 87.2091 65.2682 87.2448 64.6966 87.2448C64.0802 87.2448 63.6693 87.2091 63.6693 87.1555C63.6693 87.0483 64.6698 84.5562 64.7055 84.5919C64.7144 84.6009 64.9467 85.1636 65.2236 85.8424Z"
    fill="#777682" />
  <path
    d="M69.654 86.3963V88.7633H71.1725C72.6285 88.7633 72.691 88.7544 72.691 88.5847C72.691 88.4149 72.6285 88.406 71.3511 88.406H70.0113V86.2176C70.0113 84.0917 70.0024 84.0292 69.8327 84.0292C69.6629 84.0292 69.654 84.0917 69.654 86.3963Z"
    fill="#777682" />
</svg>