<svg width="103" height="81" viewBox="0 0 103 81" fill="none" xmlns="http://www.w3.org/2000/svg">
  <path
    d="M75.5311 25.6549C75.0489 -0.378933 40.4978 -10.0211 27.1595 14.2451C27.8023 14.7271 28.6058 15.37 29.0879 15.6914C28.1237 17.7805 27.3202 20.0303 26.9988 22.1195C26.8381 23.5658 26.6774 25.0121 26.6774 26.6192C26.6774 40.1182 37.6052 51.046 51.1042 51.046C64.6032 51.046 75.5311 40.1182 75.5311 26.6192C75.5311 26.2977 75.5311 25.9763 75.5311 25.6549ZM32.7841 29.9939C32.4627 32.5652 32.6234 33.5294 32.6234 33.8508L31.9806 34.0115C31.8199 33.5294 31.177 32.0831 31.0163 29.9939C30.3735 22.1195 35.6768 15.0486 43.8726 13.7629C51.4256 12.638 58.4965 17.2984 60.2643 23.8872L59.6214 24.0479C59.4608 23.8872 59.1394 23.4051 58.0144 22.1195C49.0151 12.9594 34.7125 17.1377 32.7841 29.9939ZM55.9253 34.3329C54.6397 36.1006 52.7112 37.2255 50.4614 37.2255C46.7652 37.2255 43.7118 34.1722 43.7118 30.476C43.7118 26.9406 46.4438 24.0479 49.9793 23.8872C52.0684 23.7265 54.1575 25.0121 55.1218 26.7798C56.086 28.869 55.7646 31.2795 54.1575 33.0472C54.8004 33.5294 55.4432 34.0115 55.9253 34.3329ZM69.9065 34.6543C66.371 42.6894 59.1394 46.8677 51.4256 46.707C36.4803 45.9035 32.1413 28.869 42.1048 22.6016L42.5869 23.0837C42.4263 23.2444 41.7834 23.7265 40.9799 25.6549C39.855 27.9048 39.5336 29.9939 39.6943 31.4403C40.4978 43.4929 57.2109 45.9035 62.9962 34.0115C70.2278 17.6198 50.7828 1.06739 33.4269 13.7629L33.1055 13.2808C37.6052 6.20989 46.4438 2.99583 54.9611 5.08497C67.978 8.45972 75.0489 21.9587 69.9065 34.6543Z"
    fill="#777682" />
  <path
    d="M15.7758 61.0442V72.2934C15.7758 76.7931 13.0437 80.1679 8.0619 80.1679C3.08021 80.1679 0.348267 76.7931 0.348267 72.2934V61.0442H4.36554V71.972C4.36554 74.7039 5.6516 76.311 8.0619 76.311C10.4728 76.311 11.7583 74.7039 11.7583 71.972V61.0442H15.7758ZM31.0425 74.5433C31.0425 77.7573 28.471 80.1679 24.2928 80.1679H17.7043V61.2049H23.9716C27.668 61.2049 30.0783 62.9727 30.0783 65.7046C30.0783 67.7938 29.114 69.0793 27.668 69.7222C29.5965 70.5257 31.0425 71.972 31.0425 74.5433ZM21.8825 64.9011V68.9187H23.9716C25.2571 68.9187 26.0607 68.1152 26.0607 66.9902C26.0607 65.8653 25.2571 65.0618 23.9716 65.0618L21.8825 64.9011ZM24.1322 76.4717C25.9001 76.4717 26.8643 75.6682 26.8643 74.0612C26.8643 72.4541 25.9001 71.6506 24.1322 71.6506H21.8825V76.311L24.1322 76.4717ZM32.6498 61.2049H36.6674V80.0072H32.6498V61.2049ZM46.4698 68.9187C49.6843 70.0436 51.291 71.4899 51.291 74.3825C51.291 78.2394 48.2377 80.4893 44.7025 80.4893C41.488 80.4893 38.9171 79.0429 37.9528 76.311L41.1668 73.9004C41.8098 75.6682 43.2558 76.6324 44.8631 76.6324C46.1486 76.6324 47.1128 75.8289 47.1128 74.7039C47.1128 73.579 46.3092 72.9362 43.7383 71.972C40.8455 70.8471 38.5952 69.4008 38.5952 66.3474C38.5952 63.2941 41.1668 61.0442 44.7025 61.0442C47.5946 61.0442 49.8449 62.1692 50.8092 64.419L47.5946 66.6688C46.9522 65.2225 45.988 64.419 44.5413 64.419C43.2558 64.419 42.4522 65.0618 42.4522 66.026C42.6128 67.1509 43.7383 67.9544 46.4698 68.9187ZM71.7001 70.6864C71.7001 76.1503 67.6825 80.3285 62.0583 80.3285C56.2728 80.3285 52.4158 76.1503 52.4158 71.3292C52.4158 68.1152 53.7019 65.7046 55.4692 64.2582L54.8268 63.6155C56.2728 62.1692 58.8443 61.0442 61.8977 61.0442C67.6825 60.8835 71.7001 65.2225 71.7001 70.6864ZM67.5219 70.6864C67.5219 67.3116 65.4328 64.9011 62.0583 64.9011C60.1298 64.9011 58.6831 65.7046 57.8801 66.5081L58.5225 67.1509C57.5583 67.9544 56.594 69.0793 56.594 71.1685C56.594 74.0612 58.6831 76.4717 62.0583 76.4717C65.4328 76.4717 67.5219 74.0612 67.5219 70.6864ZM77.4855 65.2225V69.5615H85.5207V72.6148H77.4855V80.0072H73.3074V61.2049H86.1637V65.0618H77.4855V65.2225ZM102.555 65.2225H97.2522V80.1679H93.2346V65.2225H87.7704V61.2049H102.395V65.2225H102.555Z"
    fill="#777682" />
</svg>