<svg width="152" height="33" viewBox="0 0 152 33" fill="none" xmlns="http://www.w3.org/2000/svg">
  <path
    d="M17.535 2.92593C18.3221 2.04766 19.2168 1.27211 20.1979 0.6176C18.8223 0.271328 17.4094 0.0956348 15.9909 0.0944824C11.8887 0.173718 7.98143 1.85917 5.10874 4.78858C2.23605 7.71799 0.627294 11.6575 0.628266 15.7604C0.628266 24.655 7.81561 31.6075 15.9909 31.6075C17.4127 31.6324 18.8305 31.4465 20.1979 31.0561C19.2532 30.3639 18.3754 29.5847 17.576 28.7288C7.72266 28.4688 3.46365 22.1394 3.46365 15.7565C3.46365 9.37351 8.18196 2.60292 17.535 2.92593Z"
    fill="#777682" />
  <path
    d="M30.9187 31.5379C28.6578 31.5549 26.417 31.1121 24.3324 30.2364C22.4339 29.4299 20.7202 28.2439 19.2967 26.751C17.9077 25.2946 16.8149 23.5822 16.0792 21.709C14.5764 17.8827 14.5705 13.6306 16.0626 9.80017C16.7875 7.94321 17.8712 6.24729 19.2518 4.80929C20.6745 3.33022 22.3869 2.16037 24.282 1.37279C26.3871 0.509172 28.6434 0.0744644 30.9187 0.0941455C33.1852 0.0759198 35.4275 0.560228 37.4844 1.51223C39.3438 2.38825 41.0026 3.6383 42.3571 5.18429C43.6644 6.66788 44.6918 8.37621 45.3895 10.2264C46.0659 11.9884 46.4195 13.8578 46.4333 15.7451C46.4175 17.6411 46.0585 19.5186 45.3737 21.2867C45.021 22.2082 44.589 23.0973 44.0825 23.944C43.5673 24.8058 42.9754 25.6192 42.3138 26.3745C40.9578 27.9343 39.2976 29.2008 37.4348 30.0962C35.3986 31.0601 33.1714 31.5529 30.9187 31.5379ZM30.691 2.74912C22.9341 2.74912 17.7242 9.46849 17.7242 15.7483C17.7037 17.4597 18.0247 19.1581 18.6683 20.7441C19.3119 22.33 20.2652 23.7718 21.4726 24.985C22.6799 26.1982 24.117 27.1585 25.6998 27.8098C27.2827 28.4611 28.9795 28.7903 30.691 28.7781C38.7843 28.7781 43.62 22.1509 43.62 15.7443C43.62 9.49449 38.6772 2.74912 30.691 2.74912Z"
    fill="#777682" />
  <path
    d="M25.6316 6.84278C26.5236 6.4118 27.4591 6.07719 28.4221 5.8446C30.4704 8.61224 32.0224 11.2625 32.0224 15.9611C31.9562 19.5597 30.6889 23.0329 28.4221 25.8286C27.4822 25.5834 26.5808 25.2093 25.7434 24.717C28.0007 22.2794 29.2543 19.0793 29.2532 15.757C29.2486 12.4282 27.9499 9.23158 25.6316 6.84278Z"
    fill="#777682" />
  <path
    d="M56.631 2.96423V8.61217H57.734C57.734 8.61217 59.2159 4.21137 61.1768 4.21137H63.7443V19.8891C63.7443 21.4545 62.7114 21.8398 60.7064 21.8398V22.8829H71.8218V21.8327C71.8218 21.8327 68.7391 21.9249 68.7391 19.882V4.2043H71.012C72.6775 4.2043 73.8923 6.2684 74.7699 8.6051H75.9398V2.96423H56.631Z"
    fill="#777682" />
  <path
    d="M90.6296 22.9214H80.0767V21.7397C82.3267 21.7397 82.9767 21.282 82.9767 19.6984V5.86343C82.9767 4.99682 82.1755 4.56036 81.5027 4.34844C81.0243 4.20518 80.5305 4.12001 80.0318 4.09476V2.96029H91.5522C93.0455 2.91609 94.5352 3.12929 95.9561 3.59055C97.9462 4.32717 98.9554 5.67908 98.9554 7.60846C98.9707 8.58223 98.7045 9.53969 98.1888 10.3659C97.7525 11.0359 97.1776 11.6046 96.5029 12.0337C95.7516 12.5196 94.9219 12.8718 94.0504 13.0744C94.0969 13.1327 99.135 19.4723 100.171 20.6281C100.907 21.3482 101.898 21.748 102.928 21.7405H102.982V22.9222H95.2424C92.5961 18.6853 88.8224 13.9867 88.7822 13.941H87.9518V19.7024C87.9318 20.0695 88.0255 20.4339 88.22 20.7458C88.4146 21.0578 88.7006 21.3022 89.039 21.4458C89.5043 21.647 90.0062 21.7494 90.513 21.7468C90.5855 21.7468 90.6281 21.7468 90.6296 21.7468V22.9285V22.9214ZM87.951 4.24996V12.5324H89.2572C91.8453 12.5324 93.3295 10.9039 93.3295 8.06383C93.3295 4.74787 90.7778 4.25311 89.2572 4.25311L87.951 4.24996Z"
    fill="#777682" />
  <path
    d="M123.902 2.92726H122.586L121.79 3.65993C120.068 2.88333 118.208 2.45619 116.32 2.40332C110.427 2.40332 105.175 5.94855 105.175 13.1966C105.175 20.4446 110.689 23.4706 115.898 23.4706C119.028 23.4684 122.105 22.6633 124.835 21.1323V13.6952H117.037V14.7683C117.037 14.7683 120.041 14.7265 120.041 16.8387V20.7873C118.993 21.6401 117.667 22.0768 116.318 22.0139C113.843 22.0139 110.803 19.9845 110.803 12.8901C110.803 5.79573 114.19 3.66387 116.318 3.66387C118.445 3.66387 121.03 4.64865 122.778 10.2068H124.071L123.902 2.92726Z"
    fill="#777682" />
  <path
    d="M148.374 2.95803H147.005L146.206 3.68599C144.617 2.83004 142.84 2.38228 141.035 2.38294C135.088 2.38294 130.045 6.2661 130.045 13.2313C130.045 20.1964 135.178 23.4282 141.035 23.4282C146.891 23.4282 149.324 17.9078 149.324 17.9078L148.143 17.1413C148.143 17.1413 145.875 21.4349 141.83 21.4349C137.786 21.4349 135.708 18.0725 135.708 12.7334C135.708 7.3943 137.534 3.68676 141.032 3.68676C144.531 3.68676 146.242 7.13669 147.192 10.2423H148.511L148.374 2.95803Z"
    fill="#777682" />
  <path d="M57.9033 31.6073H150.313" stroke="#777682" stroke-width="2.36348" stroke-linecap="round" />
</svg>