<svg width="155" height="51" viewBox="0 0 155 51" fill="none" xmlns="http://www.w3.org/2000/svg">
  <path
    d="M4.76156 1.11881C4.55045 1.19558 3.45651 2.21275 2.32419 3.36426C0.654494 5.07234 0.251465 5.59052 0.251465 6.03193C0.251465 6.51173 0.827221 7.16426 3.82116 10.139C7.27569 13.5935 7.92822 14.3612 7.92822 15.0521C7.92822 15.244 6.20095 17.1248 4.08984 19.2551C0.827221 22.5178 0.251465 23.1895 0.251465 23.6693C0.251465 24.1491 0.654494 24.6289 2.49692 26.4905C4.24338 28.2369 4.87671 28.7551 5.26055 28.7551C5.66358 28.7551 7.04539 27.4885 12.304 22.3258C15.8929 18.7753 18.9252 15.6279 19.0595 15.3208C19.1939 14.9945 19.213 14.6491 19.1171 14.4764C18.8868 14.0733 6.58479 1.65619 6.00903 1.27235C5.47166 0.88851 5.31812 0.869318 4.76156 1.11881Z"
    fill="#777682" />
  <path
    d="M17.2939 3.17234C14.1272 6.30062 14.0312 5.78244 18.7716 10.5228C22.1878 13.939 22.5141 14.3228 22.5141 14.937C22.5141 15.5319 22.207 15.9158 18.8484 19.2551C16.8333 21.2703 15.106 23.0743 15.01 23.2471C14.6454 23.8612 15.106 24.5329 17.2363 26.6248C19.0019 28.3521 19.5201 28.7551 19.9807 28.7551C20.4413 28.7551 21.5161 27.7955 27.1969 22.1723C33.4534 16.0117 33.8373 15.5703 33.8373 14.937C33.8373 14.3036 33.3959 13.8046 27.1585 7.58648C22.1494 2.57739 20.3646 0.926891 20.0383 0.926891C19.712 0.926891 18.9252 1.57941 17.2939 3.17234Z"
    fill="#777682" />
  <path
    d="M66.5594 8.10461C65.4271 8.60359 64.5443 10.0814 64.5443 11.5208C64.5443 11.9814 64.4675 12.0581 63.9685 12.0581C63.412 12.0581 63.3928 12.0965 63.3928 12.9218C63.3928 13.747 63.412 13.7854 63.9685 13.7854H64.5443V17.048V20.3106H65.5998H66.6554V17.048V13.7854H67.4231C68.1715 13.7854 68.1907 13.7662 68.1907 13.0753C68.1907 12.6723 68.2675 12.442 68.3443 12.5379C68.4402 12.6531 69.2847 14.4763 70.2059 16.6258C71.7988 20.2723 71.9523 20.5218 72.3938 20.4642C72.7968 20.4066 73.0079 20.0612 73.9099 18.0652C74.4857 16.7601 75.023 15.743 75.0998 15.8006C75.1766 15.8389 75.6948 16.9137 76.2513 18.1995C77.1342 20.2147 77.3261 20.5026 77.7291 20.5026C78.0937 20.5026 78.2665 20.2915 78.6695 19.3894C79.1493 18.3147 81.5675 12.7682 81.7594 12.2884C81.8362 12.1157 81.5483 12.0581 80.7422 12.0581H79.6099L78.7847 14.1309C77.7099 16.8369 77.6523 16.9137 77.4028 16.1844C77.2877 15.8581 76.8655 14.8218 76.4816 13.8814C75.7907 12.1925 75.7523 12.1541 75.0806 12.0965L74.3705 12.0389L73.4877 14.15C73.0079 15.3208 72.6049 16.3571 72.6049 16.4723C72.6049 17.0864 72.2018 16.3955 71.3766 14.3612L70.4554 12.0581H68.5554C66.4827 12.0581 66.521 12.0773 66.8473 10.8682C67.0968 10.0238 67.4998 9.75511 68.5554 9.75511H69.3422V8.91066C69.3422 8.1238 69.3039 8.06622 68.7473 7.95107C67.8453 7.77834 67.2119 7.81673 66.5594 8.10461Z"
    fill="#777682" />
  <path
    d="M102.583 8.14301C101.201 8.50766 100.529 8.8915 99.5887 9.81271C96.3837 13.0369 97.5928 18.5834 101.834 20.0612C103.37 20.5985 106.325 20.5218 107.822 19.9076L108.974 19.447L109.031 18.3339C109.07 17.739 109.05 17.24 109.012 17.24C108.954 17.24 108.417 17.4703 107.803 17.739C106.498 18.3339 104.406 18.545 103.216 18.2188C99.7806 17.2975 99.1665 12.5188 102.237 10.6188C103.12 10.0814 103.331 10.043 104.924 10.043C106.421 10.043 106.824 10.1198 107.784 10.5612L108.878 11.0794V9.96624C108.878 8.69958 108.782 8.60362 106.69 8.12382C105.231 7.77837 103.907 7.77837 102.583 8.14301Z"
    fill="#777682" />
  <path
    d="M42.0898 14.1693V20.3107H45.1221C46.7726 20.3107 48.4615 20.2147 48.8453 20.1188C51.7817 19.2935 52.2231 15.4167 49.517 14.0925L48.5958 13.6127L49.1524 13.3248C49.8049 12.9794 50.3423 11.9814 50.3423 11.0602C50.3423 10.0238 49.7473 9.14099 48.615 8.54604C47.6554 8.04706 47.4827 8.02786 44.8534 8.02786H42.0898V14.1693ZM47.3867 10.3885C48.0777 10.9834 48.0968 11.9046 47.4251 12.5763C47.0221 12.9602 46.6958 13.0753 45.6595 13.1521L44.3928 13.2672V11.5976V9.94705H45.6211C46.6575 9.94705 46.9645 10.0238 47.3867 10.3885ZM47.713 15.1864C48.0585 15.34 48.4423 15.5895 48.5958 15.7622C48.9413 16.2036 48.9029 17.3743 48.5191 17.8157C48.116 18.2571 46.8302 18.5834 45.4676 18.5834H44.3928V16.7602V14.9369H45.7362C46.4847 14.9369 47.3676 15.0521 47.713 15.1864Z"
    fill="#777682" />
  <path
    d="M88.5342 10.139V12.2501L88.016 12.1157C84.3119 11.1369 81.3564 14.8218 83.122 18.2188C83.5443 19.044 83.8513 19.3511 84.6766 19.7733C85.6554 20.2915 85.8281 20.3107 88.2655 20.3107H90.8372V14.1693V8.02786H89.6857H88.5342V10.139ZM88.1119 13.7087C88.515 13.8238 88.5342 13.9006 88.5342 16.2996V18.7753H88.016C86.9028 18.7561 85.9433 18.4107 85.4251 17.8157C84.9645 17.3167 84.8877 17.0672 84.8877 16.1076C84.8877 14.4763 85.6362 13.6319 87.0948 13.6127C87.421 13.5935 87.8624 13.6511 88.1119 13.7087Z"
    fill="#777682" />
  <path d="M149.756 14.1693V20.3107H150.812H151.867V14.1693V8.02786H150.812H149.756V14.1693Z" fill="#777682" />
  <path
    d="M53.9888 8.35412C52.7797 8.79553 53.106 10.7147 54.3918 10.7147C55.2746 10.7147 55.8312 9.90866 55.5241 9.08341C55.3898 8.71877 54.5645 8.12382 54.315 8.23897C54.2959 8.23897 54.1423 8.29654 53.9888 8.35412Z"
    fill="#777682" />
  <path
    d="M130.372 8.46932C129.778 8.77639 129.605 9.9279 130.085 10.4077C130.795 11.1178 132.1 10.5612 132.1 9.54406C132.1 8.96831 131.927 8.71881 131.39 8.43093C130.891 8.18144 130.967 8.18144 130.372 8.46932Z"
    fill="#777682" />
  <path
    d="M58.2685 11.6551C57.3857 12.5955 56.6756 13.44 56.6756 13.5743C56.6756 13.6895 56.9635 13.7854 57.3473 13.7854H58.019V16.1844C58.019 18.8137 58.1918 19.4278 59.0746 20.0036C59.7847 20.4642 61.3968 20.5986 62.3372 20.2531C63.0473 20.0036 63.1049 19.9268 63.1625 19.1592C63.22 18.3915 63.2008 18.3531 62.7786 18.4683C61.5503 18.8329 60.9362 18.8137 60.5332 18.4107C60.1685 18.046 60.1301 17.7965 60.1301 15.8965V13.8046L61.5311 13.7471L62.913 13.6895V12.9218V12.1541L61.5311 12.0965L60.1301 12.039V11.0026C60.1301 10.4269 60.0726 9.94706 59.9958 9.96625C59.8998 9.98544 59.1322 10.7339 58.2685 11.6551Z"
    fill="#777682" />
  <path
    d="M134.921 11.6552C134 12.634 133.29 13.5168 133.347 13.6128C133.424 13.7087 133.712 13.7855 134.038 13.7855H134.595V16.031C134.595 17.8158 134.671 18.4299 134.94 18.9481C135.612 20.2724 136.974 20.7522 138.798 20.3108L139.776 20.0805V19.14V18.1805L139.201 18.4875C138.606 18.7946 137.704 18.8714 137.358 18.6219C136.879 18.3148 136.706 17.5471 136.706 15.7239V13.7855H138.145H139.585V12.9219V12.0582H138.145H136.725L136.667 10.9643L136.61 9.88956L134.921 11.6552Z"
    fill="#777682" />
  <path
    d="M112.85 12.0582C112.447 12.1733 111.872 12.3844 111.564 12.538C111.046 12.8067 110.989 12.9218 110.989 13.7855V14.745L111.776 14.2269C112.793 13.5551 114.501 13.4592 114.942 14.0733C115.499 14.8218 115.211 15.1865 113.772 15.6279C111.948 16.1844 111.238 16.5683 110.893 17.24C110.432 18.142 110.528 19.0632 111.161 19.7733C111.68 20.3491 111.814 20.4067 112.85 20.3875C113.503 20.3875 114.213 20.2531 114.578 20.0612C115.173 19.7349 115.211 19.7349 115.595 20.1188C116.055 20.5794 116.861 20.6178 117.898 20.1955C118.589 19.9269 118.665 19.8117 118.665 19.2359C118.665 18.6218 118.627 18.5834 118.262 18.7753C117.418 19.2359 117.322 18.9673 117.322 16.2996C117.322 14.7642 117.226 13.6127 117.092 13.3057C116.65 12.3077 114.443 11.6743 112.85 12.0582ZM115.211 17.4319C115.211 18.5067 115.173 18.5834 114.616 18.8905C113.867 19.2551 113.157 19.1016 112.889 18.5067C112.582 17.8541 112.927 17.3551 114.098 16.7794C114.635 16.5107 115.115 16.2804 115.153 16.2804C115.192 16.2804 115.211 16.7986 115.211 17.4319Z"
    fill="#777682" />
  <path
    d="M122.888 12.1926C122.293 12.3845 122.024 12.4229 121.966 12.2693C121.928 12.1542 121.448 12.0582 120.853 12.0582H119.817V18.2956V24.533H120.872H121.928V22.3067C121.928 20.0804 121.928 20.0804 122.369 20.1956C124.615 20.8865 126.572 20.1764 127.513 18.334C127.82 17.7582 127.916 17.2017 127.916 16.1653C127.897 13.8815 126.899 12.4805 124.999 12.0774C123.828 11.8279 123.943 11.8087 122.888 12.1926ZM124.788 13.9007C125.766 14.5916 126.073 16.6259 125.383 17.7774C124.826 18.6986 123.847 19.0633 122.811 18.737L122.024 18.4875L121.966 16.3572L121.909 14.2461L122.542 13.939C123.367 13.5168 124.231 13.5168 124.788 13.9007Z"
    fill="#777682" />
  <path
    d="M142.886 12.0774C142.425 12.1541 141.772 12.4036 141.446 12.5956C140.909 12.9026 140.832 13.0562 140.774 13.843C140.736 14.342 140.755 14.745 140.832 14.745C140.89 14.745 141.293 14.5147 141.734 14.2077C143.231 13.2289 145.285 13.6127 145.112 14.8218C145.073 15.1097 144.709 15.3016 143.711 15.6087C141.888 16.1652 141.178 16.5683 140.832 17.24C140.371 18.142 140.467 19.0632 141.101 19.7733C141.6 20.3299 141.772 20.4067 142.694 20.4067C143.289 20.4067 143.98 20.2723 144.363 20.0612C144.997 19.7349 145.035 19.7349 145.438 20.1188C145.937 20.5794 146.782 20.6178 147.837 20.1955C148.528 19.9269 148.605 19.8117 148.605 19.2359C148.605 18.6218 148.566 18.5834 148.202 18.7753C147.396 19.2168 147.3 18.9673 147.223 16.1269C147.165 13.7663 147.127 13.3824 146.782 13.0178C145.975 12.1349 144.44 11.7511 142.886 12.0774ZM145.15 17.4319C145.15 18.5067 145.112 18.5834 144.574 18.8713C143.826 19.2551 143.365 19.2359 142.943 18.7753C142.367 18.142 142.732 17.4319 143.98 16.7986C144.555 16.5107 145.054 16.2804 145.093 16.2804C145.131 16.2804 145.15 16.7986 145.15 17.4319Z"
    fill="#777682" />
  <path
    d="M53.413 12.1349C53.3555 12.1733 53.3363 14.0349 53.3746 16.2612L53.4322 20.3107H54.4878H55.5241L55.4858 16.2228L55.4282 12.1541L54.4686 12.0965C53.9312 12.0582 53.4514 12.0773 53.413 12.1349Z"
    fill="#777682" />
  <path d="M129.797 16.1844V20.3107H130.852H131.908V16.1844V12.0582H130.852H129.797V16.1844Z" fill="#777682" />
  <path
    d="M5.66359 42.3814C5.74036 50.3652 5.47167 49.7703 8.75349 49.7703C11.805 49.7703 12.3232 49.3672 12.6111 46.6804C12.7262 45.548 12.7262 45.4905 12.2656 45.3753C12.0161 45.3177 11.6707 45.2026 11.5171 45.145C11.2868 45.0683 11.1909 45.2026 11.1141 45.7208C11.0565 46.1046 10.9606 46.7188 10.903 47.0834C10.7303 48.1006 10.3848 48.3309 9.00298 48.3309C8.33127 48.3309 7.71713 48.2349 7.58278 48.1006C7.42925 47.947 7.35248 47.141 7.35248 45.7208V43.5713L8.94541 42.3046C9.80904 41.6329 10.9989 40.6349 11.5747 40.0976L12.6302 39.138L12.0161 38.5238L11.402 37.9097L9.54035 39.6561C8.50399 40.6349 7.60197 41.4218 7.50601 41.4218C7.42925 41.4218 7.35248 40.1743 7.35248 38.639V35.8561H6.48884H5.60602L5.66359 42.3814Z"
    fill="#777682" />
  <path
    d="M16.1807 37.4875C16.1807 39.042 16.1616 39.1188 15.7585 39.1188C15.3555 39.1188 15.3171 39.0229 15.3171 38.2168C15.3171 37.4107 15.2595 37.2956 14.8949 37.238C14.5302 37.1804 14.4727 37.2956 14.3575 38.1016C14.2999 38.6006 14.1272 39.7138 13.9737 40.539C13.6666 42.1319 13.705 42.3047 14.3575 42.4198C14.6646 42.4582 14.7605 42.3047 14.9333 41.5178C15.1252 40.6734 15.202 40.5582 15.6626 40.5006L16.1807 40.4431V42.1511V43.8784L14.9525 44.1087L13.7242 44.339L13.8201 45.1259C13.8777 45.5673 13.9545 45.9511 13.9737 45.9895C13.9929 46.0087 14.3767 45.8935 14.8373 45.74C16.1999 45.2602 16.1616 45.2026 16.2191 47.7935L16.2767 50.135L17.006 50.1541L17.7161 50.1733V47.5441V44.8956L18.3878 44.7612C19.0211 44.6461 19.0595 44.6077 19.0595 43.8784V43.1107L18.3878 43.2259L17.6969 43.3602L17.7545 41.9592L17.8121 40.5582L18.4454 40.5006C19.002 40.4431 19.0595 40.3855 19.0595 39.7713C19.0595 39.1572 19.0211 39.1188 18.3878 39.1188H17.7161V37.4875V35.8562H16.9484H16.1807V37.4875Z"
    fill="#777682" />
  <path
    d="M22.8979 36.8157V37.7753H21.3626H19.8272V38.447V39.1188H21.3626H22.8979V39.9824V40.846H21.0747H19.2515V41.5177V42.1895H23.6656H28.0797V41.5177V40.846H26.2565H24.4333V39.9824V39.1188H25.9686H27.504V38.447V37.7753H25.9686H24.4333V36.8157V35.8561H23.6656H22.8979V36.8157Z"
    fill="#777682" />
  <path
    d="M35.3726 37.0076V38.1591H32.6857H29.9989V38.9268V39.6945H32.6857H35.3726V40.75C35.3726 41.4601 35.2958 41.8056 35.1423 41.8248C35.008 41.844 33.6453 41.8632 32.11 41.8824C30.5746 41.8824 29.308 41.9591 29.2888 42.0359C29.2504 42.1318 29.2312 42.4389 29.2312 42.7652V43.3409H31.9181C33.3958 43.3409 34.6049 43.4177 34.6049 43.4945C34.6049 43.8975 32.0524 46.1621 30.6322 47.0258L29.0585 48.0046L29.4423 48.5419C29.6534 48.849 29.9029 49.1369 29.9797 49.1945C30.4787 49.5015 35.0655 45.6632 35.2191 44.8187C35.2383 44.6844 35.315 45.8359 35.3726 47.3712L35.4686 50.1541H36.2362H37.0039L37.0615 47.4096L37.1191 44.6652L37.8675 45.6248C38.6736 46.6227 40.017 47.7167 41.5524 48.5995L42.4352 49.1177L42.9726 48.4268C43.2605 48.0621 43.4524 47.7167 43.414 47.6783C43.3756 47.6399 42.7039 47.2945 41.9362 46.8914C40.6504 46.2197 37.8675 43.9167 37.8675 43.5137C37.8675 43.4177 39.0766 43.3409 40.5544 43.3409H43.2413V42.5925V41.844H40.2282L37.1958 41.8632L37.1383 40.7692L37.0807 39.6945H39.7867H42.4736V38.9268V38.1591H39.7867H37.0999V37.0076V35.8561H36.2362H35.3726V37.0076Z"
    fill="#777682" />
  <path
    d="M50.918 36.8158V37.7754H48.1352H45.3524V38.4471V39.1188H48.1352H50.918V40.9421V42.7653H47.7514H44.5847V43.437V44.1087H47.2716C48.8837 44.1087 49.9584 44.1855 49.9584 44.3006C49.9584 44.6461 47.5595 46.4117 45.9857 47.1794L44.412 47.9663L44.815 48.638C45.0261 49.0026 45.2372 49.2905 45.2948 49.2905C45.3524 49.2905 45.9857 48.9835 46.6958 48.5996C48.0393 47.9087 50.5342 45.9703 50.5342 45.6441C50.5342 45.5289 50.6302 45.4522 50.7261 45.4522C50.8413 45.4522 50.918 46.3734 50.918 47.8511V50.2501L51.6857 50.1925L52.4534 50.1542V47.7552L52.4726 45.3562L52.8948 45.8552C53.6241 46.6804 54.9867 47.6976 56.3877 48.4077C57.1362 48.7915 57.7887 49.0986 57.8655 49.0986C57.9998 49.0986 58.8635 47.7552 58.7675 47.6784C58.7291 47.6592 58.1342 47.4097 57.4433 47.1218C56.7524 46.834 55.8504 46.3542 55.4089 46.0663C54.5453 45.4905 53.2211 44.3774 53.2211 44.2047C53.2211 44.1471 54.4302 44.1087 55.9079 44.1087H58.5948V43.437V42.7653H55.5241H52.4534V40.9421V39.1188H55.1403H57.8271V38.4471V37.7754H55.1403H52.4534V36.8158V35.8562H51.6857H50.918V36.8158Z"
    fill="#777682" />
  <path
    d="M95.7695 35.9905C95.6927 36.0481 95.6352 36.8734 95.6352 37.8138V39.5026H94.8675H94.0998V40.2703V41.038H94.8675H95.6352V43.6097V46.1622L94.7715 46.4117L93.9079 46.6612L94.023 47.4481C94.0998 47.8703 94.1766 48.2541 94.1958 48.2925C94.215 48.3117 95.2897 47.9855 96.5756 47.544L98.8978 46.7572V45.9895C98.8978 45.1643 98.9937 45.1834 97.6119 45.5673C97.1705 45.6824 97.1705 45.6824 97.1705 43.3602V41.038H97.919C98.7251 41.038 98.8978 40.8077 98.7443 39.9249C98.6675 39.5794 98.5331 39.5026 97.919 39.5026H97.1705V37.6794V35.8562H96.5372C96.1725 35.8562 95.8271 35.9138 95.7695 35.9905Z"
    fill="#777682" />
  <path
    d="M119.241 36.0672C119.241 36.2208 119.145 36.6622 119.03 37.046C118.838 37.7561 118.819 37.7753 117.974 37.7753C117.111 37.7753 117.111 37.7753 117.168 38.3895C117.207 38.9268 117.322 39.042 117.763 39.0804C118.377 39.1571 118.397 39.3682 117.898 40.5581C117.687 41.0571 117.514 41.844 117.514 42.3046V43.149H118.761H120.009V44.0127V44.8763H118.569H117.13V45.548V46.2198H118.569H120.009V47.0834V47.947H120.776H121.544V47.0834V46.2198H122.6H123.655V45.548V44.8763H122.6H121.544V44.0127V43.149H122.408C123.252 43.149 123.271 43.149 123.271 42.4965C123.271 41.8632 123.271 41.8632 122.408 41.9016L121.544 41.9592V40.8268V39.6945H120.872H120.201V40.8268V41.9592L119.625 41.9016C119.299 41.8824 118.992 41.8248 118.972 41.7864C118.934 41.748 119.107 41.1339 119.375 40.4046L119.855 39.1188H121.659H123.463V38.447V37.7753H121.928C121.084 37.7753 120.393 37.6986 120.393 37.6026C120.393 37.5258 120.489 37.1804 120.604 36.8349C120.719 36.4895 120.796 36.1824 120.757 36.144C120.719 36.1056 120.354 36.0289 119.97 35.9521C119.414 35.8369 119.241 35.8753 119.241 36.0672Z"
    fill="#777682" />
  <path
    d="M130.545 36.6622C130.315 37.1228 129.835 37.8521 129.49 38.2935C129.125 38.735 128.837 39.1188 128.837 39.1572C128.837 39.1956 129.087 39.4259 129.413 39.6562L129.969 40.0784L130.699 39.1188C131.37 38.2168 131.466 38.1592 132.253 38.1592C133.079 38.1592 133.098 38.1784 132.963 38.6774C132.714 39.7329 131.447 40.7117 129.662 41.2299C129.202 41.3643 128.837 41.5178 128.837 41.5562C128.837 41.7097 129.432 42.7653 129.509 42.7653C129.547 42.7653 130.085 42.5733 130.699 42.343C131.946 41.8824 132.983 41.2683 133.501 40.7117C133.827 40.3471 133.846 40.3471 134.595 41.0572C134.998 41.441 135.823 41.94 136.399 42.1703C138.222 42.842 138.299 42.8612 138.702 42.1895C138.894 41.8632 139.009 41.5562 138.97 41.537C138.951 41.4986 138.433 41.3259 137.857 41.1339C137.282 40.942 136.571 40.6733 136.303 40.539C135.535 40.1552 134.595 39.0804 134.595 38.6006C134.595 38.1976 134.671 38.1592 135.746 38.1592H136.917L136.61 38.735C136.456 39.042 136.322 39.3299 136.322 39.3875C136.322 39.4643 137.435 39.8865 137.665 39.8865C137.896 39.8865 138.625 38.0441 138.625 37.5067V37.0077H135.343C132.791 37.0077 132.081 36.9501 132.157 36.7582C132.541 35.8178 132.56 35.8562 131.735 35.8562C131.006 35.8562 130.929 35.9138 130.545 36.6622Z"
    fill="#777682" />
  <path
    d="M146.494 37.0077V38.1592H143.519H140.544V38.9269V39.6946H143.154H145.764L145.208 40.635C144.056 42.6309 141.696 45.1643 140.256 45.9895C139.988 46.1239 140.007 46.239 140.41 46.9683L140.87 47.7744L141.926 46.9107C143.385 45.7208 144.766 44.1471 145.63 42.6693C146.033 41.9784 146.378 41.4218 146.417 41.4218C146.455 41.4218 146.494 42.4966 146.494 43.8208V46.2198H144.958H143.423V46.8915V47.5632H144.958H146.494V48.8683V50.1733L147.127 50.135C147.453 50.1158 147.799 50.0966 147.895 50.0774C147.971 50.0774 148.029 49.5016 148.029 48.8107V47.5632H149.564H151.1V46.8915V46.2198H149.564H148.029V43.8208C148.029 42.4966 148.067 41.4218 148.106 41.4218C148.144 41.4218 148.432 41.8824 148.758 42.4198C149.603 43.936 150.927 45.4713 152.347 46.6036C153.038 47.1602 153.633 47.5824 153.652 47.5441C153.691 47.5057 153.863 47.1218 154.055 46.6996C154.382 45.9703 154.382 45.9319 154.036 45.7016C151.983 44.243 150.025 42.1319 149.161 40.4239L148.797 39.6946H151.388H153.978V38.9269V38.1592H151.004H148.029V37.0077V35.8562H147.261H146.494V37.0077Z"
    fill="#777682" />
  <path
    d="M-0.573787 36.1822C-0.650555 36.2397 -0.70813 38.9458 -0.70813 42.1892C-0.70813 46.2963 -0.765706 48.1195 -0.919241 48.273C-1.09197 48.4458 -1.03439 48.6761 -0.70813 49.1751C-0.477828 49.5589 -0.266717 49.866 -0.228333 49.866C-0.209142 49.866 0.462574 49.5781 1.23025 49.2326C2.01712 48.868 3.11105 48.4266 3.66762 48.2538C4.58883 47.9468 4.6656 47.87 4.6656 47.3134C4.6656 46.2195 4.47368 46.1427 3.11105 46.7569C0.808028 47.7932 1.01914 48.0044 1.01914 44.7993V42.0165L2.80398 41.9589L4.56964 41.9013L4.62721 41.172L4.68479 40.4619H2.86156H1.01914V38.2549V36.0478H0.289847C-0.113182 36.0478 -0.516212 36.1054 -0.573787 36.1822Z"
    fill="#777682" />
  <path
    d="M101.777 37.1995V38.3511H100.529H99.2816V39.0228V39.6945H100.529H101.796L101.738 41.2682L101.681 42.8611L100.107 42.9187L98.514 42.9763V43.7248V44.4925H100.049H101.585L101.297 45.2026C100.855 46.2389 100.107 47.1409 99.1281 47.8318C98.6675 48.1581 98.1493 48.5228 97.9766 48.6379C97.7079 48.8298 97.7271 48.9258 98.1109 49.4632C98.3412 49.7894 98.6675 50.0581 98.821 50.0581C99.2624 50.0581 101.93 47.3904 102.295 46.5844C102.467 46.1813 102.659 45.8359 102.736 45.8359C102.794 45.8359 103.005 46.143 103.197 46.5076C103.696 47.448 105.174 48.7722 106.344 49.3672C106.882 49.6359 107.361 49.8662 107.419 49.8662C107.496 49.8662 108.302 48.5611 108.302 48.446C108.302 48.4076 108.091 48.3116 107.841 48.2541C106.978 48.043 105.078 46.5844 104.483 45.7015C104.156 45.2026 103.888 44.742 103.888 44.646C103.888 44.5692 104.886 44.4925 106.095 44.4925H108.302V43.7248C108.302 42.9955 108.263 42.9571 107.726 42.9571H107.15V40.6541V38.3702L105.289 38.3127L103.408 38.2551L103.35 37.142L103.293 36.048H102.544H101.777V37.1995ZM105.577 41.3642L105.634 42.9571H104.463H103.312V41.4601C103.312 40.6349 103.37 39.8864 103.446 39.8096C103.523 39.7329 104.022 39.6945 104.559 39.7329L105.519 39.7904L105.577 41.3642Z"
    fill="#777682" />
  <path
    d="M110.547 37.2187C110.355 37.852 109.991 38.8308 109.722 39.3682L109.261 40.3662L109.684 41.1722C110.01 41.7672 110.24 41.9975 110.547 41.9975C110.95 41.9975 110.989 42.0934 110.989 42.8611V43.7248H110.259C109.357 43.7248 109.3 43.7631 109.415 44.4732C109.492 44.9722 109.588 45.049 110.202 45.1066L110.893 45.1641L110.95 46.4692C110.989 47.3136 110.912 47.9662 110.739 48.3116C110.49 48.7914 110.509 48.8874 110.893 49.3672L111.334 49.9045L112.332 49.1177C112.869 48.6763 113.464 48.254 113.618 48.1773C113.829 48.0429 113.867 47.8318 113.771 47.3136L113.637 46.6227L112.985 47.1025L112.332 47.6015V46.3349V45.0682H113.1C113.848 45.0682 113.867 45.049 113.867 44.3965C113.867 43.7439 113.848 43.7248 113.1 43.7248H112.332V42.8611C112.332 42.0359 112.351 41.9975 112.908 41.9975C113.445 41.9975 113.484 41.9399 113.484 41.3258V40.6541H112.14C111.411 40.6541 110.797 40.5773 110.797 40.4621C110.797 40.3662 110.893 40.0591 111.027 39.7904C111.219 39.349 111.334 39.3106 112.562 39.3106H113.867V38.6389V37.9672H112.889H111.91L112.025 37.2763C112.102 36.9116 112.217 36.4702 112.274 36.3167C112.351 36.1056 112.198 36.048 111.641 36.048C110.893 36.048 110.893 36.048 110.547 37.2187Z"
    fill="#777682" />
  <path
    d="M114.865 36.2208C114.328 36.3551 114.309 36.3935 114.827 38.14C115.249 39.541 115.249 39.541 115.844 39.4258C116.17 39.3683 116.478 39.2531 116.535 39.2147C116.669 39.0612 115.71 36.1824 115.499 36.1248C115.384 36.1056 115.115 36.144 114.865 36.2208Z"
    fill="#777682" />
  <path
    d="M125.709 36.5471L125.171 37.0077L125.862 37.6026C127.455 39.0037 127.379 38.9845 127.973 38.3511C128.588 37.6986 128.703 37.8905 127.014 36.6431L126.246 36.0865L125.709 36.5471Z"
    fill="#777682" />
  <path
    d="M79.7059 43.0532V49.2905H86.1352H92.5645V48.6188V47.9471H86.9988H81.4332L81.414 47.5057C81.3564 46.0471 81.4524 38.4663 81.5292 38.3895C81.5675 38.332 83.8898 38.3128 86.6534 38.332C89.4362 38.3512 91.8544 38.3128 92.0463 38.236C92.2574 38.1592 92.3726 37.9097 92.3726 37.4683V36.8158H86.0393H79.7059V43.0532Z"
    fill="#777682" />
  <path
    d="M89.0139 39.5602C88.7069 40.0016 88.1119 40.7309 87.7089 41.1723L86.9604 41.9976L85.3291 40.4814L83.6786 38.9461L83.1412 39.3683C82.8342 39.5794 82.5847 39.8289 82.5847 39.9057C82.5847 39.9633 83.2948 40.7309 84.1584 41.5754L85.7513 43.1299L85.2715 43.6289C84.9069 44.0319 83.3907 45.2794 82.22 46.1622C82.1624 46.2006 82.3927 46.5077 82.719 46.834L83.3331 47.4289L84.2544 46.6804C84.7533 46.2774 85.5978 45.5481 86.0968 45.0875L87.018 44.2239L88.6301 45.836L90.2614 47.4673L90.8948 46.834L91.5089 46.1814L89.8392 44.6077L88.1503 43.0148L88.5725 42.6501C88.9948 42.2663 91.0291 39.7713 91.0291 39.637C91.0291 39.5602 89.724 38.735 89.6281 38.735C89.6089 38.735 89.3402 39.0996 89.0139 39.5602Z"
    fill="#777682" />
  <path
    d="M126.304 40.5198L124.653 41.7289L125.075 42.2471C125.306 42.535 125.555 42.7653 125.632 42.7653C125.824 42.7653 128.837 40.443 128.837 40.2895C128.818 40.1552 128.146 39.3107 128.031 39.3107C127.993 39.3107 127.225 39.8481 126.304 40.5198Z"
    fill="#777682" />
  <path
    d="M46.8494 39.9056L46.3312 40.2894L47.214 41.3834C47.713 41.9783 48.1544 42.4773 48.212 42.4773C48.2887 42.4773 48.5766 42.2854 48.8837 42.0551C49.3635 41.6712 49.4019 41.5753 49.1716 41.2874C48.7494 40.7116 47.5786 39.5026 47.4635 39.5026C47.4059 39.5026 47.1372 39.6945 46.8494 39.9056Z"
    fill="#777682" />
  <path
    d="M54.7565 40.5582L53.7201 41.6138L54.2383 42.132L54.7565 42.6501L55.812 41.6138C56.3878 41.038 56.8676 40.4623 56.8676 40.3471C56.8676 40.1552 56.0807 39.5027 55.8696 39.5027C55.8312 39.5027 55.3322 39.9825 54.7565 40.5582Z"
    fill="#777682" />
  <path
    d="M114.059 41.7096C114.059 42.3046 114.117 42.3814 114.539 42.3814H115.019V44.742V47.1026L114.175 47.9278L113.311 48.7722L113.733 49.3672C113.963 49.6935 114.175 50.0005 114.213 50.0581C114.251 50.1157 114.366 50.0005 114.482 49.7894C114.597 49.5975 114.904 49.1753 115.192 48.849L115.729 48.2733L116.151 48.6955C116.977 49.5207 117.706 49.6743 120.777 49.6743C123.483 49.6743 123.655 49.6551 123.655 49.3096C123.655 49.0985 123.713 48.8106 123.77 48.6379C123.866 48.3692 123.559 48.3308 121.084 48.3308C118.032 48.3308 117.514 48.1965 116.765 47.2561C116.401 46.7955 116.362 46.4884 116.362 43.8975V41.0379H115.211H114.059V41.7096Z"
    fill="#777682" />
  <path
    d="M64.6787 42.4966C64.6019 42.5733 64.5443 42.8804 64.5443 43.1875V43.7249H68.7857H73.0079L72.9504 43.0915L72.8928 42.4774L68.8433 42.4198C66.6362 42.4006 64.7554 42.439 64.6787 42.4966Z"
    fill="#777682" />
  <path
    d="M24.8171 43.1489V43.7247H22.1302H19.4434V44.3964V45.0681H22.1302H24.8171V46.5651C24.8171 47.4671 24.7211 48.158 24.5868 48.2924C24.4524 48.4267 23.8575 48.5227 23.2434 48.5227H22.111L22.2454 49.2328C22.3221 49.6358 22.3989 50.0004 22.4373 50.0196C22.4565 50.058 23.1474 50.0388 23.9726 49.9621C26.1605 49.7509 26.3524 49.5014 26.3524 46.9873V45.0681H27.2161C28.0797 45.0681 28.0797 45.0681 28.0797 44.3964C28.0797 43.7247 28.0797 43.7247 27.2161 43.7247C26.3908 43.7247 26.3524 43.7055 26.3524 43.1489C26.3524 42.6116 26.3141 42.5732 25.5848 42.5732C24.8555 42.5732 24.8171 42.6116 24.8171 43.1489Z"
    fill="#777682" />
  <path
    d="M126.668 43.0915C126.592 43.1491 126.534 44.1471 126.534 45.2986V47.3713H127.302H128.069L128.108 46.0663C128.108 45.3562 128.127 44.6653 128.127 44.5309C128.108 44.3582 128.971 44.3006 131.831 44.3006H135.554V45.836V47.3713H136.322H137.09V45.1643V42.9572H131.946C129.106 42.9572 126.726 43.0148 126.668 43.0915Z"
    fill="#777682" />
  <path
    d="M131.063 45.7399C130.814 47.3137 129.528 48.0813 126.457 48.5036C125.747 48.6187 125.114 48.7147 125.075 48.7722C125.037 48.8106 125.114 49.1177 125.229 49.444C125.517 50.1733 125.67 50.1924 127.801 49.6743C129.528 49.2712 130.142 49.0217 131.14 48.3884L131.812 47.947L132.963 48.3116C133.597 48.5036 134.959 48.9834 136.015 49.3672C137.051 49.751 137.934 50.0581 137.972 50.0581C138.011 50.0581 138.184 49.7894 138.337 49.4823C138.644 48.8874 138.587 48.5228 138.203 48.5228C138.088 48.5228 136.763 48.1197 135.247 47.6399L132.464 46.7763L132.599 45.8167L132.733 44.8763H131.946C131.198 44.8763 131.178 44.8763 131.063 45.7399Z"
    fill="#777682" />
  <path
    d="M20.2686 45.855C19.904 46.2389 19.8848 46.2773 20.1918 46.5843C20.3646 46.7571 20.7484 47.1985 21.0363 47.5631C21.5737 48.1965 21.5929 48.1965 22.0918 47.9086C22.3797 47.7359 22.6292 47.5055 22.6676 47.4096C22.7252 47.2369 21.0171 45.452 20.806 45.452C20.7292 45.452 20.4989 45.6247 20.2686 45.855Z"
    fill="#777682" />
</svg>