<svg width="162" height="27" viewBox="0 0 162 27" fill="none" xmlns="http://www.w3.org/2000/svg">
  <path
    d="M101.27 13.84C100.85 13.5179 100.385 13.2467 99.8736 13.0268C99.3618 12.8067 98.8532 12.6201 98.3466 12.4667C97.8402 12.3132 97.3772 12.1548 96.9579 11.9912C96.5385 11.8274 96.1957 11.6051 95.9298 11.3238C95.6639 11.0425 95.531 10.692 95.531 10.2725C95.531 9.79171 95.6818 9.4182 95.9836 9.15231C96.2852 8.88597 96.7072 8.75331 97.2494 8.75331C97.7917 8.75331 98.2213 8.91695 98.5384 9.24421C98.8556 9.57161 99.0141 10.0372 99.0141 10.6407H102.666C102.666 9.15765 102.162 7.95533 101.155 7.03478C100.147 6.11407 98.8456 5.65356 97.2494 5.65356C95.7865 5.65356 94.5795 6.08339 93.6279 6.94258C92.6769 7.80194 92.201 8.91176 92.201 10.2725C92.201 10.9069 92.2802 11.472 92.4391 11.9681C92.5974 12.4643 92.8097 12.8734 93.0759 13.1955C93.3416 13.5179 93.6459 13.7992 93.9888 14.0395C94.3314 14.28 94.692 14.4746 95.0706 14.6227C95.4491 14.7709 95.8275 14.9094 96.2059 15.0372C96.5846 15.1651 96.9452 15.2901 97.2879 15.4131C97.6305 15.5359 97.9349 15.6739 98.2008 15.827C98.4668 15.9805 98.6791 16.1777 98.8377 16.4182C98.9961 16.6586 99.0755 16.9425 99.0755 17.2699C99.0755 17.7812 98.9197 18.1778 98.6074 18.4588C98.2954 18.7403 97.8682 18.8808 97.3266 18.8808C96.7738 18.8808 96.3365 18.7145 96.0141 18.3823C95.6919 18.0499 95.531 17.5768 95.531 16.9628H91.9093C91.9093 18.4564 92.4159 19.6665 93.4285 20.5919C94.4414 21.5179 95.7408 21.9806 97.3266 21.9806C98.9118 21.9806 100.203 21.5457 101.201 20.6765C102.198 19.8067 102.697 18.6712 102.697 17.2699C102.697 16.4718 102.564 15.7815 102.298 15.1981C102.032 14.6151 101.689 14.1624 101.27 13.84Z"
    fill="#777682" />
  <path
    d="M79.2058 12.1092C79.4925 11.0863 80.0166 10.2858 80.7787 9.70764C81.5408 9.12944 82.4692 8.84072 83.5637 8.84072C84.648 8.84072 85.5717 9.12944 86.3337 9.70764C87.0957 10.2858 87.61 11.0863 87.8758 12.1092H79.2058ZM83.5637 5.64893C81.1802 5.64893 79.2238 6.41357 77.6945 7.94299C76.1651 9.47227 75.4001 11.4287 75.4001 13.8123C75.4001 16.2061 76.1625 18.165 77.6866 19.6894C79.2111 21.2138 81.1701 21.9759 83.5637 21.9759C85.3643 21.9759 86.9552 21.5513 88.3359 20.7022C89.7172 19.8531 90.6224 18.6972 91.0521 17.2343H87.0318C86.3362 18.2676 85.1802 18.7839 83.5637 18.7839C82.4078 18.7839 81.441 18.4671 80.6634 17.8327C79.8861 17.1984 79.3695 16.3188 79.1139 15.1935H91.6197C91.7015 14.6002 91.7428 14.1397 91.7428 13.8123C91.7428 11.4287 90.975 9.47227 89.4407 7.94299C87.9064 6.41357 85.9475 5.64893 83.5637 5.64893Z"
    fill="#777682" />
  <path
    d="M108.203 2.39819H104.628V5.95607H102.894V9.28615H104.628V16.1145C104.628 19.8177 106.49 21.6691 110.214 21.6691H113.052V18.3393H110.474C108.96 18.3393 108.203 17.5978 108.203 16.1145V9.28615H113.052V5.95607H108.203V2.39819Z"
    fill="#777682" />
  <path d="M75.6794 5.95923L70.9071 8.03082V5.95923H67.2703V21.6723H70.9071V11.6523L75.6794 9.70327V5.95923Z"
    fill="#777682" />
  <path
    d="M124.739 17.3265C123.911 18.2063 122.817 18.6458 121.456 18.6458C120.075 18.6458 118.965 18.2035 118.126 17.3186C117.287 16.4339 116.868 15.2652 116.868 13.8126C116.868 12.3598 117.287 11.1911 118.126 10.3063C118.965 9.42143 120.075 8.97872 121.456 8.97872C122.817 8.97872 123.911 9.41905 124.739 10.2986C125.568 11.1784 125.982 12.3498 125.982 13.8126C125.982 15.2752 125.568 16.4466 124.739 17.3265ZM121.456 5.64893C119.072 5.64893 117.116 6.41372 115.586 7.94344C114.057 9.47241 113.292 11.429 113.292 13.8126C113.292 16.2062 114.054 18.165 115.579 19.6894C117.103 21.2138 119.062 21.9759 121.456 21.9759C123.849 21.9759 125.811 21.2138 127.34 19.6894C128.869 18.165 129.634 16.2062 129.634 13.8126C129.634 11.429 128.867 9.47241 127.333 7.94344C125.798 6.41372 123.84 5.64893 121.456 5.64893Z"
    fill="#777682" />
  <path
    d="M54.5364 10.3061C55.3754 9.42099 56.485 8.97872 57.8661 8.97872C59.2267 8.97872 60.3214 9.41846 61.15 10.2984C61.9785 11.1779 62.3932 12.3494 62.3932 13.8123C62.3932 15.2753 61.9785 16.4464 61.15 17.3263C60.3214 18.2058 59.2267 18.6458 57.8661 18.6458C56.485 18.6458 55.3754 18.2037 54.5364 17.3187C53.6976 16.4339 53.278 15.2651 53.278 13.8123C53.278 12.3595 53.6976 11.191 54.5364 10.3061ZM51.9891 19.6894C53.5136 21.2135 55.4724 21.9759 57.8661 21.9759C59.6768 21.9759 61.1859 21.4337 62.3932 20.3493V21.6687H66.045V5.95588H62.3932V7.27544C61.1448 6.19109 59.6359 5.64893 57.8661 5.64893C55.4826 5.64893 53.5261 6.41342 51.9967 7.94314C50.4673 9.47241 49.7028 11.4287 49.7028 13.8123C49.7028 16.2061 50.465 18.165 51.9891 19.6894Z"
    fill="#777682" />
  <path
    d="M137.817 5.64893C136.283 5.64893 135.015 6.15019 134.012 7.15271V5.95588H130.375V21.6691H134.012V12.2471C134.012 11.2654 134.306 10.4748 134.894 9.87659C135.483 9.27811 136.277 8.97872 137.28 8.97872C138.241 8.97872 139.021 9.28048 139.62 9.884C140.219 10.4877 140.517 11.2756 140.517 12.2471V21.6691H144.139V12.2471C144.139 10.3138 143.548 8.73075 142.367 7.4982C141.185 6.26536 139.669 5.64893 137.817 5.64893Z"
    fill="#777682" />
  <path d="M45.2091 11.6521L49.9815 9.70356V5.95923L45.2091 8.03082V5.95923H41.5724V21.6723H45.2091V11.6521Z"
    fill="#777682" />
  <path
    d="M148.755 12.1092C149.042 11.0862 149.566 10.2857 150.328 9.70764C151.09 9.12944 152.02 8.84072 153.114 8.84072C154.197 8.84072 155.122 9.12944 155.883 9.70764C156.645 10.2857 157.16 11.0862 157.425 12.1092H148.755ZM161.292 13.8123C161.292 11.4287 160.525 9.47227 158.991 7.94284C157.456 6.41357 155.496 5.64893 153.114 5.64893C150.73 5.64893 148.773 6.41357 147.243 7.94284C145.714 9.47227 144.95 11.4287 144.95 13.8123C144.95 16.2061 145.712 18.165 147.236 19.6894C148.761 21.2138 150.719 21.9759 153.114 21.9759C154.913 21.9759 156.504 21.5514 157.886 20.7021C159.266 19.8531 160.172 18.6972 160.602 17.2343H156.581C155.885 18.2676 154.729 18.7838 153.114 18.7838C151.958 18.7838 150.991 18.4671 150.213 17.8327C149.435 17.1984 148.92 16.3187 148.664 15.1933H161.17C161.252 14.6002 161.292 14.1397 161.292 13.8123Z"
    fill="#777682" />
  <path d="M13.7953 20.2891H23.8117L28.8199 11.6145L23.8117 2.93994H13.7953L8.78708 11.6145L13.7953 20.2891Z"
    stroke="#777682" stroke-width="1.05665" />
  <path d="M20.0928 9.37646H17.5142L16.2251 11.6095L17.5142 13.8424H20.0928L21.3817 11.6095L20.0928 9.37646Z"
    stroke="#777682" stroke-width="1.05665" stroke-miterlimit="10" />
  <path
    d="M23.8118 2.93994L13.7953 20.2891M11.0401 15.5173L26.5668 7.71206M26.405 15.7975L11.2019 7.43164M18.8035 24.3001V2.93994M13.7953 2.93994L23.8118 20.2891"
    stroke="#777682" stroke-width="1.05665" stroke-miterlimit="10" />
  <path d="M18.8036 11.6084C11.3185 11.6084 3.83324 11.6084 3.83324 11.6084" stroke="#777682" stroke-width="1.05665"
    stroke-miterlimit="10" />
  <path d="M18.8039 11.6084C26.289 11.6084 33.7744 11.6084 33.7744 11.6084" stroke="#777682" stroke-width="1.05665"
    stroke-miterlimit="10" />
  <path
    d="M18.7442 24.6428L23.8492 20.3386L33.7741 11.6145L23.8117 2.93994H13.7952L3.83324 11.6145L14.8043 21.2837L18.7442 24.6428Z"
    stroke="#777682" stroke-width="1.05665" stroke-miterlimit="10" />
</svg>