<svg width="74" height="76" viewBox="0 0 74 76" fill="none" xmlns="http://www.w3.org/2000/svg">
  <path
    d="M30.5209 12.1232C24.245 22.9847 23.661 24.0057 23.6577 24.0706C23.6577 24.0876 24.4361 24.0978 25.3923 24.0978L27.1234 24.0945L32.1768 15.3397C34.9529 10.5252 37.2337 6.59168 37.2474 6.60193C37.2576 6.61217 39.5317 10.5491 42.3043 15.3499L47.3475 24.0808L49.0923 24.0911L50.8372 24.0978L50.7962 24.0057C50.7484 23.8998 37.2884 0.568486 37.2508 0.530926C37.2372 0.513854 34.2085 5.73123 30.5209 12.1232Z"
    fill="#777682" />
  <path
    d="M23.2822 24.7022C23.2822 24.7192 23.2549 24.7602 23.2207 24.7978C23.1662 24.8558 0.814697 63.549 0.814697 63.5866C0.814697 63.6105 20.1066 63.5968 20.2944 63.5729L20.4652 63.549L21.5442 62.0638L22.6232 60.5784L14.36 60.5681C6.51352 60.5614 6.10036 60.5579 6.11744 60.4999C6.12427 60.4692 10.4436 52.9743 15.7157 43.8473L25.2968 27.2527L36.4213 27.2357C42.5366 27.2255 47.5457 27.2186 47.5491 27.2186C47.5526 27.2186 47.3442 27.5123 47.0848 27.8674C37.589 40.9313 21.2028 63.5457 21.2164 63.5627C21.2301 63.5729 33.034 63.5866 47.4467 63.5934C71.8536 63.6003 73.6531 63.5968 73.6325 63.5457C73.6121 63.4944 51.7524 25.6138 51.3529 24.9412L51.1958 24.6748H37.2408C29.5614 24.6748 23.2822 24.6885 23.2822 24.7022ZM59.0663 44.3766C64.1812 53.2304 68.3708 60.4964 68.3776 60.517C68.3913 60.5511 64.1573 60.5614 47.2692 60.5614C28.2537 60.5614 26.1436 60.5546 26.164 60.5101C26.1743 60.4794 31.4633 53.1724 37.9202 44.2708L49.6525 28.0859L49.7139 28.1815C49.7447 28.2328 53.9548 35.5227 59.0663 44.3766Z"
    fill="#777682" />
  <path
    d="M72.0585 64.5635C72.0142 64.7 70.9352 70.9657 70.9215 71.1672C70.8943 71.6008 71.0717 71.9354 71.3825 72.0275C71.4712 72.0549 71.7718 72.0686 72.2224 72.0686C72.9258 72.0686 72.9293 72.0686 72.943 71.99C73.0249 71.5871 73.001 71.5563 72.5913 71.5563C72.2805 71.5563 72.0825 71.5154 72.0346 71.4471C72.0211 71.4232 72.0074 71.3413 72.0074 71.2661C72.0074 71.1911 72.2737 69.6681 72.6015 67.8857C73.141 64.9356 73.1888 64.6351 73.141 64.5805C73.0966 64.5292 73.0215 64.5225 72.581 64.5225C72.2054 64.5225 72.0688 64.5327 72.0585 64.5635Z"
    fill="#777682" />
  <path
    d="M29.8176 65.7186C29.5581 65.8483 29.4488 66.2035 29.582 66.4835C29.7391 66.8078 30.241 66.8591 30.5006 66.5722C30.5688 66.4971 30.6303 66.3981 30.6439 66.3503C30.6781 66.2103 30.6371 65.9577 30.5654 65.8586C30.4152 65.6538 30.0771 65.5923 29.8176 65.7186Z"
    fill="#777682" />
  <path
    d="M61.8798 65.7186C61.6203 65.8483 61.511 66.2035 61.6442 66.4835C61.8013 66.8078 62.3032 66.8591 62.5627 66.5722C62.631 66.4971 62.6925 66.3981 62.706 66.3503C62.7402 66.2103 62.6993 65.9577 62.6275 65.8586C62.4773 65.6538 62.1393 65.5923 61.8798 65.7186Z"
    fill="#777682" />
  <path
    d="M52.5888 66.8847C52.3294 66.9632 52.261 67.0827 51.0181 69.5582C49.6763 72.2386 49.7343 72.0714 50.1441 72.0714H50.3762L50.6596 71.508L50.9396 70.9446H51.9093H52.8791L52.8961 71.0196C52.9063 71.0641 52.9508 71.3167 52.9917 71.583L53.0702 72.0714H53.521C53.9103 72.0714 53.9751 72.0644 54.0264 72.0099C54.0776 71.9484 54.057 71.8016 53.7088 69.6367C53.3127 67.1818 53.2922 67.0895 53.0874 66.9393C52.9815 66.8608 52.7424 66.8369 52.5888 66.8847ZM52.442 68.1173C52.442 68.1412 52.5205 68.6432 52.6127 69.2339C52.7083 69.8245 52.7835 70.3333 52.7835 70.3675C52.7835 70.429 52.7391 70.4323 51.9981 70.4323C51.5678 70.4323 51.2128 70.4255 51.2128 70.4153C51.2128 70.4051 51.4757 69.8758 51.7932 69.2372C52.3123 68.1993 52.442 67.9774 52.442 68.1173Z"
    fill="#777682" />
  <path
    d="M68.7054 66.8847C68.4459 66.9632 68.3776 67.0827 67.1347 69.5582C65.7929 72.2386 65.8509 72.0714 66.2607 72.0714H66.4928L66.7763 71.508L67.0562 70.9446H68.0259H68.9957L69.0127 71.0196C69.023 71.0641 69.0673 71.3167 69.1084 71.583L69.1868 72.0714H69.6376C70.0269 72.0714 70.0917 72.0644 70.143 72.0099C70.1941 71.9484 70.1737 71.8016 69.8254 69.6367C69.4294 67.1818 69.4088 67.0895 69.204 66.9393C69.0981 66.8608 68.8591 66.8369 68.7054 66.8847ZM68.5586 68.1173C68.5586 68.1412 68.6371 68.6432 68.7293 69.2339C68.8249 69.8245 68.9001 70.3333 68.9001 70.3675C68.9001 70.429 68.8557 70.4323 68.1148 70.4323C67.6844 70.4323 67.3294 70.4255 67.3294 70.4153C67.3294 70.4051 67.5923 69.8758 67.9098 69.2372C68.4289 68.1993 68.5586 67.9774 68.5586 68.1173Z"
    fill="#777682" />
  <path
    d="M47.87 66.9147C46.8865 67.0512 46.0534 67.6726 45.6164 68.5912C45.3978 69.042 45.3295 69.3492 45.3295 69.8512C45.333 70.8824 45.753 71.6027 46.5861 71.9852C46.9754 72.1661 47.2793 72.2174 47.8597 72.2003C48.5699 72.1764 48.9284 72.0535 49.3929 71.6677C49.584 71.514 49.5874 71.4149 49.4031 71.2341L49.2699 71.1043L49.0719 71.2408C48.5528 71.6027 48.0611 71.736 47.5251 71.6608C46.9276 71.5755 46.5759 71.2135 46.4496 70.5546C46.3437 70.0047 46.4154 69.2604 46.6271 68.7346C46.8319 68.219 47.2451 67.7478 47.6616 67.5498C47.8768 67.4473 47.8972 67.4439 48.365 67.4439H48.8431L49.0992 67.5702C49.2392 67.6385 49.4475 67.7819 49.5635 67.8843C49.6763 67.9902 49.7821 68.0756 49.7924 68.0756C49.8026 68.0756 49.8811 68.0278 49.9665 67.9663C50.1919 67.8059 50.1782 67.7307 49.8845 67.4507C49.6285 67.2118 49.3382 67.0512 49.0138 66.9658C48.7578 66.901 48.1568 66.8736 47.87 66.9147Z"
    fill="#777682" />
  <path
    d="M31.7127 67.0247C31.5899 67.0895 31.5421 67.1441 31.4532 67.3251C31.3543 67.5231 31.3065 67.7485 30.965 69.6811C30.7601 70.8557 30.5894 71.8562 30.5894 71.904C30.5894 72.0338 30.6611 72.0712 30.8831 72.061L31.0811 72.0508L31.3952 70.2343C31.566 69.2338 31.7195 68.387 31.7332 68.3563C31.7503 68.3017 31.7606 68.3017 31.7845 68.346C31.7981 68.3734 32.0644 69.2338 32.3785 70.2547C32.6893 71.2757 32.9488 72.1157 32.9556 72.1225C32.9591 72.1259 33.0102 72.1362 33.0649 72.1498C33.1673 72.1703 33.1673 72.1669 34.4068 70.2786C35.0862 69.2407 35.6839 68.3528 35.7283 68.3119C35.8067 68.2367 35.8135 68.2367 35.8135 68.2982C35.8135 68.3324 35.6735 69.1655 35.4994 70.1489C35.2673 71.4806 35.1955 71.9518 35.2229 71.9927C35.2536 72.044 35.3287 72.0508 35.7453 72.0508H36.2369L36.6194 69.8826C36.8311 68.691 37.0053 67.629 37.0087 67.5266C37.0087 67.2738 36.9268 67.1202 36.7355 67.0212C36.5716 66.9393 36.3838 66.9256 36.1756 66.9836C35.9126 67.0554 35.735 67.2841 34.6663 68.8958C33.8844 70.0704 33.6386 70.4153 33.6214 70.3708C33.6079 70.3367 33.4166 69.688 33.198 68.9264C32.9795 68.1685 32.7678 67.4753 32.7235 67.3866C32.522 66.9939 32.0781 66.8334 31.7127 67.0247Z"
    fill="#777682" />
  <path
    d="M1.94136 67.0731C1.93795 67.0901 1.92429 67.1686 1.90722 67.254C1.88673 67.3701 1.89015 67.4248 1.92771 67.4828L1.97551 67.5613H3.01352C4.19153 67.5613 4.18469 67.5613 4.0686 67.79C4.03445 67.8618 3.32424 68.811 2.4911 69.8969C1.09798 71.7168 0.978471 71.8807 1.00579 71.9627L1.03652 72.0514L2.88718 72.0616L4.73785 72.0685L4.76175 71.8738C4.79931 71.5563 4.87101 71.5768 3.62131 71.5562C2.42281 71.5392 2.3955 71.5323 2.50475 71.3617C2.5389 71.3104 3.16035 70.5046 3.88423 69.5759C4.60809 68.6471 5.23637 67.8208 5.28076 67.7423C5.36612 67.5852 5.38661 67.377 5.32514 67.2574C5.30124 67.2164 5.23296 67.1516 5.1749 67.1175C5.07248 67.0525 4.99052 67.0492 3.50522 67.0492C2.64475 67.0492 1.94136 67.0594 1.94136 67.0731Z"
    fill="#777682" />
  <path
    d="M6.86513 67.1156C6.64318 67.1908 6.47588 67.3479 6.38369 67.5596C6.30173 67.7542 5.69396 71.1482 5.69053 71.4247C5.69053 71.6638 5.76908 71.8379 5.92956 71.9608L6.04906 72.0531L7.42511 72.0633L8.79775 72.0735L8.82164 71.8653C8.83872 71.7253 8.8319 71.6432 8.80458 71.6091C8.77384 71.5716 8.58604 71.5613 7.86558 71.5511C6.98805 71.5408 6.96074 71.5375 6.88904 71.4658C6.79001 71.3702 6.79342 71.3052 6.9539 70.4312L7.08366 69.7311L7.99193 69.7209L8.90018 69.7141L8.93432 69.5195C8.96164 69.3624 8.95823 69.3078 8.91726 69.2463C8.86603 69.1678 8.86262 69.1678 8.0329 69.1678C7.26805 69.1678 7.19975 69.1644 7.19975 69.1097C7.19975 68.9664 7.41145 67.8429 7.45585 67.7405C7.48315 67.679 7.54462 67.6142 7.59583 67.597C7.64363 67.5766 8.09777 67.5629 8.63384 67.5629H9.58649L9.6104 67.3683C9.64796 67.0473 9.74015 67.0679 8.30606 67.061C7.15878 67.0542 7.02902 67.0575 6.86513 67.1156Z"
    fill="#777682" />
  <path
    d="M11.0649 67.1156C10.843 67.1908 10.6757 67.3479 10.5835 67.5596C10.5015 67.7542 9.89375 71.1482 9.89033 71.4247C9.89033 71.6638 9.96887 71.8379 10.1293 71.9608L10.2489 72.0531L11.6249 72.0633L12.9975 72.0735L13.0214 71.8653C13.0385 71.7253 13.0317 71.6432 13.0044 71.6091C12.9736 71.5716 12.7858 71.5613 12.0654 71.5511C11.1878 71.5408 11.1605 71.5375 11.0888 71.4658C10.9898 71.3702 10.9932 71.3052 11.1537 70.4312L11.2834 69.7311L12.1917 69.7209L13.1 69.7141L13.1341 69.5195C13.1614 69.3624 13.158 69.3078 13.117 69.2463C13.0658 69.1678 13.0624 69.1678 12.2327 69.1678C11.4678 69.1678 11.3996 69.1644 11.3996 69.1097C11.3996 68.9664 11.6112 67.8429 11.6556 67.7405C11.683 67.679 11.7444 67.6142 11.7956 67.597C11.8434 67.5766 12.2976 67.5629 12.8336 67.5629H13.7863L13.8102 67.3683C13.8478 67.0473 13.9399 67.0679 12.5058 67.061C11.3586 67.0542 11.2288 67.0575 11.0649 67.1156Z"
    fill="#777682" />
  <path
    d="M17.9179 70.4582C17.4194 73.2854 17.3238 73.8727 17.3579 73.9307C17.3955 73.9922 17.4433 73.9991 17.9077 74.0093L18.4165 74.0161L18.5804 73.0703C18.6725 72.5479 18.7579 72.1109 18.7682 72.0972C18.7818 72.087 19.1983 72.0699 19.6969 72.0596C20.7246 72.0425 20.9431 72.005 21.4622 71.7625C22.4524 71.2982 22.9987 70.4924 23.067 69.3895C23.1284 68.3719 22.6368 67.5696 21.7524 67.2316C21.3324 67.0744 21.1071 67.054 19.7652 67.0505H18.5189L17.9179 70.4582ZM21.1822 67.6583C21.5065 67.8085 21.7421 68.1227 21.8514 68.5529C21.9266 68.8466 21.906 69.5978 21.8208 69.929C21.6193 70.6768 21.1139 71.2572 20.4856 71.4621C20.2945 71.5236 20.1545 71.5371 19.5467 71.5508L18.833 71.5645L18.8536 71.486C18.8638 71.4416 19.0208 70.5572 19.2018 69.5261C19.3828 68.4914 19.5364 67.6276 19.5467 67.6037C19.5569 67.5661 19.7071 67.5593 20.2842 67.5696C20.9568 67.5798 21.0251 67.5866 21.1822 67.6583Z"
    fill="#777682" />
  <path
    d="M23.8695 69.4495C23.6407 70.771 23.4529 71.8807 23.4529 71.9183C23.4529 72.0583 23.5109 72.072 24.0334 72.072H24.5284L24.7299 70.9178C24.8427 70.2861 24.9416 69.7364 24.9553 69.7023C24.9724 69.6545 25.1466 69.9584 25.6178 70.8564L26.2597 72.072H26.8196C27.605 72.072 27.5947 72.1641 26.9187 70.911C26.625 70.3646 26.3894 69.9105 26.3928 69.9071C26.3997 69.9003 26.5294 69.8696 26.6796 69.8388C27.2498 69.7262 27.6938 69.4019 27.861 68.9715C27.9669 68.7087 27.9738 68.1794 27.8781 67.9165C27.7415 67.5546 27.4717 67.2916 27.0894 67.1483C26.8913 67.0731 26.8333 67.0696 25.587 67.0594L24.2895 67.0492L23.8695 69.4495ZM26.5431 67.6467C26.8503 67.7765 26.987 68.0292 26.987 68.4525C26.9835 68.7837 26.9085 68.9852 26.7138 69.1663C26.4918 69.3676 26.3177 69.4086 25.6348 69.4086C25.126 69.4086 25.0577 69.4154 25.027 69.4667C25.0066 69.5008 24.9894 69.511 24.9894 69.494C24.9894 69.4495 25.2968 67.6639 25.3172 67.6024C25.3411 67.5306 26.3553 67.5682 26.5431 67.6467Z"
    fill="#777682" />
  <path
    d="M29.3431 67.1242C29.3329 67.1686 29.1416 68.2613 28.9129 69.5554C28.5884 71.4095 28.5099 71.9285 28.5373 71.9899C28.5714 72.0685 28.5851 72.0685 29.087 72.0685C29.367 72.0685 29.5992 72.0616 29.5992 72.0514C29.5992 72.0412 29.7904 70.9383 30.026 69.6032C30.4221 67.3359 30.4494 67.1686 30.3947 67.1106C30.347 67.056 30.2786 67.0492 29.8519 67.0492C29.3704 67.0492 29.3602 67.0492 29.3431 67.1242Z"
    fill="#777682" />
  <path
    d="M38.5518 67.1156C38.3298 67.1908 38.1626 67.3479 38.0703 67.5596C37.9884 67.7542 37.3806 71.1482 37.3773 71.4247C37.3773 71.6638 37.4558 71.8379 37.6162 71.9608L37.7358 72.0531L39.1118 72.0633L40.4845 72.0735L40.5084 71.8653C40.5254 71.7253 40.5186 71.6432 40.4913 71.6091C40.4606 71.5716 40.2728 71.5613 39.5523 71.5511C38.6748 71.5408 38.6474 71.5375 38.5757 71.4658C38.4767 71.3702 38.4802 71.3052 38.6406 70.4312L38.7704 69.7311L39.6786 69.7209L40.5869 69.7141L40.621 69.5195C40.6484 69.3624 40.6449 69.3078 40.6039 69.2463C40.5527 69.1678 40.5493 69.1678 39.7196 69.1678C38.9547 69.1678 38.8865 69.1644 38.8865 69.1097C38.8865 68.9664 39.0982 67.8429 39.1425 67.7405C39.1699 67.679 39.2312 67.6142 39.2825 67.597C39.3303 67.5766 39.7844 67.5629 40.3206 67.5629H41.2731L41.297 67.3683C41.3346 67.0473 41.4268 67.0679 39.9928 67.061C38.8454 67.0542 38.7157 67.0575 38.5518 67.1156Z"
    fill="#777682" />
  <path
    d="M54.8971 70.4582C54.3986 73.2854 54.303 73.8727 54.3372 73.9307C54.3747 73.9922 54.4226 73.9991 54.8869 74.0093L55.3957 74.0161L55.5596 73.0703C55.6518 72.5479 55.7371 72.1109 55.7474 72.0972C55.7611 72.087 56.1776 72.0699 56.6761 72.0596C57.7039 72.0425 57.9223 72.005 58.4414 71.7625C59.4316 71.2982 59.9779 70.4924 60.0462 69.3895C60.1077 68.3719 59.616 67.5696 58.7316 67.2316C58.3116 67.0744 58.0862 67.054 56.7444 67.0505H55.4981L54.8971 70.4582ZM58.1614 67.6583C58.4857 67.8085 58.7214 68.1227 58.8307 68.5529C58.9057 68.8466 58.8852 69.5978 58.7999 69.929C58.5985 70.6768 58.0931 71.2572 57.4648 71.4621C57.2737 71.5236 57.1337 71.5371 56.5258 71.5508L55.8122 71.5645L55.8326 71.486C55.843 71.4416 56 70.5572 56.181 69.5261C56.3619 68.4914 56.5156 67.6276 56.5258 67.6037C56.536 67.5661 56.6864 67.5593 57.2633 67.5696C57.936 67.5798 58.0043 67.5866 58.1614 67.6583Z"
    fill="#777682" />
  <path
    d="M61.4053 67.1242C61.395 67.1686 61.2038 68.2613 60.9751 69.5554C60.6506 71.4095 60.5721 71.9285 60.5995 71.9899C60.6336 72.0685 60.6473 72.0685 61.1492 72.0685C61.4292 72.0685 61.6613 72.0616 61.6613 72.0514C61.6613 72.0412 61.8526 70.9383 62.0882 69.6032C62.4842 67.3359 62.5116 67.1686 62.4569 67.1106C62.4091 67.056 62.3408 67.0492 61.9141 67.0492C61.4326 67.0492 61.4224 67.0492 61.4053 67.1242Z"
    fill="#777682" />
  <path
    d="M63.3481 67.2438C63.3105 67.5442 63.307 67.5442 63.9456 67.5545C64.4885 67.5613 64.4953 67.5648 64.4953 67.6398C64.4953 67.6809 64.3245 68.6677 64.1197 69.8319C63.7715 71.7953 63.7509 71.949 63.8022 72.007C63.85 72.0616 63.9182 72.0685 64.3451 72.0685C64.7787 72.0685 64.8333 72.0616 64.8505 72.007C64.8607 71.9763 65.0383 70.9724 65.2465 69.7808C65.4582 68.589 65.6391 67.6022 65.6528 67.5887C65.663 67.575 65.9431 67.5579 66.2709 67.5545L66.8684 67.5442L66.8957 67.3633C66.9196 67.2096 66.9163 67.1686 66.865 67.114C66.8104 67.0525 66.742 67.0492 65.0894 67.0492H63.372L63.3481 67.2438Z"
    fill="#777682" />
</svg>