<svg width="129" height="22" viewBox="0 0 129 22" fill="none" xmlns="http://www.w3.org/2000/svg">
  <path fill-rule="evenodd" clip-rule="evenodd"
    d="M9.088 1.64018L10.7954 0.980258C10.9058 0.939948 11.023 0.921799 11.1404 0.926852C11.2578 0.931905 11.3731 0.960059 11.4795 1.0097C11.586 1.05935 11.6817 1.12951 11.761 1.21616C11.8403 1.30282 11.9018 1.40428 11.9419 1.51472L12.0775 1.88701L16.8183 14.961C16.8995 15.1829 16.8894 15.4278 16.7904 15.6422C16.6914 15.8567 16.5115 16.0232 16.29 16.1054L14.5826 16.7663C14.4722 16.8068 14.3548 16.8252 14.2373 16.8203C14.1198 16.8154 14.0044 16.7874 13.8977 16.7378C13.791 16.6883 13.6951 16.6181 13.6156 16.5316C13.5361 16.4449 13.4744 16.3435 13.4341 16.2329L13.2984 15.8606L8.55353 2.78663C8.47268 2.5637 8.48355 2.31782 8.58374 2.1029C8.68394 1.88798 8.86528 1.72158 9.088 1.64018Z"
    fill="#777682" />
  <path fill-rule="evenodd" clip-rule="evenodd"
    d="M1.27224 1.64018L2.97968 0.980258C3.09004 0.939948 3.20726 0.921799 3.32465 0.926852C3.44203 0.931905 3.55726 0.960059 3.66376 1.0097C3.77025 1.05935 3.86589 1.12951 3.94523 1.21616C4.02457 1.30282 4.08605 1.40428 4.12613 1.51472L4.26178 1.88701L9.00261 14.961C9.08343 15.1835 9.07266 15.429 8.97264 15.6435C8.87263 15.8581 8.69155 16.0243 8.46916 16.1054L6.76173 16.7663C6.65136 16.8067 6.53413 16.825 6.41671 16.8199C6.29931 16.8149 6.18403 16.7869 6.07747 16.7373C5.97091 16.6878 5.87515 16.6178 5.79567 16.5312C5.7162 16.4447 5.65455 16.3433 5.61426 16.2329L5.47861 15.8606L0.7388 2.78663C0.698465 2.67633 0.680269 2.55916 0.685253 2.44183C0.690238 2.3245 0.718305 2.20929 0.76785 2.10282C0.817394 1.99634 0.887445 1.90067 0.973994 1.82129C1.06054 1.7419 1.16189 1.68036 1.27224 1.64018Z"
    fill="#777682" />
  <path
    d="M20.8962 1.00269C20.3294 1.00268 19.7856 1.22737 19.3841 1.62752C18.9827 2.02767 18.7561 2.57064 18.7543 3.13749V3.1538C18.753 3.72188 18.9773 4.26723 19.3781 4.66988C19.7788 5.07253 20.323 5.29949 20.8911 5.30085C21.4592 5.30219 22.0045 5.07782 22.4072 4.67709C22.8098 4.27636 23.0368 3.73208 23.0381 3.164V3.14871C23.0387 2.86708 22.9837 2.58811 22.8763 2.32777C22.7689 2.06742 22.6111 1.83082 22.4123 1.63149C22.2133 1.43216 21.977 1.27402 21.7169 1.16612C21.4567 1.05822 21.1779 1.00268 20.8962 1.00269Z"
    fill="#777682" />
  <path
    d="M22.0743 7.12H19.7028C19.4336 7.12 19.2154 7.33828 19.2154 7.60754V16.0427C19.2154 16.3119 19.4336 16.5302 19.7028 16.5302H22.0743C22.3435 16.5302 22.5619 16.3119 22.5619 16.0427V7.60754C22.5619 7.33828 22.3435 7.12 22.0743 7.12Z"
    fill="#777682" />
  <path
    d="M34.2508 8.13052C33.9257 7.74466 33.5182 7.43655 33.0584 7.22887C32.523 7.00385 31.9458 6.89504 31.3652 6.90962C30.8081 6.89818 30.2539 6.99447 29.7333 7.19317C29.2774 7.37983 28.8153 7.7511 28.3665 8.2978L28.1982 8.50179V7.60523C28.198 7.47547 28.1463 7.3511 28.0545 7.25935C27.9627 7.16759 27.8384 7.11593 27.7086 7.11565H25.5402C25.4692 7.11579 25.3989 7.1299 25.3333 7.15719C25.2678 7.18449 25.2083 7.22442 25.1582 7.27471C25.1081 7.325 25.0684 7.38467 25.0414 7.4503C25.0143 7.51595 25.0005 7.58626 25.0006 7.65726V16.0435C25.0009 16.1731 25.0526 16.2974 25.1444 16.389C25.2361 16.4806 25.3606 16.532 25.4902 16.532H27.7137C27.8434 16.532 27.9678 16.4806 28.0596 16.389C28.1513 16.2974 28.203 16.1731 28.2033 16.0435V11.4954C28.2033 10.8375 28.3655 10.3225 28.6857 9.96545C29.006 9.60846 29.4773 9.41875 30.077 9.41875C30.291 9.41818 30.5036 9.45263 30.7064 9.52075C30.9117 9.59022 31.0979 9.7069 31.2499 9.86141C31.4479 10.0692 31.5829 10.3287 31.6396 10.6101C31.7171 10.996 31.7514 11.3894 31.7416 11.7831V16.0485C31.7419 16.1782 31.7936 16.3024 31.8853 16.3941C31.9771 16.4857 32.1015 16.5371 32.2312 16.5371H34.4507C34.5803 16.5371 34.7047 16.4857 34.7965 16.3941C34.8882 16.3024 34.9399 16.1782 34.9402 16.0485V10.5224C34.9454 10.07 34.8962 9.61861 34.7933 9.17804C34.6956 8.79171 34.5099 8.43321 34.2508 8.13052Z"
    fill="#777682" />
  <path
    d="M48.6854 7.11697H44.3239L40.6327 10.7124V1.33476C40.6333 1.31486 40.6298 1.29506 40.6225 1.27652C40.6153 1.25798 40.6044 1.24107 40.5905 1.22681C40.5766 1.21255 40.56 1.20121 40.5417 1.19347C40.5234 1.18574 40.5037 1.18176 40.4838 1.18176H37.583C37.563 1.18176 37.5433 1.18574 37.525 1.19347C37.5067 1.20121 37.49 1.21255 37.4762 1.22681C37.4623 1.24107 37.4514 1.25798 37.4442 1.27652C37.4369 1.29506 37.4335 1.31486 37.434 1.33476V16.3834C37.434 16.4229 37.4497 16.4608 37.4777 16.4887C37.5055 16.5166 37.5434 16.5323 37.583 16.5323H40.4838C40.5232 16.5323 40.5611 16.5166 40.589 16.4887C40.617 16.4608 40.6327 16.4229 40.6327 16.3834V12.4759L44.4953 16.5323H48.9832L43.9854 11.457L48.6854 7.11697Z"
    fill="#777682" />
  <path
    d="M57.2562 6.90918H56.9625C56.3375 6.89535 55.7204 7.04964 55.1755 7.35593C54.6445 7.67333 54.1992 8.11554 53.878 8.64415L53.7026 8.92261V7.60481C53.7024 7.47503 53.6507 7.35067 53.5589 7.25891C53.4671 7.16715 53.3428 7.11549 53.213 7.11522H50.9935C50.8638 7.11549 50.7394 7.16715 50.6477 7.25891C50.5559 7.35067 50.5042 7.47503 50.504 7.60481V16.042C50.5042 16.1716 50.556 16.2959 50.6478 16.3875C50.7395 16.4792 50.8639 16.5306 50.9935 16.5306H53.213C53.3427 16.5306 53.467 16.4792 53.5588 16.3875C53.6507 16.2959 53.7024 16.1716 53.7026 16.042V12.5068C53.7026 11.5888 53.9066 10.8748 54.3146 10.3945C54.7226 9.91402 55.3448 9.65903 56.1576 9.65903C56.5279 9.65714 56.8959 9.71606 57.247 9.83344C57.2788 9.84465 57.3129 9.84801 57.3463 9.84321C57.3796 9.83842 57.4114 9.82562 57.4387 9.8059C57.4644 9.78711 57.4854 9.76256 57.5 9.73423C57.5145 9.7059 57.5221 9.67455 57.5224 9.6427V7.17642C57.5221 7.1058 57.494 7.03814 57.4441 6.98811C57.3943 6.93808 57.3268 6.90972 57.2562 6.90918Z"
    fill="#777682" />
  <path
    d="M80.1546 8.28487C79.7243 7.83146 79.2094 7.4666 78.639 7.21084C78.0477 6.94672 77.4067 6.81246 76.7591 6.81713C75.5474 6.81713 74.5764 7.2649 73.8756 8.1431L73.7053 8.35729V7.60557C73.7051 7.4758 73.6534 7.35143 73.5617 7.25968C73.4699 7.16792 73.3455 7.11626 73.2157 7.11598H71.0473C70.904 7.11626 70.7666 7.1733 70.6654 7.27462C70.564 7.37594 70.507 7.51327 70.5067 7.65657V20.8356C70.5067 20.8999 70.5193 20.9636 70.544 21.0229C70.5686 21.0824 70.6046 21.1364 70.6501 21.1818C70.6956 21.2272 70.7495 21.2633 70.8089 21.2879C70.8684 21.3125 70.932 21.3252 70.9963 21.3252H73.2157C73.2801 21.3252 73.3437 21.3125 73.4031 21.2879C73.4625 21.2633 73.5164 21.2272 73.562 21.1818C73.6074 21.1364 73.6435 21.0824 73.6681 21.0229C73.6927 20.9636 73.7053 20.8999 73.7053 20.8356V15.4553L73.8696 15.6246C74.6458 16.4253 75.631 16.8313 76.7968 16.8313C77.4279 16.8371 78.0532 16.7113 78.6328 16.4618C79.2124 16.2122 79.7335 15.8443 80.1628 15.3818C80.5914 14.9224 80.9298 14.3864 81.1603 13.8019C81.4023 13.1804 81.5239 12.5186 81.5183 11.8517C81.5225 11.179 81.4011 10.5113 81.1603 9.88316C80.9319 9.29019 80.5904 8.74732 80.1546 8.28487ZM77.979 12.7157C77.8591 12.9799 77.6946 13.2214 77.4925 13.4296C77.2897 13.639 77.0469 13.8055 76.7785 13.9191C76.5002 14.0374 76.2006 14.0974 75.8982 14.0957C75.5917 14.0969 75.2884 14.0336 75.0079 13.91C74.7373 13.7924 74.49 13.6273 74.2776 13.4225C74.0684 13.2194 73.902 12.9767 73.7879 12.7085C73.6701 12.43 73.6101 12.1306 73.6115 11.8282C73.6108 11.5216 73.6743 11.2183 73.7981 10.9379C73.9159 10.6676 74.0807 10.4204 74.2847 10.2075C74.4879 9.99875 74.7307 9.83235 74.9986 9.71793C75.2827 9.60063 75.5874 9.54111 75.8947 9.54287C76.2021 9.54462 76.5059 9.6076 76.7887 9.72813C77.0608 9.84695 77.3085 10.0154 77.519 10.2249C77.7281 10.4361 77.8913 10.6881 77.9984 10.9653C78.1094 11.2476 78.1658 11.5484 78.1647 11.8517C78.1651 12.1496 78.1018 12.4442 77.979 12.7157Z"
    fill="#777682" />
  <path
    d="M88.7956 7.11465H87.3554V4.72078C87.3554 4.59111 87.304 4.46674 87.2125 4.37495C87.1209 4.28317 86.9966 4.23147 86.8669 4.2312H84.6464C84.5166 4.23146 84.3923 4.28314 84.3006 4.37489C84.2088 4.46665 84.1571 4.59102 84.1569 4.72078V7.11465H83.5234C83.3937 7.11492 83.2693 7.16659 83.1776 7.25835C83.0858 7.3501 83.0342 7.47448 83.0339 7.60424V9.26271C83.0342 9.39248 83.0858 9.51685 83.1776 9.60861C83.2693 9.70037 83.3937 9.75203 83.5234 9.7523H84.1569V16.0414C84.1574 16.171 84.2091 16.2952 84.3009 16.3867C84.3927 16.4782 84.5168 16.5297 84.6464 16.53H86.872C87.0015 16.5297 87.1256 16.4781 87.2172 16.3866C87.3088 16.2951 87.3603 16.1709 87.3606 16.0414V9.7523H88.8008C88.9304 9.75176 89.0544 9.69997 89.146 9.60825C89.2375 9.51652 89.2891 9.3923 89.2893 9.26271V7.60424C89.2892 7.53965 89.2763 7.4757 89.2514 7.4161C89.2265 7.3565 89.1901 7.30239 89.1442 7.25691C89.0983 7.21142 89.044 7.17543 88.9841 7.15102C88.9243 7.12661 88.8603 7.11425 88.7956 7.11465Z"
    fill="#777682" />
  <path
    d="M101.464 9.78309C101.188 9.17248 100.785 8.62794 100.281 8.18582C99.7496 7.7263 99.1381 7.37031 98.4762 7.13627C97.7497 6.87977 96.9849 6.75206 96.2145 6.75888C95.4385 6.75106 94.6662 6.88197 93.9353 7.14545C93.2761 7.38395 92.667 7.74296 92.1391 8.20418C91.6434 8.64449 91.2436 9.1819 90.9641 9.78309C90.683 10.3954 90.5396 11.0617 90.5438 11.7353C90.5344 12.459 90.6784 13.1765 90.9662 13.8406C91.2385 14.4571 91.6354 15.0106 92.1319 15.4664C92.6485 15.9315 93.253 16.2884 93.9098 16.516C94.6307 16.7663 95.3899 16.8912 96.1538 16.8852C96.9363 16.8915 97.7142 16.7667 98.4547 16.516C99.1213 16.2922 99.7365 15.939 100.267 15.4766C100.769 15.0312 101.174 14.4866 101.458 13.8772C101.749 13.2347 101.897 12.5359 101.889 11.8301C101.896 11.1253 101.751 10.4271 101.464 9.78309ZM98.3154 12.7033C98.1966 12.9734 98.0321 13.2203 97.8273 13.4326C97.6216 13.6438 97.3757 13.8107 97.1037 13.9231C96.5333 14.1571 95.8948 14.1571 95.3254 13.9231C95.0533 13.8107 94.8065 13.6438 94.6017 13.4326C94.397 13.2201 94.2324 12.9732 94.1148 12.7033C93.9886 12.4103 93.925 12.0941 93.9281 11.7751C93.9264 11.4711 93.9897 11.1703 94.1138 10.8928C94.2334 10.6286 94.3979 10.3871 94.5999 10.1788C94.8055 9.96765 95.0524 9.80071 95.3244 9.68823C95.8938 9.455 96.5324 9.455 97.1018 9.68823C97.3748 9.80071 97.6207 9.96765 97.8264 10.1788C98.0302 10.3913 98.1957 10.6383 98.3144 10.9081C98.4378 11.1887 98.5005 11.4921 98.4996 11.7985C98.5014 12.1097 98.4388 12.4178 98.3154 12.7033Z"
    fill="#777682" />
  <path
    d="M68.642 7.11646H66.3298C66.2251 7.11671 66.123 7.14914 66.0375 7.20936C65.952 7.26957 65.887 7.35465 65.8514 7.45304L64.0154 12.5631L62.1581 7.45407C62.1226 7.35531 62.0575 7.2699 61.9718 7.20948C61.8859 7.14906 61.7836 7.11658 61.6786 7.11646H59.3868C59.308 7.11615 59.2302 7.13489 59.1602 7.17109C59.09 7.20728 59.0298 7.25986 58.9844 7.32437C58.939 7.38886 58.91 7.46336 58.8996 7.54153C58.8892 7.61969 58.8978 7.69921 58.9247 7.77332L62.1702 16.7226L62.1581 16.7552L60.7393 20.6688C60.7124 20.7427 60.7037 20.822 60.714 20.9C60.7242 20.9779 60.7531 21.0523 60.7983 21.1167C60.8434 21.181 60.9035 21.2335 60.9733 21.2697C61.0432 21.306 61.1207 21.3248 61.1993 21.3246H63.8318C63.9362 21.3245 64.0381 21.2924 64.1236 21.2326C64.2092 21.1728 64.2743 21.0882 64.3102 20.9901L69.1041 7.77332C69.1307 7.69929 69.1392 7.61993 69.1287 7.54194C69.1183 7.46395 69.0893 7.38962 69.044 7.32522C68.9989 7.26082 68.9388 7.20822 68.869 7.17189C68.7992 7.13556 68.7217 7.11654 68.643 7.11646H68.642Z"
    fill="#777682" />
  <path fill-rule="evenodd" clip-rule="evenodd"
    d="M108.584 0.926025H123.893C126.588 0.926025 128.773 3.11067 128.773 5.80557C128.773 8.50046 126.588 10.6851 123.893 10.6851H108.584C105.889 10.6851 103.704 8.50046 103.704 5.80557C103.704 3.11067 105.889 0.926025 108.584 0.926025ZM117.409 8.17821C117.429 8.1862 117.45 8.19018 117.471 8.18991L120.698 8.18685C120.721 8.18791 120.742 8.18428 120.763 8.17618C120.783 8.16809 120.801 8.15573 120.817 8.13993C120.845 8.10886 120.861 8.06798 120.861 8.02569V7.54631C120.862 7.52466 120.859 7.50294 120.852 7.48262C120.844 7.46231 120.832 7.44388 120.816 7.42858C120.801 7.41328 120.782 7.40149 120.762 7.394C120.742 7.3865 120.72 7.38349 120.698 7.38515H118.777L119.734 6.41312C119.932 6.25992 120.116 6.09217 120.288 5.9113C120.431 5.76112 120.55 5.58895 120.638 5.40131C120.72 5.21776 120.761 5.01875 120.759 4.81788C120.763 4.56274 120.699 4.3111 120.574 4.08861C120.444 3.86817 120.251 3.69085 120.021 3.57862C119.729 3.44326 119.407 3.37962 119.084 3.39298C118.84 3.38914 118.598 3.43278 118.371 3.5215C118.171 3.5985 117.99 3.7139 117.834 3.86115C117.691 3.99875 117.578 4.16392 117.501 4.34666C117.425 4.52527 117.384 4.71669 117.379 4.9107C117.379 4.92823 117.383 4.94559 117.389 4.96173C117.397 4.97786 117.406 4.99244 117.419 5.00454C117.432 5.01778 117.448 5.02821 117.466 5.03521C117.484 5.04223 117.503 5.04567 117.521 5.04534H118.121C118.164 5.04476 118.206 5.03317 118.242 5.01168C118.264 4.99881 118.281 4.98108 118.294 4.95998C118.308 4.93888 118.315 4.91499 118.317 4.89031C118.337 4.76477 118.38 4.64371 118.441 4.53229C118.501 4.42503 118.588 4.33561 118.695 4.27322C118.815 4.20321 118.953 4.16791 119.092 4.17122C119.33 4.17122 119.504 4.23446 119.615 4.35991C119.73 4.49755 119.789 4.67342 119.779 4.85256C119.776 4.99748 119.733 5.13875 119.655 5.26055C119.544 5.42914 119.411 5.58126 119.257 5.71239C119.078 5.87627 118.84 6.07517 118.543 6.30908L117.477 7.36781C117.417 7.41154 117.369 7.47117 117.34 7.54019C117.321 7.58635 117.311 7.63535 117.309 7.68502V8.02875C117.309 8.05004 117.313 8.07114 117.321 8.09082C117.33 8.1105 117.341 8.12837 117.357 8.14337C117.372 8.15838 117.389 8.17023 117.409 8.17821ZM108.87 8.18942C108.849 8.18955 108.828 8.18547 108.808 8.17742C108.789 8.16937 108.771 8.15751 108.755 8.14252C108.74 8.12753 108.729 8.1097 108.721 8.09009C108.713 8.07048 108.708 8.04947 108.708 8.02826V7.68453C108.71 7.63491 108.721 7.58591 108.738 7.5397C108.767 7.47056 108.816 7.41091 108.877 7.36732L109.942 6.3086C110.239 6.07468 110.476 5.87579 110.657 5.71191C110.81 5.5805 110.944 5.42843 111.054 5.26006C111.133 5.13806 111.176 4.99691 111.179 4.85207C111.187 4.673 111.128 4.49731 111.014 4.35943C110.904 4.23431 110.73 4.17141 110.491 4.17073C110.352 4.16715 110.215 4.20247 110.094 4.27273C109.988 4.33513 109.9 4.42454 109.841 4.53181C109.779 4.64296 109.736 4.7641 109.715 4.88981C109.713 4.91457 109.706 4.93855 109.693 4.95969C109.68 4.98084 109.662 4.99851 109.641 5.01119C109.604 5.03263 109.563 5.04423 109.521 5.04484H108.92C108.901 5.04541 108.882 5.04208 108.864 5.03506C108.847 5.02804 108.831 5.01749 108.818 5.00405C108.805 4.99211 108.794 4.9776 108.788 4.96144C108.78 4.94528 108.777 4.92783 108.777 4.91021C108.782 4.71626 108.823 4.52494 108.898 4.34617C108.976 4.16319 109.09 3.99795 109.233 3.86067C109.388 3.71373 109.569 3.59836 109.769 3.52102C109.996 3.43242 110.238 3.38877 110.482 3.3925C110.802 3.38125 111.12 3.44591 111.409 3.58119C111.64 3.69312 111.832 3.87052 111.962 4.09117C112.087 4.3136 112.152 4.56523 112.148 4.82045C112.15 5.0214 112.109 5.2204 112.027 5.40388C111.938 5.59173 111.82 5.76396 111.676 5.91387C111.505 6.09499 111.32 6.26276 111.123 6.41569L110.165 7.38772H112.088C112.11 7.38621 112.131 7.38934 112.151 7.3969C112.171 7.40447 112.19 7.41629 112.205 7.43156C112.22 7.44684 112.232 7.46522 112.24 7.48546C112.247 7.5057 112.251 7.52732 112.249 7.54888V8.02826C112.25 8.07064 112.234 8.11172 112.205 8.1425C112.19 8.15833 112.171 8.17072 112.152 8.17882C112.131 8.18692 112.11 8.19053 112.088 8.18942H108.87ZM114.79 8.25589C114.512 8.26279 114.235 8.21462 113.975 8.11411C113.763 8.02812 113.573 7.89405 113.421 7.72245C113.277 7.55397 113.166 7.35798 113.099 7.14616C113.025 6.92038 112.981 6.68575 112.97 6.44849C112.97 6.3829 112.968 6.31372 112.965 6.2408C112.963 6.17882 112.961 6.11411 112.96 6.04663C112.959 5.94894 112.959 5.8517 112.96 5.75372C112.96 5.70443 112.96 5.65481 112.96 5.60499C112.96 5.45611 112.96 5.31936 112.97 5.19699C112.977 4.95929 113.02 4.72407 113.099 4.49933C113.17 4.28862 113.283 4.09464 113.432 3.92917C113.586 3.76115 113.776 3.62977 113.988 3.54464C114.243 3.44442 114.516 3.39622 114.79 3.40286C115.067 3.39587 115.343 3.44407 115.601 3.54464C115.812 3.62977 116.002 3.76115 116.156 3.92917C116.305 4.09454 116.417 4.28861 116.487 4.49933C116.562 4.72453 116.604 4.95959 116.612 5.19699C116.621 5.32245 116.625 5.46014 116.625 5.60499V6.04663C116.625 6.1935 116.625 6.32712 116.612 6.44849C116.604 6.68564 116.563 6.92054 116.49 7.14616C116.422 7.35798 116.311 7.55397 116.166 7.72245C116.014 7.89479 115.823 8.02894 115.609 8.11411C115.348 8.2144 115.07 8.26256 114.79 8.25589ZM114.79 7.47969C115.083 7.47969 115.301 7.38483 115.435 7.19307C115.584 6.96099 115.658 6.68911 115.648 6.41382C115.657 6.28428 115.661 6.1527 115.661 6.02011V5.61621C115.661 5.48156 115.661 5.35407 115.648 5.23168C115.656 4.95916 115.582 4.69048 115.435 4.46057C115.298 4.26474 115.083 4.16683 114.79 4.16683C114.498 4.16683 114.291 4.26882 114.154 4.46057C114.006 4.69052 113.93 4.95869 113.934 5.23168V5.61621V6.01807V6.41178C113.927 6.6882 114.005 6.96001 114.157 7.19104C114.23 7.28813 114.327 7.3654 114.437 7.41581C114.548 7.46622 114.67 7.48818 114.79 7.47969ZM123.052 8.18839C123.03 8.18951 123.008 8.18589 122.988 8.1778C122.967 8.16969 122.949 8.1573 122.934 8.14148C122.905 8.11071 122.889 8.06962 122.89 8.02724V4.53383L121.865 5.32329C121.83 5.34856 121.787 5.35917 121.744 5.35287C121.7 5.34429 121.661 5.31907 121.636 5.28249L121.352 4.91836C121.327 4.88081 121.315 4.835 121.322 4.78985C121.325 4.76777 121.333 4.74669 121.345 4.72803C121.357 4.70938 121.374 4.69359 121.393 4.68174L122.904 3.51591C122.926 3.49485 122.954 3.48069 122.984 3.47511C123.013 3.47003 123.042 3.46764 123.072 3.46797H123.666C123.686 3.46761 123.708 3.4717 123.727 3.47994C123.747 3.4882 123.765 3.50045 123.78 3.51591C123.795 3.53066 123.807 3.54842 123.815 3.56806C123.824 3.58771 123.828 3.60884 123.828 3.63014V8.02724C123.828 8.04854 123.824 8.06967 123.815 8.08931C123.807 8.10897 123.795 8.12671 123.78 8.14148C123.765 8.15681 123.747 8.1689 123.727 8.17698C123.708 8.18505 123.686 8.18894 123.666 8.18839H123.052Z"
    fill="#777682" />
</svg>