<svg width="41" height="44" viewBox="0 0 41 44" fill="none" xmlns="http://www.w3.org/2000/svg">
<g id="a" clip-path="url(#clip0_1221_12631)">
<path id="Vector" d="M20.4988 9.70884C24.7163 9.70884 28.1352 7.72039 28.1352 5.26751C28.1352 2.81462 24.7163 0.826172 20.4988 0.826172C16.2813 0.826172 12.8623 2.81462 12.8623 5.26751C12.8623 7.72039 16.2813 9.70884 20.4988 9.70884Z" fill="#141421"/>
<path id="Vector_2" d="M20.4988 43.1737C24.7163 43.1737 28.1352 41.1852 28.1352 38.7323C28.1352 36.2795 24.7163 34.291 20.4988 34.291C16.2813 34.291 12.8623 36.2795 12.8623 38.7323C12.8623 41.1852 16.2813 43.1737 20.4988 43.1737Z" fill="#141421"/>
<path id="Vector_3" d="M9.85867 15.8566C11.9673 12.2043 11.9535 8.24863 9.82783 7.02136C7.70214 5.79409 4.26951 7.75997 2.16085 11.4123C0.052184 15.0646 0.0659884 19.0203 2.19168 20.2476C4.31737 21.4748 7.75 19.5089 9.85867 15.8566Z" fill="#141421"/>
<path id="Vector_4" d="M38.8359 32.586C40.9446 28.9337 40.9319 24.9787 38.8077 23.7523C36.6834 22.5258 33.2519 24.4924 31.1433 28.1447C29.0346 31.797 29.0472 35.752 31.1715 36.9785C33.2958 38.2049 36.7272 36.2384 38.8359 32.586Z" fill="#141421"/>
<path id="Vector_5" d="M9.82783 36.9786C11.9535 35.7514 11.9673 31.7957 9.85866 28.1434C7.75 24.4911 4.31737 22.5252 2.19168 23.7524C0.0659884 24.9797 0.0521836 28.9354 2.16085 32.5877C4.26951 36.24 7.70214 38.2059 9.82783 36.9786Z" fill="#141421"/>
<path id="Vector_6" d="M38.8096 20.2492C40.9339 19.0227 40.9465 15.0677 38.8378 11.4154C36.7292 7.76311 33.2977 5.79654 31.1735 7.02299C29.0492 8.24943 29.0366 12.2044 31.1452 15.8568C33.2539 19.5091 36.6854 21.4756 38.8096 20.2492Z" fill="#141421"/>
</g>
<defs>
<clipPath id="clip0_1221_12631">
<rect width="39.8237" height="42.3473" fill="white" transform="translate(0.587891 0.826172)"/>
</clipPath>
</defs>
</svg>
