<svg width="29" height="40" viewBox="0 0 29 40" fill="none" xmlns="http://www.w3.org/2000/svg">
<g id="a" clip-path="url(#clip0_1221_12622)">
<path id="Vector" d="M28.2081 29.1078C27.8115 22.0689 18.9551 18.87 18.1091 18.5461C18.076 18.5263 18.076 18.4933 18.0893 18.4602L27.2167 9.29313V8.30835C27.2167 8.14972 27.0779 8.01754 26.9259 8.01754H10.1052V0.839844L3.89911 2.13527V3.06718H4.24279C4.24279 3.06718 5.76293 3.06718 5.76293 4.58731V7.9911H0.957974C0.872054 7.9911 0.786133 8.07702 0.786133 8.16294V10.3242H5.78276V22.0623C5.78276 25.7437 8.14889 28.3015 12.2995 27.9578C13.1786 27.8917 13.9915 27.5414 14.6855 27.092C14.9961 26.8871 15.1878 26.5566 15.1878 26.1733V25.0166C13.8395 25.9155 12.6961 25.8626 12.6961 25.8626C10.0656 25.8626 10.1185 22.5249 10.1185 22.5249V10.3308H22.2201L13.509 19.1145C13.4892 20.2712 13.476 21.17 13.476 21.1899C13.476 21.2229 13.4958 21.2427 13.5289 21.2427C21.5195 22.591 23.6807 27.7595 23.6807 29.2664C23.6807 29.2664 24.5465 36.5829 17.2301 37.0786C17.2301 37.0786 12.4383 37.2835 11.5923 35.3668C11.5593 35.3007 11.5923 35.228 11.6584 35.195C12.4515 34.8314 12.9869 34.1242 12.9869 33.1725C12.9869 31.7515 12.1211 30.5949 10.3101 30.5949C8.84286 30.5949 7.63336 31.7515 7.63336 33.1725C7.63336 33.1725 6.93939 39.3258 17.2102 39.1539C28.9351 38.949 28.2081 29.1078 28.2081 29.1078Z" fill="#141421"/>
</g>
<defs>
<clipPath id="clip0_1221_12622">
<rect width="27.4286" height="38.3207" fill="white" transform="translate(0.786133 0.839844)"/>
</clipPath>
</defs>
</svg>
