<svg width="718" height="477" viewBox="0 0 718 477" fill="none" xmlns="http://www.w3.org/2000/svg">
  <path d="M604.556 246.84V180.514" stroke="white" stroke-linecap="round" stroke-linejoin="round" />
  <g filter="url(#filter0_bddiiiiii_721_22671)">
    <path fill-rule="evenodd" clip-rule="evenodd"
      d="M486.481 205.26L376.95 269.758L267.419 205.26L376.95 139.261L486.481 205.26ZM341.041 210.38L331.599 204.823L376.95 177.494L422.3 204.823L412.859 210.38L376.95 231.525L341.041 210.38Z"
      fill="url(#paint0_linear_721_22671)" />
    <path
      d="M376.95 269.758L376.696 270.189C376.853 270.281 377.047 270.281 377.204 270.189L376.95 269.758ZM486.481 205.26L486.735 205.691C486.886 205.601 486.98 205.438 486.981 205.262C486.982 205.086 486.89 204.922 486.739 204.831L486.481 205.26ZM267.419 205.26L267.161 204.831C267.01 204.922 266.918 205.086 266.919 205.262C266.92 205.438 267.014 205.601 267.165 205.691L267.419 205.26ZM376.95 139.261L377.208 138.833C377.049 138.737 376.851 138.737 376.692 138.833L376.95 139.261ZM331.599 204.823L331.341 204.395C331.19 204.486 331.098 204.65 331.099 204.826C331.1 205.002 331.194 205.165 331.346 205.254L331.599 204.823ZM341.041 210.38L341.295 209.949L341.294 209.949L341.041 210.38ZM376.95 177.494L377.208 177.066C377.049 176.97 376.85 176.97 376.692 177.066L376.95 177.494ZM422.3 204.823L422.554 205.254C422.706 205.165 422.8 205.002 422.8 204.826C422.801 204.65 422.709 204.486 422.559 204.395L422.3 204.823ZM412.859 210.38L412.605 209.949L412.605 209.949L412.859 210.38ZM376.95 231.525L376.696 231.955C376.853 232.048 377.047 232.048 377.203 231.955L376.95 231.525ZM377.204 270.189L486.735 205.691L486.227 204.829L376.696 269.327L377.204 270.189ZM267.165 205.691L376.696 270.189L377.204 269.327L267.673 204.829L267.165 205.691ZM376.692 138.833L267.161 204.831L267.677 205.688L377.208 139.689L376.692 138.833ZM486.739 204.831L377.208 138.833L376.692 139.689L486.223 205.688L486.739 204.831ZM331.346 205.254L340.787 210.811L341.294 209.949L331.853 204.392L331.346 205.254ZM376.692 177.066L331.341 204.395L331.857 205.251L377.208 177.922L376.692 177.066ZM422.559 204.395L377.208 177.066L376.692 177.922L422.042 205.251L422.559 204.395ZM413.112 210.811L422.554 205.254L422.047 204.392L412.605 209.949L413.112 210.811ZM377.203 231.955L413.112 210.811L412.605 209.949L376.696 231.094L377.203 231.955ZM340.787 210.811L376.696 231.955L377.203 231.094L341.295 209.949L340.787 210.811Z"
      fill="white" />
  </g>
  <path d="M331.599 204.823L341.041 210.38C352.879 203.25 376.95 188.744 376.95 188.744V177.494L331.599 204.823Z"
    fill="white" stroke="white" stroke-linecap="round" stroke-linejoin="round" />
  <path d="M376.95 177.494V188.744L412.859 210.38L422.3 204.823L376.95 177.494Z" stroke="white" stroke-linecap="round"
    stroke-linejoin="round" />
  <path d="M412.859 210.38L376.95 188.744C376.95 188.744 352.879 203.25 341.041 210.38L376.95 231.525L412.859 210.38Z"
    stroke="white" stroke-linecap="round" stroke-linejoin="round" />
  <path d="M376.95 291.739V269.758L486.481 205.26V227.987L376.95 291.739Z" fill="white" stroke="white"
    stroke-linecap="round" stroke-linejoin="round" />
  <path d="M267.419 225.74V205.26L376.95 269.758V291.739L267.419 225.74Z" fill="#141327" stroke="white"
    stroke-linecap="round" stroke-linejoin="round" />
  <path d="M424.517 167.927L442.405 157.404" stroke="white" stroke-linecap="round" stroke-linejoin="round" />
  <path d="M442.405 157.395L604.556 247.222" stroke="white" stroke-linecap="round" stroke-linejoin="round" />
  <path d="M492.611 185.907L495.267 184.333L492.611 182.733L489.945 184.333L492.611 185.907Z" fill="#141327"
    stroke="white" stroke-linecap="round" stroke-linejoin="round" />
  <path d="M492.611 188.726V185.907L495.267 184.333V187.18L492.611 188.726Z" fill="white" stroke="white"
    stroke-linecap="round" stroke-linejoin="round" />
  <path d="M489.945 187.125V184.333L492.611 185.907V188.726L489.945 187.125Z" fill="#141327" stroke="white"
    stroke-linecap="round" stroke-linejoin="round" />
  <path d="M604.556 245.848L607.213 244.275L604.556 242.674L601.89 244.275L604.556 245.848Z" fill="#141327"
    stroke="white" stroke-linecap="round" stroke-linejoin="round" />
  <path d="M604.556 248.668V245.848L607.213 244.275V247.122L604.556 248.668Z" fill="white" stroke="white"
    stroke-linecap="round" stroke-linejoin="round" />
  <path d="M601.89 247.067V244.275L604.556 245.848V248.668L601.89 247.067Z" fill="#141327" stroke="white"
    stroke-linecap="round" stroke-linejoin="round" />
  <path d="M604.7 214.09L607.356 212.517L604.7 210.917L602.034 212.517L604.7 214.09Z" fill="#141327" stroke="white"
    stroke-linecap="round" stroke-linejoin="round" />
  <path d="M604.7 216.91V214.09L607.356 212.517V215.364L604.7 216.91Z" fill="white" stroke="white"
    stroke-linecap="round" stroke-linejoin="round" />
  <path d="M602.034 215.309V212.517L604.7 214.09V216.91L602.034 215.309Z" fill="#141327" stroke="white"
    stroke-linecap="round" stroke-linejoin="round" />
  <path d="M442.405 157.395L445.061 155.831L442.405 154.221L439.739 155.831L442.405 157.395Z" fill="#141327"
    stroke="white" stroke-linecap="round" stroke-linejoin="round" />
  <path d="M442.405 160.215V157.395L445.061 155.831V158.669L442.405 160.215Z" fill="white" stroke="white"
    stroke-linecap="round" stroke-linejoin="round" />
  <path d="M439.73 158.614V155.831L442.396 157.395V160.215L439.73 158.614Z" fill="#141327" stroke="white"
    stroke-linecap="round" stroke-linejoin="round" />
  <path d="M257.771 284.2L124.797 362.585H124.905L21.8631 301.852L153.311 222.375L257.771 284.2Z" fill="#141327"
    stroke="white" stroke-linecap="round" stroke-linejoin="round" />
  <path d="M124.905 362.585V374.299L257.771 295.923V284.2L124.905 362.585Z" fill="white" stroke="white"
    stroke-linecap="round" stroke-linejoin="round" />
  <path d="M21.8631 301.852V313.566L124.905 374.299V362.585L21.8631 301.852Z" fill="#141327" stroke="white"
    stroke-linecap="round" stroke-linejoin="round" />
  <path d="M200.035 289.902L202.844 291.603V284.709L200.035 283.009V289.902Z" fill="#141327" stroke="white"
    stroke-linecap="round" stroke-linejoin="round" />
  <path d="M177.077 270.113V274.487L210.437 294.131V289.757L177.077 270.113Z" fill="#141327" stroke="white"
    stroke-linecap="round" stroke-linejoin="round" />
  <path d="M210.437 289.757L243.797 270.113L210.437 250.014L177.077 270.113L210.437 289.757Z" fill="#141327"
    stroke="white" stroke-linecap="round" stroke-linejoin="round" />
  <path d="M210.437 289.757V294.131L243.797 274.487V270.113L210.437 289.757Z" fill="white" stroke="white"
    stroke-linecap="round" stroke-linejoin="round" />
  <path d="M204.468 290.612V286.246L239.049 267.257V264.81L202.844 284.709V291.603L204.468 290.612Z" fill="white"
    stroke="white" stroke-linecap="round" stroke-linejoin="round" />
  <path d="M236.231 263.11L239.049 264.81L202.844 284.709L200.035 283.009L236.231 263.11Z" fill="#141327" stroke="white"
    stroke-linecap="round" stroke-linejoin="round" />
  <path
    d="M81.0622 313.339L81.1789 318.122C81.834 318.268 82.5072 318.404 83.1893 318.513L82.8392 313.675C82.2379 313.575 81.6456 313.457 81.0622 313.339Z"
    fill="#141327" stroke="white" stroke-linecap="round" stroke-linejoin="round" />
  <path
    d="M86.2677 314.112L86.3485 318.923C86.6805 318.95 87.0036 318.977 87.3357 318.995L87.2639 314.184C86.9318 314.166 86.5998 314.139 86.2677 314.112Z"
    fill="#141327" stroke="white" stroke-linecap="round" stroke-linejoin="round" />
  <path
    d="M64.3597 302.589L66.6304 308.691H66.6484C68.3087 312.638 73.0745 315.921 79.4288 317.686L79.0069 312.838C71.8628 310.892 66.424 307.154 64.3597 302.589Z"
    fill="#141327" stroke="white" stroke-linecap="round" stroke-linejoin="round" />
  <path
    d="M112.879 306.882L111.38 312.129C112.627 310.874 113.525 309.501 114.009 308.046L116.047 302.625C115.347 304.144 114.279 305.581 112.888 306.882H112.879Z"
    fill="#141327" stroke="white" stroke-linecap="round" stroke-linejoin="round" />
  <path
    d="M79.0069 312.839L79.4288 317.686C80.0032 317.84 80.5865 317.995 81.1789 318.122L81.0622 313.339C80.3622 313.193 79.6801 313.02 79.0069 312.839Z"
    fill="white" stroke="white" stroke-linecap="round" stroke-linejoin="round" />
  <path
    d="M82.8392 313.675L83.1893 318.513C84.2124 318.686 85.2625 318.823 86.3395 318.923L86.2587 314.112C85.092 314.012 83.9432 313.866 82.8303 313.675H82.8392Z"
    fill="white" stroke="white" stroke-linecap="round" stroke-linejoin="round" />
  <path
    d="M90.2077 314.275C89.2115 314.275 88.2332 314.239 87.2639 314.184L87.3357 318.995C88.2781 319.059 89.2384 319.095 90.2077 319.095C99.3173 319.095 107.251 316.285 111.38 312.129L112.879 306.882C108.149 311.32 99.7661 314.275 90.2077 314.275Z"
    fill="white" stroke="white" stroke-linecap="round" stroke-linejoin="round" />
  <path
    d="M90.2077 314.284C104.981 314.284 116.962 307.227 116.962 298.515C116.962 289.802 104.981 282.745 90.2077 282.745C75.4349 282.745 63.4532 289.802 63.4532 298.515C63.4532 307.227 75.4349 314.284 90.2077 314.284Z"
    fill="#141327" stroke="white" stroke-linecap="round" stroke-linejoin="round" />
  <path
    d="M81.0622 304.371L81.1789 309.155C81.834 309.301 82.5072 309.437 83.1893 309.546L82.8392 304.708C82.2379 304.608 81.6456 304.49 81.0622 304.371Z"
    fill="#141327" stroke="white" stroke-linecap="round" stroke-linejoin="round" />
  <path
    d="M86.2677 305.145L86.3485 309.956C86.6805 309.983 87.0036 310.01 87.3357 310.028L87.2639 305.217C86.9318 305.199 86.5998 305.172 86.2677 305.145Z"
    fill="#141327" stroke="white" stroke-linecap="round" stroke-linejoin="round" />
  <path
    d="M64.3597 293.631L66.6304 299.733H66.6484C68.3087 303.68 73.0745 306.963 79.4288 308.728L79.0069 303.88C71.8628 301.934 66.424 298.196 64.3597 293.631Z"
    fill="#141327" stroke="white" stroke-linecap="round" stroke-linejoin="round" />
  <path
    d="M112.879 297.923L111.38 303.171C112.627 301.916 113.525 300.543 114.009 299.088L116.047 293.667C115.347 295.186 114.279 296.623 112.888 297.923H112.879Z"
    fill="#141327" stroke="white" stroke-linecap="round" stroke-linejoin="round" />
  <path
    d="M79.0069 303.871L79.4288 308.719C80.0032 308.873 80.5865 309.028 81.1789 309.155L81.0622 304.372C80.3622 304.226 79.6801 304.053 79.0069 303.871Z"
    fill="white" stroke="white" stroke-linecap="round" stroke-linejoin="round" />
  <path
    d="M82.8392 304.717L83.1893 309.555C84.2124 309.728 85.2625 309.864 86.3395 309.965L86.2587 305.154C85.092 305.054 83.9432 304.908 82.8303 304.717H82.8392Z"
    fill="white" stroke="white" stroke-linecap="round" stroke-linejoin="round" />
  <path
    d="M90.2077 305.317C89.2115 305.317 88.2332 305.281 87.2639 305.226L87.3357 310.037C88.2781 310.101 89.2384 310.137 90.2077 310.137C99.3173 310.137 107.251 307.327 111.38 303.171L112.879 297.923C108.149 302.362 99.7661 305.317 90.2077 305.317Z"
    fill="white" stroke="white" stroke-linecap="round" stroke-linejoin="round" />
  <path
    d="M90.2077 305.326C104.981 305.326 116.962 298.269 116.962 289.557C116.962 280.844 104.981 273.787 90.2077 273.787C75.4349 273.787 63.4532 280.844 63.4532 289.557C63.4532 298.269 75.4349 305.326 90.2077 305.326Z"
    fill="#141327" stroke="white" stroke-linecap="round" stroke-linejoin="round" />
  <path
    d="M81.0622 295.413L81.1789 300.197C81.834 300.343 82.5072 300.479 83.1893 300.588L82.8392 295.75C82.2379 295.65 81.6456 295.532 81.0622 295.413Z"
    fill="#141327" stroke="white" stroke-linecap="round" stroke-linejoin="round" />
  <path
    d="M86.2677 296.187L86.3485 300.998C86.6805 301.025 87.0036 301.052 87.3357 301.07L87.2639 296.259C86.9318 296.241 86.5998 296.214 86.2677 296.187Z"
    fill="#141327" stroke="white" stroke-linecap="round" stroke-linejoin="round" />
  <path
    d="M64.3597 284.664L66.6304 290.766H66.6484C68.3087 294.713 73.0745 297.996 79.4288 299.761L79.0069 294.913C71.8628 292.967 66.424 289.229 64.3597 284.664Z"
    fill="#141327" stroke="white" stroke-linecap="round" stroke-linejoin="round" />
  <path
    d="M112.879 288.965L111.38 294.213C112.627 292.958 113.525 291.585 114.009 290.13L116.047 284.709C115.347 286.228 114.279 287.665 112.888 288.965H112.879Z"
    fill="#141327" stroke="white" stroke-linecap="round" stroke-linejoin="round" />
  <path
    d="M79.0069 294.913L79.4288 299.761C80.0032 299.915 80.5865 300.07 81.1789 300.197L81.0622 295.413C80.3622 295.268 79.6801 295.095 79.0069 294.913Z"
    fill="white" stroke="white" stroke-linecap="round" stroke-linejoin="round" />
  <path
    d="M82.8392 295.75L83.1893 300.588C84.2124 300.761 85.2625 300.897 86.3395 300.997L86.2587 296.186C85.092 296.086 83.9432 295.941 82.8303 295.75H82.8392Z"
    fill="white" stroke="white" stroke-linecap="round" stroke-linejoin="round" />
  <path
    d="M90.2077 296.359C89.2115 296.359 88.2332 296.323 87.2639 296.268L87.3357 301.079C88.2781 301.143 89.2384 301.179 90.2077 301.179C99.3173 301.179 107.251 298.369 111.38 294.213L112.879 288.965C108.149 293.404 99.7661 296.359 90.2077 296.359Z"
    fill="white" stroke="white" stroke-linecap="round" stroke-linejoin="round" />
  <path
    d="M90.2077 296.359C104.981 296.359 116.962 289.302 116.962 280.589C116.962 271.877 104.981 264.82 90.2077 264.82C75.4349 264.82 63.4532 271.877 63.4532 280.589C63.4532 289.302 75.4349 296.359 90.2077 296.359Z"
    fill="#141327" stroke="white" stroke-linecap="round" stroke-linejoin="round" />
  <path
    d="M118.371 322.451L118.434 325.207C118.811 325.289 119.197 325.371 119.592 325.434L119.385 322.642C119.035 322.588 118.694 322.515 118.362 322.442L118.371 322.451Z"
    fill="#141327" stroke="white" stroke-linecap="round" stroke-linejoin="round" />
  <path
    d="M121.369 322.897L121.414 325.671C121.602 325.689 121.791 325.707 121.988 325.716L121.952 322.942C121.764 322.942 121.566 322.915 121.378 322.897H121.369Z"
    fill="#141327" stroke="white" stroke-linecap="round" stroke-linejoin="round" />
  <path
    d="M108.741 316.258L110.051 319.769C111.012 322.042 113.758 323.934 117.42 324.952L117.178 322.16C113.058 321.042 109.926 318.886 108.732 316.258H108.741Z"
    fill="#141327" stroke="white" stroke-linecap="round" stroke-linejoin="round" />
  <path
    d="M136.707 318.741L135.846 321.76C136.564 321.042 137.084 320.25 137.362 319.405L138.538 316.285C138.134 317.158 137.515 317.986 136.716 318.741H136.707Z"
    fill="#141327" stroke="white" stroke-linecap="round" stroke-linejoin="round" />
  <path
    d="M117.187 322.16L117.429 324.952C117.761 325.043 118.093 325.125 118.434 325.207L118.371 322.451C117.967 322.36 117.573 322.27 117.187 322.16Z"
    fill="white" stroke="white" stroke-linecap="round" stroke-linejoin="round" />
  <path
    d="M119.394 322.651L119.601 325.443C120.193 325.544 120.795 325.625 121.423 325.68L121.378 322.906C120.705 322.852 120.041 322.761 119.403 322.651H119.394Z"
    fill="white" stroke="white" stroke-linecap="round" stroke-linejoin="round" />
  <path
    d="M123.64 322.997C123.065 322.997 122.5 322.979 121.943 322.943L121.979 325.716C122.527 325.753 123.074 325.771 123.631 325.771C128.881 325.771 133.449 324.152 135.828 321.76L136.689 318.741C133.961 321.296 129.132 323.006 123.622 323.006H123.64V322.997Z"
    fill="white" stroke="white" stroke-linecap="round" stroke-linejoin="round" />
  <path
    d="M123.64 322.997C132.157 322.997 139.059 318.932 139.059 313.912C139.059 308.891 132.157 304.826 123.64 304.826C115.122 304.826 108.221 308.891 108.221 313.912C108.221 318.932 115.122 322.997 123.64 322.997Z"
    fill="#141327" stroke="white" stroke-linecap="round" stroke-linejoin="round" />
  <path
    d="M118.371 317.286L118.434 320.041C118.811 320.123 119.197 320.205 119.592 320.269L119.385 317.477C119.035 317.422 118.694 317.349 118.362 317.277L118.371 317.286Z"
    fill="#141327" stroke="white" stroke-linecap="round" stroke-linejoin="round" />
  <path
    d="M121.369 317.731L121.414 320.505C121.602 320.523 121.791 320.542 121.988 320.551L121.952 317.777C121.764 317.768 121.566 317.75 121.378 317.731H121.369Z"
    fill="#141327" stroke="white" stroke-linecap="round" stroke-linejoin="round" />
  <path
    d="M108.741 311.092L110.051 314.603C111.012 316.876 113.758 318.768 117.42 319.787L117.178 316.995C113.058 315.876 109.926 313.721 108.732 311.092H108.741Z"
    fill="#141327" stroke="white" stroke-linecap="round" stroke-linejoin="round" />
  <path
    d="M136.707 313.575L135.846 316.595C136.564 315.876 137.084 315.085 137.362 314.239L138.538 311.12C138.134 311.993 137.515 312.82 136.716 313.575H136.707Z"
    fill="#141327" stroke="white" stroke-linecap="round" stroke-linejoin="round" />
  <path
    d="M117.187 317.004L117.429 319.796C117.761 319.887 118.093 319.969 118.434 320.05L118.371 317.295C117.967 317.204 117.573 317.113 117.187 317.004Z"
    fill="white" stroke="white" stroke-linecap="round" stroke-linejoin="round" />
  <path
    d="M119.394 317.486L119.601 320.278C120.193 320.378 120.795 320.46 121.423 320.514L121.378 317.74C120.705 317.686 120.041 317.595 119.403 317.486H119.394Z"
    fill="white" stroke="white" stroke-linecap="round" stroke-linejoin="round" />
  <path
    d="M123.64 317.831C123.065 317.831 122.5 317.813 121.943 317.777L121.979 320.551C122.527 320.587 123.074 320.605 123.631 320.605C128.881 320.605 133.449 318.986 135.828 316.595L136.689 313.575C133.961 316.131 129.132 317.841 123.622 317.841H123.64V317.831Z"
    fill="white" stroke="white" stroke-linecap="round" stroke-linejoin="round" />
  <path
    d="M123.64 317.831C132.157 317.831 139.059 313.766 139.059 308.746C139.059 303.726 132.157 299.661 123.64 299.661C115.122 299.661 108.221 303.726 108.221 308.746C108.221 313.766 115.122 317.831 123.64 317.831Z"
    fill="#141327" stroke="white" stroke-linecap="round" stroke-linejoin="round" />
  <path
    d="M118.371 312.129L118.434 314.885C118.811 314.967 119.197 315.048 119.592 315.112L119.385 312.32C119.035 312.266 118.694 312.193 118.362 312.12L118.371 312.129Z"
    fill="#141327" stroke="white" stroke-linecap="round" stroke-linejoin="round" />
  <path
    d="M121.369 312.575L121.414 315.349C121.602 315.367 121.791 315.385 121.988 315.394L121.952 312.62C121.764 312.611 121.566 312.593 121.378 312.575H121.369Z"
    fill="#141327" stroke="white" stroke-linecap="round" stroke-linejoin="round" />
  <path
    d="M108.741 305.936L110.051 309.446C111.012 311.72 113.758 313.612 117.42 314.63L117.178 311.838C113.058 310.719 109.926 308.564 108.732 305.936H108.741Z"
    fill="#141327" stroke="white" stroke-linecap="round" stroke-linejoin="round" />
  <path
    d="M136.707 308.409L135.846 311.429C136.564 310.71 137.084 309.919 137.362 309.073L138.538 305.954C138.134 306.827 137.515 307.655 136.716 308.409H136.707Z"
    fill="#141327" stroke="white" stroke-linecap="round" stroke-linejoin="round" />
  <path
    d="M117.187 311.838L117.429 314.63C117.761 314.721 118.093 314.803 118.434 314.885L118.371 312.129C117.967 312.038 117.573 311.947 117.187 311.838Z"
    fill="white" stroke="white" stroke-linecap="round" stroke-linejoin="round" />
  <path
    d="M119.394 312.32L119.601 315.112C120.193 315.212 120.795 315.294 121.423 315.349L121.378 312.575C120.705 312.52 120.041 312.429 119.403 312.32H119.394Z"
    fill="white" stroke="white" stroke-linecap="round" stroke-linejoin="round" />
  <path
    d="M123.64 312.675C123.065 312.675 122.5 312.657 121.943 312.62L121.979 315.394C122.527 315.43 123.074 315.449 123.631 315.449C128.881 315.449 133.449 313.83 135.828 311.438L136.689 308.419C133.961 310.974 129.132 312.684 123.622 312.684H123.64V312.675Z"
    fill="white" stroke="white" stroke-linecap="round" stroke-linejoin="round" />
  <path
    d="M123.64 312.666C132.157 312.666 139.059 308.6 139.059 303.58C139.059 298.56 132.157 294.495 123.64 294.495C115.122 294.495 108.221 298.56 108.221 303.58C108.221 308.6 115.122 312.666 123.64 312.666Z"
    fill="#141327" stroke="white" stroke-linecap="round" stroke-linejoin="round" />
  <path
    d="M108.023 336.912L108.068 338.667C108.31 338.721 108.553 338.767 108.804 338.812L108.678 337.03C108.454 336.994 108.239 336.948 108.023 336.903V336.912Z"
    fill="#141327" stroke="white" stroke-linecap="round" stroke-linejoin="round" />
  <path
    d="M109.935 337.194L109.962 338.958C110.078 338.958 110.204 338.976 110.33 338.985L110.303 337.212C110.177 337.212 110.06 337.194 109.935 337.184V337.194Z"
    fill="#141327" stroke="white" stroke-linecap="round" stroke-linejoin="round" />
  <path
    d="M101.884 332.965L102.719 335.202C103.329 336.657 105.079 337.857 107.413 338.512L107.26 336.73C104.631 336.011 102.638 334.638 101.875 332.965H101.884Z"
    fill="#141327" stroke="white" stroke-linecap="round" stroke-linejoin="round" />
  <path
    d="M119.709 334.538L119.161 336.466C119.619 336.002 119.951 335.502 120.13 334.965L120.875 332.974C120.615 333.529 120.229 334.056 119.718 334.538H119.709Z"
    fill="#141327" stroke="white" stroke-linecap="round" stroke-linejoin="round" />
  <path
    d="M107.26 336.73L107.413 338.512C107.619 338.567 107.835 338.621 108.059 338.676L108.014 336.921C107.754 336.866 107.503 336.803 107.26 336.739V336.73Z"
    fill="white" stroke="white" stroke-linecap="round" stroke-linejoin="round" />
  <path
    d="M108.669 337.039L108.795 338.821C109.172 338.885 109.558 338.931 109.953 338.967L109.926 337.203C109.495 337.166 109.073 337.112 108.669 337.039Z"
    fill="white" stroke="white" stroke-linecap="round" stroke-linejoin="round" />
  <path
    d="M111.38 337.257C111.012 337.257 110.653 337.257 110.303 337.221L110.33 338.994C110.68 339.022 111.03 339.031 111.389 339.031C114.736 339.031 117.653 337.994 119.17 336.475L119.718 334.547C117.976 336.175 114.898 337.266 111.389 337.266L111.38 337.257Z"
    fill="white" stroke="white" stroke-linecap="round" stroke-linejoin="round" />
  <path
    d="M111.38 337.257C116.81 337.257 121.207 334.665 121.207 331.464C121.207 328.263 116.81 325.671 111.38 325.671C105.95 325.671 101.552 328.263 101.552 331.464C101.552 334.665 105.95 337.257 111.38 337.257Z"
    fill="#141327" stroke="white" stroke-linecap="round" stroke-linejoin="round" />
  <path
    d="M108.023 333.619L108.068 335.375C108.31 335.429 108.553 335.475 108.804 335.52L108.678 333.738C108.454 333.701 108.239 333.656 108.023 333.61V333.619Z"
    fill="#141327" stroke="white" stroke-linecap="round" stroke-linejoin="round" />
  <path
    d="M109.935 333.901L109.962 335.666C110.078 335.675 110.204 335.684 110.33 335.693L110.303 333.919C110.177 333.919 110.06 333.901 109.935 333.892V333.901Z"
    fill="#141327" stroke="white" stroke-linecap="round" stroke-linejoin="round" />
  <path
    d="M101.884 329.672L102.719 331.91C103.329 333.365 105.079 334.565 107.413 335.22L107.26 333.437C104.631 332.719 102.638 331.346 101.875 329.672H101.884Z"
    fill="#141327" stroke="white" stroke-linecap="round" stroke-linejoin="round" />
  <path
    d="M119.709 331.246L119.161 333.174C119.619 332.71 119.951 332.21 120.13 331.673L120.875 329.682C120.615 330.236 120.229 330.764 119.718 331.246H119.709Z"
    fill="#141327" stroke="white" stroke-linecap="round" stroke-linejoin="round" />
  <path
    d="M107.26 333.438L107.413 335.22C107.619 335.275 107.835 335.329 108.059 335.384L108.014 333.629C107.754 333.574 107.503 333.51 107.26 333.447V333.438Z"
    fill="white" stroke="white" stroke-linecap="round" stroke-linejoin="round" />
  <path
    d="M108.669 333.747L108.795 335.529C109.172 335.593 109.558 335.638 109.953 335.675L109.926 333.91C109.495 333.874 109.073 333.819 108.669 333.747Z"
    fill="white" stroke="white" stroke-linecap="round" stroke-linejoin="round" />
  <path
    d="M111.38 333.965C111.012 333.965 110.653 333.956 110.303 333.929L110.33 335.702C110.68 335.729 111.03 335.738 111.389 335.738C114.736 335.738 117.653 334.702 119.17 333.183L119.718 331.255C117.976 332.883 114.898 333.974 111.389 333.974L111.38 333.965Z"
    fill="white" stroke="white" stroke-linecap="round" stroke-linejoin="round" />
  <path
    d="M111.38 333.965C116.81 333.965 121.207 331.373 121.207 328.172C121.207 324.971 116.81 322.379 111.38 322.379C105.95 322.379 101.552 324.971 101.552 328.172C101.552 331.373 105.95 333.965 111.38 333.965Z"
    fill="#141327" stroke="white" stroke-linecap="round" stroke-linejoin="round" />
  <path
    d="M108.023 330.327L108.068 332.082C108.31 332.137 108.553 332.182 108.804 332.228L108.678 330.445C108.454 330.409 108.239 330.364 108.023 330.318V330.327Z"
    fill="#141327" stroke="white" stroke-linecap="round" stroke-linejoin="round" />
  <path
    d="M109.935 330.609L109.962 332.374C110.078 332.374 110.204 332.392 110.33 332.401L110.303 330.627C110.177 330.627 110.06 330.609 109.935 330.6V330.609Z"
    fill="#141327" stroke="white" stroke-linecap="round" stroke-linejoin="round" />
  <path
    d="M101.884 326.38L102.719 328.617C103.329 330.072 105.079 331.273 107.413 331.928L107.26 330.145C104.631 329.427 102.638 328.054 101.875 326.38H101.884Z"
    fill="#141327" stroke="white" stroke-linecap="round" stroke-linejoin="round" />
  <path
    d="M119.709 327.954L119.161 329.882C119.619 329.418 119.951 328.918 120.13 328.381L120.875 326.389C120.615 326.944 120.229 327.472 119.718 327.954H119.709Z"
    fill="#141327" stroke="white" stroke-linecap="round" stroke-linejoin="round" />
  <path
    d="M107.26 330.145L107.413 331.928C107.619 331.982 107.835 332.037 108.059 332.091L108.014 330.336C107.754 330.282 107.503 330.218 107.26 330.154V330.145Z"
    fill="white" stroke="white" stroke-linecap="round" stroke-linejoin="round" />
  <path
    d="M108.669 330.455L108.795 332.237C109.172 332.301 109.558 332.346 109.953 332.383L109.926 330.618C109.495 330.582 109.073 330.527 108.669 330.455Z"
    fill="white" stroke="white" stroke-linecap="round" stroke-linejoin="round" />
  <path
    d="M111.38 330.673C111.012 330.673 110.653 330.673 110.303 330.636L110.33 332.41C110.68 332.437 111.03 332.446 111.389 332.446C114.736 332.446 117.653 331.409 119.17 329.891L119.718 327.963C117.976 329.591 114.898 330.682 111.389 330.682L111.38 330.673Z"
    fill="white" stroke="white" stroke-linecap="round" stroke-linejoin="round" />
  <path
    d="M111.38 330.673C116.81 330.673 121.207 328.081 121.207 324.88C121.207 321.678 116.81 319.086 111.38 319.086C105.95 319.086 101.552 321.678 101.552 324.88C101.552 328.081 105.95 330.673 111.38 330.673Z"
    fill="#141327" stroke="white" stroke-linecap="round" stroke-linejoin="round" />
  <path d="M147.45 243.629L178.055 225.604L147.45 207.16L116.837 225.604L147.45 243.629Z" fill="#141327" stroke="white"
    stroke-linecap="round" stroke-linejoin="round" />
  <path
    d="M147.45 243.629L147.226 244.02C147.361 244.102 147.54 244.102 147.675 244.02L147.45 243.629ZM178.055 225.604L178.279 225.995C178.414 225.913 178.504 225.768 178.504 225.604C178.504 225.44 178.423 225.295 178.288 225.213L178.055 225.604ZM116.837 225.604L116.603 225.213C116.469 225.295 116.379 225.449 116.388 225.604C116.388 225.768 116.478 225.913 116.612 225.995L116.837 225.604ZM147.45 207.16L147.675 206.769C147.531 206.687 147.361 206.687 147.217 206.769L147.45 207.16ZM134.778 225.477L134.544 225.086C134.41 225.167 134.329 225.322 134.329 225.477C134.329 225.64 134.419 225.786 134.553 225.868L134.778 225.477ZM147.45 217.837H147.899C147.899 217.674 147.809 217.519 147.675 217.446C147.531 217.364 147.361 217.364 147.226 217.446L147.459 217.837H147.45ZM147.45 217.837H147.002C147.002 218.001 147.082 218.146 147.217 218.228L147.45 217.837ZM160.123 225.468L160.347 225.859C160.482 225.777 160.572 225.631 160.572 225.468C160.572 225.304 160.491 225.158 160.356 225.077L160.123 225.468ZM147.45 232.934L147.226 233.325C147.361 233.407 147.54 233.407 147.675 233.325L147.45 232.934ZM147.675 244.011L178.279 225.986L177.831 225.204L147.226 243.229L147.675 244.011ZM116.612 225.986L147.226 244.011L147.675 243.229L117.061 225.204L116.612 225.986ZM147.226 206.76L116.612 225.204L117.07 225.986L147.684 207.542L147.226 206.76ZM178.288 225.204L147.684 206.76L147.226 207.542L177.831 225.986L178.288 225.204ZM134.553 225.859L137.192 227.414L137.641 226.632L135.002 225.077L134.553 225.859ZM147.226 217.437L134.553 225.077L135.011 225.859L147.684 218.219L147.226 217.437ZM160.365 225.077L147.693 217.446L147.235 218.228L159.908 225.859L160.365 225.077ZM157.727 227.414L160.365 225.859L159.917 225.077L157.278 226.632L157.727 227.414ZM147.693 233.325L157.727 227.414L157.278 226.632L147.244 232.543L147.693 233.325ZM137.21 227.414L147.244 233.325L147.693 232.543L137.659 226.632L137.21 227.414Z"
    fill="white" />
  <path d="M134.778 225.477L137.416 227.032C140.728 225.04 147.45 220.984 147.45 220.984V217.837L134.778 225.477Z"
    fill="white" stroke="white" stroke-linecap="round" stroke-linejoin="round" />
  <path d="M147.45 217.846V220.984L157.484 227.032L160.123 225.477L147.45 217.846Z" stroke="white"
    stroke-linecap="round" stroke-linejoin="round" />
  <path
    d="M157.484 227.032L147.45 220.984C147.45 220.984 140.719 225.04 137.416 227.032L147.45 232.943L157.484 227.032Z"
    stroke="white" stroke-linecap="round" stroke-linejoin="round" />
  <path d="M178.055 225.604V251.969L147.45 269.994V243.629L178.055 225.604Z" fill="white" stroke="white"
    stroke-linecap="round" stroke-linejoin="round" />
  <path d="M116.837 225.604L147.45 243.629V269.994L116.837 251.969V225.604Z" fill="#141327" stroke="white"
    stroke-linecap="round" stroke-linejoin="round" />
  <path d="M140.854 214.818V221.493L147.441 217.637V210.962L140.854 214.818Z" fill="#141327" stroke="white"
    stroke-linecap="round" stroke-linejoin="round" />
  <path d="M154.047 214.818V221.493L147.45 217.637V210.962L154.047 214.818Z" fill="#141327" stroke="white"
    stroke-linecap="round" stroke-linejoin="round" />
  <path d="M147.45 225.322V218.647L140.863 214.791V221.466L147.45 225.322Z" fill="#141327" stroke="white"
    stroke-linecap="round" stroke-linejoin="round" />
  <path d="M147.45 225.322V218.647L154.038 214.791V221.466L147.45 225.322Z" fill="white" stroke="white"
    stroke-linecap="round" stroke-linejoin="round" />
  <path d="M140.863 214.791L147.45 210.962L154.038 214.791L147.45 218.647L140.863 214.791Z" fill="#141327"
    stroke="white" stroke-linecap="round" stroke-linejoin="round" />
  <path d="M140.854 194.546V201.222L147.441 197.366V190.69L140.854 194.546Z" fill="#141327" stroke="white"
    stroke-linecap="round" stroke-linejoin="round" />
  <path d="M154.047 194.546V201.222L147.45 197.366V190.69L154.047 194.546Z" fill="#141327" stroke="white"
    stroke-linecap="round" stroke-linejoin="round" />
  <path d="M147.45 205.05V198.375L140.863 194.519V201.194L147.45 205.05Z" fill="#141327" stroke="white"
    stroke-linecap="round" stroke-linejoin="round" />
  <path d="M147.45 205.05V198.375L154.038 194.519V201.194L147.45 205.05Z" fill="white" stroke="white"
    stroke-linecap="round" stroke-linejoin="round" />
  <path d="M140.863 194.519L147.45 190.69L154.038 194.519L147.45 198.375L140.863 194.519Z" fill="#141327" stroke="white"
    stroke-linecap="round" stroke-linejoin="round" />
  <path d="M140.854 165.708V172.383L147.441 168.527V161.852L140.854 165.708Z" fill="#141327" stroke="white"
    stroke-linecap="round" stroke-linejoin="round" />
  <path d="M154.047 165.708V172.383L147.45 168.527V161.852L154.047 165.708Z" fill="#141327" stroke="white"
    stroke-linecap="round" stroke-linejoin="round" />
  <path d="M147.45 176.212V169.527L140.863 165.671V172.356L147.45 176.212Z" fill="#141327" stroke="white"
    stroke-linecap="round" stroke-linejoin="round" />
  <path d="M147.45 176.212V169.527L154.038 165.671V172.356L147.45 176.212Z" fill="white" stroke="white"
    stroke-linecap="round" stroke-linejoin="round" />
  <path d="M140.863 165.671L147.45 161.852L154.038 165.671L147.45 169.527L140.863 165.671Z" fill="#141327"
    stroke="white" stroke-linecap="round" stroke-linejoin="round" />
  <path d="M140.854 124V130.685L147.441 126.829V120.153L140.854 124Z" fill="#141327" stroke="white"
    stroke-linecap="round" stroke-linejoin="round" />
  <path d="M154.047 124V130.685L147.45 126.829V120.153L154.047 124Z" fill="#141327" stroke="white"
    stroke-linecap="round" stroke-linejoin="round" />
  <path d="M147.45 134.504V127.829L140.863 123.973V130.648L147.45 134.504Z" fill="#141327" stroke="white"
    stroke-linecap="round" stroke-linejoin="round" />
  <path d="M147.45 134.504V127.829L154.038 123.973V130.648L147.45 134.504Z" fill="white" stroke="white"
    stroke-linecap="round" stroke-linejoin="round" />
  <path d="M140.863 123.973L147.45 120.153L154.038 123.973L147.45 127.829L140.863 123.973Z" fill="#141327"
    stroke="white" stroke-linecap="round" stroke-linejoin="round" />
  <path d="M224.833 315.931L305.024 365.832V248.413" stroke="white" stroke-linecap="round" stroke-linejoin="round" />
  <path d="M70.4896 269.94L54.3077 260.418" stroke="white" stroke-linecap="round" stroke-linejoin="round" />
  <path d="M91.3206 259.699V238.636" stroke="white" stroke-linecap="round" stroke-linejoin="round" />
  <path d="M252.135 332.328L255.348 330.427L252.135 328.499L248.922 330.427L252.135 332.328Z" fill="#141327"
    stroke="white" stroke-linecap="round" stroke-linejoin="round" />
  <path d="M252.135 335.739V332.328L255.348 330.427V333.865L252.135 335.739Z" fill="white" stroke="white"
    stroke-linecap="round" stroke-linejoin="round" />
  <path d="M248.922 333.801V330.427L252.135 332.328V335.739L248.922 333.801Z" fill="#141327" stroke="white"
    stroke-linecap="round" stroke-linejoin="round" />
  <path d="M305.033 366.032L308.246 364.131L305.033 362.203L301.82 364.131L305.033 366.032Z" fill="#141327"
    stroke="white" stroke-linecap="round" stroke-linejoin="round" />
  <path d="M305.033 369.443V366.032L308.246 364.131V367.569L305.033 369.443Z" fill="white" stroke="white"
    stroke-linecap="round" stroke-linejoin="round" />
  <path d="M301.82 367.505V364.131L305.033 366.032V369.443L301.82 367.505Z" fill="#141327" stroke="white"
    stroke-linecap="round" stroke-linejoin="round" />
  <path d="M305.033 304.681L308.246 302.78L305.033 300.852L301.82 302.78L305.033 304.681Z" fill="#141327" stroke="white"
    stroke-linecap="round" stroke-linejoin="round" />
  <path d="M305.033 308.091V304.681L308.246 302.78V306.218L305.033 308.091Z" fill="white" stroke="white"
    stroke-linecap="round" stroke-linejoin="round" />
  <path d="M301.82 306.154V302.78L305.033 304.681V308.091L301.82 306.154Z" fill="#141327" stroke="white"
    stroke-linecap="round" stroke-linejoin="round" />
  <path d="M91.3206 248.304L94.5337 246.412L91.3206 244.475L88.1076 246.412L91.3206 248.304Z" fill="#141327"
    stroke="white" stroke-linecap="round" stroke-linejoin="round" />
  <path d="M91.3206 251.714V248.304L94.5337 246.412V249.841L91.3206 251.714Z" fill="white" stroke="white"
    stroke-linecap="round" stroke-linejoin="round" />
  <path d="M88.1076 249.777V246.412L91.3206 248.304V251.714L88.1076 249.777Z" fill="#141327" stroke="white"
    stroke-linecap="round" stroke-linejoin="round" />
  <path d="M54.3077 260.627L57.5208 258.735L54.3077 256.798L51.0947 258.735L54.3077 260.627Z" fill="#141327"
    stroke="white" stroke-linecap="round" stroke-linejoin="round" />
  <path d="M54.3077 264.037V260.627L57.5208 258.735V262.164L54.3077 264.037Z" fill="white" stroke="white"
    stroke-linecap="round" stroke-linejoin="round" />
  <path d="M51.0947 262.1V258.735L54.3077 260.627V264.037L51.0947 262.1Z" fill="#141327" stroke="white"
    stroke-linecap="round" stroke-linejoin="round" />
  <path d="M91.3206 238.636L54.3077 260.418" stroke="white" stroke-linecap="round" stroke-linejoin="round" />
  <path d="M275.174 230.415L226.224 259.217" stroke="white" stroke-linecap="round" stroke-linejoin="round" />
  <path d="M238.017 252.487L241.23 250.596L238.017 248.659L234.804 250.596L238.017 252.487Z" fill="#141327"
    stroke="white" stroke-linecap="round" stroke-linejoin="round" />
  <path d="M238.017 255.898V252.487L241.23 250.596V254.024L238.017 255.898Z" fill="white" stroke="white"
    stroke-linecap="round" stroke-linejoin="round" />
  <path d="M234.804 253.961V250.596L238.017 252.487V255.898L234.804 253.961Z" fill="#141327" stroke="white"
    stroke-linecap="round" stroke-linejoin="round" />
  <path d="M688.948 139.707L681.885 135.55L688.948 131.303L696.011 135.55L688.948 139.707Z" fill="#141327"
    stroke="white" stroke-linecap="round" stroke-linejoin="round" />
  <path d="M670.091 150.784L663.028 146.627L670.091 142.371L677.155 146.627L670.091 150.784Z" fill="#141327"
    stroke="white" stroke-linecap="round" stroke-linejoin="round" />
  <path d="M651.226 161.852L644.163 157.695L651.226 153.448L658.289 157.695L651.226 161.852Z" fill="#141327"
    stroke="white" stroke-linecap="round" stroke-linejoin="round" />
  <path d="M632.37 172.92L625.306 168.772L632.37 164.516L639.433 168.772L632.37 172.92Z" fill="#141327" stroke="white"
    stroke-linecap="round" stroke-linejoin="round" />
  <path d="M520.155 139.707L527.218 135.55L520.155 131.303L513.092 135.55L520.155 139.707Z" fill="#141327"
    stroke="white" stroke-linecap="round" stroke-linejoin="round" />
  <path d="M539.012 150.784L546.075 146.627L539.012 142.371L531.948 146.627L539.012 150.784Z" fill="#141327"
    stroke="white" stroke-linecap="round" stroke-linejoin="round" />
  <path d="M557.877 161.852L564.94 157.695L557.877 153.448L550.814 157.695L557.877 161.852Z" fill="#141327"
    stroke="white" stroke-linecap="round" stroke-linejoin="round" />
  <path d="M576.742 172.92L583.806 168.772L576.742 164.516L569.679 168.772L576.742 172.92Z" fill="#141327"
    stroke="white" stroke-linecap="round" stroke-linejoin="round" />
  <path d="M604.556 172.338L701.701 115.133L604.556 56.601L507.411 115.133L604.556 172.338Z" fill="#141327"
    stroke="white" stroke-linecap="round" stroke-linejoin="round" />
  <path d="M701.701 115.133V123.309L604.556 180.514V172.338L701.701 115.133Z" fill="white" stroke="white"
    stroke-linecap="round" stroke-linejoin="round" />
  <path d="M507.402 115.133V123.309L604.547 180.514V172.338L507.402 115.133Z" fill="#141327" stroke="white"
    stroke-linecap="round" stroke-linejoin="round" />
  <path d="M693.83 114.469L604.556 167.017L515.273 114.469L604.556 61.9213L693.83 114.469Z" fill="#141327" />
  <path
    d="M606.109 118.007L606.477 117.789C607.249 117.334 608.029 117.107 608.819 117.098C609.609 117.098 610.39 117.316 611.144 117.762C611.987 118.262 612.382 118.735 612.328 119.208C612.275 119.671 611.772 120.19 610.794 120.763L604.35 124.555C603.362 125.137 602.483 125.437 601.702 125.465C600.921 125.492 600.104 125.255 599.252 124.755C598.426 124.264 598.04 123.8 598.094 123.346C598.148 122.891 598.668 122.372 599.656 121.79L600.41 121.345L597.026 120.39L587.773 125.837L589.361 127.856L590.115 127.42C591.085 126.847 591.964 126.547 592.754 126.51C593.535 126.474 594.342 126.701 595.15 127.174C595.994 127.665 596.389 128.147 596.335 128.62C596.29 129.084 595.778 129.603 594.8 130.176L589.272 133.431C588.284 134.013 587.405 134.314 586.615 134.341C585.834 134.368 585.017 134.132 584.174 133.631C583.42 133.186 583.043 132.731 583.052 132.267C583.052 131.803 583.447 131.34 584.219 130.885L584.587 130.667L574.346 117.88L572.632 118.889C571.663 119.462 570.783 119.762 569.984 119.79C569.195 119.817 568.378 119.59 567.552 119.108C566.708 118.607 566.314 118.134 566.367 117.661C566.421 117.198 566.924 116.679 567.902 116.106L575.935 111.377C577.209 110.631 578.78 110.504 580.665 111.013L580.727 111.05L606.109 117.998V118.007ZM578.905 115.206L584.838 122.354L591.049 118.698L578.905 115.206Z"
    fill="white" />
  <path
    d="M608.424 97.8355L624.4 107.239L627.999 105.12C628.968 104.547 629.848 104.247 630.637 104.211C631.427 104.174 632.226 104.402 633.034 104.875C633.859 105.366 634.254 105.848 634.2 106.321C634.147 106.794 633.644 107.312 632.693 107.876L619.966 115.361C618.997 115.934 618.117 116.234 617.318 116.261C616.529 116.288 615.712 116.061 614.868 115.561C614.043 115.07 613.657 114.606 613.711 114.151C613.764 113.696 614.285 113.178 615.272 112.596L618.871 110.477L602.896 101.073L599.297 103.192C598.327 103.765 597.448 104.065 596.649 104.092C595.859 104.12 595.043 103.892 594.217 103.41C593.373 102.919 592.978 102.437 593.041 101.983C593.104 101.528 593.616 101.009 594.603 100.427L607.329 92.9426C608.343 92.3424 609.232 92.0332 609.986 92.0059C610.74 91.9786 611.539 92.2151 612.382 92.7153C613.208 93.2064 613.603 93.6793 613.558 94.1431C613.513 94.6069 613.001 95.1253 612.014 95.7074L608.415 97.8264L608.424 97.8355Z"
    fill="white" />
  <rect x="487.445" y="76.4448" width="26.72" height="27.1024" rx="13.36" fill="#141327" />
  <path
    d="M501.291 96.496C501.159 96.496 501.051 96.454 500.967 96.37C500.895 96.286 500.859 96.184 500.859 96.064V86.74L498.123 88.846C498.015 88.918 497.907 88.948 497.799 88.936C497.691 88.912 497.595 88.846 497.511 88.738L496.755 87.766C496.683 87.658 496.653 87.544 496.665 87.424C496.689 87.304 496.755 87.208 496.863 87.136L500.895 84.022C500.967 83.962 501.039 83.926 501.111 83.914C501.183 83.902 501.261 83.896 501.345 83.896H502.929C503.049 83.896 503.151 83.938 503.235 84.022C503.319 84.106 503.361 84.208 503.361 84.328V96.064C503.361 96.184 503.319 96.286 503.235 96.37C503.151 96.454 503.049 96.496 502.929 96.496H501.291Z"
    fill="white" />
  <rect x="487.445" y="76.4448" width="26.72" height="27.1024" rx="13.36" stroke="white" stroke-width="2" />
  <rect x="303.457" y="118.28" width="26.72" height="27.1024" rx="13.36" fill="#141327" />
  <path
    d="M312.06 138.331C311.94 138.331 311.838 138.289 311.754 138.205C311.67 138.121 311.628 138.019 311.628 137.899V136.981C311.628 136.873 311.652 136.747 311.7 136.603C311.76 136.447 311.886 136.291 312.078 136.135L314.922 133.309C315.714 132.685 316.35 132.157 316.83 131.725C317.322 131.281 317.676 130.879 317.892 130.519C318.12 130.147 318.234 129.781 318.234 129.421C318.234 128.881 318.084 128.443 317.784 128.107C317.496 127.771 317.034 127.603 316.398 127.603C315.978 127.603 315.624 127.693 315.336 127.873C315.048 128.041 314.82 128.269 314.652 128.557C314.496 128.845 314.388 129.163 314.328 129.511C314.304 129.667 314.238 129.775 314.13 129.835C314.022 129.895 313.914 129.925 313.806 129.925H312.204C312.096 129.925 312.006 129.889 311.934 129.817C311.862 129.745 311.826 129.661 311.826 129.565C311.838 129.049 311.946 128.551 312.15 128.071C312.354 127.579 312.648 127.147 313.032 126.775C313.428 126.391 313.908 126.085 314.472 125.857C315.036 125.629 315.672 125.515 316.38 125.515C317.376 125.515 318.198 125.683 318.846 126.019C319.506 126.355 319.998 126.811 320.322 127.387C320.658 127.963 320.826 128.611 320.826 129.331C320.826 129.895 320.718 130.417 320.502 130.897C320.286 131.365 319.974 131.821 319.566 132.265C319.158 132.697 318.666 133.141 318.09 133.597L315.534 136.189H320.664C320.796 136.189 320.898 136.231 320.97 136.315C321.054 136.387 321.096 136.489 321.096 136.621V137.899C321.096 138.019 321.054 138.121 320.97 138.205C320.898 138.289 320.796 138.331 320.664 138.331H312.06Z"
    fill="white" />
  <rect x="303.457" y="118.28" width="26.72" height="27.1024" rx="13.36" stroke="white" stroke-width="2" />
  <rect x="199.348" y="203.768" width="26.72" height="27.1024" rx="13.36" fill="#141327" />
  <path
    d="M212.306 223.999C211.466 223.999 210.74 223.897 210.128 223.693C209.516 223.489 209.006 223.225 208.598 222.901C208.202 222.565 207.902 222.205 207.698 221.821C207.494 221.425 207.386 221.035 207.374 220.651C207.374 220.543 207.41 220.459 207.482 220.399C207.566 220.327 207.662 220.291 207.77 220.291H209.39C209.51 220.291 209.612 220.315 209.696 220.363C209.78 220.411 209.852 220.507 209.912 220.651C210.02 220.975 210.194 221.233 210.434 221.425C210.686 221.617 210.974 221.755 211.298 221.839C211.622 221.911 211.964 221.947 212.324 221.947C213.044 221.947 213.614 221.779 214.034 221.443C214.466 221.095 214.682 220.603 214.682 219.967C214.682 219.331 214.484 218.875 214.088 218.599C213.692 218.311 213.14 218.167 212.432 218.167H210.578C210.446 218.167 210.338 218.131 210.254 218.059C210.17 217.975 210.128 217.867 210.128 217.735V216.979C210.128 216.859 210.152 216.757 210.2 216.673C210.26 216.577 210.32 216.499 210.38 216.439L213.602 213.289H208.454C208.322 213.289 208.214 213.247 208.13 213.163C208.058 213.079 208.022 212.977 208.022 212.857V211.669C208.022 211.537 208.058 211.429 208.13 211.345C208.214 211.261 208.322 211.219 208.454 211.219H216.176C216.308 211.219 216.416 211.261 216.5 211.345C216.584 211.429 216.626 211.537 216.626 211.669V212.749C216.626 212.857 216.602 212.953 216.554 213.037C216.506 213.121 216.452 213.193 216.392 213.253L213.278 216.457L213.494 216.475C214.226 216.535 214.874 216.703 215.438 216.979C216.014 217.243 216.458 217.633 216.77 218.149C217.094 218.665 217.256 219.313 217.256 220.093C217.256 220.909 217.04 221.611 216.608 222.199C216.188 222.775 215.606 223.219 214.862 223.531C214.118 223.843 213.266 223.999 212.306 223.999Z"
    fill="white" />
  <rect x="199.348" y="203.768" width="26.72" height="27.1024" rx="13.36" stroke="white" stroke-width="2" />
  <rect x="521.889" y="279.17" width="149" height="40" rx="4" fill="#141327" />
  <rect x="521.889" y="279.17" width="149" height="40" rx="4" fill="url(#paint1_linear_721_22671)" fill-opacity="0.2" />
  <rect x="521.889" y="279.17" width="149" height="40" rx="4" fill="url(#paint2_linear_721_22671)" fill-opacity="0.2" />
  <path
    d="M549.491 301.269H545.114L544.675 302.368H545.114C545.548 302.368 545.856 302.453 546.037 302.623C546.225 302.787 546.318 303.004 546.318 303.273C546.318 303.537 546.225 303.754 546.037 303.923C545.856 304.088 545.548 304.17 545.114 304.17H542.689C542.255 304.17 541.947 304.088 541.766 303.923C541.578 303.754 541.484 303.534 541.484 303.264C541.484 302.995 541.581 302.775 541.775 302.605C541.968 302.435 542.287 302.356 542.733 302.368L545.563 295.319H544.385C543.951 295.319 543.641 295.237 543.453 295.073C543.272 294.903 543.181 294.683 543.181 294.414C543.181 294.144 543.272 293.927 543.453 293.763C543.641 293.593 543.951 293.508 544.385 293.508L548.278 293.517L551.864 302.368C552.286 302.368 552.565 302.415 552.699 302.508C552.969 302.702 553.104 302.957 553.104 303.273C553.104 303.537 553.013 303.754 552.831 303.923C552.65 304.088 552.342 304.17 551.908 304.17H549.483C549.049 304.17 548.738 304.088 548.551 303.923C548.369 303.754 548.278 303.534 548.278 303.264C548.278 303.001 548.369 302.787 548.551 302.623C548.738 302.453 549.049 302.368 549.483 302.368H549.922L549.491 301.269ZM548.744 299.467L547.294 295.899L545.835 299.467H548.744ZM559.001 295.319V302.368H560.82C561.254 302.368 561.562 302.453 561.743 302.623C561.931 302.787 562.025 303.004 562.025 303.273C562.025 303.537 561.931 303.754 561.743 303.923C561.562 304.088 561.254 304.17 560.82 304.17H555.38C554.946 304.17 554.636 304.088 554.448 303.923C554.267 303.754 554.176 303.534 554.176 303.264C554.176 303.001 554.267 302.787 554.448 302.623C554.636 302.453 554.946 302.368 555.38 302.368H557.199V295.319H555.38C554.946 295.319 554.636 295.237 554.448 295.073C554.267 294.903 554.176 294.683 554.176 294.414C554.176 294.144 554.267 293.927 554.448 293.763C554.636 293.593 554.946 293.508 555.38 293.508L560.82 293.517C561.254 293.517 561.562 293.599 561.743 293.763C561.931 293.927 562.025 294.144 562.025 294.414C562.025 294.683 561.931 294.903 561.743 295.073C561.562 295.237 561.254 295.319 560.82 295.319H559.001ZM577.484 303.176V306.13H578.566C578.999 306.13 579.307 306.212 579.488 306.376C579.676 306.546 579.77 306.765 579.77 307.035C579.77 307.298 579.676 307.512 579.488 307.676C579.307 307.846 578.999 307.931 578.566 307.931H575.375C574.942 307.931 574.631 307.846 574.443 307.676C574.262 307.512 574.171 307.298 574.171 307.035C574.171 306.765 574.265 306.546 574.452 306.376C574.64 306.212 574.947 306.13 575.375 306.13H575.683V297.991H575.375C574.942 297.991 574.631 297.909 574.443 297.745C574.262 297.575 574.171 297.355 574.171 297.086C574.171 296.822 574.262 296.608 574.443 296.444C574.631 296.274 574.942 296.189 575.375 296.189H577.484V296.804C577.906 296.517 578.343 296.303 578.794 296.163C579.245 296.022 579.708 295.952 580.183 295.952C581.413 295.952 582.462 296.371 583.329 297.209C584.196 298.041 584.63 298.996 584.63 300.074C584.63 301.263 584.117 302.245 583.092 303.018C582.236 303.663 581.273 303.985 580.2 303.985C579.737 303.985 579.28 303.918 578.829 303.783C578.378 303.648 577.93 303.446 577.484 303.176ZM582.828 300.083C582.828 299.831 582.729 299.511 582.529 299.125C582.33 298.732 582.023 298.407 581.607 298.149C581.196 297.885 580.713 297.754 580.156 297.754C579.26 297.754 578.548 298.09 578.021 298.764C577.663 299.227 577.484 299.672 577.484 300.1C577.484 300.581 577.739 301.049 578.249 301.506C578.765 301.958 579.401 302.183 580.156 302.183C580.918 302.183 581.554 301.958 582.064 301.506C582.573 301.055 582.828 300.581 582.828 300.083ZM590.158 296.189V297.314C590.914 296.769 591.509 296.406 591.943 296.224C592.382 296.043 592.792 295.952 593.173 295.952C593.759 295.952 594.327 296.169 594.878 296.602C595.253 296.895 595.441 297.194 595.441 297.499C595.441 297.756 595.35 297.976 595.168 298.158C594.992 298.334 594.778 298.422 594.526 298.422C594.304 298.422 594.069 298.31 593.823 298.088C593.577 297.865 593.358 297.754 593.164 297.754C592.912 297.754 592.534 297.912 592.03 298.228C591.532 298.545 590.908 299.019 590.158 299.652V302.368H592.725C593.158 302.368 593.466 302.453 593.648 302.623C593.835 302.787 593.929 303.004 593.929 303.273C593.929 303.537 593.835 303.754 593.648 303.923C593.466 304.088 593.158 304.17 592.725 304.17H587.284C586.851 304.17 586.54 304.088 586.353 303.923C586.171 303.754 586.08 303.534 586.08 303.264C586.08 303.001 586.171 302.787 586.353 302.623C586.54 302.453 586.851 302.368 587.284 302.368H588.357V297.991H587.706C587.273 297.991 586.962 297.909 586.775 297.745C586.593 297.575 586.502 297.355 586.502 297.086C586.502 296.822 586.593 296.608 586.775 296.444C586.962 296.274 587.273 296.189 587.706 296.189H590.158ZM606.023 300.329C606.023 301.02 605.829 301.691 605.443 302.341C605.062 302.986 604.49 303.502 603.729 303.888C602.973 304.269 602.182 304.46 601.356 304.46C600.535 304.46 599.75 304.272 599 303.897C598.25 303.516 597.679 303.001 597.286 302.35C596.894 301.7 596.697 301.02 596.697 300.311C596.697 299.59 596.897 298.884 597.295 298.193C597.693 297.496 598.265 296.948 599.009 296.549C599.759 296.151 600.541 295.952 601.356 295.952C602.176 295.952 602.964 296.157 603.72 296.567C604.482 296.971 605.056 297.519 605.443 298.211C605.829 298.896 606.023 299.602 606.023 300.329ZM604.221 300.338C604.221 299.757 604.013 299.224 603.597 298.738C603.028 298.082 602.281 297.754 601.356 297.754C600.541 297.754 599.861 298.014 599.317 298.536C598.772 299.057 598.499 299.661 598.499 300.346C598.499 300.909 598.775 301.436 599.325 301.928C599.876 302.415 600.553 302.658 601.356 302.658C602.164 302.658 602.844 302.415 603.395 301.928C603.945 301.436 604.221 300.906 604.221 300.338ZM614.135 296.725V296.189H616.244C616.678 296.189 616.985 296.274 617.167 296.444C617.355 296.608 617.448 296.825 617.448 297.094C617.448 297.358 617.355 297.575 617.167 297.745C616.985 297.909 616.678 297.991 616.244 297.991H615.937V304.547C615.937 305.18 615.802 305.731 615.532 306.2C615.269 306.674 614.861 307.082 614.311 307.422C613.76 307.761 613.139 307.931 612.447 307.931H610.408C609.975 307.931 609.664 307.846 609.477 307.676C609.295 307.512 609.204 307.298 609.204 307.035C609.204 306.765 609.295 306.546 609.477 306.376C609.664 306.212 609.975 306.13 610.408 306.13H612.395C612.945 306.13 613.373 305.98 613.678 305.681C613.983 305.382 614.135 305.005 614.135 304.547V303.669C613.736 303.926 613.329 304.12 612.913 304.249C612.503 304.378 612.081 304.442 611.648 304.442C610.423 304.442 609.398 304.035 608.571 303.22C607.745 302.4 607.332 301.389 607.332 300.188C607.332 298.981 607.745 297.97 608.571 297.156C609.398 296.336 610.423 295.925 611.648 295.925C612.105 295.925 612.538 295.993 612.948 296.128C613.364 296.256 613.76 296.456 614.135 296.725ZM614.126 300.179C614.126 299.517 613.88 298.943 613.388 298.457C612.901 297.97 612.316 297.727 611.63 297.727C610.944 297.727 610.356 297.97 609.863 298.457C609.377 298.943 609.134 299.517 609.134 300.179C609.134 300.847 609.377 301.424 609.863 301.911C610.356 302.391 610.944 302.631 611.63 302.631C612.316 302.631 612.901 302.391 613.388 301.911C613.88 301.424 614.126 300.847 614.126 300.179ZM622.59 296.189V297.314C623.346 296.769 623.941 296.406 624.374 296.224C624.814 296.043 625.224 295.952 625.605 295.952C626.191 295.952 626.759 296.169 627.31 296.602C627.685 296.895 627.872 297.194 627.872 297.499C627.872 297.756 627.781 297.976 627.6 298.158C627.424 298.334 627.21 298.422 626.958 298.422C626.735 298.422 626.501 298.31 626.255 298.088C626.009 297.865 625.789 297.754 625.596 297.754C625.344 297.754 624.966 297.912 624.462 298.228C623.964 298.545 623.34 299.019 622.59 299.652V302.368H625.156C625.59 302.368 625.898 302.453 626.079 302.623C626.267 302.787 626.36 303.004 626.36 303.273C626.36 303.537 626.267 303.754 626.079 303.923C625.898 304.088 625.59 304.17 625.156 304.17H619.716C619.282 304.17 618.972 304.088 618.784 303.923C618.603 303.754 618.512 303.534 618.512 303.264C618.512 303.001 618.603 302.787 618.784 302.623C618.972 302.453 619.282 302.368 619.716 302.368H620.788V297.991H620.138C619.704 297.991 619.394 297.909 619.206 297.745C619.025 297.575 618.934 297.355 618.934 297.086C618.934 296.822 619.025 296.608 619.206 296.444C619.394 296.274 619.704 296.189 620.138 296.189H622.59ZM635.396 304.17V303.748C634.944 303.988 634.446 304.167 633.901 304.284C633.357 304.407 632.861 304.468 632.416 304.468C631.449 304.468 630.664 304.214 630.061 303.704C629.457 303.188 629.155 302.62 629.155 301.999C629.155 301.243 629.539 300.543 630.307 299.898C631.08 299.248 632.147 298.922 633.506 298.922C634.051 298.922 634.681 298.981 635.396 299.098V298.668C635.396 298.398 635.278 298.178 635.044 298.008C634.816 297.839 634.376 297.754 633.726 297.754C633.193 297.754 632.501 297.859 631.651 298.07C631.335 298.146 631.089 298.184 630.913 298.184C630.673 298.184 630.468 298.099 630.298 297.929C630.134 297.754 630.052 297.531 630.052 297.261C630.052 297.109 630.081 296.977 630.14 296.866C630.198 296.755 630.28 296.667 630.386 296.602C630.491 296.532 630.711 296.45 631.045 296.356C631.49 296.233 631.944 296.136 632.407 296.066C632.87 295.99 633.289 295.952 633.664 295.952C634.783 295.952 635.651 296.195 636.266 296.681C636.887 297.162 637.197 297.821 637.197 298.659V302.368H637.505C637.939 302.368 638.246 302.453 638.428 302.623C638.615 302.787 638.709 303.004 638.709 303.273C638.709 303.537 638.615 303.754 638.428 303.923C638.246 304.088 637.939 304.17 637.505 304.17H635.396ZM635.396 300.944C634.675 300.803 634.01 300.733 633.401 300.733C632.668 300.733 632.038 300.912 631.511 301.269C631.183 301.498 631.019 301.729 631.019 301.964C631.019 302.133 631.098 302.271 631.256 302.377C631.549 302.57 631.95 302.667 632.46 302.667C632.894 302.667 633.383 302.582 633.928 302.412C634.479 302.242 634.968 302.01 635.396 301.717V300.944ZM641.803 296.189V296.699C642.096 296.412 642.359 296.215 642.594 296.11C642.834 295.999 643.109 295.943 643.42 295.943C643.684 295.943 643.944 296.007 644.202 296.136C644.46 296.265 644.712 296.459 644.958 296.716C645.269 296.459 645.582 296.268 645.899 296.145C646.221 296.016 646.549 295.952 646.883 295.952C647.551 295.952 648.093 296.13 648.509 296.488C649.06 296.957 649.335 297.572 649.335 298.334V302.368C649.71 302.368 649.988 302.453 650.17 302.623C650.352 302.793 650.443 303.009 650.443 303.273C650.443 303.537 650.352 303.754 650.17 303.923C649.988 304.088 649.681 304.17 649.247 304.17H647.533V298.483C647.533 298.208 647.484 298.017 647.384 297.912C647.284 297.806 647.132 297.754 646.927 297.754C646.728 297.754 646.543 297.806 646.373 297.912C646.156 298.058 645.893 298.334 645.582 298.738V302.368C645.957 302.368 646.235 302.453 646.417 302.623C646.599 302.793 646.69 303.009 646.69 303.273C646.69 303.537 646.599 303.754 646.417 303.923C646.235 304.088 645.928 304.17 645.494 304.17H643.78V298.483C643.78 298.214 643.728 298.026 643.622 297.921C643.523 297.809 643.37 297.754 643.165 297.754C642.954 297.754 642.746 297.821 642.541 297.956C642.336 298.085 642.09 298.345 641.803 298.738V302.368C642.178 302.368 642.456 302.453 642.638 302.623C642.825 302.793 642.919 303.009 642.919 303.273C642.919 303.537 642.825 303.754 642.638 303.923C642.456 304.088 642.149 304.17 641.715 304.17H640.089C639.655 304.17 639.348 304.088 639.166 303.923C638.979 303.754 638.885 303.534 638.885 303.264C638.885 303.001 638.976 302.787 639.157 302.623C639.339 302.453 639.62 302.368 640.001 302.368V297.991C639.62 297.991 639.339 297.906 639.157 297.736C638.976 297.566 638.885 297.349 638.885 297.086C638.885 296.822 638.979 296.608 639.166 296.444C639.348 296.274 639.655 296.189 640.089 296.189H641.803Z"
    fill="white" />
  <rect x="522.389" y="279.67" width="148" height="39" rx="3.5" stroke="white" stroke-opacity="0.1" />
  <defs>
    <filter id="filter0_bddiiiiii_721_22671" x="124.919" y="12.7609" width="552.062" height="463.497"
      filterUnits="userSpaceOnUse" color-interpolation-filters="sRGB">
      <feFlood flood-opacity="0" result="BackgroundImageFix" />
      <feGaussianBlur in="BackgroundImageFix" stdDeviation="50" />
      <feComposite in2="SourceAlpha" operator="in" result="effect1_backgroundBlur_721_22671" />
      <feColorMatrix in="SourceAlpha" type="matrix" values="0 0 0 0 0 0 0 0 0 0 0 0 0 0 0 0 0 0 127 0"
        result="hardAlpha" />
      <feMorphology radius="26" operator="dilate" in="SourceAlpha" result="effect2_dropShadow_721_22671" />
      <feOffset dy="-18" />
      <feGaussianBlur stdDeviation="30" />
      <feComposite in2="hardAlpha" operator="out" />
      <feColorMatrix type="matrix" values="0 0 0 0 0 0 0 0 0 0.329412 0 0 0 0 1 0 0 0 0.31 0" />
      <feBlend mode="normal" in2="effect1_backgroundBlur_721_22671" result="effect2_dropShadow_721_22671" />
      <feColorMatrix in="SourceAlpha" type="matrix" values="0 0 0 0 0 0 0 0 0 0 0 0 0 0 0 0 0 0 127 0"
        result="hardAlpha" />
      <feMorphology radius="44" operator="dilate" in="SourceAlpha" result="effect3_dropShadow_721_22671" />
      <feOffset dx="24" dy="40" />
      <feGaussianBlur stdDeviation="61" />
      <feComposite in2="hardAlpha" operator="out" />
      <feColorMatrix type="matrix" values="0 0 0 0 0 0 0 0 0 0.4 0 0 0 0 1 0 0 0 0.6 0" />
      <feBlend mode="normal" in2="effect2_dropShadow_721_22671" result="effect3_dropShadow_721_22671" />
      <feBlend mode="normal" in="SourceGraphic" in2="effect3_dropShadow_721_22671" result="shape" />
      <feColorMatrix in="SourceAlpha" type="matrix" values="0 0 0 0 0 0 0 0 0 0 0 0 0 0 0 0 0 0 127 0"
        result="hardAlpha" />
      <feMorphology radius="64" operator="dilate" in="SourceAlpha" result="effect4_innerShadow_721_22671" />
      <feOffset dy="-82" />
      <feGaussianBlur stdDeviation="34" />
      <feComposite in2="hardAlpha" operator="arithmetic" k2="-1" k3="1" />
      <feColorMatrix type="matrix" values="0 0 0 0 0.266667 0 0 0 0 0.385882 0 0 0 0 0.564706 0 0 0 0.3 0" />
      <feBlend mode="normal" in2="shape" result="effect4_innerShadow_721_22671" />
      <feColorMatrix in="SourceAlpha" type="matrix" values="0 0 0 0 0 0 0 0 0 0 0 0 0 0 0 0 0 0 127 0"
        result="hardAlpha" />
      <feMorphology radius="4" operator="dilate" in="SourceAlpha" result="effect5_innerShadow_721_22671" />
      <feOffset dy="7" />
      <feGaussianBlur stdDeviation="5.5" />
      <feComposite in2="hardAlpha" operator="arithmetic" k2="-1" k3="1" />
      <feColorMatrix type="matrix" values="0 0 0 0 1 0 0 0 0 1 0 0 0 0 1 0 0 0 1 0" />
      <feBlend mode="normal" in2="effect4_innerShadow_721_22671" result="effect5_innerShadow_721_22671" />
      <feColorMatrix in="SourceAlpha" type="matrix" values="0 0 0 0 0 0 0 0 0 0 0 0 0 0 0 0 0 0 127 0"
        result="hardAlpha" />
      <feMorphology radius="36" operator="dilate" in="SourceAlpha" result="effect6_innerShadow_721_22671" />
      <feOffset dy="39" />
      <feGaussianBlur stdDeviation="28" />
      <feComposite in2="hardAlpha" operator="arithmetic" k2="-1" k3="1" />
      <feColorMatrix type="matrix" values="0 0 0 0 1 0 0 0 0 1 0 0 0 0 1 0 0 0 0.5 0" />
      <feBlend mode="normal" in2="effect5_innerShadow_721_22671" result="effect6_innerShadow_721_22671" />
      <feColorMatrix in="SourceAlpha" type="matrix" values="0 0 0 0 0 0 0 0 0 0 0 0 0 0 0 0 0 0 127 0"
        result="hardAlpha" />
      <feOffset dy="1" />
      <feGaussianBlur stdDeviation="20" />
      <feComposite in2="hardAlpha" operator="arithmetic" k2="-1" k3="1" />
      <feColorMatrix type="matrix" values="0 0 0 0 0.870588 0 0 0 0 0.937882 0 0 0 0 1 0 0 0 0.2 0" />
      <feBlend mode="normal" in2="effect6_innerShadow_721_22671" result="effect7_innerShadow_721_22671" />
      <feColorMatrix in="SourceAlpha" type="matrix" values="0 0 0 0 0 0 0 0 0 0 0 0 0 0 0 0 0 0 127 0"
        result="hardAlpha" />
      <feOffset dy="4" />
      <feGaussianBlur stdDeviation="9" />
      <feComposite in2="hardAlpha" operator="arithmetic" k2="-1" k3="1" />
      <feColorMatrix type="matrix" values="0 0 0 0 0.572549 0 0 0 0 0.823529 0 0 0 0 0.823529 0 0 0 0.3 0" />
      <feBlend mode="normal" in2="effect7_innerShadow_721_22671" result="effect8_innerShadow_721_22671" />
      <feColorMatrix in="SourceAlpha" type="matrix" values="0 0 0 0 0 0 0 0 0 0 0 0 0 0 0 0 0 0 127 0"
        result="hardAlpha" />
      <feMorphology radius="48" operator="dilate" in="SourceAlpha" result="effect9_innerShadow_721_22671" />
      <feOffset dy="98" />
      <feGaussianBlur stdDeviation="50" />
      <feComposite in2="hardAlpha" operator="arithmetic" k2="-1" k3="1" />
      <feColorMatrix type="matrix" values="0 0 0 0 0 0 0 0 0 0.82 0 0 0 0 1 0 0 0 0.18 0" />
      <feBlend mode="normal" in2="effect8_innerShadow_721_22671" result="effect9_innerShadow_721_22671" />
    </filter>
    <linearGradient id="paint0_linear_721_22671" x1="267.419" y1="205" x2="486.481" y2="205"
      gradientUnits="userSpaceOnUse">
      <stop stop-color="#00D1FF" />
      <stop offset="1" stop-color="#0054FF" />
    </linearGradient>
    <linearGradient id="paint1_linear_721_22671" x1="626.987" y1="316.67" x2="677.597" y2="299.713"
      gradientUnits="userSpaceOnUse">
      <stop stop-color="#2260FF" stop-opacity="0.23" />
      <stop offset="1" stop-color="#1859FF" stop-opacity="0" />
    </linearGradient>
    <linearGradient id="paint2_linear_721_22671" x1="538.851" y1="283.67" x2="667.58" y2="293.927"
      gradientUnits="userSpaceOnUse">
      <stop stop-color="white" stop-opacity="0.33" />
      <stop offset="1" stop-color="white" stop-opacity="0" />
    </linearGradient>
  </defs>
</svg>