<svg width="475" height="381" viewBox="0 0 475 381" fill="none" xmlns="http://www.w3.org/2000/svg">
<path d="M423.424 129.03V60.14" stroke="#5100CD" stroke-linecap="round" stroke-linejoin="round"/>
<path d="M251.745 88.98L299.275 61.35" stroke="#5100CD" stroke-linecap="round" stroke-linejoin="round"/>
<path d="M299.265 61.34L423.424 129.03" stroke="#5100CD" stroke-linecap="round" stroke-linejoin="round"/>
<path d="M323.429 75.28L326.226 73.65L323.429 71.99L320.622 73.65L323.429 75.28Z" fill="#F5EDFF" stroke="#5100CD" stroke-linecap="round" stroke-linejoin="round"/>
<path d="M323.429 78.21V75.28L326.227 73.65V76.61L323.429 78.22V78.21Z" fill="#5100CD" stroke="#5100CD" stroke-linecap="round" stroke-linejoin="round"/>
<path d="M320.622 76.55V73.65L323.429 75.28V78.21L320.622 76.55Z" fill="#F5EDFF" stroke="#5100CD" stroke-linecap="round" stroke-linejoin="round"/>
<path d="M423.424 129.03L426.221 127.4L423.424 125.74L420.617 127.4L423.424 129.03Z" fill="#F5EDFF" stroke="#5100CD" stroke-linecap="round" stroke-linejoin="round"/>
<path d="M423.424 131.96V129.03L426.221 127.4V130.36L423.424 131.97V131.96Z" fill="#5100CD" stroke="#5100CD" stroke-linecap="round" stroke-linejoin="round"/>
<path d="M420.627 130.3V127.4L423.434 129.03V131.96L420.627 130.3Z" fill="#F5EDFF" stroke="#5100CD" stroke-linecap="round" stroke-linejoin="round"/>
<path d="M299.275 64.27V61.34L302.072 59.72V62.67L299.275 64.28V64.27Z" fill="#5100CD" stroke="#5100CD" stroke-linecap="round" stroke-linejoin="round"/>
<path d="M296.478 62.61V59.72L299.285 61.34V64.27L296.478 62.61Z" fill="#F5EDFF" stroke="#5100CD" stroke-linecap="round" stroke-linejoin="round"/>
<path d="M299.275 61.34L302.072 59.72L299.275 58.05L296.468 59.72L299.275 61.34Z" fill="#F5EDFF" stroke="#5100CD" stroke-linecap="round" stroke-linejoin="round"/>
<path d="M184.596 327.19L85.3105 269.47" stroke="#5100CD" stroke-linecap="round" stroke-linejoin="round"/>
<path d="M184.596 327.37L305.348 257.16" stroke="#5100CD" stroke-linecap="round" stroke-linejoin="round"/>
<path d="M48.7791 325.78L114.869 287.36" stroke="#5100CD" stroke-linecap="round" stroke-linejoin="round"/>
<path d="M131.332 295.61L198.052 256.82" stroke="#5100CD" stroke-linecap="round" stroke-linejoin="round"/>
<path d="M184.596 327.41L187.972 325.44L184.596 323.44L181.219 325.44L184.596 327.41Z" fill="#F5EDFF" stroke="#5100CD" stroke-linecap="round" stroke-linejoin="round"/>
<path d="M184.596 330.95V327.41L187.972 325.44V329.01L184.596 330.96V330.95Z" fill="#5100CD" stroke="#5100CD" stroke-linecap="round" stroke-linejoin="round"/>
<path d="M181.219 328.94V325.44L184.596 327.41V330.95L181.219 328.94Z" fill="#F5EDFF" stroke="#5100CD" stroke-linecap="round" stroke-linejoin="round"/>
<path d="M149.553 307.55L152.929 305.58L149.553 303.58L146.176 305.58L149.553 307.55Z" fill="#F5EDFF" stroke="#5100CD" stroke-linecap="round" stroke-linejoin="round"/>
<path d="M149.553 311.09V307.55L152.929 305.58V309.15L149.553 311.1V311.09Z" fill="#5100CD" stroke="#5100CD" stroke-linecap="round" stroke-linejoin="round"/>
<path d="M146.166 309.08V305.58L149.543 307.55V311.09L146.166 309.08Z" fill="#F5EDFF" stroke="#5100CD" stroke-linecap="round" stroke-linejoin="round"/>
<path d="M131.332 296.46L134.708 294.49L131.332 292.49L127.956 294.49L131.332 296.46Z" fill="#F5EDFF" stroke="#5100CD" stroke-linecap="round" stroke-linejoin="round"/>
<path d="M131.332 300.01V296.47L134.708 294.5V298.07L131.332 300.02V300.01Z" fill="#5100CD" stroke="#5100CD" stroke-linecap="round" stroke-linejoin="round"/>
<path d="M127.956 297.99V294.49L131.332 296.46V300L127.956 297.99Z" fill="#F5EDFF" stroke="#5100CD" stroke-linecap="round" stroke-linejoin="round"/>
<path d="M183.457 265.75L186.833 263.78L183.457 261.78L180.081 263.78L183.457 265.75Z" fill="#F5EDFF" stroke="#5100CD" stroke-linecap="round" stroke-linejoin="round"/>
<path d="M183.457 269.29V265.75L186.833 263.78V267.35L183.457 269.3V269.29Z" fill="#5100CD" stroke="#5100CD" stroke-linecap="round" stroke-linejoin="round"/>
<path d="M180.081 267.28V263.78L183.457 265.75V269.29L180.081 267.28Z" fill="#F5EDFF" stroke="#5100CD" stroke-linecap="round" stroke-linejoin="round"/>
<path d="M114.869 287.36L118.246 285.39L114.869 283.39L111.493 285.39L114.869 287.36Z" fill="#F5EDFF" stroke="#5100CD" stroke-linecap="round" stroke-linejoin="round"/>
<path d="M114.869 290.9V287.36L118.246 285.39V288.96L114.869 290.91V290.9Z" fill="#5100CD" stroke="#5100CD" stroke-linecap="round" stroke-linejoin="round"/>
<path d="M111.493 288.89V285.39L114.869 287.36V290.9L111.493 288.89Z" fill="#F5EDFF" stroke="#5100CD" stroke-linecap="round" stroke-linejoin="round"/>
<path d="M73.4031 311.31L76.7795 309.34L73.4031 307.34L70.0266 309.34L73.4031 311.31Z" fill="#F5EDFF" stroke="#5100CD" stroke-linecap="round" stroke-linejoin="round"/>
<path d="M73.4031 314.85V311.31L76.7795 309.34V312.91L73.4031 314.86V314.85Z" fill="#5100CD" stroke="#5100CD" stroke-linecap="round" stroke-linejoin="round"/>
<path d="M70.0166 312.84V309.34L73.393 311.31V314.85L70.0166 312.84Z" fill="#F5EDFF" stroke="#5100CD" stroke-linecap="round" stroke-linejoin="round"/>
<path d="M198.052 256.45V187.56" stroke="#5100CD" stroke-linecap="round" stroke-linejoin="round"/>
<path d="M198.052 256.83L201.428 254.86L198.052 252.86L194.675 254.86L198.052 256.83Z" fill="#F5EDFF" stroke="#5100CD" stroke-linecap="round" stroke-linejoin="round"/>
<path d="M198.052 260.37V256.83L201.428 254.86V258.43L198.052 260.38V260.37Z" fill="#5100CD" stroke="#5100CD" stroke-linecap="round" stroke-linejoin="round"/>
<path d="M194.675 258.36V254.86L198.052 256.83V260.37L194.675 258.36Z" fill="#F5EDFF" stroke="#5100CD" stroke-linecap="round" stroke-linejoin="round"/>
<path d="M305.348 208.75V257.17" stroke="#5100CD" stroke-linecap="round" stroke-linejoin="round"/>
<path d="M205.803 178.09V193.42V208.75L221.117 199.84V184.51V169.18L205.803 178.09Z" fill="#DBC8F6" stroke="#5100CD" stroke-linecap="round" stroke-linejoin="round"/>
<path d="M190.479 153.85L205.793 144.94L267.069 180.57L251.755 189.47L190.479 153.85Z" fill="#F5EDFF" stroke="#5100CD" stroke-linecap="round" stroke-linejoin="round"/>
<path d="M236.431 103.91L251.745 95V110.33L236.431 119.24V103.91Z" fill="#DBC8F6" stroke="#5100CD" stroke-linecap="round" stroke-linejoin="round"/>
<path d="M251.745 143.48L236.431 134.57L221.117 125.67L205.803 116.76L190.479 107.86V123.19L205.803 132.09L221.117 141L236.431 149.9L251.745 158.81V174.14V189.47L236.431 180.57L221.117 171.66L205.803 162.76L190.479 153.85V169.18V184.51V199.84V215.18L205.803 224.08L221.117 232.99L236.431 241.89L251.745 250.8L267.059 259.7V244.37L251.745 235.47L236.431 226.56L221.117 217.66L205.803 208.75V193.42V178.09L221.117 186.99L236.431 195.9L251.745 204.8L267.059 213.71V198.38V183.05V167.71V152.38L251.745 143.48Z" fill="#F5EDFF" stroke="#5100CD" stroke-linecap="round" stroke-linejoin="round"/>
<path d="M282.373 115.29L267.059 106.39L251.745 97.48L236.431 88.58L221.117 79.67V95V110.33L236.431 119.24V103.91L251.745 112.81L267.059 121.72L282.373 130.62L297.696 139.53V124.2L282.373 115.29Z" fill="#F5EDFF" stroke="#5100CD" stroke-linecap="round" stroke-linejoin="round"/>
<path d="M297.696 139.53V124.2L313.01 115.29V130.62L297.696 139.53Z" fill="#DBC8F6" stroke="#5100CD" stroke-linecap="round" stroke-linejoin="round"/>
<path d="M282.373 161.29V176.62V191.95V207.28V222.61L297.696 231.52V216.19V200.86V185.52V170.19L282.373 161.29Z" fill="#F5EDFF" stroke="#5100CD" stroke-linecap="round" stroke-linejoin="round"/>
<path d="M297.696 170.19V185.52V200.86V216.19V231.52L313.01 222.61V207.28V191.95V176.62V161.29L297.696 170.19Z" fill="#DBC8F6" stroke="#5100CD" stroke-linecap="round" stroke-linejoin="round"/>
<path d="M267.059 152.38V167.71V183.05V198.38V213.71L282.372 204.8V189.47V174.14V158.81V143.48L267.059 152.38Z" fill="#DBC8F6" stroke="#5100CD" stroke-linecap="round" stroke-linejoin="round"/>
<path d="M267.059 244.37L282.372 235.47V250.8L267.059 259.7V244.37Z" fill="#DBC8F6" stroke="#5100CD" stroke-linecap="round" stroke-linejoin="round"/>
<path d="M313.01 161.29L297.696 152.38L282.373 161.29L297.696 170.19L313.01 161.29Z" fill="#F5EDFF" stroke="#5100CD" stroke-linecap="round" stroke-linejoin="round"/>
<path d="M221.117 79.67L236.431 70.77L313.01 115.29L297.696 124.2L221.117 79.67Z" fill="#F5EDFF" stroke="#5100CD" stroke-linecap="round" stroke-linejoin="round"/>
<path d="M190.479 107.86L205.803 98.95L282.373 143.48L267.059 152.38L190.479 107.86Z" fill="#F5EDFF" stroke="#5100CD" stroke-linecap="round" stroke-linejoin="round"/>
<path d="M205.793 208.75L221.117 199.84L282.372 235.47L267.059 244.37L205.793 208.75Z" fill="#F5EDFF" stroke="#5100CD" stroke-linecap="round" stroke-linejoin="round"/>
<path d="M42.9853 49.03L42.3659 52.6L40.2782 54.38H35.7729L35.1735 57.79H32.3865L34.2445 47.25H41.5368L42.9953 49.03H42.9853ZM39.7687 51.56L40.0284 50.07L39.7487 49.73H36.592L36.2025 51.9H39.3591L39.7587 51.56H39.7687Z" fill="#5100CD"/>
<path d="M51.866 55.31L51.4365 57.79H43.355L45.213 47.25H48.0001L46.5716 55.31H51.866Z" fill="#5100CD"/>
<path d="M60.227 55.93H56.461L55.512 57.79H52.5251L58.379 47.25H61.216L63.3537 57.79H60.5167L60.227 55.93ZM59.8374 53.64L59.308 50.31L57.6198 53.64H59.8374Z" fill="#5100CD"/>
<path d="M72.2745 54.1L73.8828 56.04L71.825 57.79H66.5905L64.8723 55.7L65.9911 49.34L68.4485 47.25H73.5731L75.0116 49L72.794 50.88L71.8649 49.73H69.4175L68.5784 50.44L67.8192 54.72L68.2987 55.31H70.856L72.2645 54.1H72.2745Z" fill="#5100CD"/>
<path d="M79.387 49.73L79.0973 51.34H84.2419L83.8223 53.7H78.6977L78.408 55.31H84.3218L83.8922 57.79H75.1914L77.0494 47.25H85.7503L85.3207 49.73H79.407H79.387Z" fill="#5100CD"/>
<path d="M97.0582 47.24L95.2002 57.78H92.4131L93.1423 53.67H89.4562L88.727 57.78H85.9399L87.798 47.24H90.585L89.8858 51.19H93.5719L94.2712 47.24H97.0582Z" fill="#5100CD"/>
<path d="M108.336 49.34L107.217 55.7L104.76 57.79H99.4057L97.6875 55.7L98.8063 49.34L101.264 47.25H106.618L108.336 49.34ZM104.62 54.6L105.379 50.32L104.9 49.73H102.233L101.394 50.44L100.634 54.72L101.114 55.31H103.781L104.62 54.6Z" fill="#5100CD"/>
<path d="M117.477 55.31L117.047 57.79H108.966L110.824 47.25H113.611L112.182 55.31H117.477Z" fill="#5100CD"/>
<path d="M129.494 49.34L128.375 55.7L125.918 57.79H118.775L120.633 47.25H127.776L129.494 49.34ZM125.778 54.6L126.537 50.32L126.058 49.73H122.991L122.002 55.31H124.949L125.788 54.6H125.778Z" fill="#5100CD"/>
<path d="M134.329 49.73L134.039 51.34H139.184L138.764 53.7H133.64L133.35 55.31H139.264L138.834 57.79H130.133L131.991 47.25H140.692L140.263 49.73H134.349H134.329Z" fill="#5100CD"/>
<path d="M150.921 52.36L148.944 54.05L150.472 57.79H147.515L146.087 54.15H144.308L143.669 57.79H140.882L142.74 47.25H150.032L151.491 49.03L150.921 52.36ZM148.324 51.32L148.544 50.06L148.264 49.72H145.108L144.768 51.67H147.915L148.334 51.31L148.324 51.32Z" fill="#5100CD"/>
<path d="M323.1 322.83L322.48 326.4L320.393 328.18H315.887L315.288 331.59H312.501L314.359 321.05H321.651L323.11 322.83H323.1ZM319.883 325.36L320.143 323.87L319.863 323.53H316.707L316.317 325.7H319.474L319.873 325.36H319.883Z" fill="#5100CD"/>
<path d="M331.971 329.11L331.541 331.59H323.459L325.318 321.05H328.105L326.676 329.11H331.971Z" fill="#5100CD"/>
<path d="M340.342 329.73H336.576L335.627 331.59H332.64L338.493 321.05H341.331L343.468 331.59H340.631L340.342 329.73ZM339.952 327.44L339.423 324.11L337.734 327.44H339.952Z" fill="#5100CD"/>
<path d="M352.389 327.9L353.997 329.84L351.939 331.59H346.705L344.987 329.5L346.106 323.14L348.563 321.05H353.688L355.126 322.8L352.908 324.68L351.979 323.53H349.532L348.693 324.24L347.934 328.52L348.413 329.11H350.971L352.379 327.9H352.389Z" fill="#5100CD"/>
<path d="M359.501 323.53L359.212 325.14H364.356L363.937 327.5H358.812L358.523 329.11H364.436L364.007 331.59H355.306L357.164 321.05H365.865L365.435 323.53H359.521H359.501Z" fill="#5100CD"/>
<path d="M377.173 321.05L375.315 331.59H372.528L373.257 327.48H369.571L368.842 331.59H366.054L367.912 321.05H370.7L370 325H373.686L374.386 321.05H377.173Z" fill="#5100CD"/>
<path d="M388.451 323.14L387.332 329.5L384.875 331.59H379.52L377.802 329.5L378.921 323.14L381.378 321.05H386.733L388.451 323.14ZM384.735 328.4L385.494 324.12L385.014 323.53H382.347L381.508 324.24L380.749 328.52L381.228 329.11H383.896L384.735 328.4Z" fill="#5100CD"/>
<path d="M397.591 329.11L397.162 331.59H389.08L390.938 321.05H393.725L392.297 329.11H397.591Z" fill="#5100CD"/>
<path d="M409.609 323.14L408.49 329.5L406.032 331.59H398.89L400.748 321.05H407.89L409.609 323.14ZM405.893 328.4L406.652 324.12L406.172 323.53H403.105L402.117 329.11H405.063L405.902 328.4H405.893Z" fill="#5100CD"/>
<path d="M414.443 323.53L414.154 325.14H419.298L418.879 327.5H413.754L413.464 329.11H419.378L418.949 331.59H410.248L412.106 321.05H420.807L420.377 323.53H414.463H414.443Z" fill="#5100CD"/>
<path d="M431.026 326.17L429.048 327.86L430.576 331.6H427.62L426.191 327.96H424.413L423.774 331.6H420.987L422.845 321.06H430.137L431.595 322.84L431.026 326.17ZM428.429 325.13L428.649 323.87L428.369 323.53H425.212L424.872 325.48H428.019L428.439 325.12L428.429 325.13Z" fill="#5100CD"/>
</svg>
