<svg width="670" height="335" viewBox="0 0 670 335" fill="none" xmlns="http://www.w3.org/2000/svg">
<path d="M439.906 311.676L369.438 270.755" stroke="#5100CD" stroke-linecap="round" stroke-linejoin="round"/>
<path d="M532.483 268.151L462.016 227.23" stroke="#5100CD" stroke-linecap="round" stroke-linejoin="round"/>
<path d="M277.439 146.596L206.972 105.676" stroke="#5100CD" stroke-linecap="round" stroke-linejoin="round"/>
<path d="M277.439 219.416L225.731 189.392" stroke="#5100CD" stroke-linecap="round" stroke-linejoin="round"/>
<path d="M240.304 302.974L127.116 237.247" stroke="#5100CD" stroke-linecap="round" stroke-linejoin="round"/>
<path d="M225.891 253.285L179.125 226.133" stroke="#5100CD" stroke-linecap="round" stroke-linejoin="round"/>
<path d="M439.905 311.675L530.615 258.988" stroke="#5100CD" stroke-linecap="round" stroke-linejoin="round"/>
<path d="M240.305 303.1L295.998 270.755" stroke="#5100CD" stroke-linecap="round" stroke-linejoin="round"/>
<path d="M151.278 227.75L206.972 195.405" stroke="#5100CD" stroke-linecap="round" stroke-linejoin="round"/>
<path d="M462.016 148.447L535.314 105.876" stroke="#5100CD" stroke-linecap="round" stroke-linejoin="round"/>
<path d="M404.672 156.864L494.301 104.813" stroke="#5100CD" stroke-linecap="round" stroke-linejoin="round"/>
<path d="M439.906 311.676L442.904 309.925L439.906 308.15L436.907 309.925L439.906 311.676Z" fill="#F5EDFF" stroke="#5100CD" stroke-linecap="round" stroke-linejoin="round"/>
<path d="M439.905 314.816V311.676L442.904 309.925V313.091L439.905 314.816Z" fill="#5100CD" stroke="#5100CD" stroke-linecap="round" stroke-linejoin="round"/>
<path d="M436.907 313.032V309.925L439.906 311.676V314.816L436.907 313.032Z" fill="#F5EDFF" stroke="#5100CD" stroke-linecap="round" stroke-linejoin="round"/>
<path d="M474.227 292.246L477.225 290.495L474.227 288.72L471.229 290.495L474.227 292.246Z" fill="#F5EDFF" stroke="#5100CD" stroke-linecap="round" stroke-linejoin="round"/>
<path d="M474.227 295.386V292.246L477.225 290.495V293.661L474.227 295.386Z" fill="#5100CD" stroke="#5100CD" stroke-linecap="round" stroke-linejoin="round"/>
<path d="M471.229 293.602V290.495L474.227 292.246V295.386L471.229 293.602Z" fill="#F5EDFF" stroke="#5100CD" stroke-linecap="round" stroke-linejoin="round"/>
<path d="M462.016 148.447V227.23" stroke="#5100CD" stroke-linecap="round" stroke-linejoin="round"/>
<path d="M206.98 65.4087V195.405" stroke="#5100CD" stroke-linecap="round" stroke-linejoin="round"/>
<path d="M225.731 189.174V253.285" stroke="#5100CD" stroke-linecap="round" stroke-linejoin="round"/>
<path d="M462.016 227.23L465.014 225.48L462.016 223.705L459.018 225.48L462.016 227.23Z" fill="#F5EDFF" stroke="#5100CD" stroke-linecap="round" stroke-linejoin="round"/>
<path d="M462.016 230.371V227.23L465.014 225.48V228.646L462.016 230.371Z" fill="#5100CD" stroke="#5100CD" stroke-linecap="round" stroke-linejoin="round"/>
<path d="M459.018 228.587V225.48L462.016 227.23V230.371L459.018 228.587Z" fill="#F5EDFF" stroke="#5100CD" stroke-linecap="round" stroke-linejoin="round"/>
<path d="M462.016 149.284L465.014 147.534L462.016 145.758L459.018 147.534L462.016 149.284Z" fill="#F5EDFF" stroke="#5100CD" stroke-linecap="round" stroke-linejoin="round"/>
<path d="M462.016 152.425V149.284L465.014 147.534V150.699L462.016 152.425Z" fill="#5100CD" stroke="#5100CD" stroke-linecap="round" stroke-linejoin="round"/>
<path d="M459.018 150.641V147.534L462.016 149.284V152.425L459.018 150.641Z" fill="#F5EDFF" stroke="#5100CD" stroke-linecap="round" stroke-linejoin="round"/>
<path d="M465.742 121.387L468.741 119.637L465.742 117.861L462.744 119.637L465.742 121.387Z" fill="#F5EDFF" stroke="#5100CD" stroke-linecap="round" stroke-linejoin="round"/>
<path d="M465.742 124.528V121.387L468.74 119.637V122.802L465.742 124.528Z" fill="#5100CD" stroke="#5100CD" stroke-linecap="round" stroke-linejoin="round"/>
<path d="M462.744 122.744V119.637L465.742 121.387V124.528L462.744 122.744Z" fill="#F5EDFF" stroke="#5100CD" stroke-linecap="round" stroke-linejoin="round"/>
<path d="M240.304 302.974L243.302 301.224L240.304 299.448L237.306 301.224L240.304 302.974Z" fill="#F5EDFF" stroke="#5100CD" stroke-linecap="round" stroke-linejoin="round"/>
<path d="M240.304 306.115V302.974L243.302 301.224V304.389L240.304 306.115Z" fill="#5100CD" stroke="#5100CD" stroke-linecap="round" stroke-linejoin="round"/>
<path d="M237.306 304.331V301.224L240.304 302.974V306.115L237.306 304.331Z" fill="#F5EDFF" stroke="#5100CD" stroke-linecap="round" stroke-linejoin="round"/>
<path d="M225.891 252.054L228.889 250.303L225.891 248.528L222.893 250.303L225.891 252.054Z" fill="#F5EDFF" stroke="#5100CD" stroke-linecap="round" stroke-linejoin="round"/>
<path d="M225.891 255.194V252.054L228.889 250.303V253.469L225.891 255.194Z" fill="#5100CD" stroke="#5100CD" stroke-linecap="round" stroke-linejoin="round"/>
<path d="M222.893 253.41V250.303L225.891 252.054V255.194L222.893 253.41Z" fill="#F5EDFF" stroke="#5100CD" stroke-linecap="round" stroke-linejoin="round"/>
<path d="M205.506 241.468L208.504 239.717L205.506 237.942L202.508 239.717L205.506 241.468Z" fill="#F5EDFF" stroke="#5100CD" stroke-linecap="round" stroke-linejoin="round"/>
<path d="M205.506 244.608V241.468L208.504 239.717V242.883L205.506 244.608Z" fill="#5100CD" stroke="#5100CD" stroke-linecap="round" stroke-linejoin="round"/>
<path d="M202.508 242.824V239.717L205.506 241.468V244.608L202.508 242.824Z" fill="#F5EDFF" stroke="#5100CD" stroke-linecap="round" stroke-linejoin="round"/>
<path d="M225.891 189.652L228.889 187.901L225.891 186.126L222.893 187.901L225.891 189.652Z" fill="#F5EDFF" stroke="#5100CD" stroke-linecap="round" stroke-linejoin="round"/>
<path d="M225.891 192.792V189.652L228.889 187.901V191.067L225.891 192.792Z" fill="#5100CD" stroke="#5100CD" stroke-linecap="round" stroke-linejoin="round"/>
<path d="M222.893 191.009V187.901L225.891 189.652V192.792L222.893 191.009Z" fill="#F5EDFF" stroke="#5100CD" stroke-linecap="round" stroke-linejoin="round"/>
<path d="M207.005 194.166L210.003 192.416L207.005 190.64L204.007 192.416L207.005 194.166Z" fill="#F5EDFF" stroke="#5100CD" stroke-linecap="round" stroke-linejoin="round"/>
<path d="M207.005 197.307V194.166L210.003 192.416V195.581L207.005 197.307Z" fill="#5100CD" stroke="#5100CD" stroke-linecap="round" stroke-linejoin="round"/>
<path d="M204.007 195.523V192.416L207.005 194.166V197.307L204.007 195.523Z" fill="#F5EDFF" stroke="#5100CD" stroke-linecap="round" stroke-linejoin="round"/>
<path d="M207.005 154.359L210.003 152.609L207.005 150.833L204.007 152.609L207.005 154.359Z" fill="#F5EDFF" stroke="#5100CD" stroke-linecap="round" stroke-linejoin="round"/>
<path d="M207.005 157.5V154.359L210.003 152.609V155.775L207.005 157.5Z" fill="#5100CD" stroke="#5100CD" stroke-linecap="round" stroke-linejoin="round"/>
<path d="M204.007 155.716V152.609L207.005 154.359V157.5L204.007 155.716Z" fill="#F5EDFF" stroke="#5100CD" stroke-linecap="round" stroke-linejoin="round"/>
<path d="M206.981 106.069L209.979 104.319L206.981 102.543L203.982 104.319L206.981 106.069Z" fill="#F5EDFF" stroke="#5100CD" stroke-linecap="round" stroke-linejoin="round"/>
<path d="M206.98 109.21V106.069L209.979 104.319V107.485L206.98 109.21Z" fill="#5100CD" stroke="#5100CD" stroke-linecap="round" stroke-linejoin="round"/>
<path d="M203.982 107.426V104.319L206.981 106.069V109.21L203.982 107.426Z" fill="#F5EDFF" stroke="#5100CD" stroke-linecap="round" stroke-linejoin="round"/>
<path d="M220.64 114.721L223.638 112.97L220.64 111.195L217.642 112.97L220.64 114.721Z" fill="#F5EDFF" stroke="#5100CD" stroke-linecap="round" stroke-linejoin="round"/>
<path d="M220.64 117.861V114.721L223.638 112.97V116.136L220.64 117.861Z" fill="#5100CD" stroke="#5100CD" stroke-linecap="round" stroke-linejoin="round"/>
<path d="M217.642 116.077V112.97L220.64 114.721V117.861L217.642 116.077Z" fill="#F5EDFF" stroke="#5100CD" stroke-linecap="round" stroke-linejoin="round"/>
<path d="M162.685 257.9L165.683 256.15L162.685 254.374L159.687 256.15L162.685 257.9Z" fill="#F5EDFF" stroke="#5100CD" stroke-linecap="round" stroke-linejoin="round"/>
<path d="M162.685 261.04V257.9L165.683 256.149V259.315L162.685 261.04Z" fill="#5100CD" stroke="#5100CD" stroke-linecap="round" stroke-linejoin="round"/>
<path d="M159.687 259.257V256.149L162.685 257.9V261.04L159.687 259.257Z" fill="#F5EDFF" stroke="#5100CD" stroke-linecap="round" stroke-linejoin="round"/>
<path d="M334.162 192.608L240.463 248.327L334.162 302.773L427.87 248.327L334.162 192.608ZM298.895 266.401C308.535 260.664 334.171 245.421 334.171 245.421L369.446 266.401L334.171 286.903L298.895 266.401Z" fill="#F5EDFF" stroke="#5100CD" stroke-linecap="round" stroke-linejoin="round"/>
<path d="M240.463 130.323V248.327L334.162 192.608V74.6128L240.463 130.323Z" fill="#F5EDFF" stroke="#5100CD" stroke-linecap="round" stroke-linejoin="round"/>
<path d="M334.162 74.6128V192.608L427.87 248.327V130.323L334.162 74.6128Z" fill="#F1E9FD" stroke="#5100CD" stroke-linecap="round" stroke-linejoin="round"/>
<path d="M334.162 237.322L291.994 262.397L298.887 266.4C308.535 260.663 334.162 245.421 334.162 245.421V237.322Z" fill="#DBC8F6" stroke="#5100CD" stroke-linecap="round" stroke-linejoin="round"/>
<path d="M376.33 262.397L334.162 237.322V245.421L369.446 266.4L376.33 262.397Z" fill="#F1E9FD" stroke="#5100CD" stroke-linecap="round" stroke-linejoin="round"/>
<path d="M427.862 248.327V257.833L334.154 312.287V302.773L427.862 248.327Z" fill="#DBC8F6" stroke="#5100CD" stroke-linecap="round" stroke-linejoin="round"/>
<path d="M240.463 257.833V248.327L334.162 302.773V312.287L240.463 257.833Z" fill="#F1E9FD" stroke="#5100CD" stroke-linecap="round" stroke-linejoin="round"/>
<path d="M129.763 254.173L194.928 216.301L129.763 177.558L64.5967 216.301L129.763 254.173Z" fill="#F5EDFF" stroke="#5100CD" stroke-linecap="round" stroke-linejoin="round"/>
<path d="M194.928 216.301V221.719L129.762 259.591V254.181L194.928 216.309V216.301Z" fill="#DBC8F6" stroke="#5100CD" stroke-linecap="round" stroke-linejoin="round"/>
<path d="M64.5879 216.301V221.719L129.754 259.591V254.181L64.5879 216.309V216.301Z" fill="#F1E9FD" stroke="#5100CD" stroke-linecap="round" stroke-linejoin="round"/>
<path d="M128.296 140.591L93.9082 131.362V145.449L117.894 151.881L146.068 177.056V194.543C146.068 201.167 144.694 206.042 142.567 209.651L139.711 204.107L137.668 215.137C133.689 218.093 128.999 219.115 125.239 219.375C126.713 220.966 127.618 221.845 127.668 221.904L128.296 222.507L128.916 222.624C129.016 222.641 132.023 223.194 136.202 223.018L135.833 225.003L144.878 221.569C145.934 221.242 146.989 220.849 148.036 220.371L148.078 220.355C155.699 216.879 162.684 209.191 162.684 192.658V171.319L128.296 140.599V140.591Z" fill="#DBC8F6" stroke="#5100CD" stroke-linecap="round" stroke-linejoin="round"/>
<path d="M117.895 144.486L83.5068 135.256V156.596C83.5068 192.742 116.931 225.463 117.266 225.79L117.895 226.393L118.514 226.51C118.849 226.577 152.282 232.691 152.282 196.545V175.205L117.895 144.486Z" fill="#F1E9FD" stroke="#5100CD" stroke-linecap="round" stroke-linejoin="round"/>
<path d="M93.9088 145.448L89.7129 144.326V161.813C89.7129 191.436 117.099 218.236 117.376 218.504L117.886 218.998L118.397 219.098C118.489 219.115 121.37 219.643 125.24 219.375C117.493 211.016 93.9088 183.077 93.9088 152.71V145.448Z" fill="#DBC8F6" stroke="#5100CD" stroke-linecap="round" stroke-linejoin="round"/>
<path d="M146.069 194.542V177.055L117.895 151.88L93.9092 145.448V152.709C93.9092 183.077 117.493 211.016 125.24 219.374C133.431 218.805 146.069 214.668 146.069 194.542Z" fill="#F5EDFF" stroke="#5100CD" stroke-linecap="round" stroke-linejoin="round"/>
<path d="M131.143 182.257C130.817 182.148 130.574 182.265 130.348 182.374C126.646 183.999 122.944 185.615 119.243 187.231C118.799 187.457 117.995 187.047 117.492 186.335C115.608 183.605 113.74 180.866 111.856 178.144C111.404 177.474 110.65 177.064 110.223 177.248C109.368 177.6 108.523 177.96 107.668 178.32C107.191 178.521 107.25 179.409 107.752 180.146C111.094 185.598 114.435 191.042 117.777 196.494C118.238 197.281 119.125 197.759 119.561 197.482C124.695 194.685 129.829 191.871 134.962 189.074C135.147 188.982 135.314 188.856 135.364 188.613C135.465 188.211 135.264 187.617 134.929 187.106C134.091 185.849 133.246 184.593 132.408 183.329C132.073 182.818 131.571 182.391 131.127 182.273" fill="#5100CD"/>
<path d="M83.5068 135.256L93.9086 131.362L128.296 140.591L117.895 144.485L83.5068 135.256Z" fill="#F5EDFF" stroke="#5100CD" stroke-linecap="round" stroke-linejoin="round"/>
<path d="M117.895 144.485L128.296 140.591L162.684 171.31L152.282 175.205L117.895 144.485Z" fill="#F5EDFF" stroke="#5100CD" stroke-linecap="round" stroke-linejoin="round"/>
<path d="M465.851 102.191V111.287L536.134 152.132V143.036L465.851 102.191Z" fill="#F1E9FD" stroke="#5100CD" stroke-linecap="round" stroke-linejoin="round"/>
<path d="M536.134 143.037L606.417 102.192L536.134 60.4004L465.851 102.192L536.134 143.037Z" fill="#F5EDFF" stroke="#5100CD" stroke-linecap="round" stroke-linejoin="round"/>
<path d="M536.134 143.036V152.132L606.417 111.287V102.191L536.134 143.036Z" fill="#DBC8F6" stroke="#5100CD" stroke-linecap="round" stroke-linejoin="round"/>
<path d="M526.552 74.01V83.5994L536.141 78.0635V68.4741L526.552 74.01Z" fill="#F5EDFF" stroke="#5100CD" stroke-linecap="round" stroke-linejoin="round"/>
<path d="M545.755 74.01V83.5994L536.166 78.0635V68.4741L545.755 74.01Z" fill="#F5EDFF" stroke="#5100CD" stroke-linecap="round" stroke-linejoin="round"/>
<path d="M536.15 89.1019V79.5041L526.561 73.9683V83.566L536.15 89.1019Z" fill="#F5EDFF" stroke="#5100CD" stroke-linecap="round" stroke-linejoin="round"/>
<path d="M536.149 89.1019V79.5041L545.739 73.9683V83.566L536.149 89.1019Z" fill="#F5EDFF" stroke="#5100CD" stroke-linecap="round" stroke-linejoin="round"/>
<path d="M526.561 73.9681L536.158 68.4741L545.739 73.9681L536.15 79.504L526.561 73.9681Z" fill="#F5EDFF" stroke="#5100CD" stroke-linecap="round" stroke-linejoin="round"/>
<path d="M538.713 81.0954V90.6848L548.302 85.1489V75.5596L538.713 81.0954Z" fill="#F5EDFF" stroke="#5100CD" stroke-linecap="round" stroke-linejoin="round"/>
<path d="M557.909 81.0954V90.6848L548.319 85.1489V75.5596L557.909 81.0954Z" fill="#F5EDFF" stroke="#5100CD" stroke-linecap="round" stroke-linejoin="round"/>
<path d="M548.311 96.1956V86.5979L538.722 81.062V90.6598L548.311 96.1956Z" fill="#F5EDFF" stroke="#5100CD" stroke-linecap="round" stroke-linejoin="round"/>
<path d="M548.311 96.1956V86.5979L557.9 81.062V90.6598L548.311 96.1956Z" fill="#F5EDFF" stroke="#5100CD" stroke-linecap="round" stroke-linejoin="round"/>
<path d="M538.722 81.0536L548.319 75.5596L557.9 81.0536L548.311 86.5894L538.722 81.0536Z" fill="#F5EDFF" stroke="#5100CD" stroke-linecap="round" stroke-linejoin="round"/>
<path d="M550.873 88.1887V97.7781L560.462 92.2422V82.6528L550.873 88.1887Z" fill="#F5EDFF" stroke="#5100CD" stroke-linecap="round" stroke-linejoin="round"/>
<path d="M570.069 88.1887V97.7781L560.479 92.2422V82.6528L570.069 88.1887Z" fill="#F5EDFF" stroke="#5100CD" stroke-linecap="round" stroke-linejoin="round"/>
<path d="M560.471 103.281V93.6828L550.882 88.147V97.7447L560.471 103.281Z" fill="#F5EDFF" stroke="#5100CD" stroke-linecap="round" stroke-linejoin="round"/>
<path d="M560.471 103.281V93.6828L570.06 88.147V97.7447L560.471 103.281Z" fill="#F5EDFF" stroke="#5100CD" stroke-linecap="round" stroke-linejoin="round"/>
<path d="M550.873 88.1385L560.471 82.6445L570.052 88.1385L560.462 93.6744L550.873 88.1385Z" fill="#F5EDFF" stroke="#5100CD" stroke-linecap="round" stroke-linejoin="round"/>
<path d="M514.392 81.0954V90.6848L523.981 85.1489V75.5596L514.392 81.0954Z" fill="#F5EDFF" stroke="#5100CD" stroke-linecap="round" stroke-linejoin="round"/>
<path d="M533.595 81.0954V90.6848L524.006 85.1489V75.5596L533.595 81.0954Z" fill="#F5EDFF" stroke="#5100CD" stroke-linecap="round" stroke-linejoin="round"/>
<path d="M523.998 96.1956V86.5979L514.408 81.062V90.6598L523.998 96.1956Z" fill="#F5EDFF" stroke="#5100CD" stroke-linecap="round" stroke-linejoin="round"/>
<path d="M523.998 96.1956V86.5979L533.587 81.062V90.6598L523.998 96.1956Z" fill="#F5EDFF" stroke="#5100CD" stroke-linecap="round" stroke-linejoin="round"/>
<path d="M514.4 81.0536L523.998 75.5596L533.579 81.0536L523.99 86.5894L514.4 81.0536Z" fill="#F5EDFF" stroke="#5100CD" stroke-linecap="round" stroke-linejoin="round"/>
<path d="M526.552 88.1887V97.7781L536.141 92.2422V82.6528L526.552 88.1887Z" fill="#F5EDFF" stroke="#5100CD" stroke-linecap="round" stroke-linejoin="round"/>
<path d="M545.755 88.1887V97.7781L536.166 92.2422V82.6528L545.755 88.1887Z" fill="#F5EDFF" stroke="#5100CD" stroke-linecap="round" stroke-linejoin="round"/>
<path d="M536.15 103.281V93.6828L526.561 88.147V97.7447L536.15 103.281Z" fill="#F5EDFF" stroke="#5100CD" stroke-linecap="round" stroke-linejoin="round"/>
<path d="M536.149 103.281V93.6828L545.739 88.147V97.7447L536.149 103.281Z" fill="#F5EDFF" stroke="#5100CD" stroke-linecap="round" stroke-linejoin="round"/>
<path d="M526.561 88.1385L536.158 82.6445L545.739 88.1385L536.15 93.6744L526.561 88.1385Z" fill="#F5EDFF" stroke="#5100CD" stroke-linecap="round" stroke-linejoin="round"/>
<path d="M538.713 95.2742V104.864L548.302 99.3277V89.7383L538.713 95.2742Z" fill="#F5EDFF" stroke="#5100CD" stroke-linecap="round" stroke-linejoin="round"/>
<path d="M557.909 95.2742V104.864L548.319 99.3277V89.7383L557.909 95.2742Z" fill="#F5EDFF" stroke="#5100CD" stroke-linecap="round" stroke-linejoin="round"/>
<path d="M548.311 110.366V100.768L538.722 95.2324V104.83L548.311 110.366Z" fill="#F5EDFF" stroke="#5100CD" stroke-linecap="round" stroke-linejoin="round"/>
<path d="M548.311 110.366V100.768L557.9 95.2324V104.83L548.311 110.366Z" fill="#F5EDFF" stroke="#5100CD" stroke-linecap="round" stroke-linejoin="round"/>
<path d="M538.722 95.2323L548.319 89.7383L557.9 95.2323L548.311 100.768L538.722 95.2323Z" fill="#F5EDFF" stroke="#5100CD" stroke-linecap="round" stroke-linejoin="round"/>
<path d="M502.239 88.1887V97.7781L511.829 92.2422V82.6528L502.239 88.1887Z" fill="#F5EDFF" stroke="#5100CD" stroke-linecap="round" stroke-linejoin="round"/>
<path d="M521.435 88.1887V97.7781L511.846 92.2422V82.6528L521.435 88.1887Z" fill="#F5EDFF" stroke="#5100CD" stroke-linecap="round" stroke-linejoin="round"/>
<path d="M511.837 103.281V93.6828L502.248 88.147V97.7447L511.837 103.281Z" fill="#F5EDFF" stroke="#5100CD" stroke-linecap="round" stroke-linejoin="round"/>
<path d="M511.837 103.281V93.6828L521.426 88.147V97.7447L511.837 103.281Z" fill="#F5EDFF" stroke="#5100CD" stroke-linecap="round" stroke-linejoin="round"/>
<path d="M502.248 88.1385L511.846 82.6445L521.427 88.1385L511.837 93.6744L502.248 88.1385Z" fill="#F5EDFF" stroke="#5100CD" stroke-linecap="round" stroke-linejoin="round"/>
<path d="M514.392 95.2742V104.864L523.981 99.3277V89.7383L514.392 95.2742Z" fill="#F5EDFF" stroke="#5100CD" stroke-linecap="round" stroke-linejoin="round"/>
<path d="M533.595 95.2742V104.864L524.006 99.3277V89.7383L533.595 95.2742Z" fill="#F5EDFF" stroke="#5100CD" stroke-linecap="round" stroke-linejoin="round"/>
<path d="M523.998 110.366V100.768L514.408 95.2324V104.83L523.998 110.366Z" fill="#F5EDFF" stroke="#5100CD" stroke-linecap="round" stroke-linejoin="round"/>
<path d="M523.998 110.366V100.768L533.587 95.2324V104.83L523.998 110.366Z" fill="#F5EDFF" stroke="#5100CD" stroke-linecap="round" stroke-linejoin="round"/>
<path d="M514.4 95.2323L523.998 89.7383L533.579 95.2323L523.99 100.768L514.4 95.2323Z" fill="#F5EDFF" stroke="#5100CD" stroke-linecap="round" stroke-linejoin="round"/>
<path d="M526.552 102.368V111.957L536.141 106.421V96.832L526.552 102.368Z" fill="#F5EDFF" stroke="#5100CD" stroke-linecap="round" stroke-linejoin="round"/>
<path d="M545.755 102.368V111.957L536.166 106.421V96.832L545.755 102.368Z" fill="#F5EDFF" stroke="#5100CD" stroke-linecap="round" stroke-linejoin="round"/>
<path d="M536.15 117.46V107.862L526.561 102.326V111.924L536.15 117.46Z" fill="#F5EDFF" stroke="#5100CD" stroke-linecap="round" stroke-linejoin="round"/>
<path d="M536.149 117.46V107.862L545.739 102.326V111.924L536.149 117.46Z" fill="#F5EDFF" stroke="#5100CD" stroke-linecap="round" stroke-linejoin="round"/>
<path d="M526.561 102.318L536.158 96.8237L545.739 102.318L536.15 107.854L526.561 102.318Z" fill="#F5EDFF" stroke="#5100CD" stroke-linecap="round" stroke-linejoin="round"/>
<path d="M490.037 95.2742V104.864L499.626 99.3277V89.7383L490.037 95.2742Z" fill="#F5EDFF" stroke="#5100CD" stroke-linecap="round" stroke-linejoin="round"/>
<path d="M509.233 95.2742V104.864L499.644 99.3277V89.7383L509.233 95.2742Z" fill="#F5EDFF" stroke="#5100CD" stroke-linecap="round" stroke-linejoin="round"/>
<path d="M499.635 110.366V100.768L490.046 95.2324V104.83L499.635 110.366Z" fill="#F1E9FD" stroke="#5100CD" stroke-linecap="round" stroke-linejoin="round"/>
<path d="M499.635 110.366V100.768L509.224 95.2324V104.83L499.635 110.366Z" fill="#F5EDFF" stroke="#5100CD" stroke-linecap="round" stroke-linejoin="round"/>
<path d="M490.046 95.2323L499.644 89.7383L509.225 95.2323L499.635 100.768L490.046 95.2323Z" fill="#F5EDFF" stroke="#5100CD" stroke-linecap="round" stroke-linejoin="round"/>
<path d="M502.197 102.368V111.957L511.787 106.421V96.832L502.197 102.368Z" fill="#F5EDFF" stroke="#5100CD" stroke-linecap="round" stroke-linejoin="round"/>
<path d="M521.393 102.368V111.957L511.804 106.421V96.832L521.393 102.368Z" fill="#F5EDFF" stroke="#5100CD" stroke-linecap="round" stroke-linejoin="round"/>
<path d="M511.795 117.46V107.862L502.206 102.326V111.924L511.795 117.46Z" fill="#F1E9FD" stroke="#5100CD" stroke-linecap="round" stroke-linejoin="round"/>
<path d="M511.795 117.46V107.862L521.384 102.326V111.924L511.795 117.46Z" fill="#F5EDFF" stroke="#5100CD" stroke-linecap="round" stroke-linejoin="round"/>
<path d="M502.197 102.318L511.795 96.8237L521.376 102.318L511.787 107.854L502.197 102.318Z" fill="#F5EDFF" stroke="#5100CD" stroke-linecap="round" stroke-linejoin="round"/>
<path d="M514.35 109.453V119.042L523.939 113.506V103.917L514.35 109.453Z" fill="#F5EDFF" stroke="#5100CD" stroke-linecap="round" stroke-linejoin="round"/>
<path d="M533.553 109.453V119.042L523.964 113.506V103.917L533.553 109.453Z" fill="#F5EDFF" stroke="#5100CD" stroke-linecap="round" stroke-linejoin="round"/>
<path d="M523.947 124.545V114.947L514.357 109.411V119.009L523.947 124.545Z" fill="#F1E9FD" stroke="#5100CD" stroke-linecap="round" stroke-linejoin="round"/>
<path d="M523.956 124.545V114.947L533.545 109.411V119.009L523.956 124.545Z" fill="#F5EDFF" stroke="#5100CD" stroke-linecap="round" stroke-linejoin="round"/>
<path d="M514.357 109.411L523.955 103.917L533.536 109.411L523.947 114.947L514.357 109.411Z" fill="#F5EDFF" stroke="#5100CD" stroke-linecap="round" stroke-linejoin="round"/>
<path d="M572.631 89.7383V99.3277L582.22 104.864V95.2742L572.631 89.7383Z" fill="#F5EDFF" stroke="#5100CD" stroke-linecap="round" stroke-linejoin="round"/>
<path d="M572.622 89.7383V99.3277L563.033 104.864V95.2742L572.622 89.7383Z" fill="#F5EDFF" stroke="#5100CD" stroke-linecap="round" stroke-linejoin="round"/>
<path d="M582.22 104.83V95.2324L572.631 100.768V110.366L582.22 104.83Z" fill="#DBC8F6" stroke="#5100CD" stroke-linecap="round" stroke-linejoin="round"/>
<path d="M563.033 104.83V95.2324L572.622 100.768V110.366L563.033 104.83Z" fill="#F5EDFF" stroke="#5100CD" stroke-linecap="round" stroke-linejoin="round"/>
<path d="M572.623 100.768L563.033 95.2323L572.614 89.7383L582.212 95.2323L572.623 100.768Z" fill="#F5EDFF" stroke="#5100CD" stroke-linecap="round" stroke-linejoin="round"/>
<path d="M560.479 96.8237V106.413L570.069 111.949V102.36L560.479 96.8237Z" fill="#F5EDFF" stroke="#5100CD" stroke-linecap="round" stroke-linejoin="round"/>
<path d="M560.462 96.8237V106.413L550.873 111.949V102.36L560.462 96.8237Z" fill="#F5EDFF" stroke="#5100CD" stroke-linecap="round" stroke-linejoin="round"/>
<path d="M570.06 111.916V102.318L560.471 107.854V117.451L570.06 111.916Z" fill="#DBC8F6" stroke="#5100CD" stroke-linecap="round" stroke-linejoin="round"/>
<path d="M550.873 111.916V102.318L560.462 107.854V117.451L550.873 111.916Z" fill="#F5EDFF" stroke="#5100CD" stroke-linecap="round" stroke-linejoin="round"/>
<path d="M560.471 107.862L550.882 102.326L560.463 96.832L570.061 102.326L560.471 107.862Z" fill="#F5EDFF" stroke="#5100CD" stroke-linecap="round" stroke-linejoin="round"/>
<path d="M548.319 103.917V113.506L557.909 119.042V109.453L548.319 103.917Z" fill="#F5EDFF" stroke="#5100CD" stroke-linecap="round" stroke-linejoin="round"/>
<path d="M548.302 103.917V113.506L538.713 119.042V109.453L548.302 103.917Z" fill="#F5EDFF" stroke="#5100CD" stroke-linecap="round" stroke-linejoin="round"/>
<path d="M557.9 119.009V109.411L548.311 114.947V124.545L557.9 119.009Z" fill="#5100CD" stroke="#5100CD" stroke-linecap="round" stroke-linejoin="round"/>
<path d="M538.722 119.009V109.411L548.311 114.947V124.545L538.722 119.009Z" fill="#F5EDFF" stroke="#5100CD" stroke-linecap="round" stroke-linejoin="round"/>
<path d="M548.311 114.947L538.722 109.411L548.303 103.917L557.9 109.411L548.311 114.947Z" fill="#F5EDFF" stroke="#5100CD" stroke-linecap="round" stroke-linejoin="round"/>
<path d="M526.51 116.538V126.128L536.099 120.592V111.002L526.51 116.538Z" fill="#F5EDFF" stroke="#5100CD" stroke-linecap="round" stroke-linejoin="round"/>
<path d="M545.706 116.538V126.128L536.116 120.592V111.002L545.706 116.538Z" fill="#F5EDFF" stroke="#5100CD" stroke-linecap="round" stroke-linejoin="round"/>
<path d="M536.108 131.639V122.041L526.519 116.505V126.103L536.108 131.639Z" fill="#F1E9FD" stroke="#5100CD" stroke-linecap="round" stroke-linejoin="round"/>
<path d="M536.107 131.639V122.041L545.697 116.505V126.103L536.107 131.639Z" fill="#DBC8F6" stroke="#5100CD" stroke-linecap="round" stroke-linejoin="round"/>
<path d="M526.519 116.496L536.116 111.002L545.697 116.496L536.108 122.032L526.519 116.496Z" fill="#F5EDFF" stroke="#5100CD" stroke-linecap="round" stroke-linejoin="round"/>
<path d="M526.552 61.5061V71.0955L536.141 65.5596V55.9702L526.552 61.5061Z" fill="#F5EDFF" stroke="#5100CD" stroke-linecap="round" stroke-linejoin="round"/>
<path d="M545.755 61.5061V71.0955L536.166 65.5596V55.9702L545.755 61.5061Z" fill="#F5EDFF" stroke="#5100CD" stroke-linecap="round" stroke-linejoin="round"/>
<path d="M536.15 76.598V67.0002L526.561 61.4644V71.0621L536.15 76.598Z" fill="#F5EDFF" stroke="#5100CD" stroke-linecap="round" stroke-linejoin="round"/>
<path d="M536.149 76.598V67.0002L545.739 61.4644V71.0621L536.149 76.598Z" fill="#F5EDFF" stroke="#5100CD" stroke-linecap="round" stroke-linejoin="round"/>
<path d="M526.561 61.4559L536.158 55.9619L545.739 61.4559L536.15 66.9918L526.561 61.4559Z" fill="#F5EDFF" stroke="#5100CD" stroke-linecap="round" stroke-linejoin="round"/>
<path d="M538.713 68.5915V78.1809L548.302 72.645V63.0557L538.713 68.5915Z" fill="#F5EDFF" stroke="#5100CD" stroke-linecap="round" stroke-linejoin="round"/>
<path d="M557.909 68.5915V78.1809L548.319 72.645V63.0557L557.909 68.5915Z" fill="#F5EDFF" stroke="#5100CD" stroke-linecap="round" stroke-linejoin="round"/>
<path d="M548.311 83.6834V74.0857L538.722 68.5498V78.1476L548.311 83.6834Z" fill="#F5EDFF" stroke="#5100CD" stroke-linecap="round" stroke-linejoin="round"/>
<path d="M548.311 83.6834V74.0857L557.9 68.5498V78.1476L548.311 83.6834Z" fill="#F5EDFF" stroke="#5100CD" stroke-linecap="round" stroke-linejoin="round"/>
<path d="M538.722 68.5497L548.319 63.0557L557.9 68.5497L548.311 74.0855L538.722 68.5497Z" fill="#F5EDFF" stroke="#5100CD" stroke-linecap="round" stroke-linejoin="round"/>
<path d="M550.873 75.6765V85.2659L560.462 79.73V70.1406L550.873 75.6765Z" fill="#F5EDFF" stroke="#5100CD" stroke-linecap="round" stroke-linejoin="round"/>
<path d="M570.069 75.6765V85.2659L560.479 79.73V70.1406L570.069 75.6765Z" fill="#F5EDFF" stroke="#5100CD" stroke-linecap="round" stroke-linejoin="round"/>
<path d="M560.471 90.7767V81.1789L550.882 75.6431V85.2408L560.471 90.7767Z" fill="#F5EDFF" stroke="#5100CD" stroke-linecap="round" stroke-linejoin="round"/>
<path d="M560.471 90.7767V81.1789L570.06 75.6431V85.2408L560.471 90.7767Z" fill="#F5EDFF" stroke="#5100CD" stroke-linecap="round" stroke-linejoin="round"/>
<path d="M550.873 75.6346L560.471 70.1406L570.052 75.6346L560.462 81.1705L550.873 75.6346Z" fill="#F5EDFF" stroke="#5100CD" stroke-linecap="round" stroke-linejoin="round"/>
<path d="M514.392 68.5915V78.1809L523.981 72.645V63.0557L514.392 68.5915Z" fill="#F5EDFF" stroke="#5100CD" stroke-linecap="round" stroke-linejoin="round"/>
<path d="M533.595 68.5915V78.1809L524.006 72.645V63.0557L533.595 68.5915Z" fill="#F5EDFF" stroke="#5100CD" stroke-linecap="round" stroke-linejoin="round"/>
<path d="M523.998 83.6834V74.0857L514.408 68.5498V78.1476L523.998 83.6834Z" fill="#F5EDFF" stroke="#5100CD" stroke-linecap="round" stroke-linejoin="round"/>
<path d="M523.998 83.6834V74.0857L533.587 68.5498V78.1476L523.998 83.6834Z" fill="#F5EDFF" stroke="#5100CD" stroke-linecap="round" stroke-linejoin="round"/>
<path d="M514.4 68.5497L523.998 63.0557L533.579 68.5497L523.99 74.0855L514.4 68.5497Z" fill="#F5EDFF" stroke="#5100CD" stroke-linecap="round" stroke-linejoin="round"/>
<path d="M526.552 75.6765V85.2659L536.141 79.73V70.1406L526.552 75.6765Z" fill="#F5EDFF" stroke="#5100CD" stroke-linecap="round" stroke-linejoin="round"/>
<path d="M545.755 75.6765V85.2659L536.166 79.73V70.1406L545.755 75.6765Z" fill="#F5EDFF" stroke="#5100CD" stroke-linecap="round" stroke-linejoin="round"/>
<path d="M536.15 90.7767V81.1789L526.561 75.6431V85.2408L536.15 90.7767Z" fill="#F5EDFF" stroke="#5100CD" stroke-linecap="round" stroke-linejoin="round"/>
<path d="M536.149 90.7767V81.1789L545.739 75.6431V85.2408L536.149 90.7767Z" fill="#F5EDFF" stroke="#5100CD" stroke-linecap="round" stroke-linejoin="round"/>
<path d="M526.561 75.6346L536.158 70.1406L545.739 75.6346L536.15 81.1705L526.561 75.6346Z" fill="#F5EDFF" stroke="#5100CD" stroke-linecap="round" stroke-linejoin="round"/>
<path d="M538.713 82.7702V92.3596L548.302 86.8237V77.2344L538.713 82.7702Z" fill="#F5EDFF" stroke="#5100CD" stroke-linecap="round" stroke-linejoin="round"/>
<path d="M557.909 82.7702V92.3596L548.319 86.8237V77.2344L557.909 82.7702Z" fill="#F5EDFF" stroke="#5100CD" stroke-linecap="round" stroke-linejoin="round"/>
<path d="M548.311 97.8621V88.2644L538.722 82.7285V92.3263L548.311 97.8621Z" fill="#F5EDFF" stroke="#5100CD" stroke-linecap="round" stroke-linejoin="round"/>
<path d="M548.311 97.8621V88.2644L557.9 82.7285V92.3263L548.311 97.8621Z" fill="#F5EDFF" stroke="#5100CD" stroke-linecap="round" stroke-linejoin="round"/>
<path d="M538.722 82.7201L548.319 77.2261L557.9 82.7201L548.311 88.2559L538.722 82.7201Z" fill="#F5EDFF" stroke="#5100CD" stroke-linecap="round" stroke-linejoin="round"/>
<path d="M502.239 75.6765V85.2659L511.829 79.73V70.1406L502.239 75.6765Z" fill="#F5EDFF" stroke="#5100CD" stroke-linecap="round" stroke-linejoin="round"/>
<path d="M521.435 75.6765V85.2659L511.846 79.73V70.1406L521.435 75.6765Z" fill="#F5EDFF" stroke="#5100CD" stroke-linecap="round" stroke-linejoin="round"/>
<path d="M511.837 90.7767V81.1789L502.248 75.6431V85.2408L511.837 90.7767Z" fill="#F5EDFF" stroke="#5100CD" stroke-linecap="round" stroke-linejoin="round"/>
<path d="M511.837 90.7767V81.1789L521.426 75.6431V85.2408L511.837 90.7767Z" fill="#F5EDFF" stroke="#5100CD" stroke-linecap="round" stroke-linejoin="round"/>
<path d="M502.248 75.6346L511.846 70.1406L521.427 75.6346L511.837 81.1705L502.248 75.6346Z" fill="#F5EDFF" stroke="#5100CD" stroke-linecap="round" stroke-linejoin="round"/>
<path d="M514.392 82.7702V92.3596L523.981 86.8237V77.2344L514.392 82.7702Z" fill="#F5EDFF" stroke="#5100CD" stroke-linecap="round" stroke-linejoin="round"/>
<path d="M533.595 82.7702V92.3596L524.006 86.8237V77.2344L533.595 82.7702Z" fill="#F5EDFF" stroke="#5100CD" stroke-linecap="round" stroke-linejoin="round"/>
<path d="M523.998 97.8621V88.2644L514.408 82.7285V92.3263L523.998 97.8621Z" fill="#F5EDFF" stroke="#5100CD" stroke-linecap="round" stroke-linejoin="round"/>
<path d="M523.998 97.8621V88.2644L533.587 82.7285V92.3263L523.998 97.8621Z" fill="#F5EDFF" stroke="#5100CD" stroke-linecap="round" stroke-linejoin="round"/>
<path d="M514.4 82.7201L523.998 77.2261L533.579 82.7201L523.99 88.2559L514.4 82.7201Z" fill="#F5EDFF" stroke="#5100CD" stroke-linecap="round" stroke-linejoin="round"/>
<path d="M526.552 89.8557V99.4451L536.141 93.9092V84.3198L526.552 89.8557Z" fill="#F5EDFF" stroke="#5100CD" stroke-linecap="round" stroke-linejoin="round"/>
<path d="M545.755 89.8557V99.4451L536.166 93.9092V84.3198L545.755 89.8557Z" fill="#F5EDFF" stroke="#5100CD" stroke-linecap="round" stroke-linejoin="round"/>
<path d="M536.15 104.956V95.3581L526.561 89.8223V99.42L536.15 104.956Z" fill="#F5EDFF" stroke="#5100CD" stroke-linecap="round" stroke-linejoin="round"/>
<path d="M536.149 104.956V95.3581L545.739 89.8223V99.42L536.149 104.956Z" fill="#F5EDFF" stroke="#5100CD" stroke-linecap="round" stroke-linejoin="round"/>
<path d="M526.561 89.8138L536.158 84.3198L545.739 89.8138L536.15 95.3497L526.561 89.8138Z" fill="#F5EDFF" stroke="#5100CD" stroke-linecap="round" stroke-linejoin="round"/>
<path d="M490.037 82.7702V92.3596L499.626 86.8237V77.2344L490.037 82.7702Z" fill="#F5EDFF" stroke="#5100CD" stroke-linecap="round" stroke-linejoin="round"/>
<path d="M509.233 82.7702V92.3596L499.644 86.8237V77.2344L509.233 82.7702Z" fill="#F5EDFF" stroke="#5100CD" stroke-linecap="round" stroke-linejoin="round"/>
<path d="M499.635 97.8621V88.2644L490.046 82.7285V92.3263L499.635 97.8621Z" fill="#F1E9FD" stroke="#5100CD" stroke-linecap="round" stroke-linejoin="round"/>
<path d="M499.635 97.8621V88.2644L509.224 82.7285V92.3263L499.635 97.8621Z" fill="#F5EDFF" stroke="#5100CD" stroke-linecap="round" stroke-linejoin="round"/>
<path d="M490.046 82.7201L499.644 77.2261L509.225 82.7201L499.635 88.2559L490.046 82.7201Z" fill="#F5EDFF" stroke="#5100CD" stroke-linecap="round" stroke-linejoin="round"/>
<path d="M502.197 89.8557V99.4451L511.787 93.9092V84.3198L502.197 89.8557Z" fill="#F5EDFF" stroke="#5100CD" stroke-linecap="round" stroke-linejoin="round"/>
<path d="M521.393 89.8557V99.4451L511.804 93.9092V84.3198L521.393 89.8557Z" fill="#F5EDFF" stroke="#5100CD" stroke-linecap="round" stroke-linejoin="round"/>
<path d="M511.795 104.956V95.3581L502.206 89.8223V99.42L511.795 104.956Z" fill="#F1E9FD" stroke="#5100CD" stroke-linecap="round" stroke-linejoin="round"/>
<path d="M511.795 104.956V95.3581L521.384 89.8223V99.42L511.795 104.956Z" fill="#F5EDFF" stroke="#5100CD" stroke-linecap="round" stroke-linejoin="round"/>
<path d="M502.197 89.8138L511.795 84.3198L521.376 89.8138L511.787 95.3497L502.197 89.8138Z" fill="#F5EDFF" stroke="#5100CD" stroke-linecap="round" stroke-linejoin="round"/>
<path d="M514.35 96.949V106.538L523.939 101.002V91.4131L514.35 96.949Z" fill="#F5EDFF" stroke="#5100CD" stroke-linecap="round" stroke-linejoin="round"/>
<path d="M533.553 96.949V106.538L523.964 101.002V91.4131L533.553 96.949Z" fill="#F5EDFF" stroke="#5100CD" stroke-linecap="round" stroke-linejoin="round"/>
<path d="M523.947 112.041V102.443L514.357 96.9072V106.505L523.947 112.041Z" fill="#F1E9FD" stroke="#5100CD" stroke-linecap="round" stroke-linejoin="round"/>
<path d="M523.956 112.041V102.443L533.545 96.9072V106.505L523.956 112.041Z" fill="#F5EDFF" stroke="#5100CD" stroke-linecap="round" stroke-linejoin="round"/>
<path d="M514.357 96.8988L523.955 91.4048L533.536 96.8988L523.947 102.435L514.357 96.8988Z" fill="#F5EDFF" stroke="#5100CD" stroke-linecap="round" stroke-linejoin="round"/>
<path d="M572.631 77.2261V86.8155L582.22 92.3513V82.7619L572.631 77.2261Z" fill="#F5EDFF" stroke="#5100CD" stroke-linecap="round" stroke-linejoin="round"/>
<path d="M572.622 77.2261V86.8155L563.033 92.3513V82.7619L572.622 77.2261Z" fill="#F5EDFF" stroke="#5100CD" stroke-linecap="round" stroke-linejoin="round"/>
<path d="M582.22 92.3263V82.7285L572.631 88.2644V97.8621L582.22 92.3263Z" fill="#5100CD" stroke="#5100CD" stroke-linecap="round" stroke-linejoin="round"/>
<path d="M563.033 92.3263V82.7285L572.622 88.2644V97.8621L563.033 92.3263Z" fill="#F5EDFF" stroke="#5100CD" stroke-linecap="round" stroke-linejoin="round"/>
<path d="M572.623 88.2642L563.033 82.7284L572.614 77.2344L582.212 82.7284L572.623 88.2642Z" fill="#F5EDFF" stroke="#5100CD" stroke-linecap="round" stroke-linejoin="round"/>
<path d="M560.479 84.3198V93.9092L570.069 99.4451V89.8557L560.479 84.3198Z" fill="#F5EDFF" stroke="#5100CD" stroke-linecap="round" stroke-linejoin="round"/>
<path d="M560.462 84.3198V93.9092L550.873 99.4451V89.8557L560.462 84.3198Z" fill="#F5EDFF" stroke="#5100CD" stroke-linecap="round" stroke-linejoin="round"/>
<path d="M570.06 99.4117V89.814L560.471 95.3498V104.948L570.06 99.4117Z" fill="#DBC8F6" stroke="#5100CD" stroke-linecap="round" stroke-linejoin="round"/>
<path d="M550.873 99.4117V89.814L560.462 95.3498V104.948L550.873 99.4117Z" fill="#F5EDFF" stroke="#5100CD" stroke-linecap="round" stroke-linejoin="round"/>
<path d="M560.471 95.3497L550.882 89.8138L560.463 84.3198L570.061 89.8138L560.471 95.3497Z" fill="#F5EDFF" stroke="#5100CD" stroke-linecap="round" stroke-linejoin="round"/>
<path d="M548.319 91.4048V100.994L557.909 106.53V96.9407L548.319 91.4048Z" fill="#F5EDFF" stroke="#5100CD" stroke-linecap="round" stroke-linejoin="round"/>
<path d="M548.302 91.4048V100.994L538.713 106.53V96.9407L548.302 91.4048Z" fill="#F5EDFF" stroke="#5100CD" stroke-linecap="round" stroke-linejoin="round"/>
<path d="M557.9 106.497V96.8989L548.311 102.435V112.033L557.9 106.497Z" fill="#DBC8F6" stroke="#5100CD" stroke-linecap="round" stroke-linejoin="round"/>
<path d="M538.722 106.497V96.8989L548.311 102.435V112.033L538.722 106.497Z" fill="#F5EDFF" stroke="#5100CD" stroke-linecap="round" stroke-linejoin="round"/>
<path d="M548.311 102.443L538.722 96.9071L548.303 91.4131L557.9 96.9071L548.311 102.443Z" fill="#F5EDFF" stroke="#5100CD" stroke-linecap="round" stroke-linejoin="round"/>
<path d="M526.51 104.034V113.624L536.099 108.088V98.4985L526.51 104.034Z" fill="#F5EDFF" stroke="#5100CD" stroke-linecap="round" stroke-linejoin="round"/>
<path d="M545.706 104.034V113.624L536.116 108.088V98.4985L545.706 104.034Z" fill="#F5EDFF" stroke="#5100CD" stroke-linecap="round" stroke-linejoin="round"/>
<path d="M536.108 119.126V109.529L526.519 103.993V113.59L536.108 119.126Z" fill="#F1E9FD" stroke="#5100CD" stroke-linecap="round" stroke-linejoin="round"/>
<path d="M536.107 119.126V109.529L545.697 103.993V113.59L536.107 119.126Z" fill="#5100CD" stroke="#5100CD" stroke-linecap="round" stroke-linejoin="round"/>
<path d="M526.519 103.993L536.116 98.4985L545.697 103.993L536.108 109.528L526.519 103.993Z" fill="#F5EDFF" stroke="#5100CD" stroke-linecap="round" stroke-linejoin="round"/>
<path d="M526.552 48.9939V58.5833L536.141 53.0474V43.458L526.552 48.9939Z" fill="#F5EDFF" stroke="#5100CD" stroke-linecap="round" stroke-linejoin="round"/>
<path d="M545.755 48.9939V58.5833L536.166 53.0474V43.458L545.755 48.9939Z" fill="#F5EDFF" stroke="#5100CD" stroke-linecap="round" stroke-linejoin="round"/>
<path d="M536.15 64.0941V54.4963L526.561 48.9604V58.5582L536.15 64.0941Z" fill="#F5EDFF" stroke="#5100CD" stroke-linecap="round" stroke-linejoin="round"/>
<path d="M536.149 64.0941V54.4963L545.739 48.9604V58.5582L536.149 64.0941Z" fill="#F5EDFF" stroke="#5100CD" stroke-linecap="round" stroke-linejoin="round"/>
<path d="M526.561 48.952L536.158 43.458L545.739 48.952L536.15 54.4879L526.561 48.952Z" fill="#F5EDFF" stroke="#5100CD" stroke-linecap="round" stroke-linejoin="round"/>
<path d="M538.713 56.0876V65.677L548.302 60.1411V50.5518L538.713 56.0876Z" fill="#F5EDFF" stroke="#5100CD" stroke-linecap="round" stroke-linejoin="round"/>
<path d="M557.909 56.0876V65.677L548.319 60.1411V50.5518L557.909 56.0876Z" fill="#F5EDFF" stroke="#5100CD" stroke-linecap="round" stroke-linejoin="round"/>
<path d="M548.311 71.1795V61.5818L538.722 56.0459V65.6436L548.311 71.1795Z" fill="#F5EDFF" stroke="#5100CD" stroke-linecap="round" stroke-linejoin="round"/>
<path d="M548.311 71.1795V61.5818L557.9 56.0459V65.6436L548.311 71.1795Z" fill="#F5EDFF" stroke="#5100CD" stroke-linecap="round" stroke-linejoin="round"/>
<path d="M538.722 56.0375L548.319 50.5435L557.9 56.0375L548.311 61.5733L538.722 56.0375Z" fill="#F5EDFF" stroke="#5100CD" stroke-linecap="round" stroke-linejoin="round"/>
<path d="M550.873 63.1726V72.762L560.462 67.2261V57.6367L550.873 63.1726Z" fill="#F5EDFF" stroke="#5100CD" stroke-linecap="round" stroke-linejoin="round"/>
<path d="M570.069 63.1726V72.762L560.479 67.2261V57.6367L570.069 63.1726Z" fill="#F5EDFF" stroke="#5100CD" stroke-linecap="round" stroke-linejoin="round"/>
<path d="M560.471 78.2645V68.6667L550.882 63.1309V72.7286L560.471 78.2645Z" fill="#F5EDFF" stroke="#5100CD" stroke-linecap="round" stroke-linejoin="round"/>
<path d="M560.471 78.2645V68.6667L570.06 63.1309V72.7286L560.471 78.2645Z" fill="#F5EDFF" stroke="#5100CD" stroke-linecap="round" stroke-linejoin="round"/>
<path d="M550.873 63.1307L560.471 57.6367L570.052 63.1307L560.462 68.6666L550.873 63.1307Z" fill="#F5EDFF" stroke="#5100CD" stroke-linecap="round" stroke-linejoin="round"/>
<path d="M514.392 56.0876V65.677L523.981 60.1411V50.5518L514.392 56.0876Z" fill="#F5EDFF" stroke="#5100CD" stroke-linecap="round" stroke-linejoin="round"/>
<path d="M533.595 56.0876V65.677L524.006 60.1411V50.5518L533.595 56.0876Z" fill="#F5EDFF" stroke="#5100CD" stroke-linecap="round" stroke-linejoin="round"/>
<path d="M523.998 71.1795V61.5818L514.408 56.0459V65.6436L523.998 71.1795Z" fill="#F5EDFF" stroke="#5100CD" stroke-linecap="round" stroke-linejoin="round"/>
<path d="M523.998 71.1795V61.5818L533.587 56.0459V65.6436L523.998 71.1795Z" fill="#F5EDFF" stroke="#5100CD" stroke-linecap="round" stroke-linejoin="round"/>
<path d="M514.4 56.0375L523.998 50.5435L533.579 56.0375L523.99 61.5733L514.4 56.0375Z" fill="#F5EDFF" stroke="#5100CD" stroke-linecap="round" stroke-linejoin="round"/>
<path d="M526.552 63.1726V72.762L536.141 67.2261V57.6367L526.552 63.1726Z" fill="#F5EDFF" stroke="#5100CD" stroke-linecap="round" stroke-linejoin="round"/>
<path d="M545.755 63.1726V72.762L536.166 67.2261V57.6367L545.755 63.1726Z" fill="#F5EDFF" stroke="#5100CD" stroke-linecap="round" stroke-linejoin="round"/>
<path d="M536.15 78.2645V68.6667L526.561 63.1309V72.7286L536.15 78.2645Z" fill="#F5EDFF" stroke="#5100CD" stroke-linecap="round" stroke-linejoin="round"/>
<path d="M536.149 78.2645V68.6667L545.739 63.1309V72.7286L536.149 78.2645Z" fill="#F5EDFF" stroke="#5100CD" stroke-linecap="round" stroke-linejoin="round"/>
<path d="M526.561 63.1307L536.158 57.6367L545.739 63.1307L536.15 68.6666L526.561 63.1307Z" fill="#F5EDFF" stroke="#5100CD" stroke-linecap="round" stroke-linejoin="round"/>
<path d="M538.713 70.2663V79.8557L548.302 74.3198V64.7305L538.713 70.2663Z" fill="#F5EDFF" stroke="#5100CD" stroke-linecap="round" stroke-linejoin="round"/>
<path d="M557.909 70.2663V79.8557L548.319 74.3198V64.7305L557.909 70.2663Z" fill="#F5EDFF" stroke="#5100CD" stroke-linecap="round" stroke-linejoin="round"/>
<path d="M548.311 85.3582V75.7605L538.722 70.2246V79.8224L548.311 85.3582Z" fill="#F5EDFF" stroke="#5100CD" stroke-linecap="round" stroke-linejoin="round"/>
<path d="M548.311 85.3582V75.7605L557.9 70.2246V79.8224L548.311 85.3582Z" fill="#F5EDFF" stroke="#5100CD" stroke-linecap="round" stroke-linejoin="round"/>
<path d="M538.722 70.2162L548.319 64.7222L557.9 70.2162L548.311 75.752L538.722 70.2162Z" fill="#F5EDFF" stroke="#5100CD" stroke-linecap="round" stroke-linejoin="round"/>
<path d="M502.239 63.1726V72.762L511.829 67.2261V57.6367L502.239 63.1726Z" fill="#F5EDFF" stroke="#5100CD" stroke-linecap="round" stroke-linejoin="round"/>
<path d="M521.435 63.1726V72.762L511.846 67.2261V57.6367L521.435 63.1726Z" fill="#F5EDFF" stroke="#5100CD" stroke-linecap="round" stroke-linejoin="round"/>
<path d="M511.837 78.2645V68.6667L502.248 63.1309V72.7286L511.837 78.2645Z" fill="#F5EDFF" stroke="#5100CD" stroke-linecap="round" stroke-linejoin="round"/>
<path d="M511.837 78.2645V68.6667L521.426 63.1309V72.7286L511.837 78.2645Z" fill="#F5EDFF" stroke="#5100CD" stroke-linecap="round" stroke-linejoin="round"/>
<path d="M502.248 63.1307L511.846 57.6367L521.427 63.1307L511.837 68.6666L502.248 63.1307Z" fill="#F5EDFF" stroke="#5100CD" stroke-linecap="round" stroke-linejoin="round"/>
<path d="M514.392 70.2663V79.8557L523.981 74.3198V64.7305L514.392 70.2663Z" fill="#F5EDFF" stroke="#5100CD" stroke-linecap="round" stroke-linejoin="round"/>
<path d="M533.595 70.2663V79.8557L524.006 74.3198V64.7305L533.595 70.2663Z" fill="#F5EDFF" stroke="#5100CD" stroke-linecap="round" stroke-linejoin="round"/>
<path d="M523.998 85.3582V75.7605L514.408 70.2246V79.8224L523.998 85.3582Z" fill="#F5EDFF" stroke="#5100CD" stroke-linecap="round" stroke-linejoin="round"/>
<path d="M523.998 85.3582V75.7605L533.587 70.2246V79.8224L523.998 85.3582Z" fill="#F5EDFF" stroke="#5100CD" stroke-linecap="round" stroke-linejoin="round"/>
<path d="M514.4 70.2162L523.998 64.7222L533.579 70.2162L523.99 75.752L514.4 70.2162Z" fill="#F5EDFF" stroke="#5100CD" stroke-linecap="round" stroke-linejoin="round"/>
<path d="M526.552 77.3518V86.9412L536.141 81.4053V71.8159L526.552 77.3518Z" fill="#F5EDFF" stroke="#5100CD" stroke-linecap="round" stroke-linejoin="round"/>
<path d="M545.755 77.3518V86.9412L536.166 81.4053V71.8159L545.755 77.3518Z" fill="#F5EDFF" stroke="#5100CD" stroke-linecap="round" stroke-linejoin="round"/>
<path d="M536.15 92.4437V82.8459L526.561 77.3101V86.9078L536.15 92.4437Z" fill="#F5EDFF" stroke="#5100CD" stroke-linecap="round" stroke-linejoin="round"/>
<path d="M536.149 92.4437V82.8459L545.739 77.3101V86.9078L536.149 92.4437Z" fill="#F5EDFF" stroke="#5100CD" stroke-linecap="round" stroke-linejoin="round"/>
<path d="M526.561 77.3099L536.158 71.8159L545.739 77.3099L536.15 82.8458L526.561 77.3099Z" fill="#F5EDFF" stroke="#5100CD" stroke-linecap="round" stroke-linejoin="round"/>
<path d="M490.037 70.2663V79.8557L499.626 74.3198V64.7305L490.037 70.2663Z" fill="#F5EDFF" stroke="#5100CD" stroke-linecap="round" stroke-linejoin="round"/>
<path d="M509.233 70.2663V79.8557L499.644 74.3198V64.7305L509.233 70.2663Z" fill="#F5EDFF" stroke="#5100CD" stroke-linecap="round" stroke-linejoin="round"/>
<path d="M499.635 85.3582V75.7605L490.046 70.2246V79.8224L499.635 85.3582Z" fill="#F1E9FD" stroke="#5100CD" stroke-linecap="round" stroke-linejoin="round"/>
<path d="M499.635 85.3582V75.7605L509.224 70.2246V79.8224L499.635 85.3582Z" fill="#F5EDFF" stroke="#5100CD" stroke-linecap="round" stroke-linejoin="round"/>
<path d="M490.046 70.2162L499.644 64.7222L509.225 70.2162L499.635 75.752L490.046 70.2162Z" fill="#F5EDFF" stroke="#5100CD" stroke-linecap="round" stroke-linejoin="round"/>
<path d="M502.197 77.3518V86.9412L511.787 81.4053V71.8159L502.197 77.3518Z" fill="#F5EDFF" stroke="#5100CD" stroke-linecap="round" stroke-linejoin="round"/>
<path d="M521.393 77.3518V86.9412L511.804 81.4053V71.8159L521.393 77.3518Z" fill="#F5EDFF" stroke="#5100CD" stroke-linecap="round" stroke-linejoin="round"/>
<path d="M511.795 92.4437V82.8459L502.206 77.3101V86.9078L511.795 92.4437Z" fill="#F1E9FD" stroke="#5100CD" stroke-linecap="round" stroke-linejoin="round"/>
<path d="M511.795 92.4437V82.8459L521.384 77.3101V86.9078L511.795 92.4437Z" fill="#F5EDFF" stroke="#5100CD" stroke-linecap="round" stroke-linejoin="round"/>
<path d="M502.197 77.3099L511.795 71.8159L521.376 77.3099L511.787 82.8458L502.197 77.3099Z" fill="#F5EDFF" stroke="#5100CD" stroke-linecap="round" stroke-linejoin="round"/>
<path d="M514.35 84.4368V94.0261L523.939 88.4903V78.9009L514.35 84.4368Z" fill="#F5EDFF" stroke="#5100CD" stroke-linecap="round" stroke-linejoin="round"/>
<path d="M533.553 84.4368V94.0261L523.964 88.4903V78.9009L533.553 84.4368Z" fill="#F5EDFF" stroke="#5100CD" stroke-linecap="round" stroke-linejoin="round"/>
<path d="M523.947 99.5369V89.9392L514.357 84.4033V94.0011L523.947 99.5369Z" fill="#F1E9FD" stroke="#5100CD" stroke-linecap="round" stroke-linejoin="round"/>
<path d="M523.956 99.5369V89.9392L533.545 84.4033V94.0011L523.956 99.5369Z" fill="#F5EDFF" stroke="#5100CD" stroke-linecap="round" stroke-linejoin="round"/>
<path d="M514.357 84.3949L523.955 78.9009L533.536 84.3949L523.947 89.9308L514.357 84.3949Z" fill="#F5EDFF" stroke="#5100CD" stroke-linecap="round" stroke-linejoin="round"/>
<path d="M572.631 64.7222V74.3115L582.22 79.8474V70.258L572.631 64.7222Z" fill="#F5EDFF" stroke="#5100CD" stroke-linecap="round" stroke-linejoin="round"/>
<path d="M572.622 64.7222V74.3115L563.033 79.8474V70.258L572.622 64.7222Z" fill="#F5EDFF" stroke="#5100CD" stroke-linecap="round" stroke-linejoin="round"/>
<path d="M582.22 79.8141V70.2163L572.631 75.7522V85.3499L582.22 79.8141Z" fill="#DBC8F6" stroke="#5100CD" stroke-linecap="round" stroke-linejoin="round"/>
<path d="M563.033 79.8141V70.2163L572.622 75.7522V85.3499L563.033 79.8141Z" fill="#F5EDFF" stroke="#5100CD" stroke-linecap="round" stroke-linejoin="round"/>
<path d="M572.623 75.7603L563.033 70.2245L572.614 64.7305L582.212 70.2245L572.623 75.7603Z" fill="#F5EDFF" stroke="#5100CD" stroke-linecap="round" stroke-linejoin="round"/>
<path d="M560.479 71.8159V81.4053L570.069 86.9412V77.3518L560.479 71.8159Z" fill="#F5EDFF" stroke="#5100CD" stroke-linecap="round" stroke-linejoin="round"/>
<path d="M560.462 71.8159V81.4053L550.873 86.9412V77.3518L560.462 71.8159Z" fill="#F5EDFF" stroke="#5100CD" stroke-linecap="round" stroke-linejoin="round"/>
<path d="M570.06 86.9078V77.3101L560.471 82.8459V92.4437L570.06 86.9078Z" fill="#DBC8F6" stroke="#5100CD" stroke-linecap="round" stroke-linejoin="round"/>
<path d="M550.873 86.9078V77.3101L560.462 82.8459V92.4437L550.873 86.9078Z" fill="#F5EDFF" stroke="#5100CD" stroke-linecap="round" stroke-linejoin="round"/>
<path d="M560.471 82.8458L550.882 77.3099L560.463 71.8159L570.061 77.3099L560.471 82.8458Z" fill="#F5EDFF" stroke="#5100CD" stroke-linecap="round" stroke-linejoin="round"/>
<path d="M548.319 78.9009V88.4903L557.909 94.0261V84.4368L548.319 78.9009Z" fill="#F5EDFF" stroke="#5100CD" stroke-linecap="round" stroke-linejoin="round"/>
<path d="M548.302 78.9009V88.4903L538.713 94.0261V84.4368L548.302 78.9009Z" fill="#F5EDFF" stroke="#5100CD" stroke-linecap="round" stroke-linejoin="round"/>
<path d="M557.9 93.9928V84.395L548.311 89.9309V99.5286L557.9 93.9928Z" fill="#5100CD" stroke="#5100CD" stroke-linecap="round" stroke-linejoin="round"/>
<path d="M538.722 93.9928V84.395L548.311 89.9309V99.5286L538.722 93.9928Z" fill="#F5EDFF" stroke="#5100CD" stroke-linecap="round" stroke-linejoin="round"/>
<path d="M548.311 89.9308L538.722 84.3949L548.303 78.9009L557.9 84.3949L548.311 89.9308Z" fill="#F5EDFF" stroke="#5100CD" stroke-linecap="round" stroke-linejoin="round"/>
<path d="M526.51 91.5305V101.12L536.099 95.584V85.9946L526.51 91.5305Z" fill="#F5EDFF" stroke="#5100CD" stroke-linecap="round" stroke-linejoin="round"/>
<path d="M545.706 91.5305V101.12L536.116 95.584V85.9946L545.706 91.5305Z" fill="#F5EDFF" stroke="#5100CD" stroke-linecap="round" stroke-linejoin="round"/>
<path d="M536.108 106.622V97.0246L526.519 91.4888V101.087L536.108 106.622Z" fill="#F1E9FD" stroke="#5100CD" stroke-linecap="round" stroke-linejoin="round"/>
<path d="M536.107 106.622V97.0246L545.697 91.4888V101.087L536.107 106.622Z" fill="#DBC8F6" stroke="#5100CD" stroke-linecap="round" stroke-linejoin="round"/>
<path d="M526.519 91.4803L536.116 85.9863L545.697 91.4803L536.108 97.0162L526.519 91.4803Z" fill="#F5EDFF" stroke="#5100CD" stroke-linecap="round" stroke-linejoin="round"/>
<path d="M526.552 36.49V46.0794L536.141 40.5435V30.9541L526.552 36.49Z" fill="#F5EDFF" stroke="#5100CD" stroke-linecap="round" stroke-linejoin="round"/>
<path d="M545.755 36.49V46.0794L536.166 40.5435V30.9541L545.755 36.49Z" fill="#F5EDFF" stroke="#5100CD" stroke-linecap="round" stroke-linejoin="round"/>
<path d="M536.15 51.5819V41.9841L526.561 36.4482V46.046L536.15 51.5819Z" fill="#F5EDFF" stroke="#5100CD" stroke-linecap="round" stroke-linejoin="round"/>
<path d="M536.149 51.5819V41.9841L545.739 36.4482V46.046L536.149 51.5819Z" fill="#F5EDFF" stroke="#5100CD" stroke-linecap="round" stroke-linejoin="round"/>
<path d="M526.561 36.4481L536.158 30.9541L545.739 36.4481L536.15 41.984L526.561 36.4481Z" fill="#F5EDFF" stroke="#5100CD" stroke-linecap="round" stroke-linejoin="round"/>
<path d="M538.713 43.5754V53.1648L548.302 47.6289V38.0396L538.713 43.5754Z" fill="#F5EDFF" stroke="#5100CD" stroke-linecap="round" stroke-linejoin="round"/>
<path d="M557.909 43.5754V53.1648L548.319 47.6289V38.0396L557.909 43.5754Z" fill="#F5EDFF" stroke="#5100CD" stroke-linecap="round" stroke-linejoin="round"/>
<path d="M548.311 58.6756V49.0779L538.722 43.542V53.1397L548.311 58.6756Z" fill="#F5EDFF" stroke="#5100CD" stroke-linecap="round" stroke-linejoin="round"/>
<path d="M548.311 58.6756V49.0779L557.9 43.542V53.1397L548.311 58.6756Z" fill="#F5EDFF" stroke="#5100CD" stroke-linecap="round" stroke-linejoin="round"/>
<path d="M538.722 43.5336L548.319 38.0396L557.9 43.5336L548.311 49.0694L538.722 43.5336Z" fill="#F5EDFF" stroke="#5100CD" stroke-linecap="round" stroke-linejoin="round"/>
<path d="M550.873 50.6687V60.2581L560.462 54.7222V45.1328L550.873 50.6687Z" fill="#F5EDFF" stroke="#5100CD" stroke-linecap="round" stroke-linejoin="round"/>
<path d="M570.069 50.6687V60.2581L560.479 54.7222V45.1328L570.069 50.6687Z" fill="#F5EDFF" stroke="#5100CD" stroke-linecap="round" stroke-linejoin="round"/>
<path d="M560.471 65.7606V56.1628L550.882 50.627V60.2247L560.471 65.7606Z" fill="#F5EDFF" stroke="#5100CD" stroke-linecap="round" stroke-linejoin="round"/>
<path d="M560.471 65.7606V56.1628L570.06 50.627V60.2247L560.471 65.7606Z" fill="#F5EDFF" stroke="#5100CD" stroke-linecap="round" stroke-linejoin="round"/>
<path d="M550.873 50.6185L560.471 45.1245L570.052 50.6185L560.462 56.1544L550.873 50.6185Z" fill="#F5EDFF" stroke="#5100CD" stroke-linecap="round" stroke-linejoin="round"/>
<path d="M514.392 43.5754V53.1648L523.981 47.6289V38.0396L514.392 43.5754Z" fill="#F5EDFF" stroke="#5100CD" stroke-linecap="round" stroke-linejoin="round"/>
<path d="M533.595 43.5754V53.1648L524.006 47.6289V38.0396L533.595 43.5754Z" fill="#F5EDFF" stroke="#5100CD" stroke-linecap="round" stroke-linejoin="round"/>
<path d="M523.998 58.6756V49.0779L514.408 43.542V53.1397L523.998 58.6756Z" fill="#F5EDFF" stroke="#5100CD" stroke-linecap="round" stroke-linejoin="round"/>
<path d="M523.998 58.6756V49.0779L533.587 43.542V53.1397L523.998 58.6756Z" fill="#F5EDFF" stroke="#5100CD" stroke-linecap="round" stroke-linejoin="round"/>
<path d="M514.4 43.5336L523.998 38.0396L533.579 43.5336L523.99 49.0694L514.4 43.5336Z" fill="#F5EDFF" stroke="#5100CD" stroke-linecap="round" stroke-linejoin="round"/>
<path d="M526.552 50.6687V60.2581L536.141 54.7222V45.1328L526.552 50.6687Z" fill="#F5EDFF" stroke="#5100CD" stroke-linecap="round" stroke-linejoin="round"/>
<path d="M545.755 50.6687V60.2581L536.166 54.7222V45.1328L545.755 50.6687Z" fill="#F5EDFF" stroke="#5100CD" stroke-linecap="round" stroke-linejoin="round"/>
<path d="M536.15 65.7606V56.1628L526.561 50.627V60.2247L536.15 65.7606Z" fill="#F5EDFF" stroke="#5100CD" stroke-linecap="round" stroke-linejoin="round"/>
<path d="M536.149 65.7606V56.1628L545.739 50.627V60.2247L536.149 65.7606Z" fill="#F5EDFF" stroke="#5100CD" stroke-linecap="round" stroke-linejoin="round"/>
<path d="M526.561 50.6185L536.158 45.1245L545.739 50.6185L536.15 56.1544L526.561 50.6185Z" fill="#F5EDFF" stroke="#5100CD" stroke-linecap="round" stroke-linejoin="round"/>
<path d="M538.713 57.7541V67.3435L548.302 61.8076V52.2183L538.713 57.7541Z" fill="#F5EDFF" stroke="#5100CD" stroke-linecap="round" stroke-linejoin="round"/>
<path d="M557.909 57.7541V67.3435L548.319 61.8076V52.2183L557.909 57.7541Z" fill="#F5EDFF" stroke="#5100CD" stroke-linecap="round" stroke-linejoin="round"/>
<path d="M548.311 72.846V63.2483L538.722 57.7124V67.3102L548.311 72.846Z" fill="#F5EDFF" stroke="#5100CD" stroke-linecap="round" stroke-linejoin="round"/>
<path d="M548.311 72.846V63.2483L557.9 57.7124V67.3102L548.311 72.846Z" fill="#F5EDFF" stroke="#5100CD" stroke-linecap="round" stroke-linejoin="round"/>
<path d="M538.722 57.7123L548.319 52.2183L557.9 57.7123L548.311 63.2481L538.722 57.7123Z" fill="#F5EDFF" stroke="#5100CD" stroke-linecap="round" stroke-linejoin="round"/>
<path d="M502.239 50.6687V60.2581L511.829 54.7222V45.1328L502.239 50.6687Z" fill="#F5EDFF" stroke="#5100CD" stroke-linecap="round" stroke-linejoin="round"/>
<path d="M521.435 50.6687V60.2581L511.846 54.7222V45.1328L521.435 50.6687Z" fill="#F5EDFF" stroke="#5100CD" stroke-linecap="round" stroke-linejoin="round"/>
<path d="M511.837 65.7606V56.1628L502.248 50.627V60.2247L511.837 65.7606Z" fill="#F5EDFF" stroke="#5100CD" stroke-linecap="round" stroke-linejoin="round"/>
<path d="M511.837 65.7606V56.1628L521.426 50.627V60.2247L511.837 65.7606Z" fill="#F5EDFF" stroke="#5100CD" stroke-linecap="round" stroke-linejoin="round"/>
<path d="M502.248 50.6185L511.846 45.1245L521.427 50.6185L511.837 56.1544L502.248 50.6185Z" fill="#F5EDFF" stroke="#5100CD" stroke-linecap="round" stroke-linejoin="round"/>
<path d="M514.392 57.7541V67.3435L523.981 61.8076V52.2183L514.392 57.7541Z" fill="#F5EDFF" stroke="#5100CD" stroke-linecap="round" stroke-linejoin="round"/>
<path d="M533.595 57.7541V67.3435L524.006 61.8076V52.2183L533.595 57.7541Z" fill="#F5EDFF" stroke="#5100CD" stroke-linecap="round" stroke-linejoin="round"/>
<path d="M523.998 72.846V63.2483L514.408 57.7124V67.3102L523.998 72.846Z" fill="#F5EDFF" stroke="#5100CD" stroke-linecap="round" stroke-linejoin="round"/>
<path d="M523.998 72.846V63.2483L533.587 57.7124V67.3102L523.998 72.846Z" fill="#F5EDFF" stroke="#5100CD" stroke-linecap="round" stroke-linejoin="round"/>
<path d="M514.4 57.7123L523.998 52.2183L533.579 57.7123L523.99 63.2481L514.4 57.7123Z" fill="#F5EDFF" stroke="#5100CD" stroke-linecap="round" stroke-linejoin="round"/>
<path d="M526.552 64.8479V74.4373L536.141 68.9014V59.312L526.552 64.8479Z" fill="#F5EDFF" stroke="#5100CD" stroke-linecap="round" stroke-linejoin="round"/>
<path d="M545.755 64.8479V74.4373L536.166 68.9014V59.312L545.755 64.8479Z" fill="#F5EDFF" stroke="#5100CD" stroke-linecap="round" stroke-linejoin="round"/>
<path d="M536.15 79.9398V70.342L526.561 64.8062V74.4039L536.15 79.9398Z" fill="#F5EDFF" stroke="#5100CD" stroke-linecap="round" stroke-linejoin="round"/>
<path d="M536.149 79.9398V70.342L545.739 64.8062V74.4039L536.149 79.9398Z" fill="#F5EDFF" stroke="#5100CD" stroke-linecap="round" stroke-linejoin="round"/>
<path d="M526.561 64.7977L536.158 59.3037L545.739 64.7977L536.15 70.3336L526.561 64.7977Z" fill="#F5EDFF" stroke="#5100CD" stroke-linecap="round" stroke-linejoin="round"/>
<path d="M490.037 57.7541V67.3435L499.626 61.8076V52.2183L490.037 57.7541Z" fill="#F5EDFF" stroke="#5100CD" stroke-linecap="round" stroke-linejoin="round"/>
<path d="M509.233 57.7541V67.3435L499.644 61.8076V52.2183L509.233 57.7541Z" fill="#F5EDFF" stroke="#5100CD" stroke-linecap="round" stroke-linejoin="round"/>
<path d="M499.635 72.846V63.2483L490.046 57.7124V67.3102L499.635 72.846Z" fill="#F1E9FD" stroke="#5100CD" stroke-linecap="round" stroke-linejoin="round"/>
<path d="M499.635 72.846V63.2483L509.224 57.7124V67.3102L499.635 72.846Z" fill="#F5EDFF" stroke="#5100CD" stroke-linecap="round" stroke-linejoin="round"/>
<path d="M490.046 57.7123L499.644 52.2183L509.225 57.7123L499.635 63.2481L490.046 57.7123Z" fill="#F5EDFF" stroke="#5100CD" stroke-linecap="round" stroke-linejoin="round"/>
<path d="M502.197 64.8479V74.4373L511.787 68.9014V59.312L502.197 64.8479Z" fill="#F5EDFF" stroke="#5100CD" stroke-linecap="round" stroke-linejoin="round"/>
<path d="M521.393 64.8479V74.4373L511.804 68.9014V59.312L521.393 64.8479Z" fill="#F5EDFF" stroke="#5100CD" stroke-linecap="round" stroke-linejoin="round"/>
<path d="M511.795 79.9398V70.342L502.206 64.8062V74.4039L511.795 79.9398Z" fill="#F1E9FD" stroke="#5100CD" stroke-linecap="round" stroke-linejoin="round"/>
<path d="M511.795 79.9398V70.342L521.384 64.8062V74.4039L511.795 79.9398Z" fill="#F5EDFF" stroke="#5100CD" stroke-linecap="round" stroke-linejoin="round"/>
<path d="M502.197 64.7977L511.795 59.3037L521.376 64.7977L511.787 70.3336L502.197 64.7977Z" fill="#F5EDFF" stroke="#5100CD" stroke-linecap="round" stroke-linejoin="round"/>
<path d="M514.35 71.9328V81.5222L523.939 75.9864V66.397L514.35 71.9328Z" fill="#F5EDFF" stroke="#5100CD" stroke-linecap="round" stroke-linejoin="round"/>
<path d="M533.553 71.9328V81.5222L523.964 75.9864V66.397L533.553 71.9328Z" fill="#F5EDFF" stroke="#5100CD" stroke-linecap="round" stroke-linejoin="round"/>
<path d="M523.947 87.0247V77.427L514.357 71.8911V81.4889L523.947 87.0247Z" fill="#F1E9FD" stroke="#5100CD" stroke-linecap="round" stroke-linejoin="round"/>
<path d="M523.956 87.0247V77.427L533.545 71.8911V81.4889L523.956 87.0247Z" fill="#F5EDFF" stroke="#5100CD" stroke-linecap="round" stroke-linejoin="round"/>
<path d="M514.357 71.891L523.955 66.397L533.536 71.891L523.947 77.4268L514.357 71.891Z" fill="#F5EDFF" stroke="#5100CD" stroke-linecap="round" stroke-linejoin="round"/>
<path d="M572.631 52.2183V61.8076L582.22 67.3435V57.7541L572.631 52.2183Z" fill="#F5EDFF" stroke="#5100CD" stroke-linecap="round" stroke-linejoin="round"/>
<path d="M572.622 52.2183V61.8076L563.033 67.3435V57.7541L572.622 52.2183Z" fill="#F5EDFF" stroke="#5100CD" stroke-linecap="round" stroke-linejoin="round"/>
<path d="M582.22 67.3102V57.7124L572.631 63.2483V72.846L582.22 67.3102Z" fill="#DBC8F6" stroke="#5100CD" stroke-linecap="round" stroke-linejoin="round"/>
<path d="M563.033 67.3102V57.7124L572.622 63.2483V72.846L563.033 67.3102Z" fill="#F5EDFF" stroke="#5100CD" stroke-linecap="round" stroke-linejoin="round"/>
<path d="M572.623 63.2481L563.033 57.7123L572.614 52.2183L582.212 57.7123L572.623 63.2481Z" fill="#F5EDFF" stroke="#5100CD" stroke-linecap="round" stroke-linejoin="round"/>
<path d="M560.479 59.3037V68.8931L570.069 74.429V64.8396L560.479 59.3037Z" fill="#F5EDFF" stroke="#5100CD" stroke-linecap="round" stroke-linejoin="round"/>
<path d="M560.462 59.3037V68.8931L550.873 74.429V64.8396L560.462 59.3037Z" fill="#F5EDFF" stroke="#5100CD" stroke-linecap="round" stroke-linejoin="round"/>
<path d="M570.06 74.3956V64.7979L560.471 70.3337V79.9315L570.06 74.3956Z" fill="#5100CD" stroke="#5100CD" stroke-linecap="round" stroke-linejoin="round"/>
<path d="M550.873 74.3956V64.7979L560.462 70.3337V79.9315L550.873 74.3956Z" fill="#F5EDFF" stroke="#5100CD" stroke-linecap="round" stroke-linejoin="round"/>
<path d="M560.471 70.3419L550.882 64.806L560.463 59.312L570.061 64.806L560.471 70.3419Z" fill="#F5EDFF" stroke="#5100CD" stroke-linecap="round" stroke-linejoin="round"/>
<path d="M548.319 66.397V75.9864L557.909 81.5222V71.9328L548.319 66.397Z" fill="#F5EDFF" stroke="#5100CD" stroke-linecap="round" stroke-linejoin="round"/>
<path d="M548.302 66.397V75.9864L538.713 81.5222V71.9328L548.302 66.397Z" fill="#F5EDFF" stroke="#5100CD" stroke-linecap="round" stroke-linejoin="round"/>
<path d="M557.9 81.4889V71.8911L548.311 77.427V87.0247L557.9 81.4889Z" fill="#DBC8F6" stroke="#5100CD" stroke-linecap="round" stroke-linejoin="round"/>
<path d="M538.722 81.4889V71.8911L548.311 77.427V87.0247L538.722 81.4889Z" fill="#F5EDFF" stroke="#5100CD" stroke-linecap="round" stroke-linejoin="round"/>
<path d="M548.311 77.4268L538.722 71.891L548.303 66.397L557.9 71.891L548.311 77.4268Z" fill="#F5EDFF" stroke="#5100CD" stroke-linecap="round" stroke-linejoin="round"/>
<path d="M526.51 79.0183V88.6077L536.099 83.0718V73.4824L526.51 79.0183Z" fill="#F5EDFF" stroke="#5100CD" stroke-linecap="round" stroke-linejoin="round"/>
<path d="M545.706 79.0183V88.6077L536.116 83.0718V73.4824L545.706 79.0183Z" fill="#F5EDFF" stroke="#5100CD" stroke-linecap="round" stroke-linejoin="round"/>
<path d="M536.108 94.1185V84.5207L526.519 78.9849V88.5826L536.108 94.1185Z" fill="#F1E9FD" stroke="#5100CD" stroke-linecap="round" stroke-linejoin="round"/>
<path d="M536.107 94.1185V84.5207L545.697 78.9849V88.5826L536.107 94.1185Z" fill="#DBC8F6" stroke="#5100CD" stroke-linecap="round" stroke-linejoin="round"/>
<path d="M526.519 78.9764L536.116 73.4824L545.697 78.9764L536.108 84.5123L526.519 78.9764Z" fill="#F5EDFF" stroke="#5100CD" stroke-linecap="round" stroke-linejoin="round"/>
<path d="M462.208 250.513V260.077L536.101 303.016V293.451L462.208 250.513Z" fill="#F1E9FD" stroke="#5100CD" stroke-linecap="round" stroke-linejoin="round"/>
<path d="M536.101 293.452L609.993 250.513L536.101 206.578L462.208 250.513L536.101 293.452Z" fill="#F5EDFF" stroke="#5100CD" stroke-linecap="round" stroke-linejoin="round"/>
<path d="M536.101 293.451V303.016L609.993 260.077V250.513L536.101 293.451Z" fill="#DBC8F6" stroke="#5100CD" stroke-linecap="round" stroke-linejoin="round"/>
<path d="M522.885 295.319V285.78L599.483 244.274V238.922L519.292 282.422V297.488L522.893 295.319H522.885Z" fill="#DBC8F6" stroke="#5100CD" stroke-linecap="round" stroke-linejoin="round"/>
<path d="M593.234 235.203L599.474 238.922L519.283 282.421L513.061 278.703L593.234 235.203Z" fill="#F5EDFF" stroke="#5100CD" stroke-linecap="round" stroke-linejoin="round"/>
<path d="M513.061 293.77L519.283 297.488V282.422L513.061 278.703V293.77Z" fill="#F5EDFF" stroke="#5100CD" stroke-linecap="round" stroke-linejoin="round"/>
<path d="M468.883 261.735C467.853 261.132 467.016 259.818 467.016 258.779C467.016 257.749 467.853 257.397 468.883 257.992C469.913 258.595 470.751 259.91 470.751 260.948C470.751 261.978 469.913 262.33 468.883 261.735Z" fill="#5100CD"/>
<path d="M474.259 264.733C473.229 264.13 472.392 262.816 472.392 261.777C472.392 260.747 473.229 260.395 474.259 260.99C475.289 261.593 476.127 262.908 476.127 263.946C476.127 264.976 475.289 265.328 474.259 264.733Z" fill="#5100CD"/>
<path d="M479.636 267.74C478.606 267.137 477.769 265.822 477.769 264.784C477.769 263.754 478.606 263.402 479.636 263.997C480.666 264.6 481.504 265.915 481.504 266.953C481.504 267.983 480.666 268.335 479.636 267.74Z" fill="#5100CD"/>
<path d="M473.196 250.547L509.05 230.028L544.844 250.547L509.025 271.233L473.205 250.547H473.196Z" fill="#5100CD" stroke="#5100CD" stroke-linecap="round" stroke-linejoin="round"/>
<path d="M482.468 224.098V250.639L509.008 235.312V208.772L482.468 224.098Z" fill="#F5EDFF" stroke="#5100CD" stroke-linecap="round" stroke-linejoin="round"/>
<path d="M535.581 224.098V250.639L509.041 235.312V208.772L535.581 224.098Z" fill="#F5EDFF" stroke="#5100CD" stroke-linecap="round" stroke-linejoin="round"/>
<path d="M509.025 265.856V239.299L482.484 223.973V250.53L509.025 265.856Z" fill="#F5EDFF" stroke="#5100CD" stroke-linecap="round" stroke-linejoin="round"/>
<path d="M509.024 265.856V239.299L535.565 223.973V250.53L509.024 265.856Z" fill="#DBC8F6" stroke="#5100CD" stroke-linecap="round" stroke-linejoin="round"/>
<path d="M482.484 223.973L509.041 208.772L535.556 223.973L509.016 239.299L482.476 223.973H482.484Z" fill="#F5EDFF" stroke="#5100CD" stroke-linecap="round" stroke-linejoin="round"/>
<path d="M528.597 221.259L513.916 212.733C511.211 214.308 506.814 214.308 504.109 212.733L489.905 220.983C492.61 222.557 492.61 225.103 489.905 226.678C489.746 226.77 489.578 226.854 489.402 226.937L504.134 235.488C504.276 235.388 504.427 235.296 504.586 235.195C507.291 233.621 511.688 233.621 514.393 235.195L528.597 226.946C525.892 225.371 525.892 222.825 528.597 221.251V221.259Z" fill="#DBC8F6"/>
<path d="M534.552 245.279V230.597C531.846 232.172 529.644 231.251 529.644 228.545L515.44 236.795C515.44 239.5 513.246 242.976 510.532 244.55C510.373 244.642 510.214 244.726 510.055 244.801V259.525C510.214 259.416 510.373 259.315 510.532 259.223C513.237 257.649 515.44 258.57 515.44 261.275L529.644 253.026C529.644 250.32 531.838 246.845 534.552 245.27V245.279Z" fill="#DBC8F6"/>
<path d="M507.977 259.223V244.542C505.272 242.967 503.07 239.5 503.07 236.786L488.866 228.537C488.866 231.242 486.671 232.163 483.958 230.589C483.799 230.497 483.64 230.396 483.48 230.287V245.011C483.64 245.086 483.799 245.17 483.958 245.262C486.663 246.836 488.866 250.304 488.866 253.017L503.07 261.267C503.07 258.561 505.264 257.64 507.977 259.215V259.223Z" fill="#DBC8F6"/>
<path d="M206.979 12.2441V64.1691L240.304 45.8446L206.979 12.2441Z" fill="#DBC8F6" stroke="#5100CD" stroke-linecap="round" stroke-linejoin="round"/>
<path d="M206.979 79.4285V64.1692L240.304 45.8447L206.979 79.4285Z" fill="#5100CD" stroke="#5100CD" stroke-linecap="round" stroke-linejoin="round"/>
<path d="M206.979 12.2441V64.1691L173.655 45.8446L206.979 12.2441Z" fill="#F5EDFF" stroke="#5100CD" stroke-linecap="round" stroke-linejoin="round"/>
<path d="M206.979 79.4285V64.1692L173.655 45.8447L206.979 79.4285Z" fill="#F1E9FD" stroke="#5100CD" stroke-linecap="round" stroke-linejoin="round"/>
<path d="M367.67 204.509L364.89 202.893L367.67 201.243L370.451 202.893L367.67 204.509Z" fill="#F5EDFF" stroke="#5100CD" stroke-linecap="round" stroke-linejoin="round"/>
<path d="M360.25 208.814L357.47 207.197L360.25 205.547L363.031 207.197L360.25 208.814Z" fill="#F5EDFF" stroke="#5100CD" stroke-linecap="round" stroke-linejoin="round"/>
<path d="M352.83 213.11L350.05 211.494L352.83 209.844L355.611 211.494L352.83 213.11Z" fill="#F5EDFF" stroke="#5100CD" stroke-linecap="round" stroke-linejoin="round"/>
<path d="M345.409 217.406L342.629 215.798L345.409 214.148L348.19 215.798L345.409 217.406Z" fill="#F5EDFF" stroke="#5100CD" stroke-linecap="round" stroke-linejoin="round"/>
<path d="M301.257 204.509L304.038 202.893L301.257 201.243L298.477 202.893L301.257 204.509Z" fill="#F5EDFF" stroke="#5100CD" stroke-linecap="round" stroke-linejoin="round"/>
<path d="M308.677 208.814L311.457 207.197L308.677 205.547L305.896 207.197L308.677 208.814Z" fill="#F5EDFF" stroke="#5100CD" stroke-linecap="round" stroke-linejoin="round"/>
<path d="M316.106 213.11L318.886 211.494L316.106 209.844L313.325 211.494L316.106 213.11Z" fill="#F5EDFF" stroke="#5100CD" stroke-linecap="round" stroke-linejoin="round"/>
<path d="M323.526 217.406L326.306 215.798L323.526 214.148L320.745 215.798L323.526 217.406Z" fill="#F5EDFF" stroke="#5100CD" stroke-linecap="round" stroke-linejoin="round"/>
<path d="M334.464 217.18L372.687 194.97L334.464 172.249L296.24 194.97L334.464 217.18Z" fill="#F5EDFF" stroke="#5100CD" stroke-linecap="round" stroke-linejoin="round"/>
<path d="M372.687 194.97V198.144L334.464 220.354V217.18L372.687 194.97Z" fill="#5100CD" stroke="#5100CD" stroke-linecap="round" stroke-linejoin="round"/>
<path d="M296.249 194.97V198.144L334.473 220.354V217.18L296.249 194.97Z" fill="#F5EDFF" stroke="#5100CD" stroke-linecap="round" stroke-linejoin="round"/>
<path d="M359.472 171.152L334.296 185.774L309.121 171.152L334.296 156.529L359.472 171.152Z" fill="#F5EDFF" stroke="#5100CD" stroke-linecap="round" stroke-linejoin="round"/>
<path d="M358.056 194.191L332.881 179.568V154.393L358.056 169.016V194.191Z" fill="#F5EDFF" stroke="#5100CD" stroke-linecap="round" stroke-linejoin="round"/>
<path d="M358.199 194.116L333.023 179.493V154.318L358.199 168.941V194.116Z" fill="#F5EDFF" stroke="#5100CD" stroke-linecap="round" stroke-linejoin="round"/>
<path d="M356.599 194.786L331.424 180.163V154.988L356.599 169.611V194.786Z" fill="#F5EDFF" stroke="#5100CD" stroke-linecap="round" stroke-linejoin="round"/>
<path d="M356.742 194.711L331.566 180.088V154.913L356.742 169.535V194.702V194.711Z" fill="#F5EDFF" stroke="#5100CD" stroke-linecap="round" stroke-linejoin="round"/>
<path d="M355.133 195.381L329.958 180.758V155.583L355.133 170.205V195.381Z" fill="#F5EDFF" stroke="#5100CD" stroke-linecap="round" stroke-linejoin="round"/>
<path d="M355.276 195.305L330.101 180.682V155.507L355.276 170.13V195.305Z" fill="#F5EDFF" stroke="#5100CD" stroke-linecap="round" stroke-linejoin="round"/>
<path d="M353.676 195.984L328.501 181.361V156.186L353.676 170.808V195.984Z" fill="#F5EDFF" stroke="#5100CD" stroke-linecap="round" stroke-linejoin="round"/>
<path d="M353.819 195.9L328.644 181.277V156.102L353.819 170.724V195.9Z" fill="#F5EDFF" stroke="#5100CD" stroke-linecap="round" stroke-linejoin="round"/>
<path d="M352.219 189.459L327.044 174.836V149.661L352.219 164.284V189.459Z" fill="#F5EDFF" stroke="#5100CD" stroke-linecap="round" stroke-linejoin="round"/>
<path d="M352.353 189.384L327.178 174.761V149.586L352.353 164.209V189.384Z" fill="#F5EDFF" stroke="#5100CD" stroke-linecap="round" stroke-linejoin="round"/>
<path d="M350.753 192.751L325.578 178.128V152.953L350.753 167.575V192.751Z" fill="#F5EDFF" stroke="#5100CD" stroke-linecap="round" stroke-linejoin="round"/>
<path d="M350.896 192.675L325.721 178.053V152.877L350.896 167.5V192.675Z" fill="#F5EDFF" stroke="#5100CD" stroke-linecap="round" stroke-linejoin="round"/>
<path d="M349.296 194.049L324.121 179.426V154.251L349.296 168.874V194.049Z" fill="#F5EDFF" stroke="#5100CD" stroke-linecap="round" stroke-linejoin="round"/>
<path d="M349.43 193.973L324.255 179.351V154.175L349.43 168.798V193.973Z" fill="#F5EDFF" stroke="#5100CD" stroke-linecap="round" stroke-linejoin="round"/>
<path d="M347.831 198.362L322.655 183.739V158.572L347.831 173.195V198.37V198.362Z" fill="#F5EDFF" stroke="#5100CD" stroke-linecap="round" stroke-linejoin="round"/>
<path d="M347.973 198.278L322.798 183.655V158.48L347.973 173.103V198.278Z" fill="#F5EDFF" stroke="#5100CD" stroke-linecap="round" stroke-linejoin="round"/>
<path d="M346.373 198.957L321.198 184.334V159.159L346.373 173.781V198.957Z" fill="#F5EDFF" stroke="#5100CD" stroke-linecap="round" stroke-linejoin="round"/>
<path d="M346.507 198.873L321.332 184.25V159.075L346.507 173.697V198.873Z" fill="#F5EDFF" stroke="#5100CD" stroke-linecap="round" stroke-linejoin="round"/>
<path d="M344.907 199.551L319.74 184.929V159.753L344.907 174.376V199.551Z" fill="#F5EDFF" stroke="#5100CD" stroke-linecap="round" stroke-linejoin="round"/>
<path d="M345.05 199.476L319.875 184.853V159.686L345.05 174.309V199.484V199.476Z" fill="#F5EDFF" stroke="#5100CD" stroke-linecap="round" stroke-linejoin="round"/>
<path d="M343.451 195.724L318.275 181.101V155.926L343.451 170.549V195.724Z" fill="#F5EDFF" stroke="#5100CD" stroke-linecap="round" stroke-linejoin="round"/>
<path d="M343.584 195.64L318.409 181.018V155.842L343.584 170.465V195.64Z" fill="#F5EDFF" stroke="#5100CD" stroke-linecap="round" stroke-linejoin="round"/>
<path d="M341.993 196.779L316.817 182.156V156.981L341.993 171.604V196.771V196.779Z" fill="#F5EDFF" stroke="#5100CD" stroke-linecap="round" stroke-linejoin="round"/>
<path d="M342.127 196.712L316.952 182.089V156.914L342.127 171.537V196.712Z" fill="#F5EDFF" stroke="#5100CD" stroke-linecap="round" stroke-linejoin="round"/>
<path d="M340.528 197.86L315.353 183.237V158.062L340.528 172.684V197.86Z" fill="#F5EDFF" stroke="#5100CD" stroke-linecap="round" stroke-linejoin="round"/>
<path d="M340.661 197.784L315.494 183.161V157.986L340.661 172.609V197.784Z" fill="#F5EDFF" stroke="#5100CD" stroke-linecap="round" stroke-linejoin="round"/>
<path d="M339.07 198.848L313.895 184.225V159.05L339.07 173.673V198.848Z" fill="#F5EDFF" stroke="#5100CD" stroke-linecap="round" stroke-linejoin="round"/>
<path d="M339.205 198.772L314.029 184.149V158.974L339.205 173.597V198.772Z" fill="#F5EDFF" stroke="#5100CD" stroke-linecap="round" stroke-linejoin="round"/>
<path d="M337.605 200.062L312.43 185.439V160.264L337.605 174.887V200.062Z" fill="#F5EDFF" stroke="#5100CD" stroke-linecap="round" stroke-linejoin="round"/>
<path d="M337.747 199.986L312.571 185.364V160.188L337.747 174.811V199.986Z" fill="#F5EDFF" stroke="#5100CD" stroke-linecap="round" stroke-linejoin="round"/>
<path d="M334.296 210.949L309.121 196.327V171.151L334.296 185.774V210.949Z" fill="#F5EDFF" stroke="#5100CD" stroke-linecap="round" stroke-linejoin="round"/>
<path d="M359.471 196.327L334.296 210.949V185.774L359.471 171.151V196.327Z" fill="#5100CD" stroke="#5100CD" stroke-linecap="round" stroke-linejoin="round"/>
<path d="M318.133 167.55L318.97 173.455L316.818 171.193L314.657 170.951L315.495 166.009" fill="#F5EDFF"/>
<path d="M390.25 165.239L415.099 150.809" stroke="#5100CD" stroke-linecap="round" stroke-linejoin="round"/>
<path d="M297.64 231.184L322.488 216.753" stroke="#5100CD" stroke-linecap="round" stroke-linejoin="round"/>
<path d="M288.209 210.523L299.725 203.831" stroke="#5100CD" stroke-linecap="round" stroke-linejoin="round"/>
<path d="M390.25 164.988V216.469" stroke="#5100CD" stroke-linecap="round" stroke-linejoin="round"/>
<path d="M390.25 216.469L369.438 204.384" stroke="#5100CD" stroke-linecap="round" stroke-linejoin="round"/>
<path d="M297.64 231.184L265.856 212.733" stroke="#5100CD" stroke-linecap="round" stroke-linejoin="round"/>
<path d="M288.72 152.877L265.856 139.595" stroke="#5100CD" stroke-linecap="round" stroke-linejoin="round"/>
<path d="M288.209 210.447V152.953" stroke="#5100CD" stroke-linecap="round" stroke-linejoin="round"/>
<path d="M297.64 231.184L300.638 229.433L297.64 227.658L294.642 229.433L297.64 231.184Z" fill="#F5EDFF" stroke="#5100CD" stroke-linecap="round" stroke-linejoin="round"/>
<path d="M297.64 234.324V231.183L300.638 229.433V232.599L297.64 234.324Z" fill="#5100CD" stroke="#5100CD" stroke-linecap="round" stroke-linejoin="round"/>
<path d="M294.642 232.54V229.433L297.64 231.183V234.324L294.642 232.54Z" fill="#F5EDFF" stroke="#5100CD" stroke-linecap="round" stroke-linejoin="round"/>
<path d="M288.209 209.007L291.207 207.256L288.209 205.481L285.211 207.256L288.209 209.007Z" fill="#F5EDFF" stroke="#5100CD" stroke-linecap="round" stroke-linejoin="round"/>
<path d="M288.209 212.147V209.007L291.207 207.256V210.422L288.209 212.147Z" fill="#5100CD" stroke="#5100CD" stroke-linecap="round" stroke-linejoin="round"/>
<path d="M285.211 210.363V207.256L288.209 209.007V212.147L285.211 210.363Z" fill="#F5EDFF" stroke="#5100CD" stroke-linecap="round" stroke-linejoin="round"/>
<path d="M288.209 152.953L291.207 151.202L288.209 149.427L285.211 151.202L288.209 152.953Z" fill="#F5EDFF" stroke="#5100CD" stroke-linecap="round" stroke-linejoin="round"/>
<path d="M288.209 156.093V152.953L291.207 151.202V154.368L288.209 156.093Z" fill="#5100CD" stroke="#5100CD" stroke-linecap="round" stroke-linejoin="round"/>
<path d="M285.211 154.309V151.202L288.209 152.953V156.093L285.211 154.309Z" fill="#F5EDFF" stroke="#5100CD" stroke-linecap="round" stroke-linejoin="round"/>
<path d="M390.25 165.239L393.248 163.488L390.25 161.713L387.252 163.488L390.25 165.239Z" fill="#F5EDFF" stroke="#5100CD" stroke-linecap="round" stroke-linejoin="round"/>
<path d="M390.25 168.379V165.239L393.248 163.488V166.654L390.25 168.379Z" fill="#5100CD" stroke="#5100CD" stroke-linecap="round" stroke-linejoin="round"/>
<path d="M387.252 166.595V163.488L390.25 165.239V168.379L387.252 166.595Z" fill="#F5EDFF" stroke="#5100CD" stroke-linecap="round" stroke-linejoin="round"/>
<path d="M390.25 214.794L393.248 213.044L390.25 211.268L387.252 213.044L390.25 214.794Z" fill="#F5EDFF" stroke="#5100CD" stroke-linecap="round" stroke-linejoin="round"/>
<path d="M390.25 217.934V214.794L393.248 213.043V216.209L390.25 217.934Z" fill="#5100CD" stroke="#5100CD" stroke-linecap="round" stroke-linejoin="round"/>
<path d="M387.252 216.151V213.043L390.25 214.794V217.934L387.252 216.151Z" fill="#F5EDFF" stroke="#5100CD" stroke-linecap="round" stroke-linejoin="round"/>
</svg>
