<svg width="386" height="380" viewBox="0 0 386 380" fill="none" xmlns="http://www.w3.org/2000/svg">
  <path d="M109.19 143.89V199.7L165 167.48V111.66L109.19 143.89Z" stroke="white" stroke-linecap="round"
    stroke-linejoin="round" />
  <path d="M235.59 139.36V195.17L179.78 162.95V107.13L235.59 139.36Z" stroke="white" stroke-linecap="round"
    stroke-linejoin="round" />
  <path d="M231.43 136.95L271.52 112.97" stroke="white" stroke-linecap="round" stroke-linejoin="round" />
  <g filter="url(#filter0_bddiiii_59_1635)">
    <path d="M113.12 147.43V203.25L168.93 171.02V115.21L113.12 147.43Z" fill="url(#paint0_linear_59_1635)" />
    <path d="M113.12 147.43V203.25L168.93 171.02V115.21L113.12 147.43Z" stroke="white" stroke-linecap="round"
      stroke-linejoin="round" />
  </g>
  <g filter="url(#filter1_bddiiii_59_1635)">
    <path d="M224.84 147.43V203.25L169.02 171.02V115.21L224.84 147.43Z" fill="url(#paint1_linear_59_1635)" />
    <path d="M224.84 147.43V203.25L169.02 171.02V115.21L224.84 147.43Z" stroke="white" stroke-linecap="round"
      stroke-linejoin="round" />
  </g>
  <path d="M113.16 203L169.02 171.02L224.79 203L168.98 235.22L113.16 203Z" fill="url(#paint2_linear_59_1635)"
    stroke="white" stroke-linecap="round" stroke-linejoin="round" />
  <path d="M168.98 235.22V179.41L113.16 147.18V203L168.98 235.22Z" fill="#141327" stroke="white" stroke-linecap="round"
    stroke-linejoin="round" />
  <path d="M168.98 235.22V179.41L224.79 147.18V203L168.98 235.22Z" fill="#141327" stroke="white" stroke-linecap="round"
    stroke-linejoin="round" />
  <path d="M273.13 111.96L277.78 109.26L273.13 106.49L268.48 109.26L273.13 111.96Z" fill="#141327" stroke="white"
    stroke-linecap="round" stroke-linejoin="round" />
  <path d="M273.13 116.83V111.96L277.78 109.26V114.16L273.13 116.83Z" fill="white" stroke="white" stroke-linecap="round"
    stroke-linejoin="round" />
  <path d="M268.48 114.06V109.26L273.13 111.96V116.83L268.48 114.06Z" fill="#141327" stroke="white"
    stroke-linecap="round" stroke-linejoin="round" />
  <path d="M168.98 179.41V71.52" stroke="white" stroke-linecap="round" stroke-linejoin="round" />
  <path d="M63.15 230.35L67.8 227.65L63.15 224.89L58.5 227.65L63.15 230.35Z" fill="#141327" stroke="white"
    stroke-linecap="round" stroke-linejoin="round" />
  <path d="M63.1499 235.22V230.35L67.7999 227.65V232.55L63.1499 235.22Z" fill="white" stroke="white"
    stroke-linecap="round" stroke-linejoin="round" />
  <path d="M58.5 232.46V227.65L63.15 230.35V235.22L58.5 232.46Z" fill="#141327" stroke="white" stroke-linecap="round"
    stroke-linejoin="round" />
  <path d="M153.28 239.19V183.38L97.4702 151.15V206.97L153.28 239.19Z" fill="#141327" stroke="white"
    stroke-linecap="round" stroke-linejoin="round" />
  <path
    d="M121 192.189C121 191.01 121.405 190.179 122.077 189.758C122.904 189.24 124.127 189.338 125.5 190.174C127.987 191.696 130 195.057 130 197.689C130 198.388 129.854 198.962 129.599 199.404C128.894 200.626 127.327 200.819 125.5 199.704"
    stroke="white" stroke-linecap="round" stroke-linejoin="round" />
  <path d="M125.37 195.17L64.8999 229.33" stroke="white" stroke-linecap="round" stroke-linejoin="round" />
  <path d="M172.95 236.92V181.11L228.77 148.88V204.7L172.95 236.92Z" fill="#141327" stroke="white"
    stroke-linecap="round" stroke-linejoin="round" />
  <path
    d="M139.589 62.3842C139.476 62.3842 139.408 62.3389 139.362 62.2484C139.317 62.1578 139.317 62.068 139.374 61.9774L144.41 53.2839C144.466 53.1826 144.546 53.092 144.636 53.0245C144.738 52.9454 144.863 52.9116 145.021 52.9116H147.114C147.272 52.9116 147.374 52.9454 147.443 53.0245C147.51 53.1035 147.545 53.1941 147.556 53.2839L148.891 61.9774C148.914 62.1017 148.891 62.2031 148.823 62.2706C148.755 62.3382 148.664 62.3835 148.574 62.3835H146.933C146.797 62.3835 146.695 62.3497 146.639 62.2929C146.583 62.2361 146.537 62.1571 146.526 62.0787L146.3 60.724H142.667L141.852 62.1017C141.807 62.1693 141.75 62.2261 141.671 62.2936C141.592 62.3612 141.49 62.3842 141.354 62.3842H139.589ZM143.64 58.7712H146.163L145.665 55.1921L143.639 58.7712H143.64Z"
    fill="white" />
  <path
    d="M150.091 62.3843C149.989 62.3843 149.91 62.3505 149.865 62.2938C149.808 62.237 149.796 62.1471 149.808 62.0566L151.72 53.1036C151.743 53.0023 151.788 52.9232 151.868 52.855C151.947 52.7874 152.037 52.7644 152.128 52.7644H153.735C153.825 52.7644 153.893 52.7982 153.95 52.855C154.006 52.9225 154.018 53.0016 154.006 53.1036L152.105 62.0458C152.082 62.1471 152.037 62.2262 151.958 62.283C151.879 62.3505 151.788 62.3735 151.698 62.3735H150.091V62.385V62.3843Z"
    fill="white" />
  <path
    d="M157.051 62.5201C156.35 62.5201 155.75 62.3842 155.275 62.1363C154.8 61.8876 154.471 61.493 154.301 60.9734C154.12 60.4538 154.109 59.822 154.245 59.0767C154.267 59.0092 154.278 58.9301 154.301 58.8281C154.324 58.7267 154.335 58.6477 154.358 58.6024C154.539 57.8909 154.833 57.2814 155.229 56.7618C155.625 56.2536 156.112 55.8584 156.701 55.5989C157.278 55.3279 157.923 55.2036 158.613 55.2036C159.405 55.2036 160.027 55.3617 160.48 55.678C160.933 55.9942 161.227 56.4233 161.374 56.9652C161.522 57.5071 161.522 58.128 161.374 58.8166L161.317 59.1443C161.295 59.2456 161.25 59.3247 161.159 59.393C161.069 59.4605 160.978 59.4835 160.876 59.4835H156.542V59.5288C156.542 59.5511 156.53 59.5626 156.519 59.5856C156.473 59.845 156.473 60.0822 156.507 60.3079C156.541 60.5228 156.632 60.6917 156.779 60.8275C156.926 60.9633 157.118 61.0194 157.367 61.0194C157.537 61.0194 157.696 60.9856 157.832 60.9288C157.968 60.8721 158.08 60.8045 158.182 60.7254C158.285 60.6464 158.364 60.5788 158.431 60.5336C158.533 60.443 158.612 60.3869 158.658 60.3639C158.714 60.3417 158.793 60.3302 158.906 60.3302H160.592C160.683 60.3302 160.75 60.3532 160.796 60.4092C160.841 60.466 160.852 60.5336 160.819 60.6234C160.773 60.7815 160.661 60.9619 160.468 61.1768C160.287 61.3917 160.027 61.6059 159.698 61.8208C159.37 62.0349 158.985 62.2045 158.544 62.3404C158.103 62.4755 157.605 62.5438 157.051 62.5438V62.5215L157.051 62.5201ZM156.836 58.1395H159.133V58.1173C159.224 57.824 159.235 57.5753 159.179 57.3605C159.133 57.1456 159.031 56.9767 158.885 56.8638C158.737 56.751 158.534 56.6834 158.296 56.6834C158.058 56.6834 157.832 56.7402 157.64 56.8638C157.447 56.9767 157.278 57.1463 157.153 57.3605C157.017 57.5746 156.915 57.8348 156.848 58.1173V58.1395H156.836Z"
    fill="white" />
  <path
    d="M161.465 64.9587C161.363 64.9587 161.295 64.9249 161.238 64.8681C161.193 64.8005 161.17 64.7215 161.193 64.6194L163.094 55.678C163.117 55.5766 163.162 55.4976 163.241 55.4293C163.32 55.3618 163.411 55.3388 163.513 55.3388H165.03C165.132 55.3388 165.199 55.3725 165.256 55.4293C165.313 55.4861 165.324 55.5759 165.301 55.678L165.211 56.1746C165.482 55.8922 165.788 55.6665 166.116 55.4746C166.445 55.2827 166.875 55.1921 167.395 55.1921C167.836 55.1921 168.221 55.2597 168.561 55.4063C168.889 55.5421 169.161 55.7563 169.364 56.0273C169.568 56.2982 169.703 56.6367 169.76 57.032C169.828 57.4273 169.817 57.8787 169.737 58.3753C169.714 58.5557 169.68 58.7138 169.647 58.8496C169.613 58.9855 169.579 59.1429 169.534 59.324C169.409 59.7983 169.24 60.2382 169.036 60.6335C168.832 61.0288 168.583 61.3673 168.3 61.6382C168.017 61.9092 167.677 62.1349 167.304 62.2815C166.93 62.4281 166.522 62.5071 166.07 62.5071C165.618 62.5071 165.21 62.4281 164.893 62.27C164.565 62.1119 164.327 61.8862 164.192 61.6037L163.535 64.6072C163.512 64.7086 163.467 64.7876 163.388 64.8559C163.309 64.9127 163.218 64.9464 163.128 64.9464H161.476L161.464 64.9579L161.465 64.9587ZM165.595 60.7025C165.889 60.7025 166.139 60.6349 166.342 60.5106C166.545 60.3862 166.704 60.2173 166.84 59.991C166.976 59.7768 167.078 59.5396 167.157 59.2687C167.202 59.1328 167.236 58.9977 167.271 58.8511C167.304 58.7045 167.327 58.5686 167.327 58.4335C167.361 58.1741 167.373 57.9369 167.339 57.722C167.316 57.5071 167.226 57.3382 167.09 57.2024C166.954 57.078 166.739 57.0105 166.434 57.0105C166.128 57.0105 165.891 57.078 165.664 57.2024C165.438 57.3382 165.268 57.5071 165.132 57.7105C164.997 57.9139 164.906 58.1396 164.838 58.3882C164.782 58.5578 164.736 58.7267 164.714 58.8849C164.68 59.043 164.657 59.2234 164.624 59.4045C164.59 59.6302 164.59 59.8451 164.624 60.037C164.657 60.2288 164.759 60.387 164.917 60.5113C165.076 60.6356 165.291 60.6917 165.574 60.6917L165.597 60.7032L165.595 60.7025Z"
    fill="white" />
  <path
    d="M170.575 62.3843C170.473 62.3843 170.394 62.3505 170.349 62.2937C170.292 62.237 170.281 62.1471 170.292 62.0566L172.205 53.1151C172.228 53.0138 172.273 52.9347 172.352 52.8664C172.431 52.7989 172.522 52.7759 172.612 52.7759H174.355C174.446 52.7759 174.513 52.8097 174.57 52.8664C174.627 52.934 174.638 53.0131 174.627 53.1151L173.97 56.1409C174.264 55.8584 174.581 55.6327 174.944 55.4746C175.306 55.305 175.713 55.226 176.188 55.226C176.743 55.226 177.207 55.3388 177.592 55.576C177.977 55.8131 178.237 56.1516 178.396 56.6145C178.554 57.0658 178.554 57.6307 178.407 58.2855L177.592 62.0681C177.569 62.1694 177.524 62.2485 177.445 62.3052C177.366 62.3728 177.287 62.3958 177.196 62.3958H175.442C175.34 62.3958 175.261 62.362 175.215 62.3052C175.158 62.2485 175.148 62.1586 175.158 62.0681L175.95 58.3646C176.041 57.9355 176.019 57.6078 175.883 57.3821C175.747 57.1564 175.487 57.0321 175.091 57.0321C174.842 57.0321 174.604 57.0773 174.389 57.1787C174.175 57.28 173.982 57.4274 173.835 57.63C173.676 57.8334 173.574 58.0706 173.506 58.3523L172.736 62.0558C172.714 62.1572 172.669 62.2362 172.589 62.293C172.51 62.3606 172.419 62.3836 172.329 62.3836H170.575L170.575 62.3843Z"
    fill="white" />
  <path
    d="M183.001 62.2945C183.046 62.3513 183.125 62.3851 183.227 62.3851H184.834C184.925 62.3851 185.015 62.3628 185.094 62.2945C185.173 62.2377 185.219 62.1587 185.242 62.0573L186.589 55.6896C186.612 55.5882 186.6 55.4977 186.543 55.4409C186.486 55.3841 186.419 55.3503 186.328 55.3503H184.721C184.619 55.3503 184.529 55.3726 184.45 55.4409C184.371 55.5085 184.325 55.5875 184.302 55.6896L182.944 62.0573C182.932 62.1479 182.944 62.2377 183.001 62.2945Z"
    fill="white" />
  <path
    d="M187.109 62.3842C187.007 62.3842 186.928 62.3504 186.883 62.2936C186.826 62.2369 186.814 62.147 186.826 62.0565L188.184 55.6887C188.207 55.5874 188.252 55.5083 188.331 55.44C188.411 55.3725 188.501 55.3495 188.603 55.3495H190.086C190.188 55.3495 190.255 55.3833 190.312 55.44C190.369 55.4968 190.381 55.5866 190.358 55.6887L190.267 56.1515C190.425 55.9934 190.595 55.8353 190.777 55.7002C190.958 55.5644 191.184 55.4407 191.433 55.3502C191.681 55.2596 191.976 55.2144 192.327 55.2144C192.847 55.2144 193.278 55.3157 193.605 55.5306C193.934 55.734 194.16 56.0272 194.273 56.4002C194.567 56.0617 194.895 55.7793 195.258 55.5536C195.62 55.3279 196.061 55.2259 196.559 55.2259C197.057 55.2259 197.476 55.3272 197.827 55.5421C198.178 55.7563 198.426 56.084 198.574 56.5246C198.721 56.9651 198.721 57.5293 198.574 58.2293L197.759 62.0795C197.736 62.1808 197.691 62.2599 197.611 62.3166C197.532 62.3842 197.442 62.4072 197.351 62.4072H195.778C195.676 62.4072 195.597 62.3734 195.552 62.3166C195.495 62.2599 195.484 62.17 195.495 62.0795L196.298 58.3314C196.367 58.0152 196.389 57.7665 196.344 57.5746C196.298 57.3942 196.208 57.2584 196.083 57.1793C195.959 57.1002 195.79 57.055 195.597 57.055C195.427 57.055 195.246 57.1002 195.065 57.1793C194.884 57.2584 194.726 57.3935 194.578 57.5746C194.431 57.755 194.33 58.0152 194.262 58.3314L193.458 62.0795C193.435 62.1808 193.39 62.2599 193.311 62.3166C193.232 62.3842 193.141 62.4072 193.051 62.4072H191.477C191.375 62.4072 191.296 62.3734 191.251 62.3166C191.194 62.2599 191.183 62.17 191.194 62.0795L192.009 58.3314C192.077 58.0152 192.077 57.7665 192.032 57.5746C191.987 57.3827 191.896 57.2584 191.772 57.1793C191.648 57.1002 191.489 57.055 191.297 57.055C191.127 57.055 190.946 57.1002 190.765 57.1793C190.584 57.2584 190.425 57.3935 190.278 57.5746C190.131 57.755 190.03 58.0037 189.962 58.3084L189.147 62.0795C189.124 62.1808 189.078 62.2599 188.999 62.3166C188.92 62.3842 188.83 62.4072 188.739 62.4072H187.132L187.109 62.3842Z"
    fill="white" />
  <path
    d="M180.457 62.4073C181.131 62.4073 181.677 61.8613 181.677 61.1877C181.677 60.5141 181.131 59.968 180.457 59.968C179.783 59.968 179.237 60.5141 179.237 61.1877C179.237 61.8613 179.783 62.4073 180.457 62.4073Z"
    fill="white" />
  <path
    d="M185.936 54.5951C186.61 54.5951 187.156 54.049 187.156 53.3754C187.156 52.7018 186.61 52.1558 185.936 52.1558C185.262 52.1558 184.716 52.7018 184.716 53.3754C184.716 54.049 185.262 54.5951 185.936 54.5951Z"
    fill="white" />
  <path
    d="M175.493 35.3837C177.809 35.3837 179.685 33.508 179.685 31.1919C179.685 28.8757 177.809 27 175.493 27C173.177 27 171.301 28.8757 171.301 31.1919C171.301 33.508 173.177 35.3837 175.493 35.3837Z"
    fill="white" />
  <path
    d="M161.171 49.7057C163.487 49.7057 165.363 47.83 165.363 45.5139C165.363 43.1977 163.487 41.322 161.171 41.322C158.855 41.322 156.979 43.2015 156.979 45.5139C156.979 47.8262 158.855 49.7057 161.171 49.7057Z"
    fill="white" />
  <path
    d="M172.532 28.2302C168.556 26.5824 163.814 27.3759 160.583 30.6033C157.351 33.8346 156.562 38.5808 158.206 42.5524L172.532 28.2264V28.2302Z"
    fill="white" />
  <path
    d="M164.132 48.4794C168.108 50.1273 172.85 49.3337 176.081 46.1063C179.313 42.8751 180.102 38.1289 178.454 34.1572L164.132 48.4794Z"
    fill="white" />
  <defs>
    <filter id="filter0_bddiiii_59_1635" x="0.620117" y="0.709961" width="328.81" height="379.04"
      filterUnits="userSpaceOnUse" color-interpolation-filters="sRGB">
      <feFlood flood-opacity="0" result="BackgroundImageFix" />
      <feGaussianBlur in="BackgroundImageFix" stdDeviation="50" />
      <feComposite in2="SourceAlpha" operator="in" result="effect1_backgroundBlur_59_1635" />
      <feColorMatrix in="SourceAlpha" type="matrix" values="0 0 0 0 0 0 0 0 0 0 0 0 0 0 0 0 0 0 127 0"
        result="hardAlpha" />
      <feMorphology radius="26" operator="dilate" in="SourceAlpha" result="effect2_dropShadow_59_1635" />
      <feOffset dy="-18" />
      <feGaussianBlur stdDeviation="35" />
      <feComposite in2="hardAlpha" operator="out" />
      <feColorMatrix type="matrix" values="0 0 0 0 0 0 0 0 0 0.329412 0 0 0 0 1 0 0 0 0.11 0" />
      <feBlend mode="normal" in2="effect1_backgroundBlur_59_1635" result="effect2_dropShadow_59_1635" />
      <feColorMatrix in="SourceAlpha" type="matrix" values="0 0 0 0 0 0 0 0 0 0 0 0 0 0 0 0 0 0 127 0"
        result="hardAlpha" />
      <feMorphology radius="44" operator="dilate" in="SourceAlpha" result="effect3_dropShadow_59_1635" />
      <feOffset dx="24" dy="40" />
      <feGaussianBlur stdDeviation="46" />
      <feComposite in2="hardAlpha" operator="out" />
      <feColorMatrix type="matrix" values="0 0 0 0 0 0 0 0 0 0.4 0 0 0 0 1 0 0 0 0.3 0" />
      <feBlend mode="normal" in2="effect2_dropShadow_59_1635" result="effect3_dropShadow_59_1635" />
      <feBlend mode="normal" in="SourceGraphic" in2="effect3_dropShadow_59_1635" result="shape" />
      <feColorMatrix in="SourceAlpha" type="matrix" values="0 0 0 0 0 0 0 0 0 0 0 0 0 0 0 0 0 0 127 0"
        result="hardAlpha" />
      <feMorphology radius="64" operator="dilate" in="SourceAlpha" result="effect4_innerShadow_59_1635" />
      <feOffset dy="-82" />
      <feGaussianBlur stdDeviation="34" />
      <feComposite in2="hardAlpha" operator="arithmetic" k2="-1" k3="1" />
      <feColorMatrix type="matrix" values="0 0 0 0 0.266667 0 0 0 0 0.385882 0 0 0 0 0.564706 0 0 0 0.3 0" />
      <feBlend mode="normal" in2="shape" result="effect4_innerShadow_59_1635" />
      <feColorMatrix in="SourceAlpha" type="matrix" values="0 0 0 0 0 0 0 0 0 0 0 0 0 0 0 0 0 0 127 0"
        result="hardAlpha" />
      <feMorphology radius="4" operator="dilate" in="SourceAlpha" result="effect5_innerShadow_59_1635" />
      <feOffset dy="7" />
      <feGaussianBlur stdDeviation="5.5" />
      <feComposite in2="hardAlpha" operator="arithmetic" k2="-1" k3="1" />
      <feColorMatrix type="matrix" values="0 0 0 0 1 0 0 0 0 1 0 0 0 0 1 0 0 0 0.7 0" />
      <feBlend mode="normal" in2="effect4_innerShadow_59_1635" result="effect5_innerShadow_59_1635" />
      <feColorMatrix in="SourceAlpha" type="matrix" values="0 0 0 0 0 0 0 0 0 0 0 0 0 0 0 0 0 0 127 0"
        result="hardAlpha" />
      <feOffset dy="1" />
      <feGaussianBlur stdDeviation="20" />
      <feComposite in2="hardAlpha" operator="arithmetic" k2="-1" k3="1" />
      <feColorMatrix type="matrix" values="0 0 0 0 0.870588 0 0 0 0 0.937882 0 0 0 0 1 0 0 0 0.2 0" />
      <feBlend mode="normal" in2="effect5_innerShadow_59_1635" result="effect6_innerShadow_59_1635" />
      <feColorMatrix in="SourceAlpha" type="matrix" values="0 0 0 0 0 0 0 0 0 0 0 0 0 0 0 0 0 0 127 0"
        result="hardAlpha" />
      <feOffset dy="4" />
      <feGaussianBlur stdDeviation="9" />
      <feComposite in2="hardAlpha" operator="arithmetic" k2="-1" k3="1" />
      <feColorMatrix type="matrix" values="0 0 0 0 0.572549 0 0 0 0 0.823529 0 0 0 0 0.823529 0 0 0 0.3 0" />
      <feBlend mode="normal" in2="effect6_innerShadow_59_1635" result="effect7_innerShadow_59_1635" />
    </filter>
    <filter id="filter1_bddiiii_59_1635" x="56.52" y="0.709961" width="328.82" height="379.04"
      filterUnits="userSpaceOnUse" color-interpolation-filters="sRGB">
      <feFlood flood-opacity="0" result="BackgroundImageFix" />
      <feGaussianBlur in="BackgroundImageFix" stdDeviation="50" />
      <feComposite in2="SourceAlpha" operator="in" result="effect1_backgroundBlur_59_1635" />
      <feColorMatrix in="SourceAlpha" type="matrix" values="0 0 0 0 0 0 0 0 0 0 0 0 0 0 0 0 0 0 127 0"
        result="hardAlpha" />
      <feMorphology radius="26" operator="dilate" in="SourceAlpha" result="effect2_dropShadow_59_1635" />
      <feOffset dy="-18" />
      <feGaussianBlur stdDeviation="35" />
      <feComposite in2="hardAlpha" operator="out" />
      <feColorMatrix type="matrix" values="0 0 0 0 0 0 0 0 0 0.329412 0 0 0 0 1 0 0 0 0.11 0" />
      <feBlend mode="normal" in2="effect1_backgroundBlur_59_1635" result="effect2_dropShadow_59_1635" />
      <feColorMatrix in="SourceAlpha" type="matrix" values="0 0 0 0 0 0 0 0 0 0 0 0 0 0 0 0 0 0 127 0"
        result="hardAlpha" />
      <feMorphology radius="44" operator="dilate" in="SourceAlpha" result="effect3_dropShadow_59_1635" />
      <feOffset dx="24" dy="40" />
      <feGaussianBlur stdDeviation="46" />
      <feComposite in2="hardAlpha" operator="out" />
      <feColorMatrix type="matrix" values="0 0 0 0 0 0 0 0 0 0.4 0 0 0 0 1 0 0 0 0.3 0" />
      <feBlend mode="normal" in2="effect2_dropShadow_59_1635" result="effect3_dropShadow_59_1635" />
      <feBlend mode="normal" in="SourceGraphic" in2="effect3_dropShadow_59_1635" result="shape" />
      <feColorMatrix in="SourceAlpha" type="matrix" values="0 0 0 0 0 0 0 0 0 0 0 0 0 0 0 0 0 0 127 0"
        result="hardAlpha" />
      <feMorphology radius="64" operator="dilate" in="SourceAlpha" result="effect4_innerShadow_59_1635" />
      <feOffset dy="-82" />
      <feGaussianBlur stdDeviation="34" />
      <feComposite in2="hardAlpha" operator="arithmetic" k2="-1" k3="1" />
      <feColorMatrix type="matrix" values="0 0 0 0 0.266667 0 0 0 0 0.385882 0 0 0 0 0.564706 0 0 0 0.3 0" />
      <feBlend mode="normal" in2="shape" result="effect4_innerShadow_59_1635" />
      <feColorMatrix in="SourceAlpha" type="matrix" values="0 0 0 0 0 0 0 0 0 0 0 0 0 0 0 0 0 0 127 0"
        result="hardAlpha" />
      <feMorphology radius="4" operator="dilate" in="SourceAlpha" result="effect5_innerShadow_59_1635" />
      <feOffset dy="7" />
      <feGaussianBlur stdDeviation="5.5" />
      <feComposite in2="hardAlpha" operator="arithmetic" k2="-1" k3="1" />
      <feColorMatrix type="matrix" values="0 0 0 0 1 0 0 0 0 1 0 0 0 0 1 0 0 0 0.7 0" />
      <feBlend mode="normal" in2="effect4_innerShadow_59_1635" result="effect5_innerShadow_59_1635" />
      <feColorMatrix in="SourceAlpha" type="matrix" values="0 0 0 0 0 0 0 0 0 0 0 0 0 0 0 0 0 0 127 0"
        result="hardAlpha" />
      <feOffset dy="1" />
      <feGaussianBlur stdDeviation="20" />
      <feComposite in2="hardAlpha" operator="arithmetic" k2="-1" k3="1" />
      <feColorMatrix type="matrix" values="0 0 0 0 0.870588 0 0 0 0 0.937882 0 0 0 0 1 0 0 0 0.2 0" />
      <feBlend mode="normal" in2="effect5_innerShadow_59_1635" result="effect6_innerShadow_59_1635" />
      <feColorMatrix in="SourceAlpha" type="matrix" values="0 0 0 0 0 0 0 0 0 0 0 0 0 0 0 0 0 0 127 0"
        result="hardAlpha" />
      <feOffset dy="4" />
      <feGaussianBlur stdDeviation="9" />
      <feComposite in2="hardAlpha" operator="arithmetic" k2="-1" k3="1" />
      <feColorMatrix type="matrix" values="0 0 0 0 0.572549 0 0 0 0 0.823529 0 0 0 0 0.823529 0 0 0 0.3 0" />
      <feBlend mode="normal" in2="effect6_innerShadow_59_1635" result="effect7_innerShadow_59_1635" />
    </filter>
    <linearGradient id="paint0_linear_59_1635" x1="113.12" y1="159.561" x2="168.93" y2="159.561"
      gradientUnits="userSpaceOnUse">
      <stop stop-color="#00D1FF" />
      <stop offset="1" stop-color="#0054FF" />
    </linearGradient>
    <linearGradient id="paint1_linear_59_1635" x1="169.02" y1="159.561" x2="224.84" y2="159.561"
      gradientUnits="userSpaceOnUse">
      <stop stop-color="#00D1FF" />
      <stop offset="1" stop-color="#0054FF" />
    </linearGradient>
    <linearGradient id="paint2_linear_59_1635" x1="113.16" y1="203.361" x2="224.79" y2="203.361"
      gradientUnits="userSpaceOnUse">
      <stop stop-color="#00D1FF" />
      <stop offset="1" stop-color="#0054FF" />
    </linearGradient>
  </defs>
</svg>