<svg width="1000" height="700" viewBox="0 0 1000 700" fill="none" xmlns="http://www.w3.org/2000/svg">
<path d="M195.69 366.82L290.85 311.51" stroke="#5100CD" stroke-linecap="round" stroke-linejoin="round"/>
<path d="M191.85 260.03L228.26 238.87" stroke="#5100CD" stroke-linecap="round" stroke-linejoin="round"/>
<path d="M290.85 311.51L406.3 374.62" stroke="#5100CD" stroke-linecap="round" stroke-linejoin="round"/>
<path d="M228.25 238.87L412.47 339.58" stroke="#5100CD" stroke-linecap="round" stroke-linejoin="round"/>
<path d="M514.17 414.459L645.52 485.779" stroke="#5100CD" stroke-linecap="round" stroke-linejoin="round"/>
<path d="M592.94 204.169L623.56 221.869" stroke="#5100CD" stroke-linecap="round" stroke-linejoin="round"/>
<path d="M381.85 225.28L450.13 264.73" stroke="#5100CD" stroke-linecap="round" stroke-linejoin="round"/>
<path d="M125.21 220.57L193.49 260.02" stroke="#5100CD" stroke-linecap="round" stroke-linejoin="round"/>
<path d="M607.86 346.77L775.89 443.86" stroke="#5100CD" stroke-linecap="round" stroke-linejoin="round"/>
<path d="M676 466.83L748.94 508.98" stroke="#5100CD" stroke-linecap="round" stroke-linejoin="round"/>
<path d="M503.09 452.899L614.04 517.969" stroke="#5100CD" stroke-linecap="round" stroke-linejoin="round"/>
<path d="M270.86 568.78L483.46 445.31" stroke="#5100CD" stroke-linecap="round" stroke-linejoin="round"/>
<path d="M508.43 252.53L592.77 203.55" stroke="#5100CD" stroke-linecap="round" stroke-linejoin="round"/>
<path d="M645.52 485.78L678.14 466.83" stroke="#5100CD" stroke-linecap="round" stroke-linejoin="round"/>
<path d="M535.8 563.749L614.05 517.959" stroke="#5100CD" stroke-linecap="round" stroke-linejoin="round"/>
<path d="M531.05 358.66L748.72 232.24" stroke="#5100CD" stroke-linecap="round" stroke-linejoin="round"/>
<path d="M775.18 444.659L818.1 419.729" stroke="#5100CD" stroke-linecap="round" stroke-linejoin="round"/>
<path d="M550.69 380.629L609.7 346.359" stroke="#5100CD" stroke-linecap="round" stroke-linejoin="round"/>
<path d="M623.34 221.86L623.1 148.83" stroke="#5100CD" stroke-linecap="round" stroke-linejoin="round"/>
<path d="M382.08 225.04L381.85 152.01" stroke="#5100CD" stroke-linecap="round" stroke-linejoin="round"/>
<path d="M290.85 311.51L293.81 309.78L290.85 308.02L287.88 309.78L290.85 311.51Z" fill="#F5EDFF" stroke="#5100CD" stroke-linecap="round" stroke-linejoin="round"/>
<path d="M290.85 314.609V311.509L293.81 309.779V312.909L290.85 314.609Z" fill="#5100CD" stroke="#5100CD" stroke-linecap="round" stroke-linejoin="round"/>
<path d="M287.88 312.849V309.779L290.85 311.509V314.609L287.88 312.849Z" fill="#F5EDFF" stroke="#5100CD" stroke-linecap="round" stroke-linejoin="round"/>
<path d="M215.18 355.15L218.14 353.42L215.18 351.66L212.21 353.42L215.18 355.15Z" fill="#F5EDFF" stroke="#5100CD" stroke-linecap="round" stroke-linejoin="round"/>
<path d="M215.18 358.25V355.15L218.14 353.42V356.55L215.18 358.25Z" fill="#5100CD" stroke="#5100CD" stroke-linecap="round" stroke-linejoin="round"/>
<path d="M212.21 356.49V353.42L215.18 355.15V358.25L212.21 356.49Z" fill="#F5EDFF" stroke="#5100CD" stroke-linecap="round" stroke-linejoin="round"/>
<path d="M393.93 497.78L396.89 496.05L393.93 494.29L390.96 496.05L393.93 497.78Z" fill="#F5EDFF" stroke="#5100CD" stroke-linecap="round" stroke-linejoin="round"/>
<path d="M393.93 500.879V497.779L396.89 496.049V499.179L393.93 500.879Z" fill="#5100CD" stroke="#5100CD" stroke-linecap="round" stroke-linejoin="round"/>
<path d="M390.96 499.119V496.049L393.93 497.779V500.879L390.96 499.119Z" fill="#F5EDFF" stroke="#5100CD" stroke-linecap="round" stroke-linejoin="round"/>
<path d="M554.16 482.84L557.12 481.11L554.16 479.35L551.19 481.11L554.16 482.84Z" fill="#F5EDFF" stroke="#5100CD" stroke-linecap="round" stroke-linejoin="round"/>
<path d="M554.16 485.939V482.839L557.12 481.109V484.239L554.16 485.939Z" fill="#5100CD" stroke="#5100CD" stroke-linecap="round" stroke-linejoin="round"/>
<path d="M551.19 484.179V481.109L554.16 482.839V485.939L551.19 484.179Z" fill="#F5EDFF" stroke="#5100CD" stroke-linecap="round" stroke-linejoin="round"/>
<path d="M564.92 441.59L567.88 439.86L564.92 438.1L561.95 439.86L564.92 441.59Z" fill="#F5EDFF" stroke="#5100CD" stroke-linecap="round" stroke-linejoin="round"/>
<path d="M564.92 444.689V441.589L567.88 439.859V442.989L564.92 444.689Z" fill="#5100CD" stroke="#5100CD" stroke-linecap="round" stroke-linejoin="round"/>
<path d="M561.95 442.929V439.859L564.92 441.589V444.689L561.95 442.929Z" fill="#F5EDFF" stroke="#5100CD" stroke-linecap="round" stroke-linejoin="round"/>
<path d="M597.34 459.49L600.3 457.76L597.34 456L594.37 457.76L597.34 459.49Z" fill="#F5EDFF" stroke="#5100CD" stroke-linecap="round" stroke-linejoin="round"/>
<path d="M597.34 462.59V459.49L600.3 457.76V460.89L597.34 462.59Z" fill="#5100CD" stroke="#5100CD" stroke-linecap="round" stroke-linejoin="round"/>
<path d="M594.37 460.83V457.76L597.34 459.49V462.59L594.37 460.83Z" fill="#F5EDFF" stroke="#5100CD" stroke-linecap="round" stroke-linejoin="round"/>
<path d="M645.52 485.24L648.48 483.51L645.52 481.75L642.55 483.51L645.52 485.24Z" fill="#F5EDFF" stroke="#5100CD" stroke-linecap="round" stroke-linejoin="round"/>
<path d="M645.52 488.34V485.24L648.48 483.51V486.64L645.52 488.34Z" fill="#5100CD" stroke="#5100CD" stroke-linecap="round" stroke-linejoin="round"/>
<path d="M642.55 486.58V483.51L645.52 485.24V488.34L642.55 486.58Z" fill="#F5EDFF" stroke="#5100CD" stroke-linecap="round" stroke-linejoin="round"/>
<path d="M678.14 466.83L681.1 465.1L678.14 463.34L675.17 465.1L678.14 466.83Z" fill="#F5EDFF" stroke="#5100CD" stroke-linecap="round" stroke-linejoin="round"/>
<path d="M678.14 469.93V466.83L681.1 465.1V468.23L678.14 469.93Z" fill="#5100CD" stroke="#5100CD" stroke-linecap="round" stroke-linejoin="round"/>
<path d="M675.17 468.17V465.1L678.14 466.83V469.93L675.17 468.17Z" fill="#F5EDFF" stroke="#5100CD" stroke-linecap="round" stroke-linejoin="round"/>
<path d="M717.06 488.54L720.02 486.81L717.06 485.05L714.09 486.81L717.06 488.54Z" fill="#F5EDFF" stroke="#5100CD" stroke-linecap="round" stroke-linejoin="round"/>
<path d="M717.06 491.64V488.54L720.02 486.81V489.94L717.06 491.64Z" fill="#5100CD" stroke="#5100CD" stroke-linecap="round" stroke-linejoin="round"/>
<path d="M714.09 489.88V486.81L717.06 488.54V491.64L714.09 489.88Z" fill="#F5EDFF" stroke="#5100CD" stroke-linecap="round" stroke-linejoin="round"/>
<path d="M623.34 222.06L626.3 220.33L623.34 218.57L620.37 220.33L623.34 222.06Z" fill="#F5EDFF" stroke="#5100CD" stroke-linecap="round" stroke-linejoin="round"/>
<path d="M623.34 225.16V222.06L626.3 220.33V223.46L623.34 225.16Z" fill="#5100CD" stroke="#5100CD" stroke-linecap="round" stroke-linejoin="round"/>
<path d="M620.37 223.4V220.33L623.34 222.06V225.16L620.37 223.4Z" fill="#F5EDFF" stroke="#5100CD" stroke-linecap="round" stroke-linejoin="round"/>
<path d="M592.77 204.74L595.73 203.01L592.77 201.25L589.8 203.01L592.77 204.74Z" fill="#F5EDFF" stroke="#5100CD" stroke-linecap="round" stroke-linejoin="round"/>
<path d="M592.77 207.839V204.739L595.73 203.009V206.139L592.77 207.839Z" fill="#5100CD" stroke="#5100CD" stroke-linecap="round" stroke-linejoin="round"/>
<path d="M589.8 206.079V203.009L592.77 204.739V207.839L589.8 206.079Z" fill="#F5EDFF" stroke="#5100CD" stroke-linecap="round" stroke-linejoin="round"/>
<path d="M382.09 226.679L385.05 224.949L382.09 223.189L379.12 224.949L382.09 226.679Z" fill="#F5EDFF" stroke="#5100CD" stroke-linecap="round" stroke-linejoin="round"/>
<path d="M382.09 229.779V226.679L385.05 224.949V228.079L382.09 229.779Z" fill="#5100CD" stroke="#5100CD" stroke-linecap="round" stroke-linejoin="round"/>
<path d="M379.12 228.019V224.949L382.09 226.679V229.779L379.12 228.019Z" fill="#F5EDFF" stroke="#5100CD" stroke-linecap="round" stroke-linejoin="round"/>
<path d="M228.25 238.869L231.21 237.139L228.25 235.379L225.28 237.139L228.25 238.869Z" fill="#F5EDFF" stroke="#5100CD" stroke-linecap="round" stroke-linejoin="round"/>
<path d="M228.25 241.969V238.869L231.21 237.139V240.269L228.25 241.969Z" fill="#5100CD" stroke="#5100CD" stroke-linecap="round" stroke-linejoin="round"/>
<path d="M225.28 240.209V237.139L228.25 238.869V241.969L225.28 240.209Z" fill="#F5EDFF" stroke="#5100CD" stroke-linecap="round" stroke-linejoin="round"/>
<path d="M192.48 259.03L195.44 257.3L192.48 255.54L189.51 257.3L192.48 259.03Z" fill="#F5EDFF" stroke="#5100CD" stroke-linecap="round" stroke-linejoin="round"/>
<path d="M192.48 262.129V259.029L195.44 257.299V260.429L192.48 262.129Z" fill="#5100CD" stroke="#5100CD" stroke-linecap="round" stroke-linejoin="round"/>
<path d="M189.51 260.369V257.299L192.48 259.029V262.129L189.51 260.369Z" fill="#F5EDFF" stroke="#5100CD" stroke-linecap="round" stroke-linejoin="round"/>
<path d="M608.71 347.55L611.67 345.82L608.71 344.06L605.74 345.82L608.71 347.55Z" fill="#F5EDFF" stroke="#5100CD" stroke-linecap="round" stroke-linejoin="round"/>
<path d="M608.71 350.649V347.549L611.67 345.819V348.949L608.71 350.649Z" fill="#5100CD" stroke="#5100CD" stroke-linecap="round" stroke-linejoin="round"/>
<path d="M605.74 348.889V345.819L608.71 347.549V350.649L605.74 348.889Z" fill="#F5EDFF" stroke="#5100CD" stroke-linecap="round" stroke-linejoin="round"/>
<path d="M775.18 444.659L778.14 442.929L775.18 441.169L772.21 442.929L775.18 444.659Z" fill="#F5EDFF" stroke="#5100CD" stroke-linecap="round" stroke-linejoin="round"/>
<path d="M775.18 447.759V444.659L778.14 442.929V446.059L775.18 447.759Z" fill="#5100CD" stroke="#5100CD" stroke-linecap="round" stroke-linejoin="round"/>
<path d="M772.21 445.999V442.929L775.18 444.659V447.759L772.21 445.999Z" fill="#F5EDFF" stroke="#5100CD" stroke-linecap="round" stroke-linejoin="round"/>
<path d="M550.6 228.23L553.56 226.5L550.6 224.74L547.63 226.5L550.6 228.23Z" fill="#F5EDFF" stroke="#5100CD" stroke-linecap="round" stroke-linejoin="round"/>
<path d="M550.6 231.33V228.23L553.56 226.5V229.63L550.6 231.33Z" fill="#5100CD" stroke="#5100CD" stroke-linecap="round" stroke-linejoin="round"/>
<path d="M547.63 229.57V226.5L550.6 228.23V231.33L547.63 229.57Z" fill="#F5EDFF" stroke="#5100CD" stroke-linecap="round" stroke-linejoin="round"/>
<path d="M630.31 300.119L633.27 298.389L630.31 296.629L627.34 298.389L630.31 300.119Z" fill="#F5EDFF" stroke="#5100CD" stroke-linecap="round" stroke-linejoin="round"/>
<path d="M630.31 303.22V300.12L633.27 298.39V301.52L630.31 303.22Z" fill="#5100CD" stroke="#5100CD" stroke-linecap="round" stroke-linejoin="round"/>
<path d="M627.34 301.46V298.39L630.31 300.12V303.22L627.34 301.46Z" fill="#F5EDFF" stroke="#5100CD" stroke-linecap="round" stroke-linejoin="round"/>
<path d="M418.46 357.48V376.86V396.23L437.83 384.98V365.6V346.23L418.46 357.48Z" fill="#DBC8F6" stroke="#5100CD" stroke-linecap="round" stroke-linejoin="round"/>
<path d="M399.08 326.86L418.46 315.6L495.96 360.62L476.59 371.87L399.08 326.86Z" fill="#F5EDFF" stroke="#5100CD" stroke-linecap="round" stroke-linejoin="round"/>
<path d="M457.21 263.75L476.58 252.49V271.87L457.21 283.12V263.75Z" fill="#DBC8F6" stroke="#5100CD" stroke-linecap="round" stroke-linejoin="round"/>
<path d="M476.58 313.749L457.21 302.489L437.83 291.239L418.46 279.989L399.09 268.729V288.109L418.46 299.359L437.83 310.609L457.21 321.869L476.58 333.119V352.499V371.869L457.21 360.619L437.83 349.359L418.46 338.109L399.09 326.859V346.229V365.599V384.979V404.349L418.46 415.609L437.83 426.859L457.21 438.109L476.58 449.369L495.96 460.619V441.239L476.58 429.989L457.21 418.739L437.83 407.479L418.46 396.229V376.859V357.479L437.83 368.739L457.21 379.989L476.58 391.239L495.96 402.499V383.119V363.749V344.369V324.999L476.58 313.749Z" fill="#5100CD" stroke="#5100CD" stroke-linecap="round" stroke-linejoin="round"/>
<path d="M515.33 278.13L495.96 266.88L476.58 255.62L457.21 244.37L437.83 233.12V252.49V271.87L457.21 283.12V263.74L476.58 275L495.96 286.25L515.33 297.51L534.7 308.76V289.38L515.33 278.13Z" fill="#5100CD" stroke="#5100CD" stroke-linecap="round" stroke-linejoin="round"/>
<path d="M534.7 308.76V289.38L554.08 278.13V297.51L534.7 308.76Z" fill="#DBC8F6" stroke="#5100CD" stroke-linecap="round" stroke-linejoin="round"/>
<path d="M515.33 336.25V355.63V375V394.38V413.75L534.7 425V405.63V386.25V366.88V347.51L515.33 336.25Z" fill="#5100CD" stroke="#5100CD" stroke-linecap="round" stroke-linejoin="round"/>
<path d="M534.7 347.51V366.88V386.25V405.63V425L554.08 413.75V394.38V375V355.63V336.25L534.7 347.51Z" fill="#DBC8F6" stroke="#5100CD" stroke-linecap="round" stroke-linejoin="round"/>
<path d="M495.96 325V344.37V363.75V383.12V402.5L515.33 391.24V371.87V352.5V333.12V313.75L495.96 325Z" fill="#DBC8F6" stroke="#5100CD" stroke-linecap="round" stroke-linejoin="round"/>
<path d="M495.96 441.24L515.33 429.99V449.37L495.96 460.62V441.24Z" fill="#DBC8F6" stroke="#5100CD" stroke-linecap="round" stroke-linejoin="round"/>
<path d="M554.08 336.25L534.7 325L515.33 336.25L534.7 347.51L554.08 336.25Z" fill="#F5EDFF" stroke="#5100CD" stroke-linecap="round" stroke-linejoin="round"/>
<path d="M437.83 233.12L457.21 221.86L554.08 278.13L534.7 289.39L437.83 233.12Z" fill="#F5EDFF" stroke="#5100CD" stroke-linecap="round" stroke-linejoin="round"/>
<path d="M399.08 268.73L418.46 257.48L515.33 313.75L495.96 325L399.08 268.73Z" fill="#F5EDFF" stroke="#5100CD" stroke-linecap="round" stroke-linejoin="round"/>
<path d="M418.46 396.23L437.83 384.98L515.33 429.99L495.96 441.25L418.46 396.23Z" fill="#F5EDFF" stroke="#5100CD" stroke-linecap="round" stroke-linejoin="round"/>
<path d="M831.91 541.6L827.56 539.07L831.91 536.49L836.26 539.07L831.91 541.6Z" fill="#F5EDFF" stroke="#5100CD" stroke-linecap="round" stroke-linejoin="round"/>
<path d="M820.29 548.34L815.94 545.81L820.29 543.22L824.64 545.81L820.29 548.34Z" fill="#F5EDFF" stroke="#5100CD" stroke-linecap="round" stroke-linejoin="round"/>
<path d="M808.66 555.069L804.31 552.539L808.66 549.959L813.01 552.539L808.66 555.069Z" fill="#F5EDFF" stroke="#5100CD" stroke-linecap="round" stroke-linejoin="round"/>
<path d="M797.04 561.799L792.69 559.279L797.04 556.689L801.39 559.279L797.04 561.799Z" fill="#F5EDFF" stroke="#5100CD" stroke-linecap="round" stroke-linejoin="round"/>
<path d="M727.88 541.6L732.23 539.07L727.88 536.49L723.53 539.07L727.88 541.6Z" fill="#F5EDFF" stroke="#5100CD" stroke-linecap="round" stroke-linejoin="round"/>
<path d="M739.5 548.34L743.85 545.81L739.5 543.22L735.15 545.81L739.5 548.34Z" fill="#F5EDFF" stroke="#5100CD" stroke-linecap="round" stroke-linejoin="round"/>
<path d="M751.13 555.069L755.48 552.539L751.13 549.959L746.78 552.539L751.13 555.069Z" fill="#F5EDFF" stroke="#5100CD" stroke-linecap="round" stroke-linejoin="round"/>
<path d="M762.75 561.799L767.1 559.279L762.75 556.689L758.4 559.279L762.75 561.799Z" fill="#F5EDFF" stroke="#5100CD" stroke-linecap="round" stroke-linejoin="round"/>
<path d="M779.89 561.45L839.76 526.66L779.89 491.06L720.02 526.66L779.89 561.45Z" fill="#F5EDFF" stroke="#5100CD" stroke-linecap="round" stroke-linejoin="round"/>
<path d="M839.77 526.66V531.63L779.9 566.42V561.45L839.77 526.66Z" fill="#5100CD" stroke="#5100CD" stroke-linecap="round" stroke-linejoin="round"/>
<path d="M720.02 526.66V531.63L779.89 566.42V561.45L720.02 526.66Z" fill="#F5EDFF" stroke="#5100CD" stroke-linecap="round" stroke-linejoin="round"/>
<path d="M834.92 526.26L779.89 558.22L724.87 526.26L779.89 494.29L834.92 526.26Z" fill="#F5EDFF"/>
<path d="M381.96 72.5498V134.55L421.75 112.67L381.96 72.5498Z" fill="#F5EDFF" stroke="#5100CD" stroke-linecap="round" stroke-linejoin="round"/>
<path d="M381.96 152.77V134.55L421.75 112.67L381.96 152.77Z" fill="#DBC8F6" stroke="#5100CD" stroke-linecap="round" stroke-linejoin="round"/>
<path d="M381.96 72.5498V134.55L342.17 112.67L381.96 72.5498Z" fill="#F5EDFF" stroke="#5100CD" stroke-linecap="round" stroke-linejoin="round"/>
<path d="M381.96 152.77V134.55L342.17 112.67L381.96 152.77Z" fill="#F5EDFF" stroke="#5100CD" stroke-linecap="round" stroke-linejoin="round"/>
<path d="M839.77 387.64L881.33 363.5L839.77 338.79L798.21 363.5L839.77 387.64Z" fill="#F5EDFF" stroke="#5100CD" stroke-linecap="round" stroke-linejoin="round"/>
<path d="M821.06 363.34L824.95 365.6C829.83 362.7 839.76 356.8 839.76 356.8V352.22L821.06 363.33V363.34Z" fill="#F5EDFF" stroke="#5100CD" stroke-linecap="round" stroke-linejoin="round"/>
<path d="M839.77 352.23V356.8L854.58 365.61L858.47 363.35L839.77 352.24V352.23Z" fill="#F5EDFF" stroke="#5100CD" stroke-linecap="round" stroke-linejoin="round"/>
<path d="M854.57 365.61L839.76 356.81C839.76 356.81 829.84 362.72 824.95 365.61L839.76 374.21L854.57 365.61Z" fill="#F5EDFF" stroke="#5100CD" stroke-linecap="round" stroke-linejoin="round"/>
<path d="M839.77 431.16V387.64L881.33 363.5V407.3L839.77 431.16Z" fill="#DBC8F6" stroke="#5100CD" stroke-linecap="round" stroke-linejoin="round"/>
<path d="M798.21 406.45V363.5L839.77 387.64V431.16L798.21 406.45Z" fill="#F5EDFF" stroke="#5100CD" stroke-linecap="round" stroke-linejoin="round"/>
<path d="M733.77 198.86L723.19 216.09L737.72 235.22L768.85 245.05L798.34 239.81L808.93 222.58L794.4 203.45L763.27 193.62L733.77 198.86Z" fill="#F5EDFF" stroke="#5100CD" stroke-linecap="round" stroke-linejoin="round"/>
<path d="M765.36 181.61L796.49 191.44L811.02 210.57L800.44 227.8L770.94 233.04L739.81 223.21L725.28 204.08L735.86 186.85L765.36 181.61ZM747.75 194.39L741.06 205.28L750.24 217.37L769.91 223.58L788.54 220.27L795.23 209.38L786.05 197.29L766.38 191.08L747.75 194.39Z" fill="#F5EDFF" stroke="#5100CD" stroke-linecap="round" stroke-linejoin="round"/>
<path d="M725.28 204.08L723.19 216.09L737.72 235.22L739.81 223.21L725.28 204.08Z" fill="#F5EDFF" stroke="#5100CD" stroke-linecap="round" stroke-linejoin="round"/>
<path d="M770.94 233.04L768.85 245.05L798.34 239.81L800.44 227.8L770.94 233.04Z" fill="#F5EDFF" stroke="#5100CD" stroke-linecap="round" stroke-linejoin="round"/>
<path d="M739.81 223.21L737.72 235.22L768.85 245.05L770.94 233.04L739.81 223.21Z" fill="#F5EDFF" stroke="#5100CD" stroke-linecap="round" stroke-linejoin="round"/>
<path d="M800.44 227.8L798.34 239.81L808.93 222.58L811.02 210.57L800.44 227.8Z" fill="#DBC8F6" stroke="#5100CD" stroke-linecap="round" stroke-linejoin="round"/>
<path d="M747.76 194.38L745.66 206.39L764.3 203.08L766.39 191.08L747.76 194.38Z" fill="#F5EDFF" stroke="#5100CD" stroke-linecap="round" stroke-linejoin="round"/>
<path d="M783.97 209.29L786.06 197.28L795.24 209.37L790.18 217.46L783.97 209.29Z" fill="#F5EDFF" stroke="#5100CD" stroke-linecap="round" stroke-linejoin="round"/>
<path d="M743.92 209.03L745.66 206.39L747.76 194.38L741.07 205.27L743.92 209.03Z" fill="#DBC8F6" stroke="#5100CD" stroke-linecap="round" stroke-linejoin="round"/>
<path d="M766.39 191.08L764.3 203.08L783.97 209.29L786.06 197.28L766.39 191.08Z" fill="#F5EDFF" stroke="#5100CD" stroke-linecap="round" stroke-linejoin="round"/>
<path d="M622.48 114.47C640.722 114.47 655.51 105.703 655.51 94.8896C655.51 84.0758 640.722 75.3096 622.48 75.3096C604.238 75.3096 589.45 84.0758 589.45 94.8896C589.45 105.703 604.238 114.47 622.48 114.47Z" fill="#F5EDFF" stroke="#5100CD" stroke-linecap="round" stroke-linejoin="round"/>
<path d="M633.38 113.369L628.021 149.249C628.271 149.119 628.5 148.989 628.72 148.839L636.36 112.659C635.39 112.929 634.401 113.159 633.391 113.369H633.38Z" fill="#F5EDFF" stroke="#5100CD" stroke-linecap="round" stroke-linejoin="round"/>
<path d="M591.15 101.099L614.32 146.639C615.07 148.609 617.8 150.129 621.21 150.429L616.01 114.079C604.33 112.709 594.86 107.679 591.15 101.089V101.099Z" fill="#F5EDFF" stroke="#5100CD" stroke-linecap="round" stroke-linejoin="round"/>
<path d="M624.37 114.429V150.359C625.41 150.219 626.39 149.959 627.24 149.609L627.99 114.189C626.8 114.309 625.6 114.389 624.37 114.429Z" fill="#F5EDFF" stroke="#5100CD" stroke-linecap="round" stroke-linejoin="round"/>
<path d="M647.49 107.669L633.55 140.899L653.81 101.099C652.43 103.539 650.27 105.759 647.49 107.669Z" fill="#F5EDFF" stroke="#5100CD" stroke-linecap="round" stroke-linejoin="round"/>
<path d="M622.48 114.46C620.27 114.46 618.111 114.33 616.021 114.08L621.22 150.43C621.63 150.47 622.05 150.49 622.48 150.49C623.13 150.49 623.76 150.44 624.37 150.36V114.43C623.74 114.45 623.12 114.47 622.48 114.47V114.46Z" fill="#5100CD" stroke="#5100CD" stroke-linecap="round" stroke-linejoin="round"/>
<path d="M627.99 114.189L627.24 149.609C627.51 149.499 627.77 149.369 628.02 149.239L633.38 113.359C631.64 113.719 629.84 113.999 627.99 114.179V114.189Z" fill="#5100CD" stroke="#5100CD" stroke-linecap="round" stroke-linejoin="round"/>
<path d="M636.35 112.659L628.71 148.839C629.67 148.199 630.36 147.419 630.66 146.549L633.53 140.899L647.47 107.669C644.42 109.769 640.63 111.469 636.34 112.649L636.35 112.659Z" fill="#5100CD" stroke="#5100CD" stroke-linecap="round" stroke-linejoin="round"/>
<path d="M622.48 91.0298C629.07 91.0298 634.65 93.5698 636.6 97.0898C637.08 96.2198 637.34 95.2998 637.34 94.3398C637.34 89.4698 630.68 85.5298 622.47 85.5298C614.26 85.5298 607.6 89.4698 607.6 94.3398C607.6 95.2998 607.86 96.2298 608.34 97.0898C610.29 93.5698 615.87 91.0298 622.46 91.0298H622.48Z" fill="#DBC8F6" stroke="#5100CD" stroke-linecap="round" stroke-linejoin="round"/>
<path d="M622.48 103.15C629.07 103.15 634.65 100.61 636.6 97.0898C634.65 93.5698 629.07 91.0298 622.48 91.0298C615.89 91.0298 610.31 93.5698 608.36 97.0898C610.31 100.61 615.89 103.15 622.48 103.15Z" fill="#F5EDFF" stroke="#5100CD" stroke-linecap="round" stroke-linejoin="round"/>
<path d="M109.62 213.11H106.46L107.8 221.49C108.46 226.16 111.86 230.72 118 234.29C131.78 242.29 154.11 242.29 167.88 234.29C174.03 230.72 177.42 226.16 178.08 221.49L179.42 213.11H109.58H109.62Z" fill="#F5EDFF" stroke="#5100CD" stroke-linecap="round" stroke-linejoin="round"/>
<path d="M130.38 213.109V238.949C133.61 239.659 136.97 240.089 140.37 240.239V213.109H130.38Z" fill="#5100CD" stroke="#5100CD" stroke-linecap="round" stroke-linejoin="round"/>
<path d="M109.62 213.11H106.46L107.8 221.49C108.46 226.16 111.86 230.72 118 234.29C121.63 236.4 125.86 237.95 130.37 238.94V213.1H109.6L109.62 213.11Z" fill="#DBC8F6" stroke="#5100CD" stroke-linecap="round" stroke-linejoin="round"/>
<path d="M140.37 213.109V240.239C142.06 240.309 143.75 240.309 145.43 240.239V213.109H140.37Z" fill="#DBC8F6" stroke="#5100CD" stroke-linecap="round" stroke-linejoin="round"/>
<path d="M176.3 213.109H159.35V237.959C162.43 237.019 165.32 235.799 167.9 234.299C174.05 230.729 177.44 226.169 178.1 221.499L179.44 213.119H176.28L176.3 213.109Z" fill="#5100CD" stroke="#5100CD" stroke-linecap="round" stroke-linejoin="round"/>
<path d="M145.44 213.11V240.24C148.98 240.1 152.48 239.65 155.83 238.88V213.1H145.44V213.11Z" fill="#5100CD" stroke="#5100CD" stroke-linecap="round" stroke-linejoin="round"/>
<path d="M155.83 213.109V238.889C157.02 238.619 158.2 238.309 159.35 237.959V213.109H155.83Z" fill="#DBC8F6" stroke="#5100CD" stroke-linecap="round" stroke-linejoin="round"/>
<path d="M142.96 231.39C163.339 231.39 179.86 221.795 179.86 209.96C179.86 198.124 163.339 188.53 142.96 188.53C122.581 188.53 106.06 198.124 106.06 209.96C106.06 221.795 122.581 231.39 142.96 231.39Z" fill="#F5EDFF" stroke="#5100CD" stroke-linecap="round" stroke-linejoin="round"/>
<path d="M142.96 217.44C150.068 217.44 155.83 214.091 155.83 209.96C155.83 205.829 150.068 202.48 142.96 202.48C135.852 202.48 130.09 205.829 130.09 209.96C130.09 214.091 135.852 217.44 142.96 217.44Z" fill="#F5EDFF" stroke="#5100CD" stroke-linecap="round" stroke-linejoin="round"/>
<path d="M133.85 207.83C138.88 204.91 147.03 204.91 152.05 207.83C153.87 208.89 155.02 210.18 155.52 211.54C156.41 209.14 155.26 206.54 152.05 204.68C147.02 201.76 138.87 201.76 133.85 204.68C130.64 206.54 129.49 209.15 130.38 211.54C130.88 210.18 132.03 208.89 133.85 207.83Z" fill="#F5EDFF" stroke="#5100CD" stroke-linecap="round" stroke-linejoin="round"/>
<path d="M133.85 215.24C138.88 218.16 147.03 218.16 152.05 215.24C153.87 214.18 155.02 212.89 155.52 211.53C155.02 210.17 153.87 208.88 152.05 207.82C147.02 204.9 138.87 204.9 133.85 207.82C132.03 208.88 130.88 210.17 130.38 211.53C130.88 212.89 132.03 214.18 133.85 215.24Z" fill="#F5EDFF" stroke="#5100CD" stroke-linecap="round" stroke-linejoin="round"/>
<path d="M109.62 198.93H106.46L107.8 207.31C108.46 211.98 111.86 216.54 118 220.11C131.78 228.11 154.11 228.11 167.88 220.11C174.03 216.54 177.42 211.98 178.08 207.31L179.42 198.93H109.58H109.62Z" fill="#F5EDFF" stroke="#5100CD" stroke-linecap="round" stroke-linejoin="round"/>
<path d="M130.38 198.93V224.77C133.61 225.48 136.97 225.91 140.37 226.06V198.93H130.38Z" fill="#5100CD" stroke="#5100CD" stroke-linecap="round" stroke-linejoin="round"/>
<path d="M109.62 198.93H106.46L107.8 207.31C108.46 211.98 111.86 216.54 118 220.11C121.63 222.22 125.86 223.77 130.37 224.76V198.92H109.6L109.62 198.93Z" fill="#DBC8F6" stroke="#5100CD" stroke-linecap="round" stroke-linejoin="round"/>
<path d="M140.37 198.93V226.06C142.06 226.13 143.75 226.13 145.43 226.06V198.93H140.37Z" fill="#DBC8F6" stroke="#5100CD" stroke-linecap="round" stroke-linejoin="round"/>
<path d="M176.3 198.93H159.35V223.78C162.43 222.84 165.32 221.62 167.9 220.12C174.05 216.55 177.44 211.99 178.1 207.32L179.44 198.94H176.28L176.3 198.93Z" fill="#5100CD" stroke="#5100CD" stroke-linecap="round" stroke-linejoin="round"/>
<path d="M145.44 198.93V226.06C148.98 225.92 152.48 225.47 155.83 224.7V198.92H145.44V198.93Z" fill="#5100CD" stroke="#5100CD" stroke-linecap="round" stroke-linejoin="round"/>
<path d="M155.83 198.93V224.71C157.02 224.44 158.2 224.13 159.35 223.78V198.93H155.83Z" fill="#DBC8F6" stroke="#5100CD" stroke-linecap="round" stroke-linejoin="round"/>
<path d="M142.96 217.2C163.339 217.2 179.86 207.605 179.86 195.77C179.86 183.934 163.339 174.34 142.96 174.34C122.581 174.34 106.06 183.934 106.06 195.77C106.06 207.605 122.581 217.2 142.96 217.2Z" fill="#F5EDFF" stroke="#5100CD" stroke-linecap="round" stroke-linejoin="round"/>
<path d="M142.96 203.25C150.068 203.25 155.83 199.901 155.83 195.77C155.83 191.639 150.068 188.29 142.96 188.29C135.852 188.29 130.09 191.639 130.09 195.77C130.09 199.901 135.852 203.25 142.96 203.25Z" fill="#F5EDFF" stroke="#5100CD" stroke-linecap="round" stroke-linejoin="round"/>
<path d="M133.85 193.64C138.88 190.72 147.03 190.72 152.05 193.64C153.87 194.7 155.02 195.99 155.52 197.35C156.41 194.95 155.26 192.35 152.05 190.49C147.02 187.57 138.87 187.57 133.85 190.49C130.64 192.35 129.49 194.96 130.38 197.35C130.88 195.99 132.03 194.7 133.85 193.64Z" fill="#DBC8F6" stroke="#5100CD" stroke-linecap="round" stroke-linejoin="round"/>
<path d="M133.85 201.06C138.88 203.98 147.03 203.98 152.05 201.06C153.87 200 155.02 198.71 155.52 197.35C155.02 195.99 153.87 194.7 152.05 193.64C147.02 190.72 138.87 190.72 133.85 193.64C132.03 194.7 130.88 195.99 130.38 197.35C130.88 198.71 132.03 200 133.85 201.06Z" fill="#F5EDFF" stroke="#5100CD" stroke-linecap="round" stroke-linejoin="round"/>
<path d="M179.85 400.36L199.05 389.2L179.85 377.78L160.65 389.2L179.85 400.36Z" fill="#F5EDFF" stroke="#5100CD" stroke-linecap="round" stroke-linejoin="round"/>
<path d="M179.85 408.64V400.36L199.05 389.2V397.61L179.85 408.64Z" fill="#F5EDFF" stroke="#5100CD" stroke-linecap="round" stroke-linejoin="round"/>
<path d="M160.65 397.22V389.2L179.85 400.36V408.64L160.65 397.22Z" fill="#F5EDFF" stroke="#5100CD" stroke-linecap="round" stroke-linejoin="round"/>
<path d="M204.36 414.41L223.57 403.25L204.36 391.84L185.16 403.25L204.36 414.41Z" fill="#F5EDFF" stroke="#5100CD" stroke-linecap="round" stroke-linejoin="round"/>
<path d="M204.36 422.69V414.41L223.57 403.25V411.67L204.36 422.69Z" fill="#DBC8F6" stroke="#5100CD" stroke-linecap="round" stroke-linejoin="round"/>
<path d="M185.16 411.28V403.25L204.36 414.41V422.69L185.16 411.28Z" fill="#F5EDFF" stroke="#5100CD" stroke-linecap="round" stroke-linejoin="round"/>
<path d="M155.34 414.53L174.54 403.37L155.34 391.96L136.14 403.37L155.34 414.53Z" fill="#F5EDFF" stroke="#5100CD" stroke-linecap="round" stroke-linejoin="round"/>
<path d="M155.34 422.81V414.53L174.54 403.37V411.78L155.34 422.81Z" fill="#F5EDFF" stroke="#5100CD" stroke-linecap="round" stroke-linejoin="round"/>
<path d="M136.14 411.39V403.37L155.34 414.53V422.81L136.14 411.39Z" fill="#F5EDFF" stroke="#5100CD" stroke-linecap="round" stroke-linejoin="round"/>
<path d="M179.85 428.59L199.05 417.43L179.85 406.01L160.65 417.43L179.85 428.59Z" fill="#F5EDFF" stroke="#5100CD" stroke-linecap="round" stroke-linejoin="round"/>
<path d="M179.85 436.87V428.59L199.05 417.43V425.84L179.85 436.87Z" fill="#DBC8F6" stroke="#5100CD" stroke-linecap="round" stroke-linejoin="round"/>
<path d="M160.65 425.45V417.43L179.85 428.59V436.87L160.65 425.45Z" fill="#F5EDFF" stroke="#5100CD" stroke-linecap="round" stroke-linejoin="round"/>
<path d="M179.85 398.07L215.98 377.07L179.85 355.59L143.73 377.07L179.85 398.07Z" fill="#F5EDFF" stroke="#5100CD" stroke-linecap="round" stroke-linejoin="round"/>
<path d="M164.89 376.93L168 378.74C171.9 376.42 179.84 371.7 179.84 371.7V368.04L164.88 376.93H164.89Z" fill="#DBC8F6" stroke="#5100CD" stroke-linecap="round" stroke-linejoin="round"/>
<path d="M179.85 368.04V371.7L191.7 378.74L194.81 376.93L179.85 368.04Z" fill="#F5EDFF" stroke="#5100CD" stroke-linecap="round" stroke-linejoin="round"/>
<path d="M191.7 378.74L179.86 371.7C179.86 371.7 171.92 376.42 168.02 378.74L179.86 385.62L191.7 378.74Z" fill="#F5EDFF" stroke="#5100CD" stroke-linecap="round" stroke-linejoin="round"/>
<path d="M179.85 413.65V398.07L215.98 377.07V392.9L179.85 413.65Z" fill="#DBC8F6" stroke="#5100CD" stroke-linecap="round" stroke-linejoin="round"/>
<path d="M143.73 392.17V377.07L179.85 398.07V413.65L143.73 392.17Z" fill="#F5EDFF" stroke="#5100CD" stroke-linecap="round" stroke-linejoin="round"/>
<path d="M237 563.65V575.13L248.48 568.5V557.02L237 563.65Z" fill="#F5EDFF" stroke="#5100CD" stroke-linecap="round" stroke-linejoin="round"/>
<path d="M259.98 563.65V575.13L248.5 568.5V557.02L259.98 563.65Z" fill="#F5EDFF" stroke="#5100CD" stroke-linecap="round" stroke-linejoin="round"/>
<path d="M248.49 581.71V570.22L237.01 563.59V575.08L248.49 581.71Z" fill="#F5EDFF" stroke="#5100CD" stroke-linecap="round" stroke-linejoin="round"/>
<path d="M248.49 581.71V570.22L259.97 563.59V575.08L248.49 581.71Z" fill="#F5EDFF" stroke="#5100CD" stroke-linecap="round" stroke-linejoin="round"/>
<path d="M237.01 563.59L248.5 557.01L259.97 563.59L248.49 570.22L237.01 563.59Z" fill="#F5EDFF" stroke="#5100CD" stroke-linecap="round" stroke-linejoin="round"/>
<path d="M251.55 572.13V583.61L263.03 576.98V565.5L251.55 572.13Z" fill="#F5EDFF" stroke="#5100CD" stroke-linecap="round" stroke-linejoin="round"/>
<path d="M274.53 572.13V583.61L263.05 576.98V565.5L274.53 572.13Z" fill="#F5EDFF" stroke="#5100CD" stroke-linecap="round" stroke-linejoin="round"/>
<path d="M263.04 590.2V578.71L251.56 572.08V583.57L263.04 590.2Z" fill="#F5EDFF" stroke="#5100CD" stroke-linecap="round" stroke-linejoin="round"/>
<path d="M263.04 590.2V578.71L274.52 572.08V583.57L263.04 590.2Z" fill="#F5EDFF" stroke="#5100CD" stroke-linecap="round" stroke-linejoin="round"/>
<path d="M251.56 572.08L263.05 565.5L274.52 572.08L263.04 578.71L251.56 572.08Z" fill="#F5EDFF" stroke="#5100CD" stroke-linecap="round" stroke-linejoin="round"/>
<path d="M222.44 572.13V583.61L233.92 576.98V565.5L222.44 572.13Z" fill="#F5EDFF" stroke="#5100CD" stroke-linecap="round" stroke-linejoin="round"/>
<path d="M245.42 572.13V583.61L233.94 576.98V565.5L245.42 572.13Z" fill="#F5EDFF" stroke="#5100CD" stroke-linecap="round" stroke-linejoin="round"/>
<path d="M233.93 590.2V578.71L222.45 572.08V583.57L233.93 590.2Z" fill="#F5EDFF" stroke="#5100CD" stroke-linecap="round" stroke-linejoin="round"/>
<path d="M233.94 590.2V578.71L245.42 572.08V583.57L233.94 590.2Z" fill="#F5EDFF" stroke="#5100CD" stroke-linecap="round" stroke-linejoin="round"/>
<path d="M222.45 572.08L233.94 565.5L245.41 572.08L233.93 578.71L222.45 572.08Z" fill="#F5EDFF" stroke="#5100CD" stroke-linecap="round" stroke-linejoin="round"/>
<path d="M237 580.619V592.099L248.48 585.469V573.989L237 580.619Z" fill="#F5EDFF" stroke="#5100CD" stroke-linecap="round" stroke-linejoin="round"/>
<path d="M259.98 580.619V592.099L248.5 585.469V573.989L259.98 580.619Z" fill="#F5EDFF" stroke="#5100CD" stroke-linecap="round" stroke-linejoin="round"/>
<path d="M248.49 598.68V587.19L237.01 580.56V592.05L248.49 598.68Z" fill="#F5EDFF" stroke="#5100CD" stroke-linecap="round" stroke-linejoin="round"/>
<path d="M248.49 598.68V587.19L259.97 580.56V592.05L248.49 598.68Z" fill="#F5EDFF" stroke="#5100CD" stroke-linecap="round" stroke-linejoin="round"/>
<path d="M237.01 580.56L248.5 573.979L259.97 580.56L248.49 587.19L237.01 580.56Z" fill="#F5EDFF" stroke="#5100CD" stroke-linecap="round" stroke-linejoin="round"/>
<path d="M207.84 580.619V592.099L219.32 585.469V573.989L207.84 580.619Z" fill="#F5EDFF" stroke="#5100CD" stroke-linecap="round" stroke-linejoin="round"/>
<path d="M230.82 580.619V592.099L219.34 585.469V573.989L230.82 580.619Z" fill="#F5EDFF" stroke="#5100CD" stroke-linecap="round" stroke-linejoin="round"/>
<path d="M219.33 598.68V587.19L207.85 580.56V592.05L219.33 598.68Z" fill="#F5EDFF" stroke="#5100CD" stroke-linecap="round" stroke-linejoin="round"/>
<path d="M219.33 598.68V587.19L230.81 580.56V592.05L219.33 598.68Z" fill="#F5EDFF" stroke="#5100CD" stroke-linecap="round" stroke-linejoin="round"/>
<path d="M207.85 580.56L219.34 573.979L230.81 580.56L219.33 587.19L207.85 580.56Z" fill="#F5EDFF" stroke="#5100CD" stroke-linecap="round" stroke-linejoin="round"/>
<path d="M222.39 589.1V600.58L233.87 593.95V582.47L222.39 589.1Z" fill="#F5EDFF" stroke="#5100CD" stroke-linecap="round" stroke-linejoin="round"/>
<path d="M245.37 589.1V600.58L233.89 593.95V582.47L245.37 589.1Z" fill="#F5EDFF" stroke="#5100CD" stroke-linecap="round" stroke-linejoin="round"/>
<path d="M233.879 607.17V595.68L222.399 589.05V600.54L233.879 607.17Z" fill="#F5EDFF" stroke="#5100CD" stroke-linecap="round" stroke-linejoin="round"/>
<path d="M233.88 607.17V595.68L245.36 589.05V600.54L233.88 607.17Z" fill="#F5EDFF" stroke="#5100CD" stroke-linecap="round" stroke-linejoin="round"/>
<path d="M222.399 589.05L233.889 582.47L245.359 589.05L233.879 595.68L222.399 589.05Z" fill="#F5EDFF" stroke="#5100CD" stroke-linecap="round" stroke-linejoin="round"/>
<path d="M277.6 573.989V585.469L289.08 592.099V580.619L277.6 573.989Z" fill="#F5EDFF" stroke="#5100CD" stroke-linecap="round" stroke-linejoin="round"/>
<path d="M277.58 573.989V585.469L266.1 592.099V580.619L277.58 573.989Z" fill="#F5EDFF" stroke="#5100CD" stroke-linecap="round" stroke-linejoin="round"/>
<path d="M289.07 592.05V580.56L277.59 587.19V598.68L289.07 592.05Z" fill="#DBC8F6" stroke="#5100CD" stroke-linecap="round" stroke-linejoin="round"/>
<path d="M266.109 592.05V580.56L277.589 587.19V598.68L266.109 592.05Z" fill="#F5EDFF" stroke="#5100CD" stroke-linecap="round" stroke-linejoin="round"/>
<path d="M277.589 587.19L266.109 580.56L277.579 573.979L289.069 580.56L277.589 587.19Z" fill="#F5EDFF" stroke="#5100CD" stroke-linecap="round" stroke-linejoin="round"/>
<path d="M263.05 582.47V593.95L274.53 600.58V589.1L263.05 582.47Z" fill="#F5EDFF" stroke="#5100CD" stroke-linecap="round" stroke-linejoin="round"/>
<path d="M263.03 582.47V593.95L251.55 600.58V589.1L263.03 582.47Z" fill="#F5EDFF" stroke="#5100CD" stroke-linecap="round" stroke-linejoin="round"/>
<path d="M274.52 600.54V589.05L263.04 595.68V607.17L274.52 600.54Z" fill="#DBC8F6" stroke="#5100CD" stroke-linecap="round" stroke-linejoin="round"/>
<path d="M251.56 600.54V589.05L263.04 595.68V607.17L251.56 600.54Z" fill="#F5EDFF" stroke="#5100CD" stroke-linecap="round" stroke-linejoin="round"/>
<path d="M263.04 595.68L251.56 589.05L263.03 582.47L274.52 589.05L263.04 595.68Z" fill="#F5EDFF" stroke="#5100CD" stroke-linecap="round" stroke-linejoin="round"/>
<path d="M236.95 597.59V609.07L248.43 602.44V590.96L236.95 597.59Z" fill="#F5EDFF" stroke="#5100CD" stroke-linecap="round" stroke-linejoin="round"/>
<path d="M259.93 597.59V609.07L248.45 602.44V590.96L259.93 597.59Z" fill="#F5EDFF" stroke="#5100CD" stroke-linecap="round" stroke-linejoin="round"/>
<path d="M248.44 615.65V604.16L236.96 597.53V609.02L248.44 615.65Z" fill="#F5EDFF" stroke="#5100CD" stroke-linecap="round" stroke-linejoin="round"/>
<path d="M248.44 615.65V604.16L259.92 597.53V609.02L248.44 615.65Z" fill="#DBC8F6" stroke="#5100CD" stroke-linecap="round" stroke-linejoin="round"/>
<path d="M236.95 597.53L248.44 590.95L259.91 597.53L248.43 604.16L236.95 597.53Z" fill="#F5EDFF" stroke="#5100CD" stroke-linecap="round" stroke-linejoin="round"/>
<path d="M277.57 553.8L248.47 570.71L219.37 553.8L248.47 536.9L277.57 553.8Z" fill="#F5EDFF" stroke="#5100CD" stroke-linecap="round" stroke-linejoin="round"/>
<path d="M275.93 580.44L246.83 563.54V534.44L275.93 551.34V580.44Z" fill="#F5EDFF" stroke="#5100CD" stroke-linecap="round" stroke-linejoin="round"/>
<path d="M276.09 580.36L246.99 563.45V534.35L276.09 551.26V580.36Z" fill="#F5EDFF" stroke="#5100CD" stroke-linecap="round" stroke-linejoin="round"/>
<path d="M274.24 581.13L245.14 564.23V535.13L274.24 552.03V581.13Z" fill="#F5EDFF" stroke="#5100CD" stroke-linecap="round" stroke-linejoin="round"/>
<path d="M274.41 581.04L245.31 564.14V535.04L274.41 551.95V581.05V581.04Z" fill="#F5EDFF" stroke="#5100CD" stroke-linecap="round" stroke-linejoin="round"/>
<path d="M272.56 581.82L243.46 564.91V535.81L272.56 552.72V581.82Z" fill="#F5EDFF" stroke="#5100CD" stroke-linecap="round" stroke-linejoin="round"/>
<path d="M272.72 581.73L243.62 564.83V535.73L272.72 552.63V581.73Z" fill="#F5EDFF" stroke="#5100CD" stroke-linecap="round" stroke-linejoin="round"/>
<path d="M270.86 582.51L241.76 565.6V536.5L270.86 553.41V582.51Z" fill="#F5EDFF" stroke="#5100CD" stroke-linecap="round" stroke-linejoin="round"/>
<path d="M271.03 582.42L241.93 565.52V536.42L271.03 553.32V582.42Z" fill="#F5EDFF" stroke="#5100CD" stroke-linecap="round" stroke-linejoin="round"/>
<path d="M269.18 574.97L240.08 558.07V528.97L269.18 545.87V574.97Z" fill="#F5EDFF" stroke="#5100CD" stroke-linecap="round" stroke-linejoin="round"/>
<path d="M269.34 574.89L240.24 557.98V528.88L269.34 545.79V574.89Z" fill="#F5EDFF" stroke="#5100CD" stroke-linecap="round" stroke-linejoin="round"/>
<path d="M267.48 578.78L238.38 561.87V532.77L267.48 549.68V578.78Z" fill="#F5EDFF" stroke="#5100CD" stroke-linecap="round" stroke-linejoin="round"/>
<path d="M267.65 578.69L238.55 561.79V532.69L267.65 549.59V578.69Z" fill="#F5EDFF" stroke="#5100CD" stroke-linecap="round" stroke-linejoin="round"/>
<path d="M265.8 580.27L236.7 563.37V534.27L265.8 551.17V580.27Z" fill="#F5EDFF" stroke="#5100CD" stroke-linecap="round" stroke-linejoin="round"/>
<path d="M265.96 580.19L236.86 563.28V534.18L265.96 551.09V580.19Z" fill="#F5EDFF" stroke="#5100CD" stroke-linecap="round" stroke-linejoin="round"/>
<path d="M264.11 585.26L235.01 568.35V539.25L264.11 556.15V585.25V585.26Z" fill="#F5EDFF" stroke="#5100CD" stroke-linecap="round" stroke-linejoin="round"/>
<path d="M264.27 585.17L235.17 568.27V539.17L264.27 556.07V585.17Z" fill="#F5EDFF" stroke="#5100CD" stroke-linecap="round" stroke-linejoin="round"/>
<path d="M262.42 585.95L233.32 569.04V539.94L262.42 556.85V585.95Z" fill="#F5EDFF" stroke="#5100CD" stroke-linecap="round" stroke-linejoin="round"/>
<path d="M262.58 585.86L233.48 568.96V539.86L262.58 556.76V585.86Z" fill="#F5EDFF" stroke="#5100CD" stroke-linecap="round" stroke-linejoin="round"/>
<path d="M260.73 586.64L231.63 569.73V540.63L260.73 557.54V586.64Z" fill="#F5EDFF" stroke="#5100CD" stroke-linecap="round" stroke-linejoin="round"/>
<path d="M260.9 586.55L231.8 569.64V540.54L260.9 557.44V586.54V586.55Z" fill="#F5EDFF" stroke="#5100CD" stroke-linecap="round" stroke-linejoin="round"/>
<path d="M259.04 582.21L229.94 565.3V536.2L259.04 553.11V582.21Z" fill="#F5EDFF" stroke="#5100CD" stroke-linecap="round" stroke-linejoin="round"/>
<path d="M259.2 582.12L230.1 565.22V536.12L259.2 553.02V582.12Z" fill="#F5EDFF" stroke="#5100CD" stroke-linecap="round" stroke-linejoin="round"/>
<path d="M257.36 583.44L228.26 566.54V537.44L257.36 554.35V583.45V583.44Z" fill="#F5EDFF" stroke="#5100CD" stroke-linecap="round" stroke-linejoin="round"/>
<path d="M257.52 583.35L228.42 566.44V537.34L257.52 554.25V583.35Z" fill="#F5EDFF" stroke="#5100CD" stroke-linecap="round" stroke-linejoin="round"/>
<path d="M255.66 584.68L226.56 567.77V538.67L255.66 555.58V584.68Z" fill="#F5EDFF" stroke="#5100CD" stroke-linecap="round" stroke-linejoin="round"/>
<path d="M255.82 584.59L226.72 567.68V538.58L255.82 555.49V584.59Z" fill="#F5EDFF" stroke="#5100CD" stroke-linecap="round" stroke-linejoin="round"/>
<path d="M253.98 585.83L224.88 568.92V539.82L253.98 556.73V585.83Z" fill="#F5EDFF" stroke="#5100CD" stroke-linecap="round" stroke-linejoin="round"/>
<path d="M254.14 585.73L225.04 568.83V539.73L254.14 556.63V585.73Z" fill="#F5EDFF" stroke="#5100CD" stroke-linecap="round" stroke-linejoin="round"/>
<path d="M252.28 587.23L223.18 570.33V541.23L252.28 558.13V587.23Z" fill="#F5EDFF" stroke="#5100CD" stroke-linecap="round" stroke-linejoin="round"/>
<path d="M252.45 587.14L223.35 570.23V541.13L252.45 558.04V587.14Z" fill="#F5EDFF" stroke="#5100CD" stroke-linecap="round" stroke-linejoin="round"/>
<path d="M248.46 597.52L219.36 580.61V553.8L248.46 570.71V597.52Z" fill="#F5EDFF" stroke="#5100CD" stroke-linecap="round" stroke-linejoin="round"/>
<path d="M277.57 580.61L248.47 597.52V570.71L277.57 553.8V580.61Z" fill="#DBC8F6" stroke="#5100CD" stroke-linecap="round" stroke-linejoin="round"/>
<path d="M517.56 564.47V572.82L525.91 568V559.65L517.56 564.47Z" fill="#F5EDFF" stroke="#5100CD" stroke-linecap="round" stroke-linejoin="round"/>
<path d="M534.28 564.47V572.82L525.93 568V559.65L534.28 564.47Z" fill="#F5EDFF" stroke="#5100CD" stroke-linecap="round" stroke-linejoin="round"/>
<path d="M525.92 577.61V569.25L517.57 564.43V572.79L525.92 577.61Z" fill="#F5EDFF" stroke="#5100CD" stroke-linecap="round" stroke-linejoin="round"/>
<path d="M525.92 577.61V569.25L534.27 564.43V572.79L525.92 577.61Z" fill="#F5EDFF" stroke="#5100CD" stroke-linecap="round" stroke-linejoin="round"/>
<path d="M517.57 564.43L525.93 559.65L534.27 564.43L525.92 569.25L517.57 564.43Z" fill="#F5EDFF" stroke="#5100CD" stroke-linecap="round" stroke-linejoin="round"/>
<path d="M528.15 570.64V578.99L536.5 574.17V565.82L528.15 570.64Z" fill="#F5EDFF" stroke="#5100CD" stroke-linecap="round" stroke-linejoin="round"/>
<path d="M544.86 570.64V578.99L536.51 574.17V565.82L544.86 570.64Z" fill="#F5EDFF" stroke="#5100CD" stroke-linecap="round" stroke-linejoin="round"/>
<path d="M536.51 583.78V575.42L528.16 570.6V578.96L536.51 583.78Z" fill="#F5EDFF" stroke="#5100CD" stroke-linecap="round" stroke-linejoin="round"/>
<path d="M536.51 583.78V575.42L544.86 570.6V578.96L536.51 583.78Z" fill="#F5EDFF" stroke="#5100CD" stroke-linecap="round" stroke-linejoin="round"/>
<path d="M528.15 570.6L536.51 565.82L544.85 570.6L536.5 575.42L528.15 570.6Z" fill="#F5EDFF" stroke="#5100CD" stroke-linecap="round" stroke-linejoin="round"/>
<path d="M538.73 576.81V585.16L547.08 580.34V571.99L538.73 576.81Z" fill="#F5EDFF" stroke="#5100CD" stroke-linecap="round" stroke-linejoin="round"/>
<path d="M555.45 576.81V585.16L547.1 580.34V571.99L555.45 576.81Z" fill="#F5EDFF" stroke="#5100CD" stroke-linecap="round" stroke-linejoin="round"/>
<path d="M547.09 589.95V581.59L538.74 576.77V585.13L547.09 589.95Z" fill="#F5EDFF" stroke="#5100CD" stroke-linecap="round" stroke-linejoin="round"/>
<path d="M547.09 589.95V581.59L555.44 576.77V585.13L547.09 589.95Z" fill="#F5EDFF" stroke="#5100CD" stroke-linecap="round" stroke-linejoin="round"/>
<path d="M538.74 576.77L547.1 571.99L555.44 576.77L547.09 581.59L538.74 576.77Z" fill="#F5EDFF" stroke="#5100CD" stroke-linecap="round" stroke-linejoin="round"/>
<path d="M506.98 570.64V578.99L515.33 574.17V565.82L506.98 570.64Z" fill="#F5EDFF" stroke="#5100CD" stroke-linecap="round" stroke-linejoin="round"/>
<path d="M523.69 570.64V578.99L515.34 574.17V565.82L523.69 570.64Z" fill="#F5EDFF" stroke="#5100CD" stroke-linecap="round" stroke-linejoin="round"/>
<path d="M515.34 583.78V575.42L506.99 570.6V578.96L515.34 583.78Z" fill="#F5EDFF" stroke="#5100CD" stroke-linecap="round" stroke-linejoin="round"/>
<path d="M515.34 583.78V575.42L523.69 570.6V578.96L515.34 583.78Z" fill="#F5EDFF" stroke="#5100CD" stroke-linecap="round" stroke-linejoin="round"/>
<path d="M506.99 570.6L515.35 565.82L523.69 570.6L515.34 575.42L506.99 570.6Z" fill="#F5EDFF" stroke="#5100CD" stroke-linecap="round" stroke-linejoin="round"/>
<path d="M517.56 576.81V585.16L525.91 580.34V571.99L517.56 576.81Z" fill="#F5EDFF" stroke="#5100CD" stroke-linecap="round" stroke-linejoin="round"/>
<path d="M534.28 576.81V585.16L525.93 580.34V571.99L534.28 576.81Z" fill="#F5EDFF" stroke="#5100CD" stroke-linecap="round" stroke-linejoin="round"/>
<path d="M525.92 589.95V581.59L517.57 576.77V585.13L525.92 589.95Z" fill="#F5EDFF" stroke="#5100CD" stroke-linecap="round" stroke-linejoin="round"/>
<path d="M525.92 589.95V581.59L534.27 576.77V585.13L525.92 589.95Z" fill="#F5EDFF" stroke="#5100CD" stroke-linecap="round" stroke-linejoin="round"/>
<path d="M517.57 576.77L525.93 571.99L534.27 576.77L525.92 581.59L517.57 576.77Z" fill="#F5EDFF" stroke="#5100CD" stroke-linecap="round" stroke-linejoin="round"/>
<path d="M528.15 582.98V591.33L536.5 586.51V578.16L528.15 582.98Z" fill="#F5EDFF" stroke="#5100CD" stroke-linecap="round" stroke-linejoin="round"/>
<path d="M544.86 582.98V591.33L536.51 586.51V578.16L544.86 582.98Z" fill="#F5EDFF" stroke="#5100CD" stroke-linecap="round" stroke-linejoin="round"/>
<path d="M536.51 596.119V587.759L528.16 582.939V591.299L536.51 596.119Z" fill="#F5EDFF" stroke="#5100CD" stroke-linecap="round" stroke-linejoin="round"/>
<path d="M536.51 596.119V587.759L544.86 582.939V591.299L536.51 596.119Z" fill="#F5EDFF" stroke="#5100CD" stroke-linecap="round" stroke-linejoin="round"/>
<path d="M528.15 582.94L536.51 578.16L544.85 582.94L536.5 587.76L528.15 582.94Z" fill="#F5EDFF" stroke="#5100CD" stroke-linecap="round" stroke-linejoin="round"/>
<path d="M496.39 576.81V585.16L504.74 580.34V571.99L496.39 576.81Z" fill="#F5EDFF" stroke="#5100CD" stroke-linecap="round" stroke-linejoin="round"/>
<path d="M513.11 576.81V585.16L504.76 580.34V571.99L513.11 576.81Z" fill="#F5EDFF" stroke="#5100CD" stroke-linecap="round" stroke-linejoin="round"/>
<path d="M504.75 589.95V581.59L496.4 576.77V585.13L504.75 589.95Z" fill="#F5EDFF" stroke="#5100CD" stroke-linecap="round" stroke-linejoin="round"/>
<path d="M504.75 589.95V581.59L513.1 576.77V585.13L504.75 589.95Z" fill="#F5EDFF" stroke="#5100CD" stroke-linecap="round" stroke-linejoin="round"/>
<path d="M496.4 576.77L504.76 571.99L513.1 576.77L504.75 581.59L496.4 576.77Z" fill="#F5EDFF" stroke="#5100CD" stroke-linecap="round" stroke-linejoin="round"/>
<path d="M506.98 582.98V591.33L515.33 586.51V578.16L506.98 582.98Z" fill="#F5EDFF" stroke="#5100CD" stroke-linecap="round" stroke-linejoin="round"/>
<path d="M523.69 582.98V591.33L515.34 586.51V578.16L523.69 582.98Z" fill="#F5EDFF" stroke="#5100CD" stroke-linecap="round" stroke-linejoin="round"/>
<path d="M515.34 596.119V587.759L506.99 582.939V591.299L515.34 596.119Z" fill="#F5EDFF" stroke="#5100CD" stroke-linecap="round" stroke-linejoin="round"/>
<path d="M515.34 596.119V587.759L523.69 582.939V591.299L515.34 596.119Z" fill="#F5EDFF" stroke="#5100CD" stroke-linecap="round" stroke-linejoin="round"/>
<path d="M506.99 582.94L515.35 578.16L523.69 582.94L515.34 587.76L506.99 582.94Z" fill="#F5EDFF" stroke="#5100CD" stroke-linecap="round" stroke-linejoin="round"/>
<path d="M517.56 589.15V597.5L525.91 592.68V584.33L517.56 589.15Z" fill="#F5EDFF" stroke="#5100CD" stroke-linecap="round" stroke-linejoin="round"/>
<path d="M534.28 589.15V597.5L525.93 592.68V584.33L534.28 589.15Z" fill="#F5EDFF" stroke="#5100CD" stroke-linecap="round" stroke-linejoin="round"/>
<path d="M525.92 602.29V593.93L517.57 589.11V597.47L525.92 602.29Z" fill="#F5EDFF" stroke="#5100CD" stroke-linecap="round" stroke-linejoin="round"/>
<path d="M525.92 602.29V593.93L534.27 589.11V597.47L525.92 602.29Z" fill="#F5EDFF" stroke="#5100CD" stroke-linecap="round" stroke-linejoin="round"/>
<path d="M517.57 589.12L525.93 584.34L534.27 589.12L525.92 593.94L517.57 589.12Z" fill="#F5EDFF" stroke="#5100CD" stroke-linecap="round" stroke-linejoin="round"/>
<path d="M485.77 582.98V591.33L494.12 586.51V578.16L485.77 582.98Z" fill="#F5EDFF" stroke="#5100CD" stroke-linecap="round" stroke-linejoin="round"/>
<path d="M502.49 582.98V591.33L494.14 586.51V578.16L502.49 582.98Z" fill="#F5EDFF" stroke="#5100CD" stroke-linecap="round" stroke-linejoin="round"/>
<path d="M494.13 596.119V587.759L485.78 582.939V591.299L494.13 596.119Z" fill="#F5EDFF" stroke="#5100CD" stroke-linecap="round" stroke-linejoin="round"/>
<path d="M494.13 596.119V587.759L502.48 582.939V591.299L494.13 596.119Z" fill="#F5EDFF" stroke="#5100CD" stroke-linecap="round" stroke-linejoin="round"/>
<path d="M485.78 582.94L494.14 578.16L502.48 582.94L494.13 587.76L485.78 582.94Z" fill="#F5EDFF" stroke="#5100CD" stroke-linecap="round" stroke-linejoin="round"/>
<path d="M496.36 589.15V597.5L504.71 592.68V584.33L496.36 589.15Z" fill="#F5EDFF" stroke="#5100CD" stroke-linecap="round" stroke-linejoin="round"/>
<path d="M513.07 589.15V597.5L504.72 592.68V584.33L513.07 589.15Z" fill="#F5EDFF" stroke="#5100CD" stroke-linecap="round" stroke-linejoin="round"/>
<path d="M504.71 602.29V593.93L496.36 589.11V597.47L504.71 602.29Z" fill="#F5EDFF" stroke="#5100CD" stroke-linecap="round" stroke-linejoin="round"/>
<path d="M504.71 602.29V593.93L513.06 589.11V597.47L504.71 602.29Z" fill="#F5EDFF" stroke="#5100CD" stroke-linecap="round" stroke-linejoin="round"/>
<path d="M496.36 589.12L504.72 584.34L513.06 589.12L504.71 593.94L496.36 589.12Z" fill="#F5EDFF" stroke="#5100CD" stroke-linecap="round" stroke-linejoin="round"/>
<path d="M506.94 595.33V603.68L515.29 598.86V590.51L506.94 595.33Z" fill="#F5EDFF" stroke="#5100CD" stroke-linecap="round" stroke-linejoin="round"/>
<path d="M523.66 595.33V603.68L515.31 598.86V590.51L523.66 595.33Z" fill="#F5EDFF" stroke="#5100CD" stroke-linecap="round" stroke-linejoin="round"/>
<path d="M515.3 608.47V600.11L506.95 595.29V603.65L515.3 608.47Z" fill="#F5EDFF" stroke="#5100CD" stroke-linecap="round" stroke-linejoin="round"/>
<path d="M515.3 608.47V600.11L523.65 595.29V603.65L515.3 608.47Z" fill="#F5EDFF" stroke="#5100CD" stroke-linecap="round" stroke-linejoin="round"/>
<path d="M506.95 595.29L515.31 590.51L523.65 595.29L515.3 600.11L506.95 595.29Z" fill="#F5EDFF" stroke="#5100CD" stroke-linecap="round" stroke-linejoin="round"/>
<path d="M557.68 578.16V586.51L566.03 591.33V582.98L557.68 578.16Z" fill="#F5EDFF" stroke="#5100CD" stroke-linecap="round" stroke-linejoin="round"/>
<path d="M557.67 578.16V586.51L549.32 591.33V582.98L557.67 578.16Z" fill="#F5EDFF" stroke="#5100CD" stroke-linecap="round" stroke-linejoin="round"/>
<path d="M566.03 591.299V582.939L557.68 587.759V596.119L566.03 591.299Z" fill="#DBC8F6" stroke="#5100CD" stroke-linecap="round" stroke-linejoin="round"/>
<path d="M549.32 591.299V582.939L557.67 587.759V596.119L549.32 591.299Z" fill="#F5EDFF" stroke="#5100CD" stroke-linecap="round" stroke-linejoin="round"/>
<path d="M557.67 587.77L549.32 582.95L557.66 578.17L566.02 582.95L557.67 587.77Z" fill="#F5EDFF" stroke="#5100CD" stroke-linecap="round" stroke-linejoin="round"/>
<path d="M547.1 584.33V592.68L555.45 597.5V589.15L547.1 584.33Z" fill="#F5EDFF" stroke="#5100CD" stroke-linecap="round" stroke-linejoin="round"/>
<path d="M547.08 584.33V592.68L538.73 597.5V589.15L547.08 584.33Z" fill="#F5EDFF" stroke="#5100CD" stroke-linecap="round" stroke-linejoin="round"/>
<path d="M555.44 597.47V589.11L547.09 593.93V602.29L555.44 597.47Z" fill="#DBC8F6" stroke="#5100CD" stroke-linecap="round" stroke-linejoin="round"/>
<path d="M538.74 597.47V589.11L547.09 593.93V602.29L538.74 597.47Z" fill="#F5EDFF" stroke="#5100CD" stroke-linecap="round" stroke-linejoin="round"/>
<path d="M547.09 593.94L538.74 589.12L547.08 584.34L555.44 589.12L547.09 593.94Z" fill="#F5EDFF" stroke="#5100CD" stroke-linecap="round" stroke-linejoin="round"/>
<path d="M536.51 590.5V598.85L544.86 603.67V595.32L536.51 590.5Z" fill="#F5EDFF" stroke="#5100CD" stroke-linecap="round" stroke-linejoin="round"/>
<path d="M536.5 590.5V598.85L528.15 603.67V595.32L536.5 590.5Z" fill="#F5EDFF" stroke="#5100CD" stroke-linecap="round" stroke-linejoin="round"/>
<path d="M544.86 603.64V595.28L536.51 600.1V608.46L544.86 603.64Z" fill="#DBC8F6" stroke="#5100CD" stroke-linecap="round" stroke-linejoin="round"/>
<path d="M528.15 603.64V595.28L536.5 600.1V608.46L528.15 603.64Z" fill="#F5EDFF" stroke="#5100CD" stroke-linecap="round" stroke-linejoin="round"/>
<path d="M536.51 600.11L528.16 595.29L536.5 590.51L544.86 595.29L536.51 600.11Z" fill="#F5EDFF" stroke="#5100CD" stroke-linecap="round" stroke-linejoin="round"/>
<path d="M517.53 601.5V609.85L525.88 605.03V596.68L517.53 601.5Z" fill="#F5EDFF" stroke="#5100CD" stroke-linecap="round" stroke-linejoin="round"/>
<path d="M534.24 601.5V609.85L525.89 605.03V596.68L534.24 601.5Z" fill="#F5EDFF" stroke="#5100CD" stroke-linecap="round" stroke-linejoin="round"/>
<path d="M525.88 614.64V606.28L517.53 601.46V609.82L525.88 614.64Z" fill="#F5EDFF" stroke="#5100CD" stroke-linecap="round" stroke-linejoin="round"/>
<path d="M525.88 614.64V606.28L534.23 601.46V609.82L525.88 614.64Z" fill="#DBC8F6" stroke="#5100CD" stroke-linecap="round" stroke-linejoin="round"/>
<path d="M517.53 601.46L525.89 596.68L534.23 601.46L525.88 606.28L517.53 601.46Z" fill="#F5EDFF" stroke="#5100CD" stroke-linecap="round" stroke-linejoin="round"/>
<path d="M525.88 586.83L556.08 569.28L525.88 551.32L495.68 569.28L525.88 586.83Z" fill="#F5EDFF" stroke="#5100CD" stroke-linecap="round" stroke-linejoin="round"/>
<path d="M513.37 569.16L515.97 570.67C519.23 568.73 525.87 564.78 525.87 564.78V561.72L513.37 569.16Z" fill="#DBC8F6" stroke="#5100CD" stroke-linecap="round" stroke-linejoin="round"/>
<path d="M525.88 561.729V564.789L535.78 570.669L538.38 569.159L525.88 561.729Z" fill="#F5EDFF" stroke="#5100CD" stroke-linecap="round" stroke-linejoin="round"/>
<path d="M535.78 570.67L525.88 564.78C525.88 564.78 519.24 568.73 515.98 570.67L525.88 576.42L535.78 570.67Z" fill="#F5EDFF" stroke="#5100CD" stroke-linecap="round" stroke-linejoin="round"/>
<path d="M525.88 599.86V586.83L556.08 569.28V582.51L525.88 599.86Z" fill="#DBC8F6" stroke="#5100CD" stroke-linecap="round" stroke-linejoin="round"/>
<path d="M495.68 581.9V569.28L525.88 586.83V599.86L495.68 581.9Z" fill="#F5EDFF" stroke="#5100CD" stroke-linecap="round" stroke-linejoin="round"/>
</svg>
