<svg width="37" height="37" viewBox="0 0 37 37" fill="none" xmlns="http://www.w3.org/2000/svg">
<path d="M33.2943 18.3308V14.3276H30.0723C28.3983 13.5068 26.3391 13.0892 24.2691 13.0856C22.1847 13.0856 20.1075 13.4996 18.4191 14.3276H15.2043V18.6404H15.2187C15.3411 19.8824 16.2159 21.1028 17.8503 22.0532C21.3819 24.1052 27.1095 24.1052 30.6411 22.0532C32.2755 21.1028 33.1431 19.8824 33.2655 18.6404H33.2907V18.3272L33.2943 18.3308Z" fill="#DBC8F6" stroke="#5100CD" stroke-linecap="round" stroke-linejoin="round"/>
<path d="M22.372 17.222V13.2188H19.15C17.476 12.398 15.4168 11.9804 13.3468 11.9768C11.2624 11.9768 9.18518 12.3908 7.49678 13.2188H4.28198V17.5316H4.29638C4.41878 18.7736 5.29358 19.994 6.92798 20.9444C10.4596 22.9964 16.1872 22.9964 19.7188 20.9444C21.3532 19.994 22.2208 18.7736 22.3432 17.5316H22.3684V17.2184L22.372 17.222Z" fill="#DBC8F6" stroke="#5100CD" stroke-linecap="round" stroke-linejoin="round"/>
<path d="M24.2475 23.594V19.5908H21.0255C19.3515 18.77 17.2923 18.3524 15.2223 18.3488C13.1379 18.3488 11.0607 18.7628 9.37227 19.5908H6.15747V23.9036H6.17187C6.29427 25.1456 7.16907 26.366 8.80347 27.3164C12.3351 29.3684 18.0627 29.3684 21.5943 27.3164C23.2287 26.366 24.0963 25.1456 24.2187 23.9036H24.2439V23.5904L24.2475 23.594Z" fill="#DBC8F6" stroke="#5100CD" stroke-linecap="round" stroke-linejoin="round"/>
<path d="M15.2259 14.5148C15.2223 13.1648 16.1043 11.8184 17.8755 10.7888C18.5271 10.4108 19.2543 10.1012 20.0283 9.86359C19.9311 9.80239 19.8303 9.74119 19.7259 9.67999C16.1943 7.62799 10.4667 7.62799 6.93508 9.67999C3.40348 11.732 3.40348 15.0584 6.93508 17.1104C7.03588 17.168 7.13668 17.2256 7.24108 17.2796C7.64788 16.8404 8.16988 16.4264 8.81068 16.0556C10.5819 15.026 12.9039 14.5148 15.2259 14.5184V14.5148Z" fill="#F5EDFF" stroke="#5100CD" stroke-linecap="round" stroke-linejoin="round"/>
<path d="M20.0247 9.86358C22.6491 11.5412 23.0739 13.9676 21.2919 15.8828C21.3963 15.9368 21.4971 15.9944 21.5979 16.052C23.3583 17.0744 24.2403 18.4136 24.2475 19.7564C26.5695 19.7564 28.8915 19.2452 30.6627 18.2192C34.1943 16.1672 34.1943 12.8408 30.6627 10.7888C27.7827 9.11478 23.4411 8.80878 20.0247 9.86358Z" fill="#F5EDFF" stroke="#5100CD" stroke-linecap="round" stroke-linejoin="round"/>
<path d="M15.2258 14.5148C17.4002 14.5148 19.5746 14.9756 21.2954 15.8828C23.0738 13.964 22.6526 11.5376 20.0282 9.86359C19.2542 10.1012 18.527 10.4108 17.8754 10.7888C16.1042 11.8184 15.2222 13.1684 15.2258 14.5148Z" fill="#F5EDFF" stroke="#5100CD" stroke-linecap="round" stroke-linejoin="round"/>
<path d="M17.573 18.0356C14.2718 19.0544 10.1174 18.8024 7.24104 17.2796C5.39424 19.2704 5.91624 21.8048 8.81064 23.486C12.3422 25.538 18.0698 25.538 21.6014 23.486C23.3726 22.4564 24.2546 21.1064 24.251 19.76C21.9434 19.76 19.6358 19.2452 17.8754 18.2228C17.771 18.1616 17.6702 18.1004 17.573 18.0392V18.0356Z" fill="#F5EDFF" stroke="#5100CD" stroke-linecap="round" stroke-linejoin="round"/>
<path d="M17.573 18.0356C16.0142 17.0384 15.2294 15.7784 15.2258 14.5184C12.9038 14.5184 10.5818 15.0296 8.81057 16.0556C8.16977 16.4264 7.64777 16.8404 7.24097 17.2796C10.1174 18.8024 14.2718 19.0544 17.573 18.0356Z" fill="#F5EDFF" stroke="#5100CD" stroke-linecap="round" stroke-linejoin="round"/>
<path d="M21.292 15.8828C20.8852 16.322 20.3632 16.736 19.7224 17.1068C19.0816 17.4776 18.3436 17.7944 17.5696 18.032C17.6668 18.0932 17.7676 18.1544 17.872 18.2156C19.6324 19.238 21.94 19.7528 24.2476 19.7528C24.244 18.4136 23.3584 17.0744 21.598 16.0484C21.4972 15.9908 21.3964 15.9332 21.292 15.8792V15.8828Z" fill="#F5EDFF" stroke="#5100CD" stroke-linecap="round" stroke-linejoin="round"/>
<path d="M17.573 18.0356C18.347 17.798 19.0742 17.4884 19.7258 17.1104C20.3774 16.7324 20.8886 16.3256 21.2954 15.8864C19.5782 14.9756 17.4038 14.522 15.2258 14.5184C15.2294 15.7784 16.0142 17.042 17.573 18.0356Z" fill="#DBC8F6" stroke="#5100CD" stroke-linecap="round" stroke-linejoin="round"/>
<path d="M17.573 18.0356C18.347 17.798 19.0742 17.4884 19.7258 17.1104C20.3774 16.7324 20.8886 16.3256 21.2954 15.8864C19.5782 14.9756 17.4038 14.522 15.2258 14.5184C15.2294 15.7784 16.0142 17.042 17.573 18.0356Z" fill="#DBC8F6" stroke="#5100CD" stroke-linecap="round" stroke-linejoin="round"/>
</svg>
