<svg width="37" height="37" viewBox="0 0 37 37" fill="none" xmlns="http://www.w3.org/2000/svg">
<path d="M18.7501 30.6572C26.7348 30.6572 33.2077 26.8985 33.2077 22.262C33.2077 17.6254 26.7348 13.8668 18.7501 13.8668C10.7654 13.8668 4.29248 17.6254 4.29248 22.262C4.29248 26.8985 10.7654 30.6572 18.7501 30.6572Z" fill="#F5EDFF" stroke="#5100CD" stroke-linecap="round" stroke-linejoin="round"/>
<path d="M18.75 25.9556C22.7662 25.9556 26.022 24.065 26.022 21.7328C26.022 19.4006 22.7662 17.51 18.75 17.51C14.7338 17.51 11.478 19.4006 11.478 21.7328C11.478 24.065 14.7338 25.9556 18.75 25.9556Z" fill="#DBC8F6" stroke="#5100CD" stroke-linecap="round" stroke-linejoin="round"/>
<path d="M18.75 25.9556C22.7662 25.9556 26.022 24.065 26.022 21.7328C26.022 19.4006 22.7662 17.51 18.75 17.51C14.7338 17.51 11.478 19.4006 11.478 21.7328C11.478 24.065 14.7338 25.9556 18.75 25.9556Z" fill="#F5EDFF" stroke="#5100CD" stroke-linecap="round" stroke-linejoin="round"/>
<path d="M26.022 21.7328L23.9196 9.3344L29.1432 9.32L23.9592 6.3428H18.7572L13.5948 9.3344L11.478 21.7328" fill="#F5EDFF"/>
<path d="M26.022 21.7328L23.9196 9.3344L29.1432 9.32L23.9592 6.3428H18.7572L13.5948 9.3344L11.478 21.7328" stroke="#5100CD" stroke-linecap="round" stroke-linejoin="round"/>
<path d="M18.75 25.3976V12.2828L23.394 9.53961L25.4712 21.8228C25.4712 21.8228 25.4208 25.2716 18.75 25.3976Z" fill="#DBC8F6"/>
<path d="M11.8525 19.5836C11.7445 20.6852 12.4177 21.8084 13.8649 22.6508C16.5613 24.2168 20.9389 24.2168 23.6353 22.6508C25.1545 21.7688 25.8169 20.5808 25.6261 19.4288L25.2589 17.2436C25.3381 18.2696 24.7045 19.3064 23.3581 20.0876C20.8129 21.5672 16.6873 21.5672 14.1421 20.0876C12.8137 19.3136 12.1765 18.2912 12.2377 17.2796L11.8489 19.5836" fill="#F5EDFF"/>
<path d="M11.8525 19.5836C11.7445 20.6852 12.4177 21.8084 13.8649 22.6508C16.5613 24.2168 20.9389 24.2168 23.6353 22.6508C25.1545 21.7688 25.8169 20.5808 25.6261 19.4288L25.2589 17.2436C25.3381 18.2696 24.7045 19.3064 23.3581 20.0876C20.8129 21.5672 16.6873 21.5672 14.1421 20.0876C12.8137 19.3136 12.1765 18.2912 12.2377 17.2796L11.8489 19.5836" stroke="#5100CD" stroke-linecap="round" stroke-linejoin="round"/>
<path d="M15.6901 24.1412L11.8057 21.8876V18.0032L15.6901 20.2604V24.1412Z" fill="#F5EDFF" stroke="#5100CD" stroke-linecap="round" stroke-linejoin="round"/>
</svg>
