<svg width="37" height="37" viewBox="0 0 37 37" fill="none" xmlns="http://www.w3.org/2000/svg">
<path d="M19.1065 33.1844L29.6293 27.1076L19.1137 21.0812L8.58374 27.1076L19.1065 33.1844Z" fill="#DBC8F6" stroke="#5100CD" stroke-linecap="round" stroke-linejoin="round"/>
<path d="M13.8685 24.1088L8.58374 27.1076V14.0756L13.8685 24.1088Z" fill="#DBC8F6" stroke="#5100CD" stroke-linecap="round" stroke-linejoin="round"/>
<path d="M13.8685 30.1604V24.1088L8.58374 14.0756L13.8685 30.1604Z" fill="#DBC8F6" stroke="#5100CD" stroke-linecap="round" stroke-linejoin="round"/>
<path d="M24.3696 24.0944L29.6292 14.0756V27.1076L24.3696 24.0944Z" fill="#DBC8F6" stroke="#5100CD" stroke-linecap="round" stroke-linejoin="round"/>
<path d="M24.3481 30.1604L24.3697 24.0944L29.6293 14.0756L24.3481 30.1604Z" fill="#F5EDFF" stroke="#5100CD" stroke-linecap="round" stroke-linejoin="round"/>
<path d="M13.8687 24.1088L19.1139 8.04919V21.0812L13.8687 24.1088Z" fill="#DBC8F6" stroke="#5100CD" stroke-linecap="round" stroke-linejoin="round"/>
<path d="M24.3698 24.0944L19.1138 21.0812V8.04919L24.3698 24.0944Z" fill="#DBC8F6" stroke="#5100CD" stroke-linecap="round" stroke-linejoin="round"/>
<path d="M13.8687 24.1088L24.3699 24.0944L19.1139 8.04919L13.8687 24.1088Z" fill="#DBC8F6" stroke="#5100CD" stroke-linecap="round" stroke-linejoin="round"/>
<path d="M19.1067 20.1524V33.1844L13.8687 30.1604L19.1067 20.1524Z" fill="#F5EDFF" stroke="#5100CD" stroke-linecap="round" stroke-linejoin="round"/>
<path d="M19.1064 33.1844L24.348 30.1604L19.1064 20.1524V33.1844Z" fill="#DBC8F6" stroke="#5100CD" stroke-linecap="round" stroke-linejoin="round"/>
<path d="M8.58374 27.1076L13.8685 30.1604L8.58374 14.0756V27.1076Z" fill="#F5EDFF" stroke="#5100CD" stroke-linecap="round" stroke-linejoin="round"/>
<path d="M29.6293 27.1076V14.0756L24.3481 30.1604L29.6293 27.1076Z" fill="#DBC8F6" stroke="#5100CD" stroke-linecap="round" stroke-linejoin="round"/>
<path d="M19.1065 16.9088V19.3748L16.9609 20.8004V18.1436L19.1065 16.9052V16.9088Z" fill="#DBC8F6" stroke="#5100CD" stroke-linecap="round" stroke-linejoin="round"/>
<path d="M19.1101 16.9088V19.3748L21.2557 20.8004V18.1436L19.1101 16.9052V16.9088Z" fill="#DBC8F6" stroke="#5100CD" stroke-linecap="round" stroke-linejoin="round"/>
<path d="M16.9609 20.7932V18.1364L19.1065 19.3748V22.0316L16.9609 20.7932Z" fill="#F5EDFF" stroke="#5100CD" stroke-linecap="round" stroke-linejoin="round"/>
<path d="M21.252 20.7932V18.1364L19.1064 19.3748V22.0316L21.252 20.7932Z" fill="#DBC8F6" stroke="#5100CD" stroke-linecap="round" stroke-linejoin="round"/>
<path d="M19.1066 19.3748L21.2522 18.1364L19.1102 16.9088L16.9646 18.1364L19.1102 19.3748H19.1066Z" fill="#DBC8F6" stroke="#5100CD" stroke-linecap="round" stroke-linejoin="round"/>
<path d="M29.4061 10.9544V13.4204L27.2605 14.846V12.1892L29.4061 10.9508V10.9544Z" fill="#DBC8F6" stroke="#5100CD" stroke-linecap="round" stroke-linejoin="round"/>
<path d="M29.4097 10.9544V13.4204L31.5553 14.846V12.1892L29.4097 10.9508V10.9544Z" fill="#DBC8F6" stroke="#5100CD" stroke-linecap="round" stroke-linejoin="round"/>
<path d="M27.2642 14.8388V12.182L29.4098 13.4204V16.0772L27.2642 14.8388Z" fill="#F5EDFF" stroke="#5100CD" stroke-linecap="round" stroke-linejoin="round"/>
<path d="M31.5553 14.8388V12.182L29.4097 13.4204V16.0772L31.5553 14.8388Z" fill="#DBC8F6" stroke="#5100CD" stroke-linecap="round" stroke-linejoin="round"/>
<path d="M29.4098 13.4204L31.5554 12.182L29.4134 10.9544L27.2678 12.182L29.4134 13.4204H29.4098Z" fill="#DBC8F6" stroke="#5100CD" stroke-linecap="round" stroke-linejoin="round"/>
<path d="M8.71323 10.9544V13.4204L6.56763 14.846V12.1892L8.71323 10.9508V10.9544Z" fill="#DBC8F6" stroke="#5100CD" stroke-linecap="round" stroke-linejoin="round"/>
<path d="M8.7168 10.9544V13.4204L10.8624 14.846V12.1892L8.7168 10.9508V10.9544Z" fill="#DBC8F6" stroke="#5100CD" stroke-linecap="round" stroke-linejoin="round"/>
<path d="M6.57129 14.8388V12.182L8.71689 13.4204V16.0772L6.57129 14.8388Z" fill="#F5EDFF" stroke="#5100CD" stroke-linecap="round" stroke-linejoin="round"/>
<path d="M10.8624 14.8388V12.182L8.7168 13.4204V16.0772L10.8624 14.8388Z" fill="#DBC8F6" stroke="#5100CD" stroke-linecap="round" stroke-linejoin="round"/>
<path d="M8.71671 13.4204L10.8623 12.182L8.72031 10.9544L6.57471 12.182L8.72031 13.4204H8.71671Z" fill="#DBC8F6" stroke="#5100CD" stroke-linecap="round" stroke-linejoin="round"/>
<path d="M19.0165 5.0036V7.4696L16.8708 8.8952V6.2384L19.0165 5V5.0036Z" fill="#DBC8F6" stroke="#5100CD" stroke-linecap="round" stroke-linejoin="round"/>
<path d="M19.02 5.0036V7.4696L21.1656 8.8952V6.2384L19.02 5V5.0036Z" fill="#DBC8F6" stroke="#5100CD" stroke-linecap="round" stroke-linejoin="round"/>
<path d="M16.8745 8.888V6.2312L19.0201 7.4696V10.1264L16.8745 8.888Z" fill="#F5EDFF" stroke="#5100CD" stroke-linecap="round" stroke-linejoin="round"/>
<path d="M21.162 8.888V6.2312L19.0164 7.4696V10.1264L21.162 8.888Z" fill="#DBC8F6" stroke="#5100CD" stroke-linecap="round" stroke-linejoin="round"/>
<path d="M19.0165 7.4696L21.1621 6.2312L19.0201 5.0036L16.8745 6.2312L19.0201 7.4696H19.0165Z" fill="#DBC8F6" stroke="#5100CD" stroke-linecap="round" stroke-linejoin="round"/>
</svg>
