<svg width="37" height="37" viewBox="0 0 37 37" fill="none" xmlns="http://www.w3.org/2000/svg">
<path d="M32.5492 22.0352L31.354 21.3404L32.5492 20.6312L33.7444 21.3404L32.5492 22.0352Z" fill="#F5EDFF" stroke="#5100CD" stroke-linecap="round" stroke-linejoin="round"/>
<path d="M29.3561 23.8892L28.1609 23.1944L29.3561 22.4816L30.5513 23.1944L29.3561 23.8892Z" fill="#F5EDFF" stroke="#5100CD" stroke-linecap="round" stroke-linejoin="round"/>
<path d="M26.1591 25.7396L24.9639 25.0448L26.1591 24.3356L27.3543 25.0448L26.1591 25.7396Z" fill="#F5EDFF" stroke="#5100CD" stroke-linecap="round" stroke-linejoin="round"/>
<path d="M22.9623 27.59L21.7671 26.8952L22.9623 26.1824L24.1575 26.8952L22.9623 27.59Z" fill="#F5EDFF" stroke="#5100CD" stroke-linecap="round" stroke-linejoin="round"/>
<path d="M3.95082 22.0352L5.14602 21.3404L3.95082 20.6312L2.75562 21.3404L3.95082 22.0352Z" fill="#F5EDFF" stroke="#5100CD" stroke-linecap="round" stroke-linejoin="round"/>
<path d="M7.14393 23.8892L8.33913 23.1944L7.14393 22.4816L5.94873 23.1944L7.14393 23.8892Z" fill="#F5EDFF" stroke="#5100CD" stroke-linecap="round" stroke-linejoin="round"/>
<path d="M10.3407 25.7396L11.5359 25.0448L10.3407 24.3356L9.14551 25.0448L10.3407 25.7396Z" fill="#F5EDFF" stroke="#5100CD" stroke-linecap="round" stroke-linejoin="round"/>
<path d="M13.5375 27.59L14.7327 26.8952L13.5375 26.1824L12.3423 26.8952L13.5375 27.59Z" fill="#F5EDFF" stroke="#5100CD" stroke-linecap="round" stroke-linejoin="round"/>
<path d="M18.25 27.4928L34.7092 17.9276L18.25 8.13922L1.79077 17.9276L18.2536 27.4928H18.25Z" fill="#F5EDFF" stroke="#5100CD" stroke-linecap="round" stroke-linejoin="round"/>
<path d="M34.7092 17.9276V19.2956L18.25 28.8608V27.4928L34.7092 17.9276Z" fill="#DBC8F6" stroke="#5100CD" stroke-linecap="round" stroke-linejoin="round"/>
<path d="M1.79077 17.9276V19.2956L18.2536 28.8608V27.4928L1.79077 17.9276Z" fill="#F5EDFF" stroke="#5100CD" stroke-linecap="round" stroke-linejoin="round"/>
<path d="M33.3772 17.816L18.25 26.6036L3.1228 17.816L18.25 9.02844L33.3772 17.816Z" fill="#F5EDFF"/>
<path d="M12.2091 21.9632L11.2983 21.434L12.4467 18.3632L13.6455 19.0616L12.8175 21.0596L12.8499 21.0776L16.2915 20.5952L17.4903 21.2936L12.2019 21.9632H12.2091Z" fill="#5100CD"/>
<path d="M16.6516 15.2204L17.8108 14.5472L20.8384 21.1496L19.69 21.8192L16.6552 15.2204H16.6516Z" fill="#5100CD"/>
<path d="M22.8507 16.7936L23.6787 14.7956L23.6463 14.7776L20.2047 15.2564L19.0059 14.558L24.2943 13.8884L25.2051 14.4176L24.0567 17.4884L22.8579 16.79L22.8507 16.7936Z" fill="#5100CD"/>
</svg>
