<svg width="104" height="81" viewBox="0 0 104 81" fill="none" xmlns="http://www.w3.org/2000/svg">
  <path
    d="M75.9716 25.5316C75.4894 -0.502224 40.9383 -10.1444 27.6 14.1218C28.2428 14.6038 29.0463 15.2467 29.5284 15.5681C28.5642 17.6572 27.7607 19.907 27.4393 21.9962C27.2786 23.4425 27.1179 24.8889 27.1179 26.4959C27.1179 39.9949 38.0457 50.9227 51.5447 50.9227C65.0437 50.9227 75.9716 39.9949 75.9716 26.4959C75.9716 26.1744 75.9716 25.853 75.9716 25.5316ZM33.2246 29.8706C32.9032 32.4419 33.0639 33.4061 33.0639 33.7275L32.4211 33.8882C32.2604 33.4061 31.6175 31.9598 31.4568 29.8706C30.814 21.9962 36.1173 14.9253 44.3131 13.6396C51.8661 12.5147 58.937 17.1751 60.7048 23.7639L60.0619 23.9246C59.9013 23.7639 59.5799 23.2818 58.4549 21.9962C49.4556 12.8361 35.153 17.0144 33.2246 29.8706ZM56.3658 34.2096C55.0802 35.9773 53.1517 37.1022 50.9019 37.1022C47.2057 37.1022 44.1523 34.0489 44.1523 30.3527C44.1523 26.8173 46.8843 23.9246 50.4198 23.7639C52.5089 23.6032 54.598 24.8889 55.5623 26.6565C56.5265 28.7457 56.2051 31.1562 54.598 32.9239C55.2409 33.4061 55.8837 33.8882 56.3658 34.2096ZM70.3469 34.531C66.8115 42.5661 59.5799 46.7444 51.8661 46.5837C36.9208 45.7802 32.5818 28.7457 42.5453 22.4783L43.0274 22.9604C42.8668 23.1211 42.2239 23.6032 41.4204 25.5316C40.2955 27.7815 39.9741 29.8706 40.1348 31.317C40.9383 43.3696 57.6514 45.7802 63.4367 33.8882C70.6683 17.4965 51.2233 0.944104 33.8674 13.6396L33.546 13.1575C38.0457 6.0866 46.8843 2.87254 55.4016 4.96168C68.4185 8.33643 75.4894 21.8355 70.3469 34.531Z"
    fill="#777682" />
  <path
    d="M16.2163 60.921V72.1701C16.2163 76.6698 13.4842 80.0446 8.50239 80.0446C3.5207 80.0446 0.788757 76.6698 0.788757 72.1701V60.921H4.80603V71.8487C4.80603 74.5806 6.09209 76.1877 8.50239 76.1877C10.9133 76.1877 12.1988 74.5806 12.1988 71.8487V60.921H16.2163ZM31.483 74.42C31.483 77.634 28.9115 80.0446 24.7333 80.0446H18.1448V61.0816H24.4121C28.1085 61.0816 30.5188 62.8494 30.5188 65.5813C30.5188 67.6705 29.5545 68.956 28.1085 69.5989C30.0369 70.4024 31.483 71.8487 31.483 74.42ZM22.323 64.7778V68.7954H24.4121C25.6975 68.7954 26.5012 67.9919 26.5012 66.867C26.5012 65.742 25.6975 64.9385 24.4121 64.9385L22.323 64.7778ZM24.5727 76.3484C26.3406 76.3484 27.3048 75.5449 27.3048 73.9379C27.3048 72.3308 26.3406 71.5273 24.5727 71.5273H22.323V76.1877L24.5727 76.3484ZM33.0903 61.0816H37.1078V79.8839H33.0903V61.0816ZM46.9103 68.7954C50.1248 69.9203 51.7315 71.3666 51.7315 74.2593C51.7315 78.1161 48.6782 80.366 45.143 80.366C41.9285 80.366 39.3575 78.9196 38.3933 76.1877L41.6072 73.7771C42.2503 75.5449 43.6963 76.5091 45.3036 76.5091C46.5891 76.5091 47.5533 75.7056 47.5533 74.5807C47.5533 73.4557 46.7497 72.813 44.1788 71.8487C41.286 70.7238 39.0357 69.2775 39.0357 66.2241C39.0357 63.1708 41.6072 60.921 45.143 60.921C48.0351 60.921 50.2854 62.0459 51.2497 64.2957L48.0351 66.5455C47.3927 65.0992 46.4285 64.2957 44.9818 64.2957C43.6963 64.2957 42.8927 64.9385 42.8927 65.9027C43.0533 67.0276 44.1788 67.8311 46.9103 68.7954ZM72.1406 70.5631C72.1406 76.027 68.123 80.2053 62.4988 80.2053C56.7133 80.2053 52.8563 76.027 52.8563 71.2059C52.8563 67.9919 54.1424 65.5813 55.9097 64.135L55.2672 63.4922C56.7133 62.0459 59.2848 60.921 62.3382 60.921C68.123 60.7602 72.1406 65.0992 72.1406 70.5631ZM67.9624 70.5631C67.9624 67.1883 65.8733 64.7778 62.4988 64.7778C60.5703 64.7778 59.1236 65.5813 58.3206 66.3848L58.963 67.0276C57.9988 67.8311 57.0345 68.956 57.0345 71.0452C57.0345 73.9379 59.1236 76.3484 62.4988 76.3484C65.8733 76.3484 67.9624 73.9379 67.9624 70.5631ZM77.926 65.0992V69.4382H85.9612V72.4915H77.926V79.8839H73.7479V61.0816H86.6042V64.9385H77.926V65.0992ZM102.996 65.0992H97.6927V80.0446H93.6751V65.0992H88.2109V61.0816H102.835V65.0992H102.996Z"
    fill="#777682" />
</svg>