<svg width="185" height="25" viewBox="0 0 185 25" fill="none" xmlns="http://www.w3.org/2000/svg">
  <path
    d="M0.523073 0.545872L0.0555649 1.00169L0.090628 6.57672L0.125691 12.1518L0.558136 12.5491L1.00227 12.9465H8.97328C13.3678 12.9465 17.0261 12.9933 17.1079 13.04C17.2131 13.1218 17.2482 13.6127 17.2248 15.1204L17.1897 17.0956H12.3393H7.48894L7.45387 16.0087L7.41881 14.9334H6.78768H6.14485V16.1606C6.14485 17.5281 6.26173 17.9021 6.81105 18.2761C7.11493 18.4865 7.41881 18.4982 12.2809 18.4982C18.0079 18.4982 17.8092 18.5215 18.3001 17.7034C18.5104 17.3645 18.5338 17.1073 18.5338 15.1321V12.9348L19.3286 12.9699L20.1116 13.005L20.1467 16.5346L20.1701 20.076H12.3393H4.50858V18.3229V16.5697H3.80731H3.10605V18.3813C3.10605 20.45 3.21124 20.8708 3.83069 21.2448C4.2047 21.4668 4.40339 21.4785 12.3393 21.4785C20.1818 21.4785 20.474 21.4668 20.8363 21.2448C21.5025 20.8474 21.5142 20.8123 21.5726 16.745L21.631 13.005H22.3907H23.1504L23.2089 18.0073C23.2556 21.5603 23.2323 23.0447 23.1388 23.1265C23.0686 23.1849 18.5806 23.22 12.2692 23.1966L1.52821 23.1732L1.49315 20.7422L1.46978 18.3229H0.768514H0.0672526V20.9643V23.6057L0.523073 24.0615L0.978893 24.5173H12.2341C23.3258 24.5173 23.5128 24.5173 23.8868 24.2836C24.5997 23.8394 24.6114 23.781 24.6114 18.0891C24.6114 12.3972 24.5997 12.3388 23.8868 11.8946C23.5128 11.6726 23.3141 11.6609 15.6002 11.6609C9.00834 11.6609 7.67594 11.6375 7.55906 11.4972C7.46556 11.3921 7.4305 10.7375 7.45387 9.42852L7.48894 7.51174H12.2809H17.0728L17.1313 8.56363L17.1897 9.61552H17.8325H18.4754L18.5104 8.44675C18.5338 7.4533 18.4987 7.21955 18.3117 6.90398C17.7975 6.08584 18.0079 6.10921 12.2809 6.10921C7.4305 6.10921 7.11493 6.1209 6.81105 6.33128C6.25004 6.71697 6.20329 6.90398 6.14485 9.32333L6.08641 11.6024H5.32671H4.56701L4.53195 8.06106L4.50858 4.53138H12.3393H20.1701V6.28453V8.03768H20.8713H21.5726V6.16765C21.5726 4.06387 21.4908 3.75999 20.8363 3.36261C20.474 3.14054 20.1935 3.12885 12.3393 3.12885C4.40339 3.12885 4.2047 3.14054 3.83069 3.36261C3.14112 3.78336 3.10605 4.00543 3.10605 8.03768V11.6726L2.32298 11.6375L1.52821 11.6024V6.51828V1.43414H12.3393H23.1504L23.1855 3.85349L23.2089 6.28453H23.9218H24.6231L24.588 3.58467L24.553 0.884815L24.1205 0.487432L23.6764 0.0900517H12.3276H0.978893L0.523073 0.545872Z"
    fill="#777682" />
  <path
    d="M46.8999 4.58985C46.3038 4.80023 45.9298 5.16255 45.696 5.75862C45.5441 6.16769 45.5207 6.69364 45.5558 9.05455L45.5908 11.8596L45.9181 12.3388C46.0934 12.6076 46.444 12.9349 46.7012 13.0634C47.1336 13.2855 47.3791 13.2972 51.3178 13.2972H55.4669V15.5763V17.8554L51.5282 17.832L47.5777 17.7969L47.5427 16.7684L47.5076 15.7516H46.3973H45.2753L45.322 17.2476C45.3571 18.6969 45.3688 18.767 45.696 19.1995C45.883 19.4332 46.257 19.7371 46.5375 19.8657C47.0167 20.076 47.3206 20.0877 51.5749 20.0527L56.1098 20.0176L56.6591 19.702C57.0331 19.48 57.2668 19.2228 57.4422 18.8722C57.6642 18.4047 57.6876 18.171 57.6876 15.623V12.8764L57.372 12.2336C57.1149 11.7427 56.9279 11.544 56.5188 11.3337C56.0163 11.0765 55.9228 11.0765 51.8788 11.0765H47.7531V8.85586V6.6352H51.61H55.4553L55.4903 7.65203L55.5254 8.68054L56.6708 8.71561L57.8279 8.75067L57.7811 7.28971C57.746 5.8755 57.7344 5.82875 57.3837 5.38461C57.1967 5.13917 56.7993 4.82361 56.5188 4.67167C56.0046 4.41454 55.9344 4.41454 51.6684 4.41454C48.3141 4.42622 47.2388 4.46129 46.8999 4.58985Z"
    fill="#777682" />
  <path
    d="M69.3753 4.47292C69.3753 4.4963 70.7427 6.63515 72.4141 9.22981L75.4529 13.9283V17.0606V20.1929H76.6217H77.7904V17.0021L77.8021 13.8231L80.8292 9.148L83.8563 4.47292L82.6058 4.43786C81.9279 4.42617 81.3084 4.42617 81.25 4.44955C81.1799 4.48461 80.128 6.1092 78.9008 8.07273C77.6852 10.048 76.645 11.6492 76.61 11.6609C76.5632 11.6609 75.5113 10.0246 74.2724 8.03767L72.005 4.41448H70.696C69.9714 4.41448 69.3753 4.43786 69.3753 4.47292Z"
    fill="#777682" />
  <path
    d="M95.4388 12.3037V20.1929H96.6076H97.7764L97.7998 14.127L97.8348 8.06107L102.51 14.1036L107.185 20.1345L108.389 20.1695L109.581 20.2046V12.3037V4.41451H108.412H107.243L107.22 10.4921L107.185 16.5814L102.475 10.4921L97.753 4.41451H96.5959H95.4388V12.3037Z"
    fill="#777682" />
  <path
    d="M127.381 4.61331C127.346 4.73019 126.587 6.69372 125.71 8.97282C124.822 11.2519 123.489 14.6998 122.741 16.6399C121.993 18.5684 121.385 20.193 121.385 20.2398C121.385 20.2865 121.9 20.2982 122.519 20.2865L123.653 20.2514L124.342 18.4048L125.044 16.5698H128.632H132.208L132.91 18.4048L133.599 20.2514L134.745 20.2865C135.364 20.2982 135.878 20.2865 135.878 20.2514C135.878 20.2164 130.21 5.50158 129.836 4.55487C129.789 4.46137 129.438 4.41462 128.62 4.41462C127.615 4.41462 127.44 4.438 127.381 4.61331ZM129.953 10.761C130.642 12.5726 131.203 14.092 131.203 14.1388C131.203 14.1972 130.011 14.2323 128.562 14.2323C126.096 14.2323 125.92 14.2206 125.99 14.0219C126.505 12.6428 128.585 7.45342 128.632 7.45342C128.667 7.45342 129.251 8.93776 129.953 10.761Z"
    fill="#777682" />
  <path
    d="M147.683 12.3622V20.3098H148.852H150.02V17.3411V14.3608L153.912 14.3257C157.711 14.2907 157.804 14.279 158.4 14.0101C159.184 13.6595 159.745 13.0401 160.025 12.2336C160.341 11.3454 160.352 7.72217 160.048 6.7404C159.78 5.89889 159.102 5.11581 158.295 4.75349C157.676 4.47299 157.664 4.47299 152.685 4.43792L147.683 4.40286V12.3622ZM157.15 6.84559C157.372 6.95078 157.617 7.17284 157.699 7.33647C157.921 7.76892 157.91 10.983 157.676 11.4155C157.372 12.0232 157.056 12.07 153.351 12.07H149.962L149.927 9.34676L149.903 6.63521H153.316C156.343 6.63521 156.788 6.65859 157.15 6.84559Z"
    fill="#777682" />
  <path
    d="M173.606 4.7652C173.185 4.98727 172.811 5.41971 172.648 5.86384C172.543 6.15604 172.543 11.6609 172.648 11.9648C172.811 12.4323 173.326 12.9817 173.793 13.192C174.226 13.3907 174.623 13.4141 178.34 13.4141H182.395V15.6348V17.8554H178.421H174.448V16.862V15.8685H173.279H172.11V16.9438C172.122 18.6736 172.332 19.2463 173.162 19.819L173.559 20.0878L178.41 20.0527L183.272 20.0176L183.704 19.7255C183.938 19.5618 184.242 19.2463 184.382 19.0125C184.604 18.6151 184.616 18.3931 184.616 15.6932V12.8063L184.312 12.2336C184.078 11.8246 183.856 11.6025 183.506 11.4272C183.05 11.2051 182.793 11.1934 178.912 11.1934H174.798V8.91433V6.63523H178.597H182.395V7.68713V8.73902H183.564H184.733V7.47675C184.733 6.12097 184.558 5.5249 184.02 5.03402C183.494 4.55482 183.248 4.53145 178.562 4.53145C174.319 4.54314 174.015 4.55482 173.606 4.7652Z"
    fill="#777682" />
</svg>