<svg width="144" height="26" viewBox="0 0 144 26" fill="none" xmlns="http://www.w3.org/2000/svg">
  <path
    d="M23.9926 6.99758C22.8864 5.11236 21.305 3.54653 19.412 2.46368C19.3575 2.43252 19.2951 2.44031 19.2484 2.47147C18.2123 3.1726 16.8568 4.61379 16.257 7.53514C16.1635 8.02589 16.2024 8.54004 16.3816 9.00748C16.3816 9.00748 16.3816 9.00748 16.3816 9.01527C16.5764 9.53721 16.6387 10.0981 16.5686 10.6434C16.4985 11.1887 16.2881 11.7185 15.9609 12.1703C15.7506 12.4585 15.6026 12.7935 15.5325 13.1441C15.4624 13.4946 15.4779 13.8608 15.5636 14.2036L16.6776 18.4726C16.7166 18.6284 16.7867 18.7686 16.8879 18.8854C16.9893 19.0101 17.1061 19.1036 17.2463 19.1737C17.3865 19.2438 17.5423 19.2828 17.6981 19.2906C17.854 19.2983 18.0098 19.275 18.1578 19.2127L20.8298 18.1454H20.8376C20.97 18.0909 21.1103 18.0909 21.2427 18.1454C21.3752 18.1921 21.4842 18.2856 21.5465 18.4103L22.8475 20.9031C22.8709 20.9499 22.9176 20.981 22.9721 20.9888C22.9799 20.9888 22.9799 20.9888 22.9877 20.9888C23.0344 20.9888 23.0812 20.9655 23.1123 20.9265C24.795 18.753 25.7221 16.0421 25.7221 13.2921C25.7065 11.0875 25.1145 8.90618 23.9926 6.99758ZM23.8758 14.7333L22.2944 16.2913L22.232 16.3537C22.232 16.3537 22.2243 16.3614 22.2165 16.3614L22.0217 16.5484C22.0061 16.564 21.9828 16.5873 21.9594 16.6107L21.4063 17.156C20.8999 17.6546 20.4559 17.9273 20.1599 18.0753L19.7859 18.2233L18.0487 18.9166C18.0487 18.9166 18.0487 18.9166 18.0409 18.9166C17.9397 18.9556 17.7449 18.979 17.6358 18.9712C17.5891 18.9712 17.5345 18.9634 17.4956 18.94C17.3632 18.8699 17.2385 18.7842 17.1373 18.6829C17.0671 18.5894 17.0905 18.457 17.1918 18.4025L23.7511 14.5385C23.8524 14.484 23.9693 14.6398 23.8758 14.7333Z"
    fill="#777682" />
  <path
    d="M5.21808 18.1532C5.35051 18.1065 5.49073 18.1065 5.62315 18.161L8.29523 19.2282C8.29523 19.2282 8.29523 19.2282 8.30301 19.2282C8.45102 19.2906 8.60682 19.3139 8.76262 19.3061C8.91842 19.2983 9.07422 19.2594 9.21445 19.1893C9.35467 19.1192 9.47933 19.0179 9.5728 18.9011C9.6741 18.7764 9.74422 18.6362 9.78314 18.4882L10.9049 14.2114C10.9907 13.8686 11.0062 13.5024 10.9361 13.1519C10.866 12.8013 10.7258 12.4663 10.5154 12.1781C10.1883 11.7263 9.97791 11.2043 9.9078 10.6512C9.83769 10.0981 9.90002 9.53721 10.0947 9.01527C10.2739 8.54783 10.3207 8.03367 10.2194 7.53514C9.61956 4.62158 8.26404 3.1726 7.22794 2.47147C7.18123 2.44031 7.1189 2.43252 7.06436 2.46368C5.16355 3.54653 3.58213 5.11236 2.47592 6.98979C1.35413 8.8984 0.762073 11.0875 0.762073 13.2999C0.754282 16.0498 1.68132 18.7608 3.3718 20.9343C3.40296 20.9732 3.4497 20.9966 3.49644 20.9966C3.50423 20.9966 3.50423 20.9966 3.51202 20.9966C3.56655 20.9888 3.61329 20.9577 3.63666 20.9109L4.93763 18.4103C4.98437 18.2934 5.09343 18.1999 5.21808 18.1532Z"
    fill="#777682" />
  <path
    d="M10.4922 4.29443C10.9441 5.18251 11.2713 6.12512 11.4816 7.09893C11.4894 7.14564 11.5205 7.18461 11.5673 7.20797C11.6141 7.23132 11.6608 7.23132 11.7075 7.20797C12.1749 6.96648 12.7046 6.84183 13.2344 6.84183C13.7641 6.84183 14.2861 6.96648 14.7613 7.20797C14.7847 7.21575 14.808 7.22354 14.8314 7.22354C14.8548 7.22354 14.8781 7.21575 14.9015 7.20797C14.9482 7.18461 14.9794 7.14564 14.9872 7.09893C15.1975 6.12512 15.5247 5.18251 15.9766 4.29443C16.4284 3.39855 17.036 2.60395 17.7839 1.93399C17.8228 1.89504 17.8462 1.84051 17.8306 1.78598C17.815 1.73145 17.7839 1.6847 17.7371 1.66912C14.8392 0.555116 11.6452 0.555116 8.74721 1.66912C8.7005 1.6847 8.66153 1.73145 8.65374 1.78598C8.64596 1.84051 8.66153 1.89504 8.7005 1.93399C9.43278 2.60395 10.0404 3.39855 10.4922 4.29443ZM17.371 1.87946C16.6777 2.54163 16.1168 3.30507 15.6883 4.16199C15.2598 5.01113 14.9327 5.91477 14.7145 6.84961C14.2471 6.64706 13.7408 6.53801 13.2266 6.53801C12.7203 6.53801 12.2061 6.64706 11.7387 6.84961C11.5205 5.92261 11.1934 5.01892 10.7649 4.16199C10.3364 3.30507 9.76773 2.54163 9.08221 1.87946C11.7621 0.905676 14.6912 0.905676 17.371 1.87946Z"
    fill="#777682" />
  <path
    d="M21.9905 22.1029C21.9905 22.0951 21.9905 22.0951 21.9905 22.0873C21.9905 22.0795 21.9905 22.0795 21.9827 22.0717C21.9827 22.0639 21.9749 22.0639 21.9749 22.0561V22.0484L20.7363 19.7736C20.6973 19.7035 20.6117 19.6723 20.5415 19.7035L18.6485 20.4591C18.6485 20.4591 18.6485 20.4591 18.6407 20.4591C18.4537 20.537 18.259 20.5916 18.0565 20.6149L18.0019 20.6227C17.8305 20.6461 17.6591 20.6461 17.4878 20.6227C17.48 20.6227 17.48 20.6227 17.4722 20.6227H8.97306C8.96527 20.6227 8.96527 20.6227 8.95749 20.6227C8.78607 20.6383 8.6147 20.6383 8.44334 20.6227L8.38879 20.6149C8.18623 20.5916 7.99146 20.537 7.79674 20.4591C7.79674 20.4591 7.79674 20.4591 7.78895 20.4591L5.89592 19.7035C5.82581 19.6723 5.74012 19.7035 5.70115 19.7736L4.46251 22.0484V22.0561C4.46251 22.0639 4.45472 22.0639 4.45472 22.0717C4.45472 22.0795 4.45472 22.0795 4.44693 22.0873C4.44693 22.0951 4.44693 22.0951 4.44693 22.1029C4.44693 22.1106 4.44693 22.1106 4.44693 22.1184C4.44693 22.1263 4.44693 22.1263 4.44693 22.134C4.44693 22.1418 4.44693 22.1418 4.44693 22.1496C4.44693 22.1574 4.44693 22.1574 4.44693 22.1652C4.44693 22.173 4.44693 22.173 4.45472 22.1807C4.45472 22.1885 4.45472 22.1885 4.46251 22.1964C4.46251 22.2042 4.4703 22.2042 4.4703 22.2119C4.4703 22.2197 4.47809 22.2197 4.47809 22.2197C4.47809 22.2275 4.48588 22.2275 4.48588 22.2353C4.48588 22.2353 4.48588 22.2431 4.49367 22.2431C5.63104 23.3571 6.95537 24.2296 8.42772 24.845C9.95461 25.476 11.5594 25.7954 13.2109 25.7954C14.8624 25.7954 16.4672 25.476 17.9941 24.845C19.4665 24.2374 20.7908 23.3571 21.9282 22.2431C21.9282 22.2431 21.9282 22.2353 21.936 22.2353C21.9438 22.2275 21.9438 22.2275 21.9438 22.2197L21.9516 22.2119C21.9516 22.2042 21.9593 22.2042 21.9593 22.1964C21.9593 22.1885 21.9593 22.1885 21.9671 22.1807C21.9671 22.173 21.9671 22.173 21.9749 22.1652C21.9749 22.1574 21.9749 22.1574 21.9749 22.1496C21.9749 22.1418 21.9749 22.1418 21.9749 22.134C21.9749 22.1263 21.9749 22.1263 21.9749 22.1184C21.9905 22.1106 21.9905 22.1029 21.9905 22.1029ZM17.885 24.549C16.3971 25.1644 14.8313 25.476 13.2265 25.476C11.6217 25.476 10.0481 25.1644 8.56795 24.549C7.16571 23.9647 5.90371 23.1389 4.81307 22.0951L5.92706 20.054L7.68765 20.7629C7.68765 20.7629 7.68765 20.7629 7.69544 20.7629C7.90578 20.8486 8.13169 20.911 8.3576 20.9343L8.41215 20.9421C8.59913 20.9655 8.79386 20.9655 8.98084 20.9421H17.4644C17.6513 20.9655 17.8461 20.9655 18.0331 20.9421L18.0876 20.9343H18.0954C18.3213 20.9032 18.5394 20.8486 18.7576 20.7629L20.5259 20.054L21.64 22.0951C20.5493 23.1389 19.2873 23.9647 17.885 24.549Z"
    fill="#777682" />
  <path
    d="M53.2934 25.465L49.548 1.11841H46.0102L42.265 25.465H44.9348L45.492 21.4074H49.9657L50.5572 25.465H53.2934ZM47.7097 5.45347L49.6173 18.9099H45.8372L47.7097 5.45347Z"
    fill="#777682" />
  <path
    d="M72.5955 25.465H76.0641V1.18774H73.4276V18.7018L69.4055 1.18774H65.5869V25.465H68.2225V6.45949L72.5955 25.465Z"
    fill="#777682" />
  <path d="M91.9112 1.18774H89.1361V25.465H91.9112V1.18774Z" fill="#777682" />
  <path
    d="M115.536 1.18774L112.449 20.332L109.363 1.18774H104.993V25.465H107.628V5.38409L110.958 25.465H113.802L117.131 5.38409V25.465H119.834V1.18774H115.536Z"
    fill="#777682" />
  <path
    d="M143.174 25.465L139.428 1.11841H135.891L132.146 25.465H134.817L135.371 21.4074H139.846L140.435 25.465H143.174ZM137.59 5.45347L139.497 18.9099H135.717L137.59 5.45347Z"
    fill="#777682" />
</svg>