<svg width="157" height="31" viewBox="0 0 157 31" fill="none" xmlns="http://www.w3.org/2000/svg">
  <path opacity="0.45"
    d="M15.0933 14.0945L21.1206 8.09017C21.3442 7.86814 21.5217 7.60402 21.6427 7.31306C21.7637 7.0221 21.8259 6.71005 21.8257 6.39492L21.8365 1.53205C21.8356 1.28275 21.7389 1.04335 21.5664 0.863403L10.0008 12.3952C9.77733 12.6181 9.60001 12.883 9.47903 13.1746C9.35805 13.4662 9.29578 13.7788 9.29578 14.0945C9.29578 14.4102 9.35805 14.7228 9.47903 15.0144C9.60001 15.3059 9.77733 15.5708 10.0008 15.7938L18.1569 23.9215C18.3791 24.1479 18.644 24.3279 18.9363 24.4512C19.2285 24.5745 19.5423 24.6386 19.8595 24.6398C20.1766 24.6411 20.4909 24.5794 20.7841 24.4584C21.0773 24.3374 21.3436 24.1594 21.5676 23.9348C21.7915 23.7102 21.9687 23.4435 22.0889 23.1499C22.2091 22.8564 22.2699 22.542 22.2678 22.2248C22.2657 21.9076 22.2007 21.594 22.0766 21.3021C21.9525 21.0102 21.7717 20.7458 21.5447 20.5243L15.0933 14.0945Z"
    fill="#777682" />
  <path opacity="0.7"
    d="M20.8923 0.596003H2.7403C1.25443 0.596003 0.173787 1.70501 0.173787 3.2206V22.1723C0.169612 22.4944 0.229966 22.814 0.35129 23.1123C0.472614 23.4107 0.652451 23.6817 0.880196 23.9095C1.10794 24.1372 1.37898 24.3171 1.67734 24.4384C1.9757 24.5597 2.29533 24.6201 2.61738 24.6159C2.93974 24.6212 3.25987 24.5616 3.55873 24.4407C3.8576 24.3198 4.12909 24.14 4.35706 23.912C4.58503 23.684 4.76483 23.4125 4.88576 23.1137C5.00668 22.8148 5.06627 22.4947 5.06097 22.1723V5.27247H17.1479L21.5664 0.866163C21.4779 0.778256 21.3726 0.709041 21.2568 0.662631C21.141 0.616221 21.0171 0.593563 20.8923 0.596003Z"
    fill="#777682" />
  <path
    d="M37.8611 15.5682V23.6608H34.114V2.09937H43.8897C48.9998 2.09937 51.5987 4.52135 51.5987 8.27251C51.5987 11.3793 49.3537 13.6487 45.9875 14.2687C46.9614 14.4159 47.73 14.6523 48.35 15.0657C49.59 15.864 50.2411 17.3107 50.949 19.7935L52.0715 23.6622H48.0839L47.0803 19.8529C46.1644 16.3408 45.308 15.5695 41.5568 15.5695L37.8611 15.5682ZM37.8611 5.34939V12.8517H42.8226C46.0712 12.8517 47.8732 11.3739 47.8732 8.98168C47.8732 6.68533 46.4265 5.34939 42.9711 5.34939H37.8611Z"
    fill="#777682" />
  <path
    d="M61.8175 23.9567C56.1171 23.9567 53.194 20.3244 53.194 15.4804C53.194 10.7837 56.4129 6.79614 61.704 6.79614C67.1072 6.79614 69.6494 10.6648 69.6494 15.0954V16.4003H56.7965C57.0924 19.2073 58.7755 20.8904 61.7594 20.8904C63.9207 20.8904 65.1553 20.0042 66.1306 18.2914L69.2374 19.9745C67.8137 22.3033 65.5092 23.9567 61.8175 23.9567ZM56.856 14.0959H66.0117C65.8645 11.6442 64.565 9.84219 61.6702 9.84219C58.9227 9.83814 57.2693 11.4334 56.856 14.0918V14.0959Z"
    fill="#777682" />
  <path
    d="M79.2725 6.91504C81.9605 6.91504 83.7625 8.09564 84.7959 10.4582V7.12171H88.4579V30.0434H84.7337V20.2353C83.6409 22.5681 81.6269 23.8676 78.9739 23.8676C75.0458 23.8676 71.8566 21.0619 71.8566 15.4805C71.8593 9.78143 75.4916 6.91504 79.2725 6.91504ZM85.062 15.3616C85.062 12.2021 83.6139 9.8976 80.3342 9.8976C77.2625 9.8976 75.6388 12.1129 75.6388 15.421C75.6388 18.7588 77.1747 20.8242 80.3342 20.8242C83.6139 20.8256 85.062 18.5224 85.062 15.3616Z"
    fill="#777682" />
  <path
    d="M107.302 23.6608H103.61V19.7624C102.487 22.568 100.449 23.9863 97.9365 23.9863C93.9489 23.9863 92.0281 21.3279 92.0281 17.2809V7.12158H95.7212V16.2773C95.7212 19.0829 96.6951 20.8849 99.4723 20.8849C102.012 20.8849 103.577 18.6993 103.577 15.2439V7.12158H107.299L107.302 23.6608Z"
    fill="#777682" />
  <path
    d="M118.82 23.9567C113.119 23.9567 110.195 20.3244 110.195 15.4804C110.195 10.7837 113.415 6.79614 118.705 6.79614C124.108 6.79614 126.65 10.6648 126.65 15.0954V16.4003H113.799C114.093 19.2073 115.778 20.8904 118.76 20.8904C120.922 20.8904 122.158 20.0042 123.132 18.2914L126.238 19.9745C124.816 22.3033 122.512 23.9567 118.82 23.9567ZM113.857 14.0959H123.014C122.865 11.6442 121.566 9.84219 118.673 9.84219C115.925 9.83814 114.272 11.4334 113.857 14.0918V14.0959Z"
    fill="#777682" />
  <path
    d="M130.958 18.1968C132.317 19.9691 133.97 20.9146 136.392 20.9146C138.667 20.9146 139.611 19.8218 139.611 18.6696C139.611 16.9865 137.012 16.8676 134.059 16.3665C131.135 15.9234 128.89 14.9144 128.89 11.9426C128.89 9.04787 131.312 6.74341 135.476 6.74341C138.844 6.74341 141.207 7.7484 143.215 10.1109L140.379 12.5329C139.109 10.731 137.542 9.84484 135.268 9.84484C132.995 9.84484 132.137 10.8796 132.137 11.9723C132.137 13.4488 134.088 13.7149 136.834 14.1336C139.965 14.6064 142.888 15.3493 142.888 18.6818C142.888 21.7886 140.408 24.0282 136.302 24.0282C132.552 24.0282 129.894 22.7868 128.269 20.7498L130.958 18.1968Z"
    fill="#777682" />
  <path
    d="M156.211 23.2772C155.325 23.7202 154.409 23.9526 153.14 23.9526C149.536 23.9526 148.059 22.0331 148.059 18.3697V10.1934H144.277V7.12164H148.086V2.93416L151.544 0.866089V7.12164H156.211V10.1934H151.544V17.9307C151.544 19.9988 152.401 20.7674 154.026 20.7674C154.882 20.7674 155.413 20.6202 156.211 20.296V23.2772Z"
    fill="#777682" />
</svg>