<svg width="155" height="40" viewBox="0 0 155 40" fill="none" xmlns="http://www.w3.org/2000/svg">
<path d="M12.4831 30.41C9.74978 30.41 7.48111 30.0273 5.67711 29.262C3.87311 28.4693 2.50644 27.4443 1.57711 26.187C0.647776 24.9297 0.155776 23.5903 0.101109 22.169C0.101109 21.9503 0.183109 21.759 0.347109 21.595C0.538443 21.4037 0.757109 21.308 1.00311 21.308H6.16911C6.55178 21.308 6.83878 21.3763 7.03011 21.513C7.24878 21.6497 7.44011 21.8273 7.60411 22.046C7.82278 22.456 8.12344 22.8523 8.50611 23.235C8.91611 23.6177 9.44911 23.932 10.1051 24.178C10.7611 24.3967 11.5538 24.506 12.4831 24.506C14.0684 24.506 15.2574 24.26 16.0501 23.768C16.8701 23.276 17.2801 22.6063 17.2801 21.759C17.2801 21.1303 17.0614 20.6247 16.6241 20.242C16.1868 19.8593 15.4761 19.5177 14.4921 19.217C13.5354 18.889 12.2508 18.561 10.6381 18.233C8.56078 17.7957 6.78411 17.2353 5.30811 16.552C3.85944 15.8413 2.75244 14.9257 1.98711 13.805C1.22178 12.657 0.839109 11.2357 0.839109 9.541C0.839109 7.87367 1.30378 6.384 2.23311 5.072C3.18978 3.76 4.51544 2.735 6.21011 1.997C7.90478 1.259 9.91378 0.889998 12.2371 0.889998C14.1231 0.889998 15.7768 1.136 17.1981 1.628C18.6468 2.12 19.8631 2.776 20.8471 3.596C21.8311 4.416 22.5691 5.29067 23.0611 6.22C23.5804 7.122 23.8538 8.01033 23.8811 8.885C23.8811 9.10367 23.7991 9.30867 23.6351 9.5C23.4984 9.664 23.2934 9.746 23.0201 9.746H17.6081C17.3074 9.746 17.0478 9.69133 16.8291 9.582C16.6104 9.47267 16.4191 9.295 16.2551 9.049C16.0911 8.44766 15.6538 7.92833 14.9431 7.491C14.2598 7.02633 13.3578 6.794 12.2371 6.794C11.0344 6.794 10.0914 7.01267 9.40811 7.45C8.75211 7.86 8.42411 8.50233 8.42411 9.377C8.42411 9.92367 8.60178 10.402 8.95711 10.812C9.33978 11.222 9.95478 11.5773 10.8021 11.878C11.6768 12.1787 12.8658 12.493 14.3691 12.821C16.8564 13.2857 18.8654 13.8733 20.3961 14.584C21.9268 15.2673 23.0474 16.1693 23.7581 17.29C24.4961 18.3833 24.8651 19.7637 24.8651 21.431C24.8651 23.2897 24.3321 24.8887 23.2661 26.228C22.2001 27.5673 20.7378 28.606 18.8791 29.344C17.0478 30.0547 14.9158 30.41 12.4831 30.41ZM39.4236 30C37.6743 30 36.1573 29.7267 34.8726 29.18C33.6153 28.606 32.645 27.7313 31.9616 26.556C31.2783 25.3533 30.9366 23.809 30.9366 21.923V14.051H27.7386C27.438 14.051 27.1783 13.9553 26.9596 13.764C26.7683 13.5727 26.6726 13.3267 26.6726 13.026V9.705C26.6726 9.40433 26.7683 9.15833 26.9596 8.967C27.1783 8.77567 27.438 8.68 27.7386 8.68H30.9366V1.915C30.9366 1.61433 31.0323 1.36833 31.2236 1.177C31.4423 0.985666 31.6883 0.889998 31.9616 0.889998H36.7176C37.0183 0.889998 37.2643 0.985666 37.4556 1.177C37.647 1.36833 37.7426 1.61433 37.7426 1.915V8.68H42.8676C43.1683 8.68 43.4143 8.77567 43.6056 8.967C43.8243 9.15833 43.9336 9.40433 43.9336 9.705V13.026C43.9336 13.3267 43.8243 13.5727 43.6056 13.764C43.4143 13.9553 43.1683 14.051 42.8676 14.051H37.7426V21.349C37.7426 22.2783 37.9203 23.0163 38.2756 23.563C38.631 24.1097 39.2323 24.383 40.0796 24.383H43.2366C43.5373 24.383 43.7833 24.4787 43.9746 24.67C44.166 24.8613 44.2616 25.1073 44.2616 25.408V28.975C44.2616 29.2483 44.166 29.4943 43.9746 29.713C43.7833 29.9043 43.5373 30 43.2366 30H39.4236ZM48.6813 30C48.3806 30 48.1346 29.9043 47.9433 29.713C47.752 29.4943 47.6563 29.2483 47.6563 28.975V9.705C47.6563 9.43167 47.752 9.19933 47.9433 9.008C48.1346 8.78933 48.3806 8.68 48.6813 8.68H53.3963C53.697 8.68 53.943 8.78933 54.1343 9.008C54.353 9.19933 54.4623 9.43167 54.4623 9.705V11.345C55.173 10.4977 56.034 9.84167 57.0453 9.377C58.084 8.91233 59.2456 8.68 60.5303 8.68H62.3343C62.635 8.68 62.881 8.77567 63.0723 8.967C63.2636 9.15833 63.3593 9.40433 63.3593 9.705V13.928C63.3593 14.2013 63.2636 14.4473 63.0723 14.666C62.881 14.8573 62.635 14.953 62.3343 14.953H58.3573C57.2366 14.953 56.362 15.2673 55.7333 15.896C55.132 16.4973 54.8313 17.3583 54.8313 18.479V28.975C54.8313 29.2483 54.722 29.4943 54.5033 29.713C54.312 29.9043 54.066 30 53.7653 30H48.6813ZM72.3101 30.41C70.8341 30.41 69.5085 30.1367 68.3331 29.59C67.1851 29.016 66.2695 28.2507 65.5861 27.294C64.9028 26.3373 64.5611 25.2577 64.5611 24.055C64.5611 22.1143 65.3538 20.5837 66.9391 19.463C68.5245 18.315 70.6291 17.536 73.2531 17.126L78.3781 16.347V15.773C78.3781 14.789 78.1731 14.0373 77.7631 13.518C77.3531 12.9987 76.6015 12.739 75.5081 12.739C74.7428 12.739 74.1141 12.8893 73.6221 13.19C73.1575 13.4907 72.7885 13.9007 72.5151 14.42C72.2691 14.7753 71.9275 14.953 71.4901 14.953H66.8981C66.5975 14.953 66.3651 14.871 66.2011 14.707C66.0371 14.5157 65.9688 14.297 65.9961 14.051C65.9961 13.559 66.1738 12.9987 66.5291 12.37C66.9118 11.714 67.4858 11.0717 68.2511 10.443C69.0165 9.81433 70.0005 9.295 71.2031 8.885C72.4058 8.475 73.8681 8.27 75.5901 8.27C77.3395 8.27 78.8428 8.475 80.1001 8.885C81.3575 9.295 82.3825 9.869 83.1751 10.607C83.9678 11.345 84.5418 12.2197 84.8971 13.231C85.2798 14.215 85.4711 15.3083 85.4711 16.511V28.975C85.4711 29.2483 85.3618 29.4943 85.1431 29.713C84.9518 29.9043 84.7195 30 84.4461 30H79.6901C79.3895 30 79.1435 29.9043 78.9521 29.713C78.7608 29.4943 78.6651 29.2483 78.6651 28.975V27.54C78.3098 28.0593 77.8315 28.5377 77.2301 28.975C76.6288 29.4123 75.9181 29.754 75.0981 30C74.3055 30.2733 73.3761 30.41 72.3101 30.41ZM74.2371 25.736C75.0298 25.736 75.7405 25.572 76.3691 25.244C77.0251 24.8887 77.5308 24.3557 77.8861 23.645C78.2688 22.907 78.4601 21.9913 78.4601 20.898V20.324L74.9751 20.939C73.6905 21.1577 72.7475 21.4993 72.1461 21.964C71.5721 22.4013 71.2851 22.9207 71.2851 23.522C71.2851 23.9867 71.4218 24.383 71.6951 24.711C71.9685 25.039 72.3238 25.2987 72.7611 25.49C73.2258 25.654 73.7178 25.736 74.2371 25.736ZM100.844 30C99.0942 30 97.5772 29.7267 96.2926 29.18C95.0352 28.606 94.0649 27.7313 93.3816 26.556C92.6982 25.3533 92.3566 23.809 92.3566 21.923V14.051H89.1586C88.8579 14.051 88.5982 13.9553 88.3796 13.764C88.1882 13.5727 88.0926 13.3267 88.0926 13.026V9.705C88.0926 9.40433 88.1882 9.15833 88.3796 8.967C88.5982 8.77567 88.8579 8.68 89.1586 8.68H92.3566V1.915C92.3566 1.61433 92.4522 1.36833 92.6436 1.177C92.8622 0.985666 93.1082 0.889998 93.3816 0.889998H98.1376C98.4382 0.889998 98.6842 0.985666 98.8756 1.177C99.0669 1.36833 99.1626 1.61433 99.1626 1.915V8.68H104.288C104.588 8.68 104.834 8.77567 105.026 8.967C105.244 9.15833 105.354 9.40433 105.354 9.705V13.026C105.354 13.3267 105.244 13.5727 105.026 13.764C104.834 13.9553 104.588 14.051 104.288 14.051H99.1626V21.349C99.1626 22.2783 99.3402 23.0163 99.6956 23.563C100.051 24.1097 100.652 24.383 101.5 24.383H104.657C104.957 24.383 105.203 24.4787 105.395 24.67C105.586 24.8613 105.682 25.1073 105.682 25.408V28.975C105.682 29.2483 105.586 29.4943 105.395 29.713C105.203 29.9043 104.957 30 104.657 30H100.844ZM118.916 30.41C115.691 30.41 113.122 29.5353 111.208 27.786C109.295 26.0367 108.297 23.44 108.215 19.996C108.215 19.8047 108.215 19.5587 108.215 19.258C108.215 18.9573 108.215 18.725 108.215 18.561C108.297 16.4017 108.776 14.5567 109.65 13.026C110.552 11.468 111.782 10.2927 113.34 9.5C114.926 8.68 116.771 8.27 118.875 8.27C121.281 8.27 123.262 8.74833 124.82 9.705C126.406 10.6617 127.595 11.96 128.387 13.6C129.18 15.24 129.576 17.1123 129.576 19.217V20.201C129.576 20.5017 129.481 20.7477 129.289 20.939C129.098 21.1303 128.852 21.226 128.551 21.226H115.431C115.431 21.2533 115.431 21.2943 115.431 21.349C115.431 21.4037 115.431 21.4583 115.431 21.513C115.459 22.3057 115.595 23.03 115.841 23.686C116.115 24.342 116.497 24.8613 116.989 25.244C117.509 25.6267 118.137 25.818 118.875 25.818C119.422 25.818 119.873 25.736 120.228 25.572C120.611 25.3807 120.925 25.1757 121.171 24.957C121.417 24.711 121.609 24.506 121.745 24.342C121.991 24.0413 122.183 23.8637 122.319 23.809C122.483 23.727 122.729 23.686 123.057 23.686H128.141C128.415 23.686 128.633 23.768 128.797 23.932C128.989 24.096 129.071 24.3147 129.043 24.588C129.016 25.0527 128.784 25.613 128.346 26.269C127.909 26.925 127.267 27.581 126.419 28.237C125.599 28.8657 124.561 29.385 123.303 29.795C122.046 30.205 120.584 30.41 118.916 30.41ZM115.431 17.167H122.36V17.085C122.36 16.183 122.224 15.4177 121.95 14.789C121.704 14.133 121.308 13.6273 120.761 13.272C120.242 12.9167 119.613 12.739 118.875 12.739C118.165 12.739 117.55 12.9167 117.03 13.272C116.511 13.6273 116.115 14.133 115.841 14.789C115.568 15.4177 115.431 16.183 115.431 17.085V17.167ZM143.875 39.02C141.77 39.02 140.021 38.7467 138.627 38.2C137.26 37.6533 136.167 36.9973 135.347 36.232C134.554 35.4667 133.98 34.7013 133.625 33.936C133.27 33.198 133.078 32.6103 133.051 32.173C133.024 31.8723 133.119 31.6127 133.338 31.394C133.557 31.2027 133.816 31.107 134.117 31.107H139.324C139.597 31.107 139.816 31.1753 139.98 31.312C140.144 31.4487 140.281 31.6673 140.39 31.968C140.554 32.2687 140.745 32.5693 140.964 32.87C141.183 33.198 141.497 33.4713 141.907 33.69C142.344 33.9087 142.932 34.018 143.67 34.018C144.49 34.018 145.173 33.8813 145.72 33.608C146.267 33.362 146.677 32.9383 146.95 32.337C147.223 31.763 147.36 30.984 147.36 30V27.253C146.731 27.9363 145.925 28.4967 144.941 28.934C143.957 29.344 142.768 29.549 141.374 29.549C139.98 29.549 138.75 29.344 137.684 28.934C136.618 28.524 135.73 27.909 135.019 27.089C134.308 26.269 133.748 25.2713 133.338 24.096C132.955 22.9207 132.723 21.5677 132.641 20.037C132.614 19.3263 132.614 18.602 132.641 17.864C132.723 16.4153 132.955 15.1033 133.338 13.928C133.721 12.7253 134.267 11.714 134.978 10.894C135.716 10.0467 136.618 9.40433 137.684 8.967C138.75 8.50233 139.98 8.27 141.374 8.27C142.85 8.27 144.107 8.557 145.146 9.131C146.212 9.67767 147.087 10.3747 147.77 11.222V9.705C147.77 9.43167 147.866 9.19933 148.057 9.008C148.248 8.78933 148.494 8.68 148.795 8.68H153.51C153.811 8.68 154.057 8.78933 154.248 9.008C154.467 9.19933 154.576 9.43167 154.576 9.705V29.426C154.576 31.5033 154.152 33.2527 153.305 34.674C152.485 36.0953 151.269 37.175 149.656 37.913C148.071 38.651 146.144 39.02 143.875 39.02ZM143.588 24.219C144.463 24.219 145.173 24.0277 145.72 23.645C146.267 23.2623 146.663 22.7703 146.909 22.169C147.182 21.5677 147.333 20.9253 147.36 20.242C147.387 19.9413 147.401 19.5177 147.401 18.971C147.401 18.4243 147.387 18.0143 147.36 17.741C147.333 17.0303 147.182 16.3743 146.909 15.773C146.663 15.1717 146.267 14.6933 145.72 14.338C145.173 13.9553 144.463 13.764 143.588 13.764C142.686 13.764 141.962 13.9553 141.415 14.338C140.896 14.7207 140.513 15.24 140.267 15.896C140.048 16.552 139.912 17.2763 139.857 18.069C139.83 18.6703 139.83 19.2853 139.857 19.914C139.912 20.7067 140.048 21.431 140.267 22.087C140.513 22.743 140.896 23.2623 141.415 23.645C141.962 24.0277 142.686 24.219 143.588 24.219Z" fill="#141421"/>
</svg>
