<svg width="160" height="38" viewBox="0 0 160 38" fill="none" xmlns="http://www.w3.org/2000/svg">
<g id="Group 4331">
<path id="Vector" d="M37.7947 9.53592C37.7947 9.53592 37.7947 9.39315 37.7947 9.31156C37.7947 4.47763 33.8582 0.561523 29.0447 0.561523H9.68852C7.36333 0.561523 5.16052 1.45896 3.50842 3.11107C1.87671 4.74278 0.958873 6.92519 0.938477 9.22997V28.7085V28.7493C0.979269 33.5424 4.89537 37.4381 9.68852 37.4381H29.0447C33.8786 37.4381 37.7947 33.5016 37.7947 28.6881C37.7947 28.6065 37.7947 28.5453 37.7947 28.4637V9.55632V9.53592ZM28.5347 20.6723C28.4328 20.9375 28.2492 21.1618 27.984 21.2842L26.3523 22.0797C25.8628 22.3244 25.6589 22.9159 25.9036 23.4054L26.6991 25.0576C26.9642 25.5879 26.7399 26.2201 26.2096 26.4853L21.0697 28.994C20.9269 29.0756 20.7637 29.096 20.6006 29.096C20.4782 29.096 20.3762 29.096 20.2538 29.0348C19.9887 28.9329 19.7643 28.7493 19.6419 28.4841L18.8465 26.832C18.5813 26.3017 18.8057 25.6694 19.336 25.4043L24.4759 22.8955C24.7206 22.7732 24.8838 22.5692 24.9858 22.3244C25.0674 22.0797 25.047 21.7941 24.945 21.5698L24.1495 19.9381C24.0272 19.6933 23.8232 19.5301 23.5784 19.4282C23.3337 19.3466 23.0481 19.367 22.8238 19.4689L17.6839 21.9777C17.4187 22.1001 17.1332 22.1205 16.868 22.0185C16.6029 21.9165 16.3785 21.7329 16.2561 21.4678L15.4607 19.8361C15.3383 19.5913 15.1343 19.4078 14.8896 19.3262C14.6448 19.2446 14.3593 19.265 14.1349 19.367L12.5032 20.1624C12.2381 20.2848 11.9525 20.3052 11.6874 20.2032C11.4222 20.1012 11.1978 19.9177 11.0755 19.6729L10.28 18.0208C10.1576 17.7557 10.1372 17.4701 10.2392 17.205C10.3412 16.9398 10.5248 16.7154 10.7695 16.5931L12.4012 15.7976C12.646 15.6752 12.8296 15.4713 12.9111 15.2265C12.9927 14.9817 12.9723 14.6962 12.8703 14.4718L12.0749 12.8401C11.8097 12.3098 12.0341 11.6775 12.5644 11.4124L17.7043 8.90363C18.2346 8.63848 18.8669 8.86284 19.132 9.39315L19.9275 11.0249C20.0499 11.29 20.0703 11.5756 19.9683 11.8407C19.8663 12.1059 19.6827 12.3302 19.438 12.4526L14.2981 14.9614C13.8086 15.2061 13.6046 15.7976 13.8494 16.2871L14.6448 17.9392C14.8896 18.4287 15.4811 18.6327 15.9706 18.3879L21.1105 15.8792C21.6408 15.614 22.2731 15.8384 22.5382 16.3687L23.3337 18.0004C23.4561 18.2452 23.66 18.4083 23.9048 18.5103C24.1495 18.5919 24.4351 18.5715 24.6594 18.4695L26.2911 17.6741C26.5563 17.5517 26.8418 17.5313 27.107 17.6333C27.3722 17.7353 27.5965 17.9188 27.7189 18.1636L28.5144 19.7953C28.6367 20.0604 28.6571 20.346 28.5551 20.6111L28.5347 20.6723Z" fill="#141421"/>
<g id="Group">
<path id="Vector_2" d="M55.1925 29.0766C48.9512 29.0766 45.749 26.1803 45.749 21.02H48.4413C48.4413 24.9565 50.7461 26.833 55.2741 26.833C58.8231 26.833 60.4956 25.6908 60.4956 23.4268C60.4956 21.8155 59.4554 20.5917 57.0486 19.9798L51.2968 18.4909C48.0538 17.6546 46.728 15.7782 46.728 13.3306C46.728 9.78163 49.298 7.88477 54.0095 7.88477C59.6185 7.88477 62.5556 10.5771 62.5556 15.0031H59.8429C59.8429 11.7397 57.8849 10.108 54.0095 10.108C51.0113 10.108 49.4 11.1278 49.4 13.2286C49.4 14.6768 50.277 15.7986 52.5206 16.3696L58.2112 17.7974C61.5358 18.6336 63.1675 20.5713 63.1675 23.284C63.1675 26.9554 60.6792 29.097 55.2129 29.097L55.1925 29.0766Z" fill="#141421"/>
<path id="Vector_3" d="M75.8944 28.7503H70.2038C68.8372 28.7503 68.1641 28.1181 68.1641 26.7107V16.4717H64.9619V14.2485H68.1641V10.5772L70.7545 9.78174V14.2485H75.3029V16.4717H70.7545V26.5679H75.8944V28.7503Z" fill="#141421"/>
<path id="Vector_4" d="M81.0543 14.2686H89.2536V16.4918H81.605V28.7704H79.0146V16.2878C79.0146 14.9212 79.6877 14.2686 81.0543 14.2686Z" fill="#141421"/>
<path id="Vector_5" d="M95.4951 20.5102L101.186 19.9595C101.063 17.3284 99.8803 16.0842 97.3103 16.0842C95.2911 16.0842 93.7818 17.0225 93.5574 19.4292H90.9875C91.3138 16.125 93.5166 13.9834 97.2899 13.9834C101.512 13.9834 103.796 16.5737 103.796 20.4082V26.5679H105.918V28.7911H103.266C102.165 28.7911 101.512 28.1589 101.512 27.0371V26.3436L101.92 24.7935H101.186C100.635 27.0167 99.0848 29.0767 95.5563 29.0767C91.2934 29.0767 90.6611 26.2824 90.6611 24.7527C90.6611 22.4479 92.0685 20.8366 95.4951 20.5306V20.5102ZM95.9642 26.9351C99.1052 26.9351 101.186 24.7119 101.186 21.7952L95.9438 22.3459C94.1693 22.5295 93.2311 23.019 93.2311 24.4263C93.2311 26.0784 94.3121 26.9351 95.9642 26.9351Z" fill="#141421"/>
<path id="Vector_6" d="M117.178 28.7503H111.487C110.12 28.7503 109.447 28.1181 109.447 26.7107V16.4717H106.245V14.2485H109.447V10.5772L112.038 9.78174V14.2485H116.586V16.4717H112.038V26.5679H117.178V28.7503Z" fill="#141421"/>
<path id="Vector_7" d="M126.132 13.9628C130.415 13.9628 133.209 16.5531 133.209 21.0403V21.9785H121.685C121.767 24.8136 123.256 26.9553 126.254 26.9553C128.743 26.9553 130.191 25.6703 130.68 23.651H133.25C132.659 26.3434 130.741 29.0153 126.275 29.0153C121.543 29.0153 119.156 25.5683 119.156 21.2851C119.156 16.5939 121.951 13.9424 126.091 13.9424L126.132 13.9628ZM130.68 20.1429C130.497 17.5117 128.722 16.0024 126.132 16.0024C123.745 16.0024 121.93 17.5117 121.726 20.1429H130.68Z" fill="#141421"/>
<path id="Vector_8" d="M136.187 21.4892C136.187 17.2059 138.838 13.9629 143.06 13.9629C146.385 13.9629 148.282 15.7374 148.914 17.981H149.648L149.22 16.2677V14.2484H151.79V32.6256C151.79 33.7882 151.157 34.4 149.771 34.4H138.695V32.1768H149.199V28.7299H149.22V26.7106L149.648 24.9565H148.914C148.282 27.2001 146.385 29.0154 143.06 29.0154C138.838 29.0154 136.187 25.752 136.187 21.4688V21.4892ZM143.876 26.833C146.813 26.833 149.22 25.2217 149.22 21.4892C149.22 17.7566 146.833 16.1861 143.876 16.1861C140.918 16.1861 138.777 17.7566 138.777 21.4892C138.777 25.2217 140.939 26.833 143.876 26.833Z" fill="#141421"/>
</g>
<path id="Vector_9" d="M154.869 27.7911V25.3639C154.869 24.5888 155.501 23.9565 156.276 23.9565H158.479C159.254 23.9565 159.887 24.5888 159.887 25.3639V27.7911C159.887 28.5661 159.254 29.1984 158.479 29.1984H156.276C155.501 29.1984 154.869 28.5661 154.869 27.7911Z" fill="#141421"/>
</g>
</svg>
