<svg width="221" height="49" viewBox="0 0 221 49" fill="none" xmlns="http://www.w3.org/2000/svg">
  <path
    d="M111.221 2.18903C110.803 2.29832 110.455 2.82429 106.808 8.90378C104.813 12.2304 103.023 15.2087 102.825 15.5297C102.634 15.8507 102.449 16.165 102.408 16.2333C102.374 16.3016 101.404 17.9137 100.257 19.8195C99.1092 21.7253 98.1388 23.3442 98.0981 23.4194C98.0573 23.4945 97.7706 23.9726 97.4627 24.4781C97.1624 24.9836 96.9096 25.4208 96.9096 25.4481C96.9096 25.4823 97.5925 25.4959 98.4263 25.4891L99.9355 25.4686L100.291 24.8879C100.489 24.5669 100.96 23.7677 101.35 23.1119C102.743 20.7417 103.426 19.5804 103.809 18.9451C104.02 18.5899 104.56 17.6814 105.004 16.93C105.441 16.1786 105.879 15.4477 105.967 15.3111C106.056 15.1677 106.132 15.0379 106.132 15.0242C106.132 15.0106 106.329 14.669 106.575 14.266C106.821 13.8698 107.019 13.5146 107.019 13.4804C107.019 13.4394 107.047 13.4121 107.081 13.4121C107.115 13.4121 107.17 13.3438 107.19 13.2687C107.217 13.1867 107.436 12.7973 107.675 12.408C107.914 12.0118 108.112 11.6839 108.112 11.6634C108.112 11.6498 108.276 11.3697 108.475 11.0419C108.905 10.3314 109.28 9.70297 110.23 8.08406C110.619 7.4283 111.07 6.66324 111.241 6.38318L111.555 5.87769L111.657 6.09628C111.712 6.2124 111.78 6.30803 111.814 6.30803C111.842 6.30803 111.869 6.33536 111.869 6.36951C111.869 6.40367 112.136 6.875 112.463 7.40781C112.785 7.94748 113.153 8.56225 113.269 8.76712C113.392 8.97207 113.83 9.70984 114.246 10.3997C114.67 11.0828 115.012 11.6566 115.012 11.6703C115.012 11.6771 115.701 12.8383 116.548 14.2387L118.078 16.7934L113.515 16.8139L108.952 16.8276L108.857 17.0189C108.775 17.1896 108.645 17.4014 107.853 18.6855C107.696 18.9383 107.559 19.1774 107.552 19.2116C107.538 19.2662 109.362 19.2867 113.522 19.2867H119.52L119.609 19.4438C119.663 19.5258 120.094 20.2567 120.578 21.0627C121.057 21.8687 121.849 23.2007 122.334 24.0136L123.222 25.5027H124.895H126.569L126.419 25.2432C126.33 25.1066 126.186 24.8538 126.091 24.6831C125.996 24.5123 125.893 24.362 125.859 24.3552C125.832 24.3415 125.804 24.3074 125.804 24.2732C125.804 24.2459 125.544 23.7814 125.224 23.2554C124.902 22.7226 124.643 22.2581 124.643 22.2239C124.643 22.1966 124.622 22.1556 124.595 22.142C124.547 22.1214 123.878 21.0627 123.55 20.4821C123.482 20.366 123.12 19.7512 122.73 19.1159C122.341 18.4738 121.979 17.859 121.911 17.7498C121.849 17.6336 121.617 17.2511 121.399 16.8959C121.18 16.5407 120.947 16.1513 120.886 16.042C120.817 15.9259 119.909 14.4231 118.871 12.6949C117.825 10.9667 116.173 8.21385 115.196 6.58127C114.212 4.9487 113.392 3.59619 113.365 3.57569C113.345 3.5552 113.262 3.41858 113.181 3.2683C112.983 2.87894 112.491 2.34614 112.231 2.23684C112.02 2.14121 111.494 2.12072 111.221 2.18903Z"
    fill="#777682" />
  <path
    d="M7.49364 2.5306C5.15066 2.93362 3.53174 3.9924 2.69838 5.65913C2.52078 6.00751 2.32268 6.56081 2.26803 6.86137C2.11775 7.61276 2.0836 7.93378 2.09043 8.5896C2.09043 11.2126 3.03309 13.0228 4.95939 14.1089C5.6698 14.5119 5.9362 14.6212 6.7764 14.8535C7.32287 15.0106 7.34336 15.0106 14.2562 15.0516C21.1622 15.0926 21.1895 15.0926 21.6677 15.2428C22.3371 15.4546 22.9245 15.7552 23.2866 16.0762C24.2566 16.9301 24.7211 18.5421 24.3727 19.8947C24.1951 20.6119 23.9902 20.9602 23.4164 21.534C22.7674 22.1898 21.7975 22.6543 20.9163 22.7295C20.7318 22.7431 16.4967 22.7636 11.5102 22.7636L2.4388 22.7704V24.1366V25.5027L11.9542 25.4823C22.2825 25.4618 21.8658 25.4754 23.0065 25.0861C25.1924 24.3347 26.4425 22.8183 26.8592 20.4138C27.1187 18.87 26.8523 16.6705 26.2307 15.3248C26.0053 14.8262 25.4315 14.1431 24.9533 13.7947C24.0994 13.1799 23.3481 12.8793 22.0434 12.6403C21.292 12.5037 20.9709 12.4968 14.4952 12.4558C9.85711 12.4285 7.67124 12.3943 7.5278 12.3397C7.08379 12.1826 6.70809 12.0186 6.67394 11.9777C6.65344 11.9572 6.52366 11.8684 6.38704 11.7796C6.03184 11.5678 5.47171 10.9189 5.27361 10.5091C4.83644 9.58008 4.88426 8.11141 5.38291 7.09362C5.64931 6.54032 6.34605 5.85723 6.89935 5.59766C7.73272 5.2083 7.55512 5.21513 17.0296 5.21513H25.732V3.84896V2.48279L16.7016 2.48962C11.7287 2.49645 7.58927 2.51694 7.49364 2.5306Z"
    fill="#777682" />
  <path
    d="M34.2024 3.84896V5.21513H38.8474H43.4923V15.3589V25.5027L44.8448 25.4891L46.1905 25.4686V15.3385V5.21513H50.8901H55.583V3.84896V2.48279H44.8927H34.2024V3.84896Z"
    fill="#777682" />
  <path
    d="M63.3153 13.9723L63.3358 25.4686L64.6883 25.4891L66.0341 25.5027V15.3589V5.2083L73.8075 5.2288L81.5739 5.24928L82.1889 5.44055C83.0974 5.72745 83.6709 6.06216 84.2792 6.65644C84.7093 7.07996 84.8602 7.28488 85.1198 7.81769C85.5838 8.78081 85.6729 9.23168 85.6729 10.7823C85.6661 11.8957 85.6457 12.1553 85.5227 12.6266C85.1741 13.9177 84.5251 14.9218 83.6574 15.5024C83.2137 15.8029 82.6809 16.0625 82.3459 16.1513C81.1574 16.4519 81.4034 16.4382 75.9729 16.4655L70.7815 16.4929V17.5653V18.6378L75.1737 18.6719L79.5659 18.7061L80.1945 19.4028C81.9633 21.3633 83.3774 22.9139 83.6989 23.2486C83.8966 23.4536 84.129 23.7063 84.218 23.8019C84.3063 23.9044 84.6821 24.3278 85.0511 24.7445L85.734 25.5027H87.6401C88.8218 25.5027 89.5319 25.4754 89.5183 25.4345C89.5115 25.4004 87.9812 23.8497 86.137 21.9849C84.2859 20.1201 82.77 18.5763 82.77 18.5421C82.77 18.5148 83.0703 18.3714 83.4393 18.2279C84.8459 17.6746 85.4608 17.2989 86.2879 16.4588C87.0387 15.7073 87.4552 15.0516 87.8242 14.0611C88.5419 12.1211 88.569 9.41611 87.8929 7.39417C87.5171 6.27391 86.9912 5.40639 86.2124 4.62768C85.2216 3.64403 84.2112 3.10439 82.496 2.67405C81.9158 2.52377 81.8954 2.52377 72.6053 2.50328L63.3017 2.48279L63.3153 13.9723Z"
    fill="#777682" />
  <path
    d="M128.946 3.84896V5.21513H133.625H138.304V15.3589V25.5027H139.636H140.968V15.3589V5.21513L145.668 5.20146L150.361 5.18098L150.382 3.82847L150.395 2.48279H139.671H128.946V3.84896Z"
    fill="#777682" />
  <path
    d="M166.072 2.58854C162.315 3.26479 159.611 5.1706 158.08 8.21717C157.335 9.70629 156.966 11.2364 156.912 13.1285C156.843 15.1505 156.973 16.1546 157.506 17.8555C158.777 21.8926 162.227 24.8025 166.434 25.39C167.547 25.5471 174.563 25.5471 175.649 25.3968C177.459 25.1372 178.942 24.5703 180.39 23.5729C182.78 21.9472 184.372 19.4949 185.007 16.4825C185.144 15.8335 185.178 15.4237 185.212 14.1259C185.253 12.4045 185.206 11.7897 184.933 10.6558C184.174 7.52042 182.377 5.17743 179.631 3.74979C178.614 3.22381 177.999 3.00522 176.626 2.69783L175.84 2.52706L171.23 2.50657C167.452 2.49291 166.523 2.50657 166.072 2.58854ZM175.874 5.36187C176.763 5.57363 177.275 5.75806 178.033 6.14058C178.463 6.35918 178.812 6.55726 178.812 6.59142C178.812 6.61875 178.846 6.64607 178.887 6.64607C178.983 6.64607 179.864 7.37698 180.219 7.75267C181.298 8.89344 182.104 10.5397 182.405 12.2132C182.555 13.0466 182.575 14.5562 182.445 15.4237C182.323 16.2229 181.961 17.391 181.619 18.1014C181.332 18.6889 180.766 19.5769 180.499 19.8433C180.417 19.9321 180.28 20.0824 180.205 20.1849C179.905 20.5674 178.996 21.2709 178.238 21.7013C177.678 22.0224 176.715 22.3912 175.977 22.5688L175.294 22.7327H171.025C166.359 22.7327 166.509 22.7464 165.232 22.3161C162.725 21.4759 160.785 19.4061 159.986 16.7284C159.596 15.4237 159.488 13.675 159.706 12.302C159.904 11.0998 160.45 9.72682 161.133 8.69536C162.315 6.92613 164.535 5.57363 166.721 5.2799C166.926 5.24575 168.975 5.23208 171.264 5.23891C174.755 5.25257 175.505 5.27307 175.874 5.36187Z"
    fill="#777682" />
  <path
    d="M198.791 2.53061C198.717 2.54427 198.361 2.61941 198.006 2.70138C197.289 2.85166 196.005 3.42545 195.526 3.79431C194.686 4.45008 194.188 5.09901 193.805 6.05533C193.143 7.68108 193.225 10.1675 193.983 11.7454C194.215 12.2236 194.734 12.9614 195.062 13.2824C195.629 13.8221 196.565 14.3821 197.323 14.628C198.56 15.0311 198.061 15.0106 205.554 15.0516L212.453 15.0857L213 15.2565C214.885 15.8508 215.869 17.2784 215.739 19.2321C215.664 20.4479 215.056 21.4521 213.991 22.1215C213.581 22.3811 212.672 22.6885 212.214 22.7295C212.01 22.7431 207.774 22.7637 202.808 22.7637L193.771 22.7704V24.1366V25.5028H202.965C213.164 25.5028 212.952 25.5096 214.304 25.0588C216.846 24.2118 218.225 22.1078 218.225 19.0681C218.225 16.9096 217.665 15.1677 216.654 14.1636C215.91 13.419 214.714 12.8862 213.205 12.6198C212.597 12.5105 211.791 12.4968 205.759 12.4627C199.406 12.4217 198.976 12.4149 198.655 12.2988C197.365 11.8206 196.463 10.796 196.291 9.6142C196.196 8.99257 196.278 8.08411 196.463 7.56495C196.797 6.65645 197.275 6.08265 198.061 5.6728C198.963 5.19464 198.546 5.21514 208.259 5.21514H216.996V3.84896V2.48279L207.966 2.48962C202.993 2.49645 198.867 2.51011 198.791 2.53061Z"
    fill="#777682" />
  <path
    d="M45.644 35.0236C45.1796 35.0988 44.5306 35.3242 43.9227 35.6247C43.8476 35.6657 43.6904 35.7751 43.5811 35.8775C43.4718 35.9731 43.2601 36.1644 43.1098 36.301C42.5565 36.7996 42.0715 37.7082 41.8871 38.5825C41.7778 39.1221 41.7573 40.1741 41.8529 40.7547C41.9281 41.2602 42.3652 42.3121 42.6521 42.7015C43.103 43.3163 43.9773 44.0131 44.4281 44.1155C44.4965 44.136 44.7834 44.2111 45.0634 44.3C45.4869 44.4229 45.7397 44.4502 46.5662 44.4502C47.4338 44.4502 47.6045 44.4298 47.9461 44.2931C48.1647 44.2111 48.3559 44.1429 48.3764 44.1496C48.513 44.1633 49.524 43.5554 49.8314 43.2616L49.9817 43.1182L49.7289 42.8176C49.5923 42.6469 49.442 42.5103 49.401 42.5103C49.3669 42.5103 49.1005 42.6674 48.8204 42.8586C48.2124 43.2685 48.1236 43.3026 47.4338 43.4734C46.7848 43.6305 46.3818 43.6373 45.6987 43.4939C44.5921 43.2685 43.8339 42.7699 43.3284 41.9296C42.8775 41.1851 42.7136 40.5088 42.7615 39.573C42.7819 39.1768 42.8434 38.7328 42.898 38.5825C43.4172 37.1548 44.2779 36.3147 45.5416 35.9868C45.8695 35.898 46.1837 35.8775 46.737 35.898C47.3996 35.9253 47.5498 35.9526 48.0144 36.1507C48.3081 36.2737 48.7179 36.5127 48.9297 36.6904L49.3054 36.9977L49.5718 36.7314C49.7221 36.5879 49.8382 36.4308 49.845 36.3898C49.845 36.2327 49.2166 35.693 48.7794 35.4745C47.8094 35.01 46.7029 34.846 45.644 35.0236Z"
    fill="#777682" />
  <path
    d="M103.856 35.0024C103.33 35.0706 102.238 35.4669 101.931 35.7059C101.363 36.1499 100.947 36.6349 100.612 37.2634C100.161 38.0967 99.9838 38.7662 99.9838 39.6337C99.9838 40.5695 100.072 40.9794 100.434 41.8127C100.701 42.4139 100.851 42.6461 101.268 43.1038C102.005 43.9303 102.477 44.1831 103.761 44.4358C104.444 44.5724 104.56 44.5792 105.182 44.4973C105.919 44.4085 106.917 44.0943 107.293 43.8415C108.092 43.3019 108.809 42.3182 109.144 41.3072C109.274 40.9179 109.301 40.6652 109.314 39.8591C109.328 38.7799 109.274 38.4383 108.945 37.6732C108.665 37.0243 108.413 36.6691 107.832 36.0953C107.443 35.7128 107.238 35.5761 106.767 35.3712C105.852 34.9819 104.943 34.8658 103.856 35.0024ZM105.831 36.027C106.828 36.3344 107.504 36.9218 107.976 37.8986C108.604 39.217 108.542 40.5969 107.798 41.8742C107.115 43.0355 106.076 43.6024 104.635 43.6024C103.57 43.6024 102.661 43.2199 102.012 42.5027C100.851 41.2253 100.612 39.3331 101.412 37.7484C101.842 36.8877 102.381 36.4574 103.57 36.0134C104.068 35.8289 105.209 35.8357 105.831 36.027Z"
    fill="#777682" />
  <path
    d="M140.798 35.0303C139.432 35.2557 138.407 35.9662 137.724 37.1752C137.198 38.1043 137.048 38.76 137.096 39.9486C137.13 40.8912 137.28 41.4514 137.704 42.2711C137.935 42.7151 139.009 43.8148 139.363 43.9719C139.514 44.0402 139.725 44.1359 139.828 44.1905C139.931 44.2383 140.347 44.3476 140.75 44.4296C141.324 44.5457 141.59 44.5663 142.021 44.5252C142.717 44.4638 143.462 44.2725 143.995 44.0198C144.514 43.767 145.259 43.1044 145.518 42.6672C145.62 42.4828 145.723 42.3257 145.743 42.3052C145.832 42.2301 146.038 41.8817 146.058 41.7519C146.072 41.6768 146.153 41.3831 146.235 41.0893C146.419 40.4609 146.447 39.1562 146.304 38.5483C146.051 37.5305 145.463 36.54 144.774 35.9457C144.241 35.4949 143.476 35.1533 142.69 35.0303C141.979 34.9074 141.529 34.9142 140.798 35.0303ZM142.909 36.0276C143.578 36.2258 144.111 36.5673 144.521 37.0591C144.965 37.5919 145.088 37.8378 145.272 38.5551C145.586 39.7505 145.423 40.9732 144.821 41.9705C144.411 42.6536 143.961 43.0293 143.196 43.3298C142.471 43.6235 141.488 43.685 140.777 43.5006C139.719 43.2206 138.886 42.5716 138.483 41.7246C138.045 40.8024 137.922 39.5523 138.161 38.596C138.373 37.7695 138.544 37.4621 139.042 36.9498C139.5 36.4854 139.739 36.3487 140.661 36.014C141.16 35.8295 142.267 35.8364 142.909 36.0276Z"
    fill="#777682" />
  <path
    d="M161.441 35.0029C160.115 35.1942 159.002 35.8704 158.313 36.8951C158.128 37.1751 157.978 37.4347 157.978 37.4825C157.978 37.5304 157.93 37.6669 157.875 37.7831C157.568 38.3911 157.445 39.9279 157.629 40.8365C157.725 41.3215 158.012 42.107 158.224 42.4485C158.306 42.5783 158.586 42.8994 158.839 43.1658C159.87 44.2041 161.612 44.6959 163.183 44.3954C163.852 44.2656 164.57 43.9582 165.096 43.5893C165.853 43.0428 165.799 43.2341 165.819 41.1712L165.84 39.3678L163.907 39.3815L161.974 39.402L161.954 39.7708C161.939 40.0236 161.96 40.1602 162.021 40.1944C162.069 40.2285 162.746 40.2558 163.531 40.2558H164.945V41.2395C164.945 41.7791 164.924 42.3119 164.904 42.4212C164.856 42.674 164.282 43.0496 163.572 43.3092C163.142 43.4595 162.95 43.4868 162.281 43.4936C161.598 43.4936 161.42 43.4732 160.929 43.3092C160.307 43.1043 159.884 42.8448 159.432 42.4008C158.593 41.5605 158.258 39.764 158.688 38.4593C158.94 37.7011 159.07 37.4825 159.562 36.9702C160.157 36.3486 160.936 35.9729 161.905 35.85C162.684 35.7475 164.009 36.1027 164.713 36.6013C164.897 36.7311 165.082 36.8404 165.13 36.8404C165.246 36.8404 165.696 36.4374 165.696 36.3281C165.696 36.2051 165.327 35.9388 164.597 35.5357C163.606 34.996 162.616 34.8322 161.441 35.0029Z"
    fill="#777682" />
  <path
    d="M210.719 35.0369C210.159 35.1872 209.503 35.5014 209.188 35.761C209.031 35.8976 208.792 36.1845 208.662 36.4031C208.43 36.7856 208.423 36.8266 208.423 37.4551C208.43 37.9878 208.458 38.1518 208.574 38.384C208.806 38.8144 209.058 39.0876 209.407 39.2584C209.714 39.4155 210.513 39.6751 210.848 39.7365C210.944 39.757 211.019 39.7707 211.019 39.7776C211.019 39.7843 211.081 39.798 211.156 39.8049C211.231 39.8185 211.573 39.9073 211.907 40.003C212.249 40.0986 212.782 40.2489 213.102 40.3445C213.793 40.5358 214.031 40.6519 214.277 40.9183C214.776 41.4442 214.715 42.4211 214.154 42.9197C213.847 43.1861 213.588 43.2886 212.863 43.4321C211.368 43.7326 209.913 43.2886 209.202 42.3255L208.929 41.9634L208.526 42.1683C208.3 42.2845 208.116 42.3937 208.116 42.4143C208.116 42.5303 208.376 42.9197 208.649 43.2135C209.468 44.0878 210.493 44.4635 212.044 44.4498C212.945 44.443 213.267 44.3884 214.046 44.0878C214.483 43.9238 215.125 43.4457 215.254 43.1861C215.555 42.6124 215.644 42.223 215.617 41.6628C215.568 40.7816 215.152 40.1532 214.38 39.7912C213.957 39.5931 212.31 39.1286 211.292 38.9237C210.384 38.7324 210.165 38.6368 209.776 38.2406C209.373 37.8239 209.277 37.537 209.407 37.1067C209.578 36.5397 210.076 36.1708 210.992 35.9454C212.194 35.638 213.649 35.9864 214.38 36.7515C214.462 36.8402 214.599 36.9086 214.68 36.9086C214.872 36.9086 215.357 36.6353 215.357 36.526C215.357 36.3484 214.735 35.7678 214.257 35.4945C213.554 35.0916 212.863 34.9276 211.873 34.9344C211.415 34.9344 210.937 34.9755 210.719 35.0369Z"
    fill="#777682" />
  <path
    d="M24.2839 35.1138C24.1678 35.1411 24.161 35.4212 24.161 39.752V44.3559H27.474H30.787V43.9119V43.4679H27.9863H25.1856V41.8286V40.1891H27.8155H30.4454V39.7109V39.2328H27.8155H25.1856V37.6276V36.0223H27.959H30.7255L30.7118 35.5851C30.6982 35.2026 30.6776 35.1411 30.5547 35.107C30.384 35.0591 24.4547 35.066 24.2839 35.1138Z"
    fill="#777682" />
  <path
    d="M120.955 39.7108V44.3558H123.994H127.034V43.9118V43.4678H124.472H121.911V39.2668V35.0659H121.432H120.955V39.7108Z"
    fill="#777682" />
  <path
    d="M177.582 39.7108V44.3558H178.026H178.47L178.484 39.7929C178.497 37.2859 178.491 35.1956 178.477 35.1479C178.463 35.0932 178.313 35.0659 178.02 35.0659H177.582V39.7108Z"
    fill="#777682" />
  <path
    d="M190.821 35.1138C190.704 35.1411 190.698 35.4212 190.698 39.752V44.3559H194.031H197.358L197.337 43.9119L197.309 43.4679H194.516H191.722V41.8286V40.1891H194.352H196.982V39.7109V39.2328H194.352H191.722V37.6276V36.0223H194.489H197.255V35.5851C197.255 35.1889 197.242 35.148 197.105 35.107C196.927 35.0591 190.998 35.066 190.821 35.1138Z"
    fill="#777682" />
  <path
    d="M5.58112 35.5777V36.0217H7.18637H8.79165V40.2227V44.4237H9.30394H9.81624V40.2227V36.0217H11.4215H13.0267V35.5777V35.1337H9.30394H5.58112V35.5777Z"
    fill="#777682" />
  <path
    d="M61.3208 39.7451V44.3559H61.799H62.2771V42.3408V40.3257H65.0436H67.8102V42.3408V44.3559H68.2883H68.7665V39.7451V35.1343H68.2883H67.8102V37.2518V39.3694H65.0436H62.2771V37.2518V35.1343H61.799H61.3208V39.7451Z"
    fill="#777682" />
  <path
    d="M81.0419 35.182C81.014 35.2025 80.9936 37.2791 80.9936 39.7928V44.3558H81.4381C81.6841 44.3558 81.8886 44.349 81.8954 44.3354C81.909 44.3285 81.9293 42.7096 81.9505 40.7423L81.9844 37.1698L83.0092 38.454C83.5691 39.1644 84.0679 39.7723 84.1086 39.8133C84.1977 39.8884 85.3039 41.2751 86.5882 42.9213C87.5443 44.1441 87.7631 44.3558 88.0702 44.3558C88.2619 44.3558 88.3162 44.3217 88.3713 44.1783C88.446 43.987 88.4664 35.708 88.3985 35.3459L88.351 35.1273L87.8997 35.1478L87.4492 35.1683V38.7682C87.4492 40.7559 87.4288 42.3748 87.4009 42.3748C87.3534 42.3748 87.0395 42.006 86.2464 41.0224C86.0759 40.8106 85.3726 39.909 84.6897 39.0278C83.9992 38.1466 83.3163 37.2859 83.1729 37.1152C83.0227 36.9443 82.6402 36.4662 82.3119 36.0563C81.9912 35.6396 81.663 35.2708 81.5815 35.223C81.4245 35.1342 81.1098 35.1069 81.0419 35.182Z"
    fill="#777682" />
</svg>