<svg width="97" height="67" viewBox="0 0 97 67" fill="none" xmlns="http://www.w3.org/2000/svg">
  <path
    d="M22.3784 5.76321C22.3784 6.37316 26.6757 19.1819 28.6719 24.4219C34.3 39.4486 36.5734 43.6351 39.9281 45.2431C41.3421 45.9362 41.4807 45.9362 48.8554 45.9917L56.3688 46.0748L57.8382 45.2708C59.5294 44.3282 60.8048 42.8033 62.0246 40.2249C63.2723 37.5634 65.9893 30.6877 67.9854 25.1705C69.538 20.8454 74.5007 5.92956 74.5007 5.62459C74.5007 5.54142 70.8411 5.48597 66.3774 5.48597H58.2264L56.0916 11.9181C53.0419 21.0395 49.105 31.4917 48.8277 31.2144C48.5505 30.9095 44.7245 20.2632 42.3679 13.1657L39.7895 5.48597H37.1834C34.8822 5.48597 34.5773 5.54142 34.5773 5.95729C34.5773 6.23454 35.7417 9.94963 37.1834 14.2192C42.4788 30.0223 47.2474 41.2507 49.5486 43.3301C50.5189 44.2173 50.2139 44.3559 47.5247 44.245C45.1126 44.1618 44.8631 44.1064 43.9482 43.3301C40.5103 40.419 37.322 33.1274 28.8383 8.81292L27.7015 5.62459L25.04 5.54142C23.2933 5.48597 22.3784 5.56914 22.3784 5.76321ZM67.126 10.2546C69.6212 14.1915 69.5935 14.0252 67.7914 14.1361L66.322 14.2192L65.8506 15.6055C60.5552 30.9372 57.0619 39.5318 55.5371 40.9458C54.8162 41.6112 54.8162 41.6112 54.234 41.0844C53.9013 40.8071 53.2359 39.9477 52.7092 39.1991L51.7943 37.8406L52.5151 36.288C53.8459 33.2938 56.3134 26.9171 58.5868 20.5959L60.8602 14.2192L59.474 14.1361C58.7254 14.0806 58.1432 13.942 58.1986 13.8311C58.2541 13.6647 65.0744 7.50987 65.2684 7.45442C65.2962 7.42669 66.1279 8.70203 67.126 10.2546Z"
    fill="#777682" />
  <path
    d="M17.1384 55.5566C16.1126 55.9725 15.7245 56.8597 15.7245 58.6618C15.7245 60.2698 16.1958 61.2401 17.2216 61.7115C18.1088 62.1551 19.1346 61.961 19.8832 61.2124C20.3268 60.7688 20.4377 60.2698 20.4377 58.634C20.4377 56.8597 20.3545 56.527 19.8277 56.0279C18.9683 55.2516 18.192 55.113 17.1384 55.5566ZM19.0237 56.4715C19.5228 56.7765 19.7446 59.1885 19.3564 60.1589C19.1346 60.7688 18.8851 60.9352 18.2752 60.9352C17.8593 60.9352 17.3602 60.7966 17.1662 60.6025C16.7226 60.1589 16.7226 56.9983 17.1662 56.5547C17.5543 56.1665 18.4692 56.1388 19.0237 56.4715Z"
    fill="#777682" />
  <path
    d="M84.4539 55.4181C84.038 55.5844 83.5667 56.0557 83.3726 56.4993C83.0954 57.1924 83.0954 57.442 83.4835 58.0242C83.7331 58.3846 84.2875 58.7728 84.7034 58.8837C86.256 59.2163 86.7273 59.5213 86.6441 60.1867C86.561 60.7412 86.3946 60.7967 84.9807 60.7967C83.2063 60.7967 82.8736 61.1571 84.0657 61.7393C85.1193 62.2383 86.6164 61.8502 87.3373 60.8798C87.8086 60.2422 87.864 60.0204 87.5868 59.4104C87.2818 58.7173 86.8659 58.4955 85.1747 57.9687C84.5371 57.8024 84.343 57.5806 84.343 57.0538C84.343 56.4162 84.4539 56.3607 85.7015 56.3607C87.1709 56.3607 87.7531 55.8339 86.6441 55.529C85.4243 55.1686 85.1747 55.1686 84.4539 55.4181Z"
    fill="#777682" />
  <path
    d="M10.1796 55.8061C10.1796 56.0834 10.4845 56.222 11.1499 56.222H12.1203V59.1331C12.1203 61.5451 12.2035 62.0442 12.5362 62.0442C12.8689 62.0442 12.952 61.5451 12.952 59.1331V56.222H13.9224C14.5878 56.222 14.8928 56.0834 14.8928 55.8061C14.8928 55.4735 14.4492 55.3903 12.5362 55.3903C10.6232 55.3903 10.1796 55.4735 10.1796 55.8061Z"
    fill="#777682" />
  <path
    d="M22.1012 58.7172C22.1012 61.4897 22.1844 62.0442 22.5171 62.0442C22.822 62.0442 22.9329 61.7392 22.9329 60.9907C22.9329 60.2421 23.127 59.743 23.5706 59.3272L24.2083 58.745L25.1232 60.3807C25.7331 61.5174 26.1767 62.0442 26.5649 62.0442C26.8421 62.0442 27.0916 61.961 27.0916 61.8778C27.0916 61.7947 26.5926 60.852 25.9549 59.8262L24.8182 57.9132L25.844 56.6379C26.8421 55.4457 26.8698 55.3903 26.2322 55.418C25.7608 55.418 25.1786 55.8893 24.3192 56.9983L23.0716 58.5786L22.9884 56.9706C22.9329 55.8061 22.7943 55.3903 22.5171 55.3903C22.1844 55.3903 22.1012 56.0002 22.1012 58.7172Z"
    fill="#777682" />
  <path
    d="M28.2006 58.7172V62.0442H30.28C32.1652 62.0442 32.3593 61.9887 32.3593 61.4897C32.3593 60.9907 32.1652 60.9352 30.6958 60.9352H29.0324V59.9648V58.9945H30.4186C31.4721 58.9945 31.8048 58.8836 31.8048 58.5786C31.8048 58.2736 31.4721 58.1627 30.4186 58.1627H29.0324V57.1924V56.222H30.6958C31.9989 56.222 32.3593 56.1388 32.3593 55.8061C32.3593 55.4735 31.9434 55.3903 30.28 55.3903H28.2006V58.7172Z"
    fill="#777682" />
  <path
    d="M33.7455 58.7449C33.7455 61.7669 33.801 62.0719 34.2446 61.9887C34.6327 61.9055 34.7436 61.5174 34.8545 59.743L34.9932 57.5528L36.4348 59.7985C38.4865 62.9591 38.736 62.8482 38.736 58.7172C38.736 55.5843 38.7083 55.3902 38.1815 55.3902C37.6824 55.3902 37.627 55.5843 37.627 57.525V59.6876L36.213 57.525C35.2704 56.1388 34.605 55.3902 34.2723 55.3902C33.7733 55.3902 33.7455 55.6675 33.7455 58.7449Z"
    fill="#777682" />
  <path
    d="M42.0906 55.723C42.1183 56.4993 44.1699 61.8779 44.4472 61.961C44.6413 62.0442 45.2235 60.7134 45.8889 58.7173C46.9147 55.6953 46.9701 55.3903 46.4988 55.3903C46.1107 55.3903 45.8334 55.8339 45.3898 57.2478C45.0571 58.3014 44.7244 59.3272 44.6413 59.549C44.5581 59.7708 44.1699 58.9945 43.7541 57.7469C43.255 56.3052 42.8392 55.5012 42.5342 55.4457C42.2569 55.3903 42.0629 55.5012 42.0906 55.723Z"
    fill="#777682" />
  <path
    d="M47.9405 58.6341L48.0236 61.9056H50.103C51.7665 61.9056 52.1823 61.8225 52.1823 61.4898C52.1823 61.1848 51.7942 61.0462 50.602 60.9907L48.994 60.9076V59.9649V58.9946H50.3802C51.4338 58.9946 51.7665 58.8837 51.7665 58.5787C51.7665 58.2737 51.4338 58.1628 50.3802 58.1628H48.994V57.1925V56.2221H50.6575C51.9605 56.2221 52.321 56.1389 52.321 55.8062C52.321 55.4735 51.8774 55.3904 50.103 55.3904H47.8573L47.9405 58.6341Z"
    fill="#777682" />
  <path
    d="M53.7072 58.7172C53.7072 61.4897 53.7904 62.0442 54.1231 62.0442C54.4558 62.0442 54.539 61.6006 54.539 59.6321V57.2201L56.147 59.5767C57.0064 60.852 57.9214 61.9056 58.1432 61.9056C58.4759 61.9056 58.5867 61.3233 58.6422 58.6341C58.7254 55.5289 58.6976 55.3903 58.1432 55.3903C57.6441 55.3903 57.5887 55.5566 57.5887 57.6637V59.9648L56.0638 57.6637C53.929 54.5031 53.7072 54.5863 53.7072 58.7172Z"
    fill="#777682" />
  <path
    d="M59.8066 55.8061C59.8066 56.0834 60.0839 56.222 60.6384 56.222H61.4424L61.5256 59.0499C61.6087 61.5174 61.6642 61.9056 62.1078 61.9887C62.5237 62.0719 62.5791 61.7947 62.5791 59.1608V56.2497L63.4663 56.1666C63.9376 56.1111 64.3812 55.917 64.4644 55.723C64.5476 55.4734 63.9653 55.3903 62.191 55.3903C60.2502 55.3903 59.8066 55.4734 59.8066 55.8061Z"
    fill="#777682" />
  <path
    d="M65.407 58.0242C65.5179 61.1848 65.9615 61.9056 67.8745 61.9056C69.6766 61.9056 70.0648 61.1848 70.0648 57.9965C70.0648 55.8617 69.9816 55.3904 69.6489 55.3904C69.3162 55.3904 69.233 55.8339 69.233 57.636C69.233 60.2699 68.9558 60.9353 67.9023 60.9353C66.6546 60.9353 66.4606 60.4917 66.4606 57.8301C66.4606 55.529 66.4328 55.3904 65.8784 55.3904C65.3239 55.3904 65.2961 55.5012 65.407 58.0242Z"
    fill="#777682" />
  <path
    d="M71.7837 58.6341C71.8668 61.4897 71.9223 61.9056 72.3659 61.9887C72.754 62.0719 72.8372 61.8501 72.8372 60.5193C72.8372 59.0499 72.8649 58.9668 73.4749 59.0499C73.8907 59.1054 74.3343 59.6044 74.8611 60.5748C75.3047 61.3788 75.8315 62.0442 76.0533 62.0442C76.58 62.0442 76.5523 61.7115 75.8592 60.2975L75.2493 59.0777L75.8592 58.4677C76.58 57.7469 76.6078 56.6656 75.8869 55.9448C75.4433 55.5012 74.972 55.3903 73.5303 55.3903H71.7005L71.7837 58.6341ZM75.1938 57.1924C75.1938 57.9687 75.1106 58.0241 74.0294 58.1073L72.8372 58.1905V57.1924V56.1943L74.0294 56.2775C75.1106 56.3606 75.1938 56.4161 75.1938 57.1924Z"
    fill="#777682" />
  <path
    d="M77.8831 58.6341L77.9663 61.9056H80.0456C81.7091 61.9056 82.125 61.8225 82.125 61.4898C82.125 61.1848 81.7368 61.0462 80.5447 60.9907L78.9366 60.9076V59.9649V58.9946H80.3229C81.3764 58.9946 81.7091 58.8837 81.7091 58.5787C81.7091 58.2737 81.3764 58.1628 80.3229 58.1628H78.9366V57.1925V56.2221H80.6001C81.9032 56.2221 82.2636 56.1389 82.2636 55.8062C82.2636 55.4735 81.82 55.3904 80.0456 55.3904H77.7999L77.8831 58.6341Z"
    fill="#777682" />
</svg>