<svg width="58" height="58" viewBox="0 0 58 58" fill="none" xmlns="http://www.w3.org/2000/svg">
  <path
    d="M0.773438 29.2105V57.4439H29.0068H57.2402V29.2105V0.977173H29.0068H0.773438V29.2105ZM12.9101 10.4739L15.6235 14.8983L15.6601 10.4372L15.6846 5.98828H17.1512H18.6178V12.4661V18.9439H16.699H14.7679L11.9568 14.3483L9.14567 9.75274L9.109 14.3483L9.08456 18.9439H7.61789H6.15123V12.4661V5.98828L8.18011 6.01274L10.209 6.04941L12.9101 10.4739ZM30.5957 7.25941V8.53052L27.4301 12.3683L24.2523 16.1938L27.5524 16.2306L30.8401 16.255V17.5994V18.9439H25.7068H20.5734V17.5872V16.2428L23.8123 12.3927C25.5968 10.2783 27.0512 8.53052 27.0512 8.49385C27.0512 8.45718 25.6457 8.43274 23.9346 8.43274H20.8179V7.21051V5.98828H25.7068H30.5957V7.25941ZM41.1557 14.8617C41.278 14.9105 41.3512 15.0816 41.3512 15.3261C41.3512 15.7783 41.5346 16.0106 41.9013 16.0106C42.0358 16.0106 42.2557 16.0839 42.3901 16.1694C42.5246 16.2672 42.8913 16.4383 43.209 16.5605C43.5268 16.6705 43.8079 16.8539 43.8447 16.9394C43.8813 17.0372 44.0402 17.1594 44.199 17.2206C44.3701 17.2817 44.6391 17.5994 44.8223 17.905C45.1157 18.455 45.1279 18.4917 44.9446 18.8461C44.7613 19.1883 44.7613 19.2617 44.9324 19.6283C45.0424 19.8484 45.238 20.0561 45.3724 20.105C45.6412 20.1905 45.8368 20.6672 45.6902 20.8994C45.6412 20.9727 45.678 21.1194 45.7635 21.2172C45.8857 21.3639 45.8857 21.4617 45.7757 21.6327C45.6535 21.8283 45.678 21.8405 45.9957 21.7183C46.3013 21.5961 46.3379 21.5594 46.1912 21.3883C45.7635 20.8994 46.5701 20.7039 47.1568 21.1683C47.3524 21.315 47.6702 21.5228 47.878 21.6327C48.1713 21.7794 48.2568 21.9017 48.2568 22.1827C48.2568 22.3783 48.379 22.745 48.5135 22.9772C48.6601 23.2094 48.819 23.6127 48.8557 23.8571C48.9169 24.1994 49.0634 24.395 49.4423 24.6761C50.3102 25.3239 51.3002 25.3239 52.0213 24.7006C52.938 23.8939 53.7079 23.7594 54.4657 24.2605C54.9791 24.615 55.0035 24.7372 54.6735 25.2383C54.5023 25.495 54.4291 25.8127 54.4291 26.3017C54.4291 26.9128 54.3802 27.0594 54.0501 27.4383C53.8424 27.6705 53.5613 27.8661 53.439 27.8661C53.158 27.8661 53.1458 27.9883 53.378 28.5261C53.5247 28.8805 53.5247 28.9783 53.378 29.1861C53.1335 29.5406 52.7424 29.6017 52.4735 29.3328C52.1802 29.0394 51.7402 29.0883 51.2635 29.4916C50.8235 29.8583 50.7868 30.0172 51.1291 30.1027C51.4712 30.1883 51.4468 30.7016 51.0557 31.1539C50.8846 31.3617 50.7135 31.7283 50.6768 31.9606C50.6279 32.2661 50.518 32.4494 50.3224 32.5349C50.1757 32.6083 49.9802 32.8405 49.8947 33.0483C49.809 33.2561 49.5646 33.6228 49.3446 33.8672C49.1368 34.1116 48.9169 34.4905 48.8679 34.6983C48.7702 35.1505 47.9146 35.9327 46.9979 36.385C46.4479 36.6539 46.3013 36.6783 46.0446 36.5561C45.8613 36.4828 45.7024 36.2994 45.6658 36.1649C45.629 36.0184 45.5313 35.9449 45.4334 35.9817C45.2257 36.0672 44.529 35.4072 44.529 35.1261C44.529 35.0283 44.8101 34.625 45.1402 34.2461C45.9224 33.3784 46.1057 32.8039 45.8613 32.1072C45.7146 31.6794 45.6168 31.5695 45.2012 31.435C44.9324 31.3495 44.5413 31.1172 44.3457 30.9094C44.0646 30.6527 43.8569 30.555 43.5146 30.555C42.7812 30.555 42.0846 29.6383 42.4145 29.1005C42.5246 28.9173 43.8324 28.1961 44.3213 28.0616C44.4802 28.0128 44.529 27.8661 44.529 27.4749C44.529 26.815 44.7979 25.9228 45.0301 25.7761C45.1524 25.7028 45.1524 25.666 45.0547 25.666C44.8591 25.666 44.8469 25.0305 45.0301 24.8472C45.1279 24.7494 45.1035 24.615 44.969 24.3461C44.8591 24.1383 44.7735 23.8327 44.7735 23.6616C44.7735 23.4906 44.6146 23.1727 44.4068 22.9528C44.199 22.7206 44.0402 22.4149 44.0402 22.2316C44.0402 22.0606 43.9302 21.816 43.7957 21.6939C43.6613 21.5716 43.5513 21.4371 43.5513 21.3883C43.5513 21.2049 42.4145 19.6038 41.999 19.2005C41.7546 18.9683 41.4979 18.6138 41.4124 18.406C41.3146 18.1983 41.1312 17.9172 40.9968 17.7949C40.7035 17.5383 40.6668 17.2328 40.8868 17.0127C40.9968 16.9028 40.9723 16.7927 40.7646 16.5361C40.2513 15.8883 39.8602 15.1549 39.9335 14.9716C40.0069 14.7882 40.7768 14.715 41.1557 14.8617ZM27.6379 21.5716C28.6279 21.8038 29.6912 22.3539 30.2168 22.9039L30.6324 23.3317L30.2779 23.6249C30.0823 23.7839 29.5935 24.1994 29.2024 24.5294L28.469 25.1406L27.9435 24.7372C27.0146 24.0283 25.5724 23.9183 24.399 24.4683C21.4657 25.8494 21.5024 30.7262 24.4479 32.1561C25.6212 32.7183 27.2712 32.425 28.1635 31.4961L28.5668 31.0683L29.7034 31.9238C30.3269 32.4006 30.8401 32.8528 30.8401 32.9383C30.8401 33.195 29.6546 34.185 28.9579 34.515C28.0534 34.9427 27.4057 35.065 26.0857 35.0772C22.0156 35.0894 19.2291 32.3272 19.2291 28.2938C19.2291 26.2895 19.8156 24.725 21.0256 23.4538C22.5779 21.8283 25.3524 21.0338 27.6379 21.5716ZM9.5979 22.2072C9.70789 22.4639 10.429 24.395 11.2234 26.4973C12.0179 28.5994 12.6779 30.2983 12.6901 30.2861C12.7023 30.2616 13.4479 28.3428 14.3401 25.9961L15.9656 21.755H17.469C18.3001 21.755 18.9845 21.7916 18.9845 21.8405C18.9723 21.9017 17.7745 24.8227 16.3201 28.355L13.6679 34.7717L12.5068 34.8084L11.3457 34.8328L8.779 28.4039C7.37344 24.8716 6.20011 21.9261 6.17567 21.865C6.15123 21.8038 6.83567 21.755 7.77678 21.755H9.42678L9.5979 22.2072ZM40.4224 33.1462C40.4102 33.5739 40.4346 33.6106 40.7279 33.6106C41.1923 33.6106 41.3512 33.8183 41.3512 34.4539V34.9917L41.6324 34.7472C42.2068 34.2217 43.539 34.0139 44.1501 34.3316C44.5168 34.5272 44.5168 35.3583 44.1501 35.615C43.9057 35.7862 43.8935 35.8106 44.0891 36.1895C44.3701 36.7394 44.3457 36.8861 43.8569 37.4117C43.6245 37.6805 43.4291 37.9372 43.4291 38.0106C43.4291 38.0717 43.1968 38.365 42.9035 38.6461C42.5979 38.9638 42.2802 39.4406 42.1335 39.8317C41.8646 40.5405 41.8524 40.5527 40.9601 40.9317C40.2024 41.2495 40.1779 41.5672 40.8624 41.8362C41.3757 42.0317 41.559 42.3983 41.4246 42.9483C41.3268 43.3639 40.9357 43.4617 40.3612 43.1927C39.9823 43.0339 39.8235 43.0094 39.6035 43.1194C39.4568 43.1927 38.919 43.4249 38.418 43.6328C37.9168 43.8406 37.3791 44.1095 37.2324 44.2316C36.8535 44.5494 36.5846 45.2828 36.5846 46.0039C36.5846 46.5295 36.5234 46.7006 36.2912 46.9328C36.1201 47.0795 35.949 47.3606 35.9123 47.5561C35.8635 47.7395 35.7534 47.9595 35.6679 48.0327C35.5334 48.1428 35.5334 48.2283 35.6313 48.3872C35.7046 48.5095 35.729 48.7539 35.6801 48.925C35.6191 49.1817 35.4968 49.255 34.9468 49.3772C34.3234 49.4995 34.2501 49.5606 33.6635 50.3428C33.2113 50.9539 32.9057 51.235 32.5513 51.3817C31.9646 51.6139 31.2923 51.6383 30.9258 51.4183C30.7791 51.345 30.3269 51.2716 29.9235 51.2716C29.2757 51.2716 29.1779 51.235 29.0679 50.9906C28.9702 50.7828 28.8479 50.7217 28.469 50.7217C28.0779 50.7217 27.9191 50.6483 27.7113 50.3917C27.4668 50.0862 27.4179 50.0738 27.1368 50.2205C26.6234 50.4895 24.9735 50.0862 24.9735 49.6951C24.9735 49.585 24.8634 49.4995 24.729 49.4995C24.5701 49.4995 24.4356 49.3772 24.3624 49.1939C24.2401 48.8762 24.3135 48.5217 24.4968 48.5217C24.5579 48.5217 24.6068 48.4361 24.6068 48.3384C24.6068 48.2405 24.7168 48.045 24.8512 47.9106C24.9857 47.7761 25.0957 47.6172 25.0957 47.5561C25.0957 47.495 25.2667 47.2995 25.4623 47.1406C25.6701 46.9694 25.829 46.7495 25.829 46.6639C25.829 46.4316 26.4767 45.8449 27.3202 45.2828C27.7113 45.0383 27.9924 44.7816 27.9557 44.7206C27.8945 44.6105 28.1635 44.305 29.0435 43.535C29.3857 43.2417 29.6057 43.1439 29.9724 43.1439C30.3391 43.1439 30.5713 43.0462 30.9746 42.7039C31.5123 42.2517 32.0746 41.9217 32.3068 41.9217C32.3802 41.9217 32.7713 41.5672 33.1746 41.1272C33.639 40.6384 34.1769 40.2106 34.6046 40.0028C35.6801 39.465 36.4013 38.4261 36.6701 36.9962C36.7434 36.6417 37.1223 36.2994 37.4402 36.2994C37.8069 36.2994 38.0513 35.9939 38.2346 35.3338C38.3446 34.8939 38.369 34.5884 38.2835 34.3806C38.1246 33.965 38.2468 33.8183 39.1634 33.1828C40.129 32.5105 40.4346 32.5105 40.4224 33.1462ZM28.8479 51.2962C29.0557 51.4916 29.2634 51.8094 29.3124 52.0294C29.3735 52.3595 29.3368 52.445 28.9702 52.7262C28.738 52.8972 28.4446 53.0439 28.2979 53.0439C28.1635 53.0439 28.0046 53.0927 27.9679 53.1661C27.8457 53.3617 27.2101 53.3129 27.0023 53.0927C26.7457 52.8483 26.7579 52.6894 27.0268 52.5917C27.3813 52.4572 27.5402 52.1517 27.4668 51.7484C27.4057 51.4428 27.4545 51.3206 27.6745 51.1617C28.0901 50.8805 28.4079 50.9173 28.8479 51.2962Z"
    fill="#777682" />
</svg>