<svg width="670" height="336" viewBox="0 0 670 336" fill="none" xmlns="http://www.w3.org/2000/svg">
<path d="M120.29 139.927H100.609C96.3043 139.927 92.8203 143.411 92.8203 147.716C92.8203 152.021 96.3043 155.505 100.609 155.505H115.257L117.862 160.019L120.475 155.496C124.687 155.396 128.079 151.954 128.079 147.716C128.079 143.411 124.595 139.927 120.29 139.927Z" fill="#F5EDFF" stroke="#5100CD" stroke-linecap="round" stroke-linejoin="round"/>
<path d="M106.17 134.307H84.06C79.2265 134.307 75.3081 138.226 75.3081 143.059C75.3081 147.893 79.2265 151.811 84.06 151.811H106.17C111.004 151.811 114.922 147.893 114.922 143.059C114.922 138.226 111.004 134.307 106.17 134.307Z" fill="#5100CD" stroke="#5100CD" stroke-linecap="round" stroke-linejoin="round"/>
<path d="M86.7819 156.886L92.2592 147.397H81.3047L86.7819 156.886Z" fill="#5100CD" stroke="#5100CD" stroke-linecap="round" stroke-linejoin="round"/>
<path d="M541.62 229.221V110.933" stroke="#5100CD" stroke-linecap="round" stroke-linejoin="round"/>
<path d="M461.655 221.424V156.375" stroke="#5100CD" stroke-linecap="round" stroke-linejoin="round"/>
<path d="M86.7817 230.62V162.673" stroke="#5100CD" stroke-linecap="round" stroke-linejoin="round"/>
<path d="M117.819 230.62V162.673" stroke="#5100CD" stroke-linecap="round" stroke-linejoin="round"/>
<path d="M373.55 185.252L415.735 160.756" stroke="#5100CD" stroke-linecap="round" stroke-linejoin="round"/>
<path d="M398.022 258.383L493.84 202.731" stroke="#5100CD" stroke-linecap="round" stroke-linejoin="round"/>
<path d="M576.158 218.51L607.615 200.235" stroke="#5100CD" stroke-linecap="round" stroke-linejoin="round"/>
<path d="M415.727 160.747L541.62 229.573" stroke="#5100CD" stroke-linecap="round" stroke-linejoin="round"/>
<path d="M341.08 227.488L397.603 258.391" stroke="#5100CD" stroke-linecap="round" stroke-linejoin="round"/>
<path d="M158.296 267.26L214.819 298.164" stroke="#5100CD" stroke-linecap="round" stroke-linejoin="round"/>
<path d="M542.675 199.724L576.158 218.032" stroke="#5100CD" stroke-linecap="round" stroke-linejoin="round"/>
<path d="M437.167 173.109L439.646 171.66L437.167 170.186L434.679 171.66L437.167 173.109Z" fill="#F5EDFF" stroke="#5100CD" stroke-linecap="round" stroke-linejoin="round"/>
<path d="M437.167 175.705V173.109L439.646 171.66V174.281L437.167 175.705Z" fill="#5100CD" stroke="#5100CD" stroke-linecap="round" stroke-linejoin="round"/>
<path d="M434.679 174.231V171.66L437.167 173.109V175.705L434.679 174.231Z" fill="#F5EDFF" stroke="#5100CD" stroke-linecap="round" stroke-linejoin="round"/>
<path d="M541.628 228.308L544.107 226.86L541.628 225.385L539.141 226.86L541.628 228.308Z" fill="#F5EDFF" stroke="#5100CD" stroke-linecap="round" stroke-linejoin="round"/>
<path d="M541.628 230.905V228.308L544.107 226.859V229.481L541.628 230.905Z" fill="#5100CD" stroke="#5100CD" stroke-linecap="round" stroke-linejoin="round"/>
<path d="M539.141 229.431V226.859L541.628 228.308V230.905L539.141 229.431Z" fill="#F5EDFF" stroke="#5100CD" stroke-linecap="round" stroke-linejoin="round"/>
<path d="M493.84 202.731L496.319 201.282L493.84 199.808L491.353 201.282L493.84 202.731Z" fill="#F5EDFF" stroke="#5100CD" stroke-linecap="round" stroke-linejoin="round"/>
<path d="M493.84 205.327V202.731L496.319 201.282V203.904L493.84 205.327Z" fill="#5100CD" stroke="#5100CD" stroke-linecap="round" stroke-linejoin="round"/>
<path d="M491.353 203.853V201.282L493.84 202.731V205.327L491.353 203.853Z" fill="#F5EDFF" stroke="#5100CD" stroke-linecap="round" stroke-linejoin="round"/>
<path d="M541.628 180.571L544.107 179.122L541.628 177.648L539.141 179.122L541.628 180.571Z" fill="#F5EDFF" stroke="#5100CD" stroke-linecap="round" stroke-linejoin="round"/>
<path d="M541.628 183.167V180.571L544.107 179.122V181.743L541.628 183.167Z" fill="#5100CD" stroke="#5100CD" stroke-linecap="round" stroke-linejoin="round"/>
<path d="M539.141 181.693V179.122L541.628 180.571V183.167L539.141 181.693Z" fill="#F5EDFF" stroke="#5100CD" stroke-linecap="round" stroke-linejoin="round"/>
<path d="M541.762 199.063L544.241 197.614L541.762 196.14L539.275 197.614L541.762 199.063Z" fill="#F5EDFF" stroke="#5100CD" stroke-linecap="round" stroke-linejoin="round"/>
<path d="M541.762 201.659V199.063L544.241 197.614V200.235L541.762 201.659Z" fill="#5100CD" stroke="#5100CD" stroke-linecap="round" stroke-linejoin="round"/>
<path d="M539.275 200.185V197.614L541.762 199.063V201.659L539.275 200.185Z" fill="#F5EDFF" stroke="#5100CD" stroke-linecap="round" stroke-linejoin="round"/>
<path d="M576.158 218.191L578.637 216.743L576.158 215.269L573.671 216.743L576.158 218.191Z" fill="#F5EDFF" stroke="#5100CD" stroke-linecap="round" stroke-linejoin="round"/>
<path d="M576.158 220.788V218.191L578.637 216.743V219.364L576.158 220.788Z" fill="#5100CD" stroke="#5100CD" stroke-linecap="round" stroke-linejoin="round"/>
<path d="M573.671 219.314V216.743L576.158 218.191V220.788L573.671 219.314Z" fill="#F5EDFF" stroke="#5100CD" stroke-linecap="round" stroke-linejoin="round"/>
<path d="M461.655 221.424L464.134 219.975L461.655 218.501L459.168 219.975L461.655 221.424Z" fill="#F5EDFF" stroke="#5100CD" stroke-linecap="round" stroke-linejoin="round"/>
<path d="M461.655 224.02V221.424L464.134 219.975V222.597L461.655 224.02Z" fill="#5100CD" stroke="#5100CD" stroke-linecap="round" stroke-linejoin="round"/>
<path d="M459.168 222.546V219.975L461.655 221.424V224.02L459.168 222.546Z" fill="#F5EDFF" stroke="#5100CD" stroke-linecap="round" stroke-linejoin="round"/>
<path d="M418.214 246.239L420.693 244.79L418.214 243.316L415.727 244.79L418.214 246.239Z" fill="#F5EDFF" stroke="#5100CD" stroke-linecap="round" stroke-linejoin="round"/>
<path d="M418.214 248.836V246.239L420.693 244.79V247.412L418.214 248.836Z" fill="#5100CD" stroke="#5100CD" stroke-linecap="round" stroke-linejoin="round"/>
<path d="M415.727 247.362V244.79L418.214 246.239V248.836L415.727 247.362Z" fill="#F5EDFF" stroke="#5100CD" stroke-linecap="round" stroke-linejoin="round"/>
<path d="M398.022 258.383L400.501 256.934L398.022 255.46L395.534 256.934L398.022 258.383Z" fill="#F5EDFF" stroke="#5100CD" stroke-linecap="round" stroke-linejoin="round"/>
<path d="M398.022 260.979V258.383L400.501 256.934V259.555L398.022 260.979Z" fill="#5100CD" stroke="#5100CD" stroke-linecap="round" stroke-linejoin="round"/>
<path d="M395.534 259.505V256.934L398.022 258.383V260.979L395.534 259.505Z" fill="#F5EDFF" stroke="#5100CD" stroke-linecap="round" stroke-linejoin="round"/>
<path d="M415.735 163.343V160.747L418.214 159.307V161.92L415.735 163.343Z" fill="#5100CD" stroke="#5100CD" stroke-linecap="round" stroke-linejoin="round"/>
<path d="M413.248 161.869V159.307L415.735 160.747V163.343L413.248 161.869Z" fill="#F5EDFF" stroke="#5100CD" stroke-linecap="round" stroke-linejoin="round"/>
<path d="M415.735 160.747L418.214 159.307L415.735 157.824L413.248 159.307L415.735 160.747Z" fill="#F5EDFF" stroke="#5100CD" stroke-linecap="round" stroke-linejoin="round"/>
<path d="M273.477 169.524L167.776 230.905" stroke="#5100CD" stroke-linecap="round" stroke-linejoin="round"/>
<path d="M197.826 212.932L200.824 211.19L197.826 209.406L194.828 211.19L197.826 212.932Z" fill="#F5EDFF" stroke="#5100CD" stroke-linecap="round" stroke-linejoin="round"/>
<path d="M197.826 216.073V212.932L200.824 211.19V214.347L197.826 216.073Z" fill="#5100CD" stroke="#5100CD" stroke-linecap="round" stroke-linejoin="round"/>
<path d="M194.828 214.289V211.19L197.826 212.932V216.073L194.828 214.289Z" fill="#F5EDFF" stroke="#5100CD" stroke-linecap="round" stroke-linejoin="round"/>
<path d="M117.82 193.694L120.818 191.952L117.82 190.169L114.821 191.952L117.82 193.694Z" fill="#F5EDFF" stroke="#5100CD" stroke-linecap="round" stroke-linejoin="round"/>
<path d="M117.82 196.835V193.694L120.818 191.952V195.11L117.82 196.835Z" fill="#5100CD" stroke="#5100CD" stroke-linecap="round" stroke-linejoin="round"/>
<path d="M114.821 195.051V191.952L117.82 193.694V196.835L114.821 195.051Z" fill="#F5EDFF" stroke="#5100CD" stroke-linecap="round" stroke-linejoin="round"/>
<path d="M86.7817 169.717L89.7799 167.975L86.7817 166.191L83.7834 167.975L86.7817 169.717Z" fill="#F5EDFF" stroke="#5100CD" stroke-linecap="round" stroke-linejoin="round"/>
<path d="M86.7817 172.857V169.717L89.78 167.975V171.132L86.7817 172.857Z" fill="#5100CD" stroke="#5100CD" stroke-linecap="round" stroke-linejoin="round"/>
<path d="M83.7834 171.074V167.975L86.7817 169.717V172.857L83.7834 171.074Z" fill="#F5EDFF" stroke="#5100CD" stroke-linecap="round" stroke-linejoin="round"/>
<path d="M321.357 236.851L215.656 298.231" stroke="#5100CD" stroke-linecap="round" stroke-linejoin="round"/>
<path d="M304.85 246.206L307.848 244.464L304.85 242.68L301.852 244.464L304.85 246.206Z" fill="#F5EDFF" stroke="#5100CD" stroke-linecap="round" stroke-linejoin="round"/>
<path d="M304.85 249.346V246.206L307.848 244.464V247.621L304.85 249.346Z" fill="#5100CD" stroke="#5100CD" stroke-linecap="round" stroke-linejoin="round"/>
<path d="M301.852 247.562V244.464L304.85 246.206V249.346L301.852 247.562Z" fill="#F5EDFF" stroke="#5100CD" stroke-linecap="round" stroke-linejoin="round"/>
<path d="M215.656 298.24L218.654 296.498L215.656 294.714L212.658 296.498L215.656 298.24Z" fill="#F5EDFF" stroke="#5100CD" stroke-linecap="round" stroke-linejoin="round"/>
<path d="M215.656 301.38V298.24L218.654 296.498V299.655L215.656 301.38Z" fill="#5100CD" stroke="#5100CD" stroke-linecap="round" stroke-linejoin="round"/>
<path d="M212.658 299.596V296.498L215.656 298.24V301.38L212.658 299.596Z" fill="#F5EDFF" stroke="#5100CD" stroke-linecap="round" stroke-linejoin="round"/>
<path d="M283.268 173.184V187.355V201.533L297.438 193.301V179.122V164.951L283.268 173.184Z" fill="#5100CD" stroke="#5100CD" stroke-linecap="round" stroke-linejoin="round"/>
<path d="M269.089 150.773L283.268 142.54L339.966 175.47L325.796 183.703L269.089 150.773Z" fill="#F5EDFF" stroke="#5100CD" stroke-linecap="round" stroke-linejoin="round"/>
<path d="M311.617 104.61L325.787 96.377V110.547L311.617 118.78V104.61Z" fill="#5100CD" stroke="#5100CD" stroke-linecap="round" stroke-linejoin="round"/>
<path d="M325.788 141.183L311.617 132.951L297.438 124.718L283.268 116.485L269.097 108.253V122.432L283.268 130.664L297.438 138.897L311.617 147.129L325.788 155.362V169.533V183.703L311.617 175.47L297.438 167.238L283.268 159.005L269.097 150.773V164.951V179.122V193.301V207.471L283.268 215.704L297.438 223.937L311.617 232.169L325.788 240.402L339.958 248.634V234.464L325.788 226.231L311.617 217.999L297.438 209.766L283.268 201.533V187.355V173.184L297.438 181.417L311.617 189.649L325.788 197.882L339.958 206.115V191.936V177.765V163.595V149.416L325.788 141.183Z" fill="#F5EDFF" stroke="#5100CD" stroke-linecap="round" stroke-linejoin="round"/>
<path d="M354.137 115.129L339.958 106.896L325.787 98.6634L311.617 90.4307L297.438 82.1981V96.3686V110.547L311.617 118.78V104.601L325.787 112.842L339.958 121.075L354.137 129.307L368.307 137.54V123.361L354.137 115.129Z" fill="#F5EDFF" stroke="#5100CD" stroke-linecap="round" stroke-linejoin="round"/>
<path d="M368.307 137.54V123.361L382.486 115.129V129.308L368.307 137.54Z" fill="#5100CD" stroke="#5100CD" stroke-linecap="round" stroke-linejoin="round"/>
<path d="M354.137 157.648V171.827V185.998V200.168V214.347L368.307 222.58V208.401V194.23V180.06V165.881L354.137 157.648Z" fill="#F5EDFF" stroke="#5100CD" stroke-linecap="round" stroke-linejoin="round"/>
<path d="M368.307 165.881V180.06V194.23V208.401V222.58L382.486 214.347V200.168V185.998V171.827V157.648L368.307 165.881Z" fill="#5100CD" stroke="#5100CD" stroke-linecap="round" stroke-linejoin="round"/>
<path d="M339.958 149.416V163.595V177.765V191.936V206.115L354.137 197.882V183.703V169.533V155.362V141.183L339.958 149.416Z" fill="#5100CD" stroke="#5100CD" stroke-linecap="round" stroke-linejoin="round"/>
<path d="M339.958 234.464L354.137 226.231V240.402L339.958 248.634V234.464Z" fill="#5100CD" stroke="#5100CD" stroke-linecap="round" stroke-linejoin="round"/>
<path d="M382.486 157.648L368.307 149.416L354.137 157.648L368.307 165.881L382.486 157.648Z" fill="#F5EDFF" stroke="#5100CD" stroke-linecap="round" stroke-linejoin="round"/>
<path d="M297.438 82.1981L311.617 73.9655L382.486 115.129L368.307 123.361L297.438 82.1981Z" fill="#F5EDFF" stroke="#5100CD" stroke-linecap="round" stroke-linejoin="round"/>
<path d="M269.089 108.253L283.268 100.02L354.137 141.183L339.958 149.416L269.089 108.253Z" fill="#F5EDFF" stroke="#5100CD" stroke-linecap="round" stroke-linejoin="round"/>
<path d="M283.268 201.533L297.438 193.292L354.137 226.231L339.958 234.464L283.268 201.533Z" fill="#F5EDFF" stroke="#5100CD" stroke-linecap="round" stroke-linejoin="round"/>
<path d="M36.2554 251.407V263.442L129.268 317.494V305.459L36.2554 251.407Z" fill="#F5EDFF" stroke="#5100CD" stroke-linecap="round" stroke-linejoin="round"/>
<path d="M129.268 305.459L222.281 251.407L129.268 196.107L36.2554 251.407L129.268 305.459Z" fill="#F5EDFF" stroke="#5100CD" stroke-linecap="round" stroke-linejoin="round"/>
<path d="M129.268 305.459V317.494L222.281 263.442V251.407L129.268 305.459Z" fill="#5100CD" stroke="#5100CD" stroke-linecap="round" stroke-linejoin="round"/>
<path d="M128.305 262.135V297.327L157.483 280.384V245.167L128.305 262.135Z" fill="#DBC8F6" stroke="#5100CD" stroke-linecap="round" stroke-linejoin="round"/>
<path d="M113.037 253.316L128.305 262.135V297.327L113.037 288.508V253.316Z" fill="#F5EDFF" stroke="#5100CD" stroke-linecap="round" stroke-linejoin="round"/>
<path d="M142.199 236.424L113.037 253.316L128.305 262.135L157.483 245.167L142.199 236.424Z" fill="#F5EDFF" stroke="#5100CD" stroke-linecap="round" stroke-linejoin="round"/>
<path d="M133.941 221.039V238.601L149.209 247.42V229.858L133.941 221.039Z" fill="#F5EDFF" stroke="#5100CD" stroke-linecap="round" stroke-linejoin="round"/>
<path d="M133.916 221.039V238.601L118.649 247.42V229.858L133.916 221.039Z" fill="#F5EDFF" stroke="#5100CD" stroke-linecap="round" stroke-linejoin="round"/>
<path d="M149.201 247.362V229.782L133.933 238.601V256.18L149.201 247.362Z" fill="#DBC8F6" stroke="#5100CD" stroke-linecap="round" stroke-linejoin="round"/>
<path d="M118.657 247.362V229.782L133.925 238.601V256.18L118.657 247.362Z" fill="#F5EDFF" stroke="#5100CD" stroke-linecap="round" stroke-linejoin="round"/>
<path d="M133.925 238.601L118.657 229.782L133.916 221.039L149.201 229.782L133.933 238.601H133.925Z" fill="#F5EDFF" stroke="#5100CD" stroke-linecap="round" stroke-linejoin="round"/>
<path d="M102.049 241.365L79.9561 254.606L85.8353 258.006L108.297 244.941L102.049 241.365Z" fill="#F5EDFF" stroke="#5100CD" stroke-linecap="round" stroke-linejoin="round"/>
<path d="M90.1985 243.802V252.253L98.4562 247.462V238.995L90.1985 243.802Z" fill="#DBC8F6" stroke="#5100CD" stroke-linecap="round" stroke-linejoin="round"/>
<path d="M88.0378 242.554L90.1986 243.802V252.253L88.0378 251.005V242.554Z" fill="#F5EDFF" stroke="#5100CD" stroke-linecap="round" stroke-linejoin="round"/>
<path d="M96.1616 237.68L88.0378 242.554L90.1986 243.802L98.4563 238.995L96.1616 237.68Z" fill="#F5EDFF" stroke="#5100CD" stroke-linecap="round" stroke-linejoin="round"/>
<path d="M83.3562 221.809V251.675L112.526 234.732V204.842L83.3562 221.809Z" fill="#DBC8F6" stroke="#5100CD" stroke-linecap="round" stroke-linejoin="round"/>
<path d="M83.3562 245.352V251.683L112.526 234.749V228.384L83.3562 245.352Z" fill="#DBC8F6" stroke="#5100CD" stroke-linecap="round" stroke-linejoin="round"/>
<path d="M75.7183 217.404L83.3563 221.809V251.675L75.7183 247.261V217.404Z" fill="#F5EDFF" stroke="#5100CD" stroke-linecap="round" stroke-linejoin="round"/>
<path d="M104.411 200.202L75.7183 217.404L83.3563 221.809L112.526 204.842L104.411 200.202Z" fill="#F5EDFF" stroke="#5100CD" stroke-linecap="round" stroke-linejoin="round"/>
<path d="M87.7449 236.156V242.554L93.0462 239.472V233.074L87.7449 236.156Z" fill="#5100CD"/>
<path d="M91.5388 233.467V230.268L88.7583 231.868V235.067L91.5388 233.467Z" fill="#5100CD"/>
<path d="M95.634 231.792V238.191L100.935 235.109V228.702L95.634 231.792Z" fill="#5100CD"/>
<path d="M99.428 229.104V225.905L96.6475 227.504V230.704L99.428 229.104Z" fill="#5100CD"/>
<path d="M143.037 213.552L165.13 226.793L159.251 230.193L136.789 217.128L143.037 213.552Z" fill="#DBC8F6" stroke="#5100CD" stroke-linecap="round" stroke-linejoin="round"/>
<path d="M154.887 215.989V224.439L146.621 219.649V211.19L154.887 215.989Z" fill="#F5EDFF" stroke="#5100CD" stroke-linecap="round" stroke-linejoin="round"/>
<path d="M157.048 214.741L154.887 215.989V224.439L157.048 223.191V214.741Z" fill="#DBC8F6" stroke="#5100CD" stroke-linecap="round" stroke-linejoin="round"/>
<path d="M148.924 209.875L157.048 214.741L154.887 215.989L146.621 211.19L148.924 209.875Z" fill="#DBC8F6" stroke="#5100CD" stroke-linecap="round" stroke-linejoin="round"/>
<path d="M161.73 194.004V223.861L132.551 206.919V177.037L161.73 194.004Z" fill="#F5EDFF" stroke="#5100CD" stroke-linecap="round" stroke-linejoin="round"/>
<path d="M161.73 217.538V223.87L132.551 206.935V200.57L161.73 217.538Z" fill="#F5EDFF" stroke="#5100CD" stroke-linecap="round" stroke-linejoin="round"/>
<path d="M169.359 189.591L161.729 194.004V223.861L169.359 219.448V189.591Z" fill="#DBC8F6" stroke="#5100CD" stroke-linecap="round" stroke-linejoin="round"/>
<path d="M140.666 172.389L169.359 189.591L161.73 194.004L132.551 177.037L140.666 172.389Z" fill="#DBC8F6" stroke="#5100CD" stroke-linecap="round" stroke-linejoin="round"/>
<path d="M141.403 198.954V205.353L136.102 202.271V195.864L141.403 198.954Z" fill="#5100CD"/>
<path d="M137.61 196.266V193.066L140.39 194.666V197.865L137.61 196.266Z" fill="#5100CD"/>
<path d="M148.388 202.773V209.171L143.087 206.089V199.683L148.388 202.773Z" fill="#5100CD"/>
<path d="M144.594 200.085V196.885L147.375 198.485V201.684L144.594 200.085Z" fill="#5100CD"/>
<path d="M154.887 207.153V213.552L149.577 210.47V204.063L154.887 207.153Z" fill="#5100CD"/>
<path d="M151.085 204.465V201.266L153.865 202.865V206.064L151.085 204.465Z" fill="#5100CD"/>
<path d="M484.628 108.144V118.227L562.574 163.519V153.436L484.628 108.144Z" fill="#F5EDFF" stroke="#5100CD" stroke-linecap="round" stroke-linejoin="round"/>
<path d="M562.574 153.444L640.52 108.152L562.574 61.8051L484.628 108.152L562.574 153.444Z" fill="#F5EDFF" stroke="#5100CD" stroke-linecap="round" stroke-linejoin="round"/>
<path d="M562.574 153.444V163.528L640.52 118.236V108.152L562.574 153.444Z" fill="#5100CD" stroke="#5100CD" stroke-linecap="round" stroke-linejoin="round"/>
<path d="M539.76 103.764L559.157 92.4911L539.76 80.9587L520.364 92.4911L539.76 103.764Z" fill="#F5EDFF" stroke="#5100CD" stroke-linecap="round" stroke-linejoin="round"/>
<path d="M539.76 103.764L539.618 104.007C539.71 104.057 539.819 104.057 539.903 104.007L539.76 103.764ZM559.157 92.491L559.299 92.7339C559.383 92.6837 559.442 92.5915 559.442 92.491C559.442 92.3905 559.391 92.2984 559.299 92.2482L559.157 92.491ZM520.364 92.491L520.221 92.2482C520.138 92.2984 520.079 92.3905 520.079 92.491C520.079 92.5915 520.129 92.6837 520.221 92.7339L520.364 92.491ZM539.76 80.9587L539.903 80.7158C539.811 80.6655 539.702 80.6655 539.61 80.7158L539.752 80.9587H539.76ZM531.729 92.4157L531.586 92.1728C531.503 92.223 531.444 92.3152 531.444 92.4157C531.444 92.5162 531.494 92.6083 531.586 92.6585L531.729 92.4157ZM539.76 87.6335H540.045C540.045 87.533 539.986 87.4409 539.903 87.3907C539.811 87.3404 539.702 87.3404 539.618 87.3907L539.76 87.6335ZM539.76 87.6335H539.476C539.476 87.734 539.526 87.8262 539.618 87.8764L539.76 87.6335ZM547.792 92.4073L547.934 92.6502C548.018 92.5999 548.077 92.5078 548.077 92.4073C548.077 92.3068 548.026 92.2147 547.934 92.1644L547.792 92.4073ZM539.76 97.0722L539.618 97.315C539.71 97.3653 539.819 97.3653 539.903 97.315L539.76 97.0722ZM539.903 103.998L559.299 92.7255L559.014 92.2314L539.618 103.504L539.903 103.998ZM520.221 92.7255L539.618 103.998L539.903 103.504L520.506 92.2314L520.221 92.7255ZM539.618 80.699L520.221 92.2314L520.515 92.7172L539.911 81.1848L539.618 80.699ZM559.299 92.2314L539.903 80.699L539.61 81.1848L559.006 92.7172L559.299 92.2314ZM531.586 92.6418L533.261 93.6133L533.546 93.1192L531.871 92.1477L531.586 92.6418ZM539.61 87.3739L531.578 92.1477L531.871 92.6334L539.903 87.8597L539.61 87.3739ZM547.926 92.156L539.894 87.3823L539.601 87.868L547.633 92.6418L547.926 92.156ZM546.251 93.6217L547.926 92.6502L547.641 92.156L545.966 93.1275L546.251 93.6217ZM539.894 97.315L546.251 93.6217L545.966 93.1275L539.61 96.8209L539.894 97.315ZM533.253 93.6217L539.61 97.315L539.894 96.8209L533.538 93.1275L533.253 93.6217Z" fill="#5100CD"/>
<path d="M531.729 92.4157L533.404 93.3872C535.506 92.1393 539.76 89.6017 539.76 89.6017V87.6335L531.729 92.4073V92.4157Z" fill="#5100CD" stroke="#5100CD" stroke-linecap="round" stroke-linejoin="round"/>
<path d="M539.76 87.642V89.6017L546.117 93.3872L547.792 92.4157L539.76 87.642Z" stroke="#5100CD" stroke-linecap="round" stroke-linejoin="round"/>
<path d="M546.117 93.3872L539.76 89.6017C539.76 89.6017 535.498 92.1393 533.404 93.3872L539.76 97.0806L546.117 93.3872Z" stroke="#5100CD" stroke-linecap="round" stroke-linejoin="round"/>
<path d="M559.148 92.4911V108.981L539.752 120.254V103.764L559.148 92.4911Z" fill="#5100CD" stroke="#5100CD" stroke-linecap="round" stroke-linejoin="round"/>
<path d="M520.355 92.4911L539.752 103.764V120.254L520.355 108.981V92.4911Z" fill="#F5EDFF" stroke="#5100CD" stroke-linecap="round" stroke-linejoin="round"/>
<path d="M535.573 85.7492V89.9199L539.744 87.5079V83.3372L535.573 85.7492Z" fill="#F5EDFF" stroke="#5100CD" stroke-linecap="round" stroke-linejoin="round"/>
<path d="M543.939 85.7492V89.9199L539.76 87.5079V83.3372L543.939 85.7492Z" fill="#F5EDFF" stroke="#5100CD" stroke-linecap="round" stroke-linejoin="round"/>
<path d="M539.752 92.3152V88.1444L535.581 85.7324V89.9032L539.752 92.3152Z" fill="#F5EDFF" stroke="#5100CD" stroke-linecap="round" stroke-linejoin="round"/>
<path d="M539.76 92.3152V88.1444L543.931 85.7324V89.9032L539.76 92.3152Z" fill="#5100CD" stroke="#5100CD" stroke-linecap="round" stroke-linejoin="round"/>
<path d="M535.581 85.7324L539.752 83.3372L543.923 85.7324L539.752 88.1444L535.581 85.7324Z" fill="#F5EDFF" stroke="#5100CD" stroke-linecap="round" stroke-linejoin="round"/>
<path d="M535.573 73.0778V77.2485L539.744 74.8365V70.6658L535.573 73.0778Z" fill="#F5EDFF" stroke="#5100CD" stroke-linecap="round" stroke-linejoin="round"/>
<path d="M543.939 73.0778V77.2485L539.76 74.8365V70.6658L543.939 73.0778Z" fill="#F5EDFF" stroke="#5100CD" stroke-linecap="round" stroke-linejoin="round"/>
<path d="M539.752 79.6438V75.473L535.581 73.061V77.2318L539.752 79.6438Z" fill="#F5EDFF" stroke="#5100CD" stroke-linecap="round" stroke-linejoin="round"/>
<path d="M539.76 79.6438V75.473L543.931 73.061V77.2318L539.76 79.6438Z" fill="#5100CD" stroke="#5100CD" stroke-linecap="round" stroke-linejoin="round"/>
<path d="M535.581 73.0527L539.752 70.6575L543.923 73.0527L539.752 75.4647L535.581 73.0527Z" fill="#F5EDFF" stroke="#5100CD" stroke-linecap="round" stroke-linejoin="round"/>
<path d="M539.752 61.6125V57.4334L535.581 55.0214V59.2005L539.752 61.6125Z" fill="#F5EDFF" stroke="#5100CD" stroke-linecap="round" stroke-linejoin="round"/>
<path d="M539.76 61.6125V57.4334L543.931 55.0214V59.2005L539.76 61.6125Z" fill="#5100CD" stroke="#5100CD" stroke-linecap="round" stroke-linejoin="round"/>
<path d="M535.581 55.0213L539.752 52.6344L543.923 55.0213L539.752 57.4333L535.581 55.0213Z" fill="#F5EDFF" stroke="#5100CD" stroke-linecap="round" stroke-linejoin="round"/>
<path d="M539.752 35.5243V31.3535L535.581 28.9415V33.1123L539.752 35.5243Z" fill="#F5EDFF" stroke="#5100CD" stroke-linecap="round" stroke-linejoin="round"/>
<path d="M539.76 35.5243V31.3535L543.931 28.9415V33.1123L539.76 35.5243Z" fill="#5100CD" stroke="#5100CD" stroke-linecap="round" stroke-linejoin="round"/>
<path d="M535.581 28.9416L539.752 26.5547L543.923 28.9416L539.752 31.3536L535.581 28.9416Z" fill="#F5EDFF" stroke="#5100CD" stroke-linecap="round" stroke-linejoin="round"/>
<path d="M584.416 128.604L568.001 119.157L566.887 119.802L583.302 129.249L584.416 128.604Z" fill="#5100CD"/>
<path d="M583.511 130.874L565.589 120.564L565.363 120.69L583.285 130.999L583.511 130.874Z" fill="#5100CD"/>
<path d="M582.096 131.695L564.173 121.385L563.947 121.511L581.87 131.82L582.096 131.695Z" fill="#5100CD"/>
<path d="M580.681 132.507L562.758 122.197L562.532 122.323L580.455 132.633L580.681 132.507Z" fill="#5100CD"/>
<path d="M570.438 128.252L561.334 123.018L561.108 123.144L570.212 128.378L570.438 128.252Z" fill="#5100CD"/>
<path d="M559.215 126.954L560.262 126.351L570.103 132.013L569.056 132.616L559.215 126.954ZM570.329 132.013L560.262 126.217L558.998 126.954L569.064 132.75L570.329 132.013Z" fill="#5100CD"/>
<path d="M556.292 128.638L557.339 128.035L564.475 132.138L563.428 132.741L556.292 128.638ZM564.701 132.138L557.339 127.901L556.075 128.638L563.436 132.875L564.701 132.138Z" fill="#5100CD"/>
<path d="M553.378 130.329L554.425 129.726L562.892 134.601L561.845 135.204L553.378 130.329ZM563.118 134.601L554.425 129.601L553.16 130.338L561.854 135.338L563.118 134.601Z" fill="#5100CD"/>
<path d="M550.464 132.021L551.51 131.418L557.055 134.609L556.008 135.212L550.464 132.021ZM557.272 134.601L551.51 131.284L550.246 132.021L556.008 135.338L557.272 134.601Z" fill="#5100CD"/>
<path d="M559.014 125.304L558.361 125.43L557.808 125.187V125.589L557.256 125.824L557.917 125.941L558.127 126.326L558.529 126H559.215L558.805 125.681L559.023 125.304H559.014Z" fill="#5100CD"/>
<path d="M555.422 127.825L555.313 127.758L555.036 127.917L554.76 127.758L554.651 127.825L555.045 128.051L555.43 127.825H555.422Z" fill="#5100CD"/>
<path d="M554.391 127.231L554.283 127.164L553.889 127.39L554.283 127.616L554.391 127.549L554.115 127.39L554.391 127.231Z" fill="#5100CD"/>
<path d="M555.413 126.963L555.02 126.736L554.626 126.963L554.735 127.03L555.011 126.87L555.288 127.03L555.397 126.963H555.413Z" fill="#5100CD"/>
<path opacity="0.25" d="M555.706 127.206L555.405 127.03L554.777 127.39L555.405 127.75L555.706 127.574L555.664 127.549L555.941 127.39L555.664 127.231L555.706 127.206Z" fill="#5100CD"/>
<path d="M556.024 127.39L555.698 127.205L555.656 127.231L555.932 127.39L555.656 127.549L555.698 127.574L556.016 127.39H556.024Z" fill="#5100CD"/>
<path d="M556.829 127.39L555.799 126.795L555.396 127.03L556.025 127.39L555.396 127.75L555.799 127.984L556.82 127.39H556.829Z" fill="#5100CD"/>
<path d="M551.921 129.416C551.569 129.215 551.611 128.839 551.628 128.721C551.82 128.713 552.474 128.688 552.825 128.889C553.177 129.09 553.135 129.467 553.118 129.584C552.926 129.601 552.273 129.617 551.912 129.416H551.921ZM552.943 128.822C552.465 128.546 551.586 128.629 551.544 128.638H551.485L551.477 128.671C551.477 128.696 551.334 129.207 551.804 129.475C552.281 129.751 553.16 129.668 553.202 129.659H553.261L553.269 129.617C553.269 129.592 553.412 129.082 552.943 128.814" fill="#5100CD"/>
<path d="M552.641 128.998C552.499 128.914 552.256 128.914 552.113 128.998C551.971 129.081 551.971 129.215 552.113 129.299C552.256 129.383 552.49 129.383 552.641 129.299C552.783 129.215 552.783 129.081 552.641 128.998Z" fill="#5100CD"/>
<path d="M549.651 130.731C549.542 130.673 549.375 130.673 549.266 130.731C549.157 130.79 549.157 130.89 549.266 130.957C549.375 131.016 549.542 131.016 549.651 130.957C549.76 130.899 549.752 130.798 549.651 130.731Z" fill="#5100CD"/>
<path d="M549.794 130.648C549.735 130.614 549.735 130.555 549.794 130.514C549.852 130.48 549.953 130.48 550.02 130.514C550.078 130.547 550.087 130.606 550.02 130.648C549.953 130.681 549.852 130.681 549.794 130.648ZM550.045 130.497C549.97 130.455 549.844 130.455 549.76 130.497C549.685 130.539 549.685 130.614 549.76 130.656C549.836 130.698 549.961 130.698 550.045 130.656C550.12 130.614 550.12 130.539 550.045 130.497Z" fill="#5100CD"/>
<path d="M548.889 131.167C548.831 131.133 548.831 131.075 548.889 131.033C548.956 130.999 549.057 130.999 549.115 131.033C549.174 131.066 549.182 131.125 549.115 131.167C549.057 131.2 548.948 131.2 548.889 131.167ZM549.14 131.016C549.065 130.974 548.939 130.974 548.856 131.016C548.78 131.058 548.78 131.133 548.856 131.175C548.931 131.217 549.057 131.217 549.14 131.175C549.216 131.133 549.216 131.058 549.14 131.008V131.016Z" fill="#5100CD"/>
<path d="M549.986 130.907C549.986 130.907 549.936 130.865 549.936 130.84C549.936 130.79 550.011 130.748 550.095 130.748C550.137 130.748 550.179 130.756 550.212 130.773C550.246 130.79 550.263 130.815 550.263 130.84C550.263 130.865 550.246 130.89 550.212 130.907C550.179 130.924 550.145 130.932 550.103 130.932C550.062 130.932 550.02 130.924 549.995 130.907H549.986ZM550.237 130.765C550.237 130.765 550.145 130.731 550.095 130.731C549.986 130.731 549.894 130.782 549.894 130.849C549.894 130.882 549.919 130.907 549.953 130.932C549.994 130.957 550.045 130.966 550.095 130.966C550.145 130.966 550.196 130.957 550.237 130.932C550.279 130.907 550.296 130.882 550.296 130.849C550.296 130.815 550.279 130.79 550.237 130.765Z" fill="#5100CD"/>
<path d="M548.705 130.907C548.705 130.907 548.655 130.865 548.655 130.84C548.655 130.815 548.671 130.79 548.705 130.773C548.738 130.756 548.772 130.748 548.814 130.748C548.856 130.748 548.897 130.756 548.923 130.773C548.956 130.79 548.973 130.815 548.973 130.84C548.973 130.89 548.906 130.932 548.814 130.932C548.772 130.932 548.73 130.924 548.696 130.907H548.705ZM548.956 130.765C548.956 130.765 548.872 130.731 548.814 130.731C548.755 130.731 548.713 130.74 548.671 130.765C548.629 130.79 548.613 130.815 548.613 130.849C548.613 130.882 548.638 130.907 548.671 130.932C548.705 130.957 548.755 130.966 548.814 130.966C548.923 130.966 549.015 130.916 549.015 130.849C549.015 130.815 548.99 130.79 548.956 130.765Z" fill="#5100CD"/>
<path d="M549.35 131.276C549.35 131.276 549.299 131.234 549.299 131.209C549.299 131.158 549.375 131.117 549.459 131.117C549.5 131.117 549.542 131.125 549.567 131.142C549.601 131.158 549.618 131.184 549.618 131.209C549.618 131.234 549.601 131.259 549.576 131.276C549.542 131.292 549.509 131.301 549.459 131.301C549.408 131.301 549.375 131.292 549.341 131.276H549.35ZM549.601 131.133C549.601 131.133 549.517 131.1 549.459 131.1C549.35 131.1 549.258 131.15 549.258 131.217C549.258 131.251 549.283 131.276 549.316 131.301C549.35 131.326 549.4 131.334 549.459 131.334C549.517 131.334 549.559 131.326 549.601 131.301C549.634 131.276 549.66 131.251 549.66 131.217C549.66 131.184 549.634 131.158 549.601 131.133Z" fill="#5100CD"/>
<path d="M549.341 130.539C549.341 130.539 549.291 130.497 549.291 130.472C549.291 130.447 549.308 130.422 549.333 130.405C549.366 130.388 549.4 130.38 549.45 130.38C549.492 130.38 549.534 130.388 549.559 130.405C549.593 130.422 549.609 130.447 549.609 130.472C549.609 130.522 549.542 130.564 549.45 130.564C549.408 130.564 549.367 130.556 549.341 130.539ZM549.593 130.396C549.593 130.396 549.501 130.363 549.45 130.363C549.4 130.363 549.35 130.371 549.308 130.396C549.274 130.422 549.249 130.447 549.249 130.48C549.249 130.514 549.274 130.539 549.308 130.564C549.35 130.589 549.4 130.597 549.45 130.597C549.559 130.597 549.651 130.547 549.651 130.48C549.651 130.447 549.634 130.422 549.593 130.396Z" fill="#5100CD"/>
<path d="M549.802 131.167C549.743 131.133 549.743 131.075 549.802 131.033C549.869 130.999 549.969 130.999 550.028 131.033C550.087 131.066 550.095 131.125 550.028 131.167C549.969 131.2 549.861 131.2 549.802 131.167ZM550.053 131.016C549.978 130.974 549.852 130.974 549.768 131.016C549.693 131.058 549.693 131.133 549.768 131.175C549.844 131.217 549.969 131.217 550.053 131.175C550.129 131.133 550.129 131.058 550.053 131.008V131.016Z" fill="#5100CD"/>
<path d="M548.889 130.648C548.831 130.614 548.831 130.555 548.889 130.514C548.956 130.48 549.057 130.48 549.115 130.514C549.174 130.547 549.182 130.606 549.115 130.648C549.057 130.681 548.948 130.681 548.889 130.648ZM549.14 130.497C549.065 130.455 548.939 130.455 548.856 130.497C548.78 130.539 548.78 130.614 548.856 130.656C548.931 130.698 549.057 130.698 549.14 130.656C549.216 130.614 549.216 130.539 549.14 130.488V130.497Z" fill="#5100CD"/>
<path d="M583.034 81.6538L579.877 82.9352L576.954 82.7928L573.562 80.808L570.53 82.0223L568.428 80.7912L577.783 77.0225L583.277 80.2385L583.026 81.6538H583.034ZM578.704 81.3356L580.027 80.808L580.078 80.54L577.699 79.1497L575.773 79.9202L578.151 81.3105L578.712 81.3356H578.704Z" fill="#5100CD"/>
<path d="M588.335 87.6839L585.572 87.5499L583.905 89.853L581.677 88.5465L583.352 86.3355L582.012 85.5482L578.788 86.8547L576.686 85.6236L586.041 81.8549L591.535 85.0709L591.283 86.4862L588.335 87.6839ZM587.163 86.0842L588.277 85.632L588.327 85.364L585.949 83.9737L584.215 84.6772L586.585 86.0591L587.171 86.0842H587.163Z" fill="#5100CD"/>
<path d="M599.65 91.6536L594.014 93.9316L590.58 93.7557L586.543 91.394L586.828 89.7273L592.464 87.4493L595.898 87.6252L599.935 89.987L599.65 91.6536ZM592.883 92.3068L596.685 90.7826L596.769 90.3136L594.767 89.1411L593.603 89.0825L589.801 90.6067L589.717 91.0757L591.719 92.2482L592.883 92.3068Z" fill="#5100CD"/>
<path d="M608.728 95.1292L601.233 98.1526L597.799 97.9767L594.382 95.9751L594.617 94.5765L597.69 94.7272L597.539 95.6401L598.938 96.4608L600.102 96.5195L606.626 93.8981L608.728 95.1292Z" fill="#5100CD"/>
<path d="M610.32 98.2363L608.879 98.8058L612.749 101.067L610.655 101.905L606.794 99.6433L605.353 100.213L609.809 102.817L607.606 103.705L601.057 99.8695L610.412 96.1007L616.961 99.9365L614.767 100.824L610.311 98.2196L610.32 98.2363Z" fill="#5100CD"/>
<path d="M617.598 106.327L617.346 107.876L614.474 107.734L610.537 105.43L610.822 103.764L616.459 101.486L619.892 101.662L623.753 103.923L623.519 105.322L620.437 105.162L620.604 104.258L618.762 103.178L617.598 103.119L613.795 104.643L613.712 105.112L615.638 106.234L617.614 106.327H617.598Z" fill="#5100CD"/>
<path d="M630.629 110.12L628.192 108.697L621.031 111.578L618.929 110.347L626.081 107.466L623.644 106.042L625.839 105.154L632.807 109.233L630.612 110.12H630.629Z" fill="#5100CD"/>
<path d="M582.113 98.3033L580.379 97.2899L578.336 98.1106L577.079 97.3736L579.123 96.5529L577.389 95.5395L578.872 94.9365L580.605 95.9499L582.649 95.1291L583.905 95.8661L581.862 96.6869L583.595 97.7003L582.113 98.3033Z" fill="#5100CD"/>
<path d="M587.372 98.764L586.342 99.1828L588.285 100.322L588.109 101.352L586.024 102.189L583.913 102.089L581.208 100.506L581.376 99.4926L583.662 99.6099L583.545 100.288L584.734 100.983L585.186 101.009L585.974 100.699L586.015 100.447L583.461 98.9566L587.556 97.3068L591.652 99.702L590.035 100.347L587.364 98.7808L587.372 98.764Z" fill="#5100CD"/>
<path d="M592.984 102.047L591.953 102.466L593.896 103.605L593.721 104.635L591.635 105.472L589.525 105.372L586.82 103.789L586.987 102.776L589.273 102.893L589.156 103.571L590.345 104.266L590.798 104.291L591.585 103.982L591.627 103.73L589.072 102.24L593.168 100.59L597.263 102.985L595.647 103.63L592.975 102.064L592.984 102.047Z" fill="#5100CD"/>
<path d="M601.836 106.871L597.364 108.672L594.96 108.554L592.322 107.013L592.456 106.184L594.742 106.301L594.658 106.796L595.806 107.466L596.526 107.499L597.59 107.072L596.669 107.022L595.019 106.059L595.186 105.003L597.221 104.183L599.524 104.3L602.029 105.765L601.844 106.888L601.836 106.871ZM598.921 106.519L599.633 106.234L599.683 105.966L598.67 105.372L598.075 105.338L597.33 105.64L597.28 105.925L598.243 106.486L598.93 106.519H598.921Z" fill="#5100CD"/>
<path d="M603.385 111.888L601.777 112.541L597.489 110.037L599.097 109.383L600.479 110.196L603.905 108.814L602.246 108.538L602.765 107.457L605.772 107.951L607.414 108.914L602.012 111.092L603.377 111.888H603.385Z" fill="#5100CD"/>
<path d="M606.459 113.194L605.965 113.395L608.879 115.095L607.271 115.749L602.816 113.136L605.546 112.03L607.523 112.131L609.708 112.951L610.353 112.985L610.923 112.759L610.948 112.558L609.842 111.913L608.611 111.854L608.795 110.724L610.688 110.824L613.31 112.357L613.134 113.387L611.266 114.141L609.306 114.04L607.121 113.228L606.459 113.194Z" fill="#5100CD"/>
<path d="M615.504 117.574L616.09 117.918L614.474 118.562L613.888 118.219L612.464 118.797L610.923 117.892L612.355 117.323L609.742 115.79L611.677 115.011L617.623 114.886L619.474 115.975L615.496 117.583L615.504 117.574ZM613.971 116.678L616.04 115.841L612.765 115.975L613.971 116.678Z" fill="#5100CD"/>
<path d="M271.811 76.8716H252.129C247.825 76.8716 244.341 80.3556 244.341 84.6603C244.341 88.9651 247.825 92.4491 252.129 92.4491H266.777L269.382 96.9632L271.995 92.4407C276.207 92.3402 279.599 88.8981 279.599 84.6603C279.599 80.3556 276.115 76.8716 271.811 76.8716Z" fill="#F5EDFF" stroke="#5100CD" stroke-linecap="round" stroke-linejoin="round"/>
<path d="M255.647 86.6118C256.688 86.6118 257.531 85.7681 257.531 84.7274C257.531 83.6867 256.688 82.843 255.647 82.843C254.606 82.843 253.762 83.6867 253.762 84.7274C253.762 85.7681 254.606 86.6118 255.647 86.6118Z" fill="#5100CD"/>
<path d="M261.97 86.6118C263.011 86.6118 263.854 85.7681 263.854 84.7274C263.854 83.6867 263.011 82.843 261.97 82.843C260.929 82.843 260.085 83.6867 260.085 84.7274C260.085 85.7681 260.929 86.6118 261.97 86.6118Z" fill="#5100CD"/>
<path d="M268.293 86.6118C269.334 86.6118 270.177 85.7681 270.177 84.7274C270.177 83.6867 269.334 82.843 268.293 82.843C267.252 82.843 266.409 83.6867 266.409 84.7274C266.409 85.7681 267.252 86.6118 268.293 86.6118Z" fill="#5100CD"/>
<path d="M461.655 124.844V159.139L483.665 147.037L461.655 124.844Z" fill="#DBC8F6" stroke="#5100CD" stroke-linecap="round" stroke-linejoin="round"/>
<path d="M461.655 169.214V159.139L483.665 147.037L461.655 169.214Z" fill="#5100CD" stroke="#5100CD" stroke-linecap="round" stroke-linejoin="round"/>
<path d="M461.655 124.844V159.139L439.646 147.037L461.655 124.844Z" fill="#F5EDFF" stroke="#5100CD" stroke-linecap="round" stroke-linejoin="round"/>
<path d="M461.655 169.214V159.139L439.646 147.037L461.655 169.214Z" fill="#DBC8F6" stroke="#5100CD" stroke-linecap="round" stroke-linejoin="round"/>
<path d="M631.517 192.003L629.088 190.587L631.517 189.147L633.946 190.587L631.517 192.003Z" fill="#F5EDFF" stroke="#5100CD" stroke-linecap="round" stroke-linejoin="round"/>
<path d="M625.026 195.771L622.598 194.356L625.026 192.907L627.455 194.356L625.026 195.771Z" fill="#F5EDFF" stroke="#5100CD" stroke-linecap="round" stroke-linejoin="round"/>
<path d="M618.527 199.532L616.099 198.117L618.527 196.676L620.956 198.117L618.527 199.532Z" fill="#F5EDFF" stroke="#5100CD" stroke-linecap="round" stroke-linejoin="round"/>
<path d="M612.037 203.292L609.608 201.885L612.037 200.436L614.465 201.885L612.037 203.292Z" fill="#F5EDFF" stroke="#5100CD" stroke-linecap="round" stroke-linejoin="round"/>
<path d="M573.394 192.003L575.823 190.587L573.394 189.147L570.966 190.587L573.394 192.003Z" fill="#F5EDFF" stroke="#5100CD" stroke-linecap="round" stroke-linejoin="round"/>
<path d="M579.893 195.771L582.322 194.356L579.893 192.907L577.465 194.356L579.893 195.771Z" fill="#F5EDFF" stroke="#5100CD" stroke-linecap="round" stroke-linejoin="round"/>
<path d="M586.384 199.532L588.813 198.117L586.384 196.676L583.955 198.117L586.384 199.532Z" fill="#F5EDFF" stroke="#5100CD" stroke-linecap="round" stroke-linejoin="round"/>
<path d="M592.883 203.292L595.312 201.885L592.883 200.436L590.454 201.885L592.883 203.292Z" fill="#F5EDFF" stroke="#5100CD" stroke-linecap="round" stroke-linejoin="round"/>
<path d="M602.456 203.091L635.905 183.653L602.456 163.762L569.006 183.653L602.456 203.091Z" fill="#F5EDFF" stroke="#5100CD" stroke-linecap="round" stroke-linejoin="round"/>
<path d="M635.914 183.653V186.433L602.464 205.872V203.091L635.914 183.653Z" fill="#5100CD" stroke="#5100CD" stroke-linecap="round" stroke-linejoin="round"/>
<path d="M569.006 183.653V186.433L602.456 205.872V203.091L569.006 183.653Z" fill="#F5EDFF" stroke="#5100CD" stroke-linecap="round" stroke-linejoin="round"/>
<path d="M633.2 183.427L602.456 201.291L571.711 183.427L602.456 165.571L633.2 183.427Z" fill="#F5EDFF"/>
<path d="M602.992 184.624L603.117 184.549C603.385 184.398 603.653 184.314 603.921 184.314C604.197 184.314 604.466 184.39 604.725 184.541C605.018 184.708 605.152 184.876 605.136 185.035C605.119 185.194 604.943 185.37 604.608 185.562L602.389 186.852C602.045 187.053 601.744 187.154 601.476 187.162C601.208 187.17 600.923 187.095 600.63 186.919C600.345 186.752 600.211 186.592 600.228 186.442C600.253 186.291 600.429 186.115 600.764 185.914L601.023 185.763L599.859 185.437L596.677 187.288L597.221 187.974L597.481 187.824C597.816 187.631 598.117 187.522 598.385 187.514C598.653 187.505 598.93 187.581 599.214 187.74C599.507 187.907 599.641 188.075 599.625 188.226C599.608 188.385 599.432 188.561 599.097 188.753L597.196 189.859C596.853 190.06 596.551 190.16 596.283 190.169C596.015 190.169 595.73 190.102 595.446 189.926C595.186 189.775 595.052 189.616 595.06 189.457C595.06 189.298 595.203 189.138 595.462 188.988L595.588 188.912L592.062 184.566L591.476 184.909C591.141 185.102 590.839 185.202 590.563 185.219C590.295 185.227 590.01 185.152 589.726 184.984C589.432 184.817 589.298 184.649 589.315 184.499C589.332 184.34 589.508 184.164 589.843 183.971L592.607 182.363C593.042 182.112 593.586 182.07 594.24 182.237L594.265 182.254L603.008 184.616L602.992 184.624ZM593.628 183.678L595.672 186.107L597.807 184.867L593.628 183.678Z" fill="#5100CD"/>
<path d="M603.787 177.774L609.29 180.973L610.529 180.253C610.864 180.06 611.166 179.951 611.434 179.943C611.702 179.934 611.978 180.01 612.263 180.169C612.547 180.336 612.681 180.495 612.665 180.663C612.648 180.822 612.472 180.998 612.145 181.191L607.765 183.737C607.43 183.929 607.129 184.03 606.852 184.046C606.576 184.063 606.3 183.979 606.007 183.812C605.722 183.644 605.588 183.485 605.604 183.335C605.63 183.184 605.806 183.008 606.141 182.807L607.38 182.087L601.878 178.887L600.638 179.608C600.303 179.8 600.002 179.901 599.725 179.918C599.457 179.926 599.173 179.851 598.888 179.683C598.595 179.516 598.461 179.356 598.477 179.197C598.502 179.047 598.678 178.871 599.013 178.67L603.393 176.124C603.745 175.923 604.047 175.814 604.306 175.805C604.566 175.805 604.842 175.881 605.135 176.048C605.42 176.216 605.554 176.375 605.538 176.534C605.521 176.693 605.345 176.869 605.01 177.062L603.77 177.782L603.787 177.774Z" fill="#5100CD"/>
</svg>
