<svg width="800" height="400" viewBox="0 0 800 400" fill="none" xmlns="http://www.w3.org/2000/svg">
<path d="M754.98 139.02L747.11 134.45L754.98 129.78L762.85 134.45L754.98 139.02Z" fill="#F5EDFF" stroke="#5100CD" stroke-linecap="round" stroke-linejoin="round"/>
<path d="M733.97 151.2L726.1 146.63L733.97 141.95L741.84 146.63L733.97 151.2Z" fill="#F5EDFF" stroke="#5100CD" stroke-linecap="round" stroke-linejoin="round"/>
<path d="M712.95 163.37L705.08 158.8L712.95 154.13L720.82 158.8L712.95 163.37Z" fill="#F5EDFF" stroke="#5100CD" stroke-linecap="round" stroke-linejoin="round"/>
<path d="M691.94 175.54L684.07 170.98L691.94 166.3L699.81 170.98L691.94 175.54Z" fill="#F5EDFF" stroke="#5100CD" stroke-linecap="round" stroke-linejoin="round"/>
<path d="M566.91 139.02L574.78 134.45L566.91 129.78L559.04 134.45L566.91 139.02Z" fill="#F5EDFF" stroke="#5100CD" stroke-linecap="round" stroke-linejoin="round"/>
<path d="M587.92 151.2L595.79 146.63L587.92 141.95L580.05 146.63L587.92 151.2Z" fill="#F5EDFF" stroke="#5100CD" stroke-linecap="round" stroke-linejoin="round"/>
<path d="M608.94 163.37L616.81 158.8L608.94 154.13L601.07 158.8L608.94 163.37Z" fill="#F5EDFF" stroke="#5100CD" stroke-linecap="round" stroke-linejoin="round"/>
<path d="M629.96 175.54L637.83 170.98L629.96 166.3L622.09 170.98L629.96 175.54Z" fill="#F5EDFF" stroke="#5100CD" stroke-linecap="round" stroke-linejoin="round"/>
<path d="M660.95 174.91L769.19 112.01L660.95 47.6499L552.71 112.01L660.95 174.91Z" fill="#F5EDFF" stroke="#5100CD" stroke-linecap="round" stroke-linejoin="round"/>
<path d="M769.19 112V120.99L660.95 183.89V174.9L769.19 112Z" fill="#DBC8F6" stroke="#5100CD" stroke-linecap="round" stroke-linejoin="round"/>
<path d="M552.7 112V120.99L660.94 183.89V174.9L552.7 112Z" fill="#F1E9FD" stroke="#5100CD" stroke-linecap="round" stroke-linejoin="round"/>
<path d="M670.14 68.94L624.95 95.19L579.76 68.94L624.95 42.7L670.14 68.94Z" fill="#F5EDFF" stroke="#5100CD" stroke-linecap="round" stroke-linejoin="round"/>
<path d="M667.61 110.3L622.42 84.0599V38.8699L667.61 65.1099V110.3Z" fill="#F5EDFF" stroke="#5100CD" stroke-linecap="round" stroke-linejoin="round"/>
<path d="M667.86 110.16L622.67 83.91V38.72L667.86 64.97V110.16Z" fill="#F5EDFF" stroke="#5100CD" stroke-linecap="round" stroke-linejoin="round"/>
<path d="M664.98 111.37L619.79 85.1299V39.9399L664.98 66.1799V111.37Z" fill="#F5EDFF" stroke="#5100CD" stroke-linecap="round" stroke-linejoin="round"/>
<path d="M665.24 111.22L620.05 84.98V39.79L665.24 66.04V111.22Z" fill="#F5EDFF" stroke="#5100CD" stroke-linecap="round" stroke-linejoin="round"/>
<path d="M662.36 112.44L617.17 86.19V41L662.36 67.25V112.44Z" fill="#F5EDFF" stroke="#5100CD" stroke-linecap="round" stroke-linejoin="round"/>
<path d="M662.61 112.29L617.42 86.0499V40.8599L662.61 67.0999V112.29Z" fill="#F5EDFF" stroke="#5100CD" stroke-linecap="round" stroke-linejoin="round"/>
<path d="M659.74 113.51L614.55 87.2601V42.0701L659.74 68.3201V113.51Z" fill="#F5EDFF" stroke="#5100CD" stroke-linecap="round" stroke-linejoin="round"/>
<path d="M660 113.36L614.81 87.1199V41.9299L660 68.1699V113.36Z" fill="#F5EDFF" stroke="#5100CD" stroke-linecap="round" stroke-linejoin="round"/>
<path d="M657.12 101.8L611.93 75.5599V30.3699L657.12 56.6099V101.8Z" fill="#F5EDFF" stroke="#5100CD" stroke-linecap="round" stroke-linejoin="round"/>
<path d="M657.37 101.67L612.18 75.42V30.23L657.37 56.48V101.67Z" fill="#F5EDFF" stroke="#5100CD" stroke-linecap="round" stroke-linejoin="round"/>
<path d="M654.49 107.71L609.3 81.46V36.27L654.49 62.52V107.71Z" fill="#F5EDFF" stroke="#5100CD" stroke-linecap="round" stroke-linejoin="round"/>
<path d="M654.75 107.57L609.56 81.3299V36.1399L654.75 62.3799V107.57Z" fill="#F5EDFF" stroke="#5100CD" stroke-linecap="round" stroke-linejoin="round"/>
<path d="M651.87 110.03L606.68 83.7901V38.6001L651.87 64.8401V110.03Z" fill="#F5EDFF" stroke="#5100CD" stroke-linecap="round" stroke-linejoin="round"/>
<path d="M652.12 109.9L606.93 83.65V38.46L652.12 64.71V109.9Z" fill="#F5EDFF" stroke="#5100CD" stroke-linecap="round" stroke-linejoin="round"/>
<path d="M649.24 117.78L604.05 91.5301V46.3501L649.24 72.5901V117.78Z" fill="#F5EDFF" stroke="#5100CD" stroke-linecap="round" stroke-linejoin="round"/>
<path d="M649.51 117.63L604.32 91.3899V46.2L649.51 72.44V117.63Z" fill="#F5EDFF" stroke="#5100CD" stroke-linecap="round" stroke-linejoin="round"/>
<path d="M646.63 118.85L601.44 92.5999V47.4099L646.63 73.6599V118.85Z" fill="#F5EDFF" stroke="#5100CD" stroke-linecap="round" stroke-linejoin="round"/>
<path d="M646.88 118.71L601.69 92.47V47.28L646.88 73.52V118.71Z" fill="#F5EDFF" stroke="#5100CD" stroke-linecap="round" stroke-linejoin="round"/>
<path d="M644 119.92L598.82 93.67V48.48L644 74.73V119.92Z" fill="#F5EDFF" stroke="#5100CD" stroke-linecap="round" stroke-linejoin="round"/>
<path d="M644.26 119.78L599.07 93.5301V48.3501L644.26 74.5901V119.78Z" fill="#F5EDFF" stroke="#5100CD" stroke-linecap="round" stroke-linejoin="round"/>
<path d="M641.38 113.04L596.19 86.7901V41.6001L641.38 67.8501V113.04Z" fill="#F5EDFF" stroke="#5100CD" stroke-linecap="round" stroke-linejoin="round"/>
<path d="M641.63 112.9L596.44 86.66V41.47L641.63 67.71V112.9Z" fill="#F5EDFF" stroke="#5100CD" stroke-linecap="round" stroke-linejoin="round"/>
<path d="M638.76 114.95L593.57 88.71V43.52L638.76 69.77V114.95Z" fill="#F5EDFF" stroke="#5100CD" stroke-linecap="round" stroke-linejoin="round"/>
<path d="M639.01 114.82L593.82 88.5699V43.3799L639.01 69.6299V114.82Z" fill="#F5EDFF" stroke="#5100CD" stroke-linecap="round" stroke-linejoin="round"/>
<path d="M636.14 116.89L590.95 90.6399V45.45L636.14 71.6999V116.89Z" fill="#F5EDFF" stroke="#5100CD" stroke-linecap="round" stroke-linejoin="round"/>
<path d="M636.39 116.74L591.21 90.49V45.3L636.39 71.5501V116.74Z" fill="#F5EDFF" stroke="#5100CD" stroke-linecap="round" stroke-linejoin="round"/>
<path d="M633.52 118.66L588.33 92.41V47.22L633.52 73.47V118.66Z" fill="#F5EDFF" stroke="#5100CD" stroke-linecap="round" stroke-linejoin="round"/>
<path d="M633.77 118.51L588.58 92.2701V47.0801L633.77 73.3201V118.51Z" fill="#F5EDFF" stroke="#5100CD" stroke-linecap="round" stroke-linejoin="round"/>
<path d="M630.89 120.83L585.7 94.5899V49.3999L630.89 75.6399V120.83Z" fill="#F5EDFF" stroke="#5100CD" stroke-linecap="round" stroke-linejoin="round"/>
<path d="M631.15 120.7L585.96 94.45V49.26L631.15 75.51V120.7Z" fill="#F5EDFF" stroke="#5100CD" stroke-linecap="round" stroke-linejoin="round"/>
<path d="M624.96 140.38L579.77 114.13V68.9399L624.96 95.1899V140.38Z" fill="#F1E9FD" stroke="#5100CD" stroke-linecap="round" stroke-linejoin="round"/>
<path d="M670.14 114.13L624.95 140.38V95.1899L670.14 68.9399V114.13Z" fill="#C8ADF0" stroke="#5100CD" stroke-linecap="round" stroke-linejoin="round"/>
<path d="M595.94 62.48L597.44 73.08L593.57 69.02L589.69 68.58L591.19 59.72" fill="#F5EDFF"/>
<path d="M348.26 152.47V174.91L423.59 159.03V136.59L348.26 152.47Z" fill="#F5EDFF" stroke="#5100CD" stroke-linecap="round" stroke-linejoin="round"/>
<path d="M496.2 178.74V156.3L523.54 200.06V222.5L496.2 178.74Z" fill="#F5EDFF" stroke="#5100CD" stroke-linecap="round" stroke-linejoin="round"/>
<path d="M314.32 217.09L321.97 207.58L348.26 174.91V152.47L314.32 194.64V217.09Z" fill="#F5EDFF" stroke="#5100CD" stroke-linecap="round" stroke-linejoin="round"/>
<path d="M423.59 159.03V136.59L496.2 156.3V178.74L423.59 159.03Z" fill="#F5EDFF" stroke="#5100CD" stroke-linecap="round" stroke-linejoin="round"/>
<path d="M348.26 152.47L314.32 194.64L341.67 238.4L414.27 258.12L489.61 242.23L523.54 200.06L496.2 156.3L423.59 136.59L348.26 152.47Z" fill="#F5EDFF" stroke="#5100CD" stroke-linecap="round" stroke-linejoin="round"/>
<path d="M314.32 194.64V217.09L341.67 260.84L414.27 280.56L489.61 264.67L523.54 222.5V200.06L489.61 242.23L414.27 258.12L341.67 238.4L314.32 194.64Z" fill="#F1E9FD" stroke="#5100CD" stroke-linecap="round" stroke-linejoin="round"/>
<path d="M422.08 172.11V156.95V172.11L371.18 182.84V167.68L398.67 161.88L371.18 167.68V182.84L353.59 204.7L366.73 225.73L415.78 239.05L466.68 228.32L484.27 206.46L471.13 185.43L422.08 172.11Z" fill="#5100CD"/>
<path d="M422.08 172.11V156.95V172.11ZM422.08 172.11L371.18 182.84V167.68L398.67 161.88L371.18 167.68V182.84L353.59 204.7L366.73 225.73L415.78 239.05L466.68 228.32L484.27 206.46L471.13 185.43L422.08 172.11Z" stroke="#5100CD" stroke-linecap="round" stroke-linejoin="round"/>
<path d="M471.13 170.26V185.43L484.27 206.46L489.61 199.83L471.13 170.26Z" fill="#F5EDFF" stroke="#5100CD" stroke-linecap="round" stroke-linejoin="round"/>
<path d="M371.18 167.68L348.26 196.17L353.59 204.7L371.18 182.84V167.68Z" fill="#DBC8F6" stroke="#5100CD" stroke-linecap="round" stroke-linejoin="round"/>
<path d="M471.13 185.43V170.26L422.08 156.95V172.11L471.13 185.43Z" fill="#F5EDFF" stroke="#5100CD" stroke-linecap="round" stroke-linejoin="round"/>
<path d="M422.08 156.95L398.67 161.88L422.08 156.95Z" fill="#F5EDFF" stroke="#5100CD" stroke-linecap="round" stroke-linejoin="round"/>
<path d="M371.18 182.84L422.08 172.11V156.95L398.67 161.88L371.18 167.68V182.84Z" fill="#F5EDFF" stroke="#5100CD" stroke-linecap="round" stroke-linejoin="round"/>
<path d="M489.61 242.23V264.67L523.54 222.5V200.06L489.61 242.23Z" fill="#DBC8F6" stroke="#5100CD" stroke-linecap="round" stroke-linejoin="round"/>
<g clip-path="url(#clip0_5631_65669)">
<path d="M420.72 192.93L417.82 195.54L408.56 192.49C402.08 190.35 392.73 192.32 387.66 196.9C382.59 201.46 383.74 206.89 390.22 209.03L399.48 212.08L396.58 214.69C395.13 216 395.4 217.27 397.25 217.88L421.94 226.02C423.79 226.63 425.99 226.17 427.44 224.86L451.57 203.09C453.02 201.78 452.75 200.51 450.9 199.9L426.22 191.77C424.37 191.16 422.17 191.62 420.72 192.93ZM413.96 199.03L403.34 208.61L394.08 205.56C390.38 204.34 389.7 201.14 392.6 198.53C395.5 195.92 401 194.76 404.7 195.98L413.96 199.03Z" fill="#EDE4FB"/>
</g>
<path d="M383.5 272.4L270.07 337.89" stroke="#5100CD" stroke-linecap="round" stroke-linejoin="round"/>
<path d="M265.3 114.48L34.9199 247.49" stroke="#5100CD" stroke-linecap="round" stroke-linejoin="round"/>
<path d="M265.3 114.48L342.8 159.42" stroke="#5100CD" stroke-linecap="round" stroke-linejoin="round"/>
<path d="M432.85 276.8L509.39 321.18" stroke="#5100CD" stroke-linecap="round" stroke-linejoin="round"/>
<path d="M241.76 321.55L270.07 337.89" stroke="#5100CD" stroke-linecap="round" stroke-linejoin="round"/>
<path d="M696.49 173.37L730.88 193.31" stroke="#5100CD" stroke-linecap="round" stroke-linejoin="round"/>
<path d="M34.9199 247.49L85.5199 277.49" stroke="#5100CD" stroke-linecap="round" stroke-linejoin="round"/>
<path d="M730.88 193.31L509.39 321.18" stroke="#5100CD" stroke-linecap="round" stroke-linejoin="round"/>
<path d="M583.47 149.19L516.07 188.1" stroke="#5100CD" stroke-linecap="round" stroke-linejoin="round"/>
<path d="M730.88 193.54L734.46 191.45L730.88 189.33L727.3 191.45L730.88 193.54Z" fill="#F5EDFF" stroke="#5100CD" stroke-linecap="round" stroke-linejoin="round"/>
<path d="M730.88 197.29V193.54L734.46 191.45V195.23L730.88 197.29Z" fill="#5100CD" stroke="#5100CD" stroke-linecap="round" stroke-linejoin="round"/>
<path d="M727.3 195.16V191.45L730.88 193.54V197.29L727.3 195.16Z" fill="#F5EDFF" stroke="#5100CD" stroke-linecap="round" stroke-linejoin="round"/>
<path d="M509.39 321.18L512.97 319.09L509.39 316.97L505.81 319.09L509.39 321.18Z" fill="#F5EDFF" stroke="#5100CD" stroke-linecap="round" stroke-linejoin="round"/>
<path d="M509.39 324.93V321.18L512.97 319.09V322.87L509.39 324.93Z" fill="#5100CD" stroke="#5100CD" stroke-linecap="round" stroke-linejoin="round"/>
<path d="M505.81 322.8V319.09L509.39 321.18V324.93L505.81 322.8Z" fill="#F5EDFF" stroke="#5100CD" stroke-linecap="round" stroke-linejoin="round"/>
<path d="M270.07 337.89L273.65 335.8L270.07 333.68L266.49 335.8L270.07 337.89Z" fill="#F5EDFF" stroke="#5100CD" stroke-linecap="round" stroke-linejoin="round"/>
<path d="M270.07 341.64V337.89L273.65 335.8V339.58L270.07 341.64Z" fill="#5100CD" stroke="#5100CD" stroke-linecap="round" stroke-linejoin="round"/>
<path d="M266.49 339.51V335.8L270.07 337.89V341.64L266.49 339.51Z" fill="#F5EDFF" stroke="#5100CD" stroke-linecap="round" stroke-linejoin="round"/>
<path d="M265.3 114.48L268.88 112.39L265.3 110.27L261.72 112.39L265.3 114.48Z" fill="#F5EDFF" stroke="#5100CD" stroke-linecap="round" stroke-linejoin="round"/>
<path d="M265.3 118.23V114.48L268.88 112.39V116.17L265.3 118.23Z" fill="#5100CD" stroke="#5100CD" stroke-linecap="round" stroke-linejoin="round"/>
<path d="M261.72 116.1V112.39L265.3 114.48V118.23L261.72 116.1Z" fill="#F5EDFF" stroke="#5100CD" stroke-linecap="round" stroke-linejoin="round"/>
<path d="M34.9198 247.31L38.4998 245.22L34.9198 243.1L31.3398 245.22L34.9198 247.31Z" fill="#F5EDFF" stroke="#5100CD" stroke-linecap="round" stroke-linejoin="round"/>
<path d="M34.9199 251.06V247.31L38.4999 245.22V249L34.9199 251.06Z" fill="#5100CD" stroke="#5100CD" stroke-linecap="round" stroke-linejoin="round"/>
<path d="M31.3398 248.93V245.22L34.9198 247.31V251.06L31.3398 248.93Z" fill="#F5EDFF" stroke="#5100CD" stroke-linecap="round" stroke-linejoin="round"/>
<path d="M552.7 166.52L556.28 164.43L552.7 162.31L549.12 164.43L552.7 166.52Z" fill="#F5EDFF" stroke="#5100CD" stroke-linecap="round" stroke-linejoin="round"/>
<path d="M552.7 170.27V166.52L556.28 164.43V168.21L552.7 170.27Z" fill="#5100CD" stroke="#5100CD" stroke-linecap="round" stroke-linejoin="round"/>
<path d="M549.12 168.14V164.43L552.7 166.52V170.27L549.12 168.14Z" fill="#F5EDFF" stroke="#5100CD" stroke-linecap="round" stroke-linejoin="round"/>
<path d="M587.99 274.97L590.95 273.24L587.99 271.48L585.02 273.24L587.99 274.97Z" fill="#F5EDFF" stroke="#5100CD" stroke-linecap="round" stroke-linejoin="round"/>
<path d="M587.99 278.07V274.97L590.95 273.24V276.37L587.99 278.07Z" fill="#5100CD" stroke="#5100CD" stroke-linecap="round" stroke-linejoin="round"/>
<path d="M585.02 276.31V273.24L587.99 274.97V278.07L585.02 276.31Z" fill="#F5EDFF" stroke="#5100CD" stroke-linecap="round" stroke-linejoin="round"/>
<path d="M353.6 289.81L356.56 288.08L353.6 286.32L350.63 288.08L353.6 289.81Z" fill="#F5EDFF" stroke="#5100CD" stroke-linecap="round" stroke-linejoin="round"/>
<path d="M353.6 292.91V289.81L356.56 288.08V291.21L353.6 292.91Z" fill="#5100CD" stroke="#5100CD" stroke-linecap="round" stroke-linejoin="round"/>
<path d="M350.63 291.15V288.08L353.6 289.81V292.91L350.63 291.15Z" fill="#F5EDFF" stroke="#5100CD" stroke-linecap="round" stroke-linejoin="round"/>
<path d="M340.4 297.21L343.36 295.48L340.4 293.72L337.43 295.48L340.4 297.21Z" fill="#F5EDFF" stroke="#5100CD" stroke-linecap="round" stroke-linejoin="round"/>
<path d="M340.4 300.31V297.21L343.36 295.48V298.61L340.4 300.31Z" fill="#5100CD" stroke="#5100CD" stroke-linecap="round" stroke-linejoin="round"/>
<path d="M337.43 298.55V295.48L340.4 297.21V300.31L337.43 298.55Z" fill="#F5EDFF" stroke="#5100CD" stroke-linecap="round" stroke-linejoin="round"/>
<path d="M142.8 185.62L145.76 183.89L142.8 182.13L139.83 183.89L142.8 185.62Z" fill="#F5EDFF" stroke="#5100CD" stroke-linecap="round" stroke-linejoin="round"/>
<path d="M142.8 188.72V185.62L145.76 183.89V187.02L142.8 188.72Z" fill="#5100CD" stroke="#5100CD" stroke-linecap="round" stroke-linejoin="round"/>
<path d="M139.83 186.96V183.89L142.8 185.62V188.72L139.83 186.96Z" fill="#F5EDFF" stroke="#5100CD" stroke-linecap="round" stroke-linejoin="round"/>
<path d="M686.94 100.81H685L685.82 105.95C686.22 108.81 688.31 111.61 692.08 113.8C700.53 118.71 714.23 118.71 722.68 113.8C726.45 111.61 728.53 108.81 728.94 105.95L729.76 100.81H686.92H686.94Z" fill="#F5EDFF" stroke="#5100CD" stroke-linecap="round" stroke-linejoin="round"/>
<path d="M699.68 100.81V116.66C701.66 117.1 703.72 117.36 705.81 117.45V100.81H699.68Z" fill="#5100CD" stroke="#5100CD" stroke-linecap="round" stroke-linejoin="round"/>
<path d="M686.94 100.81H685L685.82 105.95C686.22 108.81 688.31 111.61 692.08 113.8C694.31 115.09 696.9 116.04 699.67 116.65V100.8H686.93L686.94 100.81Z" fill="#F5EDFF" stroke="#5100CD" stroke-linecap="round" stroke-linejoin="round"/>
<path d="M705.81 100.81V117.45C706.84 117.49 707.88 117.49 708.92 117.45V100.81H705.81Z" fill="#F5EDFF" stroke="#5100CD" stroke-linecap="round" stroke-linejoin="round"/>
<path d="M727.84 100.81H717.44V116.05C719.33 115.47 721.1 114.73 722.69 113.8C726.46 111.61 728.54 108.81 728.95 105.95L729.77 100.81H727.83H727.84Z" fill="#5100CD" stroke="#5100CD" stroke-linecap="round" stroke-linejoin="round"/>
<path d="M708.91 100.81V117.45C711.08 117.36 713.23 117.09 715.28 116.62V100.81H708.91Z" fill="#5100CD" stroke="#5100CD" stroke-linecap="round" stroke-linejoin="round"/>
<path d="M715.28 100.81V116.62C716.01 116.45 716.73 116.27 717.44 116.05V100.81H715.28Z" fill="#F5EDFF" stroke="#5100CD" stroke-linecap="round" stroke-linejoin="round"/>
<path d="M707.39 112.02C719.888 112.02 730.02 106.133 730.02 98.87C730.02 91.6074 719.888 85.72 707.39 85.72C694.892 85.72 684.76 91.6074 684.76 98.87C684.76 106.133 694.892 112.02 707.39 112.02Z" fill="#F5EDFF" stroke="#5100CD" stroke-linecap="round" stroke-linejoin="round"/>
<path d="M707.39 103.46C711.748 103.46 715.28 101.405 715.28 98.87C715.28 96.335 711.748 94.28 707.39 94.28C703.032 94.28 699.5 96.335 699.5 98.87C699.5 101.405 703.032 103.46 707.39 103.46Z" fill="#F5EDFF" stroke="#5100CD" stroke-linecap="round" stroke-linejoin="round"/>
<path d="M701.81 97.5699C704.89 95.7799 709.89 95.7799 712.98 97.5699C714.1 98.2199 714.8 99.0099 715.11 99.8499C715.65 98.3799 714.95 96.7799 712.98 95.6399C709.9 93.8499 704.9 93.8499 701.81 95.6399C699.84 96.7799 699.14 98.3799 699.68 99.8499C699.99 99.0199 700.69 98.2199 701.81 97.5699Z" fill="#F5EDFF" stroke="#5100CD" stroke-linecap="round" stroke-linejoin="round"/>
<path d="M701.81 102.12C704.89 103.91 709.89 103.91 712.98 102.12C714.1 101.47 714.8 100.68 715.11 99.8398C714.8 99.0098 714.1 98.2098 712.98 97.5598C709.9 95.7698 704.9 95.7698 701.81 97.5598C700.69 98.2098 699.99 98.9998 699.68 99.8398C699.99 100.67 700.69 101.47 701.81 102.12Z" fill="#F5EDFF" stroke="#5100CD" stroke-linecap="round" stroke-linejoin="round"/>
<path d="M686.94 92.4202H685L685.82 97.5602C686.22 100.42 688.31 103.22 692.08 105.41C700.53 110.32 714.23 110.32 722.68 105.41C726.45 103.22 728.53 100.42 728.94 97.5602L729.76 92.4202H686.92H686.94Z" fill="#F5EDFF" stroke="#5100CD" stroke-linecap="round" stroke-linejoin="round"/>
<path d="M699.68 92.4202V108.27C701.66 108.71 703.72 108.97 705.81 109.06V92.4202H699.68Z" fill="#5100CD" stroke="#5100CD" stroke-linecap="round" stroke-linejoin="round"/>
<path d="M686.94 92.4202H685L685.82 97.5602C686.22 100.42 688.31 103.22 692.08 105.41C694.31 106.7 696.9 107.65 699.67 108.26V92.4102H686.93L686.94 92.4202Z" fill="#F5EDFF" stroke="#5100CD" stroke-linecap="round" stroke-linejoin="round"/>
<path d="M705.81 92.4202V109.06C706.84 109.1 707.88 109.1 708.92 109.06V92.4202H705.81Z" fill="#F5EDFF" stroke="#5100CD" stroke-linecap="round" stroke-linejoin="round"/>
<path d="M727.84 92.4202H717.44V107.66C719.33 107.08 721.1 106.34 722.69 105.41C726.46 103.22 728.54 100.42 728.95 97.5602L729.77 92.4202H727.83H727.84Z" fill="#5100CD" stroke="#5100CD" stroke-linecap="round" stroke-linejoin="round"/>
<path d="M708.91 92.4202V109.06C711.08 108.97 713.23 108.7 715.28 108.23V92.4202H708.91Z" fill="#5100CD" stroke="#5100CD" stroke-linecap="round" stroke-linejoin="round"/>
<path d="M715.28 92.4202V108.23C716.01 108.06 716.73 107.88 717.44 107.66V92.4202H715.28Z" fill="#F5EDFF" stroke="#5100CD" stroke-linecap="round" stroke-linejoin="round"/>
<path d="M707.39 103.64C719.888 103.64 730.02 97.7526 730.02 90.4901C730.02 83.2275 719.888 77.3401 707.39 77.3401C694.892 77.3401 684.76 83.2275 684.76 90.4901C684.76 97.7526 694.892 103.64 707.39 103.64Z" fill="#F5EDFF" stroke="#5100CD" stroke-linecap="round" stroke-linejoin="round"/>
<path d="M707.39 95.0801C711.748 95.0801 715.28 93.0251 715.28 90.4901C715.28 87.9552 711.748 85.9001 707.39 85.9001C703.032 85.9001 699.5 87.9552 699.5 90.4901C699.5 93.0251 703.032 95.0801 707.39 95.0801Z" fill="#F5EDFF" stroke="#5100CD" stroke-linecap="round" stroke-linejoin="round"/>
<path d="M701.81 89.1802C704.89 87.3902 709.89 87.3902 712.98 89.1802C714.1 89.8302 714.8 90.6202 715.11 91.4602C715.65 89.9902 714.95 88.3902 712.98 87.2502C709.9 85.4602 704.9 85.4602 701.81 87.2502C699.84 88.3902 699.14 89.9902 699.68 91.4602C699.99 90.6302 700.69 89.8302 701.81 89.1802Z" fill="#F5EDFF" stroke="#5100CD" stroke-linecap="round" stroke-linejoin="round"/>
<path d="M701.81 93.7301C704.89 95.5201 709.89 95.5201 712.98 93.7301C714.1 93.0801 714.8 92.2901 715.11 91.4501C714.8 90.6201 714.1 89.8201 712.98 89.1701C709.9 87.3801 704.9 87.3801 701.81 89.1701C700.69 89.8201 699.99 90.6101 699.68 91.4501C699.99 92.2801 700.69 93.0801 701.81 93.7301Z" fill="#F5EDFF" stroke="#5100CD" stroke-linecap="round" stroke-linejoin="round"/>
<path d="M686.94 84.04H685L685.82 89.18C686.22 92.04 688.31 94.84 692.08 97.03C700.53 101.94 714.23 101.94 722.68 97.03C726.45 94.84 728.53 92.04 728.94 89.18L729.76 84.04H686.92H686.94Z" fill="#F5EDFF" stroke="#5100CD" stroke-linecap="round" stroke-linejoin="round"/>
<path d="M699.68 84.04V99.89C701.66 100.33 703.72 100.59 705.81 100.68V84.04H699.68Z" fill="#5100CD" stroke="#5100CD" stroke-linecap="round" stroke-linejoin="round"/>
<path d="M686.94 84.04H685L685.82 89.18C686.22 92.04 688.31 94.84 692.08 97.03C694.31 98.32 696.9 99.27 699.67 99.88V84.03H686.93L686.94 84.04Z" fill="#F5EDFF" stroke="#5100CD" stroke-linecap="round" stroke-linejoin="round"/>
<path d="M705.81 84.04V100.68C706.84 100.72 707.88 100.72 708.92 100.68V84.04H705.81Z" fill="#F5EDFF" stroke="#5100CD" stroke-linecap="round" stroke-linejoin="round"/>
<path d="M727.84 84.04H717.44V99.28C719.33 98.7 721.1 97.96 722.69 97.03C726.46 94.84 728.54 92.04 728.95 89.18L729.77 84.04H727.83H727.84Z" fill="#5100CD" stroke="#5100CD" stroke-linecap="round" stroke-linejoin="round"/>
<path d="M708.91 84.04V100.68C711.08 100.59 713.23 100.32 715.28 99.85V84.04H708.91Z" fill="#5100CD" stroke="#5100CD" stroke-linecap="round" stroke-linejoin="round"/>
<path d="M715.28 84.04V99.85C716.01 99.68 716.73 99.5 717.44 99.28V84.04H715.28Z" fill="#F5EDFF" stroke="#5100CD" stroke-linecap="round" stroke-linejoin="round"/>
<path d="M707.39 95.25C719.888 95.25 730.02 89.3625 730.02 82.1C730.02 74.8374 719.888 68.95 707.39 68.95C694.892 68.95 684.76 74.8374 684.76 82.1C684.76 89.3625 694.892 95.25 707.39 95.25Z" fill="#F5EDFF" stroke="#5100CD" stroke-linecap="round" stroke-linejoin="round"/>
<path d="M707.39 86.69C711.748 86.69 715.28 84.635 715.28 82.1C715.28 79.565 711.748 77.51 707.39 77.51C703.032 77.51 699.5 79.565 699.5 82.1C699.5 84.635 703.032 86.69 707.39 86.69Z" fill="#F5EDFF" stroke="#5100CD" stroke-linecap="round" stroke-linejoin="round"/>
<path d="M701.81 80.7998C704.89 79.0098 709.89 79.0098 712.98 80.7998C714.1 81.4498 714.8 82.2398 715.11 83.0798C715.65 81.6098 714.95 80.0098 712.98 78.8698C709.9 77.0798 704.9 77.0798 701.81 78.8698C699.84 80.0098 699.14 81.6098 699.68 83.0798C699.99 82.2498 700.69 81.4498 701.81 80.7998Z" fill="#F5EDFF" stroke="#5100CD" stroke-linecap="round" stroke-linejoin="round"/>
<path d="M701.81 85.3498C704.89 87.1398 709.89 87.1398 712.98 85.3498C714.1 84.6998 714.8 83.9098 715.11 83.0698C714.8 82.2398 714.1 81.4398 712.98 80.7898C709.9 78.9998 704.9 78.9998 701.81 80.7898C700.69 81.4398 699.99 82.2298 699.68 83.0698C699.99 83.8998 700.69 84.6998 701.81 85.3498Z" fill="#F5EDFF" stroke="#5100CD" stroke-linecap="round" stroke-linejoin="round"/>
<path d="M686.94 75.6501H685L685.82 80.7901C686.22 83.6501 688.31 86.4501 692.08 88.6401C700.53 93.5501 714.23 93.5501 722.68 88.6401C726.45 86.4501 728.53 83.6501 728.94 80.7901L729.76 75.6501H686.92H686.94Z" fill="#F5EDFF" stroke="#5100CD" stroke-linecap="round" stroke-linejoin="round"/>
<path d="M699.68 75.6501V91.5001C701.66 91.9401 703.72 92.2001 705.81 92.2901V75.6501H699.68Z" fill="#5100CD" stroke="#5100CD" stroke-linecap="round" stroke-linejoin="round"/>
<path d="M686.94 75.6501H685L685.82 80.7901C686.22 83.6501 688.31 86.4501 692.08 88.6401C694.31 89.9301 696.9 90.8801 699.67 91.4901V75.6401H686.93L686.94 75.6501Z" fill="#F5EDFF" stroke="#5100CD" stroke-linecap="round" stroke-linejoin="round"/>
<path d="M705.81 75.6501V92.2901C706.84 92.3301 707.88 92.3301 708.92 92.2901V75.6501H705.81Z" fill="#F5EDFF" stroke="#5100CD" stroke-linecap="round" stroke-linejoin="round"/>
<path d="M727.84 75.6501H717.44V90.8901C719.33 90.3101 721.1 89.5701 722.69 88.6401C726.46 86.4501 728.54 83.6501 728.95 80.7901L729.77 75.6501H727.83H727.84Z" fill="#5100CD" stroke="#5100CD" stroke-linecap="round" stroke-linejoin="round"/>
<path d="M708.91 75.6501V92.2901C711.08 92.2001 713.23 91.9301 715.28 91.4601V75.6501H708.91Z" fill="#5100CD" stroke="#5100CD" stroke-linecap="round" stroke-linejoin="round"/>
<path d="M715.28 75.6501V91.4601C716.01 91.2901 716.73 91.1101 717.44 90.8901V75.6501H715.28Z" fill="#F5EDFF" stroke="#5100CD" stroke-linecap="round" stroke-linejoin="round"/>
<path d="M707.39 86.8701C719.888 86.8701 730.02 80.9826 730.02 73.7201C730.02 66.4575 719.888 60.5701 707.39 60.5701C694.892 60.5701 684.76 66.4575 684.76 73.7201C684.76 80.9826 694.892 86.8701 707.39 86.8701Z" fill="#F5EDFF" stroke="#5100CD" stroke-linecap="round" stroke-linejoin="round"/>
<path d="M728.51 106.46H727.43L727.89 109.33C728.12 110.93 729.28 112.49 731.38 113.71C736.09 116.45 743.74 116.45 748.45 113.71C750.55 112.49 751.72 110.93 751.94 109.33L752.4 106.46H728.5H728.51Z" fill="#F5EDFF" stroke="#5100CD" stroke-linecap="round" stroke-linejoin="round"/>
<path d="M735.62 106.46V115.3C736.72 115.54 737.88 115.69 739.04 115.74V106.46H735.62Z" fill="#5100CD" stroke="#5100CD" stroke-linecap="round" stroke-linejoin="round"/>
<path d="M728.51 106.46H727.43L727.89 109.33C728.12 110.93 729.28 112.49 731.38 113.71C732.62 114.43 734.07 114.96 735.61 115.3V106.46H728.5H728.51Z" fill="#F5EDFF" stroke="#5100CD" stroke-linecap="round" stroke-linejoin="round"/>
<path d="M739.04 106.46V115.74C739.62 115.76 740.2 115.76 740.77 115.74V106.45H739.04V106.46Z" fill="#F5EDFF" stroke="#5100CD" stroke-linecap="round" stroke-linejoin="round"/>
<path d="M751.33 106.46H745.53V114.96C746.58 114.64 747.57 114.22 748.46 113.71C750.56 112.49 751.73 110.93 751.95 109.33L752.41 106.46H751.33Z" fill="#5100CD" stroke="#5100CD" stroke-linecap="round" stroke-linejoin="round"/>
<path d="M740.77 106.46V115.75C741.98 115.7 743.18 115.55 744.33 115.29V106.47H740.77V106.46Z" fill="#5100CD" stroke="#5100CD" stroke-linecap="round" stroke-linejoin="round"/>
<path d="M744.33 106.46V115.28C744.74 115.19 745.14 115.08 745.53 114.96V106.46H744.33Z" fill="#F5EDFF" stroke="#5100CD" stroke-linecap="round" stroke-linejoin="round"/>
<path d="M739.92 112.71C746.895 112.71 752.55 109.428 752.55 105.38C752.55 101.332 746.895 98.05 739.92 98.05C732.945 98.05 727.29 101.332 727.29 105.38C727.29 109.428 732.945 112.71 739.92 112.71Z" fill="#F5EDFF" stroke="#5100CD" stroke-linecap="round" stroke-linejoin="round"/>
<path d="M739.92 107.94C742.356 107.94 744.33 106.794 744.33 105.38C744.33 103.966 742.356 102.82 739.92 102.82C737.485 102.82 735.51 103.966 735.51 105.38C735.51 106.794 737.485 107.94 739.92 107.94Z" fill="#F5EDFF" stroke="#5100CD" stroke-linecap="round" stroke-linejoin="round"/>
<path d="M736.81 104.65C738.53 103.65 741.32 103.65 743.04 104.65C743.66 105.01 744.06 105.45 744.23 105.92C744.53 105.1 744.14 104.21 743.04 103.57C741.32 102.57 738.53 102.57 736.81 103.57C735.71 104.21 735.32 105.1 735.62 105.92C735.79 105.45 736.19 105.01 736.81 104.65Z" fill="#F5EDFF" stroke="#5100CD" stroke-linecap="round" stroke-linejoin="round"/>
<path d="M736.81 107.19C738.53 108.19 741.32 108.19 743.04 107.19C743.66 106.83 744.06 106.39 744.23 105.92C744.06 105.45 743.66 105.01 743.04 104.65C741.32 103.65 738.53 103.65 736.81 104.65C736.19 105.01 735.79 105.45 735.62 105.92C735.79 106.39 736.19 106.83 736.81 107.19Z" fill="#F5EDFF" stroke="#5100CD" stroke-linecap="round" stroke-linejoin="round"/>
<path d="M728.51 101.78H727.43L727.89 104.65C728.12 106.25 729.28 107.81 731.38 109.03C736.09 111.77 743.74 111.77 748.45 109.03C750.55 107.81 751.72 106.25 751.94 104.65L752.4 101.78H728.5H728.51Z" fill="#F5EDFF" stroke="#5100CD" stroke-linecap="round" stroke-linejoin="round"/>
<path d="M735.62 101.78V110.62C736.72 110.86 737.88 111.01 739.04 111.06V101.78H735.62Z" fill="#5100CD" stroke="#5100CD" stroke-linecap="round" stroke-linejoin="round"/>
<path d="M728.51 101.78H727.43L727.89 104.65C728.12 106.25 729.28 107.81 731.38 109.03C732.62 109.75 734.07 110.28 735.61 110.62V101.78H728.5H728.51Z" fill="#F5EDFF" stroke="#5100CD" stroke-linecap="round" stroke-linejoin="round"/>
<path d="M739.04 101.78V111.06C739.62 111.08 740.2 111.08 740.77 111.06V101.77H739.04V101.78Z" fill="#F5EDFF" stroke="#5100CD" stroke-linecap="round" stroke-linejoin="round"/>
<path d="M751.33 101.78H745.53V110.28C746.58 109.96 747.57 109.54 748.46 109.03C750.56 107.81 751.73 106.25 751.95 104.65L752.41 101.78H751.33Z" fill="#5100CD" stroke="#5100CD" stroke-linecap="round" stroke-linejoin="round"/>
<path d="M740.77 101.78V111.07C741.98 111.02 743.18 110.87 744.33 110.61V101.79H740.77V101.78Z" fill="#5100CD" stroke="#5100CD" stroke-linecap="round" stroke-linejoin="round"/>
<path d="M744.33 101.78V110.6C744.74 110.51 745.14 110.4 745.53 110.28V101.78H744.33Z" fill="#F5EDFF" stroke="#5100CD" stroke-linecap="round" stroke-linejoin="round"/>
<path d="M739.92 108.03C746.895 108.03 752.55 104.748 752.55 100.7C752.55 96.6519 746.895 93.3701 739.92 93.3701C732.945 93.3701 727.29 96.6519 727.29 100.7C727.29 104.748 732.945 108.03 739.92 108.03Z" fill="#F5EDFF" stroke="#5100CD" stroke-linecap="round" stroke-linejoin="round"/>
<path d="M739.92 103.26C742.356 103.26 744.33 102.114 744.33 100.7C744.33 99.2863 742.356 98.1401 739.92 98.1401C737.485 98.1401 735.51 99.2863 735.51 100.7C735.51 102.114 737.485 103.26 739.92 103.26Z" fill="#F5EDFF" stroke="#5100CD" stroke-linecap="round" stroke-linejoin="round"/>
<path d="M736.81 99.9701C738.53 98.9701 741.32 98.9701 743.04 99.9701C743.66 100.33 744.06 100.77 744.23 101.24C744.53 100.42 744.14 99.5301 743.04 98.8901C741.32 97.8901 738.53 97.8901 736.81 98.8901C735.71 99.5301 735.32 100.42 735.62 101.24C735.79 100.77 736.19 100.33 736.81 99.9701Z" fill="#F5EDFF" stroke="#5100CD" stroke-linecap="round" stroke-linejoin="round"/>
<path d="M736.81 102.51C738.53 103.51 741.32 103.51 743.04 102.51C743.66 102.15 744.06 101.71 744.23 101.24C744.06 100.77 743.66 100.33 743.04 99.9702C741.32 98.9702 738.53 98.9702 736.81 99.9702C736.19 100.33 735.79 100.77 735.62 101.24C735.79 101.71 736.19 102.15 736.81 102.51Z" fill="#F5EDFF" stroke="#5100CD" stroke-linecap="round" stroke-linejoin="round"/>
<path d="M728.51 97.0999H727.43L727.89 99.9699C728.12 101.57 729.28 103.13 731.38 104.35C736.09 107.09 743.74 107.09 748.45 104.35C750.55 103.13 751.72 101.57 751.94 99.9699L752.4 97.0999H728.5H728.51Z" fill="#F5EDFF" stroke="#5100CD" stroke-linecap="round" stroke-linejoin="round"/>
<path d="M735.62 97.0999V105.94C736.72 106.18 737.88 106.33 739.04 106.38V97.0999H735.62Z" fill="#5100CD" stroke="#5100CD" stroke-linecap="round" stroke-linejoin="round"/>
<path d="M728.51 97.0999H727.43L727.89 99.9699C728.12 101.57 729.28 103.13 731.38 104.35C732.62 105.07 734.07 105.6 735.61 105.94V97.0999H728.5H728.51Z" fill="#F5EDFF" stroke="#5100CD" stroke-linecap="round" stroke-linejoin="round"/>
<path d="M739.04 97.0998V106.38C739.62 106.4 740.2 106.4 740.77 106.38V97.0898H739.04V97.0998Z" fill="#F5EDFF" stroke="#5100CD" stroke-linecap="round" stroke-linejoin="round"/>
<path d="M751.33 97.0999H745.53V105.6C746.58 105.28 747.57 104.86 748.46 104.35C750.56 103.13 751.73 101.57 751.95 99.9699L752.41 97.0999H751.33Z" fill="#5100CD" stroke="#5100CD" stroke-linecap="round" stroke-linejoin="round"/>
<path d="M740.77 97.0999V106.39C741.98 106.34 743.18 106.19 744.33 105.93V97.1099H740.77V97.0999Z" fill="#5100CD" stroke="#5100CD" stroke-linecap="round" stroke-linejoin="round"/>
<path d="M744.33 97.0999V105.92C744.74 105.83 745.14 105.72 745.53 105.6V97.0999H744.33Z" fill="#F5EDFF" stroke="#5100CD" stroke-linecap="round" stroke-linejoin="round"/>
<path d="M739.92 103.36C746.895 103.36 752.55 100.078 752.55 96.03C752.55 91.9817 746.895 88.7 739.92 88.7C732.945 88.7 727.29 91.9817 727.29 96.03C727.29 100.078 732.945 103.36 739.92 103.36Z" fill="#F5EDFF" stroke="#5100CD" stroke-linecap="round" stroke-linejoin="round"/>
<path d="M739.92 98.59C742.356 98.59 744.33 97.4438 744.33 96.03C744.33 94.6161 742.356 93.47 739.92 93.47C737.485 93.47 735.51 94.6161 735.51 96.03C735.51 97.4438 737.485 98.59 739.92 98.59Z" fill="#F5EDFF" stroke="#5100CD" stroke-linecap="round" stroke-linejoin="round"/>
<path d="M736.81 95.3C738.53 94.3 741.32 94.3 743.04 95.3C743.66 95.66 744.06 96.1 744.23 96.57C744.53 95.75 744.14 94.86 743.04 94.22C741.32 93.22 738.53 93.22 736.81 94.22C735.71 94.86 735.32 95.75 735.62 96.57C735.79 96.1 736.19 95.66 736.81 95.3Z" fill="#F5EDFF" stroke="#5100CD" stroke-linecap="round" stroke-linejoin="round"/>
<path d="M736.81 97.83C738.53 98.83 741.32 98.83 743.04 97.83C743.66 97.47 744.06 97.03 744.23 96.56C744.06 96.09 743.66 95.65 743.04 95.29C741.32 94.29 738.53 94.29 736.81 95.29C736.19 95.65 735.79 96.09 735.62 96.56C735.79 97.03 736.19 97.47 736.81 97.83Z" fill="#F5EDFF" stroke="#5100CD" stroke-linecap="round" stroke-linejoin="round"/>
<path d="M728.51 92.4299H727.43L727.89 95.2999C728.12 96.8999 729.28 98.4599 731.38 99.6799C736.09 102.42 743.74 102.42 748.45 99.6799C750.55 98.4599 751.72 96.8999 751.94 95.2999L752.4 92.4299H728.5H728.51Z" fill="#F5EDFF" stroke="#5100CD" stroke-linecap="round" stroke-linejoin="round"/>
<path d="M735.62 92.4299V101.27C736.72 101.51 737.88 101.66 739.04 101.71V92.4299H735.62Z" fill="#5100CD" stroke="#5100CD" stroke-linecap="round" stroke-linejoin="round"/>
<path d="M728.51 92.4299H727.43L727.89 95.2999C728.12 96.8999 729.28 98.4599 731.38 99.6799C732.62 100.4 734.07 100.93 735.61 101.27V92.4299H728.5H728.51Z" fill="#F5EDFF" stroke="#5100CD" stroke-linecap="round" stroke-linejoin="round"/>
<path d="M739.04 92.4299V101.71C739.62 101.73 740.2 101.73 740.77 101.71V92.4199H739.04V92.4299Z" fill="#F5EDFF" stroke="#5100CD" stroke-linecap="round" stroke-linejoin="round"/>
<path d="M751.33 92.4299H745.53V100.93C746.58 100.61 747.57 100.19 748.46 99.6799C750.56 98.4599 751.73 96.8999 751.95 95.2999L752.41 92.4299H751.33Z" fill="#5100CD" stroke="#5100CD" stroke-linecap="round" stroke-linejoin="round"/>
<path d="M740.77 92.4299V101.72C741.98 101.67 743.18 101.52 744.33 101.26V92.4399H740.77V92.4299Z" fill="#5100CD" stroke="#5100CD" stroke-linecap="round" stroke-linejoin="round"/>
<path d="M744.33 92.4299V101.25C744.74 101.16 745.14 101.05 745.53 100.93V92.4299H744.33Z" fill="#F5EDFF" stroke="#5100CD" stroke-linecap="round" stroke-linejoin="round"/>
<path d="M739.92 98.68C746.895 98.68 752.55 95.3983 752.55 91.35C752.55 87.3018 746.895 84.02 739.92 84.02C732.945 84.02 727.29 87.3018 727.29 91.35C727.29 95.3983 732.945 98.68 739.92 98.68Z" fill="#F5EDFF" stroke="#5100CD" stroke-linecap="round" stroke-linejoin="round"/>
<path d="M68.5698 279.98V294.14L178.02 357.74V343.58L68.5698 279.98Z" fill="#F1E9FD" stroke="#5100CD" stroke-linecap="round" stroke-linejoin="round"/>
<path d="M178.02 343.58L287.47 279.98L178.02 214.91L68.5698 279.98L178.02 343.58Z" fill="#F5EDFF" stroke="#5100CD" stroke-linecap="round" stroke-linejoin="round"/>
<path d="M178.02 343.58V357.74L287.47 294.14V279.98L178.02 343.58Z" fill="#DBC8F6" stroke="#5100CD" stroke-linecap="round" stroke-linejoin="round"/>
<path d="M158.44 346.35V332.22L271.89 270.74V262.82L153.11 327.25V349.57L158.44 346.36V346.35Z" fill="#C8ADF0" stroke="#5100CD" stroke-linecap="round" stroke-linejoin="round"/>
<path d="M262.65 257.3L271.9 262.81L153.12 327.24L143.9 321.73L262.65 257.3Z" fill="#F5EDFF" stroke="#5100CD" stroke-linecap="round" stroke-linejoin="round"/>
<path d="M143.89 344.05L153.11 349.56V327.24L143.89 321.73V344.05Z" fill="#F1E9FD" stroke="#5100CD" stroke-linecap="round" stroke-linejoin="round"/>
<path d="M78.4599 296.61C76.9299 295.72 75.6899 293.76 75.6899 292.23C75.6899 290.7 76.9299 290.18 78.4599 291.07C79.9899 291.96 81.2299 293.92 81.2299 295.45C81.2299 296.98 79.9899 297.5 78.4599 296.61Z" fill="#5100CD"/>
<path d="M86.4199 301.05C84.8899 300.16 83.6499 298.2 83.6499 296.67C83.6499 295.14 84.8899 294.62 86.4199 295.51C87.9499 296.4 89.1899 298.36 89.1899 299.89C89.1899 301.42 87.9499 301.94 86.4199 301.05Z" fill="#C8ADF0"/>
<path d="M94.3799 305.49C92.8499 304.6 91.6099 302.64 91.6099 301.11C91.6099 299.58 92.8499 299.06 94.3799 299.95C95.9099 300.84 97.1499 302.8 97.1499 304.33C97.1499 305.86 95.9099 306.38 94.3799 305.49Z" fill="#5100CD"/>
<g clip-path="url(#clip1_5631_65669)">
<path d="M84.5 279.89L137.6 249.5L190.62 279.89L137.56 310.53L84.5 279.89Z" fill="#5100CD" stroke="#5100CD" stroke-linecap="round" stroke-linejoin="round"/>
</g>
<path d="M98.5698 240.85V280.16L137.88 257.46V218.15L98.5698 240.85Z" fill="#F5EDFF" stroke="#5100CD" stroke-linecap="round" stroke-linejoin="round"/>
<path d="M177.25 240.85V280.16L137.94 257.46V218.15L177.25 240.85Z" fill="#F5EDFF" stroke="#5100CD" stroke-linecap="round" stroke-linejoin="round"/>
<path d="M137.91 302.7V263.36L98.5996 240.66V280L137.91 302.7Z" fill="#F5EDFF" stroke="#5100CD" stroke-linecap="round" stroke-linejoin="round"/>
<path d="M137.91 302.7V263.36L177.22 240.66V280L137.91 302.7Z" fill="#DBC8F6" stroke="#5100CD" stroke-linecap="round" stroke-linejoin="round"/>
<path d="M98.5996 240.66L137.94 218.15L177.22 240.66L137.91 263.36L98.5996 240.66Z" fill="#F5EDFF" stroke="#5100CD" stroke-linecap="round" stroke-linejoin="round"/>
<path d="M166.9 236.65L145.16 224.02C141.15 226.35 134.64 226.35 130.63 224.02L109.59 236.24C113.6 238.57 113.6 242.35 109.59 244.68C109.35 244.82 109.1 244.95 108.85 245.07L130.67 257.74C130.88 257.59 131.1 257.45 131.34 257.31C135.35 254.98 141.86 254.98 145.87 257.31L166.91 245.09C162.9 242.76 162.9 238.98 166.91 236.65H166.9Z" fill="#DBC8F6"/>
<path d="M175.73 272.22V250.48C171.72 252.81 168.47 251.45 168.47 247.44L147.43 259.66C147.43 263.67 144.18 268.81 140.17 271.14C139.93 271.28 139.7 271.4 139.47 271.51V293.32C139.7 293.16 139.94 293.01 140.17 292.88C144.18 290.55 147.43 291.91 147.43 295.92L168.47 283.7C168.47 279.69 171.72 274.55 175.73 272.22Z" fill="#C8ADF0"/>
<path d="M136.36 292.88V271.14C132.35 268.81 129.1 263.67 129.1 259.66L108.06 247.44C108.06 251.45 104.81 252.82 100.8 250.48C100.56 250.34 100.33 250.19 100.1 250.04V271.85C100.33 271.96 100.57 272.08 100.8 272.22C104.81 274.55 108.06 279.69 108.06 283.7L129.1 295.92C129.1 291.91 132.35 290.54 136.36 292.88Z" fill="#DBC8F6"/>
<defs>
<clipPath id="clip0_5631_65669">
<rect width="69.01" height="35.8" fill="white" transform="translate(384 191)"/>
</clipPath>
<clipPath id="clip1_5631_65669">
<rect width="107.12" height="62.04" fill="white" transform="translate(84 249)"/>
</clipPath>
</defs>
</svg>
