<svg width="670" height="335" viewBox="0 0 670 335" fill="none" xmlns="http://www.w3.org/2000/svg">
<path d="M253.403 307.597L182.936 266.677" stroke="#5100CD" stroke-linecap="round" stroke-linejoin="round"/>
<path d="M487.35 236.049L397.871 184.091" stroke="#5100CD" stroke-linecap="round" stroke-linejoin="round"/>
<path d="M601.685 159.485L512.207 107.527" stroke="#5100CD" stroke-linecap="round" stroke-linejoin="round"/>
<path d="M241.921 184.149L184.317 150.7" stroke="#5100CD" stroke-linecap="round" stroke-linejoin="round"/>
<path d="M257.875 166.654L216.117 142.409" stroke="#5100CD" stroke-linecap="round" stroke-linejoin="round"/>
<path d="M299.641 104.478L257.883 80.2324" stroke="#5100CD" stroke-linecap="round" stroke-linejoin="round"/>
<path d="M111.706 243.662L53.3486 209.777" stroke="#5100CD" stroke-linecap="round" stroke-linejoin="round"/>
<path d="M178.781 110.165L121.178 76.7148" stroke="#5100CD" stroke-linecap="round" stroke-linejoin="round"/>
<path d="M113.875 98.4649L96.8652 88.5908" stroke="#5100CD" stroke-linecap="round" stroke-linejoin="round"/>
<path d="M253.402 307.597L344.112 254.91" stroke="#5100CD" stroke-linecap="round" stroke-linejoin="round"/>
<path d="M166.151 228.378L242.305 184.149" stroke="#5100CD" stroke-linecap="round" stroke-linejoin="round"/>
<path d="M393.021 158.664L485.105 105.182" stroke="#5100CD" stroke-linecap="round" stroke-linejoin="round"/>
<path d="M518.898 223.972L610.982 170.49" stroke="#5100CD" stroke-linecap="round" stroke-linejoin="round"/>
<path d="M253.403 307.597L256.401 305.847L253.403 304.071L250.404 305.847L253.403 307.597Z" fill="#F5EDFF" stroke="#5100CD" stroke-linecap="round" stroke-linejoin="round"/>
<path d="M253.402 310.738V307.597L256.401 305.847V309.012L253.402 310.738Z" fill="#5100CD" stroke="#5100CD" stroke-linecap="round" stroke-linejoin="round"/>
<path d="M250.404 308.954V305.847L253.403 307.597V310.738L250.404 308.954Z" fill="#F5EDFF" stroke="#5100CD" stroke-linecap="round" stroke-linejoin="round"/>
<path d="M423.147 141.01L426.145 139.259L423.147 137.484L420.148 139.259L423.147 141.01Z" fill="#F5EDFF" stroke="#5100CD" stroke-linecap="round" stroke-linejoin="round"/>
<path d="M423.146 144.15V141.01L426.145 139.259V142.425L423.146 144.15Z" fill="#5100CD" stroke="#5100CD" stroke-linecap="round" stroke-linejoin="round"/>
<path d="M420.148 142.366V139.259L423.147 141.01V144.15L420.148 142.366Z" fill="#F5EDFF" stroke="#5100CD" stroke-linecap="round" stroke-linejoin="round"/>
<path d="M421.648 197.424L424.646 195.673L421.648 193.898L418.649 195.673L421.648 197.424Z" fill="#F5EDFF" stroke="#5100CD" stroke-linecap="round" stroke-linejoin="round"/>
<path d="M421.647 200.564V197.424L424.646 195.673V198.839L421.647 200.564Z" fill="#5100CD" stroke="#5100CD" stroke-linecap="round" stroke-linejoin="round"/>
<path d="M418.649 198.78V195.673L421.648 197.424V200.564L418.649 198.78Z" fill="#F5EDFF" stroke="#5100CD" stroke-linecap="round" stroke-linejoin="round"/>
<path d="M431.496 204.09L434.495 202.34L431.496 200.564L428.498 202.34L431.496 204.09Z" fill="#F5EDFF" stroke="#5100CD" stroke-linecap="round" stroke-linejoin="round"/>
<path d="M431.496 207.231V204.09L434.494 202.34V205.506L431.496 207.231Z" fill="#5100CD" stroke="#5100CD" stroke-linecap="round" stroke-linejoin="round"/>
<path d="M428.498 205.447V202.34L431.496 204.09V207.231L428.498 205.447Z" fill="#F5EDFF" stroke="#5100CD" stroke-linecap="round" stroke-linejoin="round"/>
<path d="M555.556 132.116L558.554 130.365L555.556 128.59L552.558 130.365L555.556 132.116Z" fill="#F5EDFF" stroke="#5100CD" stroke-linecap="round" stroke-linejoin="round"/>
<path d="M555.556 135.256V132.116L558.554 130.365V133.531L555.556 135.256Z" fill="#5100CD" stroke="#5100CD" stroke-linecap="round" stroke-linejoin="round"/>
<path d="M552.558 133.472V130.365L555.556 132.116V135.256L552.558 133.472Z" fill="#F5EDFF" stroke="#5100CD" stroke-linecap="round" stroke-linejoin="round"/>
<path d="M571.744 141.203L574.743 139.452L571.744 137.677L568.746 139.452L571.744 141.203Z" fill="#F5EDFF" stroke="#5100CD" stroke-linecap="round" stroke-linejoin="round"/>
<path d="M571.744 144.343V141.203L574.742 139.452V142.618L571.744 144.343Z" fill="#5100CD" stroke="#5100CD" stroke-linecap="round" stroke-linejoin="round"/>
<path d="M568.746 142.559V139.452L571.744 141.203V144.343L568.746 142.559Z" fill="#F5EDFF" stroke="#5100CD" stroke-linecap="round" stroke-linejoin="round"/>
<path d="M576.87 190.632L579.869 188.881L576.87 187.106L573.872 188.881L576.87 190.632Z" fill="#F5EDFF" stroke="#5100CD" stroke-linecap="round" stroke-linejoin="round"/>
<path d="M576.87 193.772V190.632L579.868 188.881V192.047L576.87 193.772Z" fill="#5100CD" stroke="#5100CD" stroke-linecap="round" stroke-linejoin="round"/>
<path d="M573.872 191.988V188.881L576.87 190.632V193.772L573.872 191.988Z" fill="#F5EDFF" stroke="#5100CD" stroke-linecap="round" stroke-linejoin="round"/>
<path d="M241.92 183.965L244.918 182.215L241.92 180.439L238.922 182.215L241.92 183.965Z" fill="#F5EDFF" stroke="#5100CD" stroke-linecap="round" stroke-linejoin="round"/>
<path d="M241.92 187.106V183.965L244.918 182.215V185.381L241.92 187.106Z" fill="#5100CD" stroke="#5100CD" stroke-linecap="round" stroke-linejoin="round"/>
<path d="M238.922 185.322V182.215L241.92 183.965V187.106L238.922 185.322Z" fill="#F5EDFF" stroke="#5100CD" stroke-linecap="round" stroke-linejoin="round"/>
<path d="M51.9836 209.559L54.9818 207.809L51.9836 206.033L48.9854 207.809L51.9836 209.559Z" fill="#F5EDFF" stroke="#5100CD" stroke-linecap="round" stroke-linejoin="round"/>
<path d="M51.9834 212.7V209.559L54.9817 207.809V210.974L51.9834 212.7Z" fill="#5100CD" stroke="#5100CD" stroke-linecap="round" stroke-linejoin="round"/>
<path d="M48.9854 210.916V207.809L51.9836 209.559V212.7L48.9854 210.916Z" fill="#F5EDFF" stroke="#5100CD" stroke-linecap="round" stroke-linejoin="round"/>
<path d="M113.875 98.5903L53.1729 133.849" stroke="#5100CD" stroke-linecap="round" stroke-linejoin="round"/>
<path d="M51.9834 133.849V208.73" stroke="#5100CD" stroke-linecap="round" stroke-linejoin="round"/>
<path d="M112.97 98.6577L115.968 96.9073L112.97 95.1318L109.972 96.9073L112.97 98.6577Z" fill="#F5EDFF" stroke="#5100CD" stroke-linecap="round" stroke-linejoin="round"/>
<path d="M112.97 101.798V98.6576L115.968 96.9072V100.073L112.97 101.798Z" fill="#5100CD" stroke="#5100CD" stroke-linecap="round" stroke-linejoin="round"/>
<path d="M109.972 100.014V96.9072L112.97 98.6576V101.798L109.972 100.014Z" fill="#F5EDFF" stroke="#5100CD" stroke-linecap="round" stroke-linejoin="round"/>
<path d="M153.924 95.877L156.922 94.1266L153.924 92.3511L150.926 94.1266L153.924 95.877Z" fill="#F5EDFF" stroke="#5100CD" stroke-linecap="round" stroke-linejoin="round"/>
<path d="M153.924 99.0175V95.8768L156.922 94.1265V97.2922L153.924 99.0175Z" fill="#5100CD" stroke="#5100CD" stroke-linecap="round" stroke-linejoin="round"/>
<path d="M150.926 97.2336V94.1265L153.924 95.8768V99.0175L150.926 97.2336Z" fill="#F5EDFF" stroke="#5100CD" stroke-linecap="round" stroke-linejoin="round"/>
<path d="M51.9836 133.724L54.9818 131.973L51.9836 130.198L48.9854 131.973L51.9836 133.724Z" fill="#F5EDFF" stroke="#5100CD" stroke-linecap="round" stroke-linejoin="round"/>
<path d="M51.9834 136.864V133.724L54.9817 131.973V135.139L51.9834 136.864Z" fill="#5100CD" stroke="#5100CD" stroke-linecap="round" stroke-linejoin="round"/>
<path d="M48.9854 135.08V131.973L51.9836 133.724V136.864L48.9854 135.08Z" fill="#F5EDFF" stroke="#5100CD" stroke-linecap="round" stroke-linejoin="round"/>
<path d="M257.875 80.2241V166.168" stroke="#5100CD" stroke-linecap="round" stroke-linejoin="round"/>
<path d="M257.874 166.654L260.872 164.904L257.874 163.128L254.876 164.904L257.874 166.654Z" fill="#F5EDFF" stroke="#5100CD" stroke-linecap="round" stroke-linejoin="round"/>
<path d="M257.874 169.795V166.654L260.872 164.904V168.07L257.874 169.795Z" fill="#5100CD" stroke="#5100CD" stroke-linecap="round" stroke-linejoin="round"/>
<path d="M254.876 168.011V164.904L257.874 166.654V169.795L254.876 168.011Z" fill="#F5EDFF" stroke="#5100CD" stroke-linecap="round" stroke-linejoin="round"/>
<path d="M257.874 80.2241L260.872 78.4737L257.874 76.6982L254.876 78.4737L257.874 80.2241Z" fill="#F5EDFF" stroke="#5100CD" stroke-linecap="round" stroke-linejoin="round"/>
<path d="M257.874 83.3646V80.224L260.872 78.4736V81.6394L257.874 83.3646Z" fill="#5100CD" stroke="#5100CD" stroke-linecap="round" stroke-linejoin="round"/>
<path d="M254.876 81.5808V78.4736L257.874 80.224V83.3646L254.876 81.5808Z" fill="#F5EDFF" stroke="#5100CD" stroke-linecap="round" stroke-linejoin="round"/>
<path d="M291.35 176.913V193.144V209.366L307.572 199.944V183.714V167.491L291.35 176.913Z" fill="#DBC8F6" stroke="#5100CD" stroke-linecap="round" stroke-linejoin="round"/>
<path d="M275.119 151.261L291.35 141.839L356.256 179.535L340.034 188.965L275.119 151.261Z" fill="#F5EDFF" stroke="#5100CD" stroke-linecap="round" stroke-linejoin="round"/>
<path d="M323.803 98.4058L340.025 88.9839V105.206L323.803 114.637V98.4058Z" fill="#DBC8F6" stroke="#5100CD" stroke-linecap="round" stroke-linejoin="round"/>
<path d="M340.025 140.289L323.803 130.859L307.572 121.437L291.35 112.015L275.119 102.585V118.816L291.35 128.238L307.572 137.659L323.803 147.09L340.025 156.512V172.734V188.965L323.803 179.534L307.572 170.113L291.35 160.691L275.119 151.26V167.491V183.714V199.944V216.167L291.35 225.589L307.572 235.019L323.803 244.441L340.025 253.863L356.256 263.293V247.062L340.025 237.64L323.803 228.218L307.572 218.788L291.35 209.366V193.144V176.913L307.572 186.335L323.803 195.765L340.025 205.187L356.256 214.617V198.387V182.164V165.933V149.711L340.025 140.289Z" fill="#F1E9FD" stroke="#5100CD" stroke-linecap="round" stroke-linejoin="round"/>
<path d="M372.479 110.458L356.256 101.036L340.025 91.6055L323.803 82.1836L307.572 72.7617V88.9841V105.206L323.803 114.637V98.406L340.025 107.836L356.256 117.258L372.479 126.68L388.701 136.11V119.879L372.479 110.458Z" fill="#F1E9FD" stroke="#5100CD" stroke-linecap="round" stroke-linejoin="round"/>
<path d="M388.701 136.11V119.879L404.932 110.458V126.68L388.701 136.11Z" fill="#DBC8F6" stroke="#5100CD" stroke-linecap="round" stroke-linejoin="round"/>
<path d="M372.479 159.133V175.364V191.586V207.809V224.04L388.701 233.461V217.239V201.008V184.786V168.564L372.479 159.133Z" fill="#F1E9FD" stroke="#5100CD" stroke-linecap="round" stroke-linejoin="round"/>
<path d="M388.701 168.564V184.786V201.008V217.239V233.461L404.932 224.04V207.809V191.586V175.364V159.133L388.701 168.564Z" fill="#DBC8F6" stroke="#5100CD" stroke-linecap="round" stroke-linejoin="round"/>
<path d="M356.256 149.711V165.934V182.165V198.387V214.618L372.478 205.187V188.965V172.734V156.512V140.29L356.256 149.711Z" fill="#DBC8F6" stroke="#5100CD" stroke-linecap="round" stroke-linejoin="round"/>
<path d="M356.256 247.062L372.478 237.64V253.863L356.256 263.293V247.062Z" fill="#DBC8F6" stroke="#5100CD" stroke-linecap="round" stroke-linejoin="round"/>
<path d="M404.932 159.133L388.701 149.711L372.479 159.133L388.701 168.564L404.932 159.133Z" fill="#F5EDFF" stroke="#5100CD" stroke-linecap="round" stroke-linejoin="round"/>
<path d="M307.572 72.7618L323.803 63.3315L404.932 110.458L388.701 119.88L307.572 72.7618Z" fill="#F5EDFF" stroke="#5100CD" stroke-linecap="round" stroke-linejoin="round"/>
<path d="M275.119 102.585L291.35 93.1631L372.479 140.289L356.256 149.711L275.119 102.585Z" fill="#F5EDFF" stroke="#5100CD" stroke-linecap="round" stroke-linejoin="round"/>
<path d="M291.35 209.366L307.572 199.944L372.478 237.64L356.256 247.062L291.35 209.366Z" fill="#F5EDFF" stroke="#5100CD" stroke-linecap="round" stroke-linejoin="round"/>
<path d="M142.425 288.485L213.814 246.995L142.425 204.551L71.0283 246.995L142.425 288.485Z" fill="#F5EDFF" stroke="#5100CD" stroke-linecap="round" stroke-linejoin="round"/>
<path d="M213.822 246.995V252.925L142.434 294.406V288.477L213.822 246.987V246.995Z" fill="#DBC8F6" stroke="#5100CD" stroke-linecap="round" stroke-linejoin="round"/>
<path d="M71.0283 246.995V252.925L142.425 294.406V288.477L71.0283 246.987V246.995Z" fill="#F1E9FD" stroke="#5100CD" stroke-linecap="round" stroke-linejoin="round"/>
<path d="M528.723 289.264L593.888 251.392L528.723 212.649L463.557 251.392L528.723 289.264Z" fill="#F5EDFF" stroke="#5100CD" stroke-linecap="round" stroke-linejoin="round"/>
<path d="M593.888 251.392V256.811L528.722 294.682V289.272L593.888 251.4V251.392Z" fill="#DBC8F6" stroke="#5100CD" stroke-linecap="round" stroke-linejoin="round"/>
<path d="M463.548 251.392V256.811L528.714 294.682V289.272L463.548 251.4V251.392Z" fill="#F1E9FD" stroke="#5100CD" stroke-linecap="round" stroke-linejoin="round"/>
<path d="M104.637 237.071H101.396L102.777 245.689C103.456 250.488 106.94 255.17 113.263 258.846C127.417 267.071 150.364 267.071 164.51 258.846C170.824 255.178 174.317 250.488 174.995 245.689L176.377 237.071H104.628H104.637Z" fill="#F5EDFF" stroke="#5100CD" stroke-linecap="round" stroke-linejoin="round"/>
<path d="M125.977 237.071V263.62C129.293 264.357 132.752 264.793 136.244 264.943V237.071H125.977Z" fill="#5100CD" stroke="#5100CD" stroke-linecap="round" stroke-linejoin="round"/>
<path d="M104.637 237.071H101.396L102.777 245.689C103.456 250.488 106.94 255.17 113.263 258.846C116.998 261.015 121.336 262.607 125.968 263.628V237.08H104.628L104.637 237.071Z" fill="#DBC8F6" stroke="#5100CD" stroke-linecap="round" stroke-linejoin="round"/>
<path d="M136.235 237.071V264.943C137.969 265.019 139.703 265.019 141.436 264.943V237.071H136.235Z" fill="#DBC8F6" stroke="#5100CD" stroke-linecap="round" stroke-linejoin="round"/>
<path d="M173.145 237.071H155.725V262.598C158.89 261.635 161.855 260.379 164.51 258.838C170.825 255.17 174.317 250.48 174.995 245.681L176.377 237.063H173.136L173.145 237.071Z" fill="#5100CD" stroke="#5100CD" stroke-linecap="round" stroke-linejoin="round"/>
<path d="M141.437 237.071V264.943C145.071 264.793 148.673 264.332 152.115 263.553V237.071H141.437Z" fill="#5100CD" stroke="#5100CD" stroke-linecap="round" stroke-linejoin="round"/>
<path d="M152.114 237.071V263.553C153.337 263.277 154.551 262.958 155.724 262.598V237.071H152.114Z" fill="#DBC8F6" stroke="#5100CD" stroke-linecap="round" stroke-linejoin="round"/>
<path d="M138.891 255.848C159.825 255.848 176.796 245.991 176.796 233.83C176.796 221.67 159.825 211.812 138.891 211.812C117.956 211.812 100.985 221.67 100.985 233.83C100.985 245.991 117.956 255.848 138.891 255.848Z" fill="#F5EDFF" stroke="#5100CD" stroke-linecap="round" stroke-linejoin="round"/>
<path d="M138.89 241.51C146.194 241.51 152.114 238.072 152.114 233.83C152.114 229.589 146.194 226.15 138.89 226.15C131.587 226.15 125.666 229.589 125.666 233.83C125.666 238.072 131.587 241.51 138.89 241.51Z" fill="#F5EDFF" stroke="#5100CD" stroke-linecap="round" stroke-linejoin="round"/>
<path d="M129.544 231.636C134.711 228.638 143.078 228.638 148.245 231.636C150.113 232.725 151.294 234.048 151.813 235.447C152.726 232.985 151.545 230.313 148.245 228.395C143.078 225.397 134.711 225.397 129.544 228.395C126.244 230.313 125.063 232.985 125.976 235.447C126.495 234.048 127.676 232.717 129.544 231.636Z" fill="#F5EDFF" stroke="#5100CD" stroke-linecap="round" stroke-linejoin="round"/>
<path d="M129.543 239.258C134.711 242.256 143.077 242.256 148.245 239.258C150.112 238.169 151.293 236.846 151.812 235.447C151.293 234.048 150.112 232.717 148.245 231.636C143.077 228.638 134.711 228.638 129.543 231.636C127.676 232.725 126.495 234.048 125.976 235.447C126.495 236.846 127.676 238.169 129.543 239.258Z" fill="#F5EDFF" stroke="#5100CD" stroke-linecap="round" stroke-linejoin="round"/>
<path d="M104.637 222.49H101.396L102.777 231.108C103.456 235.907 106.94 240.589 113.263 244.265C127.417 252.489 150.364 252.489 164.51 244.265C170.824 240.597 174.317 235.907 174.995 231.108L176.377 222.49H104.628H104.637Z" fill="#F5EDFF" stroke="#5100CD" stroke-linecap="round" stroke-linejoin="round"/>
<path d="M125.977 222.49V249.039C129.293 249.776 132.752 250.211 136.244 250.362V222.49H125.977Z" fill="#5100CD" stroke="#5100CD" stroke-linecap="round" stroke-linejoin="round"/>
<path d="M104.637 222.49H101.396L102.777 231.108C103.456 235.907 106.94 240.589 113.263 244.265C116.998 246.434 121.336 248.026 125.968 249.047V222.499H104.628L104.637 222.49Z" fill="#DBC8F6" stroke="#5100CD" stroke-linecap="round" stroke-linejoin="round"/>
<path d="M136.235 222.49V250.362C137.969 250.438 139.703 250.438 141.436 250.362V222.49H136.235Z" fill="#DBC8F6" stroke="#5100CD" stroke-linecap="round" stroke-linejoin="round"/>
<path d="M173.145 222.49H155.725V248.017C158.89 247.054 161.855 245.798 164.51 244.257C170.825 240.589 174.317 235.899 174.995 231.1L176.377 222.482H173.136L173.145 222.49Z" fill="#5100CD" stroke="#5100CD" stroke-linecap="round" stroke-linejoin="round"/>
<path d="M141.437 222.49V250.362C145.071 250.211 148.673 249.751 152.115 248.972V222.49H141.437Z" fill="#5100CD" stroke="#5100CD" stroke-linecap="round" stroke-linejoin="round"/>
<path d="M152.114 222.49V248.972C153.337 248.696 154.551 248.377 155.724 248.017V222.49H152.114Z" fill="#DBC8F6" stroke="#5100CD" stroke-linecap="round" stroke-linejoin="round"/>
<path d="M138.891 241.267C159.825 241.267 176.796 231.409 176.796 219.249C176.796 207.089 159.825 197.231 138.891 197.231C117.956 197.231 100.985 207.089 100.985 219.249C100.985 231.409 117.956 241.267 138.891 241.267Z" fill="#F5EDFF" stroke="#5100CD" stroke-linecap="round" stroke-linejoin="round"/>
<path d="M138.89 226.929C146.194 226.929 152.114 223.491 152.114 219.249C152.114 215.008 146.194 211.569 138.89 211.569C131.587 211.569 125.666 215.008 125.666 219.249C125.666 223.491 131.587 226.929 138.89 226.929Z" fill="#F5EDFF" stroke="#5100CD" stroke-linecap="round" stroke-linejoin="round"/>
<path d="M129.544 217.064C134.711 214.065 143.078 214.065 148.245 217.064C150.113 218.152 151.294 219.476 151.813 220.874C152.726 218.412 151.545 215.74 148.245 213.822C143.078 210.824 134.711 210.824 129.544 213.822C126.244 215.74 125.063 218.412 125.976 220.874C126.495 219.476 127.676 218.144 129.544 217.064Z" fill="#DBC8F6" stroke="#5100CD" stroke-linecap="round" stroke-linejoin="round"/>
<path d="M129.543 224.685C134.711 227.683 143.077 227.683 148.245 224.685C150.112 223.596 151.293 222.273 151.812 220.874C151.293 219.476 150.112 218.144 148.245 217.064C143.077 214.065 134.711 214.065 129.543 217.064C127.676 218.152 126.495 219.476 125.976 220.874C126.495 222.273 127.676 223.596 129.543 224.685Z" fill="#F5EDFF" stroke="#5100CD" stroke-linecap="round" stroke-linejoin="round"/>
<path d="M190.976 136.077L207.064 126.739L190.976 117.174L174.896 126.739L190.976 136.077Z" fill="#F5EDFF" stroke="#5100CD" stroke-linecap="round" stroke-linejoin="round"/>
<path d="M190.976 143.011V136.077L207.064 126.739V133.782L190.976 143.011Z" fill="#F5EDFF" stroke="#5100CD" stroke-linecap="round" stroke-linejoin="round"/>
<path d="M174.896 133.456V126.739L190.976 136.077V143.011L174.896 133.456Z" fill="#F5EDFF" stroke="#5100CD" stroke-linecap="round" stroke-linejoin="round"/>
<path d="M211.511 147.852L227.591 138.506L211.511 128.95L195.431 138.506L211.511 147.852Z" fill="#F5EDFF" stroke="#5100CD" stroke-linecap="round" stroke-linejoin="round"/>
<path d="M211.511 154.786V147.852L227.591 138.505V145.549L211.511 154.786Z" fill="#DBC8F6" stroke="#5100CD" stroke-linecap="round" stroke-linejoin="round"/>
<path d="M195.431 145.222V138.505L211.511 147.852V154.786L195.431 145.222Z" fill="#F5EDFF" stroke="#5100CD" stroke-linecap="round" stroke-linejoin="round"/>
<path d="M170.448 147.953L186.528 138.606L170.448 129.042L154.368 138.606L170.448 147.953Z" fill="#F5EDFF" stroke="#5100CD" stroke-linecap="round" stroke-linejoin="round"/>
<path d="M170.448 154.887V147.953L186.528 138.606V145.65L170.448 154.887Z" fill="#F5EDFF" stroke="#5100CD" stroke-linecap="round" stroke-linejoin="round"/>
<path d="M154.368 145.323V138.606L170.448 147.953V154.887L154.368 145.323Z" fill="#F1E9FD" stroke="#5100CD" stroke-linecap="round" stroke-linejoin="round"/>
<path d="M190.976 159.719L207.064 150.381L190.976 140.817L174.896 150.381L190.976 159.719Z" fill="#F5EDFF" stroke="#5100CD" stroke-linecap="round" stroke-linejoin="round"/>
<path d="M190.976 166.654V159.719L207.064 150.381V157.425L190.976 166.654Z" fill="#DBC8F6" stroke="#5100CD" stroke-linecap="round" stroke-linejoin="round"/>
<path d="M174.896 157.098V150.381L190.976 159.719V166.654L174.896 157.098Z" fill="#F1E9FD" stroke="#5100CD" stroke-linecap="round" stroke-linejoin="round"/>
<path d="M190.975 134.159L221.234 116.58L190.975 98.5903L160.725 116.58L190.975 134.159Z" fill="#F5EDFF" stroke="#5100CD" stroke-linecap="round" stroke-linejoin="round"/>
<path d="M178.455 116.462L181.059 117.978C184.326 116.035 190.975 112.082 190.975 112.082V109.017L178.446 116.462H178.455Z" fill="#DBC8F6" stroke="#5100CD" stroke-linecap="round" stroke-linejoin="round"/>
<path d="M190.976 109.017V112.082L200.9 117.978L203.505 116.462L190.976 109.017Z" fill="#F5EDFF" stroke="#5100CD" stroke-linecap="round" stroke-linejoin="round"/>
<path d="M200.899 117.979L190.983 112.083C190.983 112.083 184.334 116.036 181.067 117.979L190.983 123.741L200.899 117.979Z" fill="#F5EDFF" stroke="#5100CD" stroke-linecap="round" stroke-linejoin="round"/>
<path d="M190.976 147.215V134.159L221.234 116.58V129.837L190.976 147.215Z" fill="#DBC8F6" stroke="#5100CD" stroke-linecap="round" stroke-linejoin="round"/>
<path d="M160.725 129.226V116.58L190.975 134.159V147.215L160.725 129.226Z" fill="#F1E9FD" stroke="#5100CD" stroke-linecap="round" stroke-linejoin="round"/>
<path d="M485.097 77.5863V87.2008L494.711 81.6482V72.0337L485.097 77.5863Z" fill="#F5EDFF" stroke="#5100CD" stroke-linecap="round" stroke-linejoin="round"/>
<path d="M504.342 77.5863V87.2008L494.728 81.6482V72.0337L504.342 77.5863Z" fill="#F5EDFF" stroke="#5100CD" stroke-linecap="round" stroke-linejoin="round"/>
<path d="M494.72 92.7116V83.0888L485.105 77.5361V87.159L494.72 92.7116Z" fill="#F5EDFF" stroke="#5100CD" stroke-linecap="round" stroke-linejoin="round"/>
<path d="M494.72 92.7116V83.0888L504.334 77.5361V87.159L494.72 92.7116Z" fill="#F5EDFF" stroke="#5100CD" stroke-linecap="round" stroke-linejoin="round"/>
<path d="M485.105 77.5361L494.728 72.0254L504.335 77.5361L494.72 83.0888L485.105 77.5361Z" fill="#F5EDFF" stroke="#5100CD" stroke-linecap="round" stroke-linejoin="round"/>
<path d="M497.282 84.6884V94.3029L506.897 88.7502V79.1357L497.282 84.6884Z" fill="#F5EDFF" stroke="#5100CD" stroke-linecap="round" stroke-linejoin="round"/>
<path d="M516.528 84.6884V94.3029L506.913 88.7502V79.1357L516.528 84.6884Z" fill="#F5EDFF" stroke="#5100CD" stroke-linecap="round" stroke-linejoin="round"/>
<path d="M506.906 99.822V90.1991L497.291 84.6465V94.2694L506.906 99.822Z" fill="#F5EDFF" stroke="#5100CD" stroke-linecap="round" stroke-linejoin="round"/>
<path d="M506.905 99.822V90.1991L516.52 84.6465V94.2694L506.905 99.822Z" fill="#F5EDFF" stroke="#5100CD" stroke-linecap="round" stroke-linejoin="round"/>
<path d="M497.291 84.6465L506.914 79.1357L516.52 84.6465L506.905 90.1991L497.291 84.6465Z" fill="#F5EDFF" stroke="#5100CD" stroke-linecap="round" stroke-linejoin="round"/>
<path d="M472.91 84.6884V94.3029L482.525 88.7502V79.1357L472.91 84.6884Z" fill="#F5EDFF" stroke="#5100CD" stroke-linecap="round" stroke-linejoin="round"/>
<path d="M492.156 84.6884V94.3029L482.541 88.7502V79.1357L492.156 84.6884Z" fill="#F5EDFF" stroke="#5100CD" stroke-linecap="round" stroke-linejoin="round"/>
<path d="M482.533 99.822V90.1991L472.919 84.6465V94.2694L482.533 99.822Z" fill="#F5EDFF" stroke="#5100CD" stroke-linecap="round" stroke-linejoin="round"/>
<path d="M482.533 99.822V90.1991L492.148 84.6465V94.2694L482.533 99.822Z" fill="#F5EDFF" stroke="#5100CD" stroke-linecap="round" stroke-linejoin="round"/>
<path d="M472.919 84.6465L482.542 79.1357L492.148 84.6465L482.533 90.1991L472.919 84.6465Z" fill="#F5EDFF" stroke="#5100CD" stroke-linecap="round" stroke-linejoin="round"/>
<path d="M485.097 91.7987V101.413L494.711 95.8606V86.2461L485.097 91.7987Z" fill="#F5EDFF" stroke="#5100CD" stroke-linecap="round" stroke-linejoin="round"/>
<path d="M504.342 91.7987V101.413L494.728 95.8606V86.2461L504.342 91.7987Z" fill="#F5EDFF" stroke="#5100CD" stroke-linecap="round" stroke-linejoin="round"/>
<path d="M494.72 106.924V97.3012L485.105 91.7485V101.371L494.72 106.924Z" fill="#F5EDFF" stroke="#5100CD" stroke-linecap="round" stroke-linejoin="round"/>
<path d="M494.72 106.924V97.3012L504.334 91.7485V101.371L494.72 106.924Z" fill="#F5EDFF" stroke="#5100CD" stroke-linecap="round" stroke-linejoin="round"/>
<path d="M485.105 91.7485L494.728 86.2378L504.335 91.7485L494.72 97.3012L485.105 91.7485Z" fill="#F5EDFF" stroke="#5100CD" stroke-linecap="round" stroke-linejoin="round"/>
<path d="M460.675 91.7987V101.413L470.289 95.8606V86.2461L460.675 91.7987Z" fill="#F5EDFF" stroke="#5100CD" stroke-linecap="round" stroke-linejoin="round"/>
<path d="M479.92 91.7987V101.413L470.306 95.8606V86.2461L479.92 91.7987Z" fill="#F5EDFF" stroke="#5100CD" stroke-linecap="round" stroke-linejoin="round"/>
<path d="M470.298 106.924V97.3012L460.684 91.7485V101.371L470.298 106.924Z" fill="#F1E9FD" stroke="#5100CD" stroke-linecap="round" stroke-linejoin="round"/>
<path d="M470.306 106.924V97.3012L479.92 91.7485V101.371L470.306 106.924Z" fill="#F5EDFF" stroke="#5100CD" stroke-linecap="round" stroke-linejoin="round"/>
<path d="M460.684 91.7485L470.306 86.2378L479.913 91.7485L470.298 97.3012L460.684 91.7485Z" fill="#F5EDFF" stroke="#5100CD" stroke-linecap="round" stroke-linejoin="round"/>
<path d="M472.869 98.9008V108.515L482.484 102.963V93.3481L472.869 98.9008Z" fill="#F5EDFF" stroke="#5100CD" stroke-linecap="round" stroke-linejoin="round"/>
<path d="M492.115 98.9008V108.515L482.5 102.963V93.3481L492.115 98.9008Z" fill="#F5EDFF" stroke="#5100CD" stroke-linecap="round" stroke-linejoin="round"/>
<path d="M482.492 114.034V104.412L472.878 98.8589V108.482L482.492 114.034Z" fill="#F1E9FD" stroke="#5100CD" stroke-linecap="round" stroke-linejoin="round"/>
<path d="M482.492 114.034V104.412L492.107 98.8589V108.482L482.492 114.034Z" fill="#F5EDFF" stroke="#5100CD" stroke-linecap="round" stroke-linejoin="round"/>
<path d="M472.878 98.8589L482.501 93.3481L492.107 98.8589L482.492 104.412L472.878 98.8589Z" fill="#F5EDFF" stroke="#5100CD" stroke-linecap="round" stroke-linejoin="round"/>
<path d="M519.099 86.2461V95.8606L528.713 101.413V91.7987L519.099 86.2461Z" fill="#F5EDFF" stroke="#5100CD" stroke-linecap="round" stroke-linejoin="round"/>
<path d="M519.09 86.2461V95.8606L509.476 101.413V91.7987L519.09 86.2461Z" fill="#F5EDFF" stroke="#5100CD" stroke-linecap="round" stroke-linejoin="round"/>
<path d="M528.713 101.371V91.7485L519.099 97.3012V106.924L528.713 101.371Z" fill="#DBC8F6" stroke="#5100CD" stroke-linecap="round" stroke-linejoin="round"/>
<path d="M509.476 101.371V91.7485L519.09 97.3012V106.924L509.476 101.371Z" fill="#F5EDFF" stroke="#5100CD" stroke-linecap="round" stroke-linejoin="round"/>
<path d="M519.099 97.3012L509.484 91.7485L519.09 86.2378L528.713 91.7485L519.099 97.3012Z" fill="#F5EDFF" stroke="#5100CD" stroke-linecap="round" stroke-linejoin="round"/>
<path d="M506.913 93.3481V102.963L516.528 108.515V98.9008L506.913 93.3481Z" fill="#F5EDFF" stroke="#5100CD" stroke-linecap="round" stroke-linejoin="round"/>
<path d="M506.897 93.3481V102.963L497.282 108.515V98.9008L506.897 93.3481Z" fill="#F5EDFF" stroke="#5100CD" stroke-linecap="round" stroke-linejoin="round"/>
<path d="M516.52 108.482V98.8589L506.905 104.412V114.034L516.52 108.482Z" fill="#DBC8F6" stroke="#5100CD" stroke-linecap="round" stroke-linejoin="round"/>
<path d="M497.291 108.482V98.8589L506.906 104.412V114.034L497.291 108.482Z" fill="#F5EDFF" stroke="#5100CD" stroke-linecap="round" stroke-linejoin="round"/>
<path d="M506.905 104.412L497.291 98.8589L506.897 93.3481L516.52 98.8589L506.905 104.412Z" fill="#F5EDFF" stroke="#5100CD" stroke-linecap="round" stroke-linejoin="round"/>
<path d="M485.055 106.011V115.626L494.669 110.073V100.458L485.055 106.011Z" fill="#F5EDFF" stroke="#5100CD" stroke-linecap="round" stroke-linejoin="round"/>
<path d="M504.3 106.011V115.626L494.686 110.073V100.458L504.3 106.011Z" fill="#F5EDFF" stroke="#5100CD" stroke-linecap="round" stroke-linejoin="round"/>
<path d="M494.678 121.136V111.514L485.063 105.961V115.584L494.678 121.136Z" fill="#F1E9FD" stroke="#5100CD" stroke-linecap="round" stroke-linejoin="round"/>
<path d="M494.678 121.136V111.514L504.292 105.961V115.584L494.678 121.136Z" fill="#DBC8F6" stroke="#5100CD" stroke-linecap="round" stroke-linejoin="round"/>
<path d="M485.063 105.961L494.686 100.45L504.293 105.961L494.678 111.514L485.063 105.961Z" fill="#F5EDFF" stroke="#5100CD" stroke-linecap="round" stroke-linejoin="round"/>
<path d="M519.074 69.3369L494.702 83.499L470.331 69.3369L494.702 55.1831L519.074 69.3369Z" fill="#F5EDFF" stroke="#5100CD" stroke-linecap="round" stroke-linejoin="round"/>
<path d="M517.708 91.6481L493.337 77.4943V53.123L517.708 67.2768V91.6481Z" fill="#F5EDFF" stroke="#5100CD" stroke-linecap="round" stroke-linejoin="round"/>
<path d="M517.842 91.5807L493.471 77.4186V53.0474L517.842 67.2095V91.5807Z" fill="#F5EDFF" stroke="#5100CD" stroke-linecap="round" stroke-linejoin="round"/>
<path d="M516.284 92.2257L491.913 78.0719V53.7007L516.284 67.8544V92.2257Z" fill="#F5EDFF" stroke="#5100CD" stroke-linecap="round" stroke-linejoin="round"/>
<path d="M516.427 92.1505L492.056 77.9967V53.6255L516.427 67.7876V92.1589V92.1505Z" fill="#F5EDFF" stroke="#5100CD" stroke-linecap="round" stroke-linejoin="round"/>
<path d="M514.878 92.8034L490.507 78.6413V54.27L514.878 68.4321V92.8034Z" fill="#F5EDFF" stroke="#5100CD" stroke-linecap="round" stroke-linejoin="round"/>
<path d="M515.012 92.7281L490.641 78.5744V54.2031L515.012 68.3569V92.7281Z" fill="#F5EDFF" stroke="#5100CD" stroke-linecap="round" stroke-linejoin="round"/>
<path d="M513.462 93.3815L489.091 79.2194V54.8481L513.462 69.0103V93.3815Z" fill="#F5EDFF" stroke="#5100CD" stroke-linecap="round" stroke-linejoin="round"/>
<path d="M513.605 93.3063L489.233 79.1525V54.7812L513.605 68.935V93.3063Z" fill="#F5EDFF" stroke="#5100CD" stroke-linecap="round" stroke-linejoin="round"/>
<path d="M512.047 87.0665L487.676 72.9128V48.5415L512.047 62.6953V87.0665Z" fill="#F5EDFF" stroke="#5100CD" stroke-linecap="round" stroke-linejoin="round"/>
<path d="M512.181 86.9997L487.81 72.8376V48.4663L512.181 62.6284V86.9997Z" fill="#F5EDFF" stroke="#5100CD" stroke-linecap="round" stroke-linejoin="round"/>
<path d="M510.632 90.2575L486.261 76.0954V51.7241L510.632 65.8862V90.2575Z" fill="#F5EDFF" stroke="#5100CD" stroke-linecap="round" stroke-linejoin="round"/>
<path d="M510.774 90.1822L486.402 76.0285V51.6572L510.774 65.811V90.1822Z" fill="#F5EDFF" stroke="#5100CD" stroke-linecap="round" stroke-linejoin="round"/>
<path d="M509.216 91.5055L484.845 77.3517V52.9805L509.216 67.1342V91.5055Z" fill="#F5EDFF" stroke="#5100CD" stroke-linecap="round" stroke-linejoin="round"/>
<path d="M509.35 91.4386L484.979 77.2765V52.9053L509.35 67.0674V91.4386Z" fill="#F5EDFF" stroke="#5100CD" stroke-linecap="round" stroke-linejoin="round"/>
<path d="M507.801 95.6847L483.43 81.5226V57.1514L507.801 71.3051V95.6764V95.6847Z" fill="#F5EDFF" stroke="#5100CD" stroke-linecap="round" stroke-linejoin="round"/>
<path d="M507.944 95.609L483.572 81.4552V57.084L507.944 71.2377V95.609Z" fill="#F5EDFF" stroke="#5100CD" stroke-linecap="round" stroke-linejoin="round"/>
<path d="M506.385 96.2624L482.014 82.1003V57.729L506.385 71.8911V96.2624Z" fill="#F5EDFF" stroke="#5100CD" stroke-linecap="round" stroke-linejoin="round"/>
<path d="M506.52 96.1871L482.148 82.0334V57.6621L506.52 71.8159V96.1871Z" fill="#F5EDFF" stroke="#5100CD" stroke-linecap="round" stroke-linejoin="round"/>
<path d="M504.97 96.8405L480.599 82.6784V58.3071L504.97 72.4693V96.8405Z" fill="#F5EDFF" stroke="#5100CD" stroke-linecap="round" stroke-linejoin="round"/>
<path d="M505.112 96.7648L480.741 82.6027V58.2314L505.112 72.3852V96.7564V96.7648Z" fill="#F5EDFF" stroke="#5100CD" stroke-linecap="round" stroke-linejoin="round"/>
<path d="M503.563 93.1301L479.191 78.9679V54.5967L503.563 68.7588V93.1301Z" fill="#F5EDFF" stroke="#5100CD" stroke-linecap="round" stroke-linejoin="round"/>
<path d="M503.697 93.0548L479.326 78.901V54.5298L503.697 68.6835V93.0548Z" fill="#F5EDFF" stroke="#5100CD" stroke-linecap="round" stroke-linejoin="round"/>
<path d="M502.148 94.1603L477.776 80.0065V55.6353L502.148 69.7974V94.1686V94.1603Z" fill="#F5EDFF" stroke="#5100CD" stroke-linecap="round" stroke-linejoin="round"/>
<path d="M502.281 94.0851L477.91 79.923V55.5518L502.281 69.7139V94.0851Z" fill="#F5EDFF" stroke="#5100CD" stroke-linecap="round" stroke-linejoin="round"/>
<path d="M500.733 95.1989L476.361 81.0368V56.6655L500.733 70.8276V95.1989Z" fill="#F5EDFF" stroke="#5100CD" stroke-linecap="round" stroke-linejoin="round"/>
<path d="M500.866 95.1232L476.495 80.9611V56.5898L500.866 70.752V95.1232Z" fill="#F5EDFF" stroke="#5100CD" stroke-linecap="round" stroke-linejoin="round"/>
<path d="M499.317 96.1618L474.945 81.9997V57.6284L499.317 71.7905V96.1618Z" fill="#F5EDFF" stroke="#5100CD" stroke-linecap="round" stroke-linejoin="round"/>
<path d="M499.451 96.0782L475.08 81.9245V57.5532L499.451 71.707V96.0782Z" fill="#F5EDFF" stroke="#5100CD" stroke-linecap="round" stroke-linejoin="round"/>
<path d="M497.902 97.3346L473.53 83.1808V58.8096L497.902 72.9633V97.3346Z" fill="#F5EDFF" stroke="#5100CD" stroke-linecap="round" stroke-linejoin="round"/>
<path d="M498.044 97.259L473.673 83.0968V58.7256L498.044 72.8877V97.259Z" fill="#F5EDFF" stroke="#5100CD" stroke-linecap="round" stroke-linejoin="round"/>
<path d="M494.702 105.952L470.331 91.7903V69.3369L494.702 83.499V105.952Z" fill="#F1E9FD" stroke="#5100CD" stroke-linecap="round" stroke-linejoin="round"/>
<path d="M519.073 91.7903L494.702 105.952V83.499L519.073 69.3369V91.7903Z" fill="#DBC8F6" stroke="#5100CD" stroke-linecap="round" stroke-linejoin="round"/>
<path d="M600.002 138.849V145.842L606.995 141.806V134.812L600.002 138.849Z" fill="#F5EDFF" stroke="#5100CD" stroke-linecap="round" stroke-linejoin="round"/>
<path d="M613.997 138.849V145.842L607.004 141.806V134.812L613.997 138.849Z" fill="#F5EDFF" stroke="#5100CD" stroke-linecap="round" stroke-linejoin="round"/>
<path d="M607.004 149.854V142.853L600.011 138.816V145.817L607.004 149.854Z" fill="#F5EDFF" stroke="#5100CD" stroke-linecap="round" stroke-linejoin="round"/>
<path d="M607.004 149.854V142.853L613.997 138.816V145.817L607.004 149.854Z" fill="#F5EDFF" stroke="#5100CD" stroke-linecap="round" stroke-linejoin="round"/>
<path d="M600.011 138.816L607.012 134.812L613.997 138.816L607.004 142.853L600.011 138.816Z" fill="#F5EDFF" stroke="#5100CD" stroke-linecap="round" stroke-linejoin="round"/>
<path d="M608.863 144.017V151.01L615.856 146.973V139.98L608.863 144.017Z" fill="#F5EDFF" stroke="#5100CD" stroke-linecap="round" stroke-linejoin="round"/>
<path d="M622.866 144.017V151.01L615.873 146.973V139.98L622.866 144.017Z" fill="#F5EDFF" stroke="#5100CD" stroke-linecap="round" stroke-linejoin="round"/>
<path d="M615.865 155.022V148.02L608.872 143.983V150.985L615.865 155.022Z" fill="#F5EDFF" stroke="#5100CD" stroke-linecap="round" stroke-linejoin="round"/>
<path d="M615.865 155.022V148.02L622.858 143.983V150.985L615.865 155.022Z" fill="#F5EDFF" stroke="#5100CD" stroke-linecap="round" stroke-linejoin="round"/>
<path d="M608.872 143.983L615.874 139.98L622.858 143.983L615.865 148.02L608.872 143.983Z" fill="#F5EDFF" stroke="#5100CD" stroke-linecap="round" stroke-linejoin="round"/>
<path d="M617.732 149.184V156.177L624.726 152.141V145.147L617.732 149.184Z" fill="#F5EDFF" stroke="#5100CD" stroke-linecap="round" stroke-linejoin="round"/>
<path d="M631.727 149.184V156.177L624.734 152.141V145.147L631.727 149.184Z" fill="#F5EDFF" stroke="#5100CD" stroke-linecap="round" stroke-linejoin="round"/>
<path d="M624.726 160.189V153.188L617.732 149.151V156.152L624.726 160.189Z" fill="#F5EDFF" stroke="#5100CD" stroke-linecap="round" stroke-linejoin="round"/>
<path d="M624.734 160.189V153.188L631.727 149.151V156.152L624.734 160.189Z" fill="#F5EDFF" stroke="#5100CD" stroke-linecap="round" stroke-linejoin="round"/>
<path d="M617.732 149.151L624.734 145.147L631.719 149.151L624.726 153.187L617.732 149.151Z" fill="#F5EDFF" stroke="#5100CD" stroke-linecap="round" stroke-linejoin="round"/>
<path d="M591.133 144.017V151.01L598.126 146.973V139.98L591.133 144.017Z" fill="#F5EDFF" stroke="#5100CD" stroke-linecap="round" stroke-linejoin="round"/>
<path d="M605.136 144.017V151.01L598.143 146.973V139.98L605.136 144.017Z" fill="#F5EDFF" stroke="#5100CD" stroke-linecap="round" stroke-linejoin="round"/>
<path d="M598.135 155.022V148.02L591.142 143.983V150.985L598.135 155.022Z" fill="#F5EDFF" stroke="#5100CD" stroke-linecap="round" stroke-linejoin="round"/>
<path d="M598.135 155.022V148.02L605.128 143.983V150.985L598.135 155.022Z" fill="#F5EDFF" stroke="#5100CD" stroke-linecap="round" stroke-linejoin="round"/>
<path d="M591.142 143.983L598.143 139.98L605.128 143.983L598.135 148.02L591.142 143.983Z" fill="#F5EDFF" stroke="#5100CD" stroke-linecap="round" stroke-linejoin="round"/>
<path d="M600.002 149.184V156.177L606.995 152.141V145.147L600.002 149.184Z" fill="#F5EDFF" stroke="#5100CD" stroke-linecap="round" stroke-linejoin="round"/>
<path d="M613.997 149.184V156.177L607.004 152.141V145.147L613.997 149.184Z" fill="#F5EDFF" stroke="#5100CD" stroke-linecap="round" stroke-linejoin="round"/>
<path d="M607.004 160.189V153.188L600.011 149.151V156.152L607.004 160.189Z" fill="#F5EDFF" stroke="#5100CD" stroke-linecap="round" stroke-linejoin="round"/>
<path d="M607.004 160.189V153.188L613.997 149.151V156.152L607.004 160.189Z" fill="#F5EDFF" stroke="#5100CD" stroke-linecap="round" stroke-linejoin="round"/>
<path d="M600.011 149.151L607.012 145.147L613.997 149.151L607.004 153.187L600.011 149.151Z" fill="#F5EDFF" stroke="#5100CD" stroke-linecap="round" stroke-linejoin="round"/>
<path d="M608.863 154.351V161.344L615.856 157.308V150.314L608.863 154.351Z" fill="#F5EDFF" stroke="#5100CD" stroke-linecap="round" stroke-linejoin="round"/>
<path d="M622.866 154.351V161.344L615.873 157.308V150.314L622.866 154.351Z" fill="#F5EDFF" stroke="#5100CD" stroke-linecap="round" stroke-linejoin="round"/>
<path d="M615.865 165.356V158.355L608.872 154.318V161.319L615.865 165.356Z" fill="#F5EDFF" stroke="#5100CD" stroke-linecap="round" stroke-linejoin="round"/>
<path d="M615.865 165.356V158.355L622.858 154.318V161.319L615.865 165.356Z" fill="#F5EDFF" stroke="#5100CD" stroke-linecap="round" stroke-linejoin="round"/>
<path d="M608.872 154.318L615.874 150.314L622.858 154.318L615.865 158.354L608.872 154.318Z" fill="#F5EDFF" stroke="#5100CD" stroke-linecap="round" stroke-linejoin="round"/>
<path d="M582.272 149.184V156.177L589.266 152.141V145.147L582.272 149.184Z" fill="#F5EDFF" stroke="#5100CD" stroke-linecap="round" stroke-linejoin="round"/>
<path d="M596.268 149.184V156.177L589.274 152.141V145.147L596.268 149.184Z" fill="#F5EDFF" stroke="#5100CD" stroke-linecap="round" stroke-linejoin="round"/>
<path d="M589.274 160.189V153.188L582.281 149.151V156.152L589.274 160.189Z" fill="#F5EDFF" stroke="#5100CD" stroke-linecap="round" stroke-linejoin="round"/>
<path d="M589.274 160.189V153.188L596.268 149.151V156.152L589.274 160.189Z" fill="#F5EDFF" stroke="#5100CD" stroke-linecap="round" stroke-linejoin="round"/>
<path d="M582.281 149.151L589.283 145.147L596.268 149.151L589.274 153.187L582.281 149.151Z" fill="#F5EDFF" stroke="#5100CD" stroke-linecap="round" stroke-linejoin="round"/>
<path d="M591.133 154.351V161.344L598.126 157.308V150.314L591.133 154.351Z" fill="#F5EDFF" stroke="#5100CD" stroke-linecap="round" stroke-linejoin="round"/>
<path d="M605.136 154.351V161.344L598.143 157.308V150.314L605.136 154.351Z" fill="#F5EDFF" stroke="#5100CD" stroke-linecap="round" stroke-linejoin="round"/>
<path d="M598.135 165.356V158.355L591.142 154.318V161.319L598.135 165.356Z" fill="#F5EDFF" stroke="#5100CD" stroke-linecap="round" stroke-linejoin="round"/>
<path d="M598.135 165.356V158.355L605.128 154.318V161.319L598.135 165.356Z" fill="#F5EDFF" stroke="#5100CD" stroke-linecap="round" stroke-linejoin="round"/>
<path d="M591.142 154.318L598.143 150.314L605.128 154.318L598.135 158.354L591.142 154.318Z" fill="#F5EDFF" stroke="#5100CD" stroke-linecap="round" stroke-linejoin="round"/>
<path d="M600.002 159.527V166.52L606.995 162.483V155.49L600.002 159.527Z" fill="#F5EDFF" stroke="#5100CD" stroke-linecap="round" stroke-linejoin="round"/>
<path d="M613.997 159.527V166.52L607.004 162.483V155.49L613.997 159.527Z" fill="#F5EDFF" stroke="#5100CD" stroke-linecap="round" stroke-linejoin="round"/>
<path d="M607.004 170.532V163.53L600.011 159.494V166.495L607.004 170.532Z" fill="#F5EDFF" stroke="#5100CD" stroke-linecap="round" stroke-linejoin="round"/>
<path d="M607.004 170.532V163.53L613.997 159.494V166.495L607.004 170.532Z" fill="#F5EDFF" stroke="#5100CD" stroke-linecap="round" stroke-linejoin="round"/>
<path d="M600.011 159.493L607.012 155.49L613.997 159.493L607.004 163.53L600.011 159.493Z" fill="#F5EDFF" stroke="#5100CD" stroke-linecap="round" stroke-linejoin="round"/>
<path d="M573.378 154.351V161.344L580.371 157.308V150.314L573.378 154.351Z" fill="#F5EDFF" stroke="#5100CD" stroke-linecap="round" stroke-linejoin="round"/>
<path d="M587.372 154.351V161.344L580.379 157.308V150.314L587.372 154.351Z" fill="#F5EDFF" stroke="#5100CD" stroke-linecap="round" stroke-linejoin="round"/>
<path d="M580.371 165.356V158.355L573.378 154.318V161.319L580.371 165.356Z" fill="#F1E9FD" stroke="#5100CD" stroke-linecap="round" stroke-linejoin="round"/>
<path d="M580.371 165.356V158.355L587.364 154.318V161.319L580.371 165.356Z" fill="#F5EDFF" stroke="#5100CD" stroke-linecap="round" stroke-linejoin="round"/>
<path d="M573.378 154.318L580.379 150.314L587.364 154.318L580.371 158.354L573.378 154.318Z" fill="#F5EDFF" stroke="#5100CD" stroke-linecap="round" stroke-linejoin="round"/>
<path d="M582.238 159.527V166.52L589.231 162.483V155.49L582.238 159.527Z" fill="#F5EDFF" stroke="#5100CD" stroke-linecap="round" stroke-linejoin="round"/>
<path d="M596.241 159.527V166.52L589.248 162.483V155.49L596.241 159.527Z" fill="#F5EDFF" stroke="#5100CD" stroke-linecap="round" stroke-linejoin="round"/>
<path d="M589.239 170.532V163.53L582.246 159.494V166.495L589.239 170.532Z" fill="#F1E9FD" stroke="#5100CD" stroke-linecap="round" stroke-linejoin="round"/>
<path d="M589.24 170.532V163.53L596.233 159.494V166.495L589.24 170.532Z" fill="#F5EDFF" stroke="#5100CD" stroke-linecap="round" stroke-linejoin="round"/>
<path d="M582.246 159.493L589.248 155.49L596.232 159.493L589.239 163.53L582.246 159.493Z" fill="#F5EDFF" stroke="#5100CD" stroke-linecap="round" stroke-linejoin="round"/>
<path d="M591.107 164.694V171.688L598.101 167.651V160.658L591.107 164.694Z" fill="#F5EDFF" stroke="#5100CD" stroke-linecap="round" stroke-linejoin="round"/>
<path d="M605.103 164.694V171.688L598.109 167.651V160.658L605.103 164.694Z" fill="#F5EDFF" stroke="#5100CD" stroke-linecap="round" stroke-linejoin="round"/>
<path d="M598.101 175.699V168.698L591.107 164.661V171.663L598.101 175.699Z" fill="#F1E9FD" stroke="#5100CD" stroke-linecap="round" stroke-linejoin="round"/>
<path d="M598.101 175.699V168.698L605.094 164.661V171.663L598.101 175.699Z" fill="#F5EDFF" stroke="#5100CD" stroke-linecap="round" stroke-linejoin="round"/>
<path d="M591.107 164.661L598.109 160.658L605.094 164.661L598.101 168.698L591.107 164.661Z" fill="#F5EDFF" stroke="#5100CD" stroke-linecap="round" stroke-linejoin="round"/>
<path d="M633.603 150.314V157.308L640.596 161.344V154.351L633.603 150.314Z" fill="#F5EDFF" stroke="#5100CD" stroke-linecap="round" stroke-linejoin="round"/>
<path d="M633.586 150.314V157.308L626.593 161.344V154.351L633.586 150.314Z" fill="#F5EDFF" stroke="#5100CD" stroke-linecap="round" stroke-linejoin="round"/>
<path d="M640.588 161.319V154.318L633.595 158.355V165.356L640.588 161.319Z" fill="#DBC8F6" stroke="#5100CD" stroke-linecap="round" stroke-linejoin="round"/>
<path d="M626.602 161.319V154.318L633.595 158.355V165.356L626.602 161.319Z" fill="#F5EDFF" stroke="#5100CD" stroke-linecap="round" stroke-linejoin="round"/>
<path d="M633.595 158.363L626.602 154.326L633.586 150.323L640.588 154.326L633.595 158.363Z" fill="#F5EDFF" stroke="#5100CD" stroke-linecap="round" stroke-linejoin="round"/>
<path d="M624.734 155.482V162.475L631.727 166.512V159.519L624.734 155.482Z" fill="#F5EDFF" stroke="#5100CD" stroke-linecap="round" stroke-linejoin="round"/>
<path d="M624.726 155.482V162.475L617.732 166.512V159.519L624.726 155.482Z" fill="#F5EDFF" stroke="#5100CD" stroke-linecap="round" stroke-linejoin="round"/>
<path d="M631.727 166.487V159.485L624.734 163.522V170.524L631.727 166.487Z" fill="#DBC8F6" stroke="#5100CD" stroke-linecap="round" stroke-linejoin="round"/>
<path d="M617.732 166.487V159.485L624.726 163.522V170.524L617.732 166.487Z" fill="#F5EDFF" stroke="#5100CD" stroke-linecap="round" stroke-linejoin="round"/>
<path d="M624.726 163.53L617.732 159.493L624.717 155.49L631.719 159.493L624.726 163.53Z" fill="#F5EDFF" stroke="#5100CD" stroke-linecap="round" stroke-linejoin="round"/>
<path d="M615.873 160.649V167.643L622.866 171.679V164.686L615.873 160.649Z" fill="#F5EDFF" stroke="#5100CD" stroke-linecap="round" stroke-linejoin="round"/>
<path d="M615.856 160.649V167.643L608.863 171.679V164.686L615.856 160.649Z" fill="#F5EDFF" stroke="#5100CD" stroke-linecap="round" stroke-linejoin="round"/>
<path d="M622.858 171.654V164.653L615.865 168.69V175.691L622.858 171.654Z" fill="#DBC8F6" stroke="#5100CD" stroke-linecap="round" stroke-linejoin="round"/>
<path d="M608.872 171.654V164.653L615.865 168.69V175.691L608.872 171.654Z" fill="#F5EDFF" stroke="#5100CD" stroke-linecap="round" stroke-linejoin="round"/>
<path d="M615.865 168.698L608.872 164.661L615.857 160.658L622.858 164.661L615.865 168.698Z" fill="#F5EDFF" stroke="#5100CD" stroke-linecap="round" stroke-linejoin="round"/>
<path d="M599.969 169.862V176.855L606.962 172.818V165.825L599.969 169.862Z" fill="#F5EDFF" stroke="#5100CD" stroke-linecap="round" stroke-linejoin="round"/>
<path d="M613.964 169.862V176.855L606.971 172.818V165.825L613.964 169.862Z" fill="#F5EDFF" stroke="#5100CD" stroke-linecap="round" stroke-linejoin="round"/>
<path d="M606.971 180.867V173.865L599.978 169.829V176.83L606.971 180.867Z" fill="#F1E9FD" stroke="#5100CD" stroke-linecap="round" stroke-linejoin="round"/>
<path d="M606.971 180.867V173.865L613.964 169.829V176.83L606.971 180.867Z" fill="#DBC8F6" stroke="#5100CD" stroke-linecap="round" stroke-linejoin="round"/>
<path d="M599.978 169.828L606.979 165.825L613.964 169.828L606.971 173.865L599.978 169.828Z" fill="#F5EDFF" stroke="#5100CD" stroke-linecap="round" stroke-linejoin="round"/>
<path d="M606.961 157.576L632.254 142.877L606.961 127.836L581.669 142.877L606.961 157.576Z" fill="#F5EDFF" stroke="#5100CD" stroke-linecap="round" stroke-linejoin="round"/>
<path d="M596.492 142.777L598.67 144.042C601.4 142.417 606.961 139.109 606.961 139.109V136.546L596.492 142.777Z" fill="#DBC8F6" stroke="#5100CD" stroke-linecap="round" stroke-linejoin="round"/>
<path d="M606.961 136.554V139.117L615.252 144.041L617.438 142.777L606.961 136.554Z" fill="#F5EDFF" stroke="#5100CD" stroke-linecap="round" stroke-linejoin="round"/>
<path d="M615.252 144.042L606.961 139.109C606.961 139.109 601.4 142.417 598.67 144.042L606.961 148.857L615.252 144.042Z" fill="#F5EDFF" stroke="#5100CD" stroke-linecap="round" stroke-linejoin="round"/>
<path d="M606.961 168.488V157.576L632.253 142.877V153.958L606.961 168.488Z" fill="#DBC8F6" stroke="#5100CD" stroke-linecap="round" stroke-linejoin="round"/>
<path d="M581.669 153.447V142.877L606.961 157.576V168.488L581.669 153.447Z" fill="#F1E9FD" stroke="#5100CD" stroke-linecap="round" stroke-linejoin="round"/>
<path d="M496.135 222.44L482.19 226.795V235.455C482.19 250.111 495.75 255.504 495.884 255.563L496.135 255.664L496.386 255.563C496.52 255.513 510.079 250.119 510.079 235.455V226.795L496.135 222.44Z" fill="#5100CD" stroke="#5100CD" stroke-linecap="round" stroke-linejoin="round"/>
<path d="M524.493 245.723H522.357L523.27 251.393C523.714 254.55 526.017 257.64 530.171 260.052C539.493 265.463 554.601 265.463 563.923 260.052C568.085 257.632 570.38 254.55 570.824 251.393L571.736 245.723H524.485H524.493Z" fill="#F5EDFF" stroke="#5100CD" stroke-linecap="round" stroke-linejoin="round"/>
<path d="M538.538 245.723V263.21C540.724 263.695 543.002 263.98 545.297 264.081V245.723H538.538Z" fill="#5100CD" stroke="#5100CD" stroke-linecap="round" stroke-linejoin="round"/>
<path d="M524.493 245.723H522.357L523.27 251.393C523.714 254.55 526.017 257.64 530.171 260.052C532.625 261.476 535.489 262.523 538.538 263.201V245.714H524.485L524.493 245.723Z" fill="#DBC8F6" stroke="#5100CD" stroke-linecap="round" stroke-linejoin="round"/>
<path d="M545.297 245.723V264.081C546.436 264.131 547.583 264.131 548.722 264.081V245.723H545.297Z" fill="#DBC8F6" stroke="#5100CD" stroke-linecap="round" stroke-linejoin="round"/>
<path d="M569.609 245.723H558.136V262.531C560.221 261.895 562.173 261.074 563.923 260.052C568.085 257.632 570.38 254.55 570.824 251.393L571.737 245.723H569.601H569.609Z" fill="#5100CD" stroke="#5100CD" stroke-linecap="round" stroke-linejoin="round"/>
<path d="M548.722 245.723V264.081C551.117 263.98 553.487 263.679 555.748 263.159V245.723H548.722Z" fill="#5100CD" stroke="#5100CD" stroke-linecap="round" stroke-linejoin="round"/>
<path d="M555.757 245.723V263.159C556.561 262.975 557.356 262.766 558.135 262.531V245.723H555.757Z" fill="#DBC8F6" stroke="#5100CD" stroke-linecap="round" stroke-linejoin="round"/>
<path d="M547.047 258.084C560.835 258.084 572.013 251.594 572.013 243.587C572.013 235.58 560.835 229.09 547.047 229.09C533.259 229.09 522.081 235.58 522.081 243.587C522.081 251.594 533.259 258.084 547.047 258.084Z" fill="#F5EDFF" stroke="#5100CD" stroke-linecap="round" stroke-linejoin="round"/>
<path d="M547.047 248.645C551.857 248.645 555.757 246.381 555.757 243.587C555.757 240.793 551.857 238.528 547.047 238.528C542.237 238.528 538.337 240.793 538.337 243.587C538.337 246.381 542.237 248.645 547.047 248.645Z" fill="#F5EDFF" stroke="#5100CD" stroke-linecap="round" stroke-linejoin="round"/>
<path d="M540.891 242.146C544.291 240.17 549.802 240.17 553.211 242.146C554.442 242.858 555.221 243.738 555.556 244.659C556.159 243.034 555.38 241.275 553.211 240.019C549.81 238.042 544.3 238.042 540.891 240.019C538.722 241.284 537.943 243.042 538.546 244.659C538.889 243.738 539.668 242.867 540.891 242.146Z" fill="#F5EDFF" stroke="#5100CD" stroke-linecap="round" stroke-linejoin="round"/>
<path d="M540.891 247.163C544.291 249.139 549.802 249.139 553.211 247.163C554.442 246.451 555.221 245.571 555.556 244.65C555.212 243.729 554.433 242.858 553.211 242.138C549.81 240.161 544.3 240.161 540.891 242.138C539.66 242.85 538.881 243.729 538.546 244.65C538.889 245.571 539.668 246.442 540.891 247.163Z" fill="#F5EDFF" stroke="#5100CD" stroke-linecap="round" stroke-linejoin="round"/>
<path d="M524.493 236.125H522.357L523.27 241.795C523.714 244.952 526.017 248.043 530.171 250.455C539.493 255.865 554.601 255.865 563.923 250.455C568.085 248.034 570.38 244.952 570.824 241.795L571.736 236.125H524.485H524.493Z" fill="#F5EDFF" stroke="#5100CD" stroke-linecap="round" stroke-linejoin="round"/>
<path d="M538.538 236.125V253.612C540.724 254.098 543.002 254.382 545.297 254.483V236.125H538.538Z" fill="#5100CD" stroke="#5100CD" stroke-linecap="round" stroke-linejoin="round"/>
<path d="M524.493 236.125H522.357L523.27 241.795C523.714 244.952 526.017 248.043 530.171 250.455C532.625 251.878 535.489 252.925 538.538 253.604V236.117H524.485L524.493 236.125Z" fill="#DBC8F6" stroke="#5100CD" stroke-linecap="round" stroke-linejoin="round"/>
<path d="M545.297 236.125V254.483C546.436 254.533 547.583 254.533 548.722 254.483V236.125H545.297Z" fill="#DBC8F6" stroke="#5100CD" stroke-linecap="round" stroke-linejoin="round"/>
<path d="M569.609 236.125H558.136V252.934C560.221 252.297 562.173 251.476 563.923 250.455C568.085 248.034 570.38 244.952 570.824 241.795L571.737 236.125H569.601H569.609Z" fill="#5100CD" stroke="#5100CD" stroke-linecap="round" stroke-linejoin="round"/>
<path d="M548.722 236.125V254.483C551.117 254.382 553.487 254.081 555.748 253.562V236.125H548.722Z" fill="#5100CD" stroke="#5100CD" stroke-linecap="round" stroke-linejoin="round"/>
<path d="M555.757 236.125V253.562C556.561 253.378 557.356 253.168 558.135 252.934V236.125H555.757Z" fill="#DBC8F6" stroke="#5100CD" stroke-linecap="round" stroke-linejoin="round"/>
<path d="M547.047 248.486C560.835 248.486 572.013 241.996 572.013 233.989C572.013 225.983 560.835 219.492 547.047 219.492C533.259 219.492 522.081 225.983 522.081 233.989C522.081 241.996 533.259 248.486 547.047 248.486Z" fill="#F5EDFF" stroke="#5100CD" stroke-linecap="round" stroke-linejoin="round"/>
<path d="M547.047 239.048C551.857 239.048 555.757 236.783 555.757 233.989C555.757 231.195 551.857 228.931 547.047 228.931C542.237 228.931 538.337 231.195 538.337 233.989C538.337 236.783 542.237 239.048 547.047 239.048Z" fill="#F5EDFF" stroke="#5100CD" stroke-linecap="round" stroke-linejoin="round"/>
<path d="M540.891 232.549C544.291 230.573 549.802 230.573 553.211 232.549C554.442 233.261 555.221 234.14 555.556 235.062C556.159 233.437 555.38 231.678 553.211 230.422C549.81 228.445 544.3 228.445 540.891 230.422C538.722 231.686 537.943 233.445 538.546 235.062C538.889 234.14 539.668 233.269 540.891 232.549Z" fill="#DBC8F6" stroke="#5100CD" stroke-linecap="round" stroke-linejoin="round"/>
<path d="M540.891 237.565C544.291 239.542 549.802 239.542 553.211 237.565C554.442 236.854 555.221 235.974 555.556 235.053C555.212 234.132 554.433 233.261 553.211 232.54C549.81 230.564 544.3 230.564 540.891 232.54C539.66 233.252 538.881 234.132 538.546 235.053C538.889 235.974 539.668 236.845 540.891 237.565Z" fill="#F5EDFF" stroke="#5100CD" stroke-linecap="round" stroke-linejoin="round"/>
<path d="M524.493 226.452H522.357L523.27 232.122C523.714 235.279 526.017 238.369 530.171 240.781C539.493 246.192 554.601 246.192 563.923 240.781C568.085 238.361 570.38 235.279 570.824 232.122L571.736 226.452H524.485H524.493Z" fill="#F5EDFF" stroke="#5100CD" stroke-linecap="round" stroke-linejoin="round"/>
<path d="M538.538 226.452V243.939C540.724 244.424 543.002 244.709 545.297 244.81V226.452H538.538Z" fill="#5100CD" stroke="#5100CD" stroke-linecap="round" stroke-linejoin="round"/>
<path d="M524.493 226.452H522.357L523.27 232.122C523.714 235.279 526.017 238.369 530.171 240.781C532.625 242.205 535.489 243.252 538.538 243.93V226.443H524.485L524.493 226.452Z" fill="#DBC8F6" stroke="#5100CD" stroke-linecap="round" stroke-linejoin="round"/>
<path d="M545.297 226.452V244.81C546.436 244.86 547.583 244.86 548.722 244.81V226.452H545.297Z" fill="#DBC8F6" stroke="#5100CD" stroke-linecap="round" stroke-linejoin="round"/>
<path d="M569.609 226.452H558.136V243.26C560.221 242.624 562.173 241.803 563.923 240.781C568.085 238.361 570.38 235.279 570.824 232.122L571.737 226.452H569.601H569.609Z" fill="#5100CD" stroke="#5100CD" stroke-linecap="round" stroke-linejoin="round"/>
<path d="M548.722 226.452V244.81C551.117 244.709 553.487 244.408 555.748 243.888V226.452H548.722Z" fill="#5100CD" stroke="#5100CD" stroke-linecap="round" stroke-linejoin="round"/>
<path d="M555.757 226.452V243.888C556.561 243.704 557.356 243.495 558.135 243.26V226.452H555.757Z" fill="#DBC8F6" stroke="#5100CD" stroke-linecap="round" stroke-linejoin="round"/>
<path d="M547.047 238.821C560.835 238.821 572.013 232.331 572.013 224.324C572.013 216.318 560.835 209.827 547.047 209.827C533.259 209.827 522.081 216.318 522.081 224.324C522.081 232.331 533.259 238.821 547.047 238.821Z" fill="#F5EDFF" stroke="#5100CD" stroke-linecap="round" stroke-linejoin="round"/>
<path d="M547.047 229.383C551.857 229.383 555.757 227.118 555.757 224.324C555.757 221.53 551.857 219.266 547.047 219.266C542.237 219.266 538.337 221.53 538.337 224.324C538.337 227.118 542.237 229.383 547.047 229.383Z" fill="#F5EDFF" stroke="#5100CD" stroke-linecap="round" stroke-linejoin="round"/>
<path d="M540.891 222.875C544.291 220.899 549.802 220.899 553.211 222.875C554.442 223.587 555.221 224.467 555.556 225.388C556.159 223.763 555.38 222.004 553.211 220.748C549.81 218.772 544.3 218.772 540.891 220.748C538.722 222.013 537.943 223.771 538.546 225.388C538.889 224.467 539.668 223.596 540.891 222.875Z" fill="#F5EDFF" stroke="#5100CD" stroke-linecap="round" stroke-linejoin="round"/>
<path d="M540.891 227.9C544.291 229.877 549.802 229.877 553.211 227.9C554.442 227.189 555.221 226.309 555.556 225.388C555.212 224.467 554.433 223.596 553.211 222.875C549.81 220.899 544.3 220.899 540.891 222.875C539.66 223.587 538.881 224.467 538.546 225.388C538.889 226.309 539.668 227.18 540.891 227.9Z" fill="#F5EDFF" stroke="#5100CD" stroke-linecap="round" stroke-linejoin="round"/>
<path d="M524.493 216.854H522.357L523.27 222.524C523.714 225.681 526.017 228.772 530.171 231.184C539.493 236.594 554.601 236.594 563.923 231.184C568.085 228.763 570.38 225.681 570.824 222.524L571.736 216.854H524.485H524.493Z" fill="#F5EDFF" stroke="#5100CD" stroke-linecap="round" stroke-linejoin="round"/>
<path d="M538.538 216.854V234.341C540.724 234.827 543.002 235.112 545.297 235.212V216.854H538.538Z" fill="#5100CD" stroke="#5100CD" stroke-linecap="round" stroke-linejoin="round"/>
<path d="M524.493 216.854H522.357L523.27 222.524C523.714 225.681 526.017 228.772 530.171 231.184C532.625 232.607 535.489 233.654 538.538 234.333V216.846H524.485L524.493 216.854Z" fill="#DBC8F6" stroke="#5100CD" stroke-linecap="round" stroke-linejoin="round"/>
<path d="M545.297 216.854V235.212C546.436 235.262 547.583 235.262 548.722 235.212V216.854H545.297Z" fill="#DBC8F6" stroke="#5100CD" stroke-linecap="round" stroke-linejoin="round"/>
<path d="M569.609 216.854H558.136V233.663C560.221 233.026 562.173 232.205 563.923 231.184C568.085 228.763 570.38 225.681 570.824 222.524L571.737 216.854H569.601H569.609Z" fill="#5100CD" stroke="#5100CD" stroke-linecap="round" stroke-linejoin="round"/>
<path d="M548.722 216.854V235.212C551.117 235.112 553.487 234.81 555.748 234.291V216.854H548.722Z" fill="#5100CD" stroke="#5100CD" stroke-linecap="round" stroke-linejoin="round"/>
<path d="M555.757 216.854V234.291C556.561 234.107 557.356 233.897 558.135 233.663V216.854H555.757Z" fill="#DBC8F6" stroke="#5100CD" stroke-linecap="round" stroke-linejoin="round"/>
<path d="M547.047 229.224C560.835 229.224 572.013 222.733 572.013 214.727C572.013 206.72 560.835 200.229 547.047 200.229C533.259 200.229 522.081 206.72 522.081 214.727C522.081 222.733 533.259 229.224 547.047 229.224Z" fill="#F5EDFF" stroke="#5100CD" stroke-linecap="round" stroke-linejoin="round"/>
<path d="M547.047 219.785C551.857 219.785 555.757 217.52 555.757 214.726C555.757 211.933 551.857 209.668 547.047 209.668C542.237 209.668 538.337 211.933 538.337 214.726C538.337 217.52 542.237 219.785 547.047 219.785Z" fill="#F5EDFF" stroke="#5100CD" stroke-linecap="round" stroke-linejoin="round"/>
<path d="M540.891 213.278C544.291 211.301 549.802 211.301 553.211 213.278C554.442 213.989 555.221 214.869 555.556 215.79C556.159 214.165 555.38 212.407 553.211 211.15C549.81 209.174 544.3 209.174 540.891 211.15C538.722 212.415 537.943 214.174 538.546 215.79C538.889 214.869 539.668 213.998 540.891 213.278Z" fill="#DBC8F6" stroke="#5100CD" stroke-linecap="round" stroke-linejoin="round"/>
<path d="M540.891 218.303C544.291 220.279 549.802 220.279 553.211 218.303C554.442 217.591 555.221 216.712 555.556 215.79C555.212 214.869 554.433 213.998 553.211 213.278C549.81 211.301 544.3 211.301 540.891 213.278C539.66 213.99 538.881 214.869 538.546 215.79C538.889 216.712 539.668 217.583 540.891 218.303Z" fill="#F5EDFF" stroke="#5100CD" stroke-linecap="round" stroke-linejoin="round"/>
<path d="M500.975 235.631H499.811V232.725C499.811 230.689 498.161 229.04 496.126 229.04C494.091 229.04 492.441 230.689 492.441 232.725V235.631H491.277C490.699 235.631 490.306 236.016 490.306 236.602V244.349C490.306 244.927 490.691 245.321 491.277 245.321H500.967C501.545 245.321 501.939 244.935 501.939 244.349V236.602C501.939 236.024 501.553 235.631 500.967 235.631H500.975ZM498.262 235.631H493.999V232.725C493.999 231.56 494.971 230.597 496.126 230.597C497.282 230.597 498.254 231.569 498.254 232.725V235.631H498.262Z" fill="#F5EDFF"/>
<path d="M121.177 78.3478L118.396 76.7314L121.177 75.0815L123.957 76.7314L121.177 78.3478Z" fill="#F5EDFF" stroke="#5100CD" stroke-linecap="round" stroke-linejoin="round"/>
<path d="M113.757 82.6442L110.977 81.0278L113.757 79.3779L116.538 81.0278L113.757 82.6442Z" fill="#F5EDFF" stroke="#5100CD" stroke-linecap="round" stroke-linejoin="round"/>
<path d="M106.328 86.9406L103.548 85.3242L106.328 83.6743L109.109 85.3242L106.328 86.9406Z" fill="#F5EDFF" stroke="#5100CD" stroke-linecap="round" stroke-linejoin="round"/>
<path d="M98.9162 91.2369L96.1357 89.6289L98.9162 87.979L101.697 89.6289L98.9162 91.2369Z" fill="#F5EDFF" stroke="#5100CD" stroke-linecap="round" stroke-linejoin="round"/>
<path d="M54.7639 78.3478L57.5444 76.7314L54.7639 75.0815L51.9834 76.7314L54.7639 78.3478Z" fill="#F5EDFF" stroke="#5100CD" stroke-linecap="round" stroke-linejoin="round"/>
<path d="M62.1838 82.6442L64.9643 81.0278L62.1838 79.3779L59.4033 81.0278L62.1838 82.6442Z" fill="#F5EDFF" stroke="#5100CD" stroke-linecap="round" stroke-linejoin="round"/>
<path d="M69.6037 86.9406L72.3842 85.3242L69.6037 83.6743L66.8232 85.3242L69.6037 86.9406Z" fill="#F5EDFF" stroke="#5100CD" stroke-linecap="round" stroke-linejoin="round"/>
<path d="M77.0246 91.2369L79.8051 89.6289L77.0246 87.979L74.2441 89.6289L77.0246 91.2369Z" fill="#F5EDFF" stroke="#5100CD" stroke-linecap="round" stroke-linejoin="round"/>
<path d="M87.9706 91.011L126.194 68.8005L87.9706 46.0791L49.7471 68.8005L87.9706 91.011Z" fill="#F5EDFF" stroke="#5100CD" stroke-linecap="round" stroke-linejoin="round"/>
<path d="M126.185 68.8003V71.9744L87.9619 94.1849V91.0108L126.185 68.8003Z" fill="#DBC8F6" stroke="#5100CD" stroke-linecap="round" stroke-linejoin="round"/>
<path d="M49.7471 68.8003V71.9744L87.9706 94.1849V91.0108L49.7471 68.8003Z" fill="#F1E9FD" stroke="#5100CD" stroke-linecap="round" stroke-linejoin="round"/>
<path d="M112.971 44.9821L87.7954 59.6049L62.6201 44.9821L87.7954 30.3594L112.971 44.9821Z" fill="#F5EDFF" stroke="#5100CD" stroke-linecap="round" stroke-linejoin="round"/>
<path d="M111.564 68.0216L86.3887 53.3989V28.2236L111.564 42.8464V68.0216Z" fill="#F5EDFF" stroke="#5100CD" stroke-linecap="round" stroke-linejoin="round"/>
<path d="M111.698 67.9547L86.5225 53.332V28.1567L111.698 42.7795V67.9547Z" fill="#F5EDFF" stroke="#5100CD" stroke-linecap="round" stroke-linejoin="round"/>
<path d="M110.098 68.6247L84.9229 54.0019V28.8267L110.098 43.4494V68.6247Z" fill="#F5EDFF" stroke="#5100CD" stroke-linecap="round" stroke-linejoin="round"/>
<path d="M110.241 68.5412L85.0654 53.9184V28.7432L110.241 43.3659V68.5328V68.5412Z" fill="#F5EDFF" stroke="#5100CD" stroke-linecap="round" stroke-linejoin="round"/>
<path d="M108.641 69.2194L83.4658 54.5966V29.4214L108.641 44.0441V69.2194Z" fill="#F5EDFF" stroke="#5100CD" stroke-linecap="round" stroke-linejoin="round"/>
<path d="M108.783 69.1354L83.6074 54.5127V29.3374L108.783 43.9602V69.1354Z" fill="#F5EDFF" stroke="#5100CD" stroke-linecap="round" stroke-linejoin="round"/>
<path d="M107.175 69.8141L82 55.1914V30.0161L107.175 44.6389V69.8141Z" fill="#F5EDFF" stroke="#5100CD" stroke-linecap="round" stroke-linejoin="round"/>
<path d="M107.318 69.7301L82.1426 55.1074V29.9321L107.318 44.5549V69.7301Z" fill="#F5EDFF" stroke="#5100CD" stroke-linecap="round" stroke-linejoin="round"/>
<path d="M105.718 63.2897L80.543 48.6669V23.4917L105.718 38.1144V63.2897Z" fill="#F5EDFF" stroke="#5100CD" stroke-linecap="round" stroke-linejoin="round"/>
<path d="M105.86 63.2228L80.6846 48.6001V23.4248L105.86 38.0476V63.2228Z" fill="#F5EDFF" stroke="#5100CD" stroke-linecap="round" stroke-linejoin="round"/>
<path d="M104.252 66.5895L79.0771 51.9668V26.7915L104.252 41.4143V66.5895Z" fill="#F5EDFF" stroke="#5100CD" stroke-linecap="round" stroke-linejoin="round"/>
<path d="M104.403 66.506L79.2275 51.8833V26.708L104.403 41.3308V66.506Z" fill="#F5EDFF" stroke="#5100CD" stroke-linecap="round" stroke-linejoin="round"/>
<path d="M102.795 67.8795L77.6201 53.2568V28.0815L102.795 42.7043V67.8795Z" fill="#F5EDFF" stroke="#5100CD" stroke-linecap="round" stroke-linejoin="round"/>
<path d="M102.937 67.8039L77.7617 53.1811V28.0059L102.937 42.6286V67.8039Z" fill="#F5EDFF" stroke="#5100CD" stroke-linecap="round" stroke-linejoin="round"/>
<path d="M101.33 72.1925L76.1543 57.5697V32.4028L101.33 47.0256V72.2008V72.1925Z" fill="#F5EDFF" stroke="#5100CD" stroke-linecap="round" stroke-linejoin="round"/>
<path d="M101.48 72.1168L76.3047 57.4941V32.3188L101.48 46.9416V72.1168Z" fill="#F5EDFF" stroke="#5100CD" stroke-linecap="round" stroke-linejoin="round"/>
<path d="M99.8725 72.7873L74.6973 58.1645V32.9893L99.8725 47.612V72.7873Z" fill="#F5EDFF" stroke="#5100CD" stroke-linecap="round" stroke-linejoin="round"/>
<path d="M100.014 72.7116L74.8389 58.0888V32.9136L100.014 47.5363V72.7116Z" fill="#F5EDFF" stroke="#5100CD" stroke-linecap="round" stroke-linejoin="round"/>
<path d="M98.4061 73.3815L73.2393 58.7588V33.5835L98.4061 48.2062V73.3815Z" fill="#F5EDFF" stroke="#5100CD" stroke-linecap="round" stroke-linejoin="round"/>
<path d="M98.5571 73.3062L73.3818 58.6835V33.5166L98.5571 48.1394V73.3146V73.3062Z" fill="#F5EDFF" stroke="#5100CD" stroke-linecap="round" stroke-linejoin="round"/>
<path d="M96.9497 69.5543L71.7744 54.9316V29.7563L96.9497 44.3791V69.5543Z" fill="#F5EDFF" stroke="#5100CD" stroke-linecap="round" stroke-linejoin="round"/>
<path d="M97.0913 69.4791L71.916 54.8564V29.6812L97.0913 44.3039V69.4791Z" fill="#F5EDFF" stroke="#5100CD" stroke-linecap="round" stroke-linejoin="round"/>
<path d="M95.4917 70.6178L70.3164 55.9951V30.8198L95.4917 45.4426V70.6094V70.6178Z" fill="#F5EDFF" stroke="#5100CD" stroke-linecap="round" stroke-linejoin="round"/>
<path d="M95.6342 70.5426L70.459 55.9199V30.7446L95.6342 45.3674V70.5426Z" fill="#F5EDFF" stroke="#5100CD" stroke-linecap="round" stroke-linejoin="round"/>
<path d="M94.0268 71.6984L68.8516 57.0756V31.9004L94.0268 46.5231V71.6984Z" fill="#F5EDFF" stroke="#5100CD" stroke-linecap="round" stroke-linejoin="round"/>
<path d="M94.1688 71.6144L69.002 56.9917V31.8164L94.1688 46.4392V71.6144Z" fill="#F5EDFF" stroke="#5100CD" stroke-linecap="round" stroke-linejoin="round"/>
<path d="M92.5688 72.6867L67.3936 58.0639V32.8887L92.5688 47.5114V72.6867Z" fill="#F5EDFF" stroke="#5100CD" stroke-linecap="round" stroke-linejoin="round"/>
<path d="M92.7114 72.6027L67.5361 57.9799V32.8047L92.7114 47.4274V72.6027Z" fill="#F5EDFF" stroke="#5100CD" stroke-linecap="round" stroke-linejoin="round"/>
<path d="M91.104 73.8927L65.9287 59.27V34.0947L91.104 48.7175V73.8927Z" fill="#F5EDFF" stroke="#5100CD" stroke-linecap="round" stroke-linejoin="round"/>
<path d="M91.2543 73.8253L66.0791 59.2026V34.0273L91.2543 48.6501V73.8253Z" fill="#F5EDFF" stroke="#5100CD" stroke-linecap="round" stroke-linejoin="round"/>
<path d="M87.7954 84.7799L62.6201 70.1572V44.9819L87.7954 59.6047V84.7799Z" fill="#F5EDFF" stroke="#5100CD" stroke-linecap="round" stroke-linejoin="round"/>
<path d="M112.97 70.1572L87.7949 84.7799V59.6047L112.97 44.9819V70.1572Z" fill="#5100CD" stroke="#5100CD" stroke-linecap="round" stroke-linejoin="round"/>
<path d="M71.6319 41.3808L72.4694 47.2852L70.317 45.024L68.1562 44.7811L68.9937 39.8398" fill="#F5EDFF"/>
</svg>
