<svg width="800" height="400" viewBox="0 0 800 400" fill="none" xmlns="http://www.w3.org/2000/svg">
<path d="M673.6 234.46V161.53" stroke="#5100CD" stroke-linecap="round" stroke-linejoin="round"/>
<path d="M472.91 181.96L523.28 152.71" stroke="#5100CD" stroke-linecap="round" stroke-linejoin="round"/>
<path d="M523.27 152.7L673.59 234.88" stroke="#5100CD" stroke-linecap="round" stroke-linejoin="round"/>
<path d="M548.87 167.46L551.83 165.73L548.87 163.97L545.9 165.73L548.87 167.46Z" fill="#F5EDFF" stroke="#5100CD" stroke-linecap="round" stroke-linejoin="round"/>
<path d="M548.87 170.56V167.46L551.83 165.73V168.86L548.87 170.56Z" fill="#5100CD" stroke="#5100CD" stroke-linecap="round" stroke-linejoin="round"/>
<path d="M545.9 168.8V165.73L548.87 167.46V170.56L545.9 168.8Z" fill="#F5EDFF" stroke="#5100CD" stroke-linecap="round" stroke-linejoin="round"/>
<path d="M673.6 233.37L676.56 231.64L673.6 229.88L670.63 231.64L673.6 233.37Z" fill="#F5EDFF" stroke="#5100CD" stroke-linecap="round" stroke-linejoin="round"/>
<path d="M673.6 236.47V233.37L676.56 231.64V234.77L673.6 236.47Z" fill="#5100CD" stroke="#5100CD" stroke-linecap="round" stroke-linejoin="round"/>
<path d="M670.63 234.71V231.64L673.6 233.37V236.47L670.63 234.71Z" fill="#F5EDFF" stroke="#5100CD" stroke-linecap="round" stroke-linejoin="round"/>
<path d="M673.76 198.45L676.72 196.72L673.76 194.96L670.79 196.72L673.76 198.45Z" fill="#F5EDFF" stroke="#5100CD" stroke-linecap="round" stroke-linejoin="round"/>
<path d="M673.76 201.55V198.45L676.72 196.72V199.85L673.76 201.55Z" fill="#5100CD" stroke="#5100CD" stroke-linecap="round" stroke-linejoin="round"/>
<path d="M670.79 199.79V196.72L673.76 198.45V201.55L670.79 199.79Z" fill="#F5EDFF" stroke="#5100CD" stroke-linecap="round" stroke-linejoin="round"/>
<path d="M523.28 155.81V152.71L526.24 150.99V154.11L523.28 155.81Z" fill="#5100CD" stroke="#5100CD" stroke-linecap="round" stroke-linejoin="round"/>
<path d="M520.31 154.05V150.99L523.28 152.71V155.81L520.31 154.05Z" fill="#F5EDFF" stroke="#5100CD" stroke-linecap="round" stroke-linejoin="round"/>
<path d="M523.28 152.71L526.24 150.99L523.28 149.22L520.31 150.99L523.28 152.71Z" fill="#F5EDFF" stroke="#5100CD" stroke-linecap="round" stroke-linejoin="round"/>
<path d="M287.21 275.54L139.05 361.73H139.17L24.3599 294.95L170.82 207.56L287.21 275.54Z" fill="#F5EDFF" stroke="#5100CD" stroke-linecap="round" stroke-linejoin="round"/>
<path d="M139.17 361.73V374.61L287.21 288.43V275.54L139.17 361.73Z" fill="#DBC8F6" stroke="#5100CD" stroke-linecap="round" stroke-linejoin="round"/>
<path d="M24.3599 294.95V307.83L139.17 374.61V361.73L24.3599 294.95Z" fill="#F1E9FD" stroke="#5100CD" stroke-linecap="round" stroke-linejoin="round"/>
<path d="M222.88 281.81L226.01 283.68V276.1L222.88 274.23V281.81Z" fill="#F5EDFF" stroke="#5100CD" stroke-linecap="round" stroke-linejoin="round"/>
<path d="M197.3 260.05V264.86L234.47 286.46V281.65L197.3 260.05Z" fill="#F5EDFF" stroke="#5100CD" stroke-linecap="round" stroke-linejoin="round"/>
<path d="M234.47 281.65L271.64 260.05L234.47 237.95L197.3 260.05L234.47 281.65Z" fill="#F5EDFF" stroke="#5100CD" stroke-linecap="round" stroke-linejoin="round"/>
<path d="M234.47 281.65V286.46L271.64 264.86V260.05L234.47 281.65Z" fill="#5100CD" stroke="#5100CD" stroke-linecap="round" stroke-linejoin="round"/>
<path d="M227.82 282.59V277.79L266.35 256.91V254.22L226.01 276.1V283.68L227.82 282.59Z" fill="#5100CD" stroke="#5100CD" stroke-linecap="round" stroke-linejoin="round"/>
<path d="M263.21 252.35L266.35 254.22L226.01 276.1L222.88 274.23L263.21 252.35Z" fill="#F5EDFF" stroke="#5100CD" stroke-linecap="round" stroke-linejoin="round"/>
<path d="M90.3198 307.58L90.4498 312.84C91.1798 313 91.9298 313.15 92.6898 313.27L92.2998 307.95C91.6298 307.84 90.9698 307.71 90.3198 307.58Z" fill="#F5EDFF" stroke="#5100CD" stroke-linecap="round" stroke-linejoin="round"/>
<path d="M96.1196 308.43L96.2096 313.72C96.5796 313.75 96.9396 313.78 97.3096 313.8L97.2296 308.51C96.8596 308.49 96.4896 308.46 96.1196 308.43Z" fill="#F5EDFF" stroke="#5100CD" stroke-linecap="round" stroke-linejoin="round"/>
<path d="M71.71 295.76L74.24 302.47H74.26C76.11 306.81 81.42 310.42 88.5 312.36L88.03 307.03C80.07 304.89 74.01 300.78 71.71 295.76Z" fill="#F5EDFF" stroke="#5100CD" stroke-linecap="round" stroke-linejoin="round"/>
<path d="M125.77 300.48L124.1 306.25C125.49 304.87 126.49 303.36 127.03 301.76L129.3 295.8C128.52 297.47 127.33 299.05 125.78 300.48H125.77Z" fill="#F5EDFF" stroke="#5100CD" stroke-linecap="round" stroke-linejoin="round"/>
<path d="M88.0298 307.03L88.4998 312.36C89.1398 312.53 89.7898 312.7 90.4498 312.84L90.3198 307.58C89.5398 307.42 88.7798 307.23 88.0298 307.03Z" fill="#5100CD" stroke="#5100CD" stroke-linecap="round" stroke-linejoin="round"/>
<path d="M92.3 307.95L92.69 313.27C93.83 313.46 95 313.61 96.2 313.72L96.11 308.43C94.81 308.32 93.53 308.16 92.29 307.95H92.3Z" fill="#5100CD" stroke="#5100CD" stroke-linecap="round" stroke-linejoin="round"/>
<path d="M100.51 308.61C99.4 308.61 98.31 308.57 97.23 308.51L97.31 313.8C98.36 313.87 99.43 313.91 100.51 313.91C110.66 313.91 119.5 310.82 124.1 306.25L125.77 300.48C120.5 305.36 111.16 308.61 100.51 308.61Z" fill="#5100CD" stroke="#5100CD" stroke-linecap="round" stroke-linejoin="round"/>
<path d="M100.51 308.62C116.97 308.62 130.32 300.86 130.32 291.28C130.32 281.7 116.97 273.94 100.51 273.94C84.0497 273.94 70.6997 281.7 70.6997 291.28C70.6997 300.86 84.0497 308.62 100.51 308.62Z" fill="#F5EDFF" stroke="#5100CD" stroke-linecap="round" stroke-linejoin="round"/>
<path d="M90.3198 297.72L90.4498 302.98C91.1798 303.14 91.9298 303.29 92.6898 303.41L92.2998 298.09C91.6298 297.98 90.9698 297.85 90.3198 297.72Z" fill="#F5EDFF" stroke="#5100CD" stroke-linecap="round" stroke-linejoin="round"/>
<path d="M96.1196 298.57L96.2096 303.86C96.5796 303.89 96.9396 303.92 97.3096 303.94L97.2296 298.65C96.8596 298.63 96.4896 298.6 96.1196 298.57Z" fill="#F5EDFF" stroke="#5100CD" stroke-linecap="round" stroke-linejoin="round"/>
<path d="M71.71 285.91L74.24 292.62H74.26C76.11 296.96 81.42 300.57 88.5 302.51L88.03 297.18C80.07 295.04 74.01 290.93 71.71 285.91Z" fill="#F5EDFF" stroke="#5100CD" stroke-linecap="round" stroke-linejoin="round"/>
<path d="M125.77 290.63L124.1 296.4C125.49 295.02 126.49 293.51 127.03 291.91L129.3 285.95C128.52 287.62 127.33 289.2 125.78 290.63H125.77Z" fill="#F5EDFF" stroke="#5100CD" stroke-linecap="round" stroke-linejoin="round"/>
<path d="M88.0298 297.17L88.4998 302.5C89.1398 302.67 89.7898 302.84 90.4498 302.98L90.3198 297.72C89.5398 297.56 88.7798 297.37 88.0298 297.17Z" fill="#5100CD" stroke="#5100CD" stroke-linecap="round" stroke-linejoin="round"/>
<path d="M92.3 298.1L92.69 303.42C93.83 303.61 95 303.76 96.2 303.87L96.11 298.58C94.81 298.47 93.53 298.31 92.29 298.1H92.3Z" fill="#5100CD" stroke="#5100CD" stroke-linecap="round" stroke-linejoin="round"/>
<path d="M100.51 298.76C99.4 298.76 98.31 298.72 97.23 298.66L97.31 303.95C98.36 304.02 99.43 304.06 100.51 304.06C110.66 304.06 119.5 300.97 124.1 296.4L125.77 290.63C120.5 295.51 111.16 298.76 100.51 298.76Z" fill="#5100CD" stroke="#5100CD" stroke-linecap="round" stroke-linejoin="round"/>
<path d="M100.51 298.77C116.97 298.77 130.32 291.01 130.32 281.43C130.32 271.85 116.97 264.09 100.51 264.09C84.0497 264.09 70.6997 271.85 70.6997 281.43C70.6997 291.01 84.0497 298.77 100.51 298.77Z" fill="#F5EDFF" stroke="#5100CD" stroke-linecap="round" stroke-linejoin="round"/>
<path d="M90.3198 287.87L90.4498 293.13C91.1798 293.29 91.9298 293.44 92.6898 293.56L92.2998 288.24C91.6298 288.13 90.9698 288 90.3198 287.87Z" fill="#F5EDFF" stroke="#5100CD" stroke-linecap="round" stroke-linejoin="round"/>
<path d="M96.1196 288.72L96.2096 294.01C96.5796 294.04 96.9396 294.07 97.3096 294.09L97.2296 288.8C96.8596 288.78 96.4896 288.75 96.1196 288.72Z" fill="#F5EDFF" stroke="#5100CD" stroke-linecap="round" stroke-linejoin="round"/>
<path d="M71.71 276.05L74.24 282.76H74.26C76.11 287.1 81.42 290.71 88.5 292.65L88.03 287.32C80.07 285.18 74.01 281.07 71.71 276.05Z" fill="#F5EDFF" stroke="#5100CD" stroke-linecap="round" stroke-linejoin="round"/>
<path d="M125.77 280.78L124.1 286.55C125.49 285.17 126.49 283.66 127.03 282.06L129.3 276.1C128.52 277.77 127.33 279.35 125.78 280.78H125.77Z" fill="#F5EDFF" stroke="#5100CD" stroke-linecap="round" stroke-linejoin="round"/>
<path d="M88.0298 287.32L88.4998 292.65C89.1398 292.82 89.7898 292.99 90.4498 293.13L90.3198 287.87C89.5398 287.71 88.7798 287.52 88.0298 287.32Z" fill="#5100CD" stroke="#5100CD" stroke-linecap="round" stroke-linejoin="round"/>
<path d="M92.3 288.24L92.69 293.56C93.83 293.75 95 293.9 96.2 294.01L96.11 288.72C94.81 288.61 93.53 288.45 92.29 288.24H92.3Z" fill="#5100CD" stroke="#5100CD" stroke-linecap="round" stroke-linejoin="round"/>
<path d="M100.51 288.91C99.4 288.91 98.31 288.87 97.23 288.81L97.31 294.1C98.36 294.17 99.43 294.21 100.51 294.21C110.66 294.21 119.5 291.12 124.1 286.55L125.77 280.78C120.5 285.66 111.16 288.91 100.51 288.91Z" fill="#5100CD" stroke="#5100CD" stroke-linecap="round" stroke-linejoin="round"/>
<path d="M100.51 288.91C116.97 288.91 130.32 281.15 130.32 271.57C130.32 261.99 116.97 254.23 100.51 254.23C84.0497 254.23 70.6997 261.99 70.6997 271.57C70.6997 281.15 84.0497 288.91 100.51 288.91Z" fill="#F5EDFF" stroke="#5100CD" stroke-linecap="round" stroke-linejoin="round"/>
<path d="M131.89 317.6L131.96 320.63C132.38 320.72 132.81 320.81 133.25 320.88L133.02 317.81C132.63 317.75 132.25 317.67 131.88 317.59L131.89 317.6Z" fill="#F5EDFF" stroke="#5100CD" stroke-linecap="round" stroke-linejoin="round"/>
<path d="M135.23 318.09L135.28 321.14C135.49 321.16 135.7 321.18 135.92 321.19L135.88 318.14C135.67 318.14 135.45 318.11 135.24 318.09H135.23Z" fill="#F5EDFF" stroke="#5100CD" stroke-linecap="round" stroke-linejoin="round"/>
<path d="M121.16 310.79L122.62 314.65C123.69 317.15 126.75 319.23 130.83 320.35L130.56 317.28C125.97 316.05 122.48 313.68 121.15 310.79H121.16Z" fill="#F5EDFF" stroke="#5100CD" stroke-linecap="round" stroke-linejoin="round"/>
<path d="M152.32 313.52L151.36 316.84C152.16 316.05 152.74 315.18 153.05 314.25L154.36 310.82C153.91 311.78 153.22 312.69 152.33 313.52H152.32Z" fill="#F5EDFF" stroke="#5100CD" stroke-linecap="round" stroke-linejoin="round"/>
<path d="M130.57 317.28L130.84 320.35C131.21 320.45 131.58 320.54 131.96 320.63L131.89 317.6C131.44 317.5 131 317.4 130.57 317.28Z" fill="#5100CD" stroke="#5100CD" stroke-linecap="round" stroke-linejoin="round"/>
<path d="M133.03 317.82L133.26 320.89C133.92 321 134.59 321.09 135.29 321.15L135.24 318.1C134.49 318.04 133.75 317.94 133.04 317.82H133.03Z" fill="#5100CD" stroke="#5100CD" stroke-linecap="round" stroke-linejoin="round"/>
<path d="M137.76 318.2C137.12 318.2 136.49 318.18 135.87 318.14L135.91 321.19C136.52 321.23 137.13 321.25 137.75 321.25C143.6 321.25 148.69 319.47 151.34 316.84L152.3 313.52C149.26 316.33 143.88 318.21 137.74 318.21H137.76V318.2Z" fill="#5100CD" stroke="#5100CD" stroke-linecap="round" stroke-linejoin="round"/>
<path d="M137.76 318.2C147.25 318.2 154.94 313.73 154.94 308.21C154.94 302.69 147.25 298.22 137.76 298.22C128.27 298.22 120.58 302.69 120.58 308.21C120.58 313.73 128.27 318.2 137.76 318.2Z" fill="#F5EDFF" stroke="#5100CD" stroke-linecap="round" stroke-linejoin="round"/>
<path d="M131.89 311.92L131.96 314.95C132.38 315.04 132.81 315.13 133.25 315.2L133.02 312.13C132.63 312.07 132.25 311.99 131.88 311.91L131.89 311.92Z" fill="#F5EDFF" stroke="#5100CD" stroke-linecap="round" stroke-linejoin="round"/>
<path d="M135.23 312.41L135.28 315.46C135.49 315.48 135.7 315.5 135.92 315.51L135.88 312.46C135.67 312.45 135.45 312.43 135.24 312.41H135.23Z" fill="#F5EDFF" stroke="#5100CD" stroke-linecap="round" stroke-linejoin="round"/>
<path d="M121.16 305.11L122.62 308.97C123.69 311.47 126.75 313.55 130.83 314.67L130.56 311.6C125.97 310.37 122.48 308 121.15 305.11H121.16Z" fill="#F5EDFF" stroke="#5100CD" stroke-linecap="round" stroke-linejoin="round"/>
<path d="M152.32 307.84L151.36 311.16C152.16 310.37 152.74 309.5 153.05 308.57L154.36 305.14C153.91 306.1 153.22 307.01 152.33 307.84H152.32Z" fill="#F5EDFF" stroke="#5100CD" stroke-linecap="round" stroke-linejoin="round"/>
<path d="M130.57 311.61L130.84 314.68C131.21 314.78 131.58 314.87 131.96 314.96L131.89 311.93C131.44 311.83 131 311.73 130.57 311.61Z" fill="#5100CD" stroke="#5100CD" stroke-linecap="round" stroke-linejoin="round"/>
<path d="M133.03 312.14L133.26 315.21C133.92 315.32 134.59 315.41 135.29 315.47L135.24 312.42C134.49 312.36 133.75 312.26 133.04 312.14H133.03Z" fill="#5100CD" stroke="#5100CD" stroke-linecap="round" stroke-linejoin="round"/>
<path d="M137.76 312.52C137.12 312.52 136.49 312.5 135.87 312.46L135.91 315.51C136.52 315.55 137.13 315.57 137.75 315.57C143.6 315.57 148.69 313.79 151.34 311.16L152.3 307.84C149.26 310.65 143.88 312.53 137.74 312.53H137.76V312.52Z" fill="#5100CD" stroke="#5100CD" stroke-linecap="round" stroke-linejoin="round"/>
<path d="M137.76 312.52C147.25 312.52 154.94 308.05 154.94 302.53C154.94 297.01 147.25 292.54 137.76 292.54C128.27 292.54 120.58 297.01 120.58 302.53C120.58 308.05 128.27 312.52 137.76 312.52Z" fill="#F5EDFF" stroke="#5100CD" stroke-linecap="round" stroke-linejoin="round"/>
<path d="M131.89 306.25L131.96 309.28C132.38 309.37 132.81 309.46 133.25 309.53L133.02 306.46C132.63 306.4 132.25 306.32 131.88 306.24L131.89 306.25Z" fill="#F5EDFF" stroke="#5100CD" stroke-linecap="round" stroke-linejoin="round"/>
<path d="M135.23 306.74L135.28 309.79C135.49 309.81 135.7 309.83 135.92 309.84L135.88 306.79C135.67 306.78 135.45 306.76 135.24 306.74H135.23Z" fill="#F5EDFF" stroke="#5100CD" stroke-linecap="round" stroke-linejoin="round"/>
<path d="M121.16 299.44L122.62 303.3C123.69 305.8 126.75 307.88 130.83 309L130.56 305.93C125.97 304.7 122.48 302.33 121.15 299.44H121.16Z" fill="#F5EDFF" stroke="#5100CD" stroke-linecap="round" stroke-linejoin="round"/>
<path d="M152.32 302.16L151.36 305.48C152.16 304.69 152.74 303.82 153.05 302.89L154.36 299.46C153.91 300.42 153.22 301.33 152.33 302.16H152.32Z" fill="#F5EDFF" stroke="#5100CD" stroke-linecap="round" stroke-linejoin="round"/>
<path d="M130.57 305.93L130.84 309C131.21 309.1 131.58 309.19 131.96 309.28L131.89 306.25C131.44 306.15 131 306.05 130.57 305.93Z" fill="#5100CD" stroke="#5100CD" stroke-linecap="round" stroke-linejoin="round"/>
<path d="M133.03 306.46L133.26 309.53C133.92 309.64 134.59 309.73 135.29 309.79L135.24 306.74C134.49 306.68 133.75 306.58 133.04 306.46H133.03Z" fill="#5100CD" stroke="#5100CD" stroke-linecap="round" stroke-linejoin="round"/>
<path d="M137.76 306.85C137.12 306.85 136.49 306.83 135.87 306.79L135.91 309.84C136.52 309.88 137.13 309.9 137.75 309.9C143.6 309.9 148.69 308.12 151.34 305.49L152.3 302.17C149.26 304.98 143.88 306.86 137.74 306.86H137.76V306.85Z" fill="#5100CD" stroke="#5100CD" stroke-linecap="round" stroke-linejoin="round"/>
<path d="M137.76 306.84C147.25 306.84 154.94 302.37 154.94 296.85C154.94 291.33 147.25 286.86 137.76 286.86C128.27 286.86 120.58 291.33 120.58 296.85C120.58 302.37 128.27 306.84 137.76 306.84Z" fill="#F5EDFF" stroke="#5100CD" stroke-linecap="round" stroke-linejoin="round"/>
<path d="M120.36 333.5L120.41 335.43C120.68 335.49 120.95 335.54 121.23 335.59L121.09 333.63C120.84 333.59 120.6 333.54 120.36 333.49V333.5Z" fill="#F5EDFF" stroke="#5100CD" stroke-linecap="round" stroke-linejoin="round"/>
<path d="M122.49 333.81L122.52 335.75C122.65 335.75 122.79 335.77 122.93 335.78L122.9 333.83C122.76 333.83 122.63 333.81 122.49 333.8V333.81Z" fill="#F5EDFF" stroke="#5100CD" stroke-linecap="round" stroke-linejoin="round"/>
<path d="M113.52 329.16L114.45 331.62C115.13 333.22 117.08 334.54 119.68 335.26L119.51 333.3C116.58 332.51 114.36 331 113.51 329.16H113.52Z" fill="#F5EDFF" stroke="#5100CD" stroke-linecap="round" stroke-linejoin="round"/>
<path d="M133.38 330.89L132.77 333.01C133.28 332.5 133.65 331.95 133.85 331.36L134.68 329.17C134.39 329.78 133.96 330.36 133.39 330.89H133.38Z" fill="#F5EDFF" stroke="#5100CD" stroke-linecap="round" stroke-linejoin="round"/>
<path d="M119.51 333.3L119.68 335.26C119.91 335.32 120.15 335.38 120.4 335.44L120.35 333.51C120.06 333.45 119.78 333.38 119.51 333.31V333.3Z" fill="#5100CD" stroke="#5100CD" stroke-linecap="round" stroke-linejoin="round"/>
<path d="M121.08 333.64L121.22 335.6C121.64 335.67 122.07 335.72 122.51 335.76L122.48 333.82C122 333.78 121.53 333.72 121.08 333.64Z" fill="#5100CD" stroke="#5100CD" stroke-linecap="round" stroke-linejoin="round"/>
<path d="M124.1 333.88C123.69 333.88 123.29 333.88 122.9 333.84L122.93 335.79C123.32 335.82 123.71 335.83 124.11 335.83C127.84 335.83 131.09 334.69 132.78 333.02L133.39 330.9C131.45 332.69 128.02 333.89 124.11 333.89L124.1 333.88Z" fill="#5100CD" stroke="#5100CD" stroke-linecap="round" stroke-linejoin="round"/>
<path d="M124.1 333.88C130.15 333.88 135.05 331.03 135.05 327.51C135.05 323.99 130.15 321.14 124.1 321.14C118.05 321.14 113.15 323.99 113.15 327.51C113.15 331.03 118.05 333.88 124.1 333.88Z" fill="#F5EDFF" stroke="#5100CD" stroke-linecap="round" stroke-linejoin="round"/>
<path d="M120.36 329.88L120.41 331.81C120.68 331.87 120.95 331.92 121.23 331.97L121.09 330.01C120.84 329.97 120.6 329.92 120.36 329.87V329.88Z" fill="#F5EDFF" stroke="#5100CD" stroke-linecap="round" stroke-linejoin="round"/>
<path d="M122.49 330.19L122.52 332.13C122.65 332.14 122.79 332.15 122.93 332.16L122.9 330.21C122.76 330.21 122.63 330.19 122.49 330.18V330.19Z" fill="#F5EDFF" stroke="#5100CD" stroke-linecap="round" stroke-linejoin="round"/>
<path d="M113.52 325.54L114.45 328C115.13 329.6 117.08 330.92 119.68 331.64L119.51 329.68C116.58 328.89 114.36 327.38 113.51 325.54H113.52Z" fill="#F5EDFF" stroke="#5100CD" stroke-linecap="round" stroke-linejoin="round"/>
<path d="M133.38 327.27L132.77 329.39C133.28 328.88 133.65 328.33 133.85 327.74L134.68 325.55C134.39 326.16 133.96 326.74 133.39 327.27H133.38Z" fill="#F5EDFF" stroke="#5100CD" stroke-linecap="round" stroke-linejoin="round"/>
<path d="M119.51 329.68L119.68 331.64C119.91 331.7 120.15 331.76 120.4 331.82L120.35 329.89C120.06 329.83 119.78 329.76 119.51 329.69V329.68Z" fill="#5100CD" stroke="#5100CD" stroke-linecap="round" stroke-linejoin="round"/>
<path d="M121.08 330.02L121.22 331.98C121.64 332.05 122.07 332.1 122.51 332.14L122.48 330.2C122 330.16 121.53 330.1 121.08 330.02Z" fill="#5100CD" stroke="#5100CD" stroke-linecap="round" stroke-linejoin="round"/>
<path d="M124.1 330.26C123.69 330.26 123.29 330.25 122.9 330.22L122.93 332.17C123.32 332.2 123.71 332.21 124.11 332.21C127.84 332.21 131.09 331.07 132.78 329.4L133.39 327.28C131.45 329.07 128.02 330.27 124.11 330.27L124.1 330.26Z" fill="#5100CD" stroke="#5100CD" stroke-linecap="round" stroke-linejoin="round"/>
<path d="M124.1 330.26C130.15 330.26 135.05 327.41 135.05 323.89C135.05 320.37 130.15 317.52 124.1 317.52C118.05 317.52 113.15 320.37 113.15 323.89C113.15 327.41 118.05 330.26 124.1 330.26Z" fill="#F5EDFF" stroke="#5100CD" stroke-linecap="round" stroke-linejoin="round"/>
<path d="M120.36 326.26L120.41 328.19C120.68 328.25 120.95 328.3 121.23 328.35L121.09 326.39C120.84 326.35 120.6 326.3 120.36 326.25V326.26Z" fill="#F5EDFF" stroke="#5100CD" stroke-linecap="round" stroke-linejoin="round"/>
<path d="M122.49 326.57L122.52 328.51C122.65 328.51 122.79 328.53 122.93 328.54L122.9 326.59C122.76 326.59 122.63 326.57 122.49 326.56V326.57Z" fill="#F5EDFF" stroke="#5100CD" stroke-linecap="round" stroke-linejoin="round"/>
<path d="M113.52 321.92L114.45 324.38C115.13 325.98 117.08 327.3 119.68 328.02L119.51 326.06C116.58 325.27 114.36 323.76 113.51 321.92H113.52Z" fill="#F5EDFF" stroke="#5100CD" stroke-linecap="round" stroke-linejoin="round"/>
<path d="M133.38 323.65L132.77 325.77C133.28 325.26 133.65 324.71 133.85 324.12L134.68 321.93C134.39 322.54 133.96 323.12 133.39 323.65H133.38Z" fill="#F5EDFF" stroke="#5100CD" stroke-linecap="round" stroke-linejoin="round"/>
<path d="M119.51 326.06L119.68 328.02C119.91 328.08 120.15 328.14 120.4 328.2L120.35 326.27C120.06 326.21 119.78 326.14 119.51 326.07V326.06Z" fill="#5100CD" stroke="#5100CD" stroke-linecap="round" stroke-linejoin="round"/>
<path d="M121.08 326.4L121.22 328.36C121.64 328.43 122.07 328.48 122.51 328.52L122.48 326.58C122 326.54 121.53 326.48 121.08 326.4Z" fill="#5100CD" stroke="#5100CD" stroke-linecap="round" stroke-linejoin="round"/>
<path d="M124.1 326.64C123.69 326.64 123.29 326.64 122.9 326.6L122.93 328.55C123.32 328.58 123.71 328.59 124.11 328.59C127.84 328.59 131.09 327.45 132.78 325.78L133.39 323.66C131.45 325.45 128.02 326.65 124.11 326.65L124.1 326.64Z" fill="#5100CD" stroke="#5100CD" stroke-linecap="round" stroke-linejoin="round"/>
<path d="M124.1 326.64C130.15 326.64 135.05 323.79 135.05 320.27C135.05 316.75 130.15 313.9 124.1 313.9C118.05 313.9 113.15 316.75 113.15 320.27C113.15 323.79 118.05 326.64 124.1 326.64Z" fill="#F5EDFF" stroke="#5100CD" stroke-linecap="round" stroke-linejoin="round"/>
<path d="M164.29 230.93L198.39 211.11L164.29 190.83L130.18 211.11L164.29 230.93Z" fill="#F5EDFF" stroke="#5100CD" stroke-linecap="round" stroke-linejoin="round"/>
<path d="M164.29 230.93L164.04 231.36C164.19 231.45 164.39 231.45 164.54 231.36L164.29 230.93ZM198.39 211.11L198.64 211.54C198.79 211.45 198.89 211.29 198.89 211.11C198.89 210.93 198.8 210.77 198.65 210.68L198.39 211.11ZM130.18 211.11L129.92 210.68C129.77 210.77 129.67 210.94 129.68 211.11C129.68 211.29 129.78 211.45 129.93 211.54L130.18 211.11ZM164.29 190.83L164.54 190.4C164.38 190.31 164.19 190.31 164.03 190.4L164.29 190.83ZM150.17 210.97L149.91 210.54C149.76 210.63 149.67 210.8 149.67 210.97C149.67 211.15 149.77 211.31 149.92 211.4L150.17 210.97ZM164.29 202.57H164.79C164.79 202.39 164.69 202.22 164.54 202.14C164.38 202.05 164.19 202.05 164.04 202.14L164.3 202.57H164.29ZM164.29 202.57H163.79C163.79 202.75 163.88 202.91 164.03 203L164.29 202.57ZM178.41 210.96L178.66 211.39C178.81 211.3 178.91 211.14 178.91 210.96C178.91 210.78 178.82 210.62 178.67 210.53L178.41 210.96ZM164.29 219.17L164.04 219.6C164.19 219.69 164.39 219.69 164.54 219.6L164.29 219.17ZM164.54 231.35L198.64 211.53L198.14 210.67L164.04 230.49L164.54 231.35ZM129.93 211.53L164.04 231.35L164.54 230.49L130.43 210.67L129.93 211.53ZM164.04 190.39L129.93 210.67L130.44 211.53L164.55 191.25L164.04 190.39ZM198.65 210.67L164.55 190.39L164.04 191.25L198.14 211.53L198.65 210.67ZM149.92 211.39L152.86 213.1L153.36 212.24L150.42 210.53L149.92 211.39ZM164.04 202.13L149.92 210.53L150.43 211.39L164.55 202.99L164.04 202.13ZM178.68 210.53L164.56 202.14L164.05 203L178.17 211.39L178.68 210.53ZM175.74 213.1L178.68 211.39L178.18 210.53L175.24 212.24L175.74 213.1ZM164.56 219.6L175.74 213.1L175.24 212.24L164.06 218.74L164.56 219.6ZM152.88 213.1L164.06 219.6L164.56 218.74L153.38 212.24L152.88 213.1Z" fill="#5100CD"/>
<path d="M150.17 210.97L153.11 212.68C156.8 210.49 164.29 206.03 164.29 206.03V202.57L150.17 210.97Z" fill="#5100CD" stroke="#5100CD" stroke-linecap="round" stroke-linejoin="round"/>
<path d="M164.29 202.58V206.03L175.47 212.68L178.41 210.97L164.29 202.58Z" stroke="#5100CD" stroke-linecap="round" stroke-linejoin="round"/>
<path d="M175.47 212.68L164.29 206.03C164.29 206.03 156.79 210.49 153.11 212.68L164.29 219.18L175.47 212.68Z" stroke="#5100CD" stroke-linecap="round" stroke-linejoin="round"/>
<path d="M198.39 211.11V240.1L164.29 259.92V230.93L198.39 211.11Z" fill="#5100CD" stroke="#5100CD" stroke-linecap="round" stroke-linejoin="round"/>
<path d="M130.18 211.11L164.29 230.93V259.92L130.18 240.1V211.11Z" fill="#F5EDFF" stroke="#5100CD" stroke-linecap="round" stroke-linejoin="round"/>
<path d="M156.94 199.25V206.59L164.28 202.35V195.01L156.94 199.25Z" fill="#F5EDFF" stroke="#5100CD" stroke-linecap="round" stroke-linejoin="round"/>
<path d="M171.64 199.25V206.59L164.29 202.35V195.01L171.64 199.25Z" fill="#F5EDFF" stroke="#5100CD" stroke-linecap="round" stroke-linejoin="round"/>
<path d="M164.29 210.8V203.46L156.95 199.22V206.56L164.29 210.8Z" fill="#F5EDFF" stroke="#5100CD" stroke-linecap="round" stroke-linejoin="round"/>
<path d="M164.29 210.8V203.46L171.63 199.22V206.56L164.29 210.8Z" fill="#5100CD" stroke="#5100CD" stroke-linecap="round" stroke-linejoin="round"/>
<path d="M156.95 199.22L164.29 195.01L171.63 199.22L164.29 203.46L156.95 199.22Z" fill="#F5EDFF" stroke="#5100CD" stroke-linecap="round" stroke-linejoin="round"/>
<path d="M156.94 176.96V184.3L164.28 180.06V172.72L156.94 176.96Z" fill="#F5EDFF" stroke="#5100CD" stroke-linecap="round" stroke-linejoin="round"/>
<path d="M171.64 176.96V184.3L164.29 180.06V172.72L171.64 176.96Z" fill="#F5EDFF" stroke="#5100CD" stroke-linecap="round" stroke-linejoin="round"/>
<path d="M164.29 188.51V181.17L156.95 176.93V184.27L164.29 188.51Z" fill="#F5EDFF" stroke="#5100CD" stroke-linecap="round" stroke-linejoin="round"/>
<path d="M164.29 188.51V181.17L171.63 176.93V184.27L164.29 188.51Z" fill="#5100CD" stroke="#5100CD" stroke-linecap="round" stroke-linejoin="round"/>
<path d="M156.95 176.93L164.29 172.72L171.63 176.93L164.29 181.17L156.95 176.93Z" fill="#F5EDFF" stroke="#5100CD" stroke-linecap="round" stroke-linejoin="round"/>
<path d="M156.94 145.25V152.59L164.28 148.35V141.01L156.94 145.25Z" fill="#F5EDFF" stroke="#5100CD" stroke-linecap="round" stroke-linejoin="round"/>
<path d="M171.64 145.25V152.59L164.29 148.35V141.01L171.64 145.25Z" fill="#F5EDFF" stroke="#5100CD" stroke-linecap="round" stroke-linejoin="round"/>
<path d="M164.29 156.8V149.45L156.95 145.21V152.56L164.29 156.8Z" fill="#F5EDFF" stroke="#5100CD" stroke-linecap="round" stroke-linejoin="round"/>
<path d="M164.29 156.8V149.45L171.63 145.21V152.56L164.29 156.8Z" fill="#5100CD" stroke="#5100CD" stroke-linecap="round" stroke-linejoin="round"/>
<path d="M156.95 145.21L164.29 141.01L171.63 145.21L164.29 149.45L156.95 145.21Z" fill="#F5EDFF" stroke="#5100CD" stroke-linecap="round" stroke-linejoin="round"/>
<path d="M156.94 99.3902V106.74L164.28 102.5V95.1602L156.94 99.3902Z" fill="#F5EDFF" stroke="#5100CD" stroke-linecap="round" stroke-linejoin="round"/>
<path d="M171.64 99.3902V106.74L164.29 102.5V95.1602L171.64 99.3902Z" fill="#F5EDFF" stroke="#5100CD" stroke-linecap="round" stroke-linejoin="round"/>
<path d="M164.29 110.94V103.6L156.95 99.3601V106.7L164.29 110.94Z" fill="#F5EDFF" stroke="#5100CD" stroke-linecap="round" stroke-linejoin="round"/>
<path d="M164.29 110.94V103.6L171.63 99.3601V106.7L164.29 110.94Z" fill="#5100CD" stroke="#5100CD" stroke-linecap="round" stroke-linejoin="round"/>
<path d="M156.95 99.3602L164.29 95.1602L171.63 99.3602L164.29 103.6L156.95 99.3602Z" fill="#F5EDFF" stroke="#5100CD" stroke-linecap="round" stroke-linejoin="round"/>
<path d="M250.51 310.43L371.82 384.92V271.76" stroke="#5100CD" stroke-linecap="round" stroke-linejoin="round"/>
<path d="M78.5398 259.86L60.5098 249.39" stroke="#5100CD" stroke-linecap="round" stroke-linejoin="round"/>
<path d="M101.75 248.6V225.44" stroke="#5100CD" stroke-linecap="round" stroke-linejoin="round"/>
<path d="M280.93 328.46L284.51 326.37L280.93 324.25L277.35 326.37L280.93 328.46Z" fill="#F5EDFF" stroke="#5100CD" stroke-linecap="round" stroke-linejoin="round"/>
<path d="M280.93 332.21V328.46L284.51 326.37V330.15L280.93 332.21Z" fill="#5100CD" stroke="#5100CD" stroke-linecap="round" stroke-linejoin="round"/>
<path d="M277.35 330.08V326.37L280.93 328.46V332.21L277.35 330.08Z" fill="#F5EDFF" stroke="#5100CD" stroke-linecap="round" stroke-linejoin="round"/>
<path d="M371.83 385.15L375.41 383.06L371.83 380.94L368.25 383.06L371.83 385.15Z" fill="#F5EDFF" stroke="#5100CD" stroke-linecap="round" stroke-linejoin="round"/>
<path d="M371.83 388.9V385.15L375.41 383.06V386.84L371.83 388.9Z" fill="#5100CD" stroke="#5100CD" stroke-linecap="round" stroke-linejoin="round"/>
<path d="M368.25 386.77V383.06L371.83 385.15V388.9L368.25 386.77Z" fill="#F5EDFF" stroke="#5100CD" stroke-linecap="round" stroke-linejoin="round"/>
<path d="M371.83 306.02L375.41 303.93L371.83 301.81L368.25 303.93L371.83 306.02Z" fill="#F5EDFF" stroke="#5100CD" stroke-linecap="round" stroke-linejoin="round"/>
<path d="M371.83 309.77V306.02L375.41 303.93V307.71L371.83 309.77Z" fill="#5100CD" stroke="#5100CD" stroke-linecap="round" stroke-linejoin="round"/>
<path d="M368.25 307.64V303.93L371.83 306.02V309.77L368.25 307.64Z" fill="#F5EDFF" stroke="#5100CD" stroke-linecap="round" stroke-linejoin="round"/>
<path d="M101.75 236.07L105.33 233.99L101.75 231.86L98.1699 233.99L101.75 236.07Z" fill="#F5EDFF" stroke="#5100CD" stroke-linecap="round" stroke-linejoin="round"/>
<path d="M101.75 239.82V236.07L105.33 233.99V237.76L101.75 239.82Z" fill="#5100CD" stroke="#5100CD" stroke-linecap="round" stroke-linejoin="round"/>
<path d="M98.1699 237.69V233.99L101.75 236.07V239.82L98.1699 237.69Z" fill="#F5EDFF" stroke="#5100CD" stroke-linecap="round" stroke-linejoin="round"/>
<path d="M60.5097 249.62L64.0897 247.54L60.5097 245.41L56.9297 247.54L60.5097 249.62Z" fill="#F5EDFF" stroke="#5100CD" stroke-linecap="round" stroke-linejoin="round"/>
<path d="M60.5098 253.37V249.62L64.0898 247.54V251.31L60.5098 253.37Z" fill="#5100CD" stroke="#5100CD" stroke-linecap="round" stroke-linejoin="round"/>
<path d="M56.9297 251.24V247.54L60.5097 249.62V253.37L56.9297 251.24Z" fill="#F5EDFF" stroke="#5100CD" stroke-linecap="round" stroke-linejoin="round"/>
<path d="M101.75 225.44L60.5098 249.39" stroke="#5100CD" stroke-linecap="round" stroke-linejoin="round"/>
<path d="M337.87 198.23L252.06 248.07" stroke="#5100CD" stroke-linecap="round" stroke-linejoin="round"/>
<path d="M281.72 231.16L285.3 229.08L281.72 226.95L278.14 229.08L281.72 231.16Z" fill="#F5EDFF" stroke="#5100CD" stroke-linecap="round" stroke-linejoin="round"/>
<path d="M281.72 234.91V231.16L285.3 229.08V232.85L281.72 234.91Z" fill="#5100CD" stroke="#5100CD" stroke-linecap="round" stroke-linejoin="round"/>
<path d="M278.14 232.78V229.08L281.72 231.16V234.91L278.14 232.78Z" fill="#F5EDFF" stroke="#5100CD" stroke-linecap="round" stroke-linejoin="round"/>
<path d="M767.63 116.66L759.76 112.09L767.63 107.42L775.5 112.09L767.63 116.66Z" fill="#F5EDFF" stroke="#5100CD" stroke-linecap="round" stroke-linejoin="round"/>
<path d="M746.62 128.84L738.75 124.27L746.62 119.59L754.49 124.27L746.62 128.84Z" fill="#F5EDFF" stroke="#5100CD" stroke-linecap="round" stroke-linejoin="round"/>
<path d="M725.599 141.01L717.729 136.44L725.599 131.77L733.469 136.44L725.599 141.01Z" fill="#F5EDFF" stroke="#5100CD" stroke-linecap="round" stroke-linejoin="round"/>
<path d="M704.59 153.18L696.72 148.62L704.59 143.94L712.46 148.62L704.59 153.18Z" fill="#F5EDFF" stroke="#5100CD" stroke-linecap="round" stroke-linejoin="round"/>
<path d="M579.559 116.66L587.429 112.09L579.559 107.42L571.689 112.09L579.559 116.66Z" fill="#F5EDFF" stroke="#5100CD" stroke-linecap="round" stroke-linejoin="round"/>
<path d="M600.57 128.84L608.44 124.27L600.57 119.59L592.7 124.27L600.57 128.84Z" fill="#F5EDFF" stroke="#5100CD" stroke-linecap="round" stroke-linejoin="round"/>
<path d="M621.59 141.01L629.46 136.44L621.59 131.77L613.72 136.44L621.59 141.01Z" fill="#F5EDFF" stroke="#5100CD" stroke-linecap="round" stroke-linejoin="round"/>
<path d="M642.61 153.18L650.48 148.62L642.61 143.94L634.74 148.62L642.61 153.18Z" fill="#F5EDFF" stroke="#5100CD" stroke-linecap="round" stroke-linejoin="round"/>
<path d="M673.599 152.54L781.839 89.64L673.599 25.28L565.359 89.64L673.599 152.54Z" fill="#F5EDFF" stroke="#5100CD" stroke-linecap="round" stroke-linejoin="round"/>
<path d="M781.84 89.6401V98.6301L673.6 161.53V152.54L781.84 89.6401Z" fill="#DBC8F6" stroke="#5100CD" stroke-linecap="round" stroke-linejoin="round"/>
<path d="M565.35 89.6401V98.6301L673.59 161.53V152.54L565.35 89.6401Z" fill="#F1E9FD" stroke="#5100CD" stroke-linecap="round" stroke-linejoin="round"/>
<path d="M773.07 88.9101L673.6 146.69L574.12 88.9101L673.6 31.1301L773.07 88.9101Z" fill="#F5EDFF"/>
<path d="M675.33 92.78L675.74 92.54C676.6 92.04 677.47 91.79 678.35 91.78C679.23 91.78 680.1 92.02 680.94 92.51C681.88 93.06 682.32 93.58 682.27 94.1C682.21 94.61 681.65 95.18 680.56 95.81L673.38 99.98C672.28 100.62 671.3 100.95 670.43 100.98C669.56 101.01 668.65 100.75 667.7 100.2C666.78 99.66 666.35 99.15 666.41 98.65C666.47 98.15 667.05 97.58 668.15 96.94L668.99 96.46L665.22 95.41L654.91 101.4L656.68 103.62L657.51 103.13C658.59 102.5 659.57 102.17 660.45 102.13C661.32 102.09 662.22 102.34 663.12 102.86C664.06 103.41 664.5 103.93 664.44 104.45C664.38 104.96 663.82 105.53 662.73 106.16L656.57 109.74C655.47 110.38 654.49 110.71 653.61 110.74C652.73 110.77 651.83 110.51 650.89 109.96C650.05 109.47 649.63 108.97 649.64 108.46C649.64 107.95 650.08 107.44 650.94 106.94L651.35 106.7L639.94 92.64L638.03 93.75C636.95 94.38 635.97 94.71 635.08 94.74C634.2 94.77 633.29 94.52 632.37 93.99C631.43 93.44 630.99 92.92 631.05 92.4C631.11 91.89 631.67 91.32 632.76 90.69L641.71 85.49C643.13 84.67 644.88 84.53 646.98 85.09L647.05 85.13L675.33 92.77V92.78ZM645.02 89.7L651.63 97.56L658.55 93.54L645.02 89.7Z" fill="#5100CD"/>
<path d="M677.91 70.6101L695.71 80.9501L699.72 78.6201C700.8 77.9901 701.78 77.6601 702.65 77.6201C703.52 77.5801 704.42 77.8301 705.32 78.3501C706.24 78.8901 706.68 79.4201 706.62 79.9401C706.56 80.4601 706 81.0301 704.94 81.6501L690.76 89.8801C689.68 90.5101 688.7 90.8401 687.81 90.8701C686.93 90.9001 686.02 90.6501 685.08 90.1001C684.16 89.5601 683.73 89.0501 683.79 88.5501C683.85 88.0501 684.43 87.4801 685.53 86.8401L689.54 84.5101L671.74 74.1701L667.73 76.5001C666.65 77.1301 665.67 77.4601 664.78 77.4901C663.9 77.5201 662.99 77.2701 662.07 76.7301C661.13 76.1901 660.69 75.6601 660.76 75.1601C660.82 74.6601 661.4 74.0901 662.5 73.4501L676.68 65.2201C677.81 64.5601 678.8 64.2201 679.64 64.1901C680.48 64.1601 681.37 64.4201 682.31 64.9701C683.23 65.5101 683.67 66.0301 683.62 66.5401C683.57 67.0501 683 67.6201 681.9 68.2601L677.89 70.5901L677.91 70.6101Z" fill="#5100CD"/>
<path d="M352.45 206.57V225.95V245.32L371.83 234.07V214.69V195.32L352.45 206.57Z" fill="#5100CD" stroke="#5100CD" stroke-linecap="round" stroke-linejoin="round"/>
<path d="M333.08 175.95L352.45 164.69L429.96 209.71L410.58 220.96L333.08 175.95Z" fill="#F5EDFF" stroke="#5100CD" stroke-linecap="round" stroke-linejoin="round"/>
<path d="M391.2 112.84L410.58 101.58V120.96L391.2 132.21V112.84Z" fill="#5100CD" stroke="#5100CD" stroke-linecap="round" stroke-linejoin="round"/>
<path d="M410.58 162.84L391.2 151.58L371.83 140.33L352.45 129.08L333.08 117.82V137.2L352.45 148.45L371.83 159.7L391.2 170.96L410.58 182.21V201.59V220.96L391.2 209.71L371.83 198.45L352.45 187.2L333.08 175.95V195.32V214.69V234.07V253.44L352.45 264.7L371.83 275.95L391.2 287.2L410.58 298.46L429.95 309.71V290.34L410.58 279.08L391.2 267.83L371.83 256.58L352.45 245.32V225.95V206.57L371.83 217.83L391.2 229.08L410.58 240.33L429.95 251.59V232.21V212.84V193.47V174.09L410.58 162.84Z" fill="#F1E9FD" stroke="#5100CD" stroke-linecap="round" stroke-linejoin="round"/>
<path d="M449.32 127.22L429.95 115.97L410.58 104.72L391.2 93.46L371.83 82.21V101.58V120.96L391.2 132.21V112.84L410.58 124.09L429.95 135.34L449.32 146.6L468.7 157.85V138.48L449.32 127.22Z" fill="#F1E9FD" stroke="#5100CD" stroke-linecap="round" stroke-linejoin="round"/>
<path d="M468.7 157.85V138.48L488.07 127.22V146.6L468.7 157.85Z" fill="#5100CD" stroke="#5100CD" stroke-linecap="round" stroke-linejoin="round"/>
<path d="M449.32 185.34V204.72V224.09V243.47V262.84L468.7 274.09V254.72V235.35V215.97V196.6L449.32 185.34Z" fill="#F1E9FD" stroke="#5100CD" stroke-linecap="round" stroke-linejoin="round"/>
<path d="M468.7 196.6V215.97V235.35V254.72V274.09L488.07 262.84V243.47V224.09V204.72V185.34L468.7 196.6Z" fill="#5100CD" stroke="#5100CD" stroke-linecap="round" stroke-linejoin="round"/>
<path d="M429.95 174.09V193.47V212.84V232.21V251.59L449.32 240.33V220.96V201.59V182.21V162.84L429.95 174.09Z" fill="#5100CD" stroke="#5100CD" stroke-linecap="round" stroke-linejoin="round"/>
<path d="M429.95 290.34L449.32 279.08V298.46L429.95 309.71V290.34Z" fill="#5100CD" stroke="#5100CD" stroke-linecap="round" stroke-linejoin="round"/>
<path d="M488.07 185.34L468.7 174.09L449.32 185.34L468.7 196.6L488.07 185.34Z" fill="#F5EDFF" stroke="#5100CD" stroke-linecap="round" stroke-linejoin="round"/>
<path d="M371.83 82.21L391.2 70.95L488.07 127.22L468.7 138.48L371.83 82.21Z" fill="#F5EDFF" stroke="#5100CD" stroke-linecap="round" stroke-linejoin="round"/>
<path d="M333.08 117.82L352.45 106.57L449.33 162.84L429.95 174.09L333.08 117.82Z" fill="#F5EDFF" stroke="#5100CD" stroke-linecap="round" stroke-linejoin="round"/>
<path d="M352.45 245.32L371.83 234.07L449.33 279.08L429.95 290.34L352.45 245.32Z" fill="#F5EDFF" stroke="#5100CD" stroke-linecap="round" stroke-linejoin="round"/>
<rect x="543" y="47" width="30" height="30" rx="15" fill="white"/>
<rect x="543" y="47" width="30" height="30" rx="15" stroke="#5100CD" stroke-width="2"/>
<path d="M559.47 65.66H562.476V68H553.836V65.66H556.842V58.424L554.25 60.008L553.026 58.01L556.698 55.76H559.47V65.66Z" fill="#5100CD"/>
<rect x="314" y="69" width="30" height="30" rx="15" fill="white"/>
<rect x="314" y="69" width="30" height="30" rx="15" stroke="#5100CD" stroke-width="2"/>
<path d="M327.68 85.554L326.942 86.292V87.66H333.242V90H324.314V85.356L326.132 83.538L329.876 82.692L330.614 81.954V80.694L330.02 80.1H327.338L326.096 81.342L324.314 79.56L326.114 77.76H331.262L333.242 79.74V82.89L331.424 84.708L327.68 85.554Z" fill="#5100CD"/>
<rect x="222" y="187" width="30" height="30" rx="15" fill="white"/>
<rect x="222" y="187" width="30" height="30" rx="15" stroke="#5100CD" stroke-width="2"/>
<path d="M239.856 201.718L241.332 203.212V206.038L239.37 208H233.844L231.864 206.038L233.682 204.22L235.104 205.66H238.074L238.686 205.048V203.842L237.84 202.996H234.438V200.728H237.714L238.416 200.026V198.712L237.804 198.1H235.194L233.952 199.36L232.134 197.542L233.934 195.76H239.1L241.062 197.722V200.512L239.856 201.718Z" fill="#5100CD"/>
<rect x="590.5" y="272.5" width="148" height="39" rx="3.5" fill="white"/>
<rect x="590.5" y="272.5" width="148" height="39" rx="3.5" stroke="white"/>
<path d="M617.603 294.1H613.226L612.786 295.198H613.226C613.659 295.198 613.967 295.283 614.148 295.453C614.336 295.617 614.43 295.834 614.43 296.104C614.43 296.367 614.336 296.584 614.148 296.754C613.967 296.918 613.659 297 613.226 297H610.8C610.366 297 610.059 296.918 609.877 296.754C609.689 296.584 609.596 296.364 609.596 296.095C609.596 295.825 609.692 295.605 609.886 295.436C610.079 295.266 610.398 295.187 610.844 295.198L613.674 288.149H612.496C612.062 288.149 611.752 288.067 611.564 287.903C611.383 287.733 611.292 287.514 611.292 287.244C611.292 286.975 611.383 286.758 611.564 286.594C611.752 286.424 612.062 286.339 612.496 286.339L616.39 286.348L619.976 295.198C620.397 295.198 620.676 295.245 620.811 295.339C621.08 295.532 621.215 295.787 621.215 296.104C621.215 296.367 621.124 296.584 620.942 296.754C620.761 296.918 620.453 297 620.02 297H617.594C617.16 297 616.85 296.918 616.662 296.754C616.48 296.584 616.39 296.364 616.39 296.095C616.39 295.831 616.48 295.617 616.662 295.453C616.85 295.283 617.16 295.198 617.594 295.198H618.033L617.603 294.1ZM616.855 292.298L615.405 288.729L613.946 292.298H616.855ZM627.112 288.149V295.198H628.932C629.365 295.198 629.673 295.283 629.854 295.453C630.042 295.617 630.136 295.834 630.136 296.104C630.136 296.367 630.042 296.584 629.854 296.754C629.673 296.918 629.365 297 628.932 297H623.491C623.058 297 622.747 296.918 622.56 296.754C622.378 296.584 622.287 296.364 622.287 296.095C622.287 295.831 622.378 295.617 622.56 295.453C622.747 295.283 623.058 295.198 623.491 295.198H625.311V288.149H623.491C623.058 288.149 622.747 288.067 622.56 287.903C622.378 287.733 622.287 287.514 622.287 287.244C622.287 286.975 622.378 286.758 622.56 286.594C622.747 286.424 623.058 286.339 623.491 286.339L628.932 286.348C629.365 286.348 629.673 286.43 629.854 286.594C630.042 286.758 630.136 286.975 630.136 287.244C630.136 287.514 630.042 287.733 629.854 287.903C629.673 288.067 629.365 288.149 628.932 288.149H627.112ZM645.596 296.007V298.96H646.677C647.11 298.96 647.418 299.042 647.6 299.206C647.787 299.376 647.881 299.596 647.881 299.865C647.881 300.129 647.787 300.343 647.6 300.507C647.418 300.677 647.11 300.762 646.677 300.762H643.486C643.053 300.762 642.742 300.677 642.555 300.507C642.373 300.343 642.282 300.129 642.282 299.865C642.282 299.596 642.376 299.376 642.563 299.206C642.751 299.042 643.059 298.96 643.486 298.96H643.794V290.821H643.486C643.053 290.821 642.742 290.739 642.555 290.575C642.373 290.405 642.282 290.186 642.282 289.916C642.282 289.652 642.373 289.438 642.555 289.274C642.742 289.104 643.053 289.02 643.486 289.02H645.596V289.635C646.018 289.348 646.454 289.134 646.905 288.993C647.356 288.853 647.819 288.782 648.294 288.782C649.524 288.782 650.573 289.201 651.44 290.039C652.308 290.871 652.741 291.826 652.741 292.904C652.741 294.094 652.229 295.075 651.203 295.849C650.348 296.493 649.384 296.815 648.312 296.815C647.849 296.815 647.392 296.748 646.94 296.613C646.489 296.479 646.041 296.276 645.596 296.007ZM650.939 292.913C650.939 292.661 650.84 292.342 650.641 291.955C650.441 291.562 650.134 291.237 649.718 290.979C649.308 290.716 648.824 290.584 648.268 290.584C647.371 290.584 646.659 290.921 646.132 291.595C645.774 292.058 645.596 292.503 645.596 292.931C645.596 293.411 645.851 293.88 646.36 294.337C646.876 294.788 647.512 295.014 648.268 295.014C649.029 295.014 649.665 294.788 650.175 294.337C650.685 293.886 650.939 293.411 650.939 292.913ZM658.27 289.02V290.145C659.025 289.6 659.62 289.236 660.054 289.055C660.493 288.873 660.903 288.782 661.284 288.782C661.87 288.782 662.438 288.999 662.989 289.433C663.364 289.726 663.552 290.024 663.552 290.329C663.552 290.587 663.461 290.807 663.279 290.988C663.104 291.164 662.89 291.252 662.638 291.252C662.415 291.252 662.181 291.141 661.935 290.918C661.688 290.695 661.469 290.584 661.275 290.584C661.023 290.584 660.646 290.742 660.142 291.059C659.644 291.375 659.02 291.85 658.27 292.482V295.198H660.836C661.27 295.198 661.577 295.283 661.759 295.453C661.946 295.617 662.04 295.834 662.04 296.104C662.04 296.367 661.946 296.584 661.759 296.754C661.577 296.918 661.27 297 660.836 297H655.396C654.962 297 654.651 296.918 654.464 296.754C654.282 296.584 654.191 296.364 654.191 296.095C654.191 295.831 654.282 295.617 654.464 295.453C654.651 295.283 654.962 295.198 655.396 295.198H656.468V290.821H655.817C655.384 290.821 655.073 290.739 654.886 290.575C654.704 290.405 654.613 290.186 654.613 289.916C654.613 289.652 654.704 289.438 654.886 289.274C655.073 289.104 655.384 289.02 655.817 289.02H658.27ZM674.134 293.159C674.134 293.851 673.94 294.521 673.554 295.172C673.173 295.816 672.602 296.332 671.84 296.719C671.084 297.1 670.293 297.29 669.467 297.29C668.646 297.29 667.861 297.103 667.111 296.728C666.361 296.347 665.79 295.831 665.397 295.181C665.005 294.53 664.809 293.851 664.809 293.142C664.809 292.421 665.008 291.715 665.406 291.023C665.805 290.326 666.376 289.778 667.12 289.38C667.87 288.981 668.652 288.782 669.467 288.782C670.287 288.782 671.075 288.987 671.831 289.397C672.593 289.802 673.167 290.35 673.554 291.041C673.94 291.727 674.134 292.433 674.134 293.159ZM672.332 293.168C672.332 292.588 672.124 292.055 671.708 291.568C671.14 290.912 670.393 290.584 669.467 290.584C668.652 290.584 667.973 290.845 667.428 291.366C666.883 291.888 666.61 292.491 666.61 293.177C666.61 293.739 666.886 294.267 667.437 294.759C667.987 295.245 668.664 295.488 669.467 295.488C670.275 295.488 670.955 295.245 671.506 294.759C672.057 294.267 672.332 293.736 672.332 293.168ZM682.246 289.556V289.02H684.355C684.789 289.02 685.097 289.104 685.278 289.274C685.466 289.438 685.56 289.655 685.56 289.925C685.56 290.188 685.466 290.405 685.278 290.575C685.097 290.739 684.789 290.821 684.355 290.821H684.048V297.378C684.048 298.011 683.913 298.562 683.644 299.03C683.38 299.505 682.973 299.912 682.422 300.252C681.871 300.592 681.25 300.762 680.559 300.762H678.52C678.086 300.762 677.775 300.677 677.588 300.507C677.406 300.343 677.315 300.129 677.315 299.865C677.315 299.596 677.406 299.376 677.588 299.206C677.775 299.042 678.086 298.96 678.52 298.96H680.506C681.057 298.96 681.484 298.811 681.789 298.512C682.094 298.213 682.246 297.835 682.246 297.378V296.499C681.848 296.757 681.44 296.95 681.024 297.079C680.614 297.208 680.192 297.272 679.759 297.272C678.534 297.272 677.509 296.865 676.683 296.051C675.856 295.23 675.443 294.22 675.443 293.019C675.443 291.812 675.856 290.801 676.683 289.986C677.509 289.166 678.534 288.756 679.759 288.756C680.216 288.756 680.649 288.823 681.06 288.958C681.476 289.087 681.871 289.286 682.246 289.556ZM682.237 293.01C682.237 292.348 681.991 291.773 681.499 291.287C681.013 290.801 680.427 290.558 679.741 290.558C679.056 290.558 678.467 290.801 677.975 291.287C677.488 291.773 677.245 292.348 677.245 293.01C677.245 293.678 677.488 294.255 677.975 294.741C678.467 295.222 679.056 295.462 679.741 295.462C680.427 295.462 681.013 295.222 681.499 294.741C681.991 294.255 682.237 293.678 682.237 293.01ZM690.701 289.02V290.145C691.457 289.6 692.052 289.236 692.485 289.055C692.925 288.873 693.335 288.782 693.716 288.782C694.302 288.782 694.87 288.999 695.421 289.433C695.796 289.726 695.983 290.024 695.983 290.329C695.983 290.587 695.893 290.807 695.711 290.988C695.535 291.164 695.321 291.252 695.069 291.252C694.847 291.252 694.612 291.141 694.366 290.918C694.12 290.695 693.9 290.584 693.707 290.584C693.455 290.584 693.077 290.742 692.573 291.059C692.075 291.375 691.451 291.85 690.701 292.482V295.198H693.268C693.701 295.198 694.009 295.283 694.19 295.453C694.378 295.617 694.472 295.834 694.472 296.104C694.472 296.367 694.378 296.584 694.19 296.754C694.009 296.918 693.701 297 693.268 297H687.827C687.394 297 687.083 296.918 686.896 296.754C686.714 296.584 686.623 296.364 686.623 296.095C686.623 295.831 686.714 295.617 686.896 295.453C687.083 295.283 687.394 295.198 687.827 295.198H688.899V290.821H688.249C687.815 290.821 687.505 290.739 687.317 290.575C687.136 290.405 687.045 290.186 687.045 289.916C687.045 289.652 687.136 289.438 687.317 289.274C687.505 289.104 687.815 289.02 688.249 289.02H690.701ZM703.507 297V296.578C703.056 296.818 702.558 296.997 702.013 297.114C701.468 297.237 700.973 297.299 700.527 297.299C699.561 297.299 698.775 297.044 698.172 296.534C697.568 296.019 697.267 295.45 697.267 294.829C697.267 294.073 697.65 293.373 698.418 292.729C699.191 292.078 700.258 291.753 701.617 291.753C702.162 291.753 702.792 291.812 703.507 291.929V291.498C703.507 291.229 703.39 291.009 703.155 290.839C702.927 290.669 702.487 290.584 701.837 290.584C701.304 290.584 700.612 290.689 699.763 290.9C699.446 290.977 699.2 291.015 699.024 291.015C698.784 291.015 698.579 290.93 698.409 290.76C698.245 290.584 698.163 290.361 698.163 290.092C698.163 289.939 698.192 289.808 698.251 289.696C698.31 289.585 698.392 289.497 698.497 289.433C698.603 289.362 698.822 289.28 699.156 289.187C699.602 289.063 700.056 288.967 700.519 288.896C700.981 288.82 701.4 288.782 701.775 288.782C702.895 288.782 703.762 289.025 704.377 289.512C704.998 289.992 705.309 290.651 705.309 291.489V295.198H705.616C706.05 295.198 706.357 295.283 706.539 295.453C706.727 295.617 706.82 295.834 706.82 296.104C706.82 296.367 706.727 296.584 706.539 296.754C706.357 296.918 706.05 297 705.616 297H703.507ZM703.507 293.774C702.786 293.634 702.121 293.563 701.512 293.563C700.779 293.563 700.149 293.742 699.622 294.1C699.294 294.328 699.13 294.56 699.13 294.794C699.13 294.964 699.209 295.102 699.367 295.207C699.66 295.4 700.062 295.497 700.571 295.497C701.005 295.497 701.494 295.412 702.039 295.242C702.59 295.072 703.079 294.841 703.507 294.548V293.774ZM709.914 289.02V289.529C710.207 289.242 710.471 289.046 710.705 288.94C710.945 288.829 711.221 288.773 711.531 288.773C711.795 288.773 712.056 288.838 712.313 288.967C712.571 289.096 712.823 289.289 713.069 289.547C713.38 289.289 713.693 289.099 714.01 288.976C714.332 288.847 714.66 288.782 714.994 288.782C715.662 288.782 716.204 288.961 716.62 289.318C717.171 289.787 717.446 290.402 717.446 291.164V295.198C717.821 295.198 718.1 295.283 718.281 295.453C718.463 295.623 718.554 295.84 718.554 296.104C718.554 296.367 718.463 296.584 718.281 296.754C718.1 296.918 717.792 297 717.358 297H715.645V291.313C715.645 291.038 715.595 290.848 715.495 290.742C715.396 290.637 715.243 290.584 715.038 290.584C714.839 290.584 714.654 290.637 714.484 290.742C714.268 290.889 714.004 291.164 713.693 291.568V295.198C714.068 295.198 714.347 295.283 714.528 295.453C714.71 295.623 714.801 295.84 714.801 296.104C714.801 296.367 714.71 296.584 714.528 296.754C714.347 296.918 714.039 297 713.605 297H711.892V291.313C711.892 291.044 711.839 290.856 711.733 290.751C711.634 290.64 711.481 290.584 711.276 290.584C711.065 290.584 710.857 290.651 710.652 290.786C710.447 290.915 710.201 291.176 709.914 291.568V295.198C710.289 295.198 710.567 295.283 710.749 295.453C710.937 295.623 711.03 295.84 711.03 296.104C711.03 296.367 710.937 296.584 710.749 296.754C710.567 296.918 710.26 297 709.826 297H708.2C707.767 297 707.459 296.918 707.277 296.754C707.09 296.584 706.996 296.364 706.996 296.095C706.996 295.831 707.087 295.617 707.269 295.453C707.45 295.283 707.731 295.198 708.112 295.198V290.821C707.731 290.821 707.45 290.736 707.269 290.566C707.087 290.396 706.996 290.18 706.996 289.916C706.996 289.652 707.09 289.438 707.277 289.274C707.459 289.104 707.767 289.02 708.2 289.02H709.914Z" fill="#5100CD"/>
</svg>
