<svg width="670" height="335" viewBox="0 0 670 335" fill="none" xmlns="http://www.w3.org/2000/svg">
<path d="M574.19 185.472V124.394" stroke="#5100CD" stroke-linecap="round" stroke-linejoin="round"/>
<path d="M406.112 141.504L448.297 117.007" stroke="#5100CD" stroke-linecap="round" stroke-linejoin="round"/>
<path d="M448.289 116.999L574.182 185.824" stroke="#5100CD" stroke-linecap="round" stroke-linejoin="round"/>
<path d="M469.729 129.36L472.208 127.911L469.729 126.437L467.241 127.911L469.729 129.36Z" fill="#F5EDFF" stroke="#5100CD" stroke-linecap="round" stroke-linejoin="round"/>
<path d="M469.729 131.956V129.36L472.208 127.911V130.533L469.729 131.956Z" fill="#5100CD" stroke="#5100CD" stroke-linecap="round" stroke-linejoin="round"/>
<path d="M467.241 130.482V127.911L469.729 129.36V131.956L467.241 130.482Z" fill="#F5EDFF" stroke="#5100CD" stroke-linecap="round" stroke-linejoin="round"/>
<path d="M574.19 184.56L576.669 183.111L574.19 181.637L571.703 183.111L574.19 184.56Z" fill="#F5EDFF" stroke="#5100CD" stroke-linecap="round" stroke-linejoin="round"/>
<path d="M574.19 187.156V184.56L576.669 183.111V185.732L574.19 187.156Z" fill="#5100CD" stroke="#5100CD" stroke-linecap="round" stroke-linejoin="round"/>
<path d="M571.703 185.682V183.111L574.19 184.56V187.156L571.703 185.682Z" fill="#F5EDFF" stroke="#5100CD" stroke-linecap="round" stroke-linejoin="round"/>
<path d="M574.324 155.314L576.803 153.865L574.324 152.391L571.837 153.865L574.324 155.314Z" fill="#F5EDFF" stroke="#5100CD" stroke-linecap="round" stroke-linejoin="round"/>
<path d="M574.324 157.91V155.314L576.803 153.865V156.487L574.324 157.91Z" fill="#5100CD" stroke="#5100CD" stroke-linecap="round" stroke-linejoin="round"/>
<path d="M571.837 156.436V153.865L574.324 155.314V157.91L571.837 156.436Z" fill="#F5EDFF" stroke="#5100CD" stroke-linecap="round" stroke-linejoin="round"/>
<path d="M448.298 119.603V117.007L450.777 115.566V118.179L448.298 119.603Z" fill="#5100CD" stroke="#5100CD" stroke-linecap="round" stroke-linejoin="round"/>
<path d="M445.811 118.129V115.566L448.298 117.007V119.603L445.811 118.129Z" fill="#F5EDFF" stroke="#5100CD" stroke-linecap="round" stroke-linejoin="round"/>
<path d="M448.298 117.007L450.777 115.566L448.298 114.084L445.811 115.566L448.298 117.007Z" fill="#F5EDFF" stroke="#5100CD" stroke-linecap="round" stroke-linejoin="round"/>
<path d="M297.497 271.484L334.431 294.415V216.393" stroke="#5100CD" stroke-linecap="round" stroke-linejoin="round"/>
<path d="M297.539 170.213L228.186 129.938" stroke="#5100CD" stroke-linecap="round" stroke-linejoin="round"/>
<path d="M248.227 299.917L234.291 291.818" stroke="#5100CD" stroke-linecap="round" stroke-linejoin="round"/>
<path d="M218.261 301.651L190.322 285.428" stroke="#5100CD" stroke-linecap="round" stroke-linejoin="round"/>
<path d="M265.605 273.536L237.666 257.313" stroke="#5100CD" stroke-linecap="round" stroke-linejoin="round"/>
<path d="M464.562 291.743L376.448 240.572" stroke="#5100CD" stroke-linecap="round" stroke-linejoin="round"/>
<path d="M227.825 129.938V93.5068" stroke="#5100CD" stroke-linecap="round" stroke-linejoin="round"/>
<path d="M334.44 294.599L337.438 292.849L334.44 291.073L331.441 292.849L334.44 294.599Z" fill="#F5EDFF" stroke="#5100CD" stroke-linecap="round" stroke-linejoin="round"/>
<path d="M334.439 297.74V294.599L337.438 292.849V296.014L334.439 297.74Z" fill="#5100CD" stroke="#5100CD" stroke-linecap="round" stroke-linejoin="round"/>
<path d="M331.441 295.956V292.849L334.44 294.599V297.74L331.441 295.956Z" fill="#F5EDFF" stroke="#5100CD" stroke-linecap="round" stroke-linejoin="round"/>
<path d="M334.44 245.078L337.438 243.327L334.44 241.552L331.441 243.327L334.44 245.078Z" fill="#F5EDFF" stroke="#5100CD" stroke-linecap="round" stroke-linejoin="round"/>
<path d="M334.439 248.218V245.078L337.438 243.327V246.493L334.439 248.218Z" fill="#5100CD" stroke="#5100CD" stroke-linecap="round" stroke-linejoin="round"/>
<path d="M331.441 246.434V243.327L334.44 245.078V248.218L331.441 246.434Z" fill="#F5EDFF" stroke="#5100CD" stroke-linecap="round" stroke-linejoin="round"/>
<path d="M464.562 291.902L506.746 267.405" stroke="#5100CD" stroke-linecap="round" stroke-linejoin="round"/>
<path d="M249.483 299.364L297.497 271.476" stroke="#5100CD" stroke-linecap="round" stroke-linejoin="round"/>
<path d="M161.328 167.877L227.826 129.26" stroke="#5100CD" stroke-linecap="round" stroke-linejoin="round"/>
<path d="M217.248 301.651L265.262 273.762" stroke="#5100CD" stroke-linecap="round" stroke-linejoin="round"/>
<path d="M464.562 291.936L467.56 290.185L464.562 288.41L461.563 290.185L464.562 291.936Z" fill="#F5EDFF" stroke="#5100CD" stroke-linecap="round" stroke-linejoin="round"/>
<path d="M464.562 295.076V291.935L467.56 290.185V293.351L464.562 295.076Z" fill="#5100CD" stroke="#5100CD" stroke-linecap="round" stroke-linejoin="round"/>
<path d="M461.563 293.292V290.185L464.562 291.935V295.076L461.563 293.292Z" fill="#F5EDFF" stroke="#5100CD" stroke-linecap="round" stroke-linejoin="round"/>
<path d="M433.457 274.323L436.456 272.573L433.457 270.797L430.459 272.573L433.457 274.323Z" fill="#F5EDFF" stroke="#5100CD" stroke-linecap="round" stroke-linejoin="round"/>
<path d="M433.457 277.464V274.323L436.455 272.573V275.738L433.457 277.464Z" fill="#5100CD" stroke="#5100CD" stroke-linecap="round" stroke-linejoin="round"/>
<path d="M430.459 275.68V272.573L433.457 274.323V277.464L430.459 275.68Z" fill="#F5EDFF" stroke="#5100CD" stroke-linecap="round" stroke-linejoin="round"/>
<path d="M234.282 291.827L237.281 290.076L234.282 288.301L231.284 290.076L234.282 291.827Z" fill="#F5EDFF" stroke="#5100CD" stroke-linecap="round" stroke-linejoin="round"/>
<path d="M234.282 294.967V291.827L237.28 290.076V293.242L234.282 294.967Z" fill="#5100CD" stroke="#5100CD" stroke-linecap="round" stroke-linejoin="round"/>
<path d="M231.284 293.183V290.076L234.282 291.827V294.967L231.284 293.183Z" fill="#F5EDFF" stroke="#5100CD" stroke-linecap="round" stroke-linejoin="round"/>
<path d="M216.277 301.266L219.275 299.515L216.277 297.74L213.278 299.515L216.277 301.266Z" fill="#F5EDFF" stroke="#5100CD" stroke-linecap="round" stroke-linejoin="round"/>
<path d="M216.276 304.406V301.266L219.275 299.515V302.681L216.276 304.406Z" fill="#5100CD" stroke="#5100CD" stroke-linecap="round" stroke-linejoin="round"/>
<path d="M213.278 302.622V299.515L216.277 301.266V304.406L213.278 302.622Z" fill="#F5EDFF" stroke="#5100CD" stroke-linecap="round" stroke-linejoin="round"/>
<path d="M265.606 273.536L268.604 271.785L265.606 270.01L262.607 271.785L265.606 273.536Z" fill="#F5EDFF" stroke="#5100CD" stroke-linecap="round" stroke-linejoin="round"/>
<path d="M265.605 276.676V273.536L268.604 271.785V274.951L265.605 276.676Z" fill="#5100CD" stroke="#5100CD" stroke-linecap="round" stroke-linejoin="round"/>
<path d="M262.607 274.892V271.785L265.606 273.536V276.676L262.607 274.892Z" fill="#F5EDFF" stroke="#5100CD" stroke-linecap="round" stroke-linejoin="round"/>
<path d="M248.227 299.917L251.225 298.167L248.227 296.391L245.229 298.167L248.227 299.917Z" fill="#F5EDFF" stroke="#5100CD" stroke-linecap="round" stroke-linejoin="round"/>
<path d="M248.227 303.057V299.917L251.225 298.167V301.332L248.227 303.057Z" fill="#5100CD" stroke="#5100CD" stroke-linecap="round" stroke-linejoin="round"/>
<path d="M245.229 301.274V298.167L248.227 299.917V303.057L245.229 301.274Z" fill="#F5EDFF" stroke="#5100CD" stroke-linecap="round" stroke-linejoin="round"/>
<path d="M297.497 271.978L300.496 270.228L297.497 268.452L294.499 270.228L297.497 271.978Z" fill="#F5EDFF" stroke="#5100CD" stroke-linecap="round" stroke-linejoin="round"/>
<path d="M297.497 275.119V271.978L300.495 270.228V273.393L297.497 275.119Z" fill="#5100CD" stroke="#5100CD" stroke-linecap="round" stroke-linejoin="round"/>
<path d="M294.499 273.335V270.228L297.497 271.978V275.119L294.499 273.335Z" fill="#F5EDFF" stroke="#5100CD" stroke-linecap="round" stroke-linejoin="round"/>
<path d="M251.226 264.617L254.224 262.866L251.226 261.091L248.228 262.866L251.226 264.617Z" fill="#F5EDFF" stroke="#5100CD" stroke-linecap="round" stroke-linejoin="round"/>
<path d="M251.226 267.757V264.617L254.224 262.866V266.032L251.226 267.757Z" fill="#5100CD" stroke="#5100CD" stroke-linecap="round" stroke-linejoin="round"/>
<path d="M248.228 265.973V262.866L251.226 264.617V267.757L248.228 265.973Z" fill="#F5EDFF" stroke="#5100CD" stroke-linecap="round" stroke-linejoin="round"/>
<path d="M227.825 130.307L230.824 128.556L227.825 126.781L224.827 128.556L227.825 130.307Z" fill="#F5EDFF" stroke="#5100CD" stroke-linecap="round" stroke-linejoin="round"/>
<path d="M227.825 133.447V130.307L230.823 128.556V131.722L227.825 133.447Z" fill="#5100CD" stroke="#5100CD" stroke-linecap="round" stroke-linejoin="round"/>
<path d="M224.827 131.663V128.556L227.825 130.307V133.447L224.827 131.663Z" fill="#F5EDFF" stroke="#5100CD" stroke-linecap="round" stroke-linejoin="round"/>
<path d="M189.309 150.8L192.307 149.05L189.309 147.274L186.311 149.05L189.309 150.8Z" fill="#F5EDFF" stroke="#5100CD" stroke-linecap="round" stroke-linejoin="round"/>
<path d="M189.309 153.941V150.8L192.307 149.05V152.216L189.309 153.941Z" fill="#5100CD" stroke="#5100CD" stroke-linecap="round" stroke-linejoin="round"/>
<path d="M186.311 152.157V149.05L189.309 150.8V153.941L186.311 152.157Z" fill="#F5EDFF" stroke="#5100CD" stroke-linecap="round" stroke-linejoin="round"/>
<path d="M276.895 157.467L279.893 155.716L276.895 153.941L273.896 155.716L276.895 157.467Z" fill="#F5EDFF" stroke="#5100CD" stroke-linecap="round" stroke-linejoin="round"/>
<path d="M276.895 160.607V157.467L279.893 155.716V158.882L276.895 160.607Z" fill="#5100CD" stroke="#5100CD" stroke-linecap="round" stroke-linejoin="round"/>
<path d="M273.896 158.823V155.716L276.895 157.467V160.607L273.896 158.823Z" fill="#F5EDFF" stroke="#5100CD" stroke-linecap="round" stroke-linejoin="round"/>
<path d="M305.228 162.115V178.345V194.568L321.458 185.146V168.915V152.693L305.228 162.115Z" fill="#DBC8F6" stroke="#5100CD" stroke-linecap="round" stroke-linejoin="round"/>
<path d="M289.005 136.471L305.227 127.041L370.142 164.745L353.911 174.167L289.005 136.471Z" fill="#F5EDFF" stroke="#5100CD" stroke-linecap="round" stroke-linejoin="round"/>
<path d="M337.681 83.6158L353.911 74.1855V90.4163L337.681 99.8382V83.6158Z" fill="#DBC8F6" stroke="#5100CD" stroke-linecap="round" stroke-linejoin="round"/>
<path d="M353.911 125.491L337.68 116.061L321.458 106.639L305.227 97.2169L289.005 87.7866V104.017L305.227 113.439L321.458 122.861L337.68 132.291L353.911 141.713V157.944V174.166L337.68 164.744L321.458 155.314L305.227 145.892L289.005 136.47V152.693V168.915V185.146V201.368L305.227 210.799L321.458 220.22L337.68 229.642L353.911 239.073L370.134 248.494V232.272L353.911 222.842L337.68 213.42L321.458 203.998L305.227 194.568V178.345V162.115L321.458 171.545L337.68 180.967L353.911 190.389L370.134 199.819V183.588V167.366V151.143V134.913L353.911 125.491Z" fill="#F1E9FD" stroke="#5100CD" stroke-linecap="round" stroke-linejoin="round"/>
<path d="M386.356 95.6593L370.134 86.2374L353.911 76.8155L337.68 67.3853L321.458 57.9634V74.1858V90.4165L337.68 99.8384V83.616L353.911 93.0379L370.134 102.46L386.356 111.89L402.587 121.312V105.09L386.356 95.6593Z" fill="#F1E9FD" stroke="#5100CD" stroke-linecap="round" stroke-linejoin="round"/>
<path d="M402.587 121.312V105.089L418.809 95.6592V111.89L402.587 121.312Z" fill="#DBC8F6" stroke="#5100CD" stroke-linecap="round" stroke-linejoin="round"/>
<path d="M386.355 144.335V160.566V176.788V193.019V209.241L402.586 218.663V202.441V186.218V169.988V153.765L386.355 144.335Z" fill="#F5EDFF" stroke="#5100CD" stroke-linecap="round" stroke-linejoin="round"/>
<path d="M402.587 153.765V169.988V186.218V202.441V218.663L418.809 209.241V193.019V176.788V160.566V144.335L402.587 153.765Z" fill="#DBC8F6" stroke="#5100CD" stroke-linecap="round" stroke-linejoin="round"/>
<path d="M370.134 134.913V151.144V167.366V183.589V199.819L386.356 190.389V174.167V157.944V141.714V125.491L370.134 134.913Z" fill="#DBC8F6" stroke="#5100CD" stroke-linecap="round" stroke-linejoin="round"/>
<path d="M370.134 232.272L386.356 222.842V239.073L370.134 248.494V232.272Z" fill="#DBC8F6" stroke="#5100CD" stroke-linecap="round" stroke-linejoin="round"/>
<path d="M418.809 144.335L402.586 134.913L386.355 144.335L402.586 153.765L418.809 144.335Z" fill="#F5EDFF" stroke="#5100CD" stroke-linecap="round" stroke-linejoin="round"/>
<path d="M321.458 57.9635L337.68 48.5332L418.809 95.6593L402.587 105.09L321.458 57.9635Z" fill="#F5EDFF" stroke="#5100CD" stroke-linecap="round" stroke-linejoin="round"/>
<path d="M289.005 87.7866L305.227 78.3647L386.364 125.491L370.134 134.913L289.005 87.7866Z" fill="#F5EDFF" stroke="#5100CD" stroke-linecap="round" stroke-linejoin="round"/>
<path d="M305.228 194.568L321.458 185.146L386.365 222.842L370.134 232.272L305.228 194.568Z" fill="#F5EDFF" stroke="#5100CD" stroke-linecap="round" stroke-linejoin="round"/>
<path d="M574.324 59.5713V111.496L607.648 93.1718L574.324 59.5713Z" fill="#F1E9FD" stroke="#5100CD" stroke-linecap="round" stroke-linejoin="round"/>
<path d="M574.324 126.756V111.496L607.648 93.1719L574.324 126.756Z" fill="#5100CD" stroke="#5100CD" stroke-linecap="round" stroke-linejoin="round"/>
<path d="M574.324 59.5713V111.496L541 93.1718L574.324 59.5713Z" fill="#F5EDFF" stroke="#5100CD" stroke-linecap="round" stroke-linejoin="round"/>
<path d="M574.324 126.756V111.496L541 93.1719L574.324 126.756Z" fill="#DBC8F6" stroke="#5100CD" stroke-linecap="round" stroke-linejoin="round"/>
<path d="M227.825 79.7135C243.102 79.7135 255.487 72.3717 255.487 63.3152C255.487 54.2587 243.102 46.917 227.825 46.917C212.547 46.917 200.162 54.2587 200.162 63.3152C200.162 72.3717 212.547 79.7135 227.825 79.7135Z" fill="#F5EDFF" stroke="#5100CD" stroke-linecap="round" stroke-linejoin="round"/>
<path d="M236.954 78.7924L232.465 108.842C232.674 108.733 232.867 108.624 233.051 108.499L239.45 78.1978C238.637 78.4239 237.808 78.6165 236.962 78.7924H236.954Z" fill="#F5EDFF" stroke="#5100CD" stroke-linecap="round" stroke-linejoin="round"/>
<path d="M201.586 68.5162L220.991 106.656C221.619 108.306 223.905 109.579 226.761 109.83L222.406 79.3869C212.624 78.2396 204.693 74.0269 201.586 68.5078V68.5162Z" fill="#F1E9FD" stroke="#5100CD" stroke-linecap="round" stroke-linejoin="round"/>
<path d="M229.407 79.68V109.771C230.278 109.654 231.099 109.436 231.811 109.143L232.439 79.479C231.442 79.5795 230.437 79.6465 229.407 79.68Z" fill="#F5EDFF" stroke="#5100CD" stroke-linecap="round" stroke-linejoin="round"/>
<path d="M248.77 74.0268L237.096 101.857L254.063 68.5244C252.908 70.5679 251.099 72.4272 248.77 74.0268Z" fill="#F5EDFF" stroke="#5100CD" stroke-linecap="round" stroke-linejoin="round"/>
<path d="M227.825 79.7138C225.974 79.7138 224.165 79.6049 222.415 79.3955L226.77 109.839C227.113 109.872 227.465 109.889 227.825 109.889C228.37 109.889 228.897 109.847 229.408 109.78V79.6886C228.881 79.7054 228.361 79.7221 227.825 79.7221V79.7138Z" fill="#5100CD" stroke="#5100CD" stroke-linecap="round" stroke-linejoin="round"/>
<path d="M232.44 79.4876L231.812 109.152C232.038 109.06 232.255 108.951 232.465 108.842L236.954 78.7925C235.497 79.094 233.989 79.3285 232.44 79.4792V79.4876Z" fill="#5100CD" stroke="#5100CD" stroke-linecap="round" stroke-linejoin="round"/>
<path d="M239.44 78.1977L233.042 108.498C233.846 107.962 234.424 107.309 234.675 106.581L237.079 101.849L248.753 74.0186C246.199 75.7773 243.025 77.2011 239.432 78.1893L239.44 78.1977Z" fill="#5100CD" stroke="#5100CD" stroke-linecap="round" stroke-linejoin="round"/>
<path d="M502.526 277.095C519.384 277.095 533.061 263.427 533.061 246.56C533.061 229.693 519.393 216.025 502.526 216.025C485.658 216.025 471.99 229.693 471.99 246.56C471.99 263.427 485.658 277.095 502.526 277.095Z" fill="#F5EDFF" stroke="#5100CD" stroke-linecap="round" stroke-linejoin="round"/>
<path d="M484.117 264.968C485.507 268.494 487.283 271.593 489.352 274.105C492.241 275.496 495.39 276.425 498.698 276.844C497.785 274.591 496.973 271.551 496.336 267.933C491.914 267.431 487.794 266.409 484.126 264.96L484.117 264.968Z" fill="#F5EDFF" stroke="#5100CD" stroke-linecap="round" stroke-linejoin="round"/>
<path d="M496.336 225.187C496.981 221.569 497.785 218.529 498.698 216.276C495.39 216.687 492.241 217.625 489.352 219.015C487.283 221.536 485.507 224.635 484.117 228.152C487.785 226.712 491.906 225.69 496.328 225.179L496.336 225.187Z" fill="#F5EDFF" stroke="#5100CD" stroke-linecap="round" stroke-linejoin="round"/>
<path d="M508.723 267.941C508.078 271.559 507.274 274.599 506.361 276.852C509.669 276.442 512.818 275.504 515.708 274.114C517.776 271.593 519.552 268.494 520.942 264.977C517.274 266.417 513.153 267.439 508.731 267.95L508.723 267.941Z" fill="#EDE4FB" stroke="#5100CD" stroke-linecap="round" stroke-linejoin="round"/>
<path d="M520.933 228.16C519.543 224.635 517.768 221.536 515.699 219.023C512.81 217.633 509.661 216.703 506.353 216.285C507.265 218.538 508.078 221.578 508.714 225.196C513.136 225.698 517.257 226.72 520.925 228.169L520.933 228.16Z" fill="#F5EDFF" stroke="#5100CD" stroke-linecap="round" stroke-linejoin="round"/>
<path d="M502.526 268.285C500.407 268.285 498.347 268.159 496.328 267.925C496.973 271.543 497.777 274.583 498.69 276.836C499.946 276.995 501.219 277.087 502.509 277.087C503.799 277.087 505.08 276.995 506.328 276.836C507.241 274.583 508.053 271.543 508.69 267.925C506.68 268.151 504.611 268.285 502.492 268.285H502.509H502.526Z" fill="#F5EDFF" stroke="#5100CD" stroke-linecap="round" stroke-linejoin="round"/>
<path d="M502.525 224.835C504.644 224.835 506.704 224.961 508.723 225.187C508.078 221.569 507.274 218.529 506.361 216.276C505.105 216.117 503.832 216.025 502.542 216.025C501.252 216.025 499.971 216.117 498.723 216.276C497.81 218.529 496.998 221.569 496.361 225.187C498.371 224.961 500.44 224.835 502.559 224.835H502.542H502.525Z" fill="#F5EDFF" stroke="#5100CD" stroke-linecap="round" stroke-linejoin="round"/>
<path d="M520.934 264.969C524.46 263.578 527.559 261.803 530.071 259.734C531.462 256.845 532.391 253.696 532.81 250.388C530.557 251.301 527.517 252.113 523.899 252.749C523.396 257.171 522.375 261.292 520.926 264.96L520.934 264.969Z" fill="#EDE4FB" stroke="#5100CD" stroke-linecap="round" stroke-linejoin="round"/>
<path d="M523.907 240.371C527.525 241.016 530.565 241.82 532.818 242.733C532.408 239.425 531.47 236.276 530.079 233.386C527.559 231.318 524.46 229.542 520.942 228.152C522.383 231.82 523.405 235.941 523.915 240.363L523.907 240.371Z" fill="#EDE4FB" stroke="#5100CD" stroke-linecap="round" stroke-linejoin="round"/>
<path d="M481.152 252.758C477.534 252.113 474.494 251.309 472.241 250.396C472.652 253.704 473.59 256.853 474.98 259.742C477.501 261.811 480.599 263.587 484.117 264.977C482.676 261.309 481.655 257.188 481.144 252.766L481.152 252.758Z" fill="#F5EDFF" stroke="#5100CD" stroke-linecap="round" stroke-linejoin="round"/>
<path d="M484.117 228.16C480.591 229.55 477.492 231.326 474.98 233.395C473.59 236.284 472.66 239.433 472.241 242.741C474.494 241.828 477.534 241.016 481.152 240.379C481.655 235.957 482.676 231.837 484.125 228.169L484.117 228.16Z" fill="#F5EDFF" stroke="#5100CD" stroke-linecap="round" stroke-linejoin="round"/>
<path d="M523.907 240.371C523.404 235.949 522.382 231.828 520.933 228.16C517.265 226.72 513.145 225.698 508.723 225.187C509.426 229.148 509.937 233.805 510.205 238.888C515.28 239.148 519.945 239.667 523.907 240.371Z" fill="#F5EDFF" stroke="#5100CD" stroke-linecap="round" stroke-linejoin="round"/>
<path d="M481.152 252.758C481.655 257.18 482.677 261.3 484.125 264.969C487.794 266.409 491.914 267.431 496.336 267.942C495.633 263.98 495.122 259.324 494.854 254.24C489.779 253.981 485.114 253.461 481.152 252.758Z" fill="#F1E9FD" stroke="#5100CD" stroke-linecap="round" stroke-linejoin="round"/>
<path d="M496.328 225.187C491.906 225.69 487.786 226.711 484.118 228.16C482.677 231.828 481.655 235.949 481.145 240.371C485.106 239.667 489.762 239.156 494.846 238.888C495.106 233.813 495.625 229.148 496.328 225.187Z" fill="#F1E9FD" stroke="#5100CD" stroke-linecap="round" stroke-linejoin="round"/>
<path d="M510.205 254.24C509.945 259.315 509.426 263.98 508.723 267.942C513.145 267.439 517.265 266.417 520.933 264.969C522.374 261.3 523.396 257.18 523.907 252.758C519.945 253.461 515.289 253.972 510.205 254.24Z" fill="#EDE4FB" stroke="#5100CD" stroke-linecap="round" stroke-linejoin="round"/>
<path d="M502.526 238.696C505.164 238.696 507.726 238.763 510.205 238.889C509.946 233.813 509.427 229.149 508.723 225.187C506.713 224.961 504.644 224.835 502.526 224.835C500.407 224.835 498.346 224.961 496.328 225.187C495.625 229.149 495.114 233.805 494.846 238.889C497.316 238.763 499.887 238.696 502.526 238.696Z" fill="#F5EDFF" stroke="#5100CD" stroke-linecap="round" stroke-linejoin="round"/>
<path d="M502.526 254.433C499.887 254.433 497.325 254.366 494.846 254.24C495.105 259.315 495.625 263.98 496.328 267.942C498.338 268.168 500.407 268.302 502.526 268.302C504.644 268.302 506.705 268.176 508.723 267.942C509.427 263.98 509.937 259.324 510.205 254.24C507.735 254.366 505.164 254.433 502.526 254.433Z" fill="#F5EDFF" stroke="#5100CD" stroke-linecap="round" stroke-linejoin="round"/>
<path d="M480.801 246.569C480.801 244.45 480.927 242.389 481.161 240.371C477.543 241.016 474.503 241.82 472.25 242.733C472.091 243.989 471.999 245.262 471.999 246.552C471.999 247.842 472.091 249.123 472.25 250.371C474.503 251.284 477.543 252.096 481.161 252.733C480.935 250.723 480.801 248.654 480.801 246.535V246.552V246.569Z" fill="#F5EDFF" stroke="#5100CD" stroke-linecap="round" stroke-linejoin="round"/>
<path d="M524.25 246.568C524.25 248.687 524.124 250.747 523.89 252.766C527.508 252.121 530.548 251.317 532.801 250.404C532.96 249.148 533.052 247.875 533.052 246.585C533.052 245.295 532.96 244.014 532.801 242.766C530.548 241.853 527.508 241.041 523.89 240.404C524.116 242.414 524.25 244.483 524.25 246.602V246.585V246.568Z" fill="#EDE4FB" stroke="#5100CD" stroke-linecap="round" stroke-linejoin="round"/>
<path d="M510.398 246.569C510.398 249.207 510.331 251.769 510.205 254.248C515.28 253.989 519.945 253.47 523.907 252.766C524.133 250.756 524.267 248.687 524.267 246.569C524.267 244.45 524.141 242.389 523.907 240.371C519.945 239.668 515.289 239.157 510.205 238.889C510.331 241.359 510.398 243.93 510.398 246.569Z" fill="#EDE4FB" stroke="#5100CD" stroke-linecap="round" stroke-linejoin="round"/>
<path d="M494.661 246.569C494.661 243.93 494.728 241.368 494.854 238.889C489.778 239.148 485.113 239.668 481.152 240.371C480.926 242.381 480.792 244.45 480.792 246.569C480.792 248.687 480.918 250.748 481.152 252.766C485.113 253.47 489.77 253.98 494.854 254.248C494.728 251.778 494.661 249.207 494.661 246.569Z" fill="#F5EDFF" stroke="#5100CD" stroke-linecap="round" stroke-linejoin="round"/>
<path d="M510.206 238.888C507.735 238.763 505.164 238.696 502.526 238.696C499.888 238.696 497.325 238.763 494.846 238.888C494.72 241.359 494.653 243.93 494.653 246.568C494.653 249.206 494.72 251.769 494.846 254.248C497.317 254.374 499.888 254.441 502.526 254.441C505.164 254.441 507.727 254.374 510.206 254.248C510.331 251.778 510.398 249.206 510.398 246.568C510.398 243.93 510.331 241.367 510.206 238.888Z" fill="#F1E9FD" stroke="#5100CD" stroke-linecap="round" stroke-linejoin="round"/>
<path d="M249.483 207.859L125.399 280.043H125.499L29.3457 224.115L152.006 150.926L249.483 207.859Z" fill="#F5EDFF" stroke="#5100CD" stroke-linecap="round" stroke-linejoin="round"/>
<path d="M125.499 280.043V290.83L249.483 218.654V207.859L125.499 280.043Z" fill="#DBC8F6" stroke="#5100CD" stroke-linecap="round" stroke-linejoin="round"/>
<path d="M29.3457 224.115V234.902L125.499 290.83V280.043L29.3457 224.115Z" fill="#F1E9FD" stroke="#5100CD" stroke-linecap="round" stroke-linejoin="round"/>
<path d="M117.928 241.024L89.9893 224.802" stroke="#5100CD" stroke-linecap="round" stroke-linejoin="round"/>
<path d="M181.688 198.764L153.749 182.542" stroke="#5100CD" stroke-linecap="round" stroke-linejoin="round"/>
<path d="M95.2156 252.942L63.4492 234.492" stroke="#5100CD" stroke-linecap="round" stroke-linejoin="round"/>
<path d="M153.388 221.761L125.449 205.539" stroke="#5100CD" stroke-linecap="round" stroke-linejoin="round"/>
<path d="M145.583 225.43L117.644 241.66" stroke="#5100CD" stroke-linecap="round" stroke-linejoin="round"/>
<path d="M185.113 204.107L157.174 220.338" stroke="#5100CD" stroke-linecap="round" stroke-linejoin="round"/>
<path d="M154.812 176.444L126.873 192.675" stroke="#5100CD" stroke-linecap="round" stroke-linejoin="round"/>
<path d="M103.96 205.531L76.0205 221.762" stroke="#5100CD" stroke-linecap="round" stroke-linejoin="round"/>
<path d="M91.397 218.646L63.458 234.877" stroke="#5100CD" stroke-linecap="round" stroke-linejoin="round"/>
<path d="M123.155 237.079L95.2158 253.31" stroke="#5100CD" stroke-linecap="round" stroke-linejoin="round"/>
<path d="M95.9865 253.134L98.9848 251.384L95.9865 249.608L92.9883 251.384L95.9865 253.134Z" fill="#F5EDFF" stroke="#5100CD" stroke-linecap="round" stroke-linejoin="round"/>
<path d="M95.9863 256.275V253.134L98.9846 251.384V254.55L95.9863 256.275Z" fill="#5100CD" stroke="#5100CD" stroke-linecap="round" stroke-linejoin="round"/>
<path d="M92.9883 254.491V251.384L95.9865 253.134V256.275L92.9883 254.491Z" fill="#F5EDFF" stroke="#5100CD" stroke-linecap="round" stroke-linejoin="round"/>
<path d="M64.1779 234.684L67.1762 232.934L64.1779 231.158L61.1797 232.934L64.1779 234.684Z" fill="#F5EDFF" stroke="#5100CD" stroke-linecap="round" stroke-linejoin="round"/>
<path d="M64.1777 237.825V234.684L67.176 232.934V236.099L64.1777 237.825Z" fill="#5100CD" stroke="#5100CD" stroke-linecap="round" stroke-linejoin="round"/>
<path d="M61.1797 236.041V232.934L64.1779 234.684V237.825L61.1797 236.041Z" fill="#F5EDFF" stroke="#5100CD" stroke-linecap="round" stroke-linejoin="round"/>
<path d="M84.5539 234.299L110.257 219.366L84.5539 204.082L58.8594 219.366L84.5539 234.299Z" fill="#F5EDFF" stroke="#5100CD" stroke-linecap="round" stroke-linejoin="round"/>
<path d="M110.257 219.366V221.501L84.5537 236.434V234.298L110.257 219.366Z" fill="#DBC8F6" stroke="#5100CD" stroke-linecap="round" stroke-linejoin="round"/>
<path d="M58.8594 219.366V221.501L84.5539 236.434V234.298L58.8594 219.366Z" fill="#F5EDFF" stroke="#5100CD" stroke-linecap="round" stroke-linejoin="round"/>
<path d="M149.31 195.439L175.013 180.506L149.31 165.222L123.615 180.506L149.31 195.439Z" fill="#F5EDFF" stroke="#5100CD" stroke-linecap="round" stroke-linejoin="round"/>
<path d="M175.012 180.506V182.641L149.31 197.574V195.438L175.012 180.506Z" fill="#DBC8F6" stroke="#5100CD" stroke-linecap="round" stroke-linejoin="round"/>
<path d="M123.615 180.506V182.641L149.31 197.574V195.438L123.615 180.506Z" fill="#F5EDFF" stroke="#5100CD" stroke-linecap="round" stroke-linejoin="round"/>
<path d="M116.932 255.177L142.635 240.245L116.932 224.96L91.2373 240.245L116.932 255.177Z" fill="#F5EDFF" stroke="#5100CD" stroke-linecap="round" stroke-linejoin="round"/>
<path d="M142.635 240.245V242.38L116.932 257.313V255.177L142.635 240.245Z" fill="#DBC8F6" stroke="#5100CD" stroke-linecap="round" stroke-linejoin="round"/>
<path d="M91.2373 240.245V242.38L116.932 257.313V255.177L91.2373 240.245Z" fill="#F5EDFF" stroke="#5100CD" stroke-linecap="round" stroke-linejoin="round"/>
<path d="M149.31 235.748L175.013 220.815L149.31 205.531L123.615 220.815L149.31 235.748Z" fill="#F5EDFF" stroke="#5100CD" stroke-linecap="round" stroke-linejoin="round"/>
<path d="M175.012 220.815V222.951L149.31 237.883V235.748L175.012 220.815Z" fill="#DBC8F6" stroke="#5100CD" stroke-linecap="round" stroke-linejoin="round"/>
<path d="M123.615 220.815V222.951L149.31 237.883V235.748L123.615 220.815Z" fill="#F5EDFF" stroke="#5100CD" stroke-linecap="round" stroke-linejoin="round"/>
<path d="M181.687 216.326L207.39 201.393L181.687 186.109L155.992 201.393L181.687 216.326Z" fill="#F5EDFF" stroke="#5100CD" stroke-linecap="round" stroke-linejoin="round"/>
<path d="M207.389 201.393V203.529L181.687 218.461V216.326L207.389 201.393Z" fill="#DBC8F6" stroke="#5100CD" stroke-linecap="round" stroke-linejoin="round"/>
<path d="M155.992 201.393V203.529L181.687 218.461V216.326L155.992 201.393Z" fill="#F5EDFF" stroke="#5100CD" stroke-linecap="round" stroke-linejoin="round"/>
<path d="M198.303 256.894V243.603L187.96 237.632V221.745L206.393 232.381V251.183L209.693 253.092V263.469L198.303 256.894Z" fill="#F5EDFF" stroke="#5100CD" stroke-linecap="round" stroke-linejoin="round"/>
<path d="M209.693 263.469V253.092L234.626 238.604V248.98L209.693 263.469Z" fill="#DBC8F6" stroke="#5100CD" stroke-linecap="round" stroke-linejoin="round"/>
<path d="M206.394 232.381V251.183L234.626 234.776V215.907L206.394 232.381Z" fill="#DBC8F6" stroke="#5100CD" stroke-linecap="round" stroke-linejoin="round"/>
<path d="M209.693 253.093L206.394 251.183L234.626 234.776V238.604L209.693 253.093Z" fill="#F5EDFF" stroke="#5100CD" stroke-linecap="round" stroke-linejoin="round"/>
<path d="M216.376 205.363L234.625 215.907L206.393 232.381L187.96 221.745L216.376 205.363Z" fill="#F5EDFF" stroke="#5100CD" stroke-linecap="round" stroke-linejoin="round"/>
<path d="M251.635 221.485V235.941V237.381V250.681L223.244 267.062V253.771V252.33V237.875L251.635 221.485Z" fill="#F5EDFF" stroke="#5100CD" stroke-linecap="round" stroke-linejoin="round"/>
<path d="M213.277 232.122L223.244 237.875V267.062L216.585 263.218V252.841L213.277 250.932V232.122Z" fill="#F5EDFF" stroke="#5100CD" stroke-linecap="round" stroke-linejoin="round"/>
<path d="M241.518 215.656L213.277 232.122L223.244 237.875L251.635 221.494L241.518 215.656Z" fill="#F5EDFF" stroke="#5100CD" stroke-linecap="round" stroke-linejoin="round"/>
<path d="M151.186 284.44V271.149L140.843 265.177V249.29L159.276 259.926V278.728L162.576 280.638V291.014L151.186 284.44Z" fill="#F5EDFF" stroke="#5100CD" stroke-linecap="round" stroke-linejoin="round"/>
<path d="M162.576 291.014V280.638L187.509 266.149V276.526L162.576 291.014Z" fill="#DBC8F6" stroke="#5100CD" stroke-linecap="round" stroke-linejoin="round"/>
<path d="M159.276 259.926V278.728L187.508 262.322V243.453L159.276 259.926Z" fill="#DBC8F6" stroke="#5100CD" stroke-linecap="round" stroke-linejoin="round"/>
<path d="M162.576 280.638L159.276 278.728L187.508 262.322V266.149L162.576 280.638Z" fill="#F5EDFF" stroke="#5100CD" stroke-linecap="round" stroke-linejoin="round"/>
<path d="M169.259 232.909L187.508 243.453L159.276 259.926L140.843 249.29L169.259 232.909Z" fill="#F5EDFF" stroke="#5100CD" stroke-linecap="round" stroke-linejoin="round"/>
<path d="M204.518 249.031V263.486V264.926V278.226L176.127 294.607V281.316V279.876V265.421L204.518 249.031Z" fill="#F5EDFF" stroke="#5100CD" stroke-linecap="round" stroke-linejoin="round"/>
<path d="M166.16 259.667L176.126 265.421V294.607L169.468 290.763V280.387L166.16 278.477V259.667Z" fill="#F5EDFF" stroke="#5100CD" stroke-linecap="round" stroke-linejoin="round"/>
<path d="M194.401 243.202L166.16 259.667L176.126 265.421L204.518 249.039L194.401 243.202Z" fill="#F5EDFF" stroke="#5100CD" stroke-linecap="round" stroke-linejoin="round"/>
<path d="M100.182 197.985L98.0967 206.327L106.447 212.223H120.324L131.613 206.318L133.699 197.968L125.349 192.072L111.472 192.081L100.182 197.985Z" fill="#F5EDFF" stroke="#5100CD" stroke-linecap="round" stroke-linejoin="round"/>
<path d="M110.776 186.947H124.662L133.003 192.834L130.918 201.176L119.629 207.08H105.743L97.4014 201.193L99.4867 192.851L110.776 186.947ZM105.274 194.384L103.959 199.652L109.227 203.379H117.995L125.131 199.643L126.446 194.375L121.178 190.649H112.409L105.274 194.384Z" fill="#F5EDFF" stroke="#5100CD" stroke-linecap="round" stroke-linejoin="round"/>
<path d="M97.4102 201.193L98.0969 206.327L106.447 212.223L105.752 207.089L97.4102 201.193Z" fill="#F5EDFF" stroke="#5100CD" stroke-linecap="round" stroke-linejoin="round"/>
<path d="M119.637 207.08L120.323 212.222L131.613 206.318L130.918 201.176L119.637 207.08Z" fill="#5100CD" stroke="#5100CD" stroke-linecap="round" stroke-linejoin="round"/>
<path d="M105.751 207.088L106.446 212.222H120.323L119.637 207.08L105.751 207.088Z" fill="#F5EDFF" stroke="#5100CD" stroke-linecap="round" stroke-linejoin="round"/>
<path d="M130.918 201.176L131.613 206.318L133.698 197.968L133.003 192.834L130.918 201.176Z" fill="#C8ADF0" stroke="#5100CD" stroke-linecap="round" stroke-linejoin="round"/>
<path d="M105.273 194.384L105.969 199.518L113.104 195.791L112.409 190.648L105.273 194.384Z" fill="#5100CD" stroke="#5100CD" stroke-linecap="round" stroke-linejoin="round"/>
<path d="M121.873 195.782L121.178 190.648L126.454 194.375L125.441 198.295L121.873 195.782Z" fill="#F5EDFF" stroke="#5100CD" stroke-linecap="round" stroke-linejoin="round"/>
<path d="M105.6 200.807L105.969 199.518L105.274 194.384L103.959 199.652L105.6 200.807Z" fill="#C8ADF0" stroke="#5100CD" stroke-linecap="round" stroke-linejoin="round"/>
<path d="M112.409 190.648L113.104 195.791L121.873 195.782L121.178 190.648H112.409Z" fill="#F5EDFF" stroke="#5100CD" stroke-linecap="round" stroke-linejoin="round"/>
</svg>
